<svg width="315" height="299" viewBox="0 0 315 299" fill="none" xmlns="http://www.w3.org/2000/svg">
<path d="M89.3315 53.0933C5.58983 5.25402 3.54593 118.349 3.97382 183.067C4.58961 276.207 102.863 264.956 177.852 249.011C227.378 238.48 268.949 283.063 294.945 193.157C320.941 103.252 327.732 61.3602 227.852 16.7059C127.972 -27.9485 173.073 100.933 89.3315 53.0933Z" fill="#577A99"/>
<mask id="mask0" mask-type="alpha" maskUnits="userSpaceOnUse" x="0" y="0" width="315" height="268">
<path d="M89.3315 53.0933C5.58983 5.25402 3.54593 118.349 3.97382 183.067C4.58961 276.207 102.863 264.956 177.852 249.011C227.378 238.48 268.949 283.063 294.945 193.157C320.941 103.252 327.732 61.3602 227.852 16.7059C127.972 -27.9485 173.073 100.933 89.3315 53.0933Z" fill="#F0EFFF"/>
</mask>
<g mask="url(#mask0)">
<path opacity="0.1" d="M189.715 289.409C303.961 293.371 397.394 272.967 398.405 243.835C399.415 214.703 307.619 187.875 193.373 183.914C79.1268 179.952 -14.3068 200.357 -15.317 229.488C-16.3272 258.62 75.4686 285.448 189.715 289.409Z" fill="black"/>
</g>
<ellipse cx="182.991" cy="281.131" rx="58.7581" ry="17.1817" fill="black" fill-opacity="0.1"/>
<ellipse cx="80.591" cy="231.844" rx="79.7651" ry="22.1946" fill="black" fill-opacity="0.1"/>
<path d="M74.6641 135.713L57.2576 242.546L135.965 234.212L132.559 225.12L71.0692 230.234L85.4485 135.524L74.6641 135.713Z" fill="#3F3D56"/>
<path d="M54.2304 14.4838L160.183 14.1049L190.833 246.335L84.5025 260.731L54.2304 14.4838Z" fill="#3F3D56"/>
<path d="M65.7716 23.3866H151.29L181.184 239.326L93.0165 251.449L65.7716 23.3866Z" fill="white"/>
<path d="M146.424 229.613C146.961 230.643 147.362 231.757 148.062 232.685C150.106 235.42 153.984 235.848 156.894 237.633C157.04 237.707 157.16 237.823 157.239 237.966C157.371 238.28 157.076 238.61 156.792 238.807C154.586 240.357 151.691 240.391 148.993 240.372C148.087 240.404 147.18 240.317 146.295 240.114C144.869 239.735 143.647 238.739 142.239 238.334C141.509 238.151 140.762 238.046 140.01 238.019L137.055 237.818C136.268 237.807 135.489 237.662 134.75 237.39C134.382 237.249 134.056 237.017 133.802 236.716C133.548 236.414 133.374 236.053 133.297 235.667C133.214 235.038 133.483 234.428 133.642 233.814C134.02 232.359 133.903 230.601 135.034 229.609C135.5 229.251 136.035 228.994 136.604 228.851C138.661 228.157 140.761 227.598 142.89 227.177C144.642 226.832 145.648 228.12 146.424 229.613Z" fill="#3F3D56"/>
<path d="M112.996 237.807C113.072 238.614 113.094 239.538 112.512 240.103C112.149 240.404 111.71 240.601 111.244 240.671C108.448 241.323 105.33 241.368 102.897 239.845C102.643 239.7 102.42 239.509 102.238 239.281C102.035 238.97 101.92 238.61 101.905 238.239C101.818 237.167 102.147 236.11 102.446 235.076C103.154 232.622 103.691 230.122 104.054 227.593C104.085 227.385 111.195 228.73 111.668 229.435C112.262 230.306 112.266 232.397 112.425 233.435C112.664 234.885 112.855 236.342 112.996 237.807Z" fill="#3F3D56"/>
<path d="M139.461 139.225L141.353 156.837C141.732 160.436 142.129 164.054 141.868 167.665C141.565 171.832 140.4 175.999 140.892 180.128C141.085 181.735 141.524 183.311 141.588 184.928C141.6 186.004 141.546 187.079 141.425 188.148C140.57 198.836 143.276 209.439 144.789 220.051C145.033 221.36 145.086 222.697 144.948 224.021C144.751 225.366 144.358 227.131 145.554 227.768L134.323 231.844C132.889 230.045 133.838 227.245 133.566 224.96C133.316 222.903 132.189 221.07 131.587 219.088C131.042 217.308 130.928 215.433 130.751 213.584C129.771 203.518 126.762 193.714 126.058 183.625C126.036 182.651 125.909 181.682 125.68 180.735C125.302 179.481 124.545 178.386 123.992 177.208C123.145 175.438 122.729 173.499 122.32 171.582L119.917 160.311C117.488 163.933 117.586 168.646 117.105 172.987C116.432 179.049 114.926 185.008 113.7 190.994C113.415 192.281 113.202 193.584 113.06 194.896C112.743 198.407 113.374 201.953 113.038 205.462C112.659 209.526 110.953 213.493 111.365 217.558C111.592 219.808 112.455 221.937 113.038 224.119C113.62 226.302 113.908 228.696 113.019 230.776C109.911 229.633 106.572 229.264 103.29 229.7C99.6839 226.006 99.0444 220.854 98.7984 215.683C98.5525 210.511 99.1466 205.333 98.5033 200.211C98.3141 198.695 98.0189 197.218 97.9697 195.706C97.8108 190.861 100.138 186.326 101.296 181.617C102.338 177.378 102.437 172.962 101.587 168.68C101.02 165.85 100.043 163.103 99.6952 160.235C99.2222 156.216 100.024 152.166 100.83 148.196C101.372 145.517 101.909 142.839 102.522 140.176C103.18 137.316 103.964 134.395 105.723 132.053C108.538 128.307 113.537 126.644 118.21 127.007C122.884 127.371 127.247 129.5 131.106 132.152C134.148 134.187 136.951 136.56 139.461 139.225Z" fill="#192534"/>
<path d="M126.906 71.7836C126.694 72.1249 126.546 72.5025 126.471 72.8974C126.376 73.674 126.849 74.3862 127.228 75.0643C127.713 75.9356 128.085 76.8648 128.336 77.8299C128.517 78.4272 128.572 79.0552 128.499 79.6748C128.407 80.1402 128.241 80.5879 128.007 81.0008C127.277 82.4101 126.195 83.7133 124.723 84.3005C123.583 84.7207 122.34 84.7711 121.169 84.4444C120.007 84.115 118.908 83.5926 117.919 82.8988C117.085 82.3697 116.335 81.7184 115.694 80.9667C115.082 80.1447 114.566 79.2549 114.158 78.3148C113.371 76.6668 112.572 74.9052 112.716 73.0981C112.724 72.9343 112.754 72.7723 112.807 72.617C112.93 72.3364 113.101 72.0798 113.314 71.8593C114.928 69.944 115.756 67.4864 115.63 64.9834L121.143 66.2373C122.358 66.5139 123.572 66.7904 124.772 67.1352C125.756 67.4193 127.269 67.8133 127.909 68.6922C128.548 69.5711 127.341 70.9804 126.906 71.7836Z" fill="#FBBEBE"/>
<path d="M123.954 70.844C129.488 70.844 133.975 66.3527 133.975 60.8123C133.975 55.2719 129.488 50.7806 123.954 50.7806C118.421 50.7806 113.934 55.2719 113.934 60.8123C113.934 66.3527 118.421 70.844 123.954 70.844Z" fill="#FBBEBE"/>
<path d="M122.343 81.05C122.766 80.1218 123.682 79.5346 124.518 78.9512C125.355 78.3678 126.202 77.6215 126.365 76.61C126.375 76.3812 126.432 76.1569 126.531 75.9508C126.853 75.4659 127.617 75.7083 128.075 76.0645C129.188 76.932 129.945 78.1632 130.682 79.3642C131.637 80.8246 132.454 82.3706 133.123 83.9822C134.186 86.7895 134.315 89.8543 134.432 92.8509C134.538 95.5786 134.641 98.3479 133.978 100.992C133.562 102.667 132.843 104.292 132.802 106.016C132.677 112.278 130.505 118.264 130.353 124.526C130.342 126.337 130.433 128.147 130.626 129.947L130.981 134.012C125.479 133.696 119.993 133.213 114.521 132.561C114.362 130.69 113.828 128.875 113.34 127.064C111.342 119.661 110.06 112.082 109.515 104.432C109.223 100.371 108.924 96.3249 108.474 92.2789C108.069 88.6003 107.275 84.899 107.751 81.2281C108.001 79.5595 108.525 77.9439 109.303 76.4471C109.549 75.8508 109.971 75.3443 110.514 74.9961C110.785 74.865 111.072 74.7719 111.369 74.7196C112.227 74.5456 113.098 74.4429 113.972 74.4127C114.186 74.3947 114.401 74.4152 114.608 74.4733C114.977 74.6573 115.279 74.9511 115.475 75.3144C117.16 77.852 119.547 79.8446 122.343 81.05Z" fill="#F2F2F2"/>
<path d="M117.696 80.2469C118.4 81.2546 119.89 81.4933 120.541 82.5199C120.761 82.949 120.927 83.4032 121.037 83.8724C121.434 85.1415 122.237 86.2439 122.725 87.4827C123.429 89.2633 123.447 91.2333 123.455 93.1464C123.524 94.6703 123.407 96.197 123.107 97.6925C122.88 98.6283 122.509 99.5185 122.237 100.443C121.774 102.015 121.602 103.658 121.73 105.292C121.73 105.645 121.824 105.992 122.002 106.296C122.259 106.6 122.594 106.828 122.971 106.955C124.079 107.444 125.241 107.944 126.452 107.83C126.7 107.822 126.941 107.742 127.144 107.599C127.285 107.471 127.4 107.318 127.485 107.148L128.242 105.868C128.927 104.697 129.642 103.387 129.377 102.049C129.185 101.359 128.895 100.699 128.518 100.091C128.034 99.1023 127.622 98.0806 127.284 97.0333C126.077 93.5594 124.855 90.0361 124.583 86.3689C124.422 84.9733 124.578 83.5595 125.037 82.232C125.392 81.415 125.839 80.641 126.369 79.9249C126.249 79.7639 126.083 79.6433 125.893 79.579C125.703 79.5147 125.498 79.5098 125.305 79.565C124.925 79.6827 124.556 79.8362 124.204 80.0234C123.092 80.4931 121.858 80.3226 120.734 80.0006C120.295 79.8718 119.599 79.4324 119.145 79.4627C118.99 79.4816 117.722 80.2923 117.696 80.2469Z" fill="#6C63FF"/>
<path d="M126.554 80.2052C126.327 80.0234 125.975 79.8567 125.775 80.0688C125.707 80.1608 125.658 80.265 125.631 80.3757C125.434 80.9061 124.855 81.1675 124.329 81.372C123.803 81.5766 123.236 81.6903 122.918 81.3C122.817 81.1481 122.768 80.9681 122.777 80.7862C122.786 80.6043 122.852 80.43 122.967 80.2885C123.2 80.0078 123.48 79.7705 123.796 79.5877C125.536 78.3577 126.722 76.4899 127.095 74.39C127.583 74.7784 127.906 75.3374 128 75.9546C128.124 76.557 128.14 77.1783 128.264 77.7806C128.45 78.6444 128.862 79.4513 128.957 80.3264C129.006 80.7924 128.957 81.2622 128.957 81.7281C128.974 82.1837 129.027 82.6372 129.116 83.0844C128.23 82.1449 127.606 81.0424 126.554 80.2052Z" fill="#F2F2F2"/>
<path d="M118.895 77.6329C118.517 77.273 118.139 76.932 117.76 76.5645C116.1 74.942 114.846 72.9494 114.101 70.7493C113.617 71.1282 113.083 71.6282 113.072 72.2647C113.115 72.7151 113.288 73.143 113.571 73.4959C115.002 75.752 115.947 78.2824 116.345 80.925C116.549 80.6053 116.832 80.3436 117.167 80.1651C117.502 79.9866 117.877 79.8974 118.256 79.9059C118.854 79.9059 121.537 81.4971 121.73 81.0955C122.013 80.4666 119.349 78.061 118.895 77.6329Z" fill="#F2F2F2"/>
<path d="M127.345 74.6173C130.904 78.1648 135.262 80.806 140.052 82.3191C140.528 82.4231 140.969 82.6474 141.334 82.9708C141.607 83.3117 141.79 83.7154 141.868 84.1452C142.791 87.7593 143.102 91.4985 143.408 95.2149C143.488 95.8296 143.476 96.4528 143.37 97.0637C143.147 98.0562 142.443 98.8594 141.751 99.6057C139.579 101.936 137.1 104.372 136.733 107.539C136.705 108.149 136.633 108.757 136.517 109.357C136.328 110.062 135.908 110.683 135.651 111.369C134.387 114.744 137.244 118.832 135.503 121.976C136.446 123.789 137.092 125.74 137.418 127.757C137.476 128.522 137.651 129.273 137.936 129.985C138.455 131.068 139.522 131.758 140.362 132.637C142.924 135.266 143.238 139.289 143.389 142.96C143.484 145.029 143.453 147.404 141.876 148.76C140.964 149.552 139.719 149.81 138.527 150.007C136.941 150.272 135.216 150.461 133.812 149.677C132.805 149.116 132.12 148.135 131.466 147.188C130.225 145.381 128.98 143.578 127.803 141.725C125.941 138.804 124.185 135.467 124.723 132.042C124.571 135.546 123.833 139.077 122.115 142.131C120.398 145.184 117.631 147.734 114.275 148.741C110.919 149.749 106.995 149.037 104.493 146.582C103.677 145.74 102.976 144.794 102.408 143.767C100.985 141.326 99.9456 138.68 99.3282 135.921C99.1655 135.205 99.0444 134.406 99.4039 133.766C99.5741 133.463 99.8352 133.224 100.013 132.925C100.611 131.906 100.036 130.621 99.4568 129.583C98.5751 129.667 97.9432 128.629 98.0227 127.742C98.1022 126.856 98.6319 126.087 99.0065 125.28C100.104 122.901 99.8617 120.131 99.332 117.567C98.8022 115.002 98.0113 112.452 98.0719 109.834C98.1362 107.065 96.1458 104.572 94.6284 102.258C93.7808 100.954 92.7932 99.7421 92.0553 98.3744C90.5169 95.4964 90.1612 92.1309 91.0639 88.9943C91.5938 87.3837 92.2887 85.8323 93.1375 84.3649L94.3863 82.0199C94.6188 81.4595 94.9797 80.9618 95.4398 80.567C95.8999 80.1721 96.4464 79.8912 97.0351 79.7468L105.674 76.3372C106.779 75.9595 107.827 75.4345 108.792 74.7764C109.848 73.9808 110.635 72.8822 111.641 72.0336C111.788 71.8794 111.964 71.756 112.159 71.6708C112.354 71.5855 112.564 71.5402 112.777 71.5373C113.586 71.6093 113.874 72.6322 113.957 73.4315C114.146 75.2197 115.471 76.735 115.921 78.4739C118.358 88.0775 123.516 96.9348 124.931 106.739C126.52 102.917 128.109 99.0867 130.145 95.4877C130.466 94.971 130.736 94.4241 130.951 93.8549C131.195 93.0338 131.287 92.1746 131.22 91.3204C131.118 88.8542 130.463 86.4447 129.816 84.0618C128.976 80.8189 128.219 77.8299 127.345 74.6173Z" fill="#3F3D56"/>
<path d="M143.809 103.962C143.976 105.576 144.138 107.194 144.437 108.789C144.786 110.634 145.315 112.437 145.841 114.24C146.098 115.254 146.466 116.236 146.939 117.169C147.11 117.44 147.246 117.731 147.344 118.036C147.529 118.794 147.105 119.552 146.923 120.309C146.379 122.582 148.013 125.109 146.984 127.204C146.674 127.841 146.133 128.367 145.928 129.049C145.69 129.833 145.928 130.671 146.053 131.481C146.375 133.754 145.599 136.065 144.835 138.251L143.533 141.941C142.345 139.729 141.145 137.494 139.503 135.596C138.917 134.914 138.277 134.281 137.736 133.561C136.929 132.43 136.292 131.187 135.844 129.871C134.689 126.745 134.029 123.458 133.888 120.128C133.794 119.181 133.903 118.225 134.209 117.324C134.46 116.803 134.74 116.297 135.049 115.809C136.063 113.979 136.272 111.812 136.253 109.721C136.234 107.63 136.01 105.531 136.253 103.451C136.45 101.714 136.963 100.029 137.766 98.4767C138.24 97.4718 138.944 96.593 139.821 95.912C140.475 95.4214 141.274 95.1616 142.091 95.1732C143.329 95.2452 143.045 96.3098 143.151 97.3364L143.809 103.962Z" fill="#3F3D56"/>
<path d="M88.1502 98.8063C87.3783 101.079 86.682 103.373 86.0615 105.686C85.456 107.959 84.9149 110.245 84.4381 112.543C84.1932 113.554 84.0562 114.587 84.0295 115.627C84.0779 116.837 84.2853 118.036 84.6463 119.192C87.0832 127.985 91.5256 136.096 96.528 143.722C97.9575 141.937 99.6553 140.385 101.561 139.123C101.717 139.03 101.847 138.9 101.939 138.744C101.987 138.596 102.001 138.44 101.98 138.287C101.959 138.133 101.904 137.986 101.818 137.857C100.437 135.024 98.2498 132.527 97.5611 129.447C97.2735 128.167 97.2621 126.833 96.9367 125.56C96.5167 123.912 95.5782 122.404 95.3626 120.715C95.1317 118.874 95.741 116.866 94.8782 115.233C96.6378 114.547 97.6557 112.733 98.4011 110.994C99.1976 109.215 99.7672 107.342 100.096 105.421C100.614 101.737 99.8943 97.9855 98.0492 94.7565C97.148 93.1458 95.9914 91.6923 94.6247 90.4529C94.1744 90.0475 93.1111 88.8845 92.4564 88.8958C91.5823 88.9148 91.3023 90.3316 91.0526 90.9681C90.0422 93.5669 89.0433 96.1696 88.1502 98.8063Z" fill="#3F3D56"/>
<path d="M103.824 141.21C103.937 141.293 104.066 141.407 104.035 141.543C104.005 141.68 103.895 141.714 103.797 141.771C103.286 142.134 102.904 142.652 102.707 143.248C102.078 144.667 101.53 146.12 101.065 147.601C100.218 146.331 99.2222 145.167 98.0984 144.135C97.2356 143.339 96.2707 142.585 95.8091 141.509C95.8091 141.479 97.7919 140.013 97.9735 139.854C98.5298 139.357 99.2298 137.982 99.805 137.679C100.456 137.338 101.076 138.676 101.572 139.213C102.254 139.953 103.008 140.622 103.824 141.21Z" fill="#FBBEBE"/>
<path d="M134.595 59.2439C134.569 58.7476 134.504 58.1983 134.126 57.8763C133.794 57.6463 133.394 57.5355 132.991 57.5619C130.785 57.4899 128.503 57.8612 126.422 57.1186C125.052 56.6299 123.883 55.6904 122.547 55.107C121.211 54.5236 119.501 54.3682 118.422 55.3494C117.605 56.1071 117.382 57.2702 117.098 58.3423C116.473 60.7086 115.361 62.9178 113.832 64.8281C112.807 64.5098 112.073 63.593 111.6 62.6308C109.992 59.35 110.782 55.4328 111.925 51.955C112.304 50.7882 112.724 49.6327 113.144 48.481L114.067 45.9352C115.279 45.8161 116.405 45.2552 117.23 44.3593L117.628 45.3253C118.654 45.2883 119.644 44.938 120.466 44.3214C120.784 44.9199 121.601 45.0791 122.263 44.8858C122.925 44.6926 123.497 44.3214 124.155 44.1282C125.915 43.5599 127.792 44.435 129.638 44.5335C130.42 44.5145 131.201 44.5372 131.98 44.6017C134.16 44.954 135.7 47.0074 136.366 49.1137C136.809 50.5154 137.176 52.2392 138.557 52.7354C138.587 53.2658 137.649 53.3681 137.569 53.872C137.56 54.0399 137.599 54.2071 137.683 54.3531L138.951 57.077C138.345 57.2293 137.707 57.1976 137.119 56.986C136.548 58.3309 134.652 60.2706 134.595 59.2439Z" fill="#192534"/>
<path d="M198.832 65.1728C199.475 67.2501 199.98 69.3673 200.346 71.5108C200.619 73.1171 200.777 74.9014 199.858 76.2425C203.362 70.9652 207.021 65.5289 212.345 62.1231C211.261 60.9462 210.436 59.5541 209.924 58.0373C209.413 56.5205 209.225 54.9128 209.375 53.3188C209.405 53.0006 205.004 54.6637 204.667 54.8531C203.124 55.7131 201.708 56.7814 200.202 57.702C199.423 58.1756 196.176 59.2969 196.146 59.9751C196.146 60.4107 197.436 61.7443 197.678 62.2026C198.154 63.155 198.54 64.1493 198.832 65.1728Z" fill="#FBBEBE"/>
<path d="M215.115 264.208C214.25 263.598 213.236 263.234 212.181 263.154C211.125 263.074 210.068 263.281 209.121 263.754C207.407 264.64 206.253 266.319 204.694 267.455C202.015 269.402 198.477 269.558 195.34 270.611C194.507 270.891 193.622 271.308 193.27 272.126C193.152 272.47 193.105 272.835 193.132 273.197C193.158 273.56 193.258 273.913 193.425 274.236C193.949 275.407 194.868 276.355 196.021 276.915C197.429 277.589 199.048 277.619 200.607 277.638L214.154 277.797C218.316 277.847 222.505 277.896 226.641 278.415C227.606 278.536 228.65 278.669 229.502 278.195C230.887 277.438 231.046 275.521 230.94 273.941C230.661 269.938 229.767 266.003 228.291 262.273C228.128 261.86 227.913 261.39 227.455 261.314C227.13 261.299 226.81 261.401 226.554 261.602C222.732 263.875 217.892 265.159 213.828 263.341" fill="white"/>
<path d="M221.896 177.681C220.382 186.482 221.37 195.525 223.073 204.287C223.386 206.032 223.799 207.757 224.31 209.455C224.919 211.387 225.741 213.243 226.312 215.186C227.765 220.111 227.561 225.377 227.345 230.518L226.354 253.912C226.27 255.874 226.195 257.882 226.785 259.753C227.023 260.511 227.315 261.458 226.713 261.969C226.478 262.139 226.203 262.244 225.915 262.276C223.207 262.776 220.41 262.356 217.968 261.083L217.7 237.451C217.616 230.166 217.529 222.85 216.409 215.656C215.52 209.936 213.976 204.291 213.874 198.502C213.768 192.441 215.251 186.459 216.765 180.583C217.09 179.325 218.278 178.405 219.255 177.552C219.595 177.216 220.01 176.964 220.466 176.817C220.92 176.692 221.616 177.298 221.896 177.681Z" fill="#3F3D56"/>
<path opacity="0.1" d="M221.896 177.681C220.382 186.482 221.37 195.525 223.073 204.287C223.386 206.032 223.799 207.757 224.31 209.455C224.919 211.387 225.741 213.243 226.312 215.186C227.765 220.111 227.561 225.377 227.345 230.518L226.354 253.912C226.27 255.874 226.195 257.882 226.785 259.753C227.023 260.511 227.315 261.458 226.713 261.969C226.478 262.139 226.203 262.244 225.915 262.276C223.207 262.776 220.41 262.356 217.968 261.083L217.7 237.451C217.616 230.166 217.529 222.85 216.409 215.656C215.52 209.936 213.976 204.291 213.874 198.502C213.768 192.441 215.251 186.459 216.765 180.583C217.09 179.325 218.278 178.405 219.255 177.552C219.595 177.216 220.01 176.964 220.466 176.817C220.92 176.692 221.616 177.298 221.896 177.681Z" fill="black"/>
<path d="M193.482 150.177C192.922 152.484 194.11 154.875 193.978 157.246C193.902 158.682 193.338 160.114 193.599 161.523C193.86 162.933 194.867 163.994 195.404 165.285C195.796 166.364 196.003 167.502 196.017 168.649C196.172 171.483 196.047 174.332 195.941 177.154C195.764 181.89 195.631 186.652 196.256 191.346C196.799 195.412 197.903 199.384 199.536 203.147C200.031 204.17 200.44 205.234 200.758 206.325C200.968 207.342 201.107 208.373 201.175 209.409C201.534 212.779 202.438 216.069 203.85 219.149C204.815 221.259 206.499 222.937 207.032 225.176C207.539 227.321 207.199 229.582 207.566 231.753C207.835 233.363 208.489 234.886 208.852 236.477C209.325 238.534 209.314 240.667 209.553 242.766C210.234 248.827 212.985 254.889 211.342 260.769C211.013 261.951 210.502 263.151 210.733 264.356C210.847 264.947 211.134 265.531 211.006 266.118C210.9 266.618 210.514 267.004 210.317 267.478C209.938 268.364 210.34 269.417 211.013 270.103C211.732 270.742 212.567 271.236 213.473 271.558C216.262 272.751 219.149 273.964 222.176 273.937C222.543 273.957 222.91 273.889 223.247 273.74C223.792 273.456 224.06 272.838 224.291 272.27L225.843 268.429C226.032 267.963 226.221 267.417 225.96 266.985C225.778 266.748 225.558 266.544 225.309 266.379C224.057 265.322 224.34 263.348 224.673 261.761C225.524 257.684 225.995 253.537 226.081 249.373C226.248 241.069 224.882 232.814 223.519 224.619C223.046 221.774 222.57 218.91 221.627 216.183C220.685 213.455 219.296 210.83 219.523 207.996C219.766 204.935 218.971 201.726 219.523 198.707C220.076 195.687 220.95 192.732 221.514 189.717C222.244 185.803 222.426 181.814 222.649 177.844C222.744 176.223 222.865 174.548 223.621 173.108C224.064 172.267 224.707 171.548 225.203 170.733C226.482 168.615 226.687 165.99 227.909 163.838C228.488 162.819 229.286 161.921 229.71 160.83C230.008 159.97 230.163 159.066 230.172 158.156C230.292 155.869 230.165 153.577 229.793 151.317C223.352 148.036 216.208 146.377 208.981 146.483C206.215 146.529 203.419 146.809 200.823 147.768C198.348 148.688 196.093 149.98 193.482 150.177Z" fill="#3F3D56"/>
<path d="M208.996 270.202C207.884 271.588 207.959 273.57 207.248 275.202C206.385 277.184 204.463 278.453 202.639 279.608L191.287 286.806C190.667 287.185 190.001 287.651 189.774 288.356C189.666 288.806 189.685 289.277 189.83 289.716C190.101 290.666 190.606 291.534 191.299 292.238C191.992 292.942 192.851 293.461 193.796 293.747C194.801 293.986 195.832 294.092 196.865 294.061L201.969 294.129C203.524 294.19 205.082 294.129 206.627 293.947C208.043 293.743 209.42 293.338 210.828 293.08C213.39 292.614 216.023 292.656 218.589 292.205C220.16 291.896 221.711 291.495 223.236 291.004C225.09 290.447 226.978 289.867 228.567 288.765C229.005 288.498 229.36 288.115 229.593 287.659C229.861 287.034 229.714 286.318 229.562 285.655L227.125 274.933C226.988 274.041 226.663 273.187 226.172 272.429C225.631 271.71 224.658 271.232 223.814 271.539C223.466 271.698 223.137 271.896 222.834 272.13C221.586 272.952 219.985 273.089 218.509 272.831C217.556 272.66 216.296 272.399 215.527 271.766C214.945 271.285 214.771 270.539 214.275 269.993C213.927 269.636 213.509 269.356 213.046 269.171C212.583 268.986 212.087 268.901 211.589 268.92C211.091 268.94 210.603 269.064 210.157 269.285C209.71 269.506 209.315 269.818 208.996 270.202Z" fill="white"/>
<path d="M201.636 63.6953C209.187 63.6953 215.308 57.5672 215.308 50.0078C215.308 42.4483 209.187 36.3202 201.636 36.3202C194.086 36.3202 187.965 42.4483 187.965 50.0078C187.965 57.5672 194.086 63.6953 201.636 63.6953Z" fill="#FBBEBE"/>
<path d="M191.09 50.8109C192.4 50.076 192.4 47.9583 193.739 47.2536C195.079 46.549 196.6 47.7726 197.459 49.0076C198.711 50.8164 199.58 52.8624 200.013 55.0199C200.134 55.6336 200.248 56.3041 200.709 56.7322C201.171 57.1603 201.776 57.2133 202.367 57.274C204.095 57.4457 205.825 57.6023 207.558 57.7437C209.488 57.8991 211.524 58.0241 213.276 57.1944C213.967 56.8849 214.561 56.3924 214.994 55.77C215.341 55.1723 215.589 54.5224 215.728 53.8454C216.632 50.4018 217.544 46.9164 217.62 43.3553C217.65 41.8854 217.522 40.3625 216.814 39.0744C216.402 38.3167 215.796 37.6576 215.626 36.8241C215.456 35.9907 216.004 34.9299 216.867 35.0208C216.087 35.0529 215.31 34.9052 214.597 34.5889C213.912 34.2101 213.405 33.3956 213.647 32.6531C211.725 32.8993 210.324 30.9975 208.826 29.7663C208.582 29.5244 208.253 29.3883 207.91 29.3874C207.647 29.4532 207.393 29.5512 207.153 29.6792C206.397 29.9443 205.606 29.4405 204.83 29.2208C202.749 28.6373 200.104 30.0466 198.56 28.5313C198.708 29.4973 197.523 30.1451 196.547 30.1262C195.571 30.1072 194.564 29.7473 193.641 30.0731C193.775 30.318 193.853 30.5894 193.869 30.868C193.886 31.1466 193.841 31.4254 193.738 31.6846C193.634 31.9438 193.475 32.1768 193.271 32.3672C193.067 32.5575 192.824 32.7004 192.559 32.7857L193.016 33.7858C192.545 33.8802 192.109 34.1048 191.758 34.4341C191.407 34.7635 191.155 35.1845 191.03 35.6497C190.527 37.6386 190.651 40.4648 190.773 42.5105C190.833 43.4084 191.707 50.4738 191.09 50.8109Z" fill="#192534"/>
<path d="M202.756 67.6504C195.888 75.3826 194.14 86.2667 192.676 96.5143L190.519 111.645C189.959 115.57 189.384 119.495 188.896 123.431C188.555 126.125 188.237 128.86 188.608 131.55C188.899 133.671 189.607 135.717 190.197 137.759C191.733 143.115 192.498 148.663 192.468 154.235C192.926 152.886 194.511 152.34 195.904 152.037C207.588 149.499 219.778 150.803 230.664 155.754C232.574 150.393 232.215 144.529 232.749 138.861C233.505 130.781 236.112 122.95 236.884 114.884C237.168 111.88 237.202 108.861 237.233 105.841C237.255 103.625 237.278 101.386 236.816 99.2155C236.302 96.8136 235.216 94.5747 234.092 92.3963C230.985 86.341 227.533 80.4694 223.754 74.8105C221.852 71.9616 219.868 69.1696 217.802 66.4343C216.755 65.0478 215.686 63.6764 214.597 62.3201C213.541 61.0055 213.083 59.8652 211.407 60.6532C208.239 62.1383 205.061 65.0554 202.756 67.6504Z" fill="#7F61AF"/>
<path d="M206.692 132.008C205.016 132.069 203.339 132.015 201.67 131.849C200.433 131.728 199.169 131.546 197.962 131.849C197.437 131.981 196.946 132.223 196.52 132.557C196.363 132.698 196.249 132.881 196.194 133.086C196.139 133.29 196.145 133.505 196.21 133.706C196.275 133.907 196.398 134.085 196.563 134.217C196.727 134.35 196.927 134.431 197.137 134.451L198.431 134.565C199.252 134.637 200.108 134.72 200.747 135.323C201.01 135.56 201.177 135.884 201.216 136.236C201.296 137.119 200.531 137.6 199.847 137.967C198.873 138.425 197.973 139.025 197.175 139.748C196.551 140.352 196.158 141.156 196.066 142.021C196.063 142.098 196.081 142.174 196.117 142.242C196.153 142.311 196.206 142.368 196.271 142.409C196.336 142.45 196.411 142.474 196.488 142.476C196.565 142.479 196.641 142.462 196.71 142.426C198.223 141.668 199.211 139.422 200.872 139.797C199.361 140.276 198.067 141.273 197.217 142.612C197.007 142.931 196.911 143.313 196.945 143.694C196.979 144.075 197.14 144.433 197.403 144.711C197.666 144.989 198.015 145.169 198.393 145.223C198.771 145.278 199.157 145.202 199.487 145.01C199.733 144.866 199.971 144.708 200.198 144.536C201.324 143.624 202.332 142.576 203.199 141.415C201.988 143.972 200.762 146.965 202.155 149.507C202.224 149.646 202.333 149.763 202.467 149.842C202.601 149.922 202.756 149.96 202.912 149.954C203.351 149.908 203.479 149.495 203.551 149.132C203.778 147.961 203.835 146.726 204.41 145.684C205.742 143.267 209.027 143.032 211.528 141.854C214.528 140.46 216.583 137.459 217.412 134.254C217.702 133.32 217.753 132.327 217.559 131.368C217.003 129.212 214.347 128.716 212.64 129.758C210.548 131.087 209.333 131.925 206.692 132.008Z" fill="#FBBEBE"/>
<path opacity="0.1" d="M204.035 89.6043C206.684 93.6996 211.282 96.0067 215.225 98.8821C216.187 99.5093 217.026 100.308 217.699 101.238C218.695 102.777 218.835 104.731 218.63 106.542C218.373 108.933 217.605 111.232 216.844 113.513L215.191 118.457C214.142 121.594 213.06 124.795 211.066 127.432C210.555 128.102 209.961 128.818 209.984 129.659C210.028 130.145 210.195 130.612 210.468 131.015C211.106 132.058 211.948 132.961 212.941 133.672C213.935 134.383 215.062 134.886 216.254 135.152C216.968 135.334 217.716 135.334 218.43 135.152C219.451 134.849 220.22 134.016 220.931 133.228C224.337 129.466 227.742 125.651 230.202 121.238C232.605 116.93 234.043 112.145 235.367 107.406C235.912 105.661 236.292 103.869 236.502 102.053C236.782 98.6434 235.889 95.2339 234.429 92.1539C232.968 89.0739 230.959 86.2856 228.889 83.5769C226.935 80.9163 224.765 78.4225 222.399 76.1213C218.282 72.2685 213.246 70.003 207.736 72.1889C203.846 73.7346 202.389 76.9586 202.041 81.0879C201.747 84.0694 202.448 87.0646 204.035 89.6043Z" fill="black"/>
<path d="M205.413 88.5662C208.062 92.6615 212.663 94.9687 216.602 97.8441C217.561 98.4774 218.396 99.2812 219.066 100.216C220.061 101.754 220.201 103.705 219.996 105.519C219.735 107.91 218.971 110.209 218.207 112.49L216.553 117.415C215.505 120.552 214.423 123.749 212.428 126.39C211.921 127.06 211.327 127.773 211.35 128.617C211.392 129.103 211.559 129.569 211.834 129.97C212.472 131.013 213.312 131.917 214.305 132.628C215.298 133.34 216.424 133.844 217.616 134.111C218.331 134.292 219.081 134.292 219.796 134.111C220.817 133.811 221.582 132.974 222.297 132.19C225.703 128.424 229.108 124.613 231.568 120.199C233.971 115.892 235.409 111.107 236.733 106.364C237.28 104.621 237.66 102.83 237.868 101.015C238.148 97.6054 237.255 94.1958 235.798 91.1121C234.342 88.0283 232.328 85.2438 230.259 82.5351C228.298 79.8884 226.123 77.4086 223.754 75.1212C219.641 71.2721 214.604 69.0029 209.095 71.1926C205.201 72.7383 203.748 75.9584 203.396 80.0916C203.118 83.0617 203.827 86.0406 205.413 88.5662Z" fill="#8B69C0"/>
<mask id="mask1" mask-type="alpha" maskUnits="userSpaceOnUse" x="65" y="23" width="117" height="229">
<path d="M65.7716 23.3866H151.29L181.184 239.326L93.0165 251.449L65.7716 23.3866Z" fill="white"/>
</mask>
<g mask="url(#mask1)">
<rect opacity="0.5" x="20.0147" y="96.8421" width="191.513" height="55.1933" transform="rotate(-45 20.0147 96.8421)" fill="#DDF9FF" fill-opacity="0.15"/>
<rect opacity="0.5" x="20.0147" y="191.565" width="191.513" height="55.1933" transform="rotate(-45 20.0147 191.565)" fill="#DDF9FF" fill-opacity="0.15"/>
<rect opacity="0.5" width="525.707" height="10.1769" transform="matrix(0.707107 -0.707107 -0.707107 -0.707107 -51.3108 366.529)" fill="#DDF9FF" fill-opacity="0.15"/>
<rect opacity="0.5" width="525.707" height="10.1769" transform="matrix(0.707107 -0.707107 -0.707107 -0.707107 -51.3108 393.032)" fill="#DDF9FF" fill-opacity="0.15"/>
</g>
</svg>
