<svg width="136" height="137" viewBox="0 0 136 137" fill="none" xmlns="http://www.w3.org/2000/svg">
<path d="M68 136.631C105.555 136.631 136 106.186 136 68.6307C136 31.0754 105.555 0.630737 68 0.630737C30.4446 0.630737 0 31.0754 0 68.6307C0 106.186 30.4446 136.631 68 136.631Z" fill="#3F3D56"/>
<path d="M75 43.6307V71.6139H33.5173L25.8537 80.6307L26.7288 71.6139H23V43.6307H75Z" fill="#6C63FF"/>
<path opacity="0.1" d="M75 53.6307H56V71.6307H75V53.6307Z" fill="black"/>
<path d="M60 57.6307H112V85.6139H108.271L109.146 94.6307L101.484 85.6139H60V57.6307Z" fill="#4D8AF0"/>
<path opacity="0.1" d="M26.5 77C32.8513 77 38 76.5523 38 76C38 75.4477 32.8513 75 26.5 75C20.1487 75 15 75.4477 15 76C15 76.5523 20.1487 77 26.5 77Z" fill="black"/>
</svg>
