<svg width="481" height="332" viewBox="0 0 481 332" fill="none" xmlns="http://www.w3.org/2000/svg">
<path opacity="0.3" d="M238.5 332C329.903 332 404 257.679 404 166C404 74.3207 329.903 0 238.5 0C147.097 0 73 74.3207 73 166C73 257.679 147.097 332 238.5 332Z" fill="#6C63FF"/>
<path d="M314 70H167V263H314V70Z" fill="#6C63FF"/>
<path d="M273.5 100.5H207.5V166.5H273.5V100.5Z" fill="#3F3D56"/>
<path d="M298.5 180.5H182.5V188.5H298.5V180.5Z" fill="#3F3D56"/>
<path d="M298.5 202.5H182.5V210.5H298.5V202.5Z" fill="#3F3D56"/>
<path d="M298.5 224.5H182.5V232.5H298.5V224.5Z" fill="#3F3D56"/>
<path d="M147 69H0V262H147V69Z" fill="#6C63FF"/>
<path d="M125.5 133.5H21.5V145.5H125.5V133.5Z" fill="#3F3D56"/>
<path d="M125.5 159.5H21.5V171.5H125.5V159.5Z" fill="#3F3D56"/>
<path d="M125.5 185.5H21.5V197.5H125.5V185.5Z" fill="#3F3D56"/>
<path d="M481 69H334V262H481V69Z" fill="#6C63FF"/>
<path d="M459.5 94.5H355.5V106.5H459.5V94.5Z" fill="#3F3D56"/>
<path d="M459.5 120.5H355.5V132.5H459.5V120.5Z" fill="#3F3D56"/>
<path d="M459.5 146.5H355.5V158.5H459.5V146.5Z" fill="#3F3D56"/>
<path d="M459.5 172.5H355.5V184.5H459.5V172.5Z" fill="#3F3D56"/>
<path d="M459.5 198.5H355.5V210.5H459.5V198.5Z" fill="#3F3D56"/>
<path d="M459.5 224.5H355.5V236.5H459.5V224.5Z" fill="#3F3D56"/>
</svg>
