<svg width="275" height="149" viewBox="0 0 275 149" fill="none" xmlns="http://www.w3.org/2000/svg">
<g clip-path="url(#clip0)">
<path opacity="0.1" d="M275 95.2476C275.003 99.2788 274.449 103.291 273.353 107.171C272.294 110.911 270.736 114.491 268.721 117.815C268.721 129.858 260.591 140.267 248.791 145.219C243.86 147.267 238.57 148.313 233.231 148.296H52.2044C42.529 148.296 33.5626 145.685 26.2092 141.238C24.1048 139.971 22.1084 138.533 20.2405 136.937C12.0674 129.913 7.00011 120.207 7.00011 109.486C2.41313 102.422 -0.0191047 94.1768 0.000113008 85.7548C0.000113008 68.1202 10.4304 52.9567 25.3727 46.262C27.3569 45.3734 29.4071 44.6405 31.5049 44.0697C32.2469 43.8678 32.9969 43.6867 33.7549 43.5264C35.7756 43.0961 37.8252 42.8149 39.8871 42.6851C40.6323 42.6386 41.3815 42.6121 42.1347 42.6057H42.5482C43.3799 42.6057 44.2044 42.6346 45.0242 42.6827L45.2934 42.2259C45.6235 41.6747 45.9617 41.129 46.3078 40.5889C46.9328 39.6049 47.5883 38.6354 48.2742 37.6803C48.9921 36.6722 49.7413 35.6803 50.5218 34.7043L50.7213 34.4639C51.1636 33.9126 51.6155 33.3678 52.077 32.8293C53.5193 31.1482 55.0418 29.5176 56.6443 27.9375C73.9785 10.9471 101.135 0.00958252 131.664 0.00958252C155.418 0.00958252 177.132 6.63218 193.765 17.5745C200.065 14.0088 207.183 12.1378 214.423 12.1442C237.918 12.1442 256.971 31.4639 256.971 55.2956C256.968 56.8036 256.888 58.3103 256.731 59.8101C262.394 63.8192 267.011 69.1317 270.19 75.2992C273.37 81.4668 275.02 88.3087 275 95.2476Z" fill="#6C63FF"/>
<path d="M176.568 95.8558C181.197 95.8558 184.95 92.1029 184.95 87.4735C184.95 82.8442 181.197 79.0913 176.568 79.0913C171.938 79.0913 168.185 82.8442 168.185 87.4735C168.185 92.1029 171.938 95.8558 176.568 95.8558Z" fill="#767D9F"/>
<path d="M176.132 76.8101C176.969 80.4607 177.679 84.1386 178.262 87.8437C178.438 88.9447 178.594 90.1057 178.195 91.1466C177.861 92.0144 177.181 92.6923 176.647 93.4519C176.113 94.2115 175.709 95.1851 176.034 96.0553C176.358 96.9254 177.306 97.4014 178.209 97.6466C180.796 98.3437 183.553 97.8365 186.128 97.0817C187.293 96.7816 188.411 96.3187 189.447 95.7067C190.539 95.0144 191.433 94.0528 192.255 93.0625C196.007 88.512 198.464 83.0504 200.777 77.6226C199.291 77.7578 197.794 77.5375 196.41 76.9799C195.026 76.4223 193.795 75.5434 192.818 74.4158C191.87 73.3028 191.176 71.7524 191.709 70.3918C190.144 71.25 188.286 71.3077 186.601 71.8942C185.556 72.2933 184.55 72.7882 183.596 73.3726C182.446 74.0376 181.302 74.7155 180.164 75.4062C178.863 76.1899 177.644 76.887 176.132 76.8101Z" fill="#AE6E79"/>
<path d="M193.663 83.1034C192.195 85.9616 190.284 88.7092 187.555 90.4111C184.827 92.113 181.154 92.5746 178.421 90.8919C177.074 90.0698 176.055 88.8198 174.88 87.7669C173.704 86.714 172.235 85.8125 170.656 85.9496C168.916 86.101 167.553 87.4592 166.387 88.7596C164.618 90.7356 162.908 92.7957 161.656 95.1346C159.252 99.6298 158.683 104.885 158.788 109.981C158.894 115.077 159.632 120.147 159.649 125.243C159.673 131.512 158.61 137.731 157.536 143.906C167.416 142.69 177.308 145.349 187.209 146.356C193.546 147.007 199.93 146.993 206.3 146.976C207.421 146.976 208.613 146.947 209.546 146.327C210.116 145.911 210.577 145.363 210.889 144.731C211.769 143.108 212.122 141.257 212.368 139.428C212.99 134.808 213.009 130.13 213.026 125.466C213.07 114.168 213.11 102.829 211.675 91.6202C211.322 88.863 210.87 86.0914 209.812 83.5121C208.755 80.9327 207.029 78.5601 204.615 77.1779C203.065 76.2885 199.471 74.7404 197.644 75.6371C195.594 76.6371 194.647 81.1899 193.663 83.1034Z" fill="#767D9F"/>
<path d="M194.394 115.007C194.022 108.036 192.505 100.596 195.733 94.4087C196.527 92.8894 193.68 90.9928 194.56 89.5217C195.634 87.728 196.448 85.7913 196.978 83.7693C197.161 83.0745 197.308 82.339 197.135 81.6418C196.815 80.3702 195.558 79.613 194.49 78.839C193.313 77.9832 192.707 75.375 192.327 73.964C191.947 72.5529 195.349 74.2524 196.716 73.75C198.615 73.0553 201.029 73.4928 202.923 74.1971C203.981 74.5866 205.13 74.6202 206.257 74.6491C208.447 74.7068 210.644 74.762 212.817 74.4928C213.793 74.3702 214.772 74.1851 215.752 74.2404C218.255 74.3822 220.43 76.0938 221.911 78.1178C223.392 80.1418 224.334 82.5 225.548 84.6923C226.56 86.5193 227.767 88.2452 228.63 90.1466C229.394 91.8293 229.877 93.637 230.356 95.4351L231.589 100.048C231.805 100.708 231.907 101.4 231.892 102.094C231.829 102.832 231.502 103.519 231.171 104.176C229.916 106.608 228.412 108.903 226.683 111.024C224.089 114.204 220.94 117.072 219.399 120.88C218.798 122.363 218.464 123.94 218.159 125.512C216.928 131.8 216.053 138.152 215.539 144.538C212.73 143.239 209.785 142.254 206.76 141.603C205.251 141.281 203.727 141.04 202.192 140.882C200.849 140.743 199.115 141.007 197.837 140.642C195.697 140.034 195.462 136.416 195.137 134.522C194.618 131.505 194.514 128.435 194.495 125.387C194.471 121.921 194.579 118.462 194.394 115.007Z" fill="#4C4981"/>
<path d="M147.411 101.971C148.423 107.74 149.539 113.526 151.738 118.947C151.683 119 151.628 119.048 151.572 119.096C151.378 119.262 151.176 119.418 150.964 119.577C150.471 119.923 149.93 120.216 149.522 120.668C149.367 120.841 149.245 121.041 149.161 121.257C149.086 121.426 149.047 121.609 149.047 121.795C149.047 121.98 149.086 122.163 149.161 122.332C148.015 122.839 146.683 122.683 145.397 122.635C144.289 122.594 143.214 122.635 142.325 123.243C141.089 124.094 140.716 125.728 140.517 127.214C140.443 127.756 140.38 128.298 140.327 128.841C140.276 129.346 140.234 129.853 140.202 130.361C140.093 132.041 140.078 133.726 140.156 135.409C140.169 135.716 140.186 136.024 140.207 136.332C136.279 136.238 132.7 134.19 129.313 132.2C128.539 131.745 127.741 131.267 127.238 130.517C126.775 129.78 126.579 128.907 126.683 128.043C126.683 127.921 126.704 127.803 126.721 127.678C126.829 126.965 127.014 126.265 127.272 125.591C128.331 122.722 129.893 120.065 131.885 117.743C132.745 116.738 133.714 115.755 134.116 114.493C134.291 113.942 134.356 113.358 134.534 112.81C135.332 110.435 138.212 109.313 139.197 107.007C139.438 106.457 139.548 105.853 139.846 105.325C140.115 104.885 140.461 104.498 140.868 104.183C141.043 104.036 141.226 103.894 141.406 103.752C143.095 102.429 144.723 101.03 146.289 99.5577C146.58 99.2837 146.869 99.0064 147.154 98.726C147.116 99.814 147.202 100.903 147.411 101.971Z" fill="#4C4981"/>
<path d="M171.635 84.9086C171.289 85.274 170.914 85.6177 170.546 85.9591L170.447 86.048L170.058 86.4086C169.351 87.0186 168.739 87.7308 168.243 88.5216L168.202 88.5889C166.976 90.7836 167.43 93.4855 167.772 95.9783C168.195 99.0847 168.386 102.218 168.341 105.353C168.279 109.68 167.769 113.978 167.76 118.3C167.76 119.281 167.781 120.26 167.825 121.24C167.894 122.834 168.015 124.425 168.159 126.017C168.315 127.762 168.503 129.505 168.678 131.248C168.817 132.596 168.95 133.942 169.06 135.288C169.115 135.986 169.168 136.68 169.212 137.377C169.262 138.195 169.303 139.014 169.327 139.832C169.344 140.351 169.353 140.868 169.353 141.387C169.353 141.683 169.353 141.976 169.353 142.269C169.353 142.832 169.338 143.393 169.308 143.952C169.276 144.671 169.227 145.393 169.161 146.115C169.087 146.901 168.954 147.76 168.402 148.312C168.368 148.346 168.332 148.377 168.296 148.409L167.517 148.312C162.148 147.67 156.728 147.573 151.339 148.024C151.457 147.211 151.565 146.401 151.671 145.586C151.719 145.202 151.767 144.815 151.813 144.428C151.866 143.986 151.916 143.543 151.964 143.101C152.019 142.62 152.07 142.139 152.118 141.659C152.243 140.42 152.353 139.18 152.447 137.94C152.587 136.131 152.692 134.318 152.765 132.502C152.8 131.635 152.827 130.768 152.846 129.899C152.874 128.822 152.886 127.744 152.885 126.666C152.885 125.618 152.876 124.568 152.858 123.517C152.858 123.171 152.844 122.824 152.815 122.481C152.794 122.171 152.752 121.864 152.688 121.56C152.509 120.86 152.268 120.178 151.966 119.522C151.914 119.397 151.863 119.281 151.813 119.149C151.784 119.084 151.757 119.017 151.731 118.952C153.116 117.719 154.101 116.067 155.048 114.442C156.584 111.824 158.156 109.091 158.414 106.067C158.671 103.043 157.168 99.6466 154.279 98.7235C153.493 98.4831 152.661 98.4158 151.851 98.274C151.087 98.1394 149.493 97.8341 148.608 97.286C148.128 97.7796 147.647 98.2644 147.166 98.7403C147.195 98.0141 147.373 97.3016 147.688 96.6466L148.029 96.6634C148.001 96.5864 147.988 96.5049 147.991 96.423C147.991 96.1658 148.168 95.875 148.548 95.5529C149.68 94.5913 151.462 94.3774 152.176 93.0769C152.474 92.536 152.524 91.8918 152.765 91.3245C153.454 89.7067 155.435 89.1105 156.628 87.8173C157.82 86.524 158.118 84.6923 159.082 83.25C159.802 82.1967 160.801 81.3644 161.966 80.8461C162.063 80.8004 162.161 80.7548 162.26 80.7139C164.255 79.8605 166.625 79.6658 168.692 79.6706C169.495 79.6706 171.577 79.6947 172.596 80.1009C172.762 80.16 172.913 80.2525 173.041 80.3726C174.128 81.5553 172.438 84.0528 171.635 84.9086Z" fill="#4C4981"/>
<path d="M147.769 96.4784C149.626 95.9194 151.576 95.735 153.504 95.9359C155.433 96.1369 157.303 96.7192 159.005 97.6491C160.736 98.6106 162.288 99.9519 163.24 101.683C164.671 104.279 164.608 107.409 164.507 110.373C164.457 111.856 164.392 113.392 163.738 114.724C162.981 116.264 161.553 117.322 160.096 118.188C159.184 118.77 158.184 119.202 157.135 119.469C155.519 119.82 153.841 119.522 152.214 119.228C150.445 118.901 148.546 118.507 147.317 117.19C146.596 116.425 146.202 115.433 145.812 114.462C145.253 113.059 144.692 111.659 144.13 110.26C143.156 107.829 142.827 105.808 144.113 103.44C144.697 102.361 145.411 101.351 145.988 100.264C146.276 99.7116 147.31 96.6202 147.769 96.4784Z" fill="#4C4981"/>
<path d="M248.798 138.034V145.221C243.867 147.27 238.578 148.316 233.238 148.298H168.409C168.375 148.332 168.339 148.363 168.303 148.394L167.524 148.298H52.2044C42.5289 148.298 33.5626 145.687 26.2092 141.24V130.267L81.6708 123.865H81.714L114.012 126.601L122.37 127.322L126.712 127.69L135.697 128.452L140.32 128.844L147.051 129.416L147.998 129.495L152.849 129.906L159.43 130.447L168.685 131.231L184.113 132.541L194.966 133.461L212.789 134.974L216.178 135.26L216.543 135.291L216.861 135.317L221.337 135.697L226.25 136.115L226.82 136.163L248.798 138.034Z" fill="#504F60"/>
<path d="M183.654 137.769L114.149 125.906L111.454 139.534L143.315 143.349L153.125 144.577L180.111 139.262L183.654 137.769Z" fill="#9C9CA1"/>
<path d="M147.676 143.894L182.498 137.349C182.672 137.315 182.851 137.321 183.023 137.365C183.195 137.409 183.355 137.491 183.491 137.604C183.628 137.717 183.737 137.86 183.812 138.02C183.888 138.181 183.926 138.356 183.925 138.534C183.926 138.815 183.828 139.088 183.649 139.304C183.469 139.521 183.219 139.668 182.942 139.719L148.935 146.087L147.676 143.894Z" fill="#9C9CA1"/>
<path d="M162.781 123.31C163.865 123.209 164.964 123.039 165.94 122.558C167.142 121.959 168.077 120.928 169.19 120.168C171.637 118.486 174.911 118.26 177.716 119.226C180.522 120.192 182.863 122.262 184.502 124.733C185.591 126.38 186.409 128.481 185.639 130.298C185.375 130.854 185.043 131.374 184.649 131.846L182.644 134.466C182.263 135.017 181.805 135.51 181.284 135.93C180.534 136.476 179.601 136.7 178.683 136.834C176.243 137.19 173.759 136.988 171.3 137.152C167.077 137.433 162.952 138.793 158.719 138.748C156.286 138.721 153.885 138.231 151.507 137.74L140.985 135.577C139.154 135.202 137.084 134.654 136.221 132.993C135.834 132.245 135.762 131.38 135.716 130.539C135.591 128.221 135.716 125.644 137.322 123.974C138.832 122.406 141.219 121.911 143.022 120.752C145.228 119.332 145.957 119.791 148.284 120.858C152.823 122.914 157.818 123.759 162.781 123.31Z" fill="#AE6E79"/>
<path opacity="0.05" d="M162.781 123.31C163.865 123.209 164.964 123.039 165.94 122.558C167.142 121.959 168.077 120.928 169.19 120.168C171.637 118.486 174.911 118.26 177.716 119.226C180.522 120.192 182.863 122.262 184.502 124.733C185.591 126.38 186.409 128.481 185.639 130.298C185.375 130.854 185.043 131.374 184.649 131.846L182.644 134.466C182.263 135.017 181.805 135.51 181.284 135.93C180.534 136.476 179.601 136.7 178.683 136.834C176.243 137.19 173.759 136.988 171.3 137.152C167.077 137.433 162.952 138.793 158.719 138.748C156.286 138.721 153.885 138.231 151.507 137.74L140.985 135.577C139.154 135.202 137.084 134.654 136.221 132.993C135.834 132.245 135.762 131.38 135.716 130.539C135.591 128.221 135.716 125.644 137.322 123.974C138.832 122.406 141.219 121.911 143.022 120.752C145.228 119.332 145.957 119.791 148.284 120.858C152.823 122.914 157.818 123.759 162.781 123.31Z" fill="black"/>
<path d="M205.034 120.014C202.082 121.156 199.113 122.303 196.022 122.983C190.839 124.125 185.416 123.945 180.274 125.25C177.558 125.942 174.858 127.058 172.067 126.832C170.82 126.731 169.615 126.351 168.401 126.063C161.582 124.38 153.829 124.926 148.291 129.252C146.397 130.731 144.846 132.575 143.44 134.541C143.139 134.966 142.936 135.452 142.844 135.964C142.753 136.476 142.776 137.003 142.912 137.505C143.048 138.008 143.293 138.474 143.629 138.871C143.966 139.268 144.387 139.585 144.861 139.801C147.014 140.791 149.322 141.406 151.683 141.62C154.839 141.899 158.01 141.452 161.149 141.005C165.808 140.344 170.469 139.68 175.115 138.938C176.784 138.671 178.452 138.394 180.13 138.183C192.204 136.656 204.498 138.512 216.603 137.238C217.827 137.108 219.072 136.94 220.185 136.418C223.002 135.096 224.397 131.611 223.815 128.548C223.233 125.486 220.988 122.94 218.286 121.377C216.022 120.063 213.579 119.531 211.058 118.974C208.716 118.428 207.288 119.149 205.034 120.014Z" fill="#AE6E79"/>
<path opacity="0.1" d="M230.93 101.707C232.262 103.452 232.546 105.793 232.401 107.978C232.257 110.164 231.738 112.325 231.661 114.519C231.555 117.529 232.281 120.529 232.159 123.529C232.072 125.627 231.575 127.685 230.986 129.7C230.291 132.077 229.286 134.632 227.091 135.774C224.178 137.291 218.067 136.438 215.002 137.625C215.281 135.887 217.954 133.37 218.233 131.632C218.425 130.43 218.62 129.195 218.413 127.99C218.149 126.454 217.248 125.091 216.178 123.957C214.476 122.152 212.255 120.793 209.815 120.351C207.375 119.909 201.401 120.272 199.45 121.813C199.209 120.221 203.68 118.688 205.252 118.344C206.036 118.168 206.935 118.267 207.563 117.769C208.764 116.827 207.892 114.95 207.95 113.442C207.995 112.24 208.697 111.139 208.839 109.938C209.079 108.014 207.825 106.055 208.317 104.168C208.5 103.471 208.906 102.858 209.187 102.195C210.043 100.164 209.668 97.8462 209.212 95.6876C208.928 94.3318 208.651 92.8029 209.406 91.6467C210.106 90.5674 212.091 94.4111 213.363 94.2332C217.563 93.6443 221.363 90.5313 224.755 93.0794C226.483 94.3775 226.709 95.7236 227.399 97.577C228.07 99.3414 229.808 100.245 230.93 101.707Z" fill="black"/>
<path d="M231.651 101.707C232.983 103.452 233.267 105.793 233.122 107.978C232.978 110.163 232.459 112.325 232.382 114.519C232.276 117.529 233.002 120.529 232.88 123.529C232.793 125.627 232.296 127.685 231.707 129.7C231.012 132.077 230.007 134.632 227.812 135.774C224.899 137.291 218.788 136.438 215.723 137.625C216.002 135.887 218.675 133.37 218.954 131.632C219.146 130.43 219.341 129.195 219.134 127.99C218.87 126.454 217.969 125.091 216.899 123.957C215.197 122.151 212.976 120.793 210.536 120.351C208.096 119.909 202.122 120.272 200.17 121.813C199.93 120.221 204.401 118.688 205.973 118.344C206.757 118.168 207.656 118.267 208.283 117.769C209.485 116.827 208.613 114.95 208.67 113.442C208.716 112.24 209.418 111.139 209.56 109.938C209.8 108.014 208.545 106.055 209.038 104.168C209.221 103.471 209.627 102.858 209.908 102.195C210.764 100.163 210.389 97.8462 209.932 95.6875C209.649 94.3317 209.372 92.8029 210.127 91.6466C210.827 90.5673 212.195 90.1587 213.466 89.9784C217.724 89.4025 222.038 90.5155 225.485 93.0793C227.214 94.3774 227.44 95.7236 228.13 97.5769C228.791 99.3413 230.529 100.245 231.651 101.707Z" fill="#4C4981"/>
<path d="M72.5962 90.3172L85.6659 138.62C85.8262 139.212 86.1631 139.741 86.6317 140.136C87.1002 140.532 87.6781 140.775 88.2885 140.834L147.115 146.486C147.595 146.532 148.078 146.462 148.525 146.283C148.973 146.104 149.37 145.821 149.685 145.456C150 145.092 150.223 144.657 150.336 144.189C150.448 143.721 150.447 143.232 150.332 142.764L136.019 84.4999C135.849 83.8074 135.439 83.1976 134.861 82.7791C134.284 82.3605 133.577 82.1603 132.865 82.2139L75.2716 86.5216C74.8294 86.5559 74.4003 86.6874 74.0147 86.9067C73.6292 87.126 73.2968 87.4277 73.0413 87.7902C72.7858 88.1527 72.6134 88.5672 72.5364 89.004C72.4595 89.4408 72.4799 89.8892 72.5962 90.3172Z" fill="#9C9CA1"/>
<path opacity="0.1" d="M192.832 73.7813V74.7716L191.418 74.6346L188.76 71.875C188.76 71.875 192.873 72.7957 192.832 73.7813Z" fill="black" stroke="#4C4981" stroke-miterlimit="10"/>
<path opacity="0.1" d="M196.666 83.6275L195.676 81.9929V75.3991C197.635 79.0385 196.666 83.6275 196.666 83.6275Z" fill="black" stroke="#4C4981" stroke-miterlimit="10"/>
<path opacity="0.1" d="M191.762 68.2596C191.762 77.9303 185.144 87.25 175.473 87.25C170.829 87.25 166.375 85.405 163.091 82.1209C159.806 78.8367 157.961 74.3825 157.961 69.738C157.961 65.0935 159.806 60.6393 163.091 57.3551C166.375 54.071 170.829 52.226 175.473 52.226C185.144 52.2356 191.762 58.5865 191.762 68.2596Z" fill="black"/>
<path d="M175.473 86.7788C185.145 86.7788 192.985 78.9384 192.985 69.2668C192.985 59.5952 185.145 51.7548 175.473 51.7548C165.802 51.7548 157.961 59.5952 157.961 69.2668C157.961 78.9384 165.802 86.7788 175.473 86.7788Z" fill="#AE6E79"/>
<path d="M173.935 61.5073C176.019 62.2741 177.253 64.428 179.123 65.6275C181.767 67.3102 185.209 66.8751 188.229 66.0433C189.911 65.5842 191.671 65.0241 193.327 65.5337C193.571 65.6416 193.839 65.6799 194.104 65.6443C194.464 65.5409 194.642 65.1419 194.76 64.7861C196.808 58.6804 195.887 51.7645 192.796 46.1154C191.998 44.6587 191.041 43.25 189.724 42.238C188.685 41.4424 187.464 40.9207 186.233 40.476C183.984 39.6682 181.658 39.0939 179.291 38.7621C178.873 38.6861 178.446 38.6724 178.024 38.7212C177.445 38.815 176.926 39.1274 176.409 39.4063C174.195 40.5929 171.741 41.2596 169.231 41.3558C165.866 41.4832 162.019 40.69 159.426 42.8486C156.301 45.4376 157.079 50.488 155.053 54.0025C153.712 56.327 151.125 58.0145 150.7 60.6611C150.589 61.4701 150.64 62.293 150.851 63.0818C151.842 67.1539 155.784 70.3078 159.986 70.3823C160.631 70.4315 161.277 70.2991 161.851 70.0001C162.227 69.7435 162.559 69.4277 162.834 69.065C165.587 65.8054 168.736 59.5938 173.935 61.5073Z" fill="#444053"/>
<path opacity="0.1" d="M194.76 63.0144C194.642 63.3702 194.464 63.7692 194.103 63.8726C193.839 63.9082 193.571 63.8699 193.327 63.762C191.671 63.2524 189.902 63.8125 188.231 64.2716C185.209 65.1034 181.76 65.5481 179.125 63.8558C177.252 62.6539 176.022 60.4904 173.935 59.7356C168.736 57.8125 165.587 64.0337 162.827 67.2933C162.552 67.656 162.22 67.9718 161.844 68.2284C161.27 68.5274 160.624 68.6598 159.978 68.6106C155.791 68.5361 151.846 65.3822 150.844 61.3101C150.789 61.0697 150.74 60.8293 150.704 60.589C150.704 60.6106 150.704 60.6298 150.692 60.6515C150.582 61.4604 150.633 62.2833 150.844 63.0721C151.834 67.1443 155.779 70.2981 159.978 70.3726C160.624 70.4218 161.27 70.2894 161.844 69.9904C162.22 69.7338 162.552 69.418 162.827 69.0553C165.587 65.7957 168.736 59.5841 173.935 61.4976C176.022 62.2644 177.252 64.4183 179.125 65.6178C181.769 67.3005 185.209 66.8654 188.231 66.0337C189.914 65.5745 191.671 65.0144 193.327 65.5241C193.571 65.6319 193.839 65.6702 194.103 65.6346C194.464 65.5313 194.642 65.1322 194.76 64.7765C195.586 62.2782 195.951 59.6505 195.837 57.0216C195.766 59.0604 195.403 61.0786 194.76 63.0144Z" fill="black"/>
</g>
<defs>
<clipPath id="clip0">
<rect width="275" height="148.394" fill="white"/>
</clipPath>
</defs>
</svg>
