<svg width="180" height="172" viewBox="0 0 180 172" fill="none" xmlns="http://www.w3.org/2000/svg">
<path d="M124.476 1.37135C65.0803 -5.94673 41.8131 23.4147 35.5154 50.9689C22.9065 106.137 8.42574 171.696 31.124 171.696H148.795C178 171.696 188.593 9.27105 124.476 1.37135Z" fill="#F0EFFF"/>
<path d="M110.945 29.2008H82.8711V29.6018H110.945V29.2008Z" fill="#F2F2F2"/>
<path d="M103.325 29.5016H102.924V33.2114H103.325V29.5016Z" fill="#F2F2F2"/>
<path d="M91.0924 29.5016H90.6914V33.2114H91.0924V29.5016Z" fill="#F2F2F2"/>
<path d="M125.184 48.4521H97.1094V48.8532H125.184V48.4521Z" fill="#F2F2F2"/>
<path d="M105.13 44.8425H104.729V48.5524H105.13V44.8425Z" fill="#F2F2F2"/>
<path d="M117.363 44.8425H116.961V48.5524H117.363V44.8425Z" fill="#F2F2F2"/>
<path d="M162.483 57.4762H134.408V57.8772H162.483V57.4762Z" fill="#F2F2F2"/>
<path d="M142.429 53.8666H142.028V57.5765H142.429V53.8666Z" fill="#F2F2F2"/>
<path d="M154.662 53.8666H154.261V57.5765H154.662V53.8666Z" fill="#F2F2F2"/>
<path d="M159.675 150.524H131.601V150.925H159.675V150.524Z" fill="#F2F2F2"/>
<path d="M139.622 146.915H139.221V150.625H139.622V146.915Z" fill="#F2F2F2"/>
<path d="M151.854 146.915H151.453V150.625H151.854V146.915Z" fill="#F2F2F2"/>
<path d="M111.748 86.1526H83.6729V86.5537H111.748V86.1526Z" fill="#F2F2F2"/>
<path d="M91.694 82.543H91.293V86.2529H91.694V82.543Z" fill="#F2F2F2"/>
<path d="M103.927 82.543H103.526V86.2529H103.927V82.543Z" fill="#F2F2F2"/>
<path d="M120.571 134.482H92.4961V134.883H120.571V134.482Z" fill="#F2F2F2"/>
<path d="M100.518 130.872H100.117V134.582H100.518V130.872Z" fill="#F2F2F2"/>
<path d="M112.75 130.872H112.349V134.582H112.75V130.872Z" fill="#F2F2F2"/>
<path d="M165.491 119.842H137.416V120.244H165.491V119.842Z" fill="#F2F2F2"/>
<path d="M145.437 116.233H145.036V119.943H145.437V116.233Z" fill="#F2F2F2"/>
<path d="M157.67 116.233H157.269V119.943H157.67V116.233Z" fill="#F2F2F2"/>
<path d="M179.679 171.398H0V171.799H179.679V171.398Z" fill="#2F2E41"/>
<path d="M20.1032 89.161H19.7021V92.871H20.1032V89.161Z" fill="#F2F2F2"/>
<path d="M32.3365 89.161H31.9355V92.871H32.3365V89.161Z" fill="#F2F2F2"/>
<path d="M42.362 33.7128H41.9609V37.4227H42.362V33.7128Z" fill="#F2F2F2"/>
<path d="M30.1296 33.7128H29.7285V37.4227H30.1296V33.7128Z" fill="#F2F2F2"/>
<path d="M78.258 72.9175H50.1836V73.3185H78.258V72.9175Z" fill="#F2F2F2"/>
<path d="M70.6383 73.2181H70.2373V76.928H70.6383V73.2181Z" fill="#F2F2F2"/>
<path d="M58.406 73.2181H58.0049V76.928H58.406V73.2181Z" fill="#F2F2F2"/>
<path d="M10.6784 73.0176H10.2773V76.7275H10.6784V73.0176Z" fill="#F2F2F2"/>
<path d="M64.2213 52.6633H36.1465V53.0644H64.2213V52.6633Z" fill="#F2F2F2"/>
<path d="M44.1677 49.0537H43.7666V52.7636H44.1677V49.0537Z" fill="#F2F2F2"/>
<path d="M56.4001 49.0537H55.999V52.7636H56.4001V49.0537Z" fill="#F2F2F2"/>
<path d="M75.5576 34.4083C75.5576 34.4083 78.4896 42.7518 76.6856 44.0354C74.8816 45.319 82.7736 55.8019 82.7736 55.8019L92.2446 53.2346L87.0586 44.4633C87.0586 44.4633 86.3816 35.6919 86.3816 34.4083C86.3816 33.1246 75.5576 34.4083 75.5576 34.4083Z" fill="#A0616A"/>
<path opacity="0.1" d="M75.5576 34.4083C75.5576 34.4083 78.4896 42.7518 76.6856 44.0354C74.8816 45.319 82.7736 55.8019 82.7736 55.8019L92.2446 53.2346L87.0586 44.4633C87.0586 44.4633 86.3816 35.6919 86.3816 34.4083C86.3816 33.1246 75.5576 34.4083 75.5576 34.4083Z" fill="black"/>
<path d="M70.6383 93.8831C70.6383 93.8831 69.7823 104.579 70.6383 110.142C71.4933 115.704 72.7773 131.107 72.7773 131.107C72.7773 131.107 72.7773 160.203 77.4843 160.631C82.1903 161.058 85.6133 161.486 86.0413 159.775C86.4693 158.063 83.9023 157.208 85.1853 156.352C86.4693 155.496 86.8973 152.501 85.1853 149.078C83.4743 145.655 85.1853 110.997 85.1853 110.997L93.3153 132.819C93.3153 132.819 94.1713 150.789 95.0263 153.357C95.8823 155.924 94.1713 160.631 97.1663 161.058C100.161 161.486 103.584 158.919 105.295 158.063C107.007 157.208 102.728 157.208 103.584 156.78C104.44 156.352 107.007 155.068 106.151 154.64C105.295 154.212 104.44 133.675 104.44 133.675C104.44 133.675 102.086 89.8181 99.0913 88.1061C96.0963 86.3949 94.1713 89.3431 94.1713 89.3431L70.6383 93.8831Z" fill="#2F2E41"/>
<path d="M78.3385 158.919V162.342C78.3385 162.342 74.4875 171.647 78.3385 171.647C82.1895 171.647 85.1845 172.611 85.1845 171.327V159.775L78.3385 158.919Z" fill="#2F2E41"/>
<path d="M103.584 158.913V162.336C103.584 162.336 107.435 171.641 103.584 171.641C99.7333 171.641 96.7383 172.605 96.7383 171.321V159.769L103.584 158.913Z" fill="#2F2E41"/>
<path d="M81.5477 40.6124C85.8007 40.6124 89.2497 37.1643 89.2497 32.9107C89.2497 28.6572 85.8007 25.209 81.5477 25.209C77.2937 25.209 73.8457 28.6572 73.8457 32.9107C73.8457 37.1643 77.2937 40.6124 81.5477 40.6124Z" fill="#A0616A"/>
<path d="M79.1946 47.2445C79.1946 47.2445 81.3336 53.6626 84.7566 52.3789L88.1796 51.0953L94.1706 92.171C94.1706 92.171 89.4636 99.017 82.6176 94.738C75.7716 90.46 79.1946 47.2445 79.1946 47.2445Z" fill="#6C63FF"/>
<path d="M85.1846 45.9608L87.1096 41.8961C87.1096 41.8961 98.4486 47.2445 100.161 48.9559C101.872 50.6674 101.872 53.2347 101.872 53.2347L98.8766 63.9315C98.8766 63.9315 99.7326 87.464 99.7326 88.32C99.7326 89.176 102.728 93.883 100.588 92.171C98.4486 90.46 98.0206 88.748 96.3096 91.315C94.5976 93.883 90.7466 96.878 90.7466 96.878L85.1846 45.9608Z" fill="#3F3D56"/>
<path d="M100.16 76.7676L98.8767 88.748C98.8767 88.748 91.1747 95.594 92.8857 96.022C94.5977 96.45 95.4537 94.738 95.4537 94.738C95.4537 94.738 98.4487 97.733 100.16 96.022C101.872 94.31 106.15 78.0512 106.15 78.0512L100.16 76.7676Z" fill="#A0616A"/>
<path d="M81.7123 22.026C80.0053 21.965 78.1783 21.9348 76.7383 22.8549C76.0763 23.3166 75.4953 23.8853 75.0193 24.5377C73.6173 26.3101 72.4053 28.5402 72.9263 30.7393L73.5313 30.5034C73.5313 31.0904 73.4013 31.6701 73.1493 32.2004C73.2343 31.9528 73.5203 32.3531 73.4433 32.6037L72.7773 34.7896C73.8723 34.3881 75.2353 35.2011 75.4013 36.3558C75.4783 33.8167 75.7413 30.9053 77.8013 29.4186C78.8393 28.6689 80.1543 28.44 81.4193 28.2368C82.5853 28.0493 83.8093 27.8705 84.9263 28.2546C86.0443 28.6387 86.9953 29.7816 86.7423 30.9359C87.2573 30.7584 87.8343 31.1175 88.0883 31.5994C88.3433 32.0813 88.3563 32.6497 88.3643 33.1947C88.9133 33.5829 89.5383 32.812 89.7623 32.1777C90.2883 30.6889 90.7553 29.104 90.4723 27.5508C90.1893 25.9975 88.9233 24.5131 87.3443 24.5079C87.5363 24.2974 87.6383 24.0206 87.6293 23.7361L86.3283 23.6261C86.6583 23.5793 86.9623 23.4191 87.1873 23.173C86.6653 23.7479 82.5573 22.0562 81.7123 22.026Z" fill="#2F2E41"/>
<path d="M81.334 44.6772C81.334 44.6772 77.851 41.2639 76.597 41.473C75.344 41.6821 73.632 44.6772 73.632 44.6772C73.632 44.6772 63.3635 48.1002 63.7913 51.5231C64.2192 54.9461 68.926 71.6331 68.926 71.6331C68.926 71.6331 72.777 91.743 69.354 93.882C65.931 96.022 85.613 101.584 86.041 99.017C86.469 96.45 87.324 70.7774 86.041 66.9265C84.757 63.0757 81.334 44.6772 81.334 44.6772Z" fill="#3F3D56"/>
<path d="M96.3096 51.5232H101.6C101.6 51.5232 105.295 67.7823 105.723 69.4938C106.151 71.2053 107.006 79.3349 106.578 79.3349C106.151 79.3349 97.5926 77.6234 97.5926 78.907L96.3096 51.5232Z" fill="#3F3D56"/>
<path d="M96.1313 91.786H75.8773C73.9003 82.6938 73.7353 73.9091 75.8773 65.516H96.1313C92.8623 73.7582 92.6583 82.4827 96.1313 91.786Z" fill="#F2F2F2"/>
<path d="M67.6426 80.6184L73.6326 83.1857C73.6326 83.1857 85.1846 84.8972 85.1846 80.1906C85.1846 75.484 73.6326 78.0512 73.6326 78.0512L69.7816 76.8199L67.6426 80.6184Z" fill="#A0616A"/>
<path d="M68.9265 48.9559L63.7923 50.2396L59.9415 72.9168C59.9415 72.9168 58.6579 78.907 60.7972 79.3348C62.9366 79.7627 68.9265 83.1857 68.9265 83.1857C68.9265 83.1857 69.7825 76.7676 71.4945 76.7676L67.2155 73.3446L69.7825 58.3691L68.9265 48.9559Z" fill="#3F3D56"/>
</svg>
