<svg width="296" height="667" viewBox="0 0 296 667" fill="none" xmlns="http://www.w3.org/2000/svg">
<path d="M-80 644.066C-80 610.939 -73.9479 579.723 -61.8438 550.418C-49.1027 520.477 -31.5836 490.853 -9.28653 461.549C7.91404 439.889 27.9814 416.636 50.9155 391.791C78.946 360.575 100.606 335.093 115.895 315.344C131.822 294.958 145.2 272.342 156.03 247.497C166.86 222.652 172.275 196.532 172.275 169.139C172.275 150.664 167.497 134.419 157.941 120.404C148.385 105.752 133.096 98.4255 112.073 98.4255C89.776 98.4255 73.2125 107.663 62.3825 126.138C51.5525 144.612 46.1375 168.502 46.1375 197.807V236.986H-71.3997C-72.0368 235.075 -72.6738 230.615 -73.3109 223.607C-73.9479 216.6 -74.2665 208.318 -74.2665 198.762C-74.2665 132.508 -56.4288 82.8176 -20.7536 49.6905C15.5587 16.5635 61.4269 0 116.851 0C169.09 0 211.454 14.0153 243.944 42.0458C276.434 70.0764 292.679 112.759 292.679 170.095C292.679 207.044 284.716 243.356 268.789 279.032C252.863 314.07 234.07 345.604 212.41 373.635C191.387 401.665 164.63 434.474 132.14 472.06C104.11 503.913 87.8649 523.025 83.4055 529.395C73.8496 542.137 67.1605 552.33 63.3381 559.974H295.546V667H-80V644.066Z" fill="#BBD1E5"/>
<rect x="-1" width="109" height="34" fill="#BBD1E5"/>
</svg>
