<svg width="315" height="229" viewBox="0 0 315 229" fill="none" xmlns="http://www.w3.org/2000/svg">
<g clip-path="url(#clip0)">
<path opacity="0.1" d="M310.93 68.9451C310.875 69.2019 310.823 69.4586 310.763 69.7125C308.871 78.4384 305.778 86.8471 301.18 94.5692C301.027 94.8259 300.874 95.0826 300.719 95.3394C297.687 100.308 294.059 104.887 289.916 108.975C287.625 111.236 285.127 113.386 282.156 114.935C277.994 117.11 273.127 117.992 268.345 118.713C263.377 119.466 258.341 120.095 253.319 120.773C251.534 121.01 249.76 121.261 247.996 121.526C243.145 122.244 238.327 123.075 233.625 124.177C227.813 125.536 222.179 127.315 216.857 129.819C216.432 130.011 216.012 130.215 215.596 130.431C215.181 130.638 214.763 130.849 214.353 131.062C213.944 131.276 213.54 131.489 213.139 131.709C212.931 131.821 212.723 131.934 212.519 132.052C212.314 132.17 212.112 132.274 211.913 132.389C211.313 132.724 210.724 133.067 210.136 133.413L210.113 133.428C209.723 133.656 209.34 133.889 208.959 134.123C206.784 135.444 204.655 136.823 202.526 138.211L201.188 139.076L199.114 140.417C198.71 140.68 198.297 140.942 197.891 141.202C197.602 141.392 197.314 141.583 196.999 141.779C195.488 142.731 193.956 143.665 192.384 144.557C192.012 144.77 191.637 144.984 191.259 145.191C188.083 146.963 184.761 148.461 181.33 149.668L181.284 149.686C179.558 150.288 177.797 150.785 176.011 151.174C174.981 151.399 173.948 151.584 172.904 151.725C170.113 152.121 167.282 152.16 164.481 151.843C158.98 151.206 153.825 149.094 148.327 148.382C137.008 146.939 126.015 151.586 115.37 155.227C112.753 156.121 110.117 156.959 107.461 157.739C105.695 158.261 103.924 158.755 102.139 159.231C91.1991 162.121 80.0341 164.079 68.7637 165.084C64.0524 165.545 59.313 165.65 54.5858 165.398C52.7887 165.288 51.0118 165.11 49.2666 164.821C43.2955 163.898 37.7281 161.962 33.2339 158.417C29.5531 155.507 26.9195 151.713 24.9147 147.744C22.8624 143.694 21.4135 139.366 20.6137 134.896C20.5041 134.287 20.406 133.676 20.3253 133.064C20.181 132.018 20.0733 130.966 20.0022 129.909C19.614 124.271 20.2872 118.61 21.9868 113.221C23.8906 107.186 27.0637 101.394 28.4599 95.3134C28.5176 95.0557 28.5724 94.799 28.6243 94.5432C28.815 93.6196 28.9565 92.6866 29.0483 91.748C29.7608 84.2769 27.0291 76.9932 24.8858 69.6865C24.8108 69.4326 24.7358 69.1759 24.6637 68.9192C24.4329 68.1076 24.2118 67.2971 24.0003 66.4875C22.0156 58.7625 21.4647 50.4923 23.2329 42.7817C23.2878 42.525 23.3541 42.2682 23.4176 42.0144C24.6014 37.1404 26.8275 32.581 29.9426 28.65C33.2541 24.4961 37.6012 21.0375 42.2455 18C44.5089 16.5192 46.8493 15.1355 49.2666 13.849C50.9974 12.9259 52.7705 12.0519 54.5858 11.2269C69.1387 4.59226 85.7397 1.35284 102.156 2.06822C103.021 2.10572 103.887 2.15187 104.752 2.21534C105.618 2.2788 106.564 2.3538 107.47 2.43745C118.045 3.46437 128.334 5.94226 138.551 8.65091C141.975 9.55957 145.394 10.4913 148.809 11.4057C150.329 11.8096 151.846 12.2134 153.367 12.6057C160.812 14.5298 168.367 16.2721 176.017 17.573C177.788 17.8788 179.561 18.1576 181.336 18.4096C187.499 19.3153 193.711 19.8423 199.939 19.9875C202.36 20.0355 204.782 20.0144 207.205 19.924C208.428 19.8798 209.652 19.8134 210.877 19.725C223.526 18.8336 235.751 15.8509 247.996 13.0644C249.768 12.6605 251.542 12.2625 253.319 11.8701C255.649 11.3567 257.98 10.8605 260.322 10.4019C274.898 7.53745 287.891 9.18457 301.443 15.0951C304.523 16.4365 307.601 18.0576 309.488 20.5759C311.374 23.0942 311.847 26.1865 312.199 29.1721C312.698 33.424 313.024 37.7307 313.148 42.0605C313.148 42.3144 313.148 42.5711 313.166 42.8278C313.362 51.574 312.71 60.4038 310.93 68.9451Z" fill="#6C63FF"/>
<path opacity="0.1" d="M214.243 94.5692H213.291V94.9096V95.3394H214.37L214.243 94.5692ZM203.446 94.5692C203.444 94.5759 203.444 94.5828 203.446 94.5894C203.42 94.8 203.391 95.0106 203.362 95.224V95.2817V95.3394H211.612V95.2933L212.189 94.5692H203.446ZM181.335 94.5692V69.7125H190.826C190.725 69.6461 190.621 69.5769 190.514 69.5135L190.376 69.424L190.197 69.3144C190.093 69.2538 189.989 69.1933 189.88 69.1356C189.77 69.0779 189.704 69.0375 189.611 68.9884L189.548 68.9538H189.533H181.335V67.5836L181.113 67.6702L180.88 67.7798H180.862L180.813 67.8058L180.666 67.8836L180.519 67.9615C180.375 68.0394 180.23 68.126 180.086 68.2154L179.948 68.3077L179.659 68.4923C179.287 68.7404 178.921 69 178.543 69.2423C178.448 69.3029 178.353 69.3634 178.255 69.4183C178.05 69.5394 177.839 69.6548 177.623 69.7586C177.53 69.8048 177.441 69.8452 177.334 69.8827L177.179 69.9433L177.034 69.9923C176.696 70.1101 176.349 70.2008 175.996 70.2635V94.5635H161.766C161.766 94.5923 161.786 94.6154 161.795 94.6442C161.873 94.875 161.951 95.1029 162.026 95.3336H176.016V121.976C176.089 121.976 176.161 121.976 176.232 121.976L176.483 121.99L176.936 122.016L177.66 122.103L177.992 122.135L178.353 122.172H178.407L179.045 122.25L179.18 122.267L179.489 122.311L179.93 122.374L180.989 122.328L181.133 122.354C181.191 122.354 181.252 122.371 181.312 122.383V95.3394H203.333V95.2817V95.224C203.362 95.0106 203.391 94.8 203.417 94.5894C203.416 94.5828 203.416 94.5759 203.417 94.5692H181.335ZM214.243 94.5692H213.291V94.9096V95.3394H214.37L214.243 94.5692ZM202.852 94.5692C202.817 94.826 202.785 95.0827 202.751 95.3394H211.95L212.576 94.5692H202.852ZM181.335 94.5692V69.7125H190.826C190.725 69.6461 190.621 69.5769 190.514 69.5135L190.376 69.424L190.197 69.3144C190.093 69.2538 189.989 69.1933 189.88 69.1356C189.77 69.0779 189.704 69.0375 189.611 68.9884L189.548 68.9538H189.528H181.335V67.5836L181.113 67.6702L180.88 67.7798H180.862L180.813 67.8058L180.666 67.8836L180.519 67.9615C180.375 68.0394 180.23 68.126 180.086 68.2154L179.948 68.3077L179.659 68.4923C179.287 68.7404 178.921 69 178.543 69.2423C178.448 69.3029 178.353 69.3634 178.255 69.4183C178.05 69.5394 177.839 69.6548 177.623 69.7586C177.53 69.8048 177.441 69.8452 177.334 69.8827L177.179 69.9433L177.034 69.9923C176.696 70.1101 176.349 70.2008 175.996 70.2635V94.5635H161.766C161.766 94.5923 161.786 94.6154 161.795 94.6442C161.873 94.8721 161.954 95.1029 162.029 95.3336H176.016V121.973H176.232L176.483 121.987L176.936 122.013L177.66 122.103L177.992 122.135L178.353 122.172H178.407L179.045 122.25L179.18 122.267L179.489 122.311L179.93 122.374L180.989 122.328L181.133 122.354C181.191 122.354 181.252 122.371 181.312 122.383V95.3394H202.756C202.791 95.0827 202.823 94.826 202.857 94.5692H181.335ZM253.318 42.8077H313.165C313.165 42.551 313.165 42.2942 313.148 42.0404H253.318V11.8615C251.541 12.2461 249.767 12.6442 247.996 13.0558V42.0404H182.907L182.743 41.8933L182.991 41.674L207.202 19.9183C204.779 20.0106 202.356 20.0317 199.935 19.9817L181.332 36.6952V18.4096C179.555 18.1577 177.782 17.8788 176.013 17.5731V35.8529L148.814 11.4058C145.399 10.4913 141.98 9.55961 138.556 8.65095L175.546 41.8933L175.381 42.0404H107.478V2.46345C106.572 2.37884 105.666 2.3048 104.76 2.24134C103.895 2.17788 103.03 2.13172 102.164 2.09422V42.0404H54.5853V11.2529C52.7892 12.076 51.0161 12.95 49.2661 13.875V42.0404H23.417C23.3536 42.2942 23.2872 42.551 23.2324 42.8077H49.2661V68.9452H24.6632C24.7353 69.2019 24.8103 69.4586 24.8853 69.7125H49.2661V94.5692H28.6238C28.5718 94.825 28.517 95.0817 28.4593 95.3394H49.2661V164.838C50.9968 165.107 52.7882 165.294 54.5853 165.415V95.3394H102.156V159.242C103.941 158.766 105.712 158.273 107.478 157.751V95.3394H176.016V151.171C177.802 150.782 179.563 150.285 181.289 149.683L181.335 149.665V95.3394H247.996V121.526C249.765 121.266 251.539 121.017 253.318 120.779V95.3394H300.718C300.874 95.0827 301.027 94.826 301.18 94.5692H253.318V69.7125H310.762C310.823 69.4586 310.875 69.2019 310.93 68.9452H253.318V42.8077ZM54.5853 42.8077H102.156V68.9452H54.5853V42.8077ZM54.5853 94.5692V69.7125H102.156V94.5692H54.5853ZM107.478 42.8077H176.016V68.9452H107.478V42.8077ZM107.478 94.5692V69.7125H176.016V94.5692H107.478ZM247.996 94.5692H181.335V69.7125H247.996V94.5692ZM247.996 68.9452H181.335V43.5086L182.27 42.8077H247.996V68.9452ZM203.446 94.5692C203.444 94.5759 203.444 94.5828 203.446 94.5894C203.42 94.8 203.391 95.0106 203.362 95.224V95.2817V95.3394H211.612V95.2933L212.189 94.5692H203.446ZM214.243 94.5692H213.291V94.9096V95.3394H214.37L214.243 94.5692ZM181.335 94.5692V69.7125H190.826C190.725 69.6461 190.621 69.5769 190.514 69.5135L190.376 69.424L190.197 69.3144C190.093 69.2538 189.989 69.1933 189.88 69.1356C189.77 69.0779 189.704 69.0375 189.611 68.9884L189.548 68.9538H189.533H181.335V67.5836L181.113 67.6702L180.88 67.7798H180.862L180.813 67.8058L180.666 67.8836L180.519 67.9615C180.375 68.0394 180.23 68.126 180.086 68.2154L179.948 68.3077L179.659 68.4923C179.287 68.7404 178.921 69 178.543 69.2423C178.448 69.3029 178.353 69.3634 178.255 69.4183C178.05 69.5394 177.839 69.6548 177.623 69.7586C177.53 69.8048 177.441 69.8452 177.334 69.8827L177.179 69.9433L177.034 69.9923C176.696 70.1101 176.349 70.2008 175.996 70.2635V94.5635H161.766C161.766 94.5923 161.786 94.6154 161.795 94.6442C161.873 94.875 161.951 95.1029 162.026 95.3336H176.016V121.976C176.089 121.976 176.161 121.976 176.232 121.976L176.483 121.99L176.936 122.016L177.66 122.103L177.992 122.135L178.353 122.172H178.407L179.045 122.25L179.18 122.267L179.489 122.311L179.93 122.374L180.989 122.328L181.133 122.354C181.191 122.354 181.252 122.371 181.312 122.383V95.3394H203.333V95.2817V95.224C203.362 95.0106 203.391 94.8 203.417 94.5894C203.416 94.5828 203.416 94.5759 203.417 94.5692H181.335Z" fill="#6C63FF"/>
<path opacity="0.1" d="M77.4579 24.8135H77.8704C77.7344 24.756 77.6161 24.6635 77.5274 24.5454C77.4387 24.4274 77.3829 24.288 77.3655 24.1414C77.3655 23.6106 78.1588 23.1779 79.1281 23.1779H91.4627C92.4319 23.1779 93.2223 23.6106 93.2223 24.1414C93.2223 24.6692 92.4319 25.1048 91.4627 25.1048H91.0502C91.1863 25.1614 91.3048 25.2532 91.3935 25.3708C91.4823 25.4885 91.538 25.6277 91.555 25.7741C91.555 26.2269 90.978 26.6077 90.2079 26.7087H93.7588C94.7252 26.7087 95.5184 27.1414 95.5184 27.6721C95.5184 28.2029 94.7252 28.6356 93.7588 28.6356H81.4213C80.455 28.6356 79.6617 28.2 79.6617 27.6721C79.6617 27.2192 80.2386 26.8414 81.0088 26.7375H77.4579C76.4886 26.7375 75.6982 26.3048 75.6982 25.7741C75.6982 25.2433 76.4886 24.8135 77.4579 24.8135Z" fill="#6C63FF"/>
<path opacity="0.1" d="M211.142 33.9779H211.555C211.42 33.92 211.302 33.8273 211.214 33.7093C211.126 33.5913 211.07 33.4521 211.053 33.3058C211.053 32.775 211.843 32.3423 212.813 32.3423H225.147C226.116 32.3423 226.91 32.775 226.91 33.3058C226.91 33.8337 226.116 34.2664 225.147 34.2664H224.738C224.873 34.3243 224.991 34.4169 225.079 34.535C225.167 34.653 225.222 34.7922 225.24 34.9385C225.24 35.3914 224.663 35.7721 223.892 35.8731H227.443C228.413 35.8731 229.203 36.3058 229.203 36.8365C229.203 37.3673 228.413 37.8 227.443 37.8H215.109C214.14 37.8 213.346 37.3644 213.346 36.8365C213.346 36.3837 213.923 36.0029 214.693 35.9019H211.142C210.176 35.9019 209.383 35.4692 209.383 34.9385C209.383 34.4077 210.176 33.9779 211.142 33.9779Z" fill="#6C63FF"/>
<path opacity="0.1" d="M58.5262 73.1971H58.9358C58.8002 73.1395 58.6823 73.0469 58.5941 72.9288C58.506 72.8107 58.4507 72.6714 58.4339 72.525C58.4339 71.9971 59.2271 71.5616 60.1935 71.5616H72.531C73.4973 71.5616 74.2906 71.9971 74.2906 72.525C74.2906 73.0558 73.4973 73.4885 72.531 73.4885H72.1185C72.2542 73.5452 72.3723 73.6371 72.4606 73.7548C72.5488 73.8724 72.604 74.0116 72.6204 74.1577C72.6204 74.6106 72.0435 74.9914 71.2733 75.0923H74.8243C75.7935 75.0923 76.5868 75.5279 76.5868 76.0558C76.5868 76.5837 75.7935 77.0193 74.8243 77.0193H62.5012C61.5319 77.0193 60.7416 76.5866 60.7416 76.0558C60.7416 75.6058 61.3185 75.225 62.0887 75.1212H58.5262C57.5569 75.1212 56.7637 74.6885 56.7637 74.1577C56.7637 73.627 57.5685 73.1971 58.5262 73.1971Z" fill="#6C63FF"/>
<path opacity="0.1" d="M290.782 175.992C292.854 165.852 267.484 152.105 234.118 145.286C200.751 138.467 172.022 141.159 169.95 151.298C167.878 161.438 193.247 175.185 226.614 182.004C259.981 188.823 288.709 186.131 290.782 175.992Z" fill="#6C63FF"/>
<path d="M223.398 111.023C223.398 111.023 226.678 94.924 239.2 96.4153C239.2 96.4153 247.854 97.0096 249.634 102.675V115.197L223.398 111.023Z" fill="#3A3768"/>
<path d="M291.975 116.988L180.464 107.743L166.153 110.726L167.048 130.702L168.023 130.82L169.133 160.817L278.555 180.493L290.186 170.654V138.136L291.675 137.262L291.975 116.988Z" fill="#D48A9B"/>
<path opacity="0.05" d="M292.125 116.988L291.825 137.261L279.75 142.927L279.6 121.757L292.125 116.988Z" fill="black"/>
<path opacity="0.05" d="M290.187 138.156L290.334 170.06L278.706 179.899L279.453 142.927L290.187 138.156Z" fill="black"/>
<path opacity="0.05" d="M168.173 132.014L279.543 145.604L279.6 143.025L168.09 130.999L168.173 132.014Z" fill="black"/>
<path opacity="0.05" d="M290.186 139.327V138.156L279.152 143.025V145.61L290.186 139.327Z" fill="black"/>
<path d="M166.004 110.726L180.314 107.743L291.825 116.988L279.303 121.757L166.004 110.726Z" fill="#EFC6CD"/>
<path opacity="0.1" d="M279.946 117.562L285.418 117.92L276.349 120.635L271.73 120.303L279.946 117.562Z" fill="black"/>
<path d="M279.946 117.323L285.418 117.681L276.349 120.398L271.73 120.063L279.946 117.323Z" fill="white"/>
<path d="M279.291 117.937C279.507 117.845 279.735 118.021 279.966 118.064C280.099 118.09 280.234 118.064 280.367 118.09C280.635 118.125 280.901 118.304 281.157 118.214" fill="#D3DAE1"/>
<path d="M279.009 118.102C279.222 118.01 279.453 118.183 279.684 118.229C279.816 118.252 279.952 118.229 280.085 118.252C280.353 118.289 280.618 118.468 280.875 118.379" fill="#D3DAE1"/>
<path d="M278.356 118.431C278.573 118.338 278.804 118.512 279.034 118.555C279.164 118.581 279.303 118.555 279.432 118.581C279.704 118.618 279.969 118.797 280.223 118.705" fill="#D3DAE1"/>
<path opacity="0.1" d="M256.293 114.868L261.765 115.229L252.695 117.943L248.077 117.609L256.293 114.868Z" fill="black"/>
<path d="M256.293 114.632L261.765 114.989L252.695 117.704L248.077 117.372L256.293 114.632Z" fill="white"/>
<path d="M255.638 115.246C255.854 115.154 256.082 115.327 256.313 115.373C256.445 115.396 256.581 115.373 256.714 115.396C256.982 115.434 257.247 115.613 257.504 115.523" fill="#D3DAE1"/>
<path d="M255.354 115.411C255.568 115.318 255.799 115.491 256.029 115.535C256.162 115.561 256.298 115.535 256.43 115.561C256.699 115.598 256.964 115.777 257.221 115.685" fill="#D3DAE1"/>
<path d="M254.703 115.737C254.919 115.644 255.15 115.82 255.381 115.864C255.511 115.889 255.649 115.864 255.779 115.889C256.05 115.924 256.316 116.106 256.569 116.014" fill="#D3DAE1"/>
<path opacity="0.1" d="M267.637 116.215L273.112 116.573L264.043 119.29L259.422 118.956L267.637 116.215Z" fill="black"/>
<path d="M267.637 115.979L273.112 116.337L264.043 119.051L259.422 118.716L267.637 115.979Z" fill="white"/>
<path d="M266.982 116.593C267.199 116.501 267.43 116.674 267.66 116.717C267.79 116.743 267.926 116.717 268.058 116.743C268.327 116.778 268.595 116.96 268.849 116.867" fill="#D3DAE1"/>
<path d="M266.7 116.755C266.917 116.663 267.147 116.838 267.378 116.882C267.508 116.908 267.643 116.882 267.776 116.908C268.044 116.942 268.313 117.124 268.567 117.032" fill="#D3DAE1"/>
<path d="M266.051 117.084C266.264 116.991 266.495 117.164 266.726 117.211C266.858 117.234 266.994 117.211 267.127 117.234C267.395 117.271 267.66 117.45 267.917 117.361" fill="#D3DAE1"/>
<path opacity="0.1" d="M143.747 228.283C176.004 228.283 202.154 222.9 202.154 216.26C202.154 209.619 176.004 204.237 143.747 204.237C111.489 204.237 85.3389 209.619 85.3389 216.26C85.3389 222.9 111.489 228.283 143.747 228.283Z" fill="#6C63FF"/>
<path d="M207.707 117.802C207.084 112.327 204.618 107.103 204.618 107.103L204.805 105.257C204.805 105.257 204.846 104.334 204.785 102.949C204.792 102.085 204.905 101.224 205.123 100.387C205.627 98.7865 204.491 96.8192 204.364 96.6375C204.237 96.4557 204.427 92.9452 203.291 91.2231C202.154 89.5009 194.585 86.299 194.585 86.299C194.585 86.299 194.178 85.4481 193.604 84.4529L193.656 84.3519C193.187 83.4999 192.604 82.715 191.925 82.0183C191.461 81.5221 191.014 81.2394 190.653 81.3779C190.507 80.8991 190.395 80.4103 190.319 79.9154C190.394 79.9356 190.472 79.9557 190.547 79.9702C190.859 80.0426 191.183 80.0505 191.499 79.9932C192.202 79.8346 192.67 79.2029 193.062 78.6086C195.018 75.6375 196.702 72.3779 197.046 68.8615C197.138 68.1438 197.104 67.4155 196.945 66.7096C196.782 66.1608 196.556 65.6331 196.27 65.1375C195.764 64.1206 195.124 63.1765 194.366 62.3307C193.019 60.9115 191.161 60.0433 189.251 59.5298C187.1 58.9513 184.859 58.7839 182.646 59.0365C182.069 59.1029 181.492 59.1981 180.915 59.2356C180.183 59.2678 179.45 59.2553 178.72 59.1981L174.944 58.9788L174.926 58.9211L174.298 58.8836C174.05 59.3769 174.298 59.9625 174.606 60.424C174.915 60.8856 175.27 61.3673 175.244 61.9125C175.218 62.4577 174.823 62.8961 174.514 63.3548C174.205 63.8134 173.972 64.4134 174.28 64.8634C174.324 64.9257 174.375 64.9819 174.433 65.0307C174.759 65.3682 175.327 65.4057 175.821 65.4H175.907C174.665 67.0361 173.993 69.0342 173.995 71.0884C174.003 72.8439 174.494 74.5632 175.415 76.0581C176.335 77.5529 177.649 78.7657 179.213 79.5634C179.268 79.7509 179.323 79.9442 179.375 80.1404C179.946 82.1665 180.151 84.2786 179.98 86.3769L179.914 86.5211L179.874 86.3682C179.874 86.3682 175.425 89.3856 174.104 90.1846C172.783 90.9836 171.456 93.6923 171.393 94.4308C171.329 95.1692 169.247 106.307 169.247 106.307C168.823 107.429 168.475 108.577 168.202 109.745L165.546 112.079C165.546 112.079 160.065 112.572 158.478 112.203L158.525 112.509C157.125 112.189 155.7 111.996 154.267 111.932C153.484 111.831 152.688 111.937 151.959 112.24L151.904 112.266L151.861 112.287C151.026 112.401 150.21 112.63 149.438 112.967C149.346 113.005 149.262 113.042 149.181 113.08L149.199 112.702L143.268 112.396L140.239 111.782C140.239 111.782 139.166 110.916 138.534 111.043C137.902 111.17 136.578 110.305 136.578 110.305C136.276 110.068 135.949 109.865 135.603 109.699C135.502 109.001 135.439 108.577 135.439 108.577C135.439 108.577 133.082 99.225 131.317 93.7269C130.134 90.0548 128.432 88.2461 127.428 87.4586C126.981 86.6798 126.687 86.1779 126.687 86.1779C126.494 85.5029 125.432 83.9827 125.161 83.9452C125.118 83.8759 125.086 83.8413 125.069 83.8413C125.011 83.8351 124.952 83.8441 124.899 83.8673C124.402 81.3981 124.114 78.3029 124.873 75.6057C125.911 74.7523 126.748 73.6797 127.324 72.4649C127.899 71.2501 128.199 69.9231 128.201 68.5788C128.201 68.5384 128.201 68.4981 128.201 68.4577C128.201 68.4173 128.201 68.374 128.201 68.3336C128.201 66.1899 127.442 64.1155 126.058 62.4779L125.96 62.3682C125.986 62.3497 126.011 62.3294 126.035 62.3077C126.252 62.1319 126.417 61.9007 126.513 61.6386C126.609 61.3766 126.632 61.0934 126.58 60.8192C126.45 60.2654 126.018 59.8298 125.796 59.3048C125.662 58.9006 125.555 58.4882 125.475 58.0702C125.306 57.4764 124.994 56.9329 124.567 56.4865L124.61 56.6019C123.479 55.3298 121.535 54.6981 119.784 54.9807C118.483 55.1884 117.272 55.7942 115.965 55.9817C115.027 56.1144 114.073 56.0279 113.129 56.1231C112.254 56.213 111.402 56.4593 110.614 56.85C110.408 56.9376 110.225 57.0719 110.08 57.2423C109.946 57.4706 109.856 57.7221 109.815 57.9836C109.495 59.1519 108.479 59.9856 107.744 60.9606C106.904 62.0745 106.417 63.4151 106.348 64.8086C106.319 65.1628 106.353 65.5193 106.449 65.8615C106.512 66.0663 106.61 66.2596 106.656 66.4673C106.8 67.1019 106.469 67.7336 106.307 68.3625C106.104 69.1647 106.176 70.012 106.512 70.7683C107.651 73.3183 111.393 74.1692 112.172 76.8461C112.768 77.1201 113.397 77.314 114.044 77.4231C114.096 77.6884 114.142 77.9567 114.179 78.2279C114.162 78.2353 114.145 78.245 114.13 78.2567C113.121 79.2404 112.87 81.1413 112.87 81.1413L112.749 81.2394C112.336 81.5798 110.925 82.7221 109.65 83.6019C108.136 84.649 105.612 88.1567 103.847 89.2038C102.081 90.2509 100.627 96.7038 101.008 99.049C101.389 101.394 102.964 107.971 102.332 110.371C101.7 112.771 103.278 123.724 103.278 123.724C104.337 123.926 105.373 124.233 106.371 124.641L106.339 125.12L106.244 126.562C106.244 126.562 103.385 136.901 104.478 144.86C105.572 152.818 103.974 153.637 103.974 153.637C103.974 153.637 104.308 157.165 103.469 158.397C102.629 159.629 102.459 162.335 102.459 162.335C102.459 162.335 102.375 168.407 102.543 170.123C102.71 171.839 102.794 174.966 102.205 175.705C101.617 176.443 100.524 181.281 100.607 182.758C100.691 184.235 98.5043 187.601 99.6813 191.948C100.858 196.295 96.2197 196.379 96.2197 196.379C96.2197 196.379 96.8111 203.013 98.0716 204.912L98.2563 205.183C98.2245 205.292 98.1928 205.408 98.1582 205.532C97.6822 207.262 97.0303 209.994 97.4832 210.655C98.1553 211.641 98.4928 211.474 98.4928 211.474L98.7438 215.905C98.7438 215.905 103.792 220.171 107.663 220.01C111.534 219.848 110.775 215.905 110.775 215.905L107.478 207.355L107.366 207.066L111.029 200.143C111.029 200.143 112.039 197.109 112.29 196.041C112.541 194.974 113.911 191.192 113.911 191.192C113.911 191.192 117.373 182.988 117.445 182.002C117.517 181.015 117.782 175.687 118.454 174.617C119.126 173.547 120.978 167.406 120.978 167.406L121.025 167.446C121.339 167.755 121.563 168.143 121.674 168.569C121.785 168.995 121.778 169.444 121.653 169.866C121.229 171.424 121.483 174.623 121.483 174.623C121.483 174.623 121.316 177.332 120.978 178.728C120.641 180.124 120.56 191.527 121.149 194.233C121.619 196.399 121.604 200.455 121.581 201.989C121.186 203.619 120.84 205.644 121.483 205.884C122.579 206.296 128.132 206.212 128.132 206.212C128.132 206.212 130.486 205.39 133.685 208.263C136.884 211.137 146.724 207.444 146.724 207.444C146.724 207.444 149.752 206.622 143.778 204.245C139.61 202.587 136.919 201.482 135.159 200.299C135.2 200.221 135.243 200.143 135.28 200.06C135.28 200.06 132.84 197.752 134.859 193.662C136.878 189.571 136.795 186.112 136.795 186.112L137.132 172.327L136.123 154.027L135.341 134.821L135.479 134.775C135.612 138.306 136.301 146.712 139.91 145.082C144.453 143.031 140.582 137.697 140.582 137.697L138.543 133.722L139.151 133.514L136.87 126.141C136.651 124.702 136.622 123.241 136.783 121.794C136.828 120.948 136.811 120.099 136.731 119.256C139.72 118.734 142.581 118.18 143.095 118.307C143.7 118.454 147.09 118.483 148.423 118.488C147.987 118.829 147.638 119.166 147.638 119.166L153.064 122.818C153.064 122.818 154.904 121.812 155.288 120.744C155.666 120.649 156.014 120.463 156.303 120.202C156.361 121.462 156.696 122.827 157.861 122.859C158.153 122.865 158.442 122.808 158.709 122.691L167.582 120.935L166.821 125.691L167.351 126.635C167.083 130.647 166.775 134.908 166.503 138.655L166.379 139.474L166.443 139.488C166.022 145.258 165.684 149.628 165.684 149.628C166.181 148.681 166.952 147.906 167.897 147.404L167.954 155.965C167.954 155.965 168.399 169.503 168.399 171.349C168.399 173.195 168.459 177.317 168.459 177.317C168.459 177.317 169.408 182.362 169.974 184.024C170.539 185.686 170.983 193.255 170.983 193.255C170.983 193.255 172.31 195.346 171.742 196.139C171.174 196.933 173.951 198.661 173.951 198.661C173.951 198.661 172.183 201.061 172.056 202.662C172.042 202.846 172.224 203.042 172.552 203.238C172.449 203.322 172.342 203.406 172.224 203.487C171.404 204.035 170.204 204.415 168.399 204.26C163.475 203.827 160.004 208.382 163.033 209.305C166.062 210.228 175.149 210.412 175.149 210.412C175.149 210.412 177.9 208.696 180.052 209.469C180.021 211.275 180.11 212.931 180.125 213.15L180.099 213.17C178.812 214.324 176.349 216.309 173.943 217.119C170.481 218.287 169.714 223.027 174.194 223.641C178.674 224.256 185.236 222.903 185.236 222.903C185.236 222.903 188.643 220.382 191.23 219.828C193.818 219.274 196.027 218.042 195.586 216.565C195.298 215.622 194.556 213.15 194.054 211.488C194.025 211.388 193.997 211.292 193.968 211.2C194.046 211.027 194.124 210.848 194.196 210.663C194.196 210.663 192.872 203.772 193.945 202.05C195.018 200.328 194.45 183.095 194.45 183.095C194.45 183.095 192.618 178.728 193.567 176.083C194.516 173.437 192.052 169.682 192.052 169.682C192.052 169.682 192.321 162.156 193.042 157.962C193.075 157.783 193.106 157.61 193.137 157.442C194.344 157.084 195.521 156.63 196.656 156.084C196.656 156.084 197.288 146.605 197.666 144.453C197.703 144.251 197.755 143.925 197.819 143.501L198.107 141.981L198.448 140.25L199.601 134.351L201.684 131.657L207.05 126.176C207.05 126.176 208.339 123.28 207.707 117.802ZM124.965 83.9567L124.925 83.9856C124.918 83.9647 124.914 83.9435 124.91 83.9221C124.927 83.9359 124.945 83.9475 124.965 83.9567ZM177.976 90.675L177.768 91.1279L178.526 90.3721L177.497 91.5259L177.843 90.799L177.976 90.675ZM172.852 101.262C172.653 101.789 172.44 102.361 172.218 102.955L172.625 101.74L172.852 101.262Z" fill="url(#paint0_linear)"/>
<path d="M156.297 118.52C156.297 118.52 155.59 123.225 157.71 123.286C159.83 123.346 161.247 119.657 161.247 119.657L160.381 116.706L156.297 118.52Z" fill="#585B8A"/>
<path opacity="0.2" d="M156.297 118.52C156.297 118.52 155.59 123.225 157.71 123.286C159.83 123.346 161.247 119.657 161.247 119.657L160.381 116.706L156.297 118.52Z" fill="black"/>
<path d="M108.808 220.359C105.034 220.523 100.113 216.26 100.113 216.26L99.8681 211.832C99.8681 211.832 99.5421 211.996 98.8844 211.012C98.4431 210.352 99.0777 207.614 99.5421 205.892C99.7671 205.05 99.9517 204.45 99.9517 204.45L108.231 206.665L108.626 207.712L111.839 216.257C111.839 216.257 112.578 220.194 108.808 220.359Z" fill="#636992"/>
<path d="M146.847 207.816C146.847 207.816 137.255 211.506 134.154 208.636C131.054 205.765 128.743 206.585 128.743 206.585C128.743 206.585 123.331 206.668 122.264 206.256C121.635 206.016 121.976 203.965 122.368 202.333C122.633 201.205 122.922 200.273 122.922 200.273C122.922 200.273 132.349 197.074 133.826 199.041C134.269 199.619 134.8 200.125 135.398 200.541C137.105 201.776 139.774 202.895 143.994 204.617C149.798 206.994 146.847 207.816 146.847 207.816Z" fill="#636992"/>
<path d="M138.239 132.877L140.861 138.124C140.861 138.124 144.635 143.455 140.207 145.503C135.779 147.551 135.862 133.699 135.862 133.699L138.239 132.877Z" fill="#FFD6D6"/>
<path d="M127.252 87.375C127.252 87.375 130.122 88.6875 131.844 94.1798C133.566 99.6721 135.863 109.021 135.863 109.021C135.863 109.021 137.42 119.596 137.172 122.221C137.014 123.667 137.042 125.127 137.256 126.565L139.468 133.944L135.04 135.502L128.236 109.431L127.252 87.375Z" fill="#DCE6F2"/>
<path opacity="0.05" d="M127.252 87.375C127.252 87.375 130.122 88.6875 131.844 94.1798C133.566 99.6721 135.863 109.021 135.863 109.021C135.863 109.021 137.42 119.596 137.172 122.221C137.014 123.667 137.042 125.127 137.256 126.565L139.468 133.944L135.04 135.502L128.236 109.431L127.252 87.375Z" fill="black"/>
<path opacity="0.1" d="M108.231 206.668L108.627 207.715L108.142 208.641C106.255 209.461 101.582 208.806 101.582 208.806C101.582 208.806 100.717 207.707 99.5342 205.898C99.7592 205.056 99.9438 204.456 99.9438 204.456L108.231 206.668Z" fill="black"/>
<path opacity="0.1" d="M135.698 200.928C133.306 206.345 125.177 204.335 122.919 203.657C122.547 203.544 122.342 203.469 122.342 203.469C122.342 203.469 122.356 203.028 122.362 202.333C122.627 201.205 122.916 200.273 122.916 200.273C122.916 200.273 132.343 197.074 133.82 199.041C134.263 199.619 134.794 200.125 135.392 200.541C135.482 200.679 135.584 200.808 135.698 200.928Z" fill="black"/>
<path d="M135.286 194.042C133.319 198.138 135.698 200.437 135.698 200.437C133.307 205.852 125.178 203.844 122.92 203.163C122.547 203.054 122.343 202.979 122.343 202.979C122.343 202.979 122.507 197.319 121.933 194.613C121.359 191.908 121.44 180.513 121.769 179.12C122.097 177.727 122.259 175.018 122.259 175.018C122.259 175.018 122.014 171.822 122.423 170.264C122.547 169.844 122.555 169.397 122.447 168.972C122.34 168.547 122.12 168.159 121.812 167.847L121.769 167.804C121.769 167.804 119.966 173.954 119.308 175.015C118.65 176.077 118.408 181.411 118.324 182.394C118.241 183.378 114.88 191.579 114.88 191.579C114.88 191.579 113.571 195.349 113.325 196.413C113.08 197.478 112.094 200.515 112.094 200.515L108.142 208.142C106.255 208.962 101.582 208.307 101.582 208.307C101.582 208.307 100.682 207.153 99.4503 205.272C98.2186 203.391 97.6475 196.748 97.6475 196.748C97.6475 196.748 102.156 196.664 101.008 192.32C99.86 187.976 101.992 184.612 101.911 183.136C101.83 181.659 102.895 176.824 103.469 176.086C104.043 175.347 103.959 172.232 103.795 170.51C103.63 168.787 103.714 162.721 103.714 162.721C103.714 162.721 103.878 160.015 104.697 158.786C105.517 157.558 105.191 154.03 105.191 154.03C105.191 154.03 106.746 153.211 105.681 145.258C104.617 137.305 107.412 126.975 107.412 126.975L107.507 125.533L107.657 123.196C107.657 123.196 131.106 121.719 132.993 123.522C133.486 124.022 133.891 124.603 134.19 125.238C134.835 126.626 135.291 128.094 135.546 129.603L136.529 154.445L137.513 172.728L137.184 186.502C137.184 186.502 137.256 189.94 135.286 194.042Z" fill="#565988"/>
<path opacity="0.1" d="M128.334 145.013L125.874 198.303L122.92 203.161C122.548 203.051 122.343 202.976 122.343 202.976C122.343 202.976 122.507 197.316 121.933 194.611C121.359 191.905 121.44 180.511 121.769 179.117C122.098 177.724 122.259 175.015 122.259 175.015C122.259 175.015 122.014 171.819 122.424 170.262C122.547 169.841 122.555 169.395 122.448 168.969C122.34 168.544 122.121 168.156 121.812 167.844L121.852 167.556L128.334 145.013Z" fill="black"/>
<path opacity="0.1" d="M101.835 202.24C101.835 202.24 108.231 199.699 109.214 200.51C110.198 201.32 101.674 202.558 101.674 202.558L101.835 202.24Z" fill="black"/>
<path opacity="0.1" d="M133.402 195.516C133.157 195.6 126.926 197.824 127.5 200.189C128.074 202.555 133.402 195.516 133.402 195.516Z" fill="black"/>
<path d="M113.931 74.2182C113.931 74.2182 116.019 79.2605 114.914 81.8452C113.81 84.4298 126.842 88.8548 126.842 88.8548C126.842 88.8548 123.032 79.0153 126.721 73.4798C130.41 67.9442 113.931 74.2182 113.931 74.2182Z" fill="#FFD6D6"/>
<path d="M190.24 220.194C187.719 220.748 184.399 223.269 184.399 223.269C184.399 223.269 178.004 224.622 173.637 224.008C169.269 223.393 170.011 218.657 173.391 217.488C175.737 216.681 178.139 214.688 179.394 213.545C179.948 213.035 180.277 212.68 180.277 212.68L192.516 210.219C192.516 210.219 192.715 210.903 192.992 211.846C193.483 213.511 194.207 215.98 194.484 216.92C194.914 218.412 192.762 219.64 190.24 220.194Z" fill="#505484"/>
<path d="M187.104 210.724C187.104 210.724 181.938 211.278 179.786 210.049C177.634 208.82 174.559 210.788 174.559 210.788C174.559 210.788 165.703 210.603 162.753 209.68C159.802 208.757 163.182 204.199 167.979 204.637C169.728 204.796 170.91 204.412 171.709 203.864C172.544 203.292 173.126 202.42 173.333 201.43L183.718 202.044L185.16 205.725L187.104 210.724Z" fill="#505484"/>
<path opacity="0.1" d="M185.32 207.404C185.32 207.404 173.25 205.431 171.71 203.864C172.545 203.292 173.126 202.42 173.334 201.43L183.719 202.044L185.161 205.725L185.32 207.404Z" fill="black"/>
<path d="M167.426 138.352L167.55 156.366C167.55 156.366 167.98 169.895 167.98 171.741C167.98 173.588 168.04 177.704 168.04 177.704C168.04 177.704 168.963 182.746 169.517 184.408C170.071 186.069 170.501 193.638 170.501 193.638C170.501 193.638 171.793 195.73 171.239 196.523C170.685 197.316 173.391 199.044 173.391 199.044C173.391 199.044 171.66 201.444 171.548 203.042C171.435 204.64 185.319 206.911 185.319 206.911L179.91 151.448L175.604 137.553L167.426 138.352Z" fill="#575988"/>
<path opacity="0.1" d="M167.426 138.352L167.55 156.366C167.55 156.366 167.98 169.895 167.98 171.741C167.98 173.588 168.04 177.704 168.04 177.704C168.04 177.704 168.963 182.746 169.517 184.408C170.071 186.069 170.501 193.638 170.501 193.638C170.501 193.638 171.793 195.73 171.239 196.523C170.685 197.316 173.391 199.044 173.391 199.044C173.391 199.044 171.66 201.444 171.548 203.042C171.435 204.64 185.319 206.911 185.319 206.911L179.91 151.448L175.604 137.553L167.426 138.352Z" fill="black"/>
<path opacity="0.1" d="M192.992 211.861C188.973 221.44 179.417 214.047 179.417 214.047C179.417 214.047 179.417 213.863 179.394 213.545C179.947 213.035 180.276 212.68 180.276 212.68L192.516 210.219C192.516 210.219 192.715 210.917 192.992 211.861Z" fill="black"/>
<path d="M193.131 211.033C189.193 221.129 179.417 213.554 179.417 213.554C179.417 213.554 179.109 208.327 179.726 205.93C180.343 203.533 179.048 196.336 179.048 196.336C179.048 196.336 178.31 189.94 177.635 188.466C176.96 186.992 177.02 184.038 177.02 183.793C177.02 183.548 177.265 181.578 176.712 180.225C176.158 178.872 175.846 175.552 175.846 175.552C175.846 175.552 175.846 170.879 175.292 168.113L173.386 158.593L169.941 139.099L171.017 138.914L190.295 135.534C190.295 135.534 193.924 153.995 192.692 155.888C192.427 156.303 192.193 157.212 192 158.383C191.296 162.571 191.034 170.091 191.034 170.091C191.034 170.091 193.431 173.841 192.511 176.487C191.59 179.132 193.376 183.496 193.376 183.496C193.376 183.496 193.93 200.714 192.883 202.437C191.836 204.159 193.131 211.033 193.131 211.033Z" fill="#575988"/>
<path d="M191.284 85.1625C191.284 85.1625 173.821 97.4596 177.756 91.3096C179.876 87.9981 179.486 83.7807 178.656 80.5961C178.236 78.9764 177.656 77.4023 176.925 75.8971C176.925 75.8971 191.763 69.5855 189.796 75.2423C189.335 76.5601 189.139 77.9561 189.219 79.35C189.337 81.4452 190.054 83.4626 191.284 85.1625Z" fill="#D28690"/>
<path d="M159.842 113.325C159.842 113.325 152.463 111.193 151.234 113.285C150.005 115.376 151.604 119.965 153.83 120.704C156.057 121.442 161.169 118.203 161.169 118.203L159.842 113.325Z" fill="#D28690"/>
<path d="M168.288 109.699L165.213 112.529C165.213 112.529 159.862 113.019 158.324 112.65C158.324 112.65 159.741 122.12 157.71 123.288L170.131 120.767L168.288 109.699Z" fill="#585B8A"/>
<path opacity="0.1" d="M168.288 109.699L165.213 112.529C165.213 112.529 159.862 113.019 158.324 112.65C158.324 112.65 159.741 122.12 157.71 123.288L170.131 120.767L168.288 109.699Z" fill="black"/>
<path opacity="0.1" d="M128.81 69.0519C128.81 71.5 127.837 73.8479 126.106 75.579C124.375 77.3101 122.027 78.2827 119.579 78.2827C114.842 76.0067 110.348 74.1548 110.348 69.0519C110.299 67.81 110.501 66.5709 110.943 65.409C111.384 64.2471 112.055 63.1863 112.917 62.2902C113.778 61.3942 114.811 60.6813 115.955 60.1943C117.099 59.7073 118.329 59.4563 119.572 59.4563C120.814 59.4563 122.045 59.7073 123.188 60.1943C124.332 60.6813 125.365 61.3942 126.226 62.2902C127.088 63.1863 127.759 64.2471 128.201 65.409C128.642 66.5709 128.844 67.81 128.795 69.0519H128.81Z" fill="black"/>
<path d="M128.81 68.8038C128.811 70.9747 128.046 73.0763 126.649 74.7381C125.252 76.3999 123.313 77.515 121.175 77.8869C119.036 78.2588 116.834 77.8635 114.959 76.7708C113.083 75.6781 111.653 73.9581 110.922 71.9142C110.19 69.8703 110.204 67.6337 110.96 65.5989C111.717 63.5641 113.168 61.8618 115.057 60.7922C116.946 59.7226 119.152 59.3544 121.286 59.7525C123.42 60.1506 125.345 61.2895 126.721 62.9682C128.069 64.6146 128.807 66.6761 128.81 68.8038Z" fill="#FFD6D6"/>
<path opacity="0.1" d="M134.19 125.247C133.276 125.814 132.321 126.31 131.331 126.73C131.331 126.73 126.658 126.052 125.983 126.851C125.308 127.65 119.348 127.959 119.348 127.959C119.348 127.959 110.247 127.529 108.894 126.361C108.476 126.022 108.011 125.746 107.513 125.541L107.663 123.205C107.663 123.205 131.112 121.728 132.998 123.531C133.489 124.032 133.892 124.612 134.19 125.247Z" fill="black"/>
<path d="M135.328 123.594C135.144 124.638 131.33 126.237 131.33 126.237C131.33 126.237 126.657 125.562 125.982 126.361C125.307 127.16 119.348 127.468 119.348 127.468C119.348 127.468 110.247 127.036 108.894 125.867C107.541 124.699 104.526 124.137 104.526 124.137C104.526 124.137 102.989 113.192 103.606 110.795C104.224 108.398 102.683 101.815 102.314 99.4788C101.945 97.1423 103.358 90.6865 105.08 89.6423C106.802 88.5981 109.263 85.0904 110.737 84.0462C111.98 83.1663 113.353 82.0269 113.754 81.6837L113.873 81.5856C113.873 81.5856 114.121 79.6788 115.104 78.701C116.088 77.7231 125.126 84.9115 125.126 84.9115C125.126 84.9115 125.189 85.4654 125.803 84.4211C125.942 84.1875 127.133 85.9067 127.341 86.6337C127.341 86.6337 132.259 95.2442 132.568 97.0183C132.876 98.7923 134.166 104.582 134.411 105.995C134.475 106.359 134.578 107.634 134.7 109.341C134.723 109.676 134.743 110.031 134.769 110.4C134.951 113.233 135.147 116.85 135.265 119.585C135.265 119.896 135.291 120.196 135.3 120.485C135.362 121.52 135.371 122.558 135.328 123.594Z" fill="#DCE6F2"/>
<path opacity="0.1" d="M104.104 101.394C104.104 101.394 107.484 105.513 108.592 105.513C109.7 105.513 104.104 101.394 104.104 101.394Z" fill="black"/>
<path opacity="0.1" d="M111.225 110.25C111.225 110.25 105.69 116.276 106.428 117.384C107.167 118.491 111.225 110.25 111.225 110.25Z" fill="black"/>
<path opacity="0.1" d="M107.167 122.241C107.167 122.241 113.513 115.292 113.802 112.895L107.167 122.241Z" fill="black"/>
<path opacity="0.1" d="M115.16 122.732C115.16 122.732 122.478 118.858 123.093 115.783C123.707 112.708 115.16 122.732 115.16 122.732Z" fill="black"/>
<path opacity="0.1" d="M124.445 85.3471L123.43 87.8048L125.12 88.6039L126.782 93.2481C126.782 93.2481 131.362 102.41 131.178 107.175C130.993 111.94 132.009 119.103 132.009 119.103L134.651 118.612L133.405 104.596C133.211 102.426 132.667 100.302 131.795 98.3048C129.684 93.4702 125.755 84.5452 125.507 84.5452C125.169 84.5452 125.406 84.6693 125.406 84.6693L124.445 85.3471Z" fill="black"/>
<path d="M124.69 85.0991L123.675 87.5596L125.368 88.3587L127.027 93.0029C127.027 93.0029 131.607 102.164 131.423 106.93C131.238 111.695 132.254 118.858 132.254 118.858L134.899 118.367L133.65 104.351C133.458 102.181 132.915 100.056 132.043 98.0596C129.932 93.2221 126.003 84.3 125.757 84.3C125.417 84.3 125.654 84.4241 125.654 84.4241L124.69 85.0991Z" fill="#575989"/>
<path d="M154.635 121.238C153.348 121.139 150.262 119.579 149.036 118.93L148.517 118.641L148.58 113.879C148.883 113.701 149.197 113.542 149.52 113.403C151.159 112.688 154.52 111.715 156.204 114.845C158.477 119.042 156.265 121.347 154.635 121.238Z" fill="#FFD6D6"/>
<path opacity="0.1" d="M126.721 62.9683C126.589 63.0511 126.444 63.1106 126.292 63.1443C125.221 63.3779 124.004 62.4577 123.087 63.0491C122.527 63.4125 122.397 64.1654 122.322 64.8289C122.192 65.9827 122.061 67.1289 121.93 68.2674C121.903 68.6727 121.817 69.0719 121.676 69.4529C121.223 70.4885 119.98 70.976 118.846 70.9587C118.402 70.9903 117.964 70.8451 117.626 70.5548C117.427 70.3529 117.32 70.0702 117.101 69.8856C115.659 68.677 115.22 71.6395 115.601 72.4818C116.213 73.8577 118.385 75.1847 117.473 76.9327C117.32 77.2168 117.088 77.4503 116.804 77.6048C115.43 77.1747 114.176 76.4292 113.142 75.428C112.108 74.4267 111.322 73.1975 110.848 71.8385C110.373 70.4795 110.223 69.0284 110.41 67.6011C110.596 66.1737 111.114 64.8098 111.921 63.6181C112.728 62.4264 113.803 61.4401 115.06 60.738C116.317 60.0358 117.72 59.6372 119.158 59.5741C120.596 59.5109 122.029 59.785 123.342 60.3743C124.655 60.9637 125.813 61.852 126.721 62.9683Z" fill="black"/>
<path d="M116.855 69.8741C117.072 70.0558 117.181 70.3385 117.38 70.5404C117.718 70.8304 118.156 70.9755 118.6 70.9443C119.734 70.9616 120.977 70.4769 121.427 69.4356C121.571 69.0562 121.657 68.6577 121.684 68.2529L122.076 64.8144C122.151 64.151 122.278 63.3981 122.841 63.0346C123.758 62.4577 124.975 63.3635 126.046 63.1298C126.431 63.0318 126.765 62.7905 126.98 62.4551C127.194 62.1197 127.273 61.7153 127.199 61.3241C127.075 60.7731 126.654 60.3375 126.438 59.8125C126.307 59.4091 126.202 58.9977 126.123 58.5808C125.526 56.3423 122.898 55.0846 120.614 55.4596C119.345 55.6702 118.165 56.276 116.893 56.4606C115.981 56.5933 115.049 56.5067 114.129 56.6048C113.274 56.693 112.443 56.9385 111.677 57.3289C111.476 57.4178 111.299 57.5521 111.158 57.7212C111.027 57.9495 110.939 58.1998 110.899 58.4596C110.59 59.6135 109.598 60.4644 108.879 61.4366C108.058 62.5551 107.582 63.89 107.512 65.276C107.484 65.63 107.517 65.9862 107.61 66.3289C107.671 66.5308 107.766 66.7269 107.812 66.9346C107.953 67.5664 107.63 68.1981 107.472 68.8269C107.274 69.6294 107.345 70.4743 107.674 71.2327C108.781 73.7798 112.43 74.6308 113.189 77.3048C113.863 77.6278 114.59 77.8234 115.335 77.8818C116.079 77.8962 116.881 77.576 117.227 76.9154C118.136 75.1846 115.967 73.8404 115.355 72.4673C114.972 71.6221 115.401 68.6625 116.855 69.8741Z" fill="#353045"/>
<path opacity="0.1" d="M189.811 75.2423C189.35 76.5601 189.154 77.9561 189.234 79.35C188.789 79.7279 188.305 78.5971 187.791 78.8884C186.384 79.7019 184.757 81.6375 183.014 81.6375C181.503 81.6385 180.014 81.2816 178.667 80.5961C178.247 78.9764 177.668 77.4023 176.937 75.8971C176.937 75.8971 191.778 69.5855 189.811 75.2423Z" fill="black"/>
<path d="M192.597 71.5528C192.597 73.4504 192.034 75.3053 190.98 76.8831C189.926 78.4609 188.427 79.6906 186.674 80.4168C184.921 81.1429 182.992 81.3329 181.131 80.9627C179.27 80.5925 177.56 79.6788 176.218 78.337C174.877 76.9952 173.963 75.2857 173.593 73.4246C173.222 71.5635 173.412 69.6344 174.139 67.8813C174.865 66.1282 176.094 64.6298 177.672 63.5755C179.25 62.5213 181.105 61.9586 183.002 61.9586C184.262 61.9582 185.51 62.2061 186.674 62.6881C187.839 63.1702 188.896 63.8769 189.787 64.7678C190.678 65.6588 191.385 66.7166 191.867 67.8808C192.349 69.045 192.597 70.2928 192.597 71.5528Z" fill="#D28690"/>
<path d="M192.187 87.2943C192.187 87.2943 190.382 89.2616 190.136 89.4231C189.891 89.5846 184.656 111.635 184.563 111.891C184.471 112.148 178.33 132.058 178.33 132.058L168.49 136.895L169.312 112.543L176.524 92.4606C176.524 92.4606 178.904 89.7548 179.639 88.7712C180.375 87.7875 189.559 81.8827 189.559 81.8827L191.129 85.1164L192.187 87.2943Z" fill="#F0F3F7"/>
<path opacity="0.1" d="M190.887 85.6096L179.573 93.7096L179.392 89.2615C180.13 88.2778 189.312 82.3759 189.312 82.3759L190.887 85.6096Z" fill="black"/>
<path d="M191.132 85.1164L179.819 93.2164L179.643 88.7712C180.381 87.7846 189.563 81.8827 189.563 81.8827L191.132 85.1164Z" fill="#F0F3F7"/>
<path d="M179.265 86.7923L179.643 88.7711L177.113 91.3413L179.132 86.8211C179.132 86.8211 174.805 89.8356 173.507 90.6346C172.209 91.4336 170.911 94.1394 170.862 94.8779C170.813 95.6163 168.77 106.745 168.77 106.745C168.77 106.745 167.233 110.864 167.666 112.033C168.098 113.201 165.329 150.035 165.329 150.035C165.699 149.319 166.223 148.694 166.862 148.204C167.501 147.714 168.24 147.371 169.027 147.199L168.041 125.432C168.041 125.432 169.241 110.951 169.301 110.766C169.362 110.582 172.099 102.187 172.099 102.187L179.265 86.7923Z" fill="#585B8A"/>
<path opacity="0.1" d="M179.891 89.0164L179.694 93.0548C179.694 93.0548 176.957 101.694 176.037 103.108C175.117 104.521 172.316 112.947 172.316 112.947L170.738 127.584L168.032 128.815L166.699 126.361L168.915 112.226C168.915 112.226 173.094 100.298 173.712 99.0664L176.795 92.5702L179.891 89.0164Z" fill="black"/>
<path d="M179.642 88.7712L179.449 92.8096C179.449 92.8096 176.712 101.449 175.789 102.863C174.865 104.276 172.07 112.702 172.07 112.702L170.501 127.336L167.795 128.564L166.442 126.107L168.658 111.972C168.658 111.972 172.838 100.041 173.452 98.8125L176.559 92.325L179.642 88.7712Z" fill="#663D5C"/>
<path d="M147.75 119.596L153.038 123.257C153.038 123.257 156.767 121.165 154.595 119.813C152.423 118.46 150.496 118.255 149.798 118.255C149.1 118.255 147.75 119.596 147.75 119.596Z" fill="#D28690"/>
<path d="M151.699 112.829C151.581 112.902 151.484 113.005 151.417 113.126C151.35 113.248 151.315 113.385 151.315 113.524C151.315 114.646 151.442 117.617 152.383 116.276C153.537 114.635 153.326 113.161 155.089 114.225C156.184 114.907 157.143 115.788 157.915 116.821L157.425 113.296C157.425 113.296 153.802 111.508 151.699 112.829Z" fill="#D28690"/>
<path opacity="0.1" d="M192.698 155.876C192.433 156.291 192.199 157.2 192.006 158.371C181.223 161.605 173.334 154.768 173.334 154.768C172.38 151.534 171.6 148.25 170.998 144.932C170.804 143.795 170.848 141.591 171.026 138.903L190.304 135.522C190.304 135.522 193.93 153.969 192.698 155.876Z" fill="black"/>
<path d="M203.766 100.84C203.276 102.441 203.461 105.698 203.461 105.698L199.033 126.606C199.033 126.606 196.881 142.716 196.512 144.868C196.142 147.02 195.528 156.49 195.528 156.49C182.983 162.64 173.316 154.278 173.316 154.278C172.362 151.042 171.582 147.758 170.98 144.438C170.363 140.787 172.18 126.156 173.04 119.657C173.296 117.733 173.469 116.521 173.469 116.521L176.697 104.53C176.697 104.53 180.664 94.4135 182.14 91.4625C183.617 88.5116 189.548 81.8827 189.548 81.8827C190.284 81.4154 191.461 83.0654 192.335 84.5683C192.995 85.7048 193.489 86.7606 193.489 86.7606C193.489 86.7606 200.867 89.9567 201.972 91.6644C203.077 93.3721 202.895 96.8914 203.019 97.076C203.143 97.2606 204.26 99.2423 203.766 100.84Z" fill="#585B8A"/>
<path opacity="0.1" d="M186.366 93.401C186.366 93.401 186.92 96.6606 185.501 97.6443C184.131 98.5962 173.931 118.653 173.296 119.905C173.553 117.978 173.726 116.766 173.726 116.766L176.954 104.778C176.954 104.778 180.923 94.6616 182.397 91.7077C183.871 88.7539 189.807 82.1279 189.807 82.1279C190.543 81.6606 191.717 83.3106 192.591 84.8135C191.273 87.551 188.524 92.726 186.366 93.401Z" fill="black"/>
<path d="M186.122 93.1558C186.122 93.1558 186.673 96.4154 185.256 97.399C183.84 98.3827 173.689 118.405 173.046 119.657C173.303 117.733 173.476 116.521 173.476 116.521L176.704 104.53C176.704 104.53 180.67 94.4135 182.147 91.4625C183.624 88.5115 189.555 81.8827 189.555 81.8827C190.29 81.4154 191.467 83.0654 192.341 84.5683C191.029 87.3029 188.277 92.4808 186.122 93.1558Z" fill="#585B8A"/>
<path d="M200.755 122.611L197.285 140.665V140.668L196.953 142.396V142.399L196.206 146.285L193.018 145.61L191.533 145.295L170.974 140.939L169.463 140.619L166.013 139.889L166.688 135.407L166.968 133.543L169.457 117.014L200.755 122.611Z" fill="#6C63FF"/>
<path d="M181.569 137.368C181.569 137.368 173.391 140.319 175.174 143.824C176.957 147.329 188.394 141.118 188.394 141.118L181.569 137.368Z" fill="#D28690"/>
<path opacity="0.1" d="M187.41 162.516C187.41 162.762 187.719 165.9 188.948 167.005C190.177 168.11 187.41 162.516 187.41 162.516Z" fill="black"/>
<path opacity="0.1" d="M179.172 173.645C179.172 173.645 180.646 177.704 186.487 179.365C192.329 181.027 179.172 173.645 179.172 173.645Z" fill="black"/>
<path opacity="0.1" d="M192.598 71.5529C192.598 73.2395 192.154 74.8964 191.309 76.3565C190.465 77.8166 189.251 79.0282 187.789 79.8693C187.238 79.5609 186.749 79.1531 186.347 78.6664C185.928 78.1587 185.602 77.4664 185.853 76.8606C186.055 76.3731 186.589 76.0644 186.719 75.5596C186.78 75.2509 186.764 74.9319 186.673 74.6308C186.566 74.1548 186.465 73.6789 186.361 73.2058C186.272 72.8019 186.113 72.326 185.712 72.2279C185.311 72.1298 184.976 72.4644 184.662 72.7125C183.892 73.3212 182.415 73.7337 181.489 73.2346C180.563 72.7356 180.823 71.0654 180.673 70.1625C180.671 70.0841 180.652 70.007 180.617 69.9367C180.582 69.8665 180.532 69.8047 180.471 69.7558C180.336 69.7111 180.192 69.7012 180.052 69.7269C179.553 69.7269 179.152 69.2798 179.008 68.801C178.906 68.3121 178.85 67.8148 178.841 67.3154C178.786 66.8164 178.604 66.2885 178.177 66.0318C177.836 65.873 177.458 65.8111 177.084 65.8529L175.275 65.8731C176.475 64.251 178.156 63.0484 180.079 62.4363C182.001 61.8243 184.068 61.8339 185.985 62.4639C187.901 63.0939 189.571 64.3122 190.755 65.9454C191.94 67.5787 192.58 69.5439 192.583 71.5616L192.598 71.5529Z" fill="black"/>
<path d="M184.918 72.7125C185.233 72.4644 185.579 72.1355 185.968 72.2307C186.358 72.3259 186.525 72.8077 186.615 73.2057L186.926 74.6279C187.018 74.9298 187.035 75.2497 186.975 75.5596C186.828 76.0673 186.297 76.373 186.092 76.8605C185.841 77.4663 186.17 78.1586 186.586 78.6634C187.343 79.5765 188.391 80.2026 189.554 80.4375C189.858 80.5104 190.173 80.5173 190.48 80.4577C191.166 80.299 191.634 79.6673 192.003 79.0759C193.91 76.1048 195.551 72.848 195.886 69.3346C195.978 68.618 195.944 67.8908 195.788 67.1855C195.631 66.6374 195.411 66.1096 195.13 65.6134C194.639 64.5997 194.015 63.6558 193.275 62.8067C191.963 61.3932 190.151 60.525 188.291 60.0115C186.198 59.4308 184.013 59.2594 181.855 59.5067C181.278 59.5731 180.724 59.6682 180.156 59.7057C179.442 59.7389 178.728 59.7274 178.016 59.6711L173.769 59.4173C173.527 59.9106 173.769 60.4961 174.058 60.9577C174.346 61.4192 174.704 61.8981 174.681 62.4461C174.658 62.9942 174.268 63.4269 173.968 63.8884C173.668 64.35 173.441 64.9471 173.741 65.3971C174.041 65.8471 174.652 65.8759 175.183 65.8702L177.323 65.8471C177.696 65.8088 178.072 65.8736 178.411 66.0346C178.838 66.2913 179.019 66.8221 179.074 67.3182C179.086 67.8174 179.142 68.3145 179.241 68.8038C179.389 69.2827 179.787 69.7355 180.286 69.7298C180.425 69.7019 180.57 69.7129 180.704 69.7615C180.765 69.8098 180.815 69.8711 180.85 69.9409C180.885 70.0107 180.904 70.0873 180.906 70.1654C181.056 71.0682 180.779 72.7355 181.722 73.2375C182.666 73.7394 184.148 73.3211 184.918 72.7125Z" fill="#663D5C"/>
<path opacity="0.1" d="M197.112 91.6615C196.051 91.5489 194.984 91.8002 194.085 92.3741C193.186 92.9481 192.509 93.8107 192.164 94.8202C191.011 98.1058 189.087 104.034 189.568 106.376C190.246 109.696 191.045 115.232 191.045 115.232C191.045 115.232 194.55 117.251 192.776 119.288C191.002 121.324 190.5 124.209 190.5 124.209C190.5 124.209 188.224 125.192 187.734 127.284C187.243 129.375 183.92 132.263 183.92 132.263L178.941 137.244C178.941 137.244 187.18 145.61 188.841 146.037L193.944 140.071L199.97 132.078L205.197 126.597C205.197 126.597 206.426 123.713 205.812 118.232C205.197 112.751 202.797 107.533 202.797 107.533L202.982 105.687C202.982 105.687 203.547 92.4606 197.112 91.6615Z" fill="black"/>
<path d="M197.602 91.6615C196.542 91.5502 195.476 91.8022 194.578 92.376C193.681 92.9499 193.004 93.8117 192.661 94.8201C191.507 98.1057 189.583 104.034 190.064 106.376C190.739 109.696 191.538 115.232 191.538 115.232C191.538 115.232 195.043 117.251 193.269 119.287C191.495 121.324 190.996 124.209 190.996 124.209C190.996 124.209 188.72 125.192 188.227 127.284C187.734 129.375 184.416 132.262 184.416 132.262L179.435 137.244C179.435 137.244 187.673 145.61 189.335 146.036L194.437 140.071L200.449 132.078L205.676 126.597C205.676 126.597 206.908 123.712 206.29 118.232C205.673 112.751 203.279 107.533 203.279 107.533L203.463 105.686C203.463 105.686 204.037 92.4605 197.602 91.6615Z" fill="#585B8A"/>
<path opacity="0.1" d="M192.453 110.374C192.453 110.374 197.68 116.766 199.895 115.353C202.111 113.939 192.453 110.374 192.453 110.374Z" fill="black"/>
<path opacity="0.1" d="M194.42 105.453C194.974 105.637 199.526 111.972 201.862 111.222C204.199 110.472 194.42 105.453 194.42 105.453Z" fill="black"/>
<path opacity="0.1" d="M195.713 116.334C195.713 116.334 196.022 119.962 199.772 119.469C203.521 118.976 195.713 116.334 195.713 116.334Z" fill="black"/>
<path opacity="0.1" d="M179.14 87.0664L177.112 91.5866L179.645 89.0164L179.14 87.0664Z" fill="black"/>
<path d="M179.14 86.8212L177.112 91.3414L179.645 88.7712L179.14 86.8212Z" fill="#F0F3F7"/>
<path opacity="0.3" d="M170.974 140.939L169.462 140.619L166.688 135.407L166.967 133.543L170.974 140.939Z" fill="black"/>
<path opacity="0.3" d="M197.284 140.668L196.952 142.396V142.399L193.018 145.61L191.532 145.295L197.284 140.668Z" fill="black"/>
<path opacity="0.1" d="M135.291 120.496C134.53 120.623 133.791 120.738 133.116 120.825C129.366 121.318 120.447 116.89 120.447 116.89C120.447 116.89 109.563 107.789 106.428 99.1817C103.292 90.574 110.178 89.2817 110.178 89.2817C112.774 87.8048 118.419 91.924 119.218 92.6019C120.017 93.2798 120.695 94.999 120.632 96.1067C120.568 97.2144 122.478 98.6278 122.478 98.6278C122.478 98.6278 125.737 104.285 126.536 104.899C127.335 105.513 127.52 106.067 127.765 107.114C128.01 108.162 130.162 109.021 131.085 108.958C132.009 108.894 133.105 109.266 133.105 109.757C133.105 110.152 134.008 110.348 134.749 110.412C134.968 113.564 135.184 117.695 135.291 120.496Z" fill="black"/>
<path opacity="0.1" d="M135.256 119.596C134.68 119.688 134.126 119.772 133.607 119.841C129.857 120.335 120.94 115.907 120.94 115.907C120.94 115.907 110.056 106.806 106.921 98.1981C103.785 89.5904 110.671 88.2981 110.671 88.2981C113.267 86.8212 118.909 90.9404 119.708 91.6183C120.507 92.2962 121.185 94.0154 121.125 95.1231C121.064 96.2308 122.968 97.6442 122.968 97.6442C122.968 97.6442 126.228 103.301 127.027 103.915C127.826 104.53 128.01 105.084 128.258 106.131C128.506 107.178 130.656 108.035 131.579 107.974C132.502 107.913 133.598 108.283 133.598 108.773C133.598 109.062 134.111 109.255 134.682 109.35C134.706 109.685 134.726 110.039 134.752 110.409C134.942 113.244 135.138 116.862 135.256 119.596Z" fill="black"/>
<path opacity="0.1" d="M149.52 113.403L149.287 118.93H149.036L148.517 118.641L148.58 113.879C148.883 113.701 149.197 113.542 149.52 113.403Z" fill="black"/>
<path d="M110.178 88.7885C110.178 88.7885 103.292 90.0808 106.428 98.6885C109.563 107.296 120.447 116.4 120.447 116.4C120.447 116.4 129.363 120.825 133.116 120.335C136.869 119.844 142.584 118.552 143.322 118.737C144.06 118.921 149.042 118.921 149.042 118.921L149.287 113.152L143.518 112.843L140.567 112.229C140.567 112.229 139.52 111.363 138.906 111.49C138.291 111.617 137.002 110.752 137.002 110.752C137.002 110.752 136.015 109.953 135.271 109.953C134.527 109.953 133.119 109.768 133.119 109.278C133.119 108.788 132.011 108.413 131.1 108.479C130.188 108.545 128.01 107.68 127.757 106.621C127.503 105.563 127.327 105.023 126.528 104.409C125.729 103.794 122.469 98.1346 122.469 98.1346C122.469 98.1346 120.562 96.7212 120.623 95.6164C120.684 94.5116 120.009 92.7866 119.209 92.1087C118.41 91.4308 112.757 87.3144 110.178 88.7885Z" fill="#DCE6F2"/>
<path opacity="0.1" d="M127.89 108.589C127.89 108.589 125.245 111.234 125.92 111.724L127.89 108.589Z" fill="black"/>
<path opacity="0.1" d="M130.716 110.68C130.716 110.68 127.272 113.325 128.195 113.51C129.118 113.694 130.716 110.68 130.716 110.68Z" fill="black"/>
<path opacity="0.1" d="M124.872 114.603C125.365 114.851 132.681 119.218 135.45 119.155L124.872 114.603Z" fill="black"/>
<path opacity="0.1" d="M125.368 85.4077C125.368 85.4077 124.076 89.651 123.583 89.651C123.196 89.651 116.706 84.3952 113.997 82.1856L114.115 82.0875C114.115 82.0875 114.361 80.1808 115.344 79.2029C116.328 78.225 125.368 85.4077 125.368 85.4077Z" fill="black"/>
<path d="M125.12 84.9144C125.12 84.9144 123.831 89.1577 123.337 89.1577C122.948 89.1577 116.458 83.9019 113.749 81.6923L113.867 81.5942C113.867 81.5942 114.115 79.6875 115.099 78.7096C116.083 77.7317 125.12 84.9144 125.12 84.9144Z" fill="#DCE6F2"/>
<g opacity="0.15">
<path opacity="0.15" d="M107.706 71.201C108.571 73.177 110.954 74.1347 112.336 75.7096C111.514 73.7741 109.111 72.825 107.706 71.201Z" fill="black"/>
<path opacity="0.15" d="M116.525 75.7529C116.181 76.4135 115.371 76.7337 114.632 76.7193C113.976 76.6722 113.333 76.5081 112.734 76.2347C112.952 76.5549 113.117 76.9073 113.225 77.2789C113.898 77.6025 114.626 77.7982 115.371 77.8558C116.118 77.8731 116.92 77.553 117.263 76.8895C117.814 75.8366 117.24 74.9366 116.568 74.0856C116.693 74.3471 116.755 74.6346 116.747 74.9245C116.74 75.2144 116.663 75.4983 116.525 75.7529Z" fill="black"/>
<path opacity="0.15" d="M127.229 61.2952C127.105 60.7413 126.684 60.3058 126.467 59.7837C126.335 59.3797 126.23 58.9672 126.153 58.549C125.989 57.9578 125.685 57.4146 125.267 56.9654C125.325 57.1074 125.375 57.2529 125.415 57.401C125.495 57.821 125.603 58.2353 125.738 58.6414C125.954 59.1635 126.375 59.599 126.499 60.1529C126.572 60.5441 126.494 60.9486 126.279 61.284C126.065 61.6194 125.731 61.8606 125.345 61.9587C124.278 62.1923 123.061 61.2692 122.143 61.8635C121.581 62.224 121.451 62.9769 121.376 63.6404C121.247 64.7942 121.116 65.9413 120.984 67.0817C120.958 67.4863 120.872 67.8848 120.73 68.2644C120.277 69.3029 119.034 69.7904 117.9 69.7731C117.457 69.8027 117.02 69.6577 116.683 69.3692C116.519 69.137 116.343 68.9136 116.155 68.7C114.713 67.4885 114.274 70.451 114.655 71.2961C114.846 71.6764 115.082 72.0319 115.359 72.3548C115.041 71.4029 115.486 68.6625 116.893 69.8365C117.081 70.0494 117.256 70.2729 117.418 70.5058C117.757 70.7939 118.195 70.9387 118.639 70.9096C119.772 70.9269 121.016 70.4394 121.468 69.401C121.611 69.0204 121.696 68.6209 121.722 68.2154C121.853 67.0615 121.984 65.9154 122.115 64.7769C122.19 64.1135 122.319 63.3606 122.879 63C123.799 62.4058 125.016 63.3288 126.084 63.0923C126.467 62.9931 126.797 62.7525 127.01 62.4191C127.222 62.0856 127.301 61.684 127.229 61.2952Z" fill="black"/>
</g>
<path opacity="0.1" d="M191.095 79.7221C190.788 79.7793 190.472 79.7714 190.169 79.699C189.007 79.4643 187.961 78.8394 187.203 77.9279C186.785 77.4202 186.456 76.7279 186.71 76.1221C186.912 75.6346 187.443 75.3288 187.575 74.8211C187.635 74.5112 187.619 74.1913 187.526 73.8894L187.215 72.4673C187.125 72.0634 186.97 71.5875 186.569 71.4923C186.168 71.3971 185.833 71.7259 185.519 71.974C184.749 72.5827 183.269 72.9981 182.346 72.4961C181.423 71.9942 181.679 70.3269 181.529 69.424C181.527 69.3461 181.508 69.2697 181.473 69.2C181.438 69.1302 181.388 69.0689 181.327 69.0202C181.192 68.9731 181.047 68.9622 180.906 68.9884C180.407 68.9884 180.009 68.5413 179.862 68.0625C179.762 67.5733 179.707 67.0761 179.698 66.5769C179.64 66.0808 179.461 65.55 179.031 65.2933C178.692 65.1337 178.317 65.0689 177.944 65.1058L175.803 65.1288C175.275 65.1288 174.65 65.0942 174.361 64.6558C174.073 64.2173 174.286 63.5942 174.589 63.1471C174.892 62.7 175.275 62.2558 175.301 61.7048C175.327 61.1538 174.97 60.6779 174.678 60.2163C174.511 59.9639 174.388 59.685 174.315 59.3913L173.701 59.3538C173.461 59.8442 173.701 60.4298 173.989 60.8942C174.277 61.3586 174.638 61.8346 174.612 62.3798C174.586 62.925 174.202 63.3634 173.9 63.8221C173.597 64.2808 173.375 64.8808 173.675 65.3308C173.975 65.7808 174.583 65.8125 175.117 65.8067L177.257 65.7808C177.63 65.7447 178.006 65.8105 178.345 65.9711C178.775 66.2279 178.956 66.7586 179.011 67.2548C179.02 67.7541 179.076 68.2515 179.178 68.7404C179.323 69.2163 179.724 69.6721 180.223 69.6634C180.362 69.6387 180.506 69.6496 180.641 69.6952C180.702 69.7443 180.752 69.8062 180.786 69.8764C180.821 69.9466 180.841 70.0235 180.843 70.1019C180.993 71.0019 180.716 72.6721 181.659 73.174C182.602 73.6759 184.074 73.2606 184.832 72.6519C185.147 72.4038 185.496 72.075 185.885 72.1673C186.275 72.2596 186.442 72.7442 186.528 73.1423L186.843 74.5673C186.934 74.8694 186.95 75.1893 186.889 75.499C186.745 76.0038 186.211 76.3125 186.009 76.7971C185.758 77.4029 186.084 78.0981 186.502 78.6029C187.265 79.5183 188.319 80.1436 189.488 80.374C189.792 80.4464 190.107 80.4543 190.414 80.3971C190.91 80.246 191.335 79.9227 191.614 79.4856C191.456 79.5948 191.281 79.6749 191.095 79.7221Z" fill="black"/>
<path opacity="0.1" d="M39.4447 206.781C39.6741 206.781 39.8601 206.595 39.8601 206.365C39.8601 206.136 39.6741 205.95 39.4447 205.95C39.2153 205.95 39.0293 206.136 39.0293 206.365C39.0293 206.595 39.2153 206.781 39.4447 206.781Z" fill="black"/>
<path opacity="0.1" d="M28.849 207.231C29.0784 207.231 29.2644 207.045 29.2644 206.815C29.2644 206.586 29.0784 206.4 28.849 206.4C28.6196 206.4 28.4336 206.586 28.4336 206.815C28.4336 207.045 28.6196 207.231 28.849 207.231Z" fill="black"/>
<path opacity="0.1" d="M14.4226 18.0173C16.089 18.0173 17.4399 16.6664 17.4399 15C17.4399 13.3336 16.089 11.9827 14.4226 11.9827C12.7562 11.9827 11.4053 13.3336 11.4053 15C11.4053 16.6664 12.7562 18.0173 14.4226 18.0173Z" fill="#6C63FF"/>
<path opacity="0.1" d="M304.203 113.968C306.433 113.968 308.241 112.16 308.241 109.93C308.241 107.699 306.433 105.891 304.203 105.891C301.972 105.891 300.164 107.699 300.164 109.93C300.164 112.16 301.972 113.968 304.203 113.968Z" fill="#6C63FF"/>
<path opacity="0.1" d="M311.988 104.224C313.616 104.224 314.936 102.904 314.936 101.276C314.936 99.6478 313.616 98.3279 311.988 98.3279C310.36 98.3279 309.04 99.6478 309.04 101.276C309.04 102.904 310.36 104.224 311.988 104.224Z" fill="#6C63FF"/>
<path opacity="0.1" d="M19.6156 8.07692C21.846 8.07692 23.6541 6.26884 23.6541 4.03846C23.6541 1.80808 21.846 0 19.6156 0C17.3852 0 15.5771 1.80808 15.5771 4.03846C15.5771 6.26884 17.3852 8.07692 19.6156 8.07692Z" fill="#6C63FF"/>
<path opacity="0.1" d="M4.03846 26.5385C6.26884 26.5385 8.07692 24.7304 8.07692 22.5C8.07692 20.2696 6.26884 18.4615 4.03846 18.4615C1.80808 18.4615 0 20.2696 0 22.5C0 24.7304 1.80808 26.5385 4.03846 26.5385Z" fill="#6C63FF"/>
</g>
<defs>
<linearGradient id="paint0_linear" x1="152.057" y1="223.803" x2="152.057" y2="54.9086" gradientUnits="userSpaceOnUse">
<stop stop-color="#808080" stop-opacity="0.25"/>
<stop offset="0.54" stop-color="#808080" stop-opacity="0.12"/>
<stop offset="1" stop-color="#808080" stop-opacity="0.1"/>
</linearGradient>
<clipPath id="clip0">
<rect width="315" height="228.462" fill="white"/>
</clipPath>
</defs>
</svg>
