<svg width="282" height="667" viewBox="0 0 282 667" fill="none" xmlns="http://www.w3.org/2000/svg">
<path d="M190.706 667C129.955 667 82.9836 649.777 49.7901 615.331C16.5967 580.259 0 532.974 0 473.476V456.566H117.43V476.294C117.43 506.983 123.379 530.782 135.279 547.692C147.805 563.975 165.654 572.117 188.827 572.117C210.747 572.117 227.97 564.288 240.496 548.631C253.022 532.347 259.285 508.548 259.285 477.234C259.285 409.594 233.607 375.775 182.251 375.775H151.249V280.892H184.13C202.918 280.892 218.262 272.437 230.162 255.527C242.062 237.991 248.011 213.252 248.011 181.311C248.011 123.692 228.283 94.8831 188.827 94.8831C169.412 94.8831 154.381 102.399 143.734 117.43C133.713 132.461 128.703 155.007 128.703 185.069V202.918H11.2732V176.614C11.2732 141.542 18.7887 110.853 33.8197 84.5493C48.8507 57.6188 69.5183 36.9512 95.8225 22.5465C122.753 7.51549 153.441 0 187.887 0C242.375 0 285.589 15.3441 317.53 46.0324C349.47 76.7206 365.441 120.248 365.441 176.614C365.441 212.313 357.925 241.748 342.894 264.921C328.49 287.468 308.135 306.256 281.831 321.287V325.045C310.64 335.692 333.5 354.481 350.41 381.411C367.946 408.342 376.714 442.161 376.714 482.87C376.714 539.237 359.491 584.016 325.045 617.21C290.599 650.403 245.819 667 190.706 667Z" fill="#425D75"/>
<rect x="208" width="74" height="23" fill="#425D75"/>
<rect x="208" y="644" width="74" height="23" fill="#425D75"/>
</svg>
