<svg width="365" height="383" viewBox="0 0 365 383" fill="none" xmlns="http://www.w3.org/2000/svg">
<path opacity="0.1" d="M278.522 241.183C290.644 234.825 302.647 227.392 311.41 216.716C324.295 201.021 328.652 178.864 322.416 160.61C317.14 145.135 305.331 133.354 295.835 120.297C284.133 104.215 275.762 85.816 268.069 67.2721C263.934 57.3113 259.816 47.0163 252.369 39.393C242.029 28.8102 226.02 24.7135 210.833 27.0658C195.646 29.418 181.361 37.7474 170.071 48.8039C164.064 54.6876 158.673 61.6215 156.473 69.621C154.144 78.085 155.566 87.0147 153.175 95.466C150.96 103.298 145.645 110.05 139.846 115.913C132.274 123.568 123.661 130.117 114.261 135.367C103.609 141.309 92.1321 145.443 81.4631 151.316C70.7942 157.189 60.5703 165.292 55.356 176.347C50.453 186.74 50.5266 198.434 51.2417 209.552C52.3934 227.716 55.0219 245.757 59.1011 263.494C61.8439 275.383 65.3207 287.266 71.9143 297.282C84.5192 316.435 108.682 326.803 132.12 323.122C151.538 320.07 214.35 303.607 230.009 290.885C244.288 279.284 213.067 268.523 230.009 261.203C246.172 254.229 262.689 249.484 278.522 241.183Z" fill="#6C63FF"/>
<path d="M180.5 289.666C239.871 289.666 288 283.405 288 275.682C288 267.959 239.871 261.699 180.5 261.699C121.129 261.699 73 267.959 73 275.682C73 283.405 121.129 289.666 180.5 289.666Z" fill="#3F3D56"/>
<path d="M242.431 266.976C255.95 266.976 266.91 256.017 266.91 242.497C266.91 228.977 255.95 218.018 242.431 218.018C228.911 218.018 217.951 228.977 217.951 242.497C217.951 256.017 228.911 266.976 242.431 266.976Z" fill="#3F3D56"/>
<path d="M196.451 64.3967C196.451 64.3967 197.325 73.1366 194.703 76.6325C192.081 80.1284 201.257 101.978 201.257 101.978L214.367 77.5065C214.367 77.5065 209.997 74.8845 212.619 67.4557L196.451 64.3967Z" fill="#FFB9B9"/>
<path opacity="0.1" d="M196.451 64.3967C196.451 64.3967 197.325 73.1366 194.703 76.6325C192.081 80.1284 201.257 101.978 201.257 101.978L214.367 77.5065C214.367 77.5065 209.997 74.8845 212.619 67.4557L196.451 64.3967Z" fill="black"/>
<path d="M235.779 108.533L236.216 126.45L219.611 153.106L216.552 143.055L225.729 125.139C225.729 125.139 222.67 116.836 223.544 112.029C224.418 107.222 235.779 108.533 235.779 108.533Z" fill="#FFB9B9"/>
<path d="M167.609 105.911L167.172 123.828L183.778 150.484L186.837 140.433L177.66 122.517C177.66 122.517 180.719 114.214 179.845 109.407C178.971 104.6 167.609 105.911 167.609 105.911Z" fill="#FFB9B9"/>
<path d="M179.844 134.752L178.096 139.122C175.766 141.287 173.934 143.932 172.726 146.875C171.519 149.818 170.966 152.987 171.104 156.165L165.86 210.352C165.86 210.352 162.364 214.285 163.675 219.092C163.675 219.092 160.616 235.261 162.364 240.504C162.364 240.504 154.936 254.051 162.801 254.925C170.667 255.799 173.289 255.799 174.163 252.74C175.037 249.681 176.348 238.319 176.348 238.319L195.576 170.149L198.635 212.537C198.635 212.537 195.576 223.899 196.45 226.958C197.324 230.017 190.332 251.866 193.391 254.051C196.45 256.236 205.19 257.11 205.627 255.362C206.064 253.614 206.501 242.689 206.501 242.689C206.501 242.689 210.871 233.076 211.745 230.017C212.618 226.958 213.492 209.915 213.492 209.915L221.358 159.661C221.358 159.661 223.106 146.114 218.736 143.492L216.988 135.626L179.844 134.752Z" fill="#2F2E41"/>
<path d="M161.491 252.303L159.743 261.043C159.743 261.043 150.567 275.464 159.306 275.464C168.046 275.464 168.92 271.094 168.92 271.094V267.161C168.92 267.161 173.29 264.976 173.29 264.539C173.29 264.102 171.979 253.614 171.979 253.614L161.491 252.303Z" fill="#2F2E41"/>
<path d="M204.316 252.303L206.064 261.043C206.064 261.043 215.241 275.464 206.501 275.464C197.761 275.464 196.887 271.094 196.887 271.094V267.161C196.887 267.161 192.518 264.976 192.518 264.539C192.518 264.102 193.829 253.614 193.829 253.614L204.316 252.303Z" fill="#2F2E41"/>
<path d="M206.153 73.855C212.521 73.855 217.683 68.6932 217.683 62.3258C217.683 55.9583 212.521 50.7965 206.153 50.7965C199.786 50.7965 194.624 55.9583 194.624 62.3258C194.624 68.6932 199.786 73.855 206.153 73.855Z" fill="#FFB9B9"/>
<path d="M202.131 92.8012C202.131 92.8012 195.576 81.8764 196.013 79.2544C196.282 77.7523 196.275 76.2138 195.992 74.7142L192.08 77.0695L175.911 84.4983L182.466 106.348C182.466 106.348 180.718 111.155 180.718 114.651C180.718 118.147 181.592 122.08 180.718 123.391C179.844 124.702 179.407 126.887 180.281 128.635C180.803 129.721 180.956 130.949 180.718 132.13C180.718 132.13 174.6 135.626 178.096 136.5C180.399 137.008 182.785 137.008 185.088 136.5C185.088 136.5 185.525 135.189 189.021 136.937C192.517 138.685 210.87 139.122 210.87 139.122C210.87 139.122 222.669 139.559 222.232 137.811C221.795 136.063 224.417 115.525 224.417 115.525L230.535 86.6833L216.551 77.9435L212.035 73.9559L210.87 80.1284L202.131 92.8012Z" fill="#D0CDE1"/>
<path d="M178.97 84.9353H175.911C175.911 84.9353 160.398 103.507 164.768 106.566C169.138 109.625 184.214 112.029 184.214 112.029C184.214 112.029 182.903 84.9353 178.97 84.9353Z" fill="#D0CDE1"/>
<path d="M226.602 86.6833H230.535C230.535 86.6833 241.023 111.155 237.527 112.029C234.031 112.903 221.358 115.525 221.358 114.214C221.358 112.903 226.602 86.6833 226.602 86.6833Z" fill="#D0CDE1"/>
<path d="M194.711 62.264C194.711 62.264 193.46 60.3877 193.941 58.367C194.229 57.2197 194.342 56.0358 194.278 54.8549C194.816 53.1043 195.492 51.3991 196.299 49.755C197.309 47.9268 196.828 47.157 200.003 46.5797C203.179 46.0024 201.88 41.8648 210.251 46.3391C210.533 46.7335 210.926 47.0353 211.38 47.2066C211.834 47.3778 212.328 47.4108 212.801 47.3014C214.533 46.9646 215.158 49.3702 215.158 49.3702C215.158 49.3702 216.313 48.6966 216.746 49.6588C217.179 50.621 220.266 49.0813 220.266 55.5764C220.266 62.0714 216.753 67.8731 216.753 67.8731C216.753 67.8731 217.011 56.9477 211.285 55.8411C205.56 54.7346 199.402 51.5111 197.91 55.6487C197.105 57.9709 196.032 60.1911 194.711 62.264V62.264Z" fill="#2F2E41"/>
<path d="M97.979 254.477C96.5233 267.233 104.365 278.603 104.365 278.603C104.365 278.603 114.568 269.292 116.023 256.536C117.479 243.78 109.637 232.41 109.637 232.41C109.637 232.41 99.4348 241.721 97.979 254.477Z" fill="#2F2E41"/>
<path d="M103.541 253.819C108.788 265.536 104.754 278.746 104.754 278.746C104.754 278.746 92.2127 272.959 86.9656 261.241C81.7185 249.524 85.7526 236.313 85.7526 236.313C85.7526 236.313 98.2939 242.101 103.541 253.819Z" fill="#6C63FF"/>
</svg>
