<svg width="189" height="171" viewBox="0 0 189 171" fill="none" xmlns="http://www.w3.org/2000/svg">
<g clip-path="url(#clip0)">
<path d="M177.051 171L68.6328 162.084L80.5814 13.831L189 22.7474L177.051 171Z" fill="url(#paint0_linear)"/>
<path d="M175.751 168.884L70.2539 160.205L81.8814 15.9474L187.379 24.624L175.751 168.884Z" fill="#6C63FF"/>
<path d="M181.987 146.072L75.1633 166.801L47.3867 20.7288L154.211 0L181.987 146.072Z" fill="url(#paint1_linear)"/>
<path d="M180.174 144.384L76.2283 164.555L49.2002 22.4165L153.145 2.24744L180.174 144.384Z" fill="#E0E0E0"/>
<path d="M169.076 11.0328H60.2988V159.776H169.076V11.0328Z" fill="url(#paint2_linear)"/>
<path d="M167.612 13.036H61.7646V157.771H167.612V13.036Z" fill="white"/>
<path d="M97.4332 38.0086C97.5483 47.6934 105.416 55.4506 115.004 55.3307C124.592 55.2108 132.276 47.267 132.156 37.58C132.119 33.9798 130.978 30.4784 128.888 27.5508C126.799 24.6232 123.862 22.4112 120.476 21.2151L120.529 25.7322C120.552 27.3028 119.954 28.8188 118.866 29.9481C117.777 31.0774 116.286 31.7279 114.721 31.7571C113.157 31.766 111.654 31.1539 110.539 30.0545C109.424 28.9551 108.788 27.4578 108.771 25.8898L108.717 21.3728C105.362 22.65 102.48 24.9312 100.461 27.9072C98.4426 30.8831 97.3854 34.4097 97.4332 38.0086Z" fill="url(#paint3_linear)"/>
<path d="M132.163 36.1632C132.163 26.4761 124.39 18.619 114.8 18.619C105.21 18.619 97.4375 26.4717 97.4375 36.1632C97.4312 39.764 98.5298 43.2795 100.584 46.2325C102.639 49.1856 105.549 51.4332 108.921 52.6702V48.1532C108.92 46.5851 109.538 45.0804 110.639 43.9677C111.741 42.855 113.237 42.2248 114.8 42.2148C116.364 42.2248 117.859 42.855 118.961 43.9677C120.063 45.0804 120.68 46.5851 120.679 48.1532V52.6724C124.051 51.4353 126.962 49.1874 129.017 46.2339C131.071 43.2803 132.169 39.7643 132.163 36.1632Z" fill="#6C63FF"/>
<path d="M114.811 40.4937C118.497 40.4937 121.485 37.4751 121.485 33.7514C121.485 30.0277 118.497 27.0091 114.811 27.0091C111.125 27.0091 108.137 30.0277 108.137 33.7514C108.137 37.4751 111.125 40.4937 114.811 40.4937Z" fill="white" stroke="white" stroke-miterlimit="10"/>
<path d="M114.8 42.2148C113.237 42.2248 111.741 42.855 110.639 43.9677C109.537 45.0804 108.92 46.5851 108.921 48.1532V52.6724C112.72 54.0484 116.88 54.0484 120.679 52.6724V48.1532C120.68 46.5851 120.063 45.0804 118.961 43.9677C117.859 42.855 116.363 42.2248 114.8 42.2148Z" fill="white" stroke="white" stroke-miterlimit="10"/>
<path d="M108.08 33.3783C107.544 32.33 107.299 31.1565 107.369 29.9805C107.445 28.8015 107.976 27.6984 108.848 26.9047C109.821 26.0675 111.138 25.7721 112.411 25.67C113.685 25.5678 114.976 25.63 116.229 25.3791C117.266 25.1657 118.251 24.7471 119.126 24.1476C120 23.5482 120.747 22.7801 121.322 21.888C121.402 22.8762 121.481 23.8867 121.293 24.855C121.105 25.8232 120.609 26.787 119.772 27.2978C120.786 26.8248 120.675 27.9352 120.456 28.5992C120.959 29.2121 122.179 29.3143 122.241 30.1071C122.303 30.8999 122.292 31.7194 121.986 32.45C121.681 33.1807 122.008 34.4709 121.224 34.5265" fill="white"/>
<path d="M108.08 33.3783C107.544 32.33 107.299 31.1565 107.369 29.9805C107.445 28.8015 107.976 27.6984 108.848 26.9047C109.821 26.0675 111.138 25.7721 112.411 25.67C113.685 25.5678 114.976 25.63 116.229 25.3791C117.266 25.1657 118.251 24.7471 119.126 24.1476C120 23.5482 120.747 22.7801 121.322 21.888C121.402 22.8762 121.481 23.8867 121.293 24.855C121.105 25.8232 120.609 26.787 119.772 27.2978C120.786 26.8248 120.675 27.9352 120.456 28.5992C120.959 29.2121 122.179 29.3143 122.241 30.1071C122.303 30.8999 122.292 31.7194 121.986 32.45C121.681 33.1807 122.008 34.4709 121.224 34.5265" stroke="white" stroke-miterlimit="10"/>
<path d="M120.143 27.1512C120.143 27.1512 124.793 27.5621 121.484 34.5442L120.143 27.1512Z" fill="white"/>
<path d="M86.0574 127.473H71.6797V141.997H86.0574V127.473Z" fill="url(#paint4_linear)"/>
<path d="M84.8156 128.725H72.918V140.744H84.8156V128.725Z" fill="#6C63FF"/>
<path d="M132.162 67.374H97.459V69.879H132.162V67.374Z" fill="#69F0AE"/>
<path d="M155.959 70.8806H97.459V73.3857H155.959V70.8806Z" fill="#E0E0E0"/>
<path d="M155.959 74.385H97.459V76.89H155.959V74.385Z" fill="#E0E0E0"/>
<path d="M132.162 98.6759H97.459V101.181H132.162V98.6759Z" fill="#69F0AE"/>
<path d="M155.959 102.18H97.459V104.685H155.959V102.18Z" fill="#E0E0E0"/>
<path d="M155.959 105.687H97.459V108.192H155.959V105.687Z" fill="#E0E0E0"/>
<path d="M132.162 129.976H97.459V132.481H132.162V129.976Z" fill="#6C63FF"/>
<path d="M155.959 133.482H97.459V135.987H155.959V133.482Z" fill="#E0E0E0"/>
<path d="M155.959 136.989H97.459V139.494H155.959V136.989Z" fill="#E0E0E0"/>
<path d="M51.4211 112.076H43.321C42.4973 100.732 33.1351 91.7848 21.6936 91.7848C9.71187 91.7848 -0.00683594 101.596 -0.00683594 113.699C-0.00683594 125.803 9.70523 135.614 21.6936 135.614C32.2073 135.614 40.9716 128.063 42.9512 118.028H51.4122C52.1992 118.028 52.9539 117.714 53.5103 117.156C54.0668 116.598 54.3794 115.841 54.3794 115.052C54.3794 114.263 54.0668 113.506 53.5103 112.948C52.9539 112.39 52.1992 112.076 51.4122 112.076H51.4211Z" fill="url(#paint5_linear)"/>
<path d="M22.1011 93.4171C11.0117 93.4171 2.02148 102.498 2.02148 113.699C2.02148 124.901 11.0117 133.982 22.1011 133.982C33.1904 133.982 42.1806 124.901 42.1806 113.699C42.1806 102.498 33.1904 93.4171 22.1011 93.4171ZM22.1011 130.979C12.6547 130.979 4.99755 123.244 4.99755 113.702C4.99755 104.159 12.6547 96.424 22.1011 96.424C31.5474 96.424 39.2046 104.155 39.2046 113.704C39.2046 123.253 31.5474 130.977 22.1011 130.977V130.979Z" fill="white"/>
<path d="M40.4473 112.198H49.9091C50.5551 112.198 51.1747 112.456 51.6315 112.914C52.0882 113.372 52.3449 113.993 52.3449 114.641V115.258C52.3449 115.906 52.0882 116.528 51.6315 116.986C51.1747 117.444 50.5551 117.701 49.9091 117.701H40.4473V112.198Z" fill="white"/>
<path d="M22.1035 131.228C31.6864 131.228 39.455 123.38 39.455 113.699C39.455 104.019 31.6864 96.1708 22.1035 96.1708C12.5205 96.1708 4.75195 104.019 4.75195 113.699C4.75195 123.38 12.5205 131.228 22.1035 131.228Z" fill="#6C63FF"/>
<path opacity="0.2" d="M24.0409 107.164C22.688 107.874 22.0347 109.829 22.9338 111.077C23.2925 111.572 23.8195 111.901 24.2779 112.309C24.7362 112.718 25.1237 113.289 25.044 113.897C24.9659 114.268 24.7944 114.613 24.5458 114.899C23.6357 116.107 22.513 117.255 22.2185 118.743C21.9528 120.093 22.44 121.505 23.2327 122.627C23.6756 123.264 24.2712 123.855 25.0219 124.059C25.8522 124.281 26.7513 123.988 27.4576 123.48C28.164 122.971 28.6844 122.269 29.2025 121.579L30.4093 119.971C30.7393 119.527 31.0736 119.054 31.1091 118.503C31.1511 117.557 30.2676 116.849 29.9665 115.954C29.4085 114.292 30.9474 112.576 30.7415 110.832C30.4248 108.199 26.3726 105.931 24.0409 107.164Z" fill="black"/>
</g>
<defs>
<linearGradient id="paint0_linear" x1="122.813" y1="166.557" x2="134.911" y2="18.2533" gradientUnits="userSpaceOnUse">
<stop stop-color="#808080" stop-opacity="0.25"/>
<stop offset="0.54" stop-color="#808080" stop-opacity="0.12"/>
<stop offset="1" stop-color="#808080" stop-opacity="0.1"/>
</linearGradient>
<linearGradient id="paint1_linear" x1="115671" y1="113127" x2="94531.2" y2="3356.17" gradientUnits="userSpaceOnUse">
<stop stop-color="#808080" stop-opacity="0.25"/>
<stop offset="0.54" stop-color="#808080" stop-opacity="0.12"/>
<stop offset="1" stop-color="#808080" stop-opacity="0.1"/>
</linearGradient>
<linearGradient id="paint2_linear" x1="56399.1" y1="107026" x2="56399.1" y2="7400.6" gradientUnits="userSpaceOnUse">
<stop stop-color="#808080" stop-opacity="0.25"/>
<stop offset="0.54" stop-color="#808080" stop-opacity="0.12"/>
<stop offset="1" stop-color="#808080" stop-opacity="0.1"/>
</linearGradient>
<linearGradient id="paint3_linear" x1="115.901" y1="55.0475" x2="114.121" y2="20.8135" gradientUnits="userSpaceOnUse">
<stop stop-opacity="0.12"/>
<stop offset="0.55" stop-opacity="0.09"/>
<stop offset="1" stop-opacity="0.02"/>
</linearGradient>
<linearGradient id="paint4_linear" x1="5192.58" y1="9414.06" x2="5192.58" y2="8464.19" gradientUnits="userSpaceOnUse">
<stop stop-color="#808080" stop-opacity="0.25"/>
<stop offset="0.54" stop-color="#808080" stop-opacity="0.12"/>
<stop offset="1" stop-color="#808080" stop-opacity="0.1"/>
</linearGradient>
<linearGradient id="paint5_linear" x1="16098.3" y1="29705.5" x2="16098.3" y2="21055.3" gradientUnits="userSpaceOnUse">
<stop stop-color="#808080" stop-opacity="0.25"/>
<stop offset="0.54" stop-color="#808080" stop-opacity="0.12"/>
<stop offset="1" stop-color="#808080" stop-opacity="0.1"/>
</linearGradient>
<clipPath id="clip0">
<rect width="189" height="171" fill="white"/>
</clipPath>
</defs>
</svg>
