<svg width="272" height="313" viewBox="0 0 272 313" fill="none" xmlns="http://www.w3.org/2000/svg">
<g clip-path="url(#clip0)">
<path opacity="0.1" d="M84.1898 312.481C109.638 312.481 130.267 309.033 130.267 304.778C130.267 300.524 109.638 297.076 84.1898 297.076C58.7419 297.076 38.1123 300.524 38.1123 304.778C38.1123 309.033 58.7419 312.481 84.1898 312.481Z" fill="#6C63FF"/>
<path d="M134.004 90.4982C133.124 90.0344 123.538 82.8147 123.538 82.8147L108.069 73.0325C108.069 73.0325 107.988 72.8006 107.841 72.4025C112.085 67.5984 111.159 60.626 106.841 55.7253C101.608 49.781 77.9647 36.9842 70.8407 47.9297C69.8446 49.4757 69.8097 51.2304 69.55 52.9309C68.9415 56.9002 66.9802 60.7458 63.9027 63.9847C61.5306 66.4853 58.4182 68.7888 57.0539 71.6179C57.0539 71.5831 57.0268 71.5483 57.0151 71.5097C56.6858 72.1161 56.4468 72.7671 56.3058 73.4422C55.6275 76.8936 57.9531 80.202 59.1896 83.5606C59.6046 84.698 59.9058 85.8735 60.0888 87.07C60.1198 86.8303 60.1469 86.5946 60.1741 86.3549C60.4754 88.0586 60.5781 89.7913 60.4802 91.5185C51.895 93.2616 51.8911 107.906 51.8911 107.906C51.8911 107.906 50.833 113.726 51.0113 115.825C51.1895 117.924 51.1857 122.461 51.1857 123.555C51.1857 124.649 50.1275 131.47 50.0229 132.29C50.0239 132.301 50.0239 132.313 50.0229 132.325C49.8678 133.221 48.2593 137.542 52.1469 138.508C52.4182 138.578 52.7051 138.636 53.0035 138.69C53.1702 142.188 53.4725 149.512 53.2051 151.143C53.2051 151.143 54.6198 160.983 55.7942 163.484C56.5368 164.95 57.4057 166.349 58.3911 167.666C58.3058 168.265 58.103 168.841 57.7942 169.362C57.1934 170.224 57.5035 170.931 58.5074 171.237C58.4725 171.534 58.4337 171.871 58.3911 172.249C57.9609 176.045 57.3175 183.589 58.4105 187.412C59.9105 192.652 59.9996 194.399 59.9996 194.399C59.9996 194.399 59.9996 195.969 60.6198 196.842C61.2399 197.716 62.3833 205.84 62.3833 207.15C62.3833 208.46 65.3834 220.248 64.4996 223.042C63.6159 225.837 64.3252 229.767 64.3252 229.767C64.3252 229.767 63.7942 236.666 63.1624 238.151C62.5306 239.635 62.2787 263.563 63.2477 269.762C64.2167 275.961 64.8368 281.113 64.8368 281.113C64.8368 281.113 64.2206 286.791 64.7477 287.575C65.2748 288.36 66.2477 293.079 65.5423 293.338C64.8368 293.597 64.4841 295.522 64.4841 295.522C64.8572 296.087 65.2595 296.633 65.6895 297.157C65.4176 297.062 65.1522 296.95 64.895 296.82C65.174 297.207 65.5927 297.756 66.1082 298.366L65.6237 304.647C65.6033 304.892 65.6697 305.136 65.8113 305.338C65.953 305.539 66.1609 305.684 66.3989 305.748C67.9465 306.168 69.5794 306.161 71.1234 305.728C72.6674 305.295 74.0646 304.453 75.1663 303.29C79.5771 298.838 81.0771 299.449 81.8717 296.743C81.957 296.453 82.0306 296.167 82.0927 295.897C82.6624 293.485 80.0849 291.692 78.0345 292.72C78.3175 290.81 78.5384 288.642 78.3252 287.417C77.8833 284.885 77.9725 278.249 77.9725 278.249L77.3562 246.46C77.3562 246.46 78.4996 240.172 79.8252 237.729C81.1508 235.287 80.988 226.726 80.988 226.726L82.488 198.604L83.8989 184.896C83.8989 184.896 85.3097 180.18 87.0733 185.421C87.0733 185.421 86.1043 195.984 86.5461 198.519C86.988 201.055 87.6043 213.365 87.1624 216.07C86.7206 218.776 84.7826 233.625 85.9996 237.378C87.2167 241.13 88.5733 245.679 88.3019 247.167C88.0306 248.655 87.1392 280.874 87.1392 280.874C87.1392 280.874 89.5229 287.058 87.7593 289.083C85.9958 291.108 87.6702 299.132 87.6702 299.132C87.6702 299.132 87.8834 299.282 88.2477 299.491L88.1973 300.16L87.643 307.383C87.6233 307.629 87.6899 307.873 87.8313 308.075C87.9728 308.277 88.1803 308.423 88.4182 308.489C89.9659 308.909 91.5989 308.902 93.1429 308.469C94.687 308.036 96.0843 307.193 97.1857 306.031C101.597 301.574 103.097 302.189 103.891 299.479C103.976 299.19 104.05 298.907 104.116 298.633C104.736 296.001 101.597 294.092 99.4958 295.812L99.3911 295.901C99.2813 295.994 99.1662 296.08 99.0462 296.159C98.9904 296.2 98.9321 296.238 98.8717 296.272C99.3136 294.277 99.957 290.861 99.6469 289.261C99.2051 286.903 100.085 279.745 100.085 279.745C100.085 279.745 102.643 271.184 102.732 267.764L103.438 240.52C103.438 240.52 103.352 229.427 103.705 226.722C104.058 224.016 106.879 200.61 109.701 193.623C111.868 188.273 112.837 174.622 112.263 167.7C112.232 167.36 112.201 167.032 112.162 166.726C115.624 164.179 115.969 159.943 115.969 159.943C115.969 159.943 112.79 153.891 109.732 151.328C106.674 148.766 106.015 144.36 106.124 142.485C106.176 141.343 105.798 140.223 105.066 139.343C105.066 139.343 103.655 134.802 102.713 134.338C102.636 134.299 102.566 134.247 102.507 134.184C101.868 133.5 102.36 131.544 102.36 131.544V131.482C102.472 131.03 103.135 128.1 102.938 127.35C102.701 126.539 103.054 122.693 103.054 122.693C103.054 122.693 105.29 116.057 104.938 110.816C104.585 105.575 109.527 106.043 109.527 106.043L124.786 105.885H126.523C127.135 105.366 127.695 104.789 128.193 104.161C131.1 103.817 136.98 102.723 137.639 99.5228C138.535 95.2752 134.887 90.9658 134.004 90.4982ZM63.3058 138.949L63.4105 136.286C63.7709 136.595 64.0113 136.792 64.0113 136.792C64.2059 137.489 64.2152 138.224 64.0384 138.926C63.9437 139.255 63.7757 139.559 63.5469 139.815C63.318 140.07 63.0342 140.271 62.7167 140.402C62.6429 140.434 62.5716 140.472 62.5035 140.514L62.3562 139.011L63.3058 138.949ZM118.655 92.1833C118.007 91.8934 115.829 91.9514 114.709 91.9514C113.589 91.9514 111.771 91.0199 111.771 91.0199C111.383 90.2663 109.24 89.8179 107.333 89.5628C105.883 85.9994 103.845 82.5248 103.569 78.8106C103.569 78.6753 103.569 78.54 103.55 78.4048L103.771 78.7913C103.771 78.7913 112.655 84.4418 113.655 86.1346C114.43 87.4255 118.162 90.3088 119.891 91.5997C119.653 91.9093 119.319 92.1321 118.941 92.2335C118.843 92.2442 118.744 92.2267 118.655 92.1833Z" fill="url(#paint0_linear)"/>
<path d="M103.985 298.656C103.919 298.927 103.849 299.209 103.764 299.495C102.988 302.2 101.504 301.574 97.1744 305.992C96.0956 307.145 94.7212 307.982 93.1999 308.413C91.6785 308.843 90.0681 308.851 88.5427 308.435C88.3046 308.372 88.0963 308.227 87.9545 308.026C87.8128 307.826 87.7465 307.582 87.7675 307.337L88.314 300.171L88.5737 296.724C88.5737 296.724 95.4884 298.656 99.0078 296.202C99.1258 296.122 99.2397 296.035 99.3489 295.943C99.376 295.919 99.4019 295.893 99.4264 295.866C99.8806 295.491 100.441 295.267 101.029 295.225C101.618 295.184 102.204 295.327 102.707 295.635C103.209 295.943 103.603 296.399 103.832 296.941C104.061 297.483 104.114 298.083 103.985 298.656Z" fill="#67647E"/>
<path d="M82.2794 295.951C82.2136 296.221 82.1438 296.503 82.0585 296.789C81.2833 299.495 79.7988 298.869 75.4694 303.286C74.3906 304.439 73.0162 305.277 71.4948 305.707C69.9734 306.138 68.363 306.145 66.8376 305.729C66.5995 305.666 66.3913 305.522 66.2495 305.321C66.1077 305.12 66.0414 304.876 66.0624 304.631L66.6089 297.466L66.8686 294.018C66.8686 294.018 73.7833 295.951 77.3027 293.497C77.4208 293.416 77.5346 293.33 77.6438 293.238C77.6709 293.213 77.6968 293.187 77.7213 293.16C78.1755 292.785 78.736 292.561 79.3243 292.52C79.9125 292.479 80.499 292.622 81.0015 292.929C81.5041 293.237 81.8975 293.694 82.1266 294.236C82.3558 294.777 82.4092 295.377 82.2794 295.951Z" fill="#67647E"/>
<path opacity="0.1" d="M75.1354 297.025L75.4144 300.751C71.4454 304.705 66.7206 298.819 65.3369 296.886C68.9764 298.757 75.1354 297.025 75.1354 297.025Z" fill="black"/>
<path opacity="0.1" d="M98.4655 298.54L98.9849 298.196C95.3608 303.692 89.9771 301.157 88.2988 300.171L88.5585 296.724C88.5585 296.724 95.4732 298.656 98.9926 296.202C98.7174 297.547 98.4655 298.54 98.4655 298.54Z" fill="black"/>
<path d="M109.504 194.484C106.721 201.414 103.942 224.631 103.593 227.336C103.244 230.042 103.334 241.026 103.334 241.026L102.636 268.038C102.547 271.42 100.027 279.911 100.027 279.911C100.027 279.911 99.1591 287.015 99.5932 289.353C100.027 291.692 98.4653 297.856 98.4653 297.856L98.9847 297.508C94.6397 304.079 87.7754 299.155 87.7754 299.155C87.7754 299.155 86.1242 291.185 87.8645 289.191C89.6048 287.197 87.256 281.048 87.256 281.048C87.256 281.048 88.1242 249.077 88.3839 247.604C88.6436 246.132 87.3413 241.625 86.1242 237.899C84.9072 234.174 86.8219 219.444 87.256 216.758C87.6901 214.072 87.0816 201.855 86.6475 199.343C86.2134 196.83 87.1668 186.345 87.1668 186.345C85.4304 181.147 84.0389 185.827 84.0389 185.827L82.6475 199.428L81.1707 227.329C81.1707 227.329 81.3451 235.832 80.0428 238.247C78.7405 240.663 77.6087 246.909 77.6087 246.909L78.2172 278.45C78.2172 278.45 78.132 285.021 78.5661 287.545C79.0002 290.068 77.6087 296.558 77.6087 296.558C72.7444 307.986 64.9304 295.595 64.9304 295.595C64.9304 295.595 65.2792 293.69 65.973 293.431C66.6668 293.172 65.7134 288.491 65.1979 287.711C64.6823 286.93 65.2831 281.299 65.2831 281.299C65.2831 281.299 64.6746 276.189 63.7327 270.036C62.7909 263.883 63.0389 240.145 63.6475 238.672C64.256 237.2 64.7754 230.355 64.7754 230.355C64.7754 230.355 64.0816 226.455 64.9498 223.68C65.818 220.905 62.8645 209.214 62.8645 207.911C62.8645 206.609 61.7366 198.554 61.1281 197.688C60.5196 196.823 60.5196 195.261 60.5196 195.261C60.5196 195.261 60.4343 193.53 58.9692 188.331C57.8916 184.536 58.5273 177.054 58.9498 173.285C59.101 171.89 59.2327 171.001 59.2327 171.001C59.2327 171.001 109.066 162.943 111.054 164.763C111.52 165.192 111.83 166.665 112.012 168.763C112.605 175.627 111.628 189.193 109.504 194.484Z" fill="#444053"/>
<path opacity="0.1" d="M90.6436 233.443C90.8761 233.443 96.38 233.907 98.3955 233.501C100.411 233.095 90.6436 233.443 90.6436 233.443Z" fill="black"/>
<path opacity="0.1" d="M91.0508 236.678C91.0508 236.678 98.6515 238.008 99.0391 237.316C99.4267 236.624 91.0508 236.678 91.0508 236.678Z" fill="black"/>
<path opacity="0.1" d="M67.8213 235.291C67.8213 235.291 71.7593 235.464 73.9027 236.45C76.0461 237.436 67.8213 235.291 67.8213 235.291Z" fill="black"/>
<path d="M53.5117 138.137C53.5117 138.137 54.1474 150.208 53.8024 152.345C53.8024 152.345 55.19 162.108 56.3489 164.589C57.5078 167.07 60.0001 170.193 60.0001 170.193L63.4187 146.231L62.6047 138.022L53.5117 138.137Z" fill="#EFB7B9"/>
<path d="M89.4267 83.1471C96.8162 83.1471 102.807 77.1737 102.807 69.8053C102.807 62.4368 96.8162 56.4635 89.4267 56.4635C82.0372 56.4635 76.0469 62.4368 76.0469 69.8053C76.0469 77.1737 82.0372 83.1471 89.4267 83.1471Z" fill="#EFB7B9"/>
<path d="M82.4772 76.0394C82.4772 76.0394 78.3066 84.1867 74.1361 87.9976C69.9656 91.8084 99.1593 96.141 99.8531 96.141C100.547 96.141 94.64 78.8144 95.6826 76.7235C96.7252 74.6326 82.4772 76.0394 82.4772 76.0394Z" fill="#EFB7B9"/>
<path opacity="0.1" d="M112.019 168.763C111.364 169.262 110.641 169.666 109.872 169.961C104.547 172.041 98.7521 174.928 94.8141 173.776C90.8761 172.624 82.535 173.776 82.535 173.776C82.535 173.776 65.7327 172.389 62.38 173.196C60.8528 173.564 59.6668 173.548 58.8916 173.285C59.0428 171.89 59.1745 171.001 59.1745 171.001C59.1745 171.001 109.066 162.943 111.054 164.763C111.527 165.192 111.83 166.665 112.019 168.763Z" fill="black"/>
<path d="M115.667 161.064C115.667 161.064 115.206 166.842 109.872 168.922C104.539 171.001 98.7521 173.888 94.8142 172.736C90.8762 171.585 82.5351 172.736 82.5351 172.736C82.5351 172.736 65.7328 171.349 62.3801 172.157C59.0273 172.964 57.2793 171.929 58.3219 170.425C59.3646 168.922 59.2522 163.955 59.2522 161.876C59.2522 159.797 58.0894 151.363 59.132 149.86C60.1746 148.356 61.101 142.582 63.1863 141.655C63.4994 141.523 63.7789 141.323 64.0043 141.07C64.2297 140.816 64.3952 140.515 64.4886 140.19C64.6609 139.494 64.6516 138.766 64.4615 138.076C64.4615 138.076 64.1087 137.786 63.6242 137.357C62.3956 136.263 60.318 134.234 60.9847 133.569C61.9111 132.641 60.9847 126.635 60.9847 126.635C60.9847 126.635 58.7832 122.017 59.5971 120.285C60.4111 118.554 52.5273 109.425 52.5273 109.425C52.5273 109.425 52.5273 93.7177 62.0273 93.022C62.0273 93.022 68.7483 93.2539 69.5584 90.2508C70.3684 87.2478 75.6979 85.5124 75.6979 85.5124L87.8646 88.1715C87.8646 88.1715 98.6359 90.4904 100.609 89.0952C102.582 87.7 104.097 90.9426 104.097 90.9426C104.097 90.9426 110.814 91.2905 111.508 92.678C112.202 94.0655 109.31 107.577 109.31 107.577C109.31 107.577 104.442 107.117 104.791 112.316C105.14 117.514 102.915 124.1 102.915 124.1C102.915 124.1 102.566 127.911 102.799 128.719C103.016 129.465 102.341 132.371 102.233 132.819V132.877C102.233 132.877 101.748 134.81 102.376 135.498C102.434 135.56 102.502 135.612 102.578 135.652C103.508 136.112 104.903 140.619 104.903 140.619C105.627 141.494 105.998 142.605 105.946 143.738C105.834 145.589 106.527 149.976 109.539 152.519C112.551 155.062 115.667 161.064 115.667 161.064Z" fill="#A36468"/>
<path d="M63.9966 134.311V134.802L63.7873 140.213C63.7873 140.213 56.6594 140.789 52.7796 139.826C48.8997 138.864 50.5315 134.57 50.6865 133.681C50.688 133.67 50.688 133.658 50.6865 133.646C50.7989 132.835 51.8493 126.079 51.8493 124.981C51.8493 123.884 51.8493 119.377 51.6749 117.298C51.5005 115.218 52.5276 109.425 52.5276 109.425L53.2796 108.505L61.4423 111.624L63.9966 134.311Z" fill="#A36468"/>
<path opacity="0.1" d="M63.9771 134.814L63.7678 140.225C63.7678 140.225 56.6399 140.8 52.76 139.838C48.8802 138.876 50.512 134.582 50.667 133.693L63.9771 134.814Z" fill="black"/>
<path opacity="0.1" d="M64.4884 140.194C64.6607 139.498 64.6514 138.77 64.4612 138.08C64.4612 138.08 64.1085 137.79 63.624 137.361C69.7597 136.506 94.0581 133.183 102.24 132.819V132.877C102.24 132.877 101.756 134.81 102.384 135.498L64.4884 140.194Z" fill="black"/>
<path opacity="0.1" d="M103.155 144.36C103.155 144.36 104.663 152.863 99.043 155.854C99.0391 155.87 102.229 151.653 103.155 144.36Z" fill="black"/>
<path opacity="0.1" d="M66.3721 156.098C66.3721 156.098 79.938 153.779 82.593 155.58C85.248 157.381 66.3721 156.098 66.3721 156.098Z" fill="black"/>
<path opacity="0.1" d="M98.465 103.477C98.465 103.477 96.3798 112.026 97.9418 113.989C99.5038 115.953 98.465 103.477 98.465 103.477Z" fill="black"/>
<path opacity="0.1" d="M59.1904 96.4888C59.1904 96.4888 61.1012 99.6658 59.9423 102.959C58.7834 106.252 59.1904 96.4888 59.1904 96.4888Z" fill="black"/>
<path opacity="0.1" d="M55.2402 124.332C55.2402 124.332 57.6743 125.774 56.8643 128.027C56.0542 130.28 55.2402 124.332 55.2402 124.332Z" fill="black"/>
<path opacity="0.1" d="M55.0195 117.746C55.0195 117.746 57.2753 118.96 57.566 120.749C57.8567 122.539 55.0195 117.746 55.0195 117.746Z" fill="black"/>
<path opacity="0.1" d="M88.5 186.828C88.5 186.828 102.694 188.274 105.531 184.923C105.531 184.942 92.7287 187.466 88.5 186.828Z" fill="black"/>
<path opacity="0.1" d="M63.9961 186.02C63.9961 186.02 79.2325 189.603 82.2442 186.77C82.2442 186.77 69.1511 187.752 63.9961 186.02Z" fill="black"/>
<path opacity="0.1" d="M89.6006 191.512C89.6006 191.512 95.9727 191.512 98.9262 191.686C101.88 191.86 89.6006 191.512 89.6006 191.512Z" fill="black"/>
<path opacity="0.1" d="M65.0391 194.218C65.0391 194.218 68.167 197.743 71.7019 197.109C75.2367 196.475 65.0391 194.218 65.0391 194.218Z" fill="black"/>
<path d="M71.1819 49.9202C70.2012 51.4391 70.1664 53.1976 69.9105 54.8828C69.3136 58.8211 67.3795 62.6358 64.3524 65.8515C61.5733 68.7966 57.7633 71.4672 57.0423 75.0655C56.3601 78.4821 58.6741 81.7712 59.8873 85.1143C63.085 93.8839 58.6198 103.082 57.3175 112.134C56.957 114.635 57.3912 117.831 60.4803 118.662C61.4454 118.925 62.5501 118.89 63.4183 119.307C64.5811 119.864 64.9377 121.02 65.1509 122.059C65.9283 125.778 66.1969 129.585 65.9493 133.376C65.8098 135.502 65.6547 137.948 67.6702 139.409C68.585 140.078 69.8175 140.418 71.0074 140.739C74.1819 141.593 78.2865 142.285 80.426 140.279C81.3253 139.44 81.6625 138.257 82.7826 137.593C84.4609 136.599 86.8408 137.272 88.9532 137.376C93.2904 137.593 97.2749 135.057 98.9842 132C100.693 128.943 100.535 125.43 99.9144 122.133C99.2943 118.836 98.1857 115.562 98.1082 112.215C98.0811 111.056 98.1857 109.877 98.8524 108.849C100.143 106.859 103.147 105.954 105.201 104.389C109.05 101.451 109.038 96.6396 107.639 92.6123C106.24 88.585 103.728 84.724 103.418 80.5614C103.28 79.5552 103.48 78.5316 103.988 77.6511C104.538 76.8047 105.5 76.1709 106.314 75.4713C111.93 70.7406 111.267 62.9721 106.624 57.6539C101.484 51.7599 78.1974 39.0635 71.1819 49.9202Z" fill="#E3787D"/>
<g opacity="0.1">
<path opacity="0.1" d="M60.601 88.7551C61.039 85.2419 60.9576 81.7596 59.7135 78.3391C59.101 76.6617 58.2134 74.9959 57.5662 73.3147C57.2428 73.9225 57.0079 74.5732 56.8685 75.2471C56.1863 78.6637 58.5003 81.9528 59.7135 85.296C60.1219 86.4174 60.4191 87.576 60.601 88.7551Z" fill="black"/>
<path opacity="0.1" d="M65.7755 126.601C66.0225 122.81 65.7552 119.003 64.9809 115.284C64.7639 114.244 64.4073 113.093 63.2445 112.536C62.3763 112.119 61.2716 112.15 60.3065 111.891C59.7135 111.749 59.1608 111.474 58.6906 111.087C58.2204 110.7 57.8451 110.211 57.5933 109.657C57.415 110.538 57.26 111.415 57.1321 112.296C56.7716 114.797 57.2057 117.993 60.2949 118.824C61.26 119.083 62.3646 119.049 63.2329 119.466C64.3957 120.023 64.7522 121.178 64.9693 122.218C65.3249 123.943 65.5734 125.688 65.7135 127.443C65.7406 127.157 65.7561 126.879 65.7755 126.601Z" fill="black"/>
<path opacity="0.1" d="M98.8145 125.229C97.1013 128.297 93.1168 130.821 88.7796 130.605C86.6672 130.497 84.2873 129.832 82.6129 130.821C81.4928 131.482 81.1517 132.669 80.2525 133.507C78.1129 135.498 74.0083 134.821 70.8339 133.967C69.6439 133.643 68.4152 133.306 67.4966 132.638C66.6212 131.996 66.0305 131.039 65.8494 129.971C65.8726 131.157 65.8494 132.348 65.7757 133.534C65.6362 135.66 65.4811 138.107 67.4966 139.571C68.4152 140.236 69.6439 140.576 70.8339 140.897C74.0083 141.751 78.1129 142.443 80.2525 140.437C81.1517 139.598 81.4928 138.416 82.6129 137.732C84.2873 136.738 86.6672 137.411 88.7796 137.515C93.1168 137.732 97.1013 135.196 98.8145 132.139C100.458 129.186 100.384 125.847 99.8106 122.658C99.5945 123.555 99.2595 124.42 98.8145 125.229Z" fill="black"/>
<path opacity="0.1" d="M106.155 68.7154C105.325 69.4111 104.364 70.0488 103.829 70.8952C103.321 71.7757 103.121 72.7993 103.259 73.8055C103.372 75.0703 103.64 76.3164 104.058 77.5159C104.703 76.8294 105.41 76.2033 106.17 75.6452C109.969 72.4489 110.891 67.8612 109.659 63.5789C109.008 65.5904 107.792 67.3733 106.155 68.7154Z" fill="black"/>
<path opacity="0.1" d="M105.028 97.6135C102.977 99.1788 99.9694 100.087 98.6825 102.078C98.012 103.106 97.9073 104.292 97.9345 105.44C97.9821 106.792 98.1481 108.137 98.4306 109.46C98.5039 109.303 98.5881 109.152 98.6825 109.007C99.9694 107.017 102.977 106.113 105.028 104.547C108.543 101.865 108.838 97.6213 107.799 93.8375C107.272 95.3428 106.307 96.6574 105.028 97.6135Z" fill="black"/>
</g>
<path d="M126.093 105.846C126.093 105.846 136.116 105.328 136.984 101.111C137.852 96.8947 134.271 92.6085 133.395 92.1563C132.519 91.7041 123.069 84.5307 123.069 84.5307L107.837 74.8297C107.837 74.8297 100.538 53.959 98.9221 61.9479C97.3058 69.9367 103.616 80.546 103.616 80.546C103.616 80.546 112.36 86.1501 113.345 87.8237C114.329 89.4972 120.356 93.8877 120.356 93.8877L126.093 105.846Z" fill="#EFB7B9"/>
<path d="M131.48 99.0281C129.108 105.038 126.034 107.407 126.034 107.407H124.325L109.298 107.562L107.565 102.843L110 92.6161L111.503 92.678C111.503 92.678 113.302 93.6017 114.399 93.6017C115.496 93.6017 117.647 93.5437 118.275 93.8297C118.362 93.8725 118.461 93.8873 118.558 93.8723C119.127 93.8143 119.72 92.964 119.72 92.964C119.72 92.964 133.856 93.022 131.48 99.0281Z" fill="#A36468"/>
<path opacity="0.1" d="M131.481 99.0281C129.109 105.038 126.035 107.407 126.035 107.407H124.326C125.217 105.027 127.097 100.141 127.814 99.0127C128.516 97.9459 122.221 95.2907 118.539 93.8568C119.109 93.7989 119.702 92.9486 119.702 92.9486C119.702 92.9486 133.857 93.022 131.481 99.0281Z" fill="black"/>
</g>
<g clip-path="url(#clip1)">
<path d="M192.199 71.1556C198.899 71.1556 204.332 65.7234 204.332 59.0225C204.332 52.3216 198.899 46.8894 192.199 46.8894C185.498 46.8894 180.065 52.3216 180.065 59.0225C180.065 65.7234 185.498 71.1556 192.199 71.1556Z" fill="#FFB8B8"/>
<path d="M185.812 64.7697C185.812 64.7697 189.005 81.3729 187.728 84.5658C186.451 87.7588 205.609 83.2887 205.609 83.2887C205.609 83.2887 201.777 66.6855 202.416 62.854C203.054 59.0225 185.812 64.7697 185.812 64.7697Z" fill="#FFB8B8"/>
<path d="M164.74 122.242L166.017 139.484L172.356 166.562L174.319 173.967L177.512 162.473L174.319 136.291L173.234 124.503L164.74 122.242Z" fill="#FFB8B8"/>
<path d="M231.79 119.688V137.568C231.79 137.568 229.875 160.557 226.043 166.305C222.212 172.052 220.935 143.316 220.935 143.316L223.937 122.242L231.79 119.688Z" fill="#FFB8B8"/>
<path d="M174.957 175.245C174.957 175.245 171.764 179.076 174.319 218.03C176.873 256.983 173.041 285.081 181.343 285.081C181.343 285.081 178.789 293.383 185.813 294.021C192.838 294.66 196.03 295.298 196.669 293.383C197.308 291.467 198.585 282.527 196.669 282.527C196.669 282.527 196.669 285.081 197.946 274.864C199.223 264.646 199.223 216.114 202.416 209.728L212.634 233.356C212.634 233.356 212.634 244.212 214.549 249.32C216.465 254.429 219.658 283.804 219.658 283.804L219.019 288.274C219.019 288.274 234.345 290.828 234.984 288.274C235.623 285.72 235.623 281.888 234.984 280.611C234.345 279.334 234.345 279.334 235.623 276.78C236.9 274.225 236.9 272.309 236.261 270.394C235.623 268.478 235.623 226.97 235.623 226.97C235.623 226.97 234.345 176.522 226.682 173.968C219.019 171.413 174.957 175.245 174.957 175.245Z" fill="#2F2E41"/>
<path d="M183.258 288.913L178.15 297.853C178.15 297.853 170.167 294.979 171.764 302.323C185.493 303.281 195.072 302.004 195.072 302.004C195.072 302.004 198.265 303.281 198.904 301.365C199.542 299.449 197.307 292.744 195.391 292.744C193.476 292.744 183.258 288.913 183.258 288.913Z" fill="#2F2E41"/>
<path d="M220.297 286.358C220.297 286.358 215.188 297.853 217.104 298.491C219.019 299.13 236.261 301.684 237.538 302.323C238.816 302.961 245.201 303.6 245.84 299.768C246.479 295.937 242.647 294.66 242.647 294.66C242.647 294.66 235.623 293.383 233.707 286.997C231.791 280.611 220.297 286.358 220.297 286.358Z" fill="#2F2E41"/>
<path d="M206.886 81.3729C206.886 81.3729 189.644 78.18 185.813 81.3729C181.981 84.5658 166.017 90.9516 166.017 94.1445C166.017 97.3375 174.318 128.628 174.318 128.628C174.318 128.628 169.848 175.883 174.318 177.16C178.788 178.438 186.451 174.606 195.391 179.076C204.332 183.546 229.875 175.245 229.875 175.245C229.875 175.245 220.296 134.375 222.851 126.712C225.405 119.049 227.321 92.8674 227.321 92.8674C227.321 92.8674 216.465 81.3729 206.886 81.3729Z" fill="#8985A8"/>
<path d="M170.486 92.2288L166.016 93.506C166.016 93.506 156.437 123.519 160.269 124.797C164.1 126.074 174.956 128.628 176.234 128.628C177.511 128.628 170.486 92.2288 170.486 92.2288Z" fill="#8985A8"/>
<path d="M217.104 89.0359L227.321 92.8674C227.321 92.8674 240.731 117.772 237.538 120.965C234.345 124.158 220.296 127.351 220.296 127.351L217.104 89.0359Z" fill="#8985A8"/>
<path d="M191.83 44.0363C190.821 43.8535 189.784 43.8993 188.795 44.1703C188.003 44.5208 187.275 44.9988 186.638 45.5853C185.482 46.5061 184.248 47.3237 182.95 48.0286C181.915 48.5904 180.803 49.1103 180.08 50.0401C179.739 50.51 179.466 51.0262 179.271 51.5731C178.026 54.7513 177.692 58.2134 178.305 61.5711C178.374 62.0482 178.517 62.5115 178.73 62.9439C179.394 64.1668 180.86 64.6487 182.095 65.2897C184.439 66.5067 186.216 68.556 188.139 70.3671C188.853 71.0801 189.656 71.6987 190.527 72.2077C193.271 73.7034 196.624 73.2155 199.703 72.6866C199.922 72.6861 200.138 72.6425 200.339 72.5583C200.54 72.474 200.723 72.3507 200.876 72.1955C201.03 72.0403 201.151 71.8563 201.233 71.6541C201.315 71.4518 201.356 71.2353 201.354 71.0171L203.785 60.0842C204.225 58.4644 204.435 56.7905 204.408 55.112C204.238 52.4581 202.801 48.7817 200.854 46.8965C198.584 44.6999 194.796 44.3504 191.83 44.0363Z" fill="#2F2E41"/>
<path opacity="0.1" d="M205.5 309.989C231.734 309.989 253 306.519 253 302.239C253 297.959 231.734 294.489 205.5 294.489C179.266 294.489 158 297.959 158 302.239C158 306.519 179.266 309.989 205.5 309.989Z" fill="#6C63FF"/>
</g>
<path opacity="0.1" d="M231.658 76.3377C180.511 -33.261 48.4395 -13.495 9.21333 64.1601C-19.7489 121.496 27.0736 173.759 53.8644 222.469C80.6552 271.18 176.453 261.438 231.658 265.497C286.863 269.556 282.804 185.936 231.658 76.3377Z" fill="#6C63FF"/>
<defs>
<linearGradient id="paint0_linear" x1="93.6663" y1="308.782" x2="93.6663" y2="43.6473" gradientUnits="userSpaceOnUse">
<stop stop-color="#808080" stop-opacity="0.25"/>
<stop offset="0.54" stop-color="#808080" stop-opacity="0.12"/>
<stop offset="1" stop-color="#808080" stop-opacity="0.1"/>
</linearGradient>
<clipPath id="clip0">
<rect width="100" height="269" fill="white" transform="translate(38 43.4889)"/>
</clipPath>
<clipPath id="clip1">
<rect width="95" height="266.5" fill="white" transform="translate(158 43.4889)"/>
</clipPath>
</defs>
</svg>
