<svg width="315" height="258" viewBox="0 0 315 258" fill="none" xmlns="http://www.w3.org/2000/svg">
<g clip-path="url(#clip0)">
<path opacity="0.1" d="M307.307 149.172C307.307 149.367 307.307 149.563 307.307 149.755C307.272 153.126 307.073 156.489 306.707 159.843C306.709 159.863 306.709 159.883 306.707 159.903C306.678 160.182 306.646 160.458 306.614 160.737C306.56 161.208 306.502 161.676 306.438 162.147C305.691 167.88 304.455 173.54 302.743 179.063C300.45 186.526 297.209 193.664 293.098 200.302C291.833 202.332 290.486 204.296 289.057 206.195C288.294 207.201 287.516 208.185 286.711 209.153C286.147 209.83 285.573 210.497 284.987 211.153L284.622 211.556C281.542 214.938 278.222 218.093 274.688 220.997C268.92 225.778 262.71 229.937 256.4 233.795C256.041 234.017 255.679 234.234 255.317 234.436C255.292 234.455 255.265 234.471 255.237 234.484C246.662 239.669 237.769 244.348 228.608 248.094C218.578 252.205 208.221 255.195 197.595 256.502C182.784 258.323 167.793 256.842 153.072 254.298C140.829 252.194 128.733 249.304 116.861 245.646L114.907 245.034C113.894 244.711 112.882 244.382 111.872 244.047C105.769 242.028 99.7334 239.785 93.7667 237.317C78.781 231.145 64.4649 223.458 51.0414 214.376C49.3324 213.227 47.6479 212.052 45.9879 210.851C43.6679 209.181 41.3756 207.461 39.1111 205.692L37.714 204.609C31.7878 199.969 26.2355 194.87 21.1084 189.359C14.2124 181.854 8.31933 173.388 4.44512 163.723C3.83414 162.204 3.27442 160.656 2.76598 159.08L2.71791 158.923C2.46155 158.122 2.22442 157.321 2.00652 156.487C1.68607 155.295 1.40514 154.088 1.16374 152.866C1.11247 152.632 1.06761 152.399 1.02595 152.161C0.260042 148.049 -0.0782298 143.868 0.0165382 139.686C0.0966838 136.022 0.525888 132.374 1.29833 128.791C2.08894 125.077 3.30729 121.467 4.929 118.034C6.39454 114.946 8.26183 112.066 10.4824 109.468C12.0427 107.652 13.7975 106.012 15.7153 104.578C19.1921 101.989 23.0471 100.185 27.0431 98.7588C28.9209 98.0859 30.8244 97.4963 32.7374 96.9483C34.0929 96.5574 35.4548 96.1856 36.8103 95.8203L40.8095 94.7404C43.3731 94.0418 45.9367 93.324 48.4618 92.5485C55.345 90.4464 62.0904 87.9021 68.3296 84.108C69.3165 83.5087 70.3227 82.8518 71.3289 82.1468C72.6107 81.256 73.8733 80.2882 75.123 79.2436C76.3856 78.1861 77.6225 77.0549 78.8018 75.8564C78.9844 75.6706 79.1639 75.4847 79.3433 75.2956C80.3047 74.283 81.2372 73.2223 82.1024 72.12C82.5254 71.5816 82.9356 71.0337 83.3265 70.4761C83.8681 69.7038 84.3808 68.9187 84.855 68.1112C87.2328 64.0736 88.7004 59.6193 88.5274 54.9248C88.5021 54.1513 88.4325 53.3799 88.3191 52.6144C87.9025 49.7848 87.5019 47.0226 87.2071 44.3212C85.9702 33.1472 86.4925 23.0146 94.8786 13.4941C105.306 1.65999 121.671 -0.752985 136.569 0.192336C179.64 2.91614 218.85 27.5073 253.308 56.7834C256.288 59.3128 259.232 61.8764 262.139 64.4741C262.872 65.1278 263.606 65.7858 264.341 66.4481C269.789 71.3541 275.153 76.4428 280.149 81.8937C280.552 82.3359 280.956 82.7781 281.353 83.2235C281.597 83.4991 281.844 83.7715 282.084 84.0503C283.642 85.8127 285.153 87.6179 286.618 89.4658C290.544 94.3716 294.011 99.6277 296.975 105.168C301.514 113.862 304.587 123.246 306.07 132.941C306.627 136.462 306.994 140.01 307.169 143.57C307.223 144.618 307.258 145.669 307.278 146.717C307.278 147.053 307.278 147.387 307.278 147.723C307.31 148.21 307.31 148.685 307.307 149.172Z" fill="#6C63FF"/>
<path d="M126.249 143.798L121.122 235.058L126.249 235.125L130.415 142.516L126.249 143.798Z" fill="#3F3D56"/>
<path d="M107.343 190.035H43.8945V203.814H107.343V190.035Z" fill="#6C63FF"/>
<path d="M111.51 202.209V210.861H45.9686C43.6486 209.19 41.3563 207.471 39.0918 205.702V202.209H111.51Z" fill="#3F3D56"/>
<path d="M124.596 182.517C124.417 183.347 124.183 184.168 123.936 184.985C123.208 187.346 122.334 189.676 122.164 192.131C121.936 195.374 122.805 199.145 120.562 201.501C119.985 202.109 119.232 202.565 118.716 203.215C118.636 203.317 118.563 203.424 118.498 203.535C118.036 204.298 117.982 205.227 117.976 206.099C117.981 207.958 118.102 209.815 118.338 211.659C119.097 218.004 120.597 224.361 118.626 230.351C118.269 231.389 117.853 232.407 117.379 233.398C116.418 235.513 115.37 237.599 115.056 239.89C114.826 241.589 114.896 243.338 114.883 245.065C113.871 244.743 112.859 244.414 111.849 244.078C105.745 242.06 99.71 239.817 93.7433 237.349C93.7593 237.263 93.7753 237.173 93.7881 237.086C94.2464 234.234 93.6183 231.318 92.8556 228.537C91.2534 222.644 88.9846 216.808 87.6419 210.874C87.1012 208.556 86.7466 206.198 86.5813 203.824C86.5428 203.292 86.5204 202.757 86.5172 202.222C86.5012 201.523 86.5172 200.824 86.546 200.119C86.6133 198.713 86.6742 197.043 85.5494 196.188C84.931 195.723 84.1138 195.643 83.3928 195.361C82.0021 194.819 81.0503 193.563 79.948 192.557C79.4222 192.047 78.7801 191.672 78.0772 191.466C77.3744 191.259 76.6318 191.227 75.9136 191.371C68.7099 193.022 63.4161 199.133 56.7124 202.222C56.4528 202.343 56.1932 202.459 55.9305 202.568C55.0633 202.885 54.238 203.307 53.4726 203.824C52.9348 204.197 52.5448 204.747 52.3703 205.378C52.2005 206.057 52.3479 206.769 52.4312 207.467C52.566 208.603 52.5173 209.753 52.287 210.874C52.2001 211.308 52.0856 211.736 51.9441 212.155C51.6877 212.915 51.3449 213.658 51.018 214.399C49.3089 213.249 47.6245 212.074 45.9645 210.874C43.6445 209.203 41.3522 207.483 39.0877 205.715L37.713 204.609C31.7868 199.969 26.2345 194.869 21.1074 189.359C21.79 187.436 22.777 185.648 23.2512 183.677C23.5204 182.546 23.6197 181.37 23.9914 180.271C24.4201 179.131 25.0163 178.062 25.7603 177.099C28.4852 173.298 31.8126 169.969 35.6109 167.242C39.5812 164.396 44.1668 162.114 47.7398 158.884C49.1898 157.615 50.4398 156.134 51.4474 154.491C51.5083 154.392 51.566 154.286 51.6172 154.17C51.8961 153.59 52.0894 152.973 52.1908 152.338C52.4472 150.902 52.4087 149.325 52.5369 147.947C56.8895 148.701 61.3268 148.835 65.7169 148.345C70.8281 147.771 75.827 146.352 80.9382 145.8C81.3227 145.756 81.7105 145.72 82.0982 145.688C83.7357 145.557 85.3764 145.528 87.0203 145.547C88.395 145.547 89.7697 145.608 91.1444 145.653L106.279 146.166C107.955 146.223 109.666 146.287 111.227 146.9C113.079 147.627 114.563 149.075 115.752 150.668C115.902 150.873 116.053 151.078 116.194 151.29C117.172 152.717 117.957 154.267 118.527 155.901C118.588 156.068 118.645 156.221 118.7 156.404C118.844 156.849 118.969 157.298 119.081 157.753C119.168 158.109 119.244 158.465 119.315 158.823C119.667 160.599 119.876 162.412 120.433 164.127C120.472 164.252 120.513 164.377 120.558 164.499C121.228 166.376 122.34 168.059 123.18 169.863C123.785 171.169 124.247 172.537 124.558 173.942C125.185 176.765 125.198 179.689 124.596 182.517Z" fill="#35323E"/>
<path d="M78.5921 67.8389C77.2399 66.7622 75.2787 67.5505 73.6957 68.2458C72.3685 68.832 71.0022 69.3256 69.6068 69.7231C69.3212 69.833 69.0116 69.8651 68.7095 69.816C68.0686 69.6622 67.7995 68.9028 67.322 68.4413C66.4921 67.6434 65.1333 67.8325 64.0631 68.2651C62.9928 68.6977 61.9353 69.3225 60.7881 69.2264C59.564 69.1303 58.5001 68.2266 57.2632 68.1978C55.0841 68.1465 53.2544 70.8318 51.1939 70.1205C49.9377 69.6878 48.9507 68.0536 47.7138 68.5182C46.7525 68.8835 46.6659 70.2134 46.0859 71.0818C45.4034 72.0944 44.0735 72.3796 42.9359 72.8282C39.3501 74.2446 36.9756 78.2406 37.4435 82.0667C37.703 84.1785 38.7253 86.114 39.4014 88.1296C41.4074 93.9906 40.7184 100.601 43.2468 106.254C43.5672 105.953 43.7467 105.841 44.0575 105.543C43.2581 107.201 43.1039 109.097 43.6249 110.862C43.8909 111.75 44.3235 112.577 44.6503 113.445C44.9899 114.419 45.2639 115.415 45.4707 116.425L48.2586 128.724C49.3481 133.531 50.4408 138.337 50.6299 143.259C50.7476 146.46 50.5025 149.663 49.8993 152.809C54.9495 151.972 59.5704 149.732 64.6879 149.761C66.5658 149.761 68.4275 150.082 70.2893 150.338C75.7175 151.098 81.1929 151.469 86.6738 151.45C87.5263 151.499 88.38 151.379 89.1861 151.098C89.8911 150.796 90.4679 150.261 91.1345 149.873C92.4387 149.104 94.0185 148.912 95.5214 148.912C102.376 148.787 108.98 151.296 115.79 152.181C118.478 146.538 118.638 139.776 116.575 133.877C115.963 132.124 115.139 130.416 114.896 128.573C114.798 127.441 114.772 126.303 114.819 125.167C114.808 122.259 114.284 119.375 113.271 116.649C112.874 115.582 112.396 114.496 112.438 113.358C112.479 112.221 113.04 111.16 113.591 110.154C114.71 108.103 115.835 106.033 117.414 104.303C119.033 102.514 121.058 101.153 123.061 99.8163L128.005 96.4965C127.329 92.2249 126.457 87.7258 124.647 83.7972C122.836 79.8685 120.129 76.257 116.466 73.9594C115.231 73.2165 113.939 72.5736 112.601 72.0367C110.73 71.2484 108.782 70.5531 106.753 70.4345C104.446 70.3031 102.174 70.9216 99.8955 71.3061C92.7239 72.5142 84.2833 72.3668 78.5921 67.8389Z" fill="#6C63FF"/>
<path d="M132.659 141.965L130.307 144.935L125.872 150.533L120.744 157.003L119.312 158.811H116.534L47.7369 158.891L4.65273 158.939H2.73005C2.47369 158.138 2.23656 157.337 2.01865 156.503C1.69821 155.311 1.41728 154.104 1.17588 152.882C1.12461 152.648 1.07974 152.414 1.03809 152.177L16.6695 141.958L22.5465 141.926L40.5236 141.824L50.5633 141.766H52.3962H53.5466L60.2376 141.731L111.234 141.439L113.842 141.423H114.973L117.969 141.407L129.118 141.343L131.258 140.529L131.415 140.696L132.659 141.965Z" fill="#3F3D56"/>
<path d="M131.698 140.362L131.432 140.683L129.682 142.743L126.081 146.996L118.528 155.901L51.6182 154.193L1.16374 152.911C1.11247 152.677 1.06761 152.443 1.02595 152.206C0.260042 148.094 -0.0782298 143.913 0.0165382 139.731L5.61155 136.866L6.89334 136.206L16.8689 131.079L25.6235 126.593L48.4586 129.56L53.5153 130.217L55.8033 130.512L59.1519 130.948L59.4339 130.986L111.946 137.796L117.749 138.549L121.155 138.991L131.653 140.356L131.698 140.362Z" fill="#504F60"/>
<path d="M120.802 155.744L120.748 157.003L120.427 164.114L118.703 203.209L118.338 211.659L117.377 233.398L116.835 245.678L114.88 245.065C113.868 244.743 112.856 244.414 111.846 244.078L116.534 158.839L116.633 157.051L118.697 156.41L120.802 155.744Z" fill="#3F3D56"/>
<path d="M4.80016 155.651L4.65596 158.942L4.44447 163.749C3.83348 162.23 3.27376 160.682 2.76532 159.106L2.71725 158.949C2.4609 158.147 2.22376 157.346 2.00586 156.513L4.80016 155.651Z" fill="#3F3D56"/>
<path d="M88.597 107.199C96.738 107.199 103.338 98.3042 103.338 87.3315C103.338 76.3588 96.738 67.4637 88.597 67.4637C80.456 67.4637 73.8564 76.3588 73.8564 87.3315C73.8564 98.3042 80.456 107.199 88.597 107.199Z" fill="#A1616A"/>
<path opacity="0.1" d="M88.597 107.199C96.738 107.199 103.338 98.3042 103.338 87.3315C103.338 76.3588 96.738 67.4637 88.597 67.4637C80.456 67.4637 73.8564 76.3588 73.8564 87.3315C73.8564 98.3042 80.456 107.199 88.597 107.199Z" fill="black"/>
<path d="M90.6796 95.8234C102.006 95.8234 111.188 86.6414 111.188 75.3148C111.188 63.9882 102.006 54.8062 90.6796 54.8062C79.3529 54.8062 70.1709 63.9882 70.1709 75.3148C70.1709 86.6414 79.3529 95.8234 90.6796 95.8234Z" fill="#A1616A"/>
<path d="M91.0869 43.7059C89.8348 43.8058 88.5915 43.9953 87.3666 44.2731C84.1236 45.0614 81.3197 46.8111 78.5895 48.5287C77.3654 49.3009 76.106 50.1053 75.3466 51.2396C73.9814 53.2745 74.5102 55.8637 73.7443 58.1229C73.347 59.2829 72.6163 60.3243 71.9979 61.4042C70.2963 64.3652 69.4055 67.6177 68.5306 70.8382C68.3512 71.5047 68.2999 72.4084 69.0273 72.6648C69.4462 72.7518 69.8819 72.7024 70.2707 72.5238C72.5683 71.7643 75.4876 71.5464 77.1923 73.0878C78.8971 74.6291 78.7529 77.3625 80.7814 78.5354C83.1046 79.8909 86.7321 78.2534 88.8406 79.8524C89.7443 80.5382 90.0711 81.6373 90.8114 82.4641C92.5354 84.3867 95.852 84.2938 98.6111 83.9061C100.194 83.6818 102.136 83.5312 103.097 84.6431C103.559 85.1686 103.69 85.8896 104.225 86.3639C105.187 87.2227 106.946 86.7869 107.885 85.9057C108.824 85.0244 109.272 83.8324 110.054 82.8422C111.576 80.9195 114.252 79.8716 115.822 77.9714C117.136 76.3691 117.534 74.3631 117.892 72.4276L119.229 65.2528C119.77 62.3432 120.264 59.1643 118.626 56.6007C118.043 55.6778 117.207 54.8831 116.704 53.9282C116.367 53.2873 116.178 52.6112 115.787 52.0055C115.323 51.3746 114.77 50.8153 114.143 50.3456L110.98 47.7275C109.899 46.781 108.743 45.9237 107.523 45.164C103.008 42.5331 96.2462 43.2253 91.0869 43.7059Z" fill="#464353"/>
<path d="M23.5366 96.5349C22.7771 97.3424 22.0753 98.214 21.2614 98.9703C20.5454 99.6071 19.7967 100.206 19.0183 100.765C17.7621 101.705 16.5337 102.678 15.3331 103.684C14.0805 104.674 12.9471 105.807 11.9556 107.058C10.2444 109.356 9.43368 112.214 7.83144 114.589C6.41506 116.694 4.41867 118.357 2.97986 120.447C2.34865 121.325 1.87981 122.31 1.59553 123.353C1.38333 124.363 1.28764 125.394 1.31033 126.426C1.28149 128.118 1.25585 129.829 1.60194 131.486C1.94802 133.143 2.70748 134.771 4.0085 135.857C5.21658 136.866 6.77717 137.331 8.3057 137.716C9.094 137.911 9.94639 138.094 10.6962 137.783C11.2449 137.506 11.7212 137.104 12.087 136.61L15.9868 132.124C18.5953 129.112 21.3063 126.035 24.8857 124.273C26.0072 123.725 27.1897 123.312 28.3145 122.78C33.0827 120.482 36.4538 115.778 37.7612 110.651C38.0817 109.398 38.2868 108.119 38.4951 106.84L39.0591 103.335C39.1024 103.159 39.1024 102.975 39.0591 102.8C38.9707 102.602 38.8286 102.433 38.6489 102.313C35.9325 100.119 33.3891 97.719 31.0415 95.1345C30.4839 94.5193 29.9615 93.6765 29.3174 93.1606C28.5099 92.5197 28.5708 92.5677 27.5998 93.1606C26.1062 94.1063 24.7406 95.2404 23.5366 96.5349Z" fill="#A1616A"/>
<path d="M50.2131 119.863C50.1807 119.789 50.1336 119.722 50.0746 119.666C50.0155 119.61 49.9459 119.567 49.8697 119.539C49.7936 119.511 49.7125 119.498 49.6314 119.502C49.5503 119.506 49.4709 119.527 49.3978 119.562C49.3248 119.597 49.2597 119.647 49.2064 119.709C49.1531 119.77 49.1127 119.841 49.0877 119.918C49.0627 119.996 49.0535 120.077 49.0608 120.158C49.0681 120.239 49.0916 120.317 49.13 120.389L48.8096 120.546L58.3653 140.132L60.0925 139.289L50.5368 119.69L50.2131 119.863Z" fill="#3F3D56"/>
<path opacity="0.04" d="M23.5366 96.5349C22.7771 97.3424 22.0753 98.214 21.2614 98.9703C20.5454 99.6071 19.7967 100.206 19.0183 100.765C17.7621 101.705 16.5337 102.678 15.3331 103.684C14.0805 104.674 12.9471 105.807 11.9556 107.058C10.2444 109.356 9.43368 112.214 7.83144 114.589C6.41506 116.694 4.41867 118.357 2.97986 120.447C2.34865 121.325 1.87981 122.31 1.59553 123.353C1.38333 124.363 1.28764 125.394 1.31033 126.426C1.28149 128.118 1.25585 129.829 1.60194 131.486C1.94802 133.143 2.70748 134.771 4.0085 135.857C5.21658 136.866 6.77717 137.331 8.3057 137.716C9.094 137.911 9.94639 138.094 10.6962 137.783C11.2449 137.506 11.7212 137.104 12.087 136.61L15.9868 132.124C18.5953 129.112 21.3063 126.035 24.8857 124.273C26.0072 123.725 27.1897 123.312 28.3145 122.78C33.0827 120.482 36.4538 115.778 37.7612 110.651C38.0817 109.398 38.2868 108.119 38.4951 106.84L39.0591 103.335C39.1024 103.159 39.1024 102.975 39.0591 102.8C38.9707 102.602 38.8286 102.433 38.6489 102.313C35.9325 100.119 33.3891 97.719 31.0415 95.1345C30.4839 94.5193 29.9615 93.6765 29.3174 93.1606C28.5099 92.5197 28.5708 92.5677 27.5998 93.1606C26.1062 94.1063 24.7406 95.2404 23.5366 96.5349Z" fill="black"/>
<path d="M134.008 132.63C133.976 134.675 133.896 136.78 133.047 138.645C132.682 139.452 132.115 140.247 131.265 140.513C130.751 140.632 130.22 140.651 129.698 140.571C123.412 140.018 117.077 140.521 110.955 142.058C112.59 138.789 111.651 134.87 112.103 131.243C112.228 130.252 112.455 129.278 112.542 128.285C112.862 124.76 111.353 121.337 110.661 117.857C110.06 114.845 110.06 111.744 110.661 108.731C110.778 107.956 111.045 107.21 111.446 106.536C111.915 105.88 112.532 105.343 113.247 104.969C115.842 103.492 118.903 103.322 121.819 103.517C123.783 103.649 127.721 103.463 129.359 104.671C131.15 105.994 131.717 110.439 132.201 112.493C132.926 115.643 133.418 118.843 133.675 122.065C133.989 125.577 134.056 129.105 134.008 132.63Z" fill="#A1616A"/>
<path d="M19.2197 139.725L30.7558 147.415L82.6684 145.493L48.3805 139.725H19.2197Z" fill="white"/>
<path d="M34.4318 78.6186C32.5379 80.2882 30.9325 82.2557 29.138 84.0342C26.6769 86.476 23.8794 88.5525 21.0947 90.6194C22.0932 90.8985 23.002 91.4321 23.7323 92.1679C24.4625 92.9038 24.9891 93.8167 25.2605 94.8173C25.3823 95.2883 25.4432 95.7786 25.581 96.2401C25.9014 97.3328 26.6064 98.2749 27.3627 99.1241C30.612 102.787 35.1592 105.498 37.0755 110.019C37.138 110.239 37.2736 110.431 37.46 110.564C37.6159 110.633 37.7891 110.653 37.9567 110.622C39.6903 110.439 41.017 109.042 42.1225 107.683C44.4297 104.799 46.4325 101.614 47.5701 98.0954C48.7077 94.5769 48.8904 90.6867 47.6502 87.2002C47.0318 85.4634 46.0768 83.8676 45.1283 82.2878C44.2973 80.9056 43.4684 79.5255 42.6416 78.1476C42.209 77.4202 41.6579 75.9429 40.8087 75.584C38.9757 74.7957 35.6078 77.4426 34.4318 78.6186Z" fill="#6C63FF"/>
<path d="M128.816 99.3291L131.543 105.738C128.575 104.701 125.402 104.385 122.287 104.817C119.172 105.249 116.205 106.416 113.63 108.222C112.076 109.333 110.65 110.731 109.949 112.506C109.602 112.572 109.244 112.538 108.916 112.41C108.588 112.281 108.302 112.062 108.093 111.779C107.683 111.203 107.445 110.523 107.407 109.817C107.154 107.356 108.087 104.943 109.01 102.643C109.439 101.566 109.881 100.467 110.644 99.5919C111.407 98.7171 112.419 98.1403 113.432 97.5955C116.662 95.8089 120.046 94.3139 123.542 93.1285C125.016 92.651 126.561 92.6606 127.387 94.0385C128.345 95.6824 128.067 97.5795 128.816 99.3291Z" fill="#6C63FF"/>
<path d="M19.2878 118.559C19.9704 119.104 20.5696 119.748 21.2714 120.267C22.0135 120.783 22.8033 121.226 23.6299 121.591L26.7895 123.11C27.7686 123.619 28.7931 124.035 29.8498 124.353C31.202 124.715 32.6216 124.75 33.9803 125.087C35.6947 125.51 37.2617 126.391 38.9505 126.901C40.6392 127.41 42.6164 127.493 44.0264 126.433C44.9076 125.769 45.5741 124.673 46.6668 124.51C47.3718 124.417 48.0512 124.757 48.6793 125.087L56.9019 129.41C58.0107 129.993 59.1835 130.64 59.7635 131.752C60.3436 132.864 59.9526 134.553 58.7317 134.841C58.3062 134.89 57.8782 134.915 57.4499 134.915C57.0269 134.966 56.5655 135.216 56.5078 135.642C56.5057 135.907 56.5754 136.167 56.7097 136.395C57.0782 137.241 57.1871 138.254 56.7578 139.074C56.3284 139.895 55.2741 140.404 54.4313 140.036C54.5755 141.276 53.2264 142.144 52.0247 142.474C48.9933 143.304 45.7792 142.795 42.6805 142.269C41.4628 142.064 40.2258 141.853 39.1171 141.308C38.5852 141.048 38.0917 140.715 37.5533 140.475C36.0761 139.818 34.3969 139.904 32.7819 139.933C25.3122 140.065 17.9067 138.68 10.562 137.302C9.20011 137.046 7.79976 136.774 6.63653 136.021C4.3934 134.559 3.56023 131.56 3.92875 128.907C4.29726 126.253 5.64314 123.85 6.96659 121.517L8.68099 118.495C8.9051 118.032 9.21878 117.618 9.60388 117.278C12.1258 115.352 17.128 116.823 19.2878 118.559Z" fill="#A1616A"/>
<path opacity="0.04" d="M19.2878 118.559C19.9704 119.104 20.5696 119.748 21.2714 120.267C22.0135 120.783 22.8033 121.226 23.6299 121.591L26.7895 123.11C27.7686 123.619 28.7931 124.035 29.8498 124.353C31.202 124.715 32.6216 124.75 33.9803 125.087C35.6947 125.51 37.2617 126.391 38.9505 126.901C40.6392 127.41 42.6164 127.493 44.0264 126.433C44.9076 125.769 45.5741 124.673 46.6668 124.51C47.3718 124.417 48.0512 124.757 48.6793 125.087L56.9019 129.41C58.0107 129.993 59.1835 130.64 59.7635 131.752C60.3436 132.864 59.9526 134.553 58.7317 134.841C58.3062 134.89 57.8782 134.915 57.4499 134.915C57.0269 134.966 56.5655 135.216 56.5078 135.642C56.5057 135.907 56.5754 136.167 56.7097 136.395C57.0782 137.241 57.1871 138.254 56.7578 139.074C56.3284 139.895 55.2741 140.404 54.4313 140.036C54.5755 141.276 53.2264 142.144 52.0247 142.474C48.9933 143.304 45.7792 142.795 42.6805 142.269C41.4628 142.064 40.2258 141.853 39.1171 141.308C38.5852 141.048 38.0917 140.715 37.5533 140.475C36.0761 139.818 34.3969 139.904 32.7819 139.933C25.3122 140.065 17.9067 138.68 10.562 137.302C9.20011 137.046 7.79976 136.774 6.63653 136.021C4.3934 134.559 3.56023 131.56 3.92875 128.907C4.29726 126.253 5.64314 123.85 6.96659 121.517L8.68099 118.495C8.9051 118.032 9.21878 117.618 9.60388 117.278C12.1258 115.352 17.128 116.823 19.2878 118.559Z" fill="black"/>
<path d="M117.107 124.096C115.438 124.885 113.521 124.962 111.778 125.567C110.035 126.173 108.555 127.262 106.956 128.15C102.79 130.477 97.983 131.355 93.2628 132.191C90.4012 132.704 87.4947 133.216 84.6107 133.095C80.7077 132.928 76.9584 131.627 73.1771 130.646C69.3959 129.666 65.3614 129.006 61.6154 130.108C59.6592 130.704 57.871 131.752 56.3956 133.168C54.9202 134.583 53.7992 136.327 53.1235 138.257C52.3384 140.561 52.2295 143.044 52.3801 145.473C53.1684 146.053 54.2707 145.249 54.7001 144.368C55.1295 143.487 55.3635 142.407 56.1966 141.894C57.6419 142.384 57.9943 144.31 59.1864 145.262C59.9298 145.858 60.9232 146.015 61.8685 146.15L66.7394 146.842C67.9122 147.008 69.2741 147.121 70.1233 146.294C70.5367 145.893 70.7642 145.332 71.1423 144.903C71.9178 144.044 73.2124 143.897 74.366 144.012C77.9678 144.371 81.3453 146.707 84.9215 146.153C86.1521 145.964 87.2961 145.438 88.4689 145.025C95.4194 142.57 103.142 144.064 110.375 142.657C113.134 142.122 115.79 141.173 118.415 140.173C119.841 139.632 121.283 139.065 122.5 138.148C123.654 137.261 124.564 136.096 125.144 134.761C125.725 133.427 125.958 131.967 125.82 130.518C125.552 128.31 124.45 126.288 122.741 124.865C122.177 124.385 121.437 123.465 120.76 123.164C119.469 122.597 118.203 123.58 117.107 124.096Z" fill="#A1616A"/>
<g opacity="0.1">
<path opacity="0.1" d="M107.743 83.1593C107.208 82.6851 107.077 81.9641 106.616 81.4385C105.654 80.3266 103.712 80.4772 102.129 80.7015C99.3702 81.0892 96.0408 81.179 94.3296 79.2595C93.5893 78.4327 93.2625 77.3368 92.3588 76.6479C90.2503 75.0456 86.6228 76.6863 84.2996 75.3308C82.2711 74.1484 82.4025 71.4053 80.7106 69.8832C79.0186 68.3611 76.0865 68.5598 73.7889 69.3192C73.4002 69.4978 72.9644 69.5472 72.5456 69.4602C71.8182 69.2039 71.8694 68.3002 72.0489 67.6337C72.9237 64.4132 73.8145 61.1606 75.5161 58.1997C76.1346 57.1198 76.8652 56.0783 77.2626 54.9183C77.9579 52.8867 77.6022 50.5891 78.5155 48.6664C77.5349 49.3073 76.5928 50.0059 75.9872 50.9095C74.6221 52.9444 75.1508 55.5336 74.3849 57.7927C73.9876 58.9527 73.257 59.9942 72.6385 61.0741C70.9369 64.035 70.0461 67.2876 69.1713 70.5081C68.9918 71.1746 68.9405 72.0783 69.6679 72.3346C70.0868 72.4216 70.5225 72.3722 70.9113 72.1936C73.2089 71.4342 76.1282 71.2163 77.8329 72.7576C79.5377 74.299 79.3935 77.0324 81.422 78.2052C83.7452 79.5607 87.3727 77.9232 89.4812 79.5223C90.3849 80.208 90.7117 81.3072 91.452 82.1339C93.176 84.0566 96.4926 83.9637 99.2516 83.5759C100.835 83.3516 102.777 83.201 103.738 84.313C104.199 84.8385 104.331 85.5595 104.866 86.0338C105.827 86.8926 107.586 86.4568 108.525 85.5755C109.127 84.9486 109.643 84.2437 110.057 83.4798C109.224 83.7329 108.336 83.6945 107.743 83.1593Z" fill="black"/>
<path opacity="0.1" d="M113.582 79.6344C113.376 79.9002 113.185 80.1773 113.009 80.4643C114.239 79.5863 115.544 78.766 116.463 77.6476C116.702 77.3582 116.916 77.0495 117.104 76.7247C115.826 77.6412 114.492 78.484 113.582 79.6344Z" fill="black"/>
</g>
<path d="M178.322 143.089L179.284 235.058L183.77 234.417L182.809 143.089H178.322Z" fill="#3F3D56"/>
<path d="M205.239 159.753L206.201 251.721L210.687 251.08L209.726 159.753H205.239Z" fill="#3F3D56"/>
<path d="M289.047 206.211L289.027 204.446V203.395L288.858 187.218L288.592 161.929L288.547 159.746H284.061L284.083 161.848L284.224 175.394L284.285 181.258L284.336 186.007L284.419 194.217L284.471 199.059V199.572L284.538 205.936L284.596 211.547L284.961 211.143C285.548 210.487 286.123 209.821 286.685 209.143L289.047 206.211Z" fill="#3F3D56"/>
<path d="M200.273 174.654L197.709 178.486L200.273 195.947L222.063 201.911H257.312L278.462 203.189L288.537 196.293L286.793 184.45L279.103 174.654H200.273Z" fill="#6C63FF"/>
<path d="M197.71 178.486L196.428 189.131C196.428 189.131 189.698 210.002 243.854 208.724C298.01 207.445 288.717 203.186 288.717 203.186L288.396 190.836C288.396 190.836 290.284 196.681 262.76 195.89C235.237 195.098 209.566 192.541 209.566 192.541C209.566 192.541 199.953 194.243 197.71 178.486Z" fill="#3F3D56"/>
<path d="M242.829 83.0696C239.74 84.4763 237.4 87.2033 235.833 90.2188C234.266 93.2342 233.385 96.5444 232.517 99.8322C231.6 103.299 230.681 106.776 230.206 110.33C229.36 116.649 229.995 123.292 232.898 128.967C235.801 134.642 241.166 139.222 247.446 140.314C249.872 140.741 252.365 140.654 254.817 140.401C259.248 139.932 263.612 138.97 267.83 137.533C272.236 136.043 276.822 133.748 278.783 129.522C279.921 127.07 280.017 124.276 279.962 121.578C279.811 114.224 278.7 106.921 276.658 99.8546C276.066 97.8037 275.377 95.7369 274.12 94.0096C272.864 92.2824 271.147 91.0167 269.394 89.8438C261.899 84.7968 252.048 78.8781 242.829 83.0696Z" fill="#FBBEBE"/>
<path opacity="0.05" d="M242.829 83.0696C239.74 84.4763 237.4 87.2033 235.833 90.2188C234.266 93.2342 233.385 96.5444 232.517 99.8322C231.6 103.299 230.681 106.776 230.206 110.33C229.36 116.649 229.995 123.292 232.898 128.967C235.801 134.642 241.166 139.222 247.446 140.314C249.872 140.741 252.365 140.654 254.817 140.401C259.248 139.932 263.612 138.97 267.83 137.533C272.236 136.043 276.822 133.748 278.783 129.522C279.921 127.07 280.017 124.276 279.962 121.578C279.811 114.224 278.7 106.921 276.658 99.8546C276.066 97.8037 275.377 95.7369 274.12 94.0096C272.864 92.2824 271.147 91.0167 269.394 89.8438C261.899 84.7968 252.048 78.8781 242.829 83.0696Z" fill="black"/>
<path d="M239.358 123.404C240.252 124.633 241.333 125.715 242.562 126.609C245.613 128.717 249.529 129.003 253.233 129.118C256.207 129.208 259.616 129.038 261.481 126.718C262.321 125.673 262.699 124.34 263.039 123.042C265.135 115.073 266.624 106.956 267.493 98.762L275.978 98.7908C279.651 114.515 279.35 130.861 279.029 147.009L278.564 170.555L273.098 169.975C260.116 168.6 247.116 167.226 234.064 166.988C226.417 166.848 218.767 167.1 211.146 167.745L223.05 132.348C224.595 127.746 226.155 123.084 226.517 118.248C227.04 111.234 225.072 103.828 227.799 97.3392C228.017 96.8168 228.293 96.2753 228.789 96.0029C229.286 95.7305 229.914 95.7978 230.485 95.8715C231.561 96.0157 234.852 95.8715 235.634 96.5605C236.788 97.5603 236.025 97.7109 235.618 99.3227C234.891 102.207 234.202 104.876 234.211 107.882C234.221 113.339 235.913 119.101 239.358 123.404Z" fill="#6C63FF"/>
<path d="M289.048 206.211C290.477 204.314 291.824 202.35 293.088 200.318C292.447 198.947 291.742 197.607 291.182 196.207C290.323 194.06 289.829 191.785 289.342 189.526C289.176 188.757 289.01 187.987 288.846 187.218C287.051 178.851 285.366 170.366 285.016 161.884C284.984 161.179 284.964 160.474 284.955 159.769C284.955 159.666 284.955 159.567 284.955 159.448C284.955 158.676 284.955 157.904 284.955 157.135C284.994 155.212 285.116 153.273 285.337 151.344C285.378 150.966 285.426 150.588 285.478 150.21C285.478 150.127 285.497 150.046 285.51 149.963L307.3 149.168L309.133 149.101C310.393 149.056 311.726 148.986 312.764 148.271C314.51 147.073 314.715 144.615 314.687 142.503C314.58 137.166 313.975 131.85 312.879 126.625C312.052 122.696 310.873 118.681 308.226 115.662C306.054 113.182 302.907 111.378 301.776 108.292C301.356 107.145 301.25 105.886 300.705 104.79C300.161 103.694 299.26 102.889 298.411 102.043C295.422 99.082 292.943 95.6476 291.073 91.8788C289.775 89.264 288.368 86.3799 286.673 84.5726C286.59 84.4797 286.506 84.3932 286.42 84.3098C284.978 82.8838 283.328 82.259 281.373 83.2299C281.021 83.4063 280.687 83.6144 280.373 83.8516C279.676 84.3839 279.039 84.9898 278.473 85.6589C276.498 87.9292 274.766 90.3994 273.304 93.0292C272.276 94.8808 271.393 96.8092 270.663 98.7973C270.087 100.368 269.611 101.973 269.237 103.604C268.962 104.812 268.744 106.033 268.571 107.257C267.93 111.859 267.93 116.55 268.02 121.209C268.116 125.491 268.305 129.781 268.693 134.047C268.789 135.078 268.896 136.109 269.013 137.139C269.248 139.175 269.539 141.204 269.885 143.227C270.023 144 270.164 144.772 270.321 145.541C270.359 145.746 270.401 145.951 270.442 146.153L270.462 146.24C270.885 148.027 271.213 149.836 271.445 151.658C271.471 151.887 271.49 152.114 271.503 152.341C271.557 153.388 271.548 154.438 271.477 155.484C271.404 156.721 271.288 157.955 271.231 159.192C271.231 159.41 271.231 159.625 271.208 159.833C271.192 160.458 271.208 161.083 271.208 161.708C271.273 163.202 271.451 164.69 271.74 166.159C272.281 168.889 273.214 171.527 274.512 173.99C274.634 174.221 274.759 174.449 274.884 174.673C276.508 177.576 278.559 180.239 280.062 183.21C281.359 185.883 282.327 188.703 282.946 191.608C283.16 192.568 283.363 193.529 283.555 194.493C283.853 196.031 284.119 197.582 284.391 199.133C284.417 199.286 284.446 199.453 284.475 199.594C284.837 201.651 285.218 203.699 285.708 205.708C285.994 206.878 286.314 208.031 286.689 209.166L289.048 206.211Z" fill="#464353"/>
<path d="M284.766 180.954C284.766 181.242 284.747 181.53 284.734 181.822C284.677 183.228 284.547 184.63 284.346 186.023C284.081 187.924 283.616 189.792 282.959 191.596C282.523 192.782 281.969 193.921 281.305 194.996C280.716 195.95 280.027 196.838 279.248 197.646C277.325 199.645 274.557 200.283 271.878 201.126C270.645 201.483 269.454 201.969 268.324 202.577C268.122 202.689 267.923 202.811 267.731 202.939L264.379 205.16C263.335 205.849 262.267 206.564 261.55 207.586C261.432 207.76 261.325 207.941 261.229 208.127C260.776 209.068 260.444 210.063 260.242 211.088C258.499 218.35 256.753 225.618 255.557 232.988C255.477 233.475 255.4 233.965 255.317 234.455L255.288 234.609C255.274 234.573 255.257 234.537 255.237 234.504C246.662 239.688 237.769 244.367 228.608 248.113L226.618 231.45C226.41 230.095 226.342 228.723 226.413 227.354C226.602 225.198 227.48 223.153 227.717 221.003C227.941 218.898 227.544 216.773 226.573 214.892C226.195 214.162 225.72 213.444 225.634 212.627C225.547 211.809 226.018 211.063 226.839 210.979C227.48 210.268 227.531 209.297 227.342 208.336C227.241 207.834 227.091 207.343 226.893 206.871C226.348 205.532 225.66 204.074 226.127 202.706C226.251 202.458 226.306 202.181 226.288 201.904C226.291 201.887 226.291 201.87 226.288 201.853C226.179 201.494 225.752 201.337 225.531 201.033C225.115 200.466 225.531 199.693 225.788 199.04C226.037 198.337 226.182 197.602 226.217 196.857C226.252 196.444 226.278 196.027 226.323 195.617C226.385 195.062 226.485 194.512 226.621 193.97C227.399 190.9 229.271 188.22 231.886 186.433C233.132 185.594 234.52 184.982 235.792 184.19C237.095 183.312 238.339 182.348 239.516 181.306C242.338 178.956 245.272 176.741 248.318 174.66C251.594 172.423 254.987 170.363 258.483 168.488C259.231 168.084 259.978 167.691 260.726 167.309C261.54 166.882 262.359 166.477 263.184 166.094C265.824 164.835 268.821 165.306 271.74 166.146C272.964 166.495 274.172 166.912 275.339 167.29C276.478 167.66 277.573 168.152 278.607 168.757C281.193 170.276 283.33 172.519 284.218 175.352C284.22 175.37 284.22 175.388 284.218 175.407C284.782 177.182 284.817 179.085 284.766 180.954Z" fill="#F86D70"/>
<path opacity="0.1" d="M284.766 180.954C284.766 181.242 284.747 181.53 284.734 181.822C284.677 183.228 284.547 184.63 284.346 186.023C284.081 187.924 283.616 189.792 282.959 191.596C282.523 192.782 281.969 193.921 281.305 194.996C280.716 195.95 280.027 196.838 279.248 197.646C277.325 199.645 274.557 200.283 271.878 201.126C270.645 201.483 269.454 201.969 268.324 202.577C268.122 202.689 267.923 202.811 267.731 202.939L264.379 205.16C263.335 205.849 262.267 206.564 261.55 207.586C261.432 207.76 261.325 207.941 261.229 208.127C260.776 209.068 260.444 210.063 260.242 211.088C258.499 218.35 256.753 225.618 255.557 232.988C255.477 233.475 255.4 233.965 255.317 234.455L255.288 234.609C255.274 234.573 255.257 234.537 255.237 234.504C246.662 239.688 237.769 244.367 228.608 248.113L226.618 231.45C226.41 230.095 226.342 228.723 226.413 227.354C226.602 225.198 227.48 223.153 227.717 221.003C227.941 218.898 227.544 216.773 226.573 214.892C226.195 214.162 225.72 213.444 225.634 212.627C225.547 211.809 226.018 211.063 226.839 210.979C227.48 210.268 227.531 209.297 227.342 208.336C227.241 207.834 227.091 207.343 226.893 206.871C226.348 205.532 225.66 204.074 226.127 202.706C226.251 202.458 226.306 202.181 226.288 201.904C226.291 201.887 226.291 201.87 226.288 201.853C226.179 201.494 225.752 201.337 225.531 201.033C225.115 200.466 225.531 199.693 225.788 199.04C226.037 198.337 226.182 197.602 226.217 196.857C226.252 196.444 226.278 196.027 226.323 195.617C226.385 195.062 226.485 194.512 226.621 193.97C227.399 190.9 229.271 188.22 231.886 186.433C233.132 185.594 234.52 184.982 235.792 184.19C237.095 183.312 238.339 182.348 239.516 181.306C242.338 178.956 245.272 176.741 248.318 174.66C251.594 172.423 254.987 170.363 258.483 168.488C259.231 168.084 259.978 167.691 260.726 167.309C261.54 166.882 262.359 166.477 263.184 166.094C265.824 164.835 268.821 165.306 271.74 166.146C272.964 166.495 274.172 166.912 275.339 167.29C276.478 167.66 277.573 168.152 278.607 168.757C281.193 170.276 283.33 172.519 284.218 175.352C284.22 175.37 284.22 175.388 284.218 175.407C284.782 177.182 284.817 179.085 284.766 180.954Z" fill="black"/>
<path d="M254.339 127.875C254.307 127.8 254.26 127.733 254.201 127.677C254.142 127.622 254.072 127.578 253.996 127.55C253.92 127.522 253.838 127.51 253.757 127.514C253.676 127.517 253.597 127.538 253.524 127.573C253.451 127.609 253.386 127.659 253.332 127.72C253.279 127.781 253.239 127.852 253.214 127.93C253.189 128.007 253.18 128.088 253.187 128.169C253.194 128.25 253.218 128.329 253.256 128.4L252.936 128.557L262.491 148.143L264.219 147.3L254.663 127.702L254.339 127.875Z" fill="#3F3D56"/>
<path d="M266.285 107.36C277.612 107.36 286.794 98.1775 286.794 86.8509C286.794 75.5243 277.612 66.3423 266.285 66.3423C254.958 66.3423 245.776 75.5243 245.776 86.8509C245.776 98.1775 254.958 107.36 266.285 107.36Z" fill="#FBBEBE"/>
<path d="M293.354 74.1548C293.258 72.5245 293.016 70.9061 292.63 69.3193C291.425 64.1376 289.224 59.0361 285.433 55.3157C285.199 54.4061 284.92 53.5088 284.596 52.6271C284.59 52.6053 284.583 52.5839 284.574 52.563C283.443 49.4572 281.808 46.559 279.735 43.9847C278.534 42.4914 276.976 41.0173 275.06 40.9596C274.522 40.9404 273.951 41.0333 273.458 40.7866C273.095 40.5519 272.789 40.2387 272.564 39.8701C271.615 38.6709 270.356 37.7538 268.924 37.2179C267.492 36.6819 265.94 36.5475 264.437 36.8291L264.238 36.8707C264.126 36.8932 264.014 36.9188 263.918 36.9476C263.822 36.9765 263.649 37.0245 263.514 37.0662C263.662 37.3097 263.806 37.5565 263.947 37.8064C264.327 38.4836 264.68 39.1758 265.004 39.8829C265.273 40.4726 265.522 41.0718 265.751 41.6806C262.47 42.0556 259.797 44.3852 257.355 46.6027L251.606 51.8196C251.596 51.8284 251.586 51.838 251.578 51.8484L251.411 52.0087C251.369 52.0503 251.328 52.092 251.289 52.1369C251.274 52.1502 251.26 52.1653 251.247 52.1817C251.199 52.233 251.155 52.2875 251.11 52.3419C251.03 52.4429 250.958 52.55 250.895 52.6624C250.864 52.7105 250.836 52.7608 250.812 52.813C250.803 52.8284 250.795 52.8444 250.789 52.8611C250.768 52.9048 250.75 52.9497 250.735 52.9956C250.733 53.002 250.733 53.0085 250.735 53.0149C250.726 53.0411 250.718 53.0679 250.712 53.095C250.647 53.3205 250.666 53.5621 250.767 53.7743L254.558 53.816H255.003C255.022 54.3223 255.038 54.8318 255.058 55.3381C254.456 55.7884 253.878 56.2697 253.327 56.7801C252.726 57.3366 252.162 57.9318 251.638 58.5618C248.219 62.6924 246.434 68.0279 246.255 73.3986C246.255 73.5652 246.255 73.719 246.255 73.892C246.255 74.3823 246.255 74.8726 246.255 75.3597C246.255 75.6801 246.284 76.0006 246.309 76.321C246.311 76.7385 246.421 77.1482 246.63 77.5099C246.657 77.5503 246.687 77.5888 246.72 77.6253C246.912 77.8339 247.142 78.0037 247.399 78.1252L247.674 78.2598C247.812 78.327 247.944 78.3911 248.072 78.4648C249.28 79.1474 249.994 80.4644 251.094 81.3104C251.158 81.3585 251.222 81.4066 251.286 81.4482L251.43 81.5443L251.52 81.602L251.642 81.6725C251.721 81.7207 251.804 81.7645 251.888 81.8039L252.042 81.8808H252.068C252.196 81.9385 252.324 81.993 252.456 82.041L252.638 82.1051L252.693 82.1243C252.744 82.1404 252.798 82.1596 252.853 82.1724C252.962 82.2045 253.069 82.2333 253.173 82.2589L253.494 82.3294C253.619 82.3519 253.747 82.3743 253.875 82.3903L254.064 82.416L254.256 82.4352C254.562 82.463 254.87 82.479 255.179 82.4833C256.151 82.4773 257.122 82.4098 258.086 82.2814L266.264 81.32C268.119 81.1053 270.013 80.8906 271.843 81.2688C273.394 81.5892 274.823 82.3262 276.329 82.8486C276.669 82.9671 277.008 83.0761 277.351 83.169C277.476 83.2043 277.604 83.2427 277.732 83.2748L277.909 83.3196L278.319 83.419C278.466 83.4542 278.614 83.4895 278.761 83.5183C278.969 83.5632 279.174 83.6016 279.383 83.6401C279.524 83.6689 279.668 83.6913 279.812 83.717H279.841L280.251 83.7811H280.35L280.655 83.8227C280.802 83.8452 280.95 83.8644 281.1 83.8804C281.427 83.921 281.754 83.9562 282.081 83.9861C282.61 84.0374 283.142 84.0759 283.683 84.1079L284.215 84.14L284.747 84.1656L286.349 84.2361H286.42H286.644C287.31 84.2825 287.979 84.2481 288.637 84.1336C288.753 84.1111 288.865 84.0855 288.977 84.0535C289.089 84.0214 289.182 83.9894 289.297 83.9509C290.499 83.4895 291.377 82.4288 291.986 81.2944C292.114 81.0541 292.233 80.8137 292.342 80.567C292.451 80.3202 292.55 80.0703 292.64 79.8203C292.752 79.4999 292.848 79.1955 292.931 78.875C292.957 78.7885 292.979 78.702 292.999 78.6122C293.018 78.5225 293.063 78.3463 293.088 78.2117C293.168 77.8432 293.229 77.4714 293.274 77.0965C293.274 76.978 293.303 76.8562 293.316 76.7376C293.345 76.4172 293.367 76.1192 293.38 75.8051C293.38 75.568 293.38 75.3277 293.38 75.0873C293.377 74.8278 293.354 74.4849 293.354 74.1548ZM285.138 55.0241C284.878 54.7805 284.612 54.5466 284.343 54.3255C284.643 54.5145 284.91 54.7504 285.135 55.0241H285.138Z" fill="#464353"/>
<path d="M226.925 85.7229C224.512 85.4249 222.118 84.3674 219.737 84.8866C218.247 85.207 216.965 86.1331 215.773 87.0848C211.337 90.6404 207.565 94.9528 204.631 99.8226C204.134 100.551 203.784 101.369 203.603 102.232C203.449 103.232 203.721 104.248 204.045 105.206C206.237 111.682 210.925 117.092 213.059 123.587C215.302 130.419 214.523 137.885 212.87 144.884C210.82 153.524 207.489 161.808 202.987 169.462C202.376 170.6 201.611 171.649 200.712 172.577C199.546 173.699 197.979 174.5 197.287 175.967C196.966 176.608 196.873 177.339 196.646 178.025C196.005 179.947 194.454 181.594 194.303 183.623C194.191 185.171 194.925 186.635 195.37 188.109C196.121 190.642 196.042 193.348 195.143 195.832C193.518 200.286 189.269 204.337 190.503 208.916C193.255 208.124 196.306 207.096 197.604 204.542C198.062 203.638 198.29 202.561 199.062 201.901C200.603 200.591 203.228 201.776 204.865 200.571C206.102 199.655 206.147 197.777 205.596 196.335C205.045 194.893 204.096 193.624 203.673 192.14C202.936 189.465 204.115 186.635 203.897 183.87C203.795 182.588 203.401 181.361 203.372 180.085C203.317 177.608 204.689 175.278 206.512 173.596C208.336 171.914 210.588 170.799 212.806 169.699L221.189 165.534C224.23 164.028 227.562 162.191 228.559 158.948C228.937 157.734 228.94 156.439 228.96 155.17C229.245 135.78 234.103 116.781 238.932 97.9993C239.682 95.0896 240.444 92.1671 241.56 89.3728C242.675 86.5785 244.857 84.3354 245.969 81.7398C239.518 80.9835 233.625 86.5625 226.925 85.7229Z" fill="#464353"/>
<path d="M273.137 207.368C273.877 211.854 274.329 216.437 274.681 220.997C268.913 225.778 262.703 229.937 256.393 233.795C256.034 234.016 255.672 234.234 255.31 234.436L255.281 234.59C255.267 234.554 255.25 234.518 255.23 234.484C254.74 233.427 253.884 232.582 252.82 232.107C250.455 227.14 248.093 222.173 245.732 217.206C244.45 214.524 243.168 211.816 242.527 208.922C242.527 208.861 242.499 208.797 242.489 208.736C242.002 206.493 241.89 204.164 241.566 201.892C241.402 200.59 241.109 199.309 240.691 198.065C240.307 196.96 239.778 195.886 239.31 194.807C238.733 193.473 238.249 192.124 238.227 190.686C238.227 190.227 238.256 189.724 238.032 189.34C237.792 189.009 237.496 188.722 237.157 188.494C236.734 188.119 236.413 187.642 236.225 187.109C236.036 186.576 235.987 186.004 236.08 185.446C234.157 185.546 233.074 187.612 232.302 189.365C231.6 191.08 230.678 192.695 229.559 194.172C228.743 195.227 227.706 196.09 226.521 196.7C226.415 196.752 226.31 196.803 226.201 196.848C223.525 198.027 220.4 197.61 217.5 197.078C214.966 196.614 212.344 196.037 210.306 194.46L210.088 194.287C209.485 193.786 208.947 193.211 208.486 192.576C206.778 190.243 206.022 187.17 205.602 184.245C205.564 183.969 205.525 183.693 205.49 183.418C205.199 181.351 205.118 179.259 205.25 177.175C205.288 176.663 205.343 176.15 205.41 175.641C205.455 175.32 205.503 174.974 205.557 174.641C205.556 174.631 205.556 174.621 205.557 174.612C205.641 174.083 205.73 173.551 205.82 173.01C206.141 171.193 206.461 169.328 207.422 167.764C208.055 166.791 208.853 165.936 209.781 165.239C210.127 164.966 210.483 164.707 210.842 164.457C211.425 164.053 212.024 163.669 212.633 163.307C214.165 162.39 215.773 161.607 217.44 160.967C217.837 160.813 218.241 160.669 218.644 160.531C220.214 159.973 221.903 159.839 223.541 160.144C224.992 160.354 226.459 160.44 227.925 160.4C231.683 160.326 235.458 159.609 239.211 159.144C244.421 158.503 250.019 158.426 254.563 161.067C254.781 161.192 254.993 161.323 255.204 161.461C257.447 162.928 259.255 164.986 260.713 167.283C261.033 167.767 261.312 168.264 261.588 168.767C262.223 169.922 262.797 171.109 263.308 172.324C263.611 172.92 263.774 173.578 263.786 174.247C263.778 174.374 263.761 174.5 263.735 174.625C263.648 175.08 263.475 175.522 263.414 175.983C263.212 177.73 264.696 179.188 265.25 180.851C265.609 181.934 265.571 183.094 265.773 184.235C266.064 185.837 266.849 187.279 267.554 188.721C268.668 191.042 269.621 193.438 270.406 195.89C270.964 197.598 271.441 199.331 271.861 201.081C271.998 201.643 272.127 202.206 272.249 202.77C272.598 204.321 272.883 205.84 273.137 207.368Z" fill="#F86D70"/>
<path d="M307.302 159.913V162.156L306.888 162.15L306.427 162.143L301.274 162.079L288.578 161.913L285.015 161.868L284.092 161.855L278.743 161.788L271.207 161.688L255.216 161.48L227.469 161.121L217.455 160.993L213.436 160.942L209.738 160.894L207.434 160.861L205.252 160.833L189.073 160.624L184.586 160.567L183.609 160.554L182.975 158.916L178.363 147.025L177.521 144.852L178.161 142.288L181.045 144.211L182.821 144.432L212.049 148.066L217.535 148.749L229.167 150.197L240.562 151.613L245.029 152.168L271.463 155.456L278.849 156.375L284.963 157.135L306.703 159.839L307.302 159.913Z" fill="#3F3D56"/>
<path d="M178.162 142.288L183.93 157.349L307.303 159.913V143.57L178.162 142.288Z" fill="#504F60"/>
<path d="M184.57 158.952L185.532 250.92L190.018 250.279L189.057 158.952H184.57Z" fill="#3F3D56"/>
<path d="M306.889 162.147H306.428C305.68 167.88 304.444 173.54 302.733 179.063L301.275 162.079L301.214 161.355L306.604 160.733L306.783 160.714L306.889 162.147Z" fill="#3F3D56"/>
<path d="M289.357 151.261L242.411 152.222L227.831 147.416L266.926 145.172L289.357 151.261Z" fill="white"/>
<path d="M230.469 132.572C229.971 132.763 229.53 133.078 229.187 133.486C228.919 133.928 228.756 134.425 228.71 134.94L227.922 139.641C227.801 140.071 227.823 140.529 227.982 140.946C228.188 141.34 228.784 141.545 229.082 141.218C229.043 142.138 229.123 143.118 229.658 143.868C230.194 144.618 231.315 145.012 232.071 144.49C232.19 144.683 232.349 144.848 232.538 144.974C232.727 145.099 232.94 145.182 233.164 145.217C233.389 145.252 233.617 145.238 233.835 145.175C234.053 145.112 234.255 145.003 234.427 144.855C233.972 145.009 233.94 145.704 234.263 146.057C234.626 146.377 235.088 146.561 235.571 146.579C241.202 147.373 246.943 146.651 252.202 144.487C252.699 144.281 251.391 138.158 251.26 137.53C250.939 136.052 250.779 134.248 249.533 133.255C246.552 130.877 241.259 130.409 237.628 130.691C235.147 130.879 232.722 131.516 230.469 132.572Z" fill="#FBBEBE"/>
<path opacity="0.1" d="M278.235 133.284C266.644 133.505 254.813 133.694 243.752 130.224C244.808 134.318 244.735 138.623 243.54 142.679L297.734 147.166C300.032 147.355 309.559 148.431 311.799 147.89C314.039 147.348 293.004 140.42 293.854 138.276C296.19 132.371 304.015 128.91 298.378 128.689C291.264 128.407 285.403 133.149 278.235 133.284Z" fill="black"/>
<path d="M278.555 133.925C266.965 134.146 255.134 134.335 244.072 130.864C245.129 134.959 245.055 139.264 243.86 143.32L298.054 147.806C300.352 147.996 309.879 149.088 312.119 148.531C314.359 147.973 313.833 145.227 314.682 143.083C317.019 137.177 304.335 129.551 298.699 129.329C291.585 129.047 285.724 133.79 278.555 133.925Z" fill="#464353"/>
<path d="M260.127 134.816C260.625 135.006 261.066 135.32 261.409 135.729C261.677 136.171 261.841 136.669 261.889 137.184L262.678 141.885C262.796 142.315 262.775 142.772 262.617 143.189C262.412 143.583 261.812 143.788 261.518 143.461C261.553 144.381 261.476 145.361 260.941 146.111C260.406 146.861 259.284 147.255 258.525 146.733C258.406 146.926 258.247 147.091 258.058 147.217C257.869 147.343 257.656 147.426 257.432 147.46C257.207 147.495 256.979 147.481 256.761 147.418C256.543 147.356 256.341 147.246 256.169 147.098C256.624 147.252 256.66 147.947 256.336 148.3C255.972 148.62 255.509 148.804 255.025 148.822C249.395 149.616 243.655 148.894 238.397 146.73C237.901 146.525 239.205 140.401 239.34 139.773C239.66 138.296 239.82 136.491 241.067 135.498C244.044 133.12 249.341 132.652 252.971 132.934C255.451 133.122 257.875 133.76 260.127 134.816Z" fill="#FBBEBE"/>
<path d="M183.54 124.609C182.476 125.981 181.409 127.381 180.723 128.98C179.412 132.031 179.605 135.485 179.823 138.799C179.883 139.76 179.96 140.741 180.463 141.538C180.898 142.141 181.472 142.63 182.136 142.964C184.911 144.541 188.161 145.012 191.333 145.365C196.191 145.903 201.066 146.231 205.958 146.348C218.078 146.643 230.383 145.653 242.188 148.399C240.727 146.179 240.73 143.24 241.547 140.708C242.364 138.177 243.938 135.972 245.479 133.803C240.076 132.092 234.283 134.764 228.624 134.498C222.814 134.226 217.437 130.868 211.621 130.871C210.371 130.871 209.099 131.028 207.884 130.727C206.67 130.425 205.494 129.509 205.381 128.262C206.932 128.612 208.403 127.285 209.044 125.83C209.685 124.375 209.8 122.731 210.422 121.267C211.97 117.623 216.152 115.935 218.754 112.935C219.164 112.461 219.552 111.9 219.539 111.272C219.478 110.74 219.254 110.24 218.898 109.84C216.735 106.956 213.476 105.354 210.768 103.11C209.826 102.328 207.926 99.3804 206.868 99.108C204.907 98.6049 203.244 101.438 201.969 102.819C195.53 109.815 189.387 117.079 183.54 124.609Z" fill="#464353"/>
<path opacity="0.07" d="M247.976 123.795C248.788 124.398 249.51 125.113 250.119 125.92C250.423 126.325 250.64 126.789 250.755 127.282C250.87 127.775 250.882 128.287 250.789 128.785C250.69 127.856 250.897 126.92 251.379 126.12C251.861 125.32 252.591 124.699 253.458 124.353L247.976 123.795Z" fill="black"/>
<g opacity="0.1">
<path opacity="0.1" d="M265.748 39.7611C265.371 38.7595 264.937 37.7805 264.447 36.829C264.131 36.8898 263.818 36.9701 263.512 37.0693C264.061 37.9825 264.557 38.9273 264.995 39.8989C265.242 39.8348 265.492 39.7899 265.748 39.7611Z" fill="black"/>
<path opacity="0.1" d="M284.341 52.3964C284.427 52.4669 284.511 52.547 284.594 52.6207C284.588 52.5999 284.58 52.5795 284.572 52.5598C284.499 52.5064 284.422 52.4519 284.341 52.3964Z" fill="black"/>
<path opacity="0.1" d="M254.551 53.8063C254.717 53.6749 254.871 53.5371 255.051 53.4089L254.999 51.8868L251.577 51.8516C251.023 52.3611 250.433 53.0917 250.76 53.7742L254.551 53.8063Z" fill="black"/>
<path opacity="0.1" d="M291.967 79.4292C291.358 80.5636 290.48 81.6275 289.278 82.0857C288.352 82.4382 287.333 82.4062 286.343 82.3613C282.965 82.2235 279.53 82.0729 276.339 80.9546C274.845 80.429 273.416 79.6952 271.852 79.3716C270.023 78.9934 268.129 79.2081 266.273 79.426L258.095 80.3874C255.683 80.6694 252.994 80.8809 251.068 79.4004C249.966 78.5544 249.254 77.2374 248.046 76.558C247.537 76.2696 246.931 76.0838 246.601 75.5967C246.393 75.235 246.282 74.8253 246.281 74.4078C246.255 74.0714 246.239 73.7349 246.226 73.3984C246.191 74.3761 246.21 75.3549 246.281 76.3305C246.282 76.7479 246.393 77.1577 246.601 77.5194C246.921 78.0033 247.537 78.1891 248.046 78.4807C249.254 79.1601 249.969 80.4771 251.068 81.3231C252.991 82.8035 255.683 82.6049 258.095 82.3101L266.273 81.3487C268.129 81.1308 270.023 80.9161 271.852 81.2942C273.403 81.6147 274.832 82.3517 276.339 82.8772C279.543 83.9956 282.965 84.159 286.343 84.284C287.333 84.3257 288.352 84.3609 289.278 84.0084C290.48 83.5502 291.358 82.4863 291.967 81.3519C293.146 79.1569 293.476 76.667 293.351 74.1579C293.283 75.9954 292.81 77.7951 291.967 79.4292Z" fill="black"/>
</g>
<path opacity="0.1" d="M265.654 41.8217L270.141 45.9875C270.141 45.9875 266.295 44.3852 265.654 41.8217Z" fill="black"/>
</g>
<defs>
<clipPath id="clip0">
<rect width="315" height="257.319" fill="white"/>
</clipPath>
</defs>
</svg>
