<svg width="276" height="298" viewBox="0 0 276 298" fill="none" xmlns="http://www.w3.org/2000/svg">
<path opacity="0.1" d="M228.522 215.183C240.644 208.825 252.647 201.392 261.41 190.716C274.295 175.021 278.652 152.864 272.416 134.61C267.14 119.135 255.331 107.354 245.835 94.297C234.133 78.215 225.762 59.816 218.069 41.2721C213.934 31.3113 209.816 21.0163 202.369 13.393C192.029 2.8102 176.02 -1.2865 160.833 1.0658C145.646 3.418 131.361 11.7474 120.071 22.8039C114.064 28.6876 108.673 35.6215 106.473 43.621C104.144 52.085 105.566 61.0147 103.175 69.466C100.96 77.298 95.6448 84.05 89.8458 89.913C82.2738 97.568 73.6608 104.117 64.2608 109.367C53.6088 115.309 42.1319 119.443 31.4629 125.316C20.794 131.189 10.5701 139.292 5.35576 150.347C0.452761 160.74 0.526361 172.434 1.24146 183.552C2.39316 201.716 5.02166 219.757 9.10086 237.494C11.8437 249.383 15.3205 261.266 21.9141 271.282C34.519 290.435 58.6818 300.803 82.1198 297.122C101.538 294.07 164.35 277.607 180.009 264.885C194.288 253.284 163.067 242.523 180.009 235.203C196.172 228.229 212.689 223.484 228.522 215.183Z" fill="#6C63FF"/>
<path d="M130.5 263.666C189.871 263.666 238 257.405 238 249.682C238 241.959 189.871 235.699 130.5 235.699C71.129 235.699 23 241.959 23 249.682C23 257.405 71.129 263.666 130.5 263.666Z" fill="#3F3D56"/>
<path d="M192.431 240.976C205.95 240.976 216.91 230.017 216.91 216.497C216.91 202.977 205.95 192.018 192.431 192.018C178.911 192.018 167.951 202.977 167.951 216.497C167.951 230.017 178.911 240.976 192.431 240.976Z" fill="#3F3D56"/>
<path d="M146.451 38.3967C146.451 38.3967 147.325 47.1366 144.703 50.6325C142.081 54.1284 151.257 75.978 151.257 75.978L164.367 51.5065C164.367 51.5065 159.997 48.8845 162.619 41.4557L146.451 38.3967Z" fill="#FFB9B9"/>
<path opacity="0.1" d="M146.451 38.3967C146.451 38.3967 147.325 47.1366 144.703 50.6325C142.081 54.1284 151.257 75.978 151.257 75.978L164.367 51.5065C164.367 51.5065 159.997 48.8845 162.619 41.4557L146.451 38.3967Z" fill="black"/>
<path d="M185.779 82.533L186.216 100.45L169.611 127.106L166.552 117.055L175.729 99.139C175.729 99.139 172.67 90.836 173.544 86.029C174.418 81.222 185.779 82.533 185.779 82.533Z" fill="#FFB9B9"/>
<path d="M117.609 79.911L117.172 97.828L133.778 124.484L136.837 114.433L127.66 96.517C127.66 96.517 130.719 88.214 129.845 83.407C128.971 78.6 117.609 79.911 117.609 79.911Z" fill="#FFB9B9"/>
<path d="M129.844 108.752L128.096 113.122C125.766 115.287 123.934 117.932 122.726 120.875C121.519 123.818 120.966 126.987 121.104 130.165L115.86 184.352C115.86 184.352 112.364 188.285 113.675 193.092C113.675 193.092 110.616 209.261 112.364 214.504C112.364 214.504 104.936 228.051 112.801 228.925C120.667 229.799 123.289 229.799 124.163 226.74C125.037 223.681 126.348 212.319 126.348 212.319L145.576 144.149L148.635 186.537C148.635 186.537 145.576 197.899 146.45 200.958C147.324 204.017 140.332 225.866 143.391 228.051C146.45 230.236 155.19 231.11 155.627 229.362C156.064 227.614 156.501 216.689 156.501 216.689C156.501 216.689 160.871 207.076 161.745 204.017C162.618 200.958 163.492 183.915 163.492 183.915L171.358 133.661C171.358 133.661 173.106 120.114 168.736 117.492L166.988 109.626L129.844 108.752Z" fill="#2F2E41"/>
<path d="M111.491 226.303L109.743 235.043C109.743 235.043 100.567 249.464 109.306 249.464C118.046 249.464 118.92 245.094 118.92 245.094V241.161C118.92 241.161 123.29 238.976 123.29 238.539C123.29 238.102 121.979 227.614 121.979 227.614L111.491 226.303Z" fill="#2F2E41"/>
<path d="M154.316 226.303L156.064 235.043C156.064 235.043 165.241 249.464 156.501 249.464C147.761 249.464 146.887 245.094 146.887 245.094V241.161C146.887 241.161 142.518 238.976 142.518 238.539C142.518 238.102 143.829 227.614 143.829 227.614L154.316 226.303Z" fill="#2F2E41"/>
<path d="M156.153 47.855C162.521 47.855 167.683 42.6932 167.683 36.3258C167.683 29.9583 162.521 24.7965 156.153 24.7965C149.786 24.7965 144.624 29.9583 144.624 36.3258C144.624 42.6932 149.786 47.855 156.153 47.855Z" fill="#FFB9B9"/>
<path d="M152.131 66.8012C152.131 66.8012 145.576 55.8764 146.013 53.2544C146.282 51.7523 146.275 50.2138 145.992 48.7142L142.08 51.0695L125.911 58.4983L132.466 80.348C132.466 80.348 130.718 85.155 130.718 88.651C130.718 92.147 131.592 96.08 130.718 97.391C129.844 98.702 129.407 100.887 130.281 102.635C130.803 103.721 130.956 104.949 130.718 106.13C130.718 106.13 124.6 109.626 128.096 110.5C130.399 111.008 132.785 111.008 135.088 110.5C135.088 110.5 135.525 109.189 139.021 110.937C142.517 112.685 160.87 113.122 160.87 113.122C160.87 113.122 172.669 113.559 172.232 111.811C171.795 110.063 174.417 89.525 174.417 89.525L180.535 60.6833L166.551 51.9435L162.035 47.9559L160.87 54.1284L152.131 66.8012Z" fill="#D0CDE1"/>
<path d="M128.97 58.9353H125.911C125.911 58.9353 110.398 77.507 114.768 80.566C119.138 83.625 134.214 86.029 134.214 86.029C134.214 86.029 132.903 58.9353 128.97 58.9353Z" fill="#D0CDE1"/>
<path d="M176.602 60.6833H180.535C180.535 60.6833 191.023 85.155 187.527 86.029C184.031 86.903 171.358 89.525 171.358 88.214C171.358 86.903 176.602 60.6833 176.602 60.6833Z" fill="#D0CDE1"/>
<path d="M144.711 36.264C144.711 36.264 143.46 34.3877 143.941 32.367C144.229 31.2197 144.342 30.0358 144.278 28.8549C144.816 27.1043 145.492 25.3991 146.299 23.755C147.309 21.9268 146.828 21.157 150.003 20.5797C153.179 20.0024 151.88 15.8648 160.251 20.3391C160.533 20.7335 160.926 21.0353 161.38 21.2066C161.834 21.3778 162.328 21.4108 162.801 21.3014C164.533 20.9646 165.158 23.3702 165.158 23.3702C165.158 23.3702 166.313 22.6966 166.746 23.6588C167.179 24.621 170.266 23.0813 170.266 29.5764C170.266 36.0714 166.753 41.8731 166.753 41.8731C166.753 41.8731 167.011 30.9477 161.285 29.8411C155.56 28.7346 149.402 25.5111 147.91 29.6487C147.105 31.9709 146.032 34.1911 144.711 36.264Z" fill="#2F2E41"/>
<path d="M47.979 228.477C46.5233 241.233 54.365 252.603 54.365 252.603C54.365 252.603 64.568 243.292 66.023 230.536C67.479 217.78 59.637 206.41 59.637 206.41C59.637 206.41 49.4348 215.721 47.979 228.477Z" fill="#2F2E41"/>
<path d="M53.541 227.819C58.788 239.536 54.754 252.746 54.754 252.746C54.754 252.746 42.2127 246.959 36.9656 235.241C31.7185 223.524 35.7526 210.313 35.7526 210.313C35.7526 210.313 48.2939 216.101 53.541 227.819Z" fill="#6C63FF"/>
</svg>
