<svg width="315" height="221" viewBox="0 0 315 221" fill="none" xmlns="http://www.w3.org/2000/svg">
<path opacity="0.1" d="M133.905 8.46579C121.111 3.59999 107.591 -0.46453 93.7886 0.0464379C73.4951 0.79547 54.0144 12.2139 44.4744 28.98C36.3803 43.1855 35.3815 59.8355 31.8948 75.6C27.6038 95.0197 19.3703 113.481 10.5793 131.531C5.85864 141.227 0.876704 151.133 0.101543 161.762C-0.972651 176.519 6.56703 191.224 18.3919 201.04C30.2167 210.855 45.9203 216.035 61.6819 217.164C70.0693 217.765 78.8341 217.208 86.2838 213.555C94.1661 209.691 99.9115 202.709 107.826 198.9C115.159 195.37 123.738 194.876 131.972 195.335C142.722 195.934 153.334 198.045 163.495 201.606C175.003 205.647 185.705 211.503 197.173 215.602C208.64 219.702 221.484 221.989 233.219 218.569C244.251 215.355 252.961 207.552 260.814 199.649C273.655 186.751 285.425 172.828 296.007 158.02C303.094 148.088 309.69 137.61 312.823 126.035C318.815 103.904 310.57 78.9358 292.282 63.8216C277.13 51.3 256.796 45.8651 236.892 42.5671C218.741 39.5593 197.753 39.3735 181.045 31.5348C165.112 24.0503 150.613 14.8239 133.905 8.46579Z" fill="#6C63FF"/>
<path d="M163.652 179.71V190.257H166.651L166.071 178.935L163.652 179.71Z" fill="#AAABB0"/>
<path d="M118.603 177.582V188.129H121.604L121.024 176.806L118.603 177.582Z" fill="#AAABB0"/>
<path d="M171.006 162.099C171.006 161.029 170.139 160.162 169.071 160.162C168.002 160.162 167.136 161.029 167.136 162.099V177.001C167.136 178.07 168.002 178.937 169.071 178.937C170.139 178.937 171.006 178.07 171.006 177.001V162.099Z" fill="#AAABB0"/>
<path d="M121.361 157.935C121.361 156.866 120.495 155.999 119.426 155.999C118.358 155.999 117.491 156.866 117.491 157.935V176.998C117.491 178.068 118.358 178.935 119.426 178.935C120.495 178.935 121.361 178.068 121.361 176.998V157.935Z" fill="#AAABB0"/>
<path d="M175.944 47.8074C175.944 47.8074 179.814 46.1613 180.395 47.8074C180.976 49.4535 181.266 63.6793 181.266 63.6793H177.588L175.944 47.8074Z" fill="#AAABB0"/>
<path d="M133.557 47.8074C133.557 47.8074 129.684 46.1613 129.103 47.8074C128.523 49.4535 128.232 63.6793 128.232 63.6793H131.911L133.557 47.8074Z" fill="#AAABB0"/>
<path d="M134.135 33.6774L133.555 45.4848H136.168V33.3871L134.135 33.6774Z" fill="#AAABB0"/>
<path d="M131.911 63.6794L132.686 46.6461C132.686 46.6461 132.396 42.8719 141.588 44.0332C150.779 45.1945 177.686 47.5171 177.686 47.5171V63.6794H131.911Z" fill="#33323D"/>
<path d="M168.686 153.389L167.234 179.419C167.234 179.419 145.942 191.227 120.104 180L122.426 152.614L168.686 153.389Z" fill="#33323D"/>
<path d="M148.46 50.9023L148.942 67.741H178.944L177.202 45.4848L148.46 50.9023Z" fill="#444053"/>
<path d="M151.508 142.258H123.248V178.064H151.508V142.258Z" fill="#4C4981"/>
<path d="M141.106 156.873C141.106 156.873 145.17 153.679 145.846 154.646C146.523 155.613 143.431 159.776 142.171 159.291C140.911 158.806 141.106 156.873 141.106 156.873Z" fill="#FFB9B9"/>
<path d="M253.914 62.7097H68.4062V155.613H253.914V62.7097Z" fill="#504F60"/>
<path d="M132.007 33.001C132.007 33.001 130.556 19.4516 132.007 17.8084C133.459 16.1652 157.846 0.580648 180.395 18.871C180.395 18.871 182.524 18.9697 182.137 23.8065C181.91 26.8677 181.925 29.9422 182.184 33.001C182.184 33.001 133.654 36.4849 132.007 33.001Z" fill="#33323D"/>
<path opacity="0.1" d="M132.007 33.001C132.007 33.001 130.556 19.4516 132.007 17.8084C133.459 16.1652 157.846 0.580648 180.395 18.871C180.395 18.871 182.524 18.9697 182.137 23.8065C181.91 26.8677 181.925 29.9422 182.184 33.001C182.184 33.001 133.654 36.4849 132.007 33.001Z" fill="black"/>
<path d="M132.007 34.7429C132.007 34.7429 130.556 21.1936 132.007 19.5503C133.459 17.9071 157.846 2.3226 180.395 20.6129C180.395 20.6129 182.524 20.7116 182.137 25.5484C181.91 28.6096 181.925 31.6841 182.184 34.7429C182.184 34.7429 133.654 38.2268 132.007 34.7429Z" fill="#33323D"/>
<path d="M183.008 28.5503C183.008 28.5503 184.556 34.3568 184.074 35.3236C183.592 36.2903 183.679 39.0019 183.679 39.0019C183.679 39.0019 183.783 40.7439 183.008 40.9355C182.233 41.1271 181.557 41.2258 182.184 41.8065C182.811 42.3871 182.184 43.2581 182.184 43.2581C182.184 43.2581 181.844 44.6139 182.184 45.4848C182.523 46.3558 180.198 46.7187 180.395 47.8074C180.593 48.8961 181.243 51.9677 180.395 52.0665C179.548 52.1652 180.686 55.9365 179.922 55.9365C179.159 55.9365 178.616 62.7097 178.616 62.7097C178.616 62.7097 173.245 58.1632 169.665 59.4203C169.665 59.4203 169.955 55.6461 171.117 54.2903C172.278 52.9345 171.927 49.4536 171.927 49.4536L177.687 32.13L183.008 28.5503Z" fill="#4C4981"/>
<path d="M154.266 108.616C153.009 110.006 151.653 102.58 151.653 102.58C151.653 102.58 148.074 107.515 145.751 104.226C144.143 101.947 145.412 95.49 146.332 91.7419C146.744 90.0755 147.093 88.9432 147.093 88.9432L152.318 88.0723C152.318 88.0723 152.336 89.2103 152.452 90.5923C152.609 92.459 152.948 94.7758 153.671 95.3303C154.946 96.2913 155.526 107.213 154.266 108.616Z" fill="#AE6E79"/>
<path opacity="0.1" d="M151.557 21.6784C151.557 21.6784 142.459 21.5826 140.235 26.4194C138.011 31.2561 137.912 32.9052 137.041 33.6774C136.17 34.4497 146.523 38.5171 146.523 38.5171L147.008 55.1613C147.008 55.1613 149.04 53.1029 152.33 54.0348C155.619 54.9668 159.782 54.0348 159.782 54.0348C159.782 54.0348 159.588 53.6835 162.299 54.0348C165.011 54.3861 173.622 49.8397 173.622 49.8397C173.622 49.8397 173.764 42.5584 173.573 41.0081C173.381 39.4577 179.716 28.0655 179.716 28.0655C179.716 28.0655 184.651 23.3245 179.524 21.6784C179.524 21.6784 177.71 18.9436 173.041 18.9697C168.373 18.9958 151.557 21.6784 151.557 21.6784Z" fill="black"/>
<path d="M151.557 21.3881C151.557 21.3881 142.459 21.2923 140.235 26.129C138.011 30.9658 137.912 32.6148 137.041 33.3871C136.17 34.1594 146.523 38.2268 146.523 38.2268L147.008 54.871C147.008 54.871 149.04 52.8126 152.33 53.7445C155.619 54.6764 159.782 53.7445 159.782 53.7445C159.782 53.7445 159.588 53.3932 162.299 53.7445C165.011 54.0958 173.622 49.5494 173.622 49.5494C173.622 49.5494 177.007 44.0332 176.815 42.4858C176.624 40.9384 183.589 29.2268 183.589 29.2268C183.589 29.2268 184.654 23.0342 179.524 21.3881C179.524 21.3881 177.71 18.6532 173.041 18.6794C168.373 18.7055 151.557 21.3881 151.557 21.3881Z" fill="#4C4981"/>
<path opacity="0.1" d="M152.474 90.5836C150.48 89.9623 147.35 91.3326 146.354 91.7448C146.767 90.0784 147.115 88.9461 147.115 88.9461L152.341 88.0752C152.341 88.0752 152.35 89.2132 152.474 90.5836Z" fill="black"/>
<path d="M139.846 33.3871H137.041C137.041 33.3871 136.461 39.2923 137.041 41.0342C137.622 42.7761 137.912 42.5236 137.718 43.8126C137.523 45.1016 139.074 47.0758 139.074 47.0758C139.074 47.0758 139.265 51.9416 140.235 53.7532C141.204 55.5648 139.169 63.6881 139.169 63.6881C139.724 65.0904 140.546 66.372 141.588 67.4623C143.234 69.1055 144.105 75.2023 143.62 77.5248C143.135 79.8474 144.976 80.7184 144.976 80.7184C144.976 80.7184 145.751 91.559 146.041 91.559C146.332 91.559 151.943 88.6558 153.685 91.17L152.33 81.2032L152.428 61.9461C152.428 61.9461 150.588 59.5249 151.557 57.3968C152.527 55.2687 150.782 50.2345 150.782 50.2345L148.265 39.0107L139.846 33.3871Z" fill="#4C4981"/>
<path d="M122.427 186.387C122.427 186.387 118.363 185.516 118.267 186.387C118.171 187.258 113.427 196.162 119.332 198.775C125.237 201.388 141.008 207 166.655 199.742C166.655 199.742 168.298 200.323 167.912 196.743C167.526 193.163 167.526 189.195 167.526 189.195C167.526 189.195 163.653 188.129 160.75 188.518C157.846 188.907 132.588 194.034 122.427 186.387Z" fill="#33323D"/>
<path opacity="0.1" d="M122.427 186.387C122.427 186.387 118.363 185.516 118.267 186.387C118.171 187.258 113.427 196.162 119.332 198.775C125.237 201.388 141.008 207 166.655 199.742C166.655 199.742 168.298 200.323 167.912 196.743C167.526 193.163 167.526 189.195 167.526 189.195C167.526 189.195 163.653 188.129 160.75 188.518C157.846 188.907 132.588 194.034 122.427 186.387Z" fill="black"/>
<path d="M122.427 185.226C122.427 185.226 118.363 184.355 118.267 185.226C118.171 186.097 113.427 195.001 119.332 197.614C125.237 200.227 141.008 205.839 166.655 198.581C166.655 198.581 168.298 199.161 167.912 195.582C167.526 192.002 167.526 188.033 167.526 188.033C167.526 188.033 163.653 186.968 160.75 187.357C157.846 187.746 132.588 192.873 122.427 185.226Z" fill="#33323D"/>
<path d="M146.129 36.8652C145.879 38.2848 145.313 39.6494 145.226 41.0865C145.139 42.5236 145.693 44.1581 147.02 44.7213C147.39 44.8319 147.749 44.9777 148.091 45.1568C148.602 45.5023 148.811 46.1526 148.919 46.7623C149.061 47.5494 149.095 48.3523 149.02 49.1487C148.948 49.95 148.776 50.8123 149.171 51.5119C149.865 52.7516 151.674 52.5687 153.05 52.2203L152.577 55.8871C152.539 56.1774 152.516 56.5055 152.728 56.7029C152.828 56.7734 152.941 56.8232 153.061 56.8491C153.18 56.875 153.304 56.8767 153.424 56.8539C154.62 56.7784 155.851 56.6129 156.876 55.9829C157.901 55.3529 158.665 54.18 158.47 52.9984C158.244 51.6281 156.827 50.5394 157.019 49.1632C157.167 48.0977 158.209 47.4213 158.894 46.6026C160.134 45.1045 160.2 42.8284 159.228 41.1329C158.255 39.4374 156.377 38.3865 154.443 38.1948C153.372 38.0874 152.257 38.2181 151.25 37.8465C150.899 37.7179 150.583 37.51 150.326 37.239C150.07 36.9681 149.879 36.6414 149.769 36.2845" fill="#444053"/>
<path d="M112.364 165.969L113.377 163.762C113.377 163.762 118.847 158.667 120.104 158.31C121.361 157.953 126.491 156.397 127.267 156.397C128.042 156.397 142.172 155.622 142.172 155.622L143.815 159.495L126.082 163.388L120.104 167.743L112.364 165.969Z" fill="#767D9F"/>
<path d="M154.969 106.548L154.043 113.676L153.686 116.419L149.525 117C149.525 117 149.075 116.036 148.44 114.556C146.509 110.061 142.874 100.794 144.982 99.1945C147.784 97.0636 148.466 104.13 148.466 104.13L151.659 102.58L154.969 106.548Z" fill="#FFB9B9"/>
<path d="M154.274 119.807H133.264V151.548H154.274V119.807Z" fill="white"/>
<path opacity="0.1" d="M154.274 119.807H133.264V151.548H154.274V119.807Z" fill="black"/>
<path d="M163.718 121.526L142.934 118.453L138.291 149.853L159.076 152.926L163.718 121.526Z" fill="white"/>
<path d="M155.588 123.029L144.89 121.448L142.5 137.608L153.199 139.19L155.588 123.029Z" fill="#6C63FF"/>
<path d="M154.315 144.124L141.354 142.207L140.835 145.717L153.796 147.633L154.315 144.124Z" fill="#6C63FF"/>
<path opacity="0.1" d="M159.782 39.7248C166.489 39.7248 171.926 34.2877 171.926 27.5807C171.926 20.8736 166.489 15.4365 159.782 15.4365C153.075 15.4365 147.638 20.8736 147.638 27.5807C147.638 34.2877 153.075 39.7248 159.782 39.7248Z" fill="black"/>
<path d="M159.782 39.4345C166.489 39.4345 171.926 33.9974 171.926 27.2903C171.926 20.5833 166.489 15.1461 159.782 15.1461C153.075 15.1461 147.638 20.5833 147.638 27.2903C147.638 33.9974 153.075 39.4345 159.782 39.4345Z" fill="#AE6E79"/>
<path d="M149.769 36.2903C149.686 35.9775 149.716 35.6457 149.853 35.3526C150.315 34.3916 151.63 34.3074 152.695 34.3568C155.201 34.4729 157.95 34.4874 159.91 32.9052C160.723 32.2548 161.631 30.6203 162.813 30.931C163.864 31.2068 164.302 32.6323 165.397 32.9487C166.189 33.1781 167.011 32.8123 167.818 32.6584C168.979 32.429 170.17 32.6206 171.348 32.6294C172.527 32.6381 173.808 32.4145 174.612 31.5523C175.698 30.391 175.52 28.5765 175.425 26.9855C175.306 24.9304 175.445 22.8684 175.84 20.8481C176.235 18.839 176.841 16.5919 175.732 14.8703C174.676 13.23 172.487 12.78 170.991 11.5229C169.592 10.3616 168.852 8.50064 167.374 7.42354C165.513 6.06774 162.984 6.26225 160.697 6.49741L155.732 7.0258C154.452 7.16225 153.119 7.31612 152.065 8.07967C150.164 9.4558 149.902 12.3155 148.102 13.8223C147.301 14.49 146.276 14.821 145.362 15.3203C144.447 15.8197 143.565 16.6094 143.46 17.6429C143.373 18.5139 143.843 19.3181 144.073 20.1571C144.615 22.1603 143.768 24.2216 143.225 26.2394C142.682 28.2571 142.577 30.7074 144.154 32.0458C144.473 32.3187 144.845 32.5277 145.155 32.8123C146.221 33.7848 146.366 35.4252 146.119 36.8419" fill="#444053"/>
<path d="M160.772 42.4597C160.932 42.4597 161.062 42.1347 161.062 41.7339C161.062 41.333 160.932 41.0081 160.772 41.0081C160.611 41.0081 160.481 41.333 160.481 41.7339C160.481 42.1347 160.611 42.4597 160.772 42.4597Z" fill="#444053"/>
<path d="M160.772 45.4848C160.932 45.4848 161.062 45.1599 161.062 44.759C161.062 44.3582 160.932 44.0332 160.772 44.0332C160.611 44.0332 160.481 44.3582 160.481 44.759C160.481 45.1599 160.611 45.4848 160.772 45.4848Z" fill="#444053"/>
<path d="M154.333 108.595C154.643 108.238 154.849 107.321 154.968 106.11L151.508 101.796C151.508 101.796 152.974 110.16 154.333 108.595Z" fill="#AE6E79"/>
<path opacity="0.1" d="M158.235 179.904C158.235 179.904 152.556 188.684 134.815 187.743C118.101 186.872 109.943 178.647 110.332 175.744C110.721 172.841 109.266 165.774 112.846 163.742C114.922 162.566 117.654 163.263 119.581 164.058C120.247 164.329 120.976 164.405 121.684 164.278C122.391 164.151 123.049 163.826 123.579 163.341C125.341 161.753 128.628 159.965 133.816 161.373C134.483 161.551 135.188 161.538 135.848 161.335C138.008 160.676 143.15 159.532 146.88 162.073C147.47 162.479 148.163 162.709 148.879 162.737C149.594 162.764 150.303 162.587 150.922 162.226L150.974 162.195C152.716 161.129 160.845 171.195 160.845 171.195C160.845 171.195 161.234 178.937 158.235 179.904Z" fill="black"/>
<path d="M158.235 180.195C158.235 180.195 152.556 188.974 134.815 188.033C118.101 187.162 109.943 178.937 110.332 176.034C110.721 173.131 109.266 166.065 112.846 164.032C114.922 162.856 117.654 163.553 119.581 164.349C120.247 164.619 120.976 164.695 121.684 164.568C122.391 164.442 123.049 164.117 123.579 163.632C125.341 162.044 128.628 160.255 133.816 161.663C134.483 161.841 135.188 161.828 135.848 161.625C138.008 160.966 143.15 159.823 146.88 162.363C147.47 162.769 148.163 163 148.879 163.027C149.594 163.054 150.303 162.877 150.922 162.517L150.974 162.485C152.716 161.419 160.845 171.485 160.845 171.485C160.845 171.485 161.234 179.228 158.235 180.195Z" fill="#767D9F"/>
<path opacity="0.1" d="M134.815 183.632C141.202 183.632 146.381 178.453 146.381 172.065C146.381 165.678 141.202 160.499 134.815 160.499C128.427 160.499 123.248 165.678 123.248 172.065C123.248 178.453 128.427 183.632 134.815 183.632Z" fill="black"/>
<path d="M134.815 183.922C141.202 183.922 146.381 178.744 146.381 172.356C146.381 165.968 141.202 160.789 134.815 160.789C128.427 160.789 123.248 165.968 123.248 172.356C123.248 178.744 128.427 183.922 134.815 183.922Z" fill="#FFB9B9"/>
<path d="M131.5 162.357C130.286 162.685 129.09 163.312 128.498 164.343C128.141 164.964 128.016 165.71 127.499 166.227C126.767 166.962 125.533 166.976 124.543 167.388C123.553 167.801 122.9 169.252 123.87 169.711C122.86 169.763 122.111 170.695 121.986 171.621C121.861 172.547 122.212 173.471 122.552 174.353C123.661 177.21 124.854 180.192 127.299 182.224C131.282 185.539 137.286 185.385 142.636 185.034C143.074 185.049 143.507 184.949 143.893 184.744C144.474 184.361 144.547 183.626 144.643 182.982C145.046 180.229 146.538 177.73 147.514 175.102C148.489 172.475 148.89 169.389 147.247 167.063C144.828 163.614 135.57 161.254 131.5 162.357Z" fill="#B96B6B"/>
<path opacity="0.1" d="M154.043 113.676L153.686 116.419L149.525 117C149.525 117 149.075 116.036 148.439 114.555L153.976 113.516L154.043 113.676Z" fill="black"/>
<path d="M158.426 174.292L160.847 171.485L160.363 156.002C160.601 154.885 160.763 153.753 160.847 152.614C160.943 150.968 159.637 147.292 159.637 147.292C159.839 146.556 160.115 145.843 160.458 145.161C161.039 144 159.64 141.387 159.64 141.387C159.64 141.387 157.555 134.614 158.426 131.226C159.297 127.838 158.214 125.904 158.214 125.904C158.214 125.904 157.364 122.13 157.459 120.583C157.555 119.035 155.523 117.581 155.523 117.581L153.975 113.806L147.783 114.968V128.032C147.783 128.032 148.169 140.516 147.783 142.937C147.397 145.359 148.555 147.678 148.555 147.678C148.555 147.678 147.879 151.258 148.459 152.614C149.04 153.97 150.201 157.259 150.201 157.259C149.986 158.435 150.052 159.645 150.396 160.789C150.976 162.485 150.396 163.452 150.396 163.452L158.426 174.292Z" fill="#767D9F"/>
<g opacity="0.1">
<path opacity="0.1" d="M175.849 19.8929C175.522 21.5923 175.375 23.3216 175.411 25.0519C175.435 23.6132 175.586 22.1793 175.861 20.7668C176.116 19.4777 176.441 18.09 176.372 16.8039C176.265 17.8438 176.09 18.8756 175.849 19.8929Z" fill="black"/>
<path opacity="0.1" d="M145.165 31.8774C144.854 31.5871 144.482 31.3839 144.163 31.108C143.315 30.3851 142.958 29.3371 142.888 28.2048C142.804 29.6564 143.1 31.0616 144.163 31.979C144.482 32.2548 144.854 32.4638 145.165 32.7484C145.814 33.391 146.19 34.2593 146.216 35.1726C146.3 33.9532 146.053 32.6845 145.165 31.8774Z" fill="black"/>
<path opacity="0.1" d="M144.239 21.0368C144.29 20.4236 144.237 19.8062 144.083 19.2106C143.914 18.5894 143.612 17.9826 143.502 17.3584C143.502 17.4252 143.479 17.4948 143.47 17.5674C143.386 18.4384 143.856 19.2426 144.083 20.0816C144.166 20.3941 144.218 20.714 144.239 21.0368Z" fill="black"/>
<path opacity="0.1" d="M174.621 30.5971C173.817 31.4681 172.537 31.6829 171.358 31.6742C170.179 31.6655 168.986 31.4739 167.828 31.7061C167.021 31.8687 166.199 32.2316 165.406 31.9964C164.312 31.68 163.874 30.2545 162.825 29.9787C161.632 29.6652 160.724 31.2997 159.922 31.95C157.963 33.5177 155.213 33.5032 152.708 33.4016C151.642 33.3522 150.327 33.4364 149.868 34.4003C149.728 34.6926 149.699 35.0255 149.784 35.338L146.236 35.8955C146.223 36.1875 146.191 36.4784 146.141 36.7664L149.784 36.1858C149.699 35.8733 149.728 35.5403 149.868 35.2481C150.327 34.2842 151.642 34.2 152.708 34.2493C155.213 34.3655 157.963 34.38 159.922 32.7977C160.735 32.1474 161.644 30.5129 162.825 30.8264C163.874 31.0993 164.312 32.5277 165.406 32.8442C166.199 33.0706 167.021 32.7077 167.828 32.5539C168.989 32.3216 170.179 32.5132 171.358 32.5219C172.537 32.5306 173.817 32.3071 174.621 31.4448C175.425 30.5826 175.542 29.2964 175.492 28.0423C175.457 29.0148 175.257 29.9148 174.621 30.5971Z" fill="black"/>
</g>
<g opacity="0.1">
<path opacity="0.1" d="M147.746 44.5413C147.404 44.3612 147.045 44.2154 146.675 44.1058C146.045 43.8195 145.545 43.3079 145.272 42.6716C145.49 43.6732 146.042 44.5848 146.965 44.9768C147.336 45.0863 147.694 45.2322 148.036 45.4122C148.255 45.5667 148.432 45.7733 148.55 46.0132C148.434 45.4442 148.222 44.8635 147.746 44.5413Z" fill="black"/>
<path opacity="0.1" d="M152.704 51.6048C151.366 51.9445 149.618 52.1216 148.884 50.9865C148.907 51.26 148.986 51.5258 149.116 51.7674C149.743 52.8852 151.276 52.8474 152.58 52.5716L152.704 51.6048Z" fill="black"/>
<path opacity="0.1" d="M158.127 52.4003C158.313 53.579 157.547 54.7548 156.531 55.3732C155.515 55.9916 154.275 56.1629 153.079 56.2442C152.889 56.2688 152.695 56.2469 152.516 56.1803C152.461 56.303 152.443 56.439 152.465 56.5716C152.487 56.7041 152.546 56.8276 152.637 56.9267C152.727 57.0259 152.845 57.0966 152.975 57.13C153.105 57.1635 153.242 57.1583 153.369 57.1151C154.565 57.0397 155.796 56.8742 156.821 56.2442C157.846 55.6142 158.612 54.4413 158.415 53.2597C158.359 52.9613 158.262 52.6721 158.127 52.4003Z" fill="black"/>
<path opacity="0.1" d="M159.417 41.8906C159.594 42.5965 159.608 43.3335 159.457 44.0455C159.306 44.7574 158.994 45.4255 158.546 45.9987C157.861 46.829 156.818 47.4939 156.67 48.5594C156.621 49.0492 156.722 49.5425 156.961 49.9732C156.935 49.7932 156.935 49.6103 156.961 49.4303C157.109 48.3648 158.151 47.6884 158.836 46.8697C159.963 45.5081 160.119 43.5019 159.417 41.8906Z" fill="black"/>
</g>
<g opacity="0.1">
<path opacity="0.1" d="M124.546 167.835C125.533 167.426 126.767 167.412 127.501 166.674C128.018 166.157 128.143 165.411 128.5 164.793C129.081 163.759 130.285 163.135 131.499 162.807C135.564 161.704 144.831 164.061 147.246 167.478C147.954 168.512 148.34 169.733 148.355 170.985C148.448 169.539 148.059 168.103 147.249 166.901C144.834 163.484 135.575 161.126 131.502 162.229C130.288 162.557 129.092 163.182 128.503 164.215C128.146 164.834 128.021 165.58 127.504 166.096C126.77 166.831 125.536 166.845 124.549 167.258C123.797 167.568 123.239 168.486 123.443 169.101C123.524 168.823 123.664 168.565 123.855 168.347C124.045 168.128 124.281 167.954 124.546 167.835Z" fill="black"/>
<path opacity="0.1" d="M121.991 172.054C122.113 171.125 122.862 170.196 123.875 170.144C123.769 170.099 123.674 170.032 123.597 169.946C123.52 169.86 123.464 169.758 123.431 169.647C123.046 169.79 122.707 170.036 122.451 170.358C122.195 170.68 122.032 171.065 121.98 171.473C121.952 171.71 121.952 171.948 121.98 172.185C121.991 172.141 121.991 172.097 121.991 172.054Z" fill="black"/>
</g>
<path d="M183.49 66.8439H157.07V101.296H183.49V66.8439Z" fill="white"/>
<path opacity="0.1" d="M183.49 66.8439H157.07V101.296H183.49V66.8439Z" fill="black"/>
<path d="M193.584 68.8651L167.547 73.3438L173.387 107.298L199.424 102.819L193.584 68.8651Z" fill="white"/>
<path d="M179.975 95.4379L173.857 96.4901L175.23 104.467L181.347 103.415L179.975 95.4379Z" fill="#6C63FF"/>
<path d="M188.44 93.9803L182.322 95.0325L183.694 103.01L189.812 101.957L188.44 93.9803Z" fill="#6C63FF"/>
<path d="M194.422 82.2932L172.969 85.9771L174.345 93.9903L195.798 90.3065L194.422 82.2932Z" fill="#6C63FF"/>
<path d="M192.633 72.7294L171.18 76.4132L171.487 78.201L192.94 74.5171L192.633 72.7294Z" fill="#6C63FF"/>
<path d="M193.337 76.018L171.884 79.7019L172.191 81.4896L193.644 77.8058L193.337 76.018Z" fill="#6C63FF"/>
<path d="M171.927 57.4839C171.927 57.4839 159.782 69.6774 165.879 72.7752C171.976 75.8729 175.945 62.4687 175.945 62.4687L176.909 59.4203L171.927 57.4839Z" fill="#AE6E79"/>
<path opacity="0.1" d="M170.864 56.4068L169.363 59.7223C169.363 59.7223 176.767 60.7616 178.314 63L177.397 57.15L176.308 54.6532L170.864 56.4068Z" fill="black"/>
<path d="M171.154 56.1165L169.653 59.4319C169.653 59.4319 177.057 60.4713 178.604 62.7097L177.687 56.8597L176.598 54.3629L171.154 56.1165Z" fill="#4C4981"/>
<path d="M215.968 117.075L215.809 117.186L216.029 117.285L216.267 117.264L216.296 117.099L215.968 117.075Z" fill="#464A5F"/>
<path opacity="0.1" d="M215.968 117.075L215.809 117.186L216.029 117.285L216.267 117.264L216.296 117.099L215.968 117.075Z" fill="black"/>
<path d="M215.968 117.075L215.805 117.18L215.678 117.023L215.756 116.895L215.829 116.872L215.968 117.075Z" fill="#9C9CA1"/>
<path opacity="0.1" d="M215.968 117.075L215.805 117.18L215.678 117.023L215.756 116.895L215.829 116.872L215.968 117.075Z" fill="black"/>
<path d="M244.545 97.0113L232.66 79.8445C232.554 79.6913 232.42 79.5603 232.264 79.4592C232.108 79.358 231.933 79.2885 231.751 79.2548C231.568 79.2211 231.38 79.2238 231.198 79.2627C231.016 79.3016 230.844 79.376 230.691 79.4816L204.196 97.6674C203.886 97.8802 203.673 98.2073 203.604 98.5768C203.535 98.9464 203.615 99.3283 203.828 99.6387L215.681 117.023L244.545 97.0113Z" fill="#9C9CA1"/>
<path opacity="0.1" d="M244.545 97.0113L232.66 79.8445C232.554 79.6913 232.42 79.5603 232.264 79.4592C232.108 79.358 231.933 79.2885 231.751 79.2548C231.568 79.2211 231.38 79.2238 231.198 79.2627C231.016 79.3016 230.844 79.376 230.691 79.4816L204.196 97.6674C203.886 97.8802 203.673 98.2073 203.604 98.5768C203.535 98.9464 203.615 99.3283 203.828 99.6387L215.681 117.023L244.545 97.0113Z" fill="black"/>
<path d="M244.835 97.0519L232.949 79.8852C232.844 79.7318 232.709 79.6008 232.553 79.4996C232.397 79.3984 232.222 79.3289 232.039 79.2952C231.856 79.2615 231.668 79.2642 231.486 79.3032C231.304 79.3421 231.131 79.4166 230.978 79.5223L204.486 97.7197C204.176 97.9325 203.963 98.2593 203.894 98.6287C203.824 98.9981 203.904 99.38 204.115 99.691L215.968 117.084L244.835 97.0519Z" fill="#9C9CA1"/>
<path d="M254.77 100.446L244.899 97.2755L216.029 117.287L226.057 120.568C226.281 120.641 226.52 120.661 226.753 120.625C226.986 120.59 227.208 120.501 227.401 120.365L254.851 100.983C254.903 100.954 254.944 100.91 254.97 100.857C254.996 100.804 255.005 100.745 254.996 100.686C254.987 100.628 254.961 100.574 254.921 100.531C254.88 100.488 254.828 100.458 254.77 100.446Z" fill="#464A5F"/>
<path opacity="0.1" d="M254.77 100.446L244.899 97.2755L216.029 117.287L226.057 120.568C226.281 120.641 226.52 120.661 226.753 120.625C226.986 120.59 227.208 120.501 227.401 120.365L254.851 100.983C254.903 100.954 254.944 100.91 254.97 100.857C254.996 100.804 255.005 100.745 254.996 100.686C254.987 100.628 254.961 100.574 254.921 100.531C254.88 100.488 254.828 100.458 254.77 100.446Z" fill="black"/>
<path d="M254.708 100.245L244.837 97.0723L215.968 117.084L225.996 120.359C226.22 120.433 226.458 120.454 226.691 120.419C226.925 120.384 227.147 120.295 227.34 120.159L254.79 100.777C254.839 100.747 254.879 100.703 254.903 100.651C254.928 100.599 254.936 100.541 254.927 100.484C254.919 100.427 254.893 100.374 254.854 100.331C254.815 100.289 254.764 100.259 254.708 100.245Z" fill="#464A5F"/>
<g opacity="0.1">
<path opacity="0.1" d="M240.171 96.2855L239.443 95.2403C239.399 95.1797 239.333 95.1383 239.26 95.1248C239.186 95.1113 239.11 95.1267 239.048 95.1678L237.965 95.8907C237.904 95.9335 237.862 95.9981 237.847 96.071C237.833 96.1439 237.847 96.2197 237.886 96.2826L238.557 97.3132C238.599 97.375 238.663 97.4182 238.736 97.4338C238.809 97.4495 238.885 97.4365 238.949 97.3974L240.09 96.6803C240.152 96.6379 240.195 96.573 240.21 96.4993C240.226 96.4257 240.212 96.349 240.171 96.2855Z" fill="black"/>
<path opacity="0.1" d="M238.227 97.6326L237.495 96.5903C237.452 96.5297 237.386 96.4883 237.313 96.4748C237.239 96.4613 237.163 96.4767 237.101 96.5178L236.021 97.2465C235.959 97.2889 235.917 97.3532 235.902 97.4262C235.886 97.4991 235.9 97.5751 235.939 97.6384L236.61 98.669C236.651 98.7312 236.715 98.775 236.788 98.7912C236.861 98.8075 236.938 98.7949 237.002 98.7561L238.146 98.039C238.178 98.0179 238.206 97.9906 238.227 97.9586C238.249 97.9267 238.264 97.8907 238.272 97.8529C238.279 97.815 238.279 97.7761 238.272 97.7382C238.264 97.7004 238.249 97.6645 238.227 97.6326Z" fill="black"/>
<path opacity="0.1" d="M236.183 99.0465L235.452 98.0042C235.408 97.9436 235.342 97.9022 235.269 97.8887C235.195 97.8751 235.119 97.8905 235.057 97.9316L233.974 98.6603C233.912 98.7033 233.87 98.7683 233.855 98.842C233.841 98.9156 233.855 98.992 233.896 99.0552L234.566 100.086C234.608 100.148 234.672 100.191 234.745 100.206C234.818 100.222 234.894 100.209 234.958 100.17L236.099 99.4529C236.132 99.432 236.16 99.4049 236.182 99.373C236.203 99.3412 236.219 99.3053 236.227 99.2674C236.235 99.2295 236.235 99.1905 236.227 99.1525C236.22 99.1146 236.205 99.0785 236.183 99.0465Z" fill="black"/>
<path opacity="0.1" d="M234.113 100.481L233.381 99.4355C233.337 99.3757 233.272 99.3348 233.2 99.3213C233.127 99.3078 233.051 99.3227 232.989 99.3629L231.906 100.095C231.845 100.137 231.803 100.202 231.789 100.275C231.774 100.348 231.788 100.424 231.828 100.486L232.498 101.517C232.54 101.579 232.603 101.622 232.676 101.638C232.748 101.654 232.824 101.642 232.888 101.604L234.031 100.884C234.063 100.863 234.091 100.836 234.112 100.804C234.133 100.772 234.148 100.737 234.156 100.699C234.163 100.662 234.164 100.623 234.156 100.586C234.149 100.548 234.134 100.512 234.113 100.481Z" fill="black"/>
<path opacity="0.1" d="M232.045 101.912L231.314 100.87C231.27 100.809 231.204 100.768 231.131 100.754C231.057 100.741 230.981 100.756 230.919 100.797L229.839 101.526C229.778 101.568 229.735 101.633 229.72 101.706C229.705 101.778 229.718 101.854 229.758 101.918L230.428 102.948C230.47 103.011 230.534 103.054 230.607 103.071C230.68 103.087 230.756 103.074 230.82 103.036L231.964 102.316C231.996 102.294 232.023 102.267 232.045 102.235C232.066 102.204 232.081 102.168 232.089 102.131C232.096 102.093 232.096 102.055 232.089 102.017C232.081 101.979 232.067 101.944 232.045 101.912Z" fill="black"/>
<path opacity="0.1" d="M230.068 103.474L229.16 102.179C229.15 102.165 229.137 102.152 229.123 102.143C229.109 102.133 229.092 102.127 229.075 102.123C229.058 102.12 229.041 102.12 229.024 102.124C229.007 102.127 228.991 102.134 228.977 102.144L227.647 103.041C227.632 103.051 227.62 103.063 227.61 103.077C227.6 103.092 227.593 103.108 227.59 103.125C227.586 103.142 227.586 103.159 227.589 103.176C227.593 103.194 227.599 103.21 227.609 103.224L228.442 104.505C228.461 104.534 228.491 104.555 228.526 104.562C228.56 104.57 228.596 104.564 228.625 104.545L230.03 103.674C230.047 103.665 230.062 103.651 230.073 103.636C230.084 103.62 230.092 103.602 230.096 103.583C230.099 103.564 230.099 103.544 230.094 103.525C230.089 103.506 230.08 103.489 230.068 103.474Z" fill="black"/>
<path opacity="0.1" d="M228.002 104.905L227.087 103.61C227.077 103.596 227.064 103.583 227.05 103.574C227.035 103.564 227.019 103.558 227.001 103.554C226.984 103.551 226.966 103.551 226.949 103.555C226.932 103.559 226.916 103.566 226.901 103.575L225.572 104.473C225.543 104.493 225.524 104.523 225.517 104.557C225.511 104.591 225.518 104.626 225.537 104.655L226.37 105.936C226.379 105.951 226.391 105.964 226.405 105.975C226.419 105.985 226.435 105.992 226.453 105.996C226.47 106 226.487 106 226.505 105.997C226.522 105.993 226.538 105.986 226.553 105.976L227.955 105.105C227.973 105.097 227.989 105.085 228.001 105.069C228.014 105.054 228.023 105.036 228.027 105.017C228.032 104.997 228.032 104.977 228.027 104.958C228.023 104.939 228.014 104.921 228.002 104.905Z" fill="black"/>
<path opacity="0.1" d="M226.17 106.174L225.261 104.891C225.241 104.863 225.21 104.844 225.176 104.838C225.142 104.832 225.107 104.839 225.078 104.859L223.749 105.753C223.719 105.773 223.699 105.804 223.692 105.838C223.685 105.873 223.692 105.909 223.711 105.939L224.544 107.219C224.564 107.248 224.593 107.268 224.627 107.276C224.661 107.283 224.697 107.278 224.727 107.26L226.132 106.389C226.151 106.38 226.168 106.366 226.181 106.349C226.194 106.332 226.203 106.312 226.207 106.291C226.21 106.27 226.209 106.248 226.203 106.228C226.196 106.208 226.185 106.189 226.17 106.174Z" fill="black"/>
<path opacity="0.1" d="M224.12 107.591L223.211 106.296C223.191 106.268 223.161 106.249 223.126 106.243C223.092 106.237 223.057 106.244 223.029 106.264L221.699 107.158C221.684 107.168 221.672 107.18 221.662 107.195C221.652 107.209 221.645 107.226 221.641 107.243C221.638 107.26 221.638 107.278 221.641 107.295C221.645 107.313 221.651 107.329 221.661 107.344L222.494 108.624C222.514 108.653 222.544 108.673 222.578 108.681C222.612 108.688 222.647 108.683 222.677 108.665L224.082 107.794C224.099 107.784 224.114 107.771 224.125 107.755C224.137 107.738 224.144 107.72 224.148 107.701C224.151 107.682 224.151 107.662 224.146 107.643C224.141 107.624 224.132 107.606 224.12 107.591Z" fill="black"/>
<path opacity="0.1" d="M222.135 108.955L221.226 107.66C221.216 107.646 221.204 107.634 221.189 107.624C221.175 107.614 221.159 107.608 221.142 107.605C221.125 107.601 221.107 107.602 221.09 107.605C221.073 107.609 221.057 107.616 221.043 107.625L219.713 108.523C219.699 108.532 219.686 108.544 219.676 108.559C219.666 108.573 219.66 108.589 219.656 108.606C219.653 108.623 219.652 108.641 219.656 108.658C219.659 108.675 219.666 108.691 219.676 108.706L220.509 109.986C220.528 110.015 220.558 110.036 220.592 110.044C220.626 110.051 220.662 110.045 220.692 110.026L222.097 109.156C222.114 109.146 222.128 109.133 222.14 109.117C222.151 109.101 222.159 109.083 222.162 109.064C222.166 109.045 222.165 109.025 222.16 109.007C222.156 108.988 222.147 108.97 222.135 108.955Z" fill="black"/>
<path opacity="0.1" d="M220.149 110.343L219.249 109.045C219.228 109.017 219.198 108.998 219.164 108.992C219.129 108.986 219.094 108.994 219.066 109.013L217.736 109.907C217.721 109.917 217.709 109.93 217.699 109.944C217.689 109.959 217.682 109.975 217.678 109.992C217.675 110.01 217.675 110.028 217.678 110.045C217.682 110.062 217.688 110.079 217.698 110.093L218.532 111.374C218.551 111.402 218.581 111.423 218.615 111.43C218.649 111.438 218.684 111.432 218.714 111.414L220.12 110.543C220.136 110.533 220.15 110.519 220.16 110.503C220.17 110.487 220.177 110.469 220.18 110.45C220.183 110.431 220.181 110.411 220.176 110.393C220.171 110.374 220.161 110.357 220.149 110.343Z" fill="black"/>
<path opacity="0.1" d="M218.162 111.716L217.253 110.421C217.244 110.407 217.231 110.395 217.217 110.385C217.202 110.375 217.186 110.369 217.169 110.366C217.152 110.362 217.135 110.363 217.118 110.366C217.101 110.37 217.085 110.377 217.07 110.386L215.741 111.278C215.726 111.287 215.713 111.299 215.704 111.314C215.694 111.328 215.687 111.344 215.683 111.361C215.68 111.378 215.68 111.396 215.683 111.413C215.686 111.43 215.693 111.446 215.703 111.461L216.536 112.741C216.555 112.77 216.585 112.791 216.619 112.799C216.654 112.806 216.689 112.8 216.719 112.782L218.124 111.911C218.14 111.901 218.154 111.888 218.165 111.873C218.175 111.857 218.183 111.84 218.186 111.822C218.19 111.803 218.19 111.785 218.185 111.766C218.181 111.748 218.173 111.731 218.162 111.716Z" fill="black"/>
<path opacity="0.1" d="M238.866 94.3955L238.134 93.3503C238.09 93.2897 238.025 93.2483 237.951 93.2348C237.878 93.2213 237.802 93.2367 237.739 93.2777L236.668 94.0094C236.607 94.0518 236.564 94.1161 236.549 94.1891C236.534 94.262 236.547 94.338 236.587 94.4013L237.257 95.4319C237.299 95.4937 237.363 95.5369 237.436 95.5525C237.509 95.5682 237.586 95.5552 237.649 95.5161L238.793 94.799C238.856 94.7551 238.899 94.6879 238.913 94.6123C238.926 94.5366 238.91 94.4587 238.866 94.3955Z" fill="black"/>
<path opacity="0.1" d="M236.006 90.2642L235.275 89.2132C235.231 89.1534 235.166 89.1126 235.093 89.0991C235.02 89.0856 234.945 89.1004 234.883 89.1407L233.8 89.8694C233.739 89.9118 233.696 89.9761 233.681 90.0491C233.666 90.122 233.679 90.198 233.719 90.2613L234.389 91.292C234.431 91.3542 234.495 91.3979 234.568 91.4142C234.641 91.4304 234.717 91.4178 234.781 91.379L235.925 90.6619C235.988 90.6194 236.032 90.554 236.047 90.4796C236.062 90.4053 236.047 90.328 236.006 90.2642Z" fill="black"/>
<path opacity="0.1" d="M236.917 95.7426L236.186 94.7003C236.142 94.6405 236.077 94.5996 236.004 94.5862C235.931 94.5727 235.856 94.5875 235.794 94.6278L234.711 95.3565C234.65 95.3993 234.608 95.4639 234.594 95.5368C234.579 95.6097 234.593 95.6855 234.633 95.7484L235.3 96.7791C235.342 96.8413 235.406 96.885 235.479 96.9013C235.552 96.9175 235.628 96.9049 235.692 96.8661L236.836 96.1491C236.868 96.128 236.896 96.1006 236.918 96.0687C236.939 96.0367 236.955 96.0007 236.962 95.9629C236.97 95.925 236.97 95.8861 236.962 95.8482C236.954 95.8104 236.939 95.7745 236.917 95.7426Z" fill="black"/>
<path opacity="0.1" d="M234.874 97.1565L234.142 96.1142C234.098 96.0536 234.033 96.0122 233.959 95.9987C233.886 95.9851 233.81 96.0005 233.747 96.0416L232.667 96.7616C232.605 96.8041 232.562 96.869 232.547 96.9426C232.532 97.0163 232.546 97.0929 232.586 97.1565L233.257 98.1871C233.299 98.2488 233.363 98.292 233.436 98.3077C233.509 98.3234 233.585 98.3104 233.649 98.2713L234.792 97.5542C234.855 97.5117 234.899 97.4462 234.914 97.3719C234.929 97.2976 234.915 97.2202 234.874 97.1565Z" fill="black"/>
<path opacity="0.1" d="M232.803 98.5906L232.074 97.5455C232.031 97.4849 231.965 97.4435 231.892 97.43C231.818 97.4164 231.742 97.4318 231.68 97.4729L230.597 98.2132C230.536 98.2561 230.494 98.3206 230.479 98.3936C230.465 98.4665 230.479 98.5422 230.518 98.6052L231.189 99.6358C231.231 99.6975 231.295 99.7407 231.368 99.7564C231.441 99.7721 231.517 99.7591 231.581 99.72L232.722 99.0029C232.755 98.9818 232.783 98.9542 232.806 98.9218C232.828 98.8893 232.843 98.8527 232.851 98.8142C232.858 98.7756 232.858 98.736 232.85 98.6975C232.842 98.6591 232.826 98.6227 232.803 98.5906Z" fill="black"/>
<path opacity="0.1" d="M234.104 91.6781L233.372 90.6358C233.329 90.576 233.264 90.5351 233.191 90.5216C233.118 90.5081 233.043 90.523 232.98 90.5632L231.898 91.292C231.836 91.3344 231.794 91.3987 231.779 91.4717C231.763 91.5446 231.777 91.6206 231.816 91.6839L232.487 92.7145C232.528 92.7767 232.592 92.8205 232.665 92.8368C232.738 92.853 232.815 92.8404 232.879 92.8016L234.023 92.0845C234.055 92.0634 234.083 92.0361 234.104 92.0041C234.126 91.9722 234.141 91.9362 234.149 91.8984C234.156 91.8605 234.156 91.8216 234.148 91.7837C234.141 91.7459 234.126 91.71 234.104 91.6781Z" fill="black"/>
<path opacity="0.1" d="M232.06 93.0948L231.328 92.0497C231.285 91.9891 231.219 91.9477 231.146 91.9342C231.072 91.9206 230.996 91.936 230.934 91.9771L229.854 92.6971C229.792 92.7395 229.75 92.8039 229.735 92.8768C229.719 92.9498 229.733 93.0258 229.772 93.089L230.443 94.1197C230.485 94.1814 230.549 94.2246 230.622 94.2403C230.695 94.256 230.771 94.2429 230.835 94.2039L231.979 93.4868C232.04 93.4444 232.083 93.38 232.098 93.3071C232.113 93.2341 232.099 93.1581 232.06 93.0948Z" fill="black"/>
<path opacity="0.1" d="M229.991 94.5261L229.259 93.4839C229.216 93.4236 229.151 93.3821 229.078 93.3681C229.005 93.3541 228.93 93.3685 228.867 93.4084L227.784 94.1487C227.723 94.1916 227.681 94.2561 227.667 94.329C227.652 94.402 227.666 94.4777 227.706 94.5407L228.376 95.5713C228.418 95.6335 228.482 95.6773 228.555 95.6935C228.628 95.7097 228.704 95.6972 228.768 95.6584L229.909 94.9384C229.942 94.9173 229.971 94.8897 229.993 94.8572C230.015 94.8248 230.031 94.7882 230.038 94.7497C230.046 94.7111 230.045 94.6714 230.037 94.633C230.029 94.5946 230.013 94.5582 229.991 94.5261Z" fill="black"/>
<path opacity="0.1" d="M230.737 100.022L230.005 98.9797C229.962 98.9194 229.897 98.878 229.824 98.8639C229.751 98.8499 229.676 98.8643 229.613 98.9042L228.539 99.6358C228.478 99.6787 228.436 99.7432 228.422 99.8162C228.407 99.8891 228.421 99.9648 228.461 100.028L229.12 101.058C229.161 101.12 229.225 101.163 229.297 101.179C229.369 101.195 229.445 101.183 229.509 101.146L230.653 100.425C230.685 100.405 230.712 100.378 230.734 100.346C230.756 100.314 230.771 100.279 230.779 100.241C230.787 100.204 230.787 100.165 230.78 100.127C230.772 100.09 230.758 100.054 230.737 100.022Z" fill="black"/>
<path opacity="0.1" d="M228.669 101.453L227.938 100.411C227.894 100.35 227.828 100.309 227.755 100.295C227.681 100.282 227.605 100.297 227.543 100.338L226.463 101.067C226.402 101.11 226.359 101.174 226.344 101.247C226.329 101.32 226.342 101.396 226.382 101.459L227.052 102.49C227.094 102.552 227.158 102.596 227.231 102.612C227.304 102.628 227.38 102.616 227.444 102.577L228.588 101.86C228.62 101.839 228.648 101.811 228.67 101.779C228.691 101.747 228.706 101.711 228.714 101.674C228.722 101.636 228.722 101.597 228.714 101.559C228.706 101.521 228.691 101.485 228.669 101.453Z" fill="black"/>
<path opacity="0.1" d="M226.692 103.015L225.784 101.72C225.774 101.706 225.762 101.694 225.747 101.684C225.733 101.674 225.716 101.668 225.699 101.665C225.682 101.661 225.665 101.662 225.648 101.665C225.631 101.669 225.615 101.676 225.601 101.685L224.271 102.583C224.256 102.592 224.244 102.604 224.234 102.619C224.224 102.633 224.217 102.649 224.214 102.666C224.21 102.683 224.21 102.701 224.213 102.718C224.217 102.735 224.223 102.751 224.233 102.765L225.066 104.046C225.076 104.061 225.088 104.074 225.102 104.084C225.116 104.094 225.132 104.101 225.149 104.105C225.166 104.109 225.184 104.109 225.201 104.106C225.218 104.103 225.235 104.096 225.249 104.086L226.655 103.215C226.671 103.206 226.686 103.193 226.697 103.177C226.709 103.161 226.716 103.143 226.72 103.124C226.723 103.105 226.723 103.085 226.718 103.067C226.713 103.048 226.705 103.03 226.692 103.015Z" fill="black"/>
<path opacity="0.1" d="M224.86 104.284L223.952 102.986C223.931 102.958 223.901 102.939 223.867 102.933C223.833 102.927 223.797 102.935 223.769 102.954L222.442 103.848C222.413 103.868 222.393 103.899 222.386 103.934C222.379 103.968 222.385 104.004 222.404 104.034L223.237 105.315C223.257 105.343 223.287 105.364 223.321 105.371C223.355 105.379 223.39 105.373 223.42 105.355L224.826 104.484C224.843 104.475 224.858 104.462 224.87 104.446C224.881 104.43 224.889 104.412 224.893 104.393C224.896 104.373 224.895 104.353 224.889 104.335C224.884 104.316 224.874 104.298 224.86 104.284Z" fill="black"/>
<path opacity="0.1" d="M222.81 105.701L221.902 104.406C221.881 104.378 221.851 104.359 221.817 104.353C221.783 104.347 221.747 104.354 221.719 104.374L220.389 105.268C220.374 105.277 220.362 105.29 220.352 105.304C220.342 105.318 220.335 105.335 220.332 105.352C220.328 105.369 220.328 105.386 220.332 105.403C220.335 105.42 220.342 105.437 220.351 105.451L221.185 106.734C221.204 106.763 221.234 106.783 221.268 106.791C221.302 106.798 221.338 106.793 221.368 106.775L222.773 105.904C222.79 105.894 222.804 105.881 222.816 105.865C222.827 105.848 222.835 105.83 222.838 105.811C222.842 105.792 222.841 105.772 222.836 105.753C222.832 105.734 222.823 105.716 222.81 105.701Z" fill="black"/>
<path opacity="0.1" d="M220.825 107.077L219.916 105.782C219.907 105.768 219.894 105.755 219.88 105.746C219.865 105.736 219.849 105.729 219.832 105.726C219.815 105.723 219.798 105.723 219.781 105.727C219.764 105.73 219.748 105.737 219.733 105.747L218.404 106.633C218.389 106.642 218.377 106.654 218.367 106.669C218.357 106.683 218.35 106.699 218.346 106.716C218.343 106.733 218.343 106.751 218.346 106.768C218.35 106.785 218.356 106.801 218.366 106.816L219.199 108.096C219.218 108.125 219.248 108.146 219.282 108.154C219.317 108.161 219.352 108.155 219.382 108.136L220.787 107.266C220.802 107.256 220.816 107.243 220.826 107.228C220.836 107.214 220.843 107.197 220.846 107.179C220.85 107.162 220.85 107.143 220.846 107.126C220.842 107.108 220.835 107.092 220.825 107.077Z" fill="black"/>
<path opacity="0.1" d="M233.512 95.191L232.781 94.1487C232.737 94.0889 232.672 94.048 232.599 94.0345C232.526 94.0211 232.451 94.0359 232.389 94.0761L231.306 94.8078C231.245 94.8506 231.203 94.9152 231.188 94.9881C231.174 95.061 231.188 95.1368 231.227 95.1997L231.898 96.2304C231.94 96.2913 232.003 96.334 232.076 96.3496C232.148 96.3653 232.224 96.3527 232.287 96.3145L233.431 95.5974C233.463 95.5763 233.491 95.549 233.513 95.517C233.534 95.4851 233.549 95.4491 233.557 95.4113C233.564 95.3734 233.564 95.3345 233.557 95.2966C233.549 95.2588 233.534 95.2229 233.512 95.191Z" fill="black"/>
<path opacity="0.1" d="M231.442 96.6252L230.71 95.58C230.666 95.5194 230.601 95.478 230.527 95.4645C230.454 95.4509 230.378 95.4663 230.315 95.5074L229.235 96.239C229.174 96.2815 229.132 96.3458 229.116 96.4188C229.101 96.4917 229.115 96.5677 229.154 96.631L229.825 97.6616C229.866 97.7239 229.93 97.7676 230.003 97.7839C230.076 97.8001 230.153 97.7875 230.217 97.7487L231.361 97.0287C231.392 97.0076 231.42 96.9804 231.441 96.9487C231.463 96.917 231.478 96.8814 231.485 96.8439C231.493 96.8064 231.493 96.7677 231.485 96.7302C231.478 96.6927 231.463 96.657 231.442 96.6252Z" fill="black"/>
<path opacity="0.1" d="M229.378 98.0565L228.647 97.0142C228.603 96.9536 228.537 96.9122 228.464 96.8987C228.39 96.8852 228.314 96.9005 228.252 96.9416L227.169 97.6703C227.108 97.7132 227.066 97.7777 227.052 97.8507C227.037 97.9236 227.051 97.9993 227.091 98.0623L227.761 99.0929C227.803 99.1551 227.867 99.1989 227.94 99.2151C228.013 99.2314 228.089 99.2188 228.153 99.18L229.294 98.46C229.326 98.4392 229.354 98.4121 229.376 98.3805C229.397 98.3489 229.412 98.3133 229.42 98.2758C229.428 98.2383 229.428 98.1996 229.421 98.1619C229.414 98.1243 229.399 98.0884 229.378 98.0565Z" fill="black"/>
<path opacity="0.1" d="M227.308 99.4878L226.576 98.4455C226.533 98.3857 226.468 98.3448 226.395 98.3313C226.322 98.3178 226.247 98.3327 226.184 98.3729L225.102 99.1016C225.041 99.1445 224.999 99.209 224.984 99.282C224.97 99.3549 224.984 99.4306 225.023 99.4936L225.694 100.536C225.735 100.597 225.799 100.641 225.871 100.657C225.943 100.673 226.019 100.661 226.083 100.623L227.227 99.9058C227.261 99.8847 227.29 99.8569 227.313 99.824C227.335 99.791 227.351 99.7538 227.359 99.7145C227.366 99.6753 227.366 99.6349 227.357 99.5959C227.348 99.5568 227.332 99.52 227.308 99.4878Z" fill="black"/>
<path opacity="0.1" d="M225.345 101.05L224.437 99.7548C224.427 99.7404 224.415 99.7281 224.4 99.7185C224.386 99.709 224.37 99.7024 224.353 99.6991C224.336 99.6959 224.318 99.6961 224.301 99.6997C224.284 99.7032 224.268 99.7102 224.254 99.72L222.924 100.617C222.895 100.637 222.875 100.667 222.868 100.701C222.861 100.735 222.868 100.771 222.886 100.8L223.72 102.083C223.729 102.098 223.741 102.11 223.756 102.12C223.77 102.13 223.786 102.137 223.803 102.141C223.82 102.144 223.838 102.144 223.855 102.141C223.872 102.137 223.888 102.131 223.903 102.121L225.308 101.25C225.325 101.24 225.339 101.227 225.35 101.211C225.362 101.196 225.369 101.178 225.373 101.159C225.377 101.14 225.376 101.12 225.371 101.101C225.366 101.082 225.358 101.065 225.345 101.05Z" fill="black"/>
<path opacity="0.1" d="M223.502 102.318L222.593 101.021C222.572 100.992 222.541 100.973 222.507 100.967C222.472 100.961 222.437 100.969 222.407 100.989L221.081 101.883C221.051 101.903 221.031 101.934 221.024 101.968C221.017 102.003 221.024 102.039 221.043 102.069L221.876 103.349C221.895 103.378 221.925 103.399 221.959 103.407C221.993 103.414 222.029 103.408 222.059 103.39L223.464 102.519C223.481 102.509 223.496 102.496 223.507 102.48C223.518 102.464 223.526 102.446 223.529 102.427C223.533 102.408 223.532 102.389 223.528 102.37C223.523 102.351 223.514 102.333 223.502 102.318Z" fill="black"/>
<path opacity="0.1" d="M221.452 103.729L220.543 102.432C220.522 102.403 220.491 102.384 220.457 102.378C220.422 102.372 220.387 102.38 220.358 102.4L219.028 103.294C218.999 103.314 218.98 103.345 218.973 103.379C218.966 103.414 218.972 103.45 218.99 103.48L219.826 104.76C219.845 104.789 219.875 104.81 219.909 104.818C219.944 104.825 219.979 104.819 220.009 104.801L221.411 103.93C221.429 103.921 221.444 103.908 221.456 103.892C221.468 103.877 221.476 103.859 221.48 103.839C221.484 103.82 221.483 103.8 221.479 103.781C221.474 103.762 221.465 103.744 221.452 103.729Z" fill="black"/>
<path opacity="0.1" d="M219.466 105.111L218.558 103.816C218.548 103.802 218.535 103.79 218.52 103.78C218.506 103.77 218.489 103.764 218.472 103.761C218.455 103.757 218.437 103.757 218.42 103.761C218.403 103.765 218.386 103.772 218.372 103.782L217.042 104.679C217.014 104.699 216.994 104.729 216.988 104.763C216.981 104.797 216.988 104.833 217.007 104.862L217.841 106.142C217.85 106.157 217.861 106.17 217.876 106.181C217.89 106.191 217.906 106.198 217.923 106.202C217.94 106.206 217.958 106.206 217.975 106.203C217.993 106.199 218.009 106.193 218.024 106.183L219.426 105.312C219.443 105.303 219.459 105.29 219.47 105.274C219.482 105.259 219.491 105.241 219.494 105.221C219.498 105.202 219.498 105.182 219.493 105.163C219.488 105.144 219.479 105.126 219.466 105.111Z" fill="black"/>
<path opacity="0.1" d="M218.839 108.45L217.93 107.155C217.91 107.127 217.879 107.108 217.845 107.102C217.811 107.096 217.776 107.104 217.747 107.123L216.417 108.017C216.403 108.027 216.39 108.039 216.38 108.053C216.371 108.068 216.364 108.084 216.36 108.101C216.357 108.118 216.357 108.136 216.36 108.153C216.363 108.17 216.37 108.186 216.38 108.2L217.213 109.484C217.232 109.512 217.262 109.533 217.296 109.54C217.33 109.548 217.366 109.542 217.396 109.524L218.801 108.653C218.818 108.643 218.833 108.63 218.844 108.614C218.855 108.598 218.863 108.58 218.866 108.56C218.87 108.541 218.869 108.521 218.865 108.502C218.86 108.483 218.851 108.465 218.839 108.45Z" fill="black"/>
<path opacity="0.1" d="M216.853 109.826L215.945 108.531C215.935 108.517 215.923 108.505 215.908 108.495C215.894 108.485 215.878 108.479 215.861 108.476C215.843 108.472 215.826 108.473 215.809 108.476C215.792 108.48 215.776 108.487 215.762 108.496L214.432 109.394C214.417 109.403 214.405 109.415 214.395 109.43C214.385 109.444 214.378 109.46 214.375 109.477C214.371 109.494 214.371 109.512 214.375 109.529C214.378 109.546 214.385 109.562 214.394 109.576L215.228 110.857C215.247 110.886 215.276 110.907 215.311 110.915C215.345 110.922 215.381 110.916 215.41 110.897L216.816 110.026C216.832 110.017 216.847 110.004 216.858 109.988C216.87 109.972 216.877 109.954 216.881 109.935C216.885 109.916 216.884 109.896 216.879 109.878C216.874 109.859 216.866 109.841 216.853 109.826Z" fill="black"/>
<path opacity="0.1" d="M219.971 101.598L219.1 100.379C219.073 100.341 219.032 100.315 218.985 100.307C218.939 100.299 218.892 100.309 218.853 100.335L217.599 101.18C217.58 101.193 217.563 101.21 217.55 101.229C217.537 101.249 217.528 101.27 217.523 101.293C217.518 101.316 217.518 101.34 217.523 101.363C217.528 101.386 217.537 101.408 217.55 101.427L218.334 102.632C218.346 102.652 218.362 102.669 218.381 102.683C218.4 102.696 218.421 102.706 218.444 102.711C218.467 102.716 218.49 102.717 218.513 102.713C218.536 102.709 218.558 102.7 218.577 102.687L219.904 101.854C219.926 101.842 219.945 101.826 219.961 101.807C219.976 101.787 219.987 101.765 219.993 101.741C220 101.717 220.001 101.692 219.997 101.667C219.993 101.643 219.984 101.619 219.971 101.598Z" fill="black"/>
<path opacity="0.1" d="M217.986 102.975L217.129 101.755C217.116 101.736 217.099 101.719 217.08 101.707C217.06 101.694 217.038 101.685 217.015 101.681C216.992 101.676 216.969 101.677 216.946 101.681C216.923 101.686 216.902 101.696 216.882 101.709L215.628 102.568C215.609 102.581 215.592 102.597 215.579 102.616C215.566 102.635 215.557 102.657 215.552 102.68C215.548 102.702 215.548 102.726 215.552 102.748C215.557 102.771 215.566 102.793 215.579 102.812L216.363 104.02C216.388 104.059 216.428 104.086 216.474 104.097C216.519 104.107 216.567 104.099 216.607 104.075L217.933 103.242C217.956 103.229 217.975 103.211 217.99 103.19C218.005 103.169 218.016 103.145 218.02 103.12C218.025 103.095 218.025 103.069 218.019 103.043C218.013 103.018 218.002 102.995 217.986 102.975Z" fill="black"/>
<path opacity="0.1" d="M215.999 104.351L215.143 103.128C215.116 103.091 215.075 103.065 215.028 103.057C214.982 103.049 214.935 103.059 214.896 103.085L213.642 103.93C213.623 103.943 213.606 103.959 213.593 103.979C213.58 103.998 213.571 104.02 213.566 104.043C213.561 104.066 213.561 104.089 213.566 104.112C213.571 104.135 213.58 104.157 213.593 104.176L214.377 105.381C214.389 105.401 214.405 105.418 214.424 105.432C214.443 105.446 214.464 105.455 214.487 105.46C214.51 105.466 214.533 105.466 214.556 105.462C214.579 105.458 214.601 105.449 214.62 105.436L215.947 104.603C215.968 104.591 215.986 104.574 215.999 104.554C216.013 104.534 216.023 104.512 216.028 104.488C216.033 104.465 216.033 104.44 216.028 104.417C216.023 104.393 216.013 104.37 215.999 104.351Z" fill="black"/>
<path opacity="0.1" d="M214.04 105.762L213.131 104.464C213.111 104.436 213.08 104.417 213.046 104.411C213.012 104.405 212.977 104.413 212.948 104.432L211.619 105.326C211.59 105.346 211.569 105.377 211.562 105.411C211.555 105.446 211.562 105.482 211.581 105.512L212.414 106.792C212.434 106.821 212.464 106.841 212.498 106.849C212.532 106.856 212.567 106.851 212.597 106.833L214.002 105.962C214.02 105.953 214.035 105.94 214.047 105.925C214.059 105.909 214.067 105.891 214.071 105.871C214.075 105.852 214.074 105.832 214.068 105.813C214.063 105.794 214.053 105.776 214.04 105.762Z" fill="black"/>
<path opacity="0.1" d="M237.539 92.3632L236.752 91.2455C236.708 91.1853 236.642 91.1445 236.569 91.1316C236.495 91.1186 236.42 91.1344 236.357 91.1758L233.286 93.3271C233.226 93.3703 233.185 93.4345 233.171 93.5067C233.157 93.579 233.171 93.6538 233.21 93.7161L233.951 94.86C233.972 94.8917 233.999 94.9189 234.031 94.94C234.063 94.961 234.099 94.9757 234.136 94.9829C234.174 94.9902 234.212 94.99 234.25 94.9824C234.287 94.9748 234.323 94.9598 234.354 94.9384L237.472 92.7581C237.532 92.7134 237.572 92.6475 237.585 92.574C237.597 92.5005 237.581 92.425 237.539 92.3632Z" fill="black"/>
<path opacity="0.1" d="M217.474 106.444L216.51 105.082C216.5 105.068 216.488 105.055 216.473 105.046C216.458 105.036 216.441 105.03 216.424 105.027C216.407 105.024 216.389 105.024 216.372 105.028C216.355 105.032 216.338 105.04 216.324 105.05L213.009 107.373C212.981 107.392 212.961 107.422 212.955 107.456C212.948 107.489 212.955 107.524 212.974 107.553L213.88 108.955C213.889 108.97 213.902 108.983 213.917 108.993C213.932 109.004 213.948 109.011 213.966 109.014C213.984 109.018 214.002 109.018 214.019 109.014C214.037 109.01 214.054 109.003 214.068 108.993L217.439 106.633C217.469 106.612 217.489 106.581 217.495 106.545C217.502 106.51 217.494 106.474 217.474 106.444Z" fill="black"/>
<path opacity="0.1" d="M228.022 96.03L227.134 94.7294C227.114 94.7009 227.083 94.6813 227.049 94.6748C227.015 94.6683 226.98 94.6754 226.951 94.6945L219.588 99.6648C219.559 99.6844 219.539 99.7144 219.532 99.7486C219.525 99.7828 219.532 99.8184 219.55 99.8478L220.459 101.241C220.469 101.256 220.481 101.269 220.496 101.28C220.511 101.29 220.528 101.297 220.546 101.3C220.563 101.304 220.581 101.304 220.599 101.3C220.616 101.296 220.633 101.289 220.648 101.279L227.987 96.2158C228.002 96.2059 228.014 96.1933 228.024 96.1785C228.033 96.1638 228.04 96.1474 228.043 96.1301C228.046 96.1129 228.046 96.0952 228.043 96.078C228.039 96.0608 228.032 96.0445 228.022 96.03Z" fill="black"/>
</g>
<path d="M240.368 96.3203L239.636 95.2752C239.592 95.2145 239.527 95.1732 239.453 95.1596C239.38 95.1461 239.304 95.1615 239.241 95.2026L238.161 95.9342C238.1 95.9766 238.057 96.041 238.042 96.1139C238.027 96.1869 238.041 96.2628 238.08 96.3261L238.751 97.3568C238.792 97.419 238.856 97.4628 238.929 97.479C239.002 97.4952 239.079 97.4826 239.142 97.4439L240.286 96.7239C240.318 96.7028 240.346 96.6756 240.367 96.6439C240.388 96.6121 240.403 96.5765 240.411 96.539C240.418 96.5015 240.418 96.4629 240.411 96.4253C240.404 96.3878 240.389 96.3521 240.368 96.3203Z" fill="#464A5F"/>
<path d="M238.411 97.6674L237.679 96.6252C237.635 96.5653 237.57 96.5245 237.497 96.511C237.425 96.4975 237.349 96.5124 237.287 96.5526L236.204 97.2813C236.143 97.3237 236.1 97.3881 236.085 97.461C236.07 97.534 236.084 97.61 236.123 97.6732L236.793 98.7039C236.835 98.7661 236.899 98.8099 236.972 98.8261C237.045 98.8423 237.121 98.8297 237.185 98.791L238.329 98.0739C238.362 98.0528 238.389 98.0254 238.411 97.9935C238.433 97.9615 238.448 97.9256 238.455 97.8877C238.463 97.8499 238.463 97.8109 238.455 97.7731C238.447 97.7352 238.432 97.6993 238.411 97.6674Z" fill="#464A5F"/>
<path d="M236.378 99.0842L235.647 98.0419C235.603 97.9813 235.537 97.9399 235.464 97.9264C235.39 97.9129 235.314 97.9283 235.252 97.9694L234.172 98.701C234.111 98.7434 234.068 98.8077 234.053 98.8807C234.038 98.9537 234.051 99.0296 234.091 99.0929L234.761 100.124C234.803 100.185 234.867 100.228 234.94 100.244C235.013 100.26 235.09 100.247 235.153 100.208L236.297 99.4907C236.329 99.4696 236.357 99.4422 236.379 99.4103C236.4 99.3783 236.415 99.3423 236.423 99.3045C236.431 99.2667 236.431 99.2277 236.423 99.1899C236.415 99.152 236.4 99.1161 236.378 99.0842Z" fill="#464A5F"/>
<path d="M234.305 100.515L233.573 99.4703C233.529 99.4105 233.464 99.3696 233.392 99.3561C233.319 99.3426 233.243 99.3575 233.181 99.3977L232.098 100.129C232.066 100.151 232.039 100.179 232.018 100.211C231.997 100.243 231.983 100.279 231.976 100.317C231.969 100.355 231.969 100.393 231.977 100.431C231.985 100.469 232.001 100.504 232.023 100.536L232.693 101.566C232.735 101.629 232.799 101.672 232.872 101.689C232.945 101.705 233.021 101.692 233.085 101.654L234.226 100.934C234.26 100.912 234.289 100.884 234.312 100.851C234.334 100.818 234.349 100.781 234.357 100.742C234.364 100.702 234.363 100.662 234.354 100.623C234.345 100.584 234.329 100.548 234.305 100.515Z" fill="#464A5F"/>
<path d="M232.239 101.947L231.507 100.905C231.463 100.845 231.398 100.804 231.325 100.79C231.253 100.777 231.177 100.792 231.115 100.832L230.032 101.561C229.971 101.604 229.929 101.668 229.915 101.741C229.9 101.814 229.914 101.89 229.954 101.953L230.622 102.983C230.663 103.045 230.727 103.089 230.8 103.105C230.873 103.122 230.95 103.109 231.013 103.07L232.157 102.35C232.189 102.329 232.217 102.302 232.238 102.27C232.259 102.239 232.274 102.203 232.282 102.165C232.289 102.128 232.289 102.089 232.282 102.052C232.275 102.014 232.26 101.979 232.239 101.947Z" fill="#464A5F"/>
<path d="M230.262 103.509L229.353 102.214C229.343 102.199 229.331 102.187 229.316 102.178C229.302 102.168 229.286 102.161 229.269 102.158C229.252 102.155 229.234 102.155 229.217 102.159C229.2 102.162 229.184 102.169 229.17 102.179L227.84 103.076C227.826 103.086 227.813 103.098 227.803 103.112C227.793 103.126 227.786 103.143 227.783 103.16C227.779 103.177 227.779 103.194 227.783 103.211C227.786 103.228 227.793 103.245 227.803 103.259L228.636 104.539C228.655 104.569 228.685 104.59 228.719 104.597C228.753 104.605 228.789 104.599 228.819 104.58L230.224 103.709C230.241 103.699 230.255 103.686 230.267 103.671C230.278 103.655 230.286 103.637 230.289 103.618C230.293 103.599 230.292 103.579 230.287 103.56C230.283 103.541 230.274 103.524 230.262 103.509Z" fill="#464A5F"/>
<path d="M228.193 104.94L227.285 103.645C227.275 103.631 227.262 103.618 227.247 103.609C227.233 103.599 227.216 103.592 227.199 103.589C227.182 103.586 227.164 103.586 227.147 103.59C227.129 103.593 227.113 103.6 227.099 103.61L225.772 104.507C225.757 104.517 225.745 104.529 225.735 104.543C225.725 104.558 225.718 104.574 225.715 104.591C225.711 104.608 225.711 104.626 225.714 104.643C225.718 104.66 225.724 104.676 225.734 104.69L226.567 105.974C226.577 105.988 226.589 106.001 226.603 106.011C226.618 106.02 226.634 106.027 226.651 106.031C226.668 106.034 226.686 106.034 226.703 106.031C226.72 106.028 226.736 106.021 226.75 106.011L228.155 105.14C228.172 105.13 228.186 105.117 228.197 105.101C228.208 105.085 228.216 105.068 228.219 105.049C228.223 105.03 228.222 105.01 228.218 104.992C228.213 104.973 228.205 104.955 228.193 104.94Z" fill="#464A5F"/>
<path d="M226.362 106.209L225.454 104.911C225.433 104.883 225.403 104.864 225.369 104.858C225.334 104.852 225.299 104.86 225.271 104.879L223.941 105.762C223.912 105.782 223.892 105.812 223.885 105.847C223.878 105.882 223.884 105.918 223.903 105.947L224.736 107.228C224.756 107.257 224.786 107.277 224.82 107.284C224.854 107.292 224.889 107.286 224.919 107.268L226.325 106.397C226.34 106.388 226.353 106.375 226.363 106.36C226.373 106.345 226.38 106.329 226.384 106.311C226.387 106.293 226.387 106.275 226.383 106.258C226.38 106.24 226.373 106.223 226.362 106.209Z" fill="#464A5F"/>
<path d="M224.313 107.628L223.404 106.342C223.383 106.314 223.353 106.295 223.319 106.289C223.285 106.283 223.25 106.291 223.221 106.31L221.891 107.205C221.877 107.214 221.864 107.227 221.854 107.241C221.844 107.256 221.837 107.272 221.834 107.29C221.83 107.307 221.83 107.325 221.834 107.342C221.837 107.359 221.844 107.376 221.854 107.39L222.687 108.671C222.706 108.7 222.736 108.72 222.77 108.727C222.804 108.735 222.84 108.729 222.87 108.711L224.275 107.84C224.294 107.831 224.31 107.818 224.323 107.801C224.335 107.784 224.344 107.765 224.347 107.744C224.351 107.723 224.35 107.702 224.344 107.682C224.338 107.662 224.327 107.644 224.313 107.628Z" fill="#464A5F"/>
<path d="M222.327 109.002L221.418 107.707C221.409 107.692 221.396 107.68 221.382 107.67C221.367 107.661 221.351 107.654 221.334 107.651C221.317 107.648 221.3 107.648 221.283 107.652C221.266 107.655 221.25 107.662 221.235 107.672L219.906 108.569C219.891 108.578 219.878 108.591 219.869 108.605C219.859 108.619 219.852 108.636 219.848 108.653C219.845 108.67 219.845 108.687 219.848 108.704C219.852 108.721 219.858 108.737 219.868 108.752L220.701 110.032C220.71 110.047 220.722 110.06 220.737 110.07C220.751 110.08 220.767 110.087 220.784 110.091C220.801 110.095 220.819 110.095 220.836 110.092C220.853 110.089 220.87 110.082 220.884 110.073L222.289 109.202C222.306 109.192 222.321 109.179 222.332 109.163C222.343 109.148 222.351 109.13 222.355 109.111C222.358 109.091 222.358 109.072 222.353 109.053C222.348 109.034 222.339 109.017 222.327 109.002Z" fill="#464A5F"/>
<path d="M220.341 110.378L219.432 109.08C219.412 109.052 219.381 109.033 219.347 109.027C219.313 109.021 219.278 109.029 219.249 109.048L217.919 109.942C217.89 109.962 217.87 109.993 217.863 110.028C217.856 110.062 217.863 110.098 217.882 110.128L218.715 111.408C218.735 111.437 218.764 111.458 218.798 111.465C218.832 111.473 218.868 111.467 218.898 111.449L220.303 110.578C220.32 110.568 220.335 110.555 220.346 110.54C220.357 110.524 220.365 110.506 220.368 110.487C220.372 110.468 220.371 110.448 220.367 110.429C220.362 110.41 220.353 110.393 220.341 110.378Z" fill="#464A5F"/>
<path d="M218.355 111.751L217.447 110.456C217.437 110.442 217.425 110.429 217.41 110.42C217.396 110.41 217.379 110.404 217.362 110.4C217.345 110.397 217.328 110.397 217.311 110.401C217.294 110.405 217.278 110.411 217.264 110.421L215.934 111.318C215.919 111.328 215.907 111.34 215.897 111.354C215.887 111.369 215.88 111.385 215.877 111.402C215.873 111.419 215.873 111.437 215.876 111.454C215.88 111.471 215.887 111.487 215.896 111.501L216.73 112.782C216.739 112.796 216.751 112.809 216.765 112.819C216.779 112.83 216.795 112.837 216.812 112.841C216.829 112.844 216.847 112.845 216.864 112.842C216.881 112.838 216.898 112.832 216.912 112.822L218.318 111.951C218.334 111.942 218.349 111.929 218.36 111.913C218.372 111.897 218.379 111.879 218.383 111.86C218.386 111.841 218.386 111.821 218.381 111.802C218.376 111.784 218.368 111.766 218.355 111.751Z" fill="#464A5F"/>
<path d="M239.058 94.439L238.326 93.3939C238.283 93.334 238.218 93.2932 238.145 93.2797C238.072 93.2662 237.997 93.2811 237.934 93.3213L236.852 94.0529C236.791 94.0958 236.749 94.1603 236.734 94.2332C236.72 94.3062 236.734 94.3819 236.773 94.4448L237.441 95.4755C237.482 95.5377 237.546 95.5815 237.619 95.5977C237.692 95.6139 237.769 95.6014 237.833 95.5626L238.977 94.8426C239.009 94.8215 239.036 94.7943 239.057 94.7626C239.079 94.7309 239.094 94.6952 239.101 94.6577C239.109 94.6202 239.109 94.5816 239.101 94.5441C239.094 94.5065 239.079 94.4708 239.058 94.439Z" fill="#464A5F"/>
<path d="M236.198 90.299L235.466 89.2568C235.422 89.197 235.357 89.1561 235.284 89.1426C235.212 89.1291 235.136 89.144 235.074 89.1842L233.991 89.9129C233.93 89.9558 233.888 90.0203 233.874 90.0932C233.859 90.1662 233.873 90.2419 233.913 90.3049L234.583 91.3355C234.625 91.3969 234.688 91.4402 234.761 91.4564C234.833 91.4726 234.909 91.4605 234.972 91.4226L236.116 90.7055C236.149 90.6844 236.176 90.6571 236.198 90.6251C236.22 90.5931 236.235 90.5572 236.242 90.5193C236.25 90.4815 236.25 90.4425 236.242 90.4047C236.234 90.3669 236.219 90.331 236.198 90.299Z" fill="#464A5F"/>
<path d="M237.11 95.7774L236.378 94.7294C236.334 94.6695 236.269 94.6287 236.197 94.6152C236.124 94.6017 236.048 94.6166 235.986 94.6568L234.903 95.3855C234.843 95.4283 234.8 95.4929 234.786 95.5658C234.771 95.6387 234.785 95.7145 234.825 95.7774L235.496 96.8081C235.537 96.8695 235.6 96.9128 235.673 96.929C235.745 96.9451 235.821 96.9331 235.885 96.8952L237.028 96.1781C237.092 96.1355 237.136 96.0695 237.152 95.9945C237.167 95.9194 237.152 95.8414 237.11 95.7774Z" fill="#464A5F"/>
<path d="M235.065 97.1913L234.345 96.149C234.302 96.0892 234.237 96.0483 234.164 96.0349C234.091 96.0214 234.016 96.0362 233.953 96.0765L232.87 96.8052C232.809 96.8481 232.766 96.9132 232.752 96.9868C232.737 97.0604 232.751 97.1368 232.792 97.2L233.46 98.2306C233.502 98.2924 233.566 98.3356 233.639 98.3512C233.712 98.3669 233.788 98.3539 233.852 98.3148L234.996 97.5977C235.027 97.5757 235.054 97.5477 235.074 97.5153C235.095 97.483 235.109 97.4468 235.115 97.409C235.122 97.3712 235.121 97.3325 235.112 97.2952C235.103 97.2578 235.088 97.2225 235.065 97.1913Z" fill="#464A5F"/>
<path d="M232.998 98.6255L232.267 97.5803C232.223 97.5197 232.158 97.4783 232.084 97.4648C232.01 97.4513 231.935 97.4667 231.872 97.5077L230.792 98.2394C230.731 98.2818 230.688 98.3461 230.673 98.4191C230.658 98.492 230.671 98.568 230.711 98.6313L231.381 99.6619C231.423 99.7241 231.487 99.7679 231.56 99.7841C231.633 99.8004 231.709 99.7878 231.773 99.749L232.917 99.029C232.949 99.0079 232.977 98.9807 232.998 98.949C233.019 98.9173 233.034 98.8817 233.042 98.8442C233.049 98.8067 233.049 98.768 233.042 98.7305C233.034 98.693 233.02 98.6573 232.998 98.6255Z" fill="#464A5F"/>
<path d="M234.296 91.7129L233.565 90.6648C233.521 90.605 233.456 90.5642 233.383 90.5507C233.31 90.5372 233.235 90.552 233.173 90.5923L232.09 91.321C232.029 91.3638 231.987 91.4284 231.972 91.5013C231.958 91.5742 231.972 91.65 232.011 91.7129L232.682 92.7436C232.724 92.805 232.787 92.8483 232.859 92.8644C232.932 92.8806 233.007 92.8686 233.071 92.8307L234.215 92.1136C234.279 92.071 234.323 92.005 234.338 91.93C234.353 91.8549 234.338 91.7769 234.296 91.7129Z" fill="#464A5F"/>
<path d="M232.253 93.1297L231.522 92.0845C231.478 92.0247 231.413 91.9838 231.34 91.9703C231.267 91.9568 231.192 91.9717 231.13 92.0119L230.047 92.7436C229.986 92.786 229.943 92.8503 229.928 92.9233C229.913 92.9962 229.926 93.0722 229.966 93.1355L230.636 94.1661C230.678 94.2283 230.742 94.2721 230.815 94.2884C230.888 94.3046 230.964 94.292 231.028 94.2532L232.172 93.5332C232.204 93.5121 232.231 93.4849 232.253 93.4532C232.274 93.4215 232.289 93.3859 232.297 93.3484C232.304 93.3109 232.304 93.2722 232.297 93.2347C232.289 93.1972 232.275 93.1615 232.253 93.1297Z" fill="#464A5F"/>
<path d="M230.185 94.561L229.453 93.5187C229.41 93.4581 229.344 93.4167 229.271 93.4032C229.197 93.3897 229.121 93.405 229.059 93.4461L227.979 94.1748C227.917 94.2173 227.875 94.2816 227.86 94.3546C227.844 94.4275 227.858 94.5035 227.897 94.5668L228.568 95.6003C228.609 95.6625 228.673 95.7063 228.746 95.7226C228.819 95.7388 228.896 95.7262 228.96 95.6874L230.101 94.9674C230.133 94.9466 230.161 94.9194 230.183 94.8875C230.205 94.8557 230.221 94.8198 230.228 94.7819C230.236 94.7441 230.236 94.705 230.229 94.6671C230.222 94.6291 230.207 94.5931 230.185 94.561Z" fill="#464A5F"/>
<path d="M230.929 100.057L230.197 99.0145C230.154 98.9547 230.089 98.9138 230.016 98.9003C229.943 98.8868 229.868 98.9017 229.806 98.9419L228.723 99.6648C228.662 99.7077 228.62 99.7722 228.605 99.8452C228.591 99.9181 228.605 99.9938 228.644 100.057L229.315 101.087C229.356 101.149 229.42 101.192 229.492 101.208C229.564 101.224 229.64 101.212 229.704 101.175L230.848 100.455C230.911 100.412 230.954 100.347 230.97 100.272C230.985 100.198 230.97 100.121 230.929 100.057Z" fill="#464A5F"/>
<path d="M228.862 101.488L228.13 100.446C228.086 100.386 228.021 100.345 227.949 100.332C227.876 100.318 227.8 100.333 227.738 100.373L226.655 101.116C226.594 101.159 226.551 101.223 226.536 101.296C226.521 101.369 226.535 101.445 226.574 101.508L227.245 102.539C227.286 102.601 227.35 102.645 227.423 102.661C227.496 102.677 227.573 102.665 227.637 102.626L228.78 101.909C228.815 101.888 228.844 101.86 228.867 101.827C228.89 101.794 228.906 101.756 228.914 101.716C228.922 101.677 228.921 101.636 228.912 101.597C228.903 101.557 228.886 101.52 228.862 101.488Z" fill="#464A5F"/>
<path d="M226.885 103.05L225.976 101.755C225.966 101.741 225.954 101.728 225.94 101.719C225.925 101.709 225.909 101.703 225.892 101.699C225.875 101.696 225.857 101.696 225.84 101.7C225.823 101.704 225.807 101.71 225.793 101.72L224.475 102.617C224.46 102.627 224.448 102.639 224.438 102.653C224.428 102.668 224.421 102.684 224.418 102.701C224.414 102.718 224.414 102.736 224.418 102.753C224.421 102.77 224.428 102.786 224.437 102.8L225.271 104.081C225.28 104.096 225.292 104.108 225.306 104.119C225.32 104.129 225.336 104.136 225.353 104.14C225.37 104.143 225.388 104.144 225.405 104.141C225.422 104.137 225.439 104.131 225.453 104.121L226.859 103.25C226.874 103.239 226.887 103.225 226.897 103.209C226.907 103.193 226.914 103.175 226.916 103.156C226.918 103.137 226.917 103.118 226.912 103.1C226.906 103.081 226.897 103.065 226.885 103.05Z" fill="#464A5F"/>
<path d="M225.056 104.31L224.147 103.012C224.126 102.984 224.095 102.965 224.06 102.959C224.026 102.953 223.99 102.961 223.961 102.98L222.631 103.875C222.603 103.895 222.583 103.926 222.576 103.96C222.569 103.994 222.575 104.03 222.594 104.06L223.43 105.341C223.449 105.37 223.479 105.391 223.513 105.398C223.547 105.406 223.583 105.4 223.613 105.381L225.015 104.51C225.032 104.501 225.048 104.489 225.06 104.473C225.071 104.457 225.08 104.439 225.084 104.42C225.087 104.401 225.087 104.381 225.082 104.362C225.077 104.343 225.068 104.325 225.056 104.31Z" fill="#464A5F"/>
<path d="M223.003 105.738L222.094 104.441C222.074 104.413 222.043 104.394 222.009 104.388C221.975 104.382 221.94 104.389 221.911 104.409L220.582 105.303C220.552 105.323 220.532 105.354 220.525 105.388C220.518 105.423 220.525 105.459 220.544 105.489L221.377 106.769C221.397 106.798 221.426 106.818 221.46 106.826C221.494 106.833 221.53 106.828 221.56 106.81L222.965 105.939C222.983 105.93 222.998 105.917 223.01 105.901C223.022 105.886 223.03 105.867 223.034 105.848C223.038 105.829 223.037 105.809 223.031 105.79C223.026 105.771 223.016 105.753 223.003 105.738Z" fill="#464A5F"/>
<path d="M221.02 107.112L220.12 105.817C220.111 105.802 220.098 105.79 220.084 105.78C220.069 105.771 220.053 105.764 220.036 105.761C220.019 105.758 220.002 105.758 219.985 105.762C219.968 105.765 219.952 105.772 219.937 105.782L218.608 106.679C218.579 106.699 218.559 106.729 218.552 106.763C218.545 106.797 218.551 106.833 218.57 106.862L219.403 108.142C219.422 108.172 219.452 108.192 219.486 108.2C219.521 108.208 219.556 108.202 219.586 108.183L220.991 107.312C221.008 107.302 221.022 107.288 221.033 107.272C221.044 107.256 221.051 107.238 221.053 107.219C221.056 107.2 221.055 107.18 221.049 107.161C221.043 107.143 221.033 107.126 221.02 107.112Z" fill="#464A5F"/>
<path d="M233.703 95.2287L232.975 94.1836C232.931 94.1229 232.865 94.0815 232.792 94.068C232.718 94.0545 232.642 94.0699 232.58 94.111L231.497 94.8426C231.436 94.8854 231.394 94.95 231.38 95.0229C231.365 95.0958 231.379 95.1716 231.419 95.2345L232.089 96.2652C232.131 96.3269 232.195 96.3701 232.268 96.3858C232.341 96.4014 232.418 96.3884 232.481 96.3494L233.622 95.6323C233.654 95.6112 233.682 95.584 233.703 95.5523C233.724 95.5205 233.739 95.4849 233.747 95.4474C233.754 95.4099 233.754 95.3713 233.747 95.3337C233.74 95.2962 233.725 95.2605 233.703 95.2287Z" fill="#464A5F"/>
<path d="M231.637 96.66L230.906 95.6177C230.862 95.5574 230.797 95.516 230.725 95.502C230.652 95.4879 230.576 95.5023 230.514 95.5423L229.431 96.2739C229.37 96.3167 229.328 96.3813 229.313 96.4542C229.299 96.5271 229.313 96.6029 229.352 96.6658L230.023 97.6965C230.064 97.7579 230.128 97.8012 230.2 97.8173C230.272 97.8335 230.348 97.8215 230.412 97.7836L231.556 97.0636C231.588 97.0425 231.615 97.0153 231.637 96.9836C231.658 96.9518 231.673 96.9162 231.68 96.8787C231.688 96.8412 231.688 96.8026 231.681 96.765C231.673 96.7275 231.658 96.6918 231.637 96.66Z" fill="#464A5F"/>
<path d="M229.57 98.0913L228.83 97.0519C228.786 96.9913 228.72 96.9499 228.647 96.9364C228.573 96.9229 228.497 96.9383 228.435 96.9794L227.378 97.7052C227.317 97.7476 227.274 97.8119 227.259 97.8849C227.244 97.9578 227.257 98.0338 227.297 98.0971L227.967 99.1277C228.009 99.1899 228.073 99.2337 228.146 99.25C228.219 99.2662 228.295 99.2536 228.359 99.2148L229.503 98.4977C229.534 98.4755 229.561 98.4473 229.581 98.4148C229.601 98.3824 229.615 98.3462 229.621 98.3084C229.627 98.2706 229.626 98.232 229.617 98.1947C229.608 98.1575 229.592 98.1223 229.57 98.0913Z" fill="#464A5F"/>
<path d="M227.499 99.5226L226.768 98.4803C226.724 98.4205 226.659 98.3796 226.586 98.3662C226.513 98.3527 226.438 98.3675 226.376 98.4078L225.293 99.1365C225.232 99.1793 225.19 99.2439 225.176 99.3168C225.161 99.3897 225.175 99.4655 225.215 99.5284L225.885 100.559C225.927 100.62 225.99 100.664 226.062 100.68C226.135 100.696 226.21 100.684 226.274 100.646L227.418 99.929C227.45 99.9079 227.478 99.8806 227.5 99.8486C227.521 99.8167 227.536 99.7807 227.544 99.7429C227.552 99.705 227.552 99.6661 227.544 99.6282C227.536 99.5904 227.521 99.5545 227.499 99.5226Z" fill="#464A5F"/>
<path d="M225.525 101.085L224.616 99.7897C224.607 99.7752 224.594 99.7628 224.579 99.7532C224.564 99.7436 224.548 99.737 224.531 99.7337C224.513 99.7305 224.496 99.7307 224.479 99.7343C224.461 99.7379 224.445 99.7449 224.431 99.7548L223.101 100.652C223.072 100.671 223.052 100.702 223.045 100.736C223.038 100.77 223.044 100.805 223.063 100.835L223.896 102.118C223.906 102.133 223.919 102.145 223.933 102.155C223.948 102.165 223.964 102.172 223.981 102.176C223.999 102.179 224.017 102.179 224.034 102.176C224.051 102.172 224.068 102.166 224.082 102.156L225.484 101.285C225.502 101.276 225.516 101.263 225.528 101.247C225.54 101.231 225.548 101.213 225.551 101.194C225.555 101.175 225.555 101.155 225.55 101.136C225.546 101.117 225.537 101.1 225.525 101.085Z" fill="#464A5F"/>
<path d="M223.694 102.353L222.786 101.058C222.776 101.044 222.764 101.032 222.749 101.022C222.735 101.013 222.719 101.006 222.701 101.003C222.684 100.999 222.667 101 222.65 101.003C222.633 101.007 222.617 101.014 222.603 101.024L221.282 101.918C221.253 101.938 221.232 101.968 221.225 102.003C221.218 102.038 221.225 102.074 221.244 102.104L222.077 103.384C222.097 103.413 222.127 103.433 222.161 103.441C222.195 103.448 222.23 103.442 222.26 103.425L223.665 102.554C223.682 102.543 223.695 102.53 223.706 102.513C223.716 102.497 223.723 102.479 223.726 102.46C223.729 102.441 223.727 102.422 223.722 102.403C223.716 102.385 223.707 102.368 223.694 102.353Z" fill="#464A5F"/>
<path d="M221.645 103.773L220.736 102.475C220.715 102.447 220.684 102.428 220.649 102.422C220.615 102.416 220.579 102.424 220.55 102.443L219.223 103.337C219.194 103.357 219.174 103.388 219.167 103.423C219.16 103.457 219.166 103.493 219.185 103.523L220.019 104.804C220.038 104.833 220.068 104.854 220.102 104.861C220.136 104.869 220.172 104.863 220.202 104.844L221.607 103.973C221.624 103.964 221.638 103.951 221.65 103.935C221.661 103.919 221.669 103.901 221.672 103.882C221.676 103.863 221.675 103.843 221.67 103.824C221.666 103.806 221.657 103.788 221.645 103.773Z" fill="#464A5F"/>
<path d="M219.658 105.146L218.749 103.851C218.74 103.837 218.727 103.824 218.712 103.815C218.697 103.805 218.681 103.799 218.664 103.795C218.646 103.792 218.629 103.792 218.612 103.796C218.594 103.8 218.578 103.807 218.564 103.816L217.237 104.714C217.222 104.723 217.21 104.735 217.2 104.75C217.19 104.764 217.183 104.78 217.179 104.797C217.176 104.814 217.176 104.832 217.179 104.849C217.183 104.866 217.189 104.882 217.199 104.896L218.032 106.18C218.042 106.194 218.054 106.207 218.068 106.217C218.083 106.227 218.099 106.234 218.116 106.237C218.133 106.241 218.15 106.241 218.167 106.237C218.185 106.234 218.201 106.227 218.215 106.217L219.62 105.346C219.637 105.337 219.651 105.323 219.662 105.307C219.673 105.292 219.681 105.274 219.684 105.255C219.688 105.236 219.687 105.216 219.683 105.198C219.678 105.179 219.67 105.161 219.658 105.146Z" fill="#464A5F"/>
<path d="M219.034 108.488L218.125 107.19C218.105 107.162 218.074 107.143 218.039 107.137C218.004 107.131 217.969 107.138 217.94 107.158L216.61 108.052C216.581 108.072 216.561 108.103 216.554 108.138C216.546 108.172 216.553 108.208 216.572 108.238L217.405 109.518C217.425 109.547 217.455 109.568 217.489 109.575C217.523 109.583 217.558 109.577 217.588 109.559L218.993 108.688C219.011 108.679 219.026 108.666 219.038 108.651C219.05 108.635 219.058 108.617 219.062 108.598C219.066 108.578 219.066 108.559 219.061 108.54C219.056 108.52 219.047 108.503 219.034 108.488Z" fill="#464A5F"/>
<path d="M217.049 109.861L216.14 108.566C216.13 108.552 216.117 108.539 216.103 108.53C216.088 108.52 216.071 108.513 216.054 108.51C216.037 108.507 216.019 108.507 216.002 108.511C215.985 108.514 215.968 108.521 215.954 108.531L214.624 109.428C214.595 109.448 214.575 109.478 214.568 109.512C214.561 109.546 214.568 109.582 214.587 109.611L215.42 110.892C215.429 110.907 215.442 110.92 215.456 110.93C215.471 110.94 215.487 110.947 215.504 110.951C215.522 110.955 215.539 110.955 215.557 110.952C215.574 110.949 215.591 110.942 215.606 110.932L217.008 110.061C217.025 110.052 217.041 110.04 217.053 110.024C217.064 110.008 217.073 109.99 217.076 109.971C217.08 109.952 217.08 109.932 217.075 109.913C217.07 109.894 217.061 109.876 217.049 109.861Z" fill="#464A5F"/>
<path d="M220.163 101.636L219.307 100.414C219.279 100.376 219.238 100.35 219.192 100.342C219.146 100.334 219.099 100.344 219.06 100.37L217.797 101.215C217.758 101.242 217.731 101.282 217.722 101.328C217.713 101.375 217.722 101.423 217.748 101.462L218.532 102.67C218.558 102.709 218.598 102.736 218.644 102.746C218.691 102.756 218.739 102.747 218.778 102.722L220.102 101.889C220.124 101.877 220.142 101.861 220.157 101.841C220.172 101.822 220.182 101.799 220.188 101.776C220.194 101.752 220.194 101.727 220.19 101.703C220.186 101.679 220.177 101.656 220.163 101.636Z" fill="#464A5F"/>
<path d="M218.178 103.009L217.321 101.79C217.308 101.771 217.292 101.754 217.272 101.741C217.252 101.729 217.231 101.72 217.208 101.715C217.185 101.711 217.161 101.711 217.138 101.716C217.116 101.721 217.094 101.73 217.075 101.744L215.82 102.591C215.782 102.617 215.755 102.657 215.746 102.703C215.736 102.749 215.746 102.796 215.771 102.835L216.555 104.043C216.581 104.082 216.621 104.11 216.667 104.12C216.713 104.13 216.761 104.122 216.802 104.098L218.129 103.265C218.149 103.251 218.166 103.234 218.179 103.214C218.193 103.194 218.202 103.171 218.207 103.147C218.211 103.124 218.211 103.099 218.206 103.076C218.201 103.052 218.192 103.029 218.178 103.009Z" fill="#464A5F"/>
<path d="M216.193 104.385L215.322 103.163C215.295 103.126 215.254 103.1 215.209 103.092C215.163 103.084 215.116 103.094 215.078 103.12L213.821 103.965C213.782 103.991 213.755 104.032 213.746 104.078C213.736 104.124 213.746 104.172 213.771 104.211L214.555 105.419C214.581 105.458 214.622 105.486 214.668 105.496C214.714 105.505 214.762 105.497 214.802 105.471L216.129 104.638C216.15 104.626 216.169 104.61 216.184 104.591C216.199 104.572 216.21 104.55 216.216 104.526C216.222 104.502 216.223 104.477 216.219 104.453C216.215 104.429 216.206 104.406 216.193 104.385Z" fill="#464A5F"/>
<path d="M214.235 105.799L213.326 104.502C213.306 104.473 213.275 104.454 213.24 104.448C213.205 104.442 213.17 104.45 213.141 104.47L211.811 105.364C211.782 105.384 211.763 105.415 211.756 105.45C211.75 105.484 211.757 105.52 211.776 105.55L212.609 106.83C212.628 106.859 212.658 106.88 212.693 106.888C212.727 106.895 212.763 106.889 212.792 106.871L214.197 106C214.214 105.99 214.229 105.977 214.24 105.961C214.251 105.945 214.259 105.927 214.263 105.908C214.266 105.889 214.266 105.87 214.261 105.851C214.256 105.832 214.247 105.814 214.235 105.799Z" fill="#464A5F"/>
<path d="M237.733 92.4068L236.958 91.2861C236.914 91.226 236.848 91.1852 236.775 91.1722C236.701 91.1592 236.625 91.1751 236.563 91.2165L233.474 93.3677C233.415 93.411 233.374 93.4752 233.36 93.5474C233.346 93.6196 233.36 93.6944 233.399 93.7568L234.142 94.9006C234.163 94.9323 234.191 94.9595 234.223 94.9806C234.254 95.0017 234.29 95.0163 234.327 95.0236C234.365 95.0308 234.404 95.0307 234.441 95.023C234.478 95.0154 234.514 95.0004 234.546 94.979L237.661 92.7987C237.721 92.755 237.761 92.69 237.775 92.6172C237.788 92.5443 237.773 92.469 237.733 92.4068Z" fill="#464A5F"/>
<path d="M217.667 106.479L216.703 105.117C216.693 105.103 216.68 105.09 216.665 105.081C216.651 105.071 216.634 105.065 216.617 105.062C216.599 105.059 216.581 105.059 216.564 105.063C216.547 105.067 216.531 105.075 216.517 105.085L213.201 107.408C213.173 107.428 213.153 107.458 213.147 107.492C213.14 107.526 213.147 107.562 213.167 107.591L214.075 108.99C214.085 109.005 214.098 109.018 214.112 109.028C214.127 109.038 214.144 109.045 214.162 109.049C214.179 109.053 214.197 109.052 214.215 109.049C214.233 109.045 214.249 109.038 214.264 109.028L217.635 106.667C217.664 106.646 217.683 106.615 217.689 106.58C217.695 106.544 217.687 106.508 217.667 106.479Z" fill="#464A5F"/>
<path d="M228.214 96.0649L227.343 94.7729C227.323 94.7438 227.292 94.7235 227.258 94.7165C227.223 94.7095 227.187 94.7162 227.157 94.7352L219.797 99.6997C219.783 99.7091 219.77 99.7213 219.76 99.7357C219.75 99.75 219.744 99.7662 219.74 99.7832C219.736 99.8002 219.736 99.8178 219.74 99.8349C219.743 99.852 219.75 99.8682 219.76 99.8826L220.665 101.276C220.675 101.291 220.688 101.304 220.703 101.314C220.717 101.325 220.734 101.332 220.752 101.335C220.769 101.339 220.787 101.339 220.805 101.335C220.823 101.331 220.839 101.324 220.854 101.314L228.193 96.2507C228.22 96.2285 228.238 96.1966 228.242 96.1619C228.245 96.1272 228.235 96.0923 228.214 96.0649Z" fill="#464A5F"/>
<path opacity="0.1" d="M228.249 91.6287L224.335 85.9413C224.227 85.7833 224.061 85.6744 223.872 85.6385C223.684 85.6026 223.489 85.6426 223.331 85.7497L212.551 92.9874C212.472 93.0411 212.404 93.1099 212.351 93.1899C212.298 93.2699 212.262 93.3596 212.244 93.4537C212.225 93.5478 212.226 93.6446 212.246 93.7384C212.265 93.8323 212.303 93.9214 212.356 94.0006L216.345 99.8506C216.399 99.9301 216.468 99.9981 216.548 100.051C216.628 100.104 216.718 100.14 216.812 100.158C216.906 100.175 217.003 100.174 217.097 100.155C217.191 100.135 217.28 100.097 217.359 100.042L228.063 92.6361C228.141 92.5823 228.208 92.5135 228.26 92.4337C228.312 92.3539 228.348 92.2646 228.365 92.171C228.382 92.0774 228.381 91.9813 228.361 91.8882C228.341 91.7952 228.303 91.707 228.249 91.6287Z" fill="black"/>
<path d="M228.429 91.6635L224.515 85.9761C224.406 85.8187 224.24 85.7104 224.052 85.6745C223.864 85.6387 223.67 85.6782 223.511 85.7845L212.746 93.0281C212.666 93.0813 212.597 93.1498 212.544 93.2297C212.491 93.3096 212.454 93.3992 212.435 93.4935C212.417 93.5877 212.417 93.6846 212.437 93.7787C212.456 93.8727 212.494 93.962 212.548 94.0413L216.526 99.8855C216.579 99.9649 216.648 100.033 216.728 100.086C216.808 100.138 216.898 100.175 216.992 100.193C217.086 100.21 217.183 100.209 217.277 100.189C217.371 100.17 217.46 100.131 217.539 100.077L228.249 92.671C228.327 92.6167 228.393 92.5476 228.445 92.4675C228.496 92.3875 228.531 92.2982 228.548 92.2046C228.564 92.111 228.562 92.0151 228.542 91.9222C228.522 91.8294 228.483 91.7415 228.429 91.6635Z" fill="#939498"/>
<path d="M252.697 100.855L244.394 98.0855L217.763 116.585L226.005 119.27C226.227 119.343 226.463 119.363 226.694 119.328C226.926 119.294 227.146 119.207 227.338 119.073L252.773 101.386C252.822 101.357 252.862 101.314 252.887 101.262C252.912 101.21 252.921 101.152 252.913 101.096C252.905 101.039 252.88 100.985 252.841 100.943C252.803 100.9 252.753 100.869 252.697 100.855Z" fill="#6C63FF"/>
</svg>
