<svg width="315" height="217" viewBox="0 0 315 217" fill="none" xmlns="http://www.w3.org/2000/svg">
<path opacity="0.1" d="M182.858 31.8678C162.682 31.226 143.464 25.2469 125.116 18.7076C106.768 12.1683 88.5884 4.91406 68.8945 1.45722C56.227 -0.772272 41.7437 -1.07629 31.5365 5.14489C21.7177 11.1409 18.5424 21.4945 16.8365 31.1021C15.5528 38.3283 14.7984 45.9344 18.3144 52.7017C20.7578 57.3972 25.0929 61.3466 28.0909 65.845C38.5262 81.5021 31.1508 100.807 19.8429 116.093C14.5394 123.254 8.38864 130.106 4.29561 137.738C0.202582 145.369 -1.68629 154.118 1.89159 161.905C5.44132 169.623 13.8976 175.417 23.0605 179.498C41.6677 187.78 63.5967 190.15 84.9908 191.493C132.308 194.474 179.882 193.177 227.352 191.89C244.914 191.412 262.539 190.93 279.832 188.436C289.426 187.051 299.332 184.855 306.293 179.552C315.138 172.821 317.328 161.42 311.402 152.981C301.465 138.821 273.985 135.303 267.038 120.11C263.206 111.744 267.147 102.423 272.701 94.6708C284.62 78.0312 304.601 63.4241 305.654 44.4115C306.378 31.347 296.773 18.2628 281.921 12.0811C266.354 5.60655 244.762 6.41727 233.28 17.1481C221.454 28.1858 200.674 32.4364 182.858 31.8678Z" fill="#6C63FF"/>
<path opacity="0.1" d="M217.585 216.677C237.641 216.677 253.899 214.031 253.899 210.766C253.899 207.501 237.641 204.854 217.585 204.854C197.53 204.854 181.271 207.501 181.271 210.766C181.271 214.031 197.53 216.677 217.585 216.677Z" fill="#6C63FF"/>
<path d="M176.518 119.88C176.518 119.88 179.896 121.254 184.042 122.901C184.184 123.375 184.293 123.858 184.369 124.348C184.442 125.305 186.339 126.653 186.339 126.653C186.339 126.653 189.858 127.289 192.507 128.035C194.565 128.598 194.849 127.472 194.584 127.033L195.201 127.27C195.339 132.967 195.496 137.122 195.496 137.122C195.496 137.122 196.397 137.122 197.819 137.19C197.836 137.37 197.853 137.556 197.872 137.753C198.416 143.383 199.415 152.672 200.189 153.444C201.315 154.533 200.817 162.561 200.383 163.98C199.95 165.399 200.383 175.609 200.383 175.609C200.383 175.609 202.126 181.847 201.979 188.654C201.833 195.46 203.865 199.007 203.865 199.007L204.595 199.061C204.595 199.249 204.572 199.435 204.564 199.624C204.53 200.24 204.504 200.857 204.496 201.417C204.451 202.272 204.157 203.096 203.651 203.787C202.485 205.455 201.68 207.349 201.29 209.347C201.204 209.794 201.144 210.245 201.11 210.698C201.11 210.811 201.095 210.873 201.095 210.873C201.095 210.873 201.771 212.86 208.11 213.522C214.45 214.183 213.532 209.597 213.532 209.597C213.532 209.597 213.563 209.468 213.603 209.232C213.88 207.681 213.888 206.095 213.628 204.542C213.406 203.331 213.597 201.237 213.873 199.317C213.901 199.117 213.932 198.92 213.96 198.726C214.49 198.615 214.988 198.384 215.415 198.05C217.4 196.24 215.415 181.85 215.415 181.85C215.415 181.85 211.835 170.08 212.707 168.377C213.58 166.674 214.593 162.564 214.593 162.564V148.241C216.001 145.97 216.634 142.862 216.896 140.033C216.913 139.844 216.93 139.658 216.944 139.47C218.118 139.492 219.244 139.45 220.266 139.38L220.547 139.943C222.208 143.16 223.897 146.347 224.311 146.817C225.181 147.811 224.454 152.349 224.311 154.617C224.167 156.886 225.907 161.424 225.907 161.424C223.731 162.699 223.295 177.732 223.295 177.732C223.295 177.732 224.891 181.419 221.552 185.532C218.214 189.645 219.52 197.445 219.956 197.161C220.071 197.085 220.778 197.2 221.783 197.366C221.6 198.04 221.274 198.666 220.826 199.202C219.748 200.542 219.379 202.642 219.272 204.319C219.209 205.194 219.209 206.071 219.272 206.946L221.69 208.635C221.69 208.635 223.19 208.635 223.19 209.961C223.19 211.286 226.867 212.607 226.867 212.607C226.867 212.607 232.334 214.118 236.545 212.607C237.91 212.117 238.327 211.275 238.166 210.253C237.834 208.117 234.977 205.186 232.916 203.058C231.526 201.614 230.892 199.7 230.611 198.042C230.58 197.864 230.555 197.69 230.532 197.518C230.702 197.423 230.853 197.298 230.98 197.149C232.722 195.021 234.608 189.208 234.608 189.208C234.608 189.208 233.747 183.269 235.633 177.869C237.04 173.875 238.749 164.512 239.543 159.927C239.833 158.263 239.886 156.566 239.701 154.888C239.335 151.541 238.772 145.339 238.971 140.43C239.039 138.828 238.991 136.28 238.881 133.294V133.251C239.914 131.301 242.155 128.117 245.894 127.855C251.312 127.475 248.506 124.5 248.506 124.5C248.506 124.5 245.328 102.168 243.233 98.2046C243.201 98.1355 243.165 98.0687 243.124 98.0047C242.814 97.5121 242.476 96.5268 242.119 95.2122C240.055 87.5976 237.415 68.8383 237.415 68.8383L237.091 64.2752C240.323 65.8601 246.319 68.7511 248.737 69.5956C252.115 70.7779 256.816 70.0206 257.978 66.1444C259.141 62.2681 254.302 54.4227 254.302 54.4227C253.59 51.6414 248.672 45.8509 246.113 42.9768C245.865 42.6024 245.62 42.2308 245.381 41.8761C244.723 40.8937 244.129 40.0267 243.751 39.5172L243.715 39.5875C243.622 39.4581 243.535 39.337 243.459 39.2357L243.397 39.3595C242.482 37.6705 241.454 35.9337 240.658 35.0019C238.805 32.84 230.726 30.5148 229.927 31.1538C229.344 31.6182 231.762 33.645 233.454 34.8893L231.838 33.7971L228.227 30.6724L226.636 29.5971C226.57 29.5522 226.5 29.5127 226.428 29.4788C226.842 27.8529 226.892 26.1556 226.575 24.508C226.257 22.8605 225.58 21.3032 224.592 19.9472C224.48 19.7924 224.359 19.6375 224.238 19.4883C225.901 18.1034 226.428 15.8148 226.428 13.802V13.726C226.305 12.9717 225.97 12.2678 225.462 11.6964C225.488 11.7471 225.513 11.8034 225.535 11.8568C225.244 11.4844 224.876 11.1795 224.455 10.9632C224.035 10.7469 223.573 10.6244 223.1 10.6042C221.693 10.5816 220.513 11.505 219.278 12.1383C218.006 12.7751 216.612 13.1299 215.191 13.1785C213.77 13.2271 212.356 12.9683 211.044 12.4198C210.281 12.0933 209.512 11.6598 208.685 11.7274C207.857 11.7949 207.201 12.327 206.638 12.8815C205.284 14.1864 204.22 15.7612 203.514 17.5038C203.305 18.0133 203.119 18.5566 202.717 18.9394C202.41 19.1896 202.078 19.4066 201.726 19.5869C201.119 19.9735 200.597 20.4792 200.191 21.0734C199.785 21.6675 199.504 22.3378 199.364 23.0437C199.101 24.449 199.249 25.9003 199.789 27.224C200.116 28.1403 200.65 28.9688 201.349 29.6449C201.875 30.1319 202.506 30.4894 203.063 30.9483C203.316 31.1544 203.552 31.3803 203.77 31.6239C201.238 32.1842 198.923 33.4672 197.107 35.3172C195.742 36.6362 194.601 38.1689 193.729 39.855C191.372 44.283 189.942 47.0389 189.092 48.787C188.667 48.9165 188.405 48.9784 188.405 48.9784C188.405 48.9784 185.213 51.8131 185.261 59.9429L182.792 76.2024V84.5208C182.792 84.5208 179.614 93.5485 180.135 101.02C180.135 101.121 180.135 101.219 180.155 101.318L179.896 102.588C179.497 103.131 179.298 103.795 179.333 104.468C179.316 104.698 179.334 104.929 179.383 105.155L178.088 111.551L178.333 111.81L177.666 113.687C175.152 117.704 176.518 119.88 176.518 119.88ZM195.187 74.2769C195.347 74.3867 195.437 74.443 195.437 74.443C195.437 74.443 196.845 87.0459 196 94.5394L193.036 94.3367L191.629 93.9032L192.132 89.8975C192.132 89.8975 193.937 79.344 195.175 74.2769H195.187ZM206.835 37.6959L207.117 37.2623C207.058 37.4172 206.999 37.5692 206.937 37.7099L206.835 37.6959ZM193.455 94.4775L194.99 94.6351L195.961 94.8378C195.944 94.9729 195.927 95.1052 195.91 95.2347L193.455 94.4775ZM226.428 39.9901C226.427 39.8498 226.418 39.7098 226.4 39.5707L227.604 40.2857L227.678 40.3307C227.261 40.2097 226.833 40.1027 226.428 40.0042V39.9901ZM235.779 45.5638C235.614 45.3043 235.435 45.0535 235.244 44.8122C236.089 45.0149 236.612 45.1331 236.612 45.1331C237.287 45.016 237.98 45.0861 238.617 45.3358C238.823 45.7553 239.055 46.1614 239.312 46.5519L241.536 50.8589C241.536 50.8589 241.052 50.9067 240.083 50.4338C239.115 49.9609 235.779 45.5638 235.779 45.5638ZM193.529 126.636L194.224 126.918C194.069 126.966 193.821 126.853 193.529 126.636Z" fill="url(#paint0_linear)"/>
<path d="M217.617 34.1039C218.512 34.6303 218.541 36.8795 218.403 38.6839C218.304 40.0042 218.121 41.0851 218.121 41.0851L223.945 55.2447C223.945 55.2447 226.104 45.1556 226.138 40.6516C226.141 40.2962 226.087 39.9427 225.978 39.6044C224.962 36.3587 219.253 34.5571 217.617 34.1039Z" fill="#67647E"/>
<path d="M217.197 33.9913C217.197 33.9913 217.355 34.0279 217.628 34.1039C217.497 34.0285 217.348 33.9896 217.197 33.9913Z" fill="#67647E"/>
<path d="M219.216 206.363L221.56 208.052C221.56 208.052 223.016 208.052 223.016 209.367C223.016 210.681 226.58 211.993 226.58 211.993C226.58 211.993 231.883 213.493 235.965 211.993C237.288 211.506 237.693 210.673 237.539 209.657C237.215 207.537 234.442 204.64 232.446 202.515C231.098 201.082 230.476 199.182 230.211 197.538C230.016 196.362 229.963 195.166 230.053 193.977L221.468 193.366C221.959 194.662 221.959 196.093 221.468 197.389C221.28 197.852 221.027 198.286 220.716 198.678C219.669 200.007 219.308 202.093 219.207 203.745C219.148 204.617 219.151 205.492 219.216 206.363Z" fill="#67647E"/>
<path d="M201.571 210.256C201.571 210.256 202.227 212.227 208.375 212.885C214.523 213.544 213.631 208.989 213.631 208.989C213.631 208.989 213.662 208.86 213.701 208.626C213.968 207.086 213.976 205.513 213.724 203.97C213.51 202.771 213.696 200.691 213.963 198.785C214.278 196.516 214.709 194.492 214.709 194.492L205.183 195.196C205.183 195.196 205.017 197.135 204.921 199.095C204.89 199.705 204.865 200.316 204.856 200.874C204.812 201.72 204.527 202.535 204.034 203.224C202.907 204.888 202.132 206.766 201.76 208.742C201.678 209.185 201.619 209.632 201.585 210.082C201.571 210.194 201.571 210.256 201.571 210.256Z" fill="#67647E"/>
<path d="M219.216 206.363L221.561 208.052C221.561 208.052 223.016 208.052 223.016 209.367C223.016 210.681 226.58 211.993 226.58 211.993C226.58 211.993 231.883 213.493 235.965 211.993C237.288 211.506 237.693 210.673 237.539 209.656C237.412 209.656 237.291 209.673 237.19 209.676C235.517 209.73 233.89 210.18 232.227 210.329C231.279 210.399 230.328 210.414 229.378 210.374C228.907 210.371 228.436 210.334 227.97 210.265C226.844 210.065 225.8 209.482 224.795 208.91C224.549 208.795 224.333 208.626 224.162 208.415C224.026 208.181 223.931 207.926 223.88 207.661C223.525 206.388 222.535 205.369 221.397 204.699C220.705 204.305 219.972 203.989 219.21 203.756C219.151 204.624 219.153 205.495 219.216 206.363Z" fill="#67647E"/>
<path d="M201.571 210.256C201.571 210.256 202.227 212.227 208.375 212.885C214.523 213.544 213.631 208.989 213.631 208.989C213.631 208.989 213.662 208.86 213.701 208.626C213.42 208.773 213.18 208.908 213.071 208.97C212.508 209.299 212.004 209.752 211.418 210.059C210.011 210.799 208.322 210.58 206.734 210.341C205.988 210.228 205.242 210.115 204.499 209.977C203.932 209.9 203.381 209.736 202.863 209.493C202.479 209.269 202.11 209.019 201.76 208.744C201.678 209.188 201.619 209.635 201.585 210.084C201.571 210.194 201.571 210.256 201.571 210.256Z" fill="#67647E"/>
<path opacity="0.1" d="M219.216 206.363L221.561 208.052C221.561 208.052 223.016 208.052 223.016 209.367C223.016 210.681 226.58 211.993 226.58 211.993C226.58 211.993 231.883 213.493 235.965 211.993C237.288 211.506 237.693 210.673 237.539 209.656C237.412 209.656 237.291 209.673 237.19 209.676C235.517 209.73 233.89 210.18 232.227 210.329C231.279 210.399 230.328 210.414 229.378 210.374C228.907 210.371 228.436 210.334 227.97 210.265C226.844 210.065 225.8 209.482 224.795 208.91C224.549 208.795 224.333 208.626 224.162 208.415C224.026 208.181 223.931 207.926 223.88 207.661C223.525 206.388 222.535 205.369 221.397 204.699C220.705 204.305 219.972 203.989 219.21 203.756C219.151 204.624 219.153 205.495 219.216 206.363Z" fill="black"/>
<g clip-path="url(#clip0)">
<path opacity="0.1" d="M238.955 177.226C241.885 162.897 206.011 143.469 158.829 133.833C111.647 124.196 71.0225 128 68.0925 142.329C65.1624 156.658 101.036 176.086 148.218 185.722C195.4 195.359 236.025 191.555 238.955 177.226Z" fill="#6C63FF"/>
<path d="M143.672 85.4127C143.672 85.4127 148.31 62.6617 166.017 64.7692C166.017 64.7692 178.254 65.609 180.77 73.6153V91.3114L143.672 85.4127Z" fill="#3A3768"/>
<path d="M240.642 93.8431L82.9596 80.7778L62.7236 84.993L63.9881 113.223L65.3668 113.39L66.9372 155.782L221.666 183.588L238.113 169.683V123.728L240.217 122.493L240.642 93.8431Z" fill="#D48A9B"/>
<path opacity="0.05" d="M240.854 93.8429L240.429 122.493L223.355 130.499L223.143 100.581L240.854 93.8429Z" fill="black"/>
<path opacity="0.05" d="M238.113 123.756L238.321 168.843L221.879 182.748L222.935 130.499L238.113 123.756Z" fill="black"/>
<path opacity="0.05" d="M238.113 125.412V123.756L222.511 130.638V134.29L238.113 125.412Z" fill="black"/>
<path d="M62.5117 84.9929L82.7477 80.7778L240.43 93.843L222.723 100.582L62.5117 84.9929Z" fill="#EFC6CD"/>
<path opacity="0.1" d="M223.633 94.6542L231.37 95.1597L218.546 98.9957L212.016 98.5269L223.633 94.6542Z" fill="black"/>
<path d="M223.633 94.3159L231.37 94.8214L218.546 98.6615L212.016 98.1886L223.633 94.3159Z" fill="white"/>
<path d="M222.707 95.184C223.013 95.0536 223.335 95.3022 223.662 95.3634C223.849 95.4001 224.041 95.3634 224.229 95.4001C224.608 95.449 224.983 95.7017 225.346 95.5753" fill="#D3DAE1"/>
<path d="M222.307 95.4165C222.608 95.2861 222.935 95.5306 223.261 95.5958C223.449 95.6285 223.64 95.5958 223.828 95.6284C224.207 95.6814 224.583 95.9341 224.946 95.8078" fill="#D3DAE1"/>
<path d="M221.385 95.8813C221.691 95.7508 222.017 95.9954 222.343 96.0565C222.527 96.0932 222.723 96.0565 222.906 96.0932C223.29 96.1462 223.665 96.3989 224.024 96.2685" fill="#D3DAE1"/>
<path opacity="0.1" d="M190.185 90.8468L197.923 91.3564L185.099 95.1923L178.568 94.7195L190.185 90.8468Z" fill="black"/>
<path d="M190.185 90.5125L197.923 91.0179L185.099 94.854L178.568 94.3852L190.185 90.5125Z" fill="white"/>
<path d="M189.26 91.3807C189.566 91.2503 189.888 91.4949 190.214 91.5601C190.402 91.5927 190.594 91.5601 190.781 91.5927C191.161 91.6457 191.536 91.8985 191.899 91.7721" fill="#D3DAE1"/>
<path d="M188.858 91.6132C189.16 91.4827 189.487 91.7274 189.813 91.7885C190.001 91.8252 190.192 91.7885 190.38 91.8252C190.759 91.8782 191.134 92.1309 191.498 92.0005" fill="#D3DAE1"/>
<path d="M187.938 92.0739C188.243 91.9435 188.57 92.1922 188.896 92.2533C189.08 92.29 189.275 92.2533 189.459 92.29C189.842 92.3389 190.218 92.5957 190.577 92.4653" fill="#D3DAE1"/>
<path opacity="0.1" d="M206.227 92.7504L213.969 93.2559L201.145 97.096L194.61 96.6231L206.227 92.7504Z" fill="black"/>
<path d="M206.227 92.4161L213.969 92.9216L201.145 96.7576L194.61 96.2847L206.227 92.4161Z" fill="white"/>
<path d="M205.302 93.2845C205.608 93.154 205.934 93.3986 206.26 93.4597C206.444 93.4964 206.636 93.4597 206.823 93.4964C207.203 93.5454 207.582 93.8022 207.941 93.6717" fill="#D3DAE1"/>
<path d="M204.902 93.5128C205.208 93.3823 205.535 93.631 205.861 93.6921C206.044 93.7288 206.236 93.6921 206.424 93.7288C206.803 93.7777 207.182 94.0346 207.541 93.9041" fill="#D3DAE1"/>
<path d="M203.984 93.9774C204.286 93.847 204.613 94.0916 204.939 94.1568C205.127 94.1894 205.318 94.1568 205.506 94.1894C205.885 94.2424 206.261 94.4952 206.624 94.3688" fill="#D3DAE1"/>
</g>
<path opacity="0.1" d="M201.571 210.256C201.571 210.256 202.227 212.227 208.375 212.885C214.523 213.544 213.631 208.989 213.631 208.989C213.631 208.989 213.662 208.86 213.701 208.626C213.42 208.773 213.18 208.908 213.071 208.97C212.508 209.299 212.004 209.752 211.418 210.059C210.011 210.799 208.322 210.58 206.734 210.341C205.988 210.228 205.242 210.115 204.499 209.977C203.932 209.9 203.381 209.736 202.863 209.493C202.479 209.269 202.11 209.019 201.76 208.744C201.678 209.188 201.619 209.635 201.585 210.084C201.571 210.194 201.571 210.256 201.571 210.256Z" fill="black"/>
<path opacity="0.1" d="M221.468 193.366C221.959 194.662 221.959 196.093 221.468 197.389C223.931 197.808 228.522 198.655 230.211 197.538C230.016 196.362 229.963 195.166 230.054 193.977L221.468 193.366Z" fill="black"/>
<path opacity="0.1" d="M204.924 199.095C206.664 199.219 211.345 199.463 213.966 198.785C214.281 196.516 214.712 194.492 214.712 194.492L205.186 195.196C205.186 195.196 205.02 197.135 204.924 199.095Z" fill="black"/>
<path d="M198.056 133.454C198.056 133.454 198.202 135.214 198.436 137.677C198.962 143.267 199.933 152.498 200.688 153.249C201.769 154.333 201.299 162.3 200.876 163.707C200.454 165.115 200.876 175.249 200.876 175.249C201.939 179.482 202.459 183.833 202.425 188.198C202.284 194.954 204.254 198.473 204.254 198.473C204.254 198.473 213.544 199.317 215.467 197.521C217.389 195.725 215.467 181.442 215.467 181.442C215.467 181.442 211.987 169.768 212.832 168.079C213.676 166.39 214.661 162.308 214.661 162.308V148.092C216.027 145.84 216.632 142.744 216.894 139.946C217.102 137.552 217.109 135.145 216.913 132.75C216.913 132.75 218.662 136.325 220.443 139.861C222.054 143.056 223.692 146.217 224.103 146.685C224.947 147.67 224.244 152.174 224.103 154.426C223.962 156.678 225.651 161.182 225.651 161.182C223.54 162.449 223.118 177.368 223.118 177.368C223.118 177.368 224.666 181.028 221.429 185.11C218.191 189.191 219.458 196.933 219.88 196.651C220.303 196.37 228.888 198.762 230.577 196.651C232.266 194.54 234.096 188.769 234.096 188.769C234.096 188.769 233.252 182.858 235.082 177.509C236.438 173.546 238.102 164.253 238.873 159.701C239.15 158.049 239.196 156.367 239.011 154.702C238.657 151.377 238.11 145.224 238.305 140.345C238.369 138.755 238.324 136.227 238.217 133.263C237.854 123.101 236.756 107.832 236.756 107.832L229.128 102.664L224.092 99.2517L222.859 99.4403L199.883 102.99L198.99 114.323L198.056 133.454Z" fill="#444053"/>
<path opacity="0.1" d="M229.133 102.669L229.535 104.882C229.535 104.882 232.913 121.068 233.617 129.372C234.321 137.677 237.277 135.284 237.277 135.284C237.534 134.587 237.851 133.912 238.223 133.268C237.859 123.106 236.762 107.838 236.762 107.838L229.133 102.669Z" fill="black"/>
<path d="M205 41.2625C205 41.2625 220.764 53.8822 217.853 51.3487C216.26 49.958 217.344 44.0296 218.65 38.9626C219.725 34.7823 220.95 31.1847 220.95 31.1847C220.95 31.1847 207.19 18.3116 208.189 28.837C208.541 32.5472 208.249 35.1848 207.722 37.0484C206.757 40.463 205 41.2625 205 41.2625Z" fill="#EFB7B9"/>
<path opacity="0.1" d="M206.312 37.907L216.305 45.7186L219.213 42.4814C219.213 42.4814 221.702 41.4032 221.887 42.6221C222.073 43.841 222.78 51.3487 221.324 52.0524C219.869 52.7562 217.994 53.2263 216.353 52.9926C214.712 52.759 212.879 50.9264 211.66 50.2227C210.442 49.5189 205.938 45.8594 205.938 45.8594L203.686 42.7178L206.312 37.907Z" fill="black"/>
<path d="M206.312 38.1885L216.305 46.0001L219.213 42.7629C219.213 42.7629 221.702 41.6847 221.887 42.9036C222.073 44.1225 222.78 51.6302 221.324 52.3339C219.869 53.0377 217.994 53.5078 216.353 53.2741C214.712 53.0405 212.879 51.2079 211.66 50.5042C210.442 49.8004 205.938 46.1409 205.938 46.1409L203.686 42.9993L206.312 38.1885Z" fill="#A36468"/>
<path opacity="0.1" d="M198.056 133.454C198.056 133.454 198.202 135.214 198.436 137.677C201.532 137.795 207.539 138.161 211.756 139.264C213.439 139.681 215.163 139.906 216.897 139.937C217.105 137.544 217.111 135.137 216.916 132.742C216.916 132.742 218.664 136.317 220.446 139.853C221.97 139.75 223.487 139.553 224.987 139.264L223.109 114.867C223.109 114.867 223.171 106.678 222.862 99.4319L199.883 102.99L198.99 114.323L198.056 133.454Z" fill="black"/>
<path opacity="0.1" d="M215.32 45.0628C215.32 45.0628 208.493 37.6002 206.875 38.7853C205.256 39.9704 204.209 42.8586 204.209 42.8586L209.769 48.9559L215.32 45.0628Z" fill="black"/>
<path d="M215.039 44.7813C215.039 44.7813 208.212 37.3187 206.594 38.5038C204.975 39.6889 203.928 42.5771 203.928 42.5771L209.487 48.6744L215.039 44.7813Z" fill="#A36468"/>
<path opacity="0.1" d="M220.713 49.5639L216.772 44.6236C216.772 44.6236 217.392 39.9535 218.833 40.5502C220.274 41.147 220.713 43.537 220.713 43.537V49.5639Z" fill="black"/>
<path d="M220.995 49.2374L217.073 44.297C217.073 44.297 217.693 39.6269 219.134 40.2237C220.575 40.8205 220.995 43.2104 220.995 43.2104V49.2374Z" fill="#A36468"/>
<path opacity="0.1" d="M202.934 40.3701C202.934 40.3701 211.016 49.0967 215.841 49.6822C216.277 49.7357 216.714 49.8089 217.144 49.8961C218.405 50.1438 221.153 49.8961 220.717 42.6812L221.325 41.4032L225.08 43.7031L226.347 54.0229L228.599 80.4841L231.929 109.949C231.929 109.949 221.702 108.964 218.839 111.545C215.976 114.126 215.179 97.4699 215.179 97.4699L207.345 63.6897L198.993 41.9662L202.934 40.3701Z" fill="black"/>
<path opacity="0.1" d="M198.993 43.0922L207.345 64.8156L215.179 98.5958C215.179 98.5958 215.979 115.249 218.839 112.671C219.774 111.826 221.496 111.365 223.391 111.125C225.721 110.874 228.067 110.821 230.406 110.968C231.34 111.018 231.929 111.075 231.929 111.075L228.596 81.61L226.344 55.1489L225.077 44.829L221.325 42.5292L220.714 43.8072C220.714 43.9958 220.733 44.1816 220.742 44.3702C221.007 51.0361 218.369 51.2726 217.144 51.0305C216.711 50.9433 216.277 50.8701 215.838 50.8166C212.421 50.3971 207.371 45.9016 204.716 43.3174C203.621 42.2477 202.931 41.5045 202.931 41.5045L198.993 43.0922Z" fill="black"/>
<path d="M198.993 42.2477L207.345 63.9712L215.179 97.7513C215.179 97.7513 215.979 114.405 218.839 111.826C219.774 110.982 221.496 110.52 223.391 110.281C225.721 110.029 228.067 109.977 230.406 110.123C231.34 110.174 231.929 110.23 231.929 110.23L228.596 80.7655L226.344 54.3044L225.077 43.9846L221.325 41.6847L220.714 42.9627C220.714 43.1513 220.733 43.3371 220.742 43.5257C221.007 50.1917 218.369 50.4281 217.144 50.186C216.711 50.0988 216.277 50.0256 215.838 49.9721C212.421 49.5527 207.371 45.0571 204.716 42.4729C203.621 41.4032 202.931 40.66 202.931 40.66L198.993 42.2477Z" fill="#6C63FF"/>
<path opacity="0.1" d="M220.714 42.9627C220.714 43.1513 220.734 43.3371 220.742 43.5257L220.807 43.5708C221.798 44.2238 223.388 55.2531 223.388 55.2531L225.452 83.3553L229.252 104.327C229.252 104.327 229.75 106.717 230.403 110.132C231.338 110.182 231.926 110.239 231.926 110.239L228.596 80.7655L226.344 54.3044L225.077 43.9846L221.325 41.6847L220.714 42.9627Z" fill="black"/>
<path d="M218.129 41.0852C218.129 41.0852 220.381 42.9093 221.372 43.5624C222.363 44.2154 223.953 55.2447 223.953 55.2447L226.017 83.347L229.817 104.319C229.817 104.319 233.195 120.505 233.899 128.809C234.602 137.114 237.558 134.721 237.558 134.721C237.558 134.721 239.765 128.246 245.018 127.872C250.271 127.498 247.551 124.539 247.551 124.539C247.551 124.539 244.475 102.365 242.451 98.4157C242.419 98.3479 242.383 98.2821 242.344 98.2187C242.045 97.7289 241.716 96.752 241.37 95.4459C239.368 87.8904 236.809 69.2663 236.809 69.2663L235.213 46.1831C231.129 39.5256 218.461 39.7565 218.461 39.7565L218.129 41.0852Z" fill="#67647E"/>
<path opacity="0.1" d="M198.993 42.2477L207.345 63.9712L215.179 97.7513C215.179 97.7513 215.979 114.405 218.839 111.826C219.774 110.982 221.496 110.52 223.391 110.281C223.357 104.555 223.183 94.2804 222.358 89.9622C221.644 86.0163 221.346 82.0064 221.468 77.9984L211.238 55.7119C211.238 55.7119 203.545 46.2281 203.497 44.8713C203.48 44.3702 204.026 43.4413 204.719 42.4645C203.624 41.3948 202.934 40.6516 202.934 40.6516L198.993 42.2477Z" fill="black"/>
<path d="M224.703 138.71L222.828 114.312C222.828 114.312 222.969 96.1074 221.795 89.9623C221.08 86.0166 220.78 82.0066 220.903 77.9985L210.676 55.712C210.676 55.712 202.982 46.2282 202.934 44.8714C202.887 43.5145 206.963 39.0021 206.963 39.0021C206.963 39.0021 198.056 40.0436 196.882 44.0297C195.708 48.0157 189.282 49.5668 189.282 49.5668C189.282 49.5668 186.185 52.3818 186.233 60.4525C186.281 68.5231 196.086 74.8541 196.086 74.8541C196.086 74.8541 197.727 90.0552 196.319 96.9069C194.912 103.759 196.131 137.066 196.131 137.066C196.131 137.066 205.561 137.162 211.472 138.71C217.384 140.258 224.703 138.71 224.703 138.71Z" fill="#67647E"/>
<path d="M210.816 100.003L203.59 127.354C203.59 127.354 202.604 129.795 197.537 127.917C192.47 126.039 177.739 119.942 177.739 119.942C177.739 119.942 176.425 117.783 178.865 113.797L186.232 92.2142L210.816 100.003Z" fill="#B07473"/>
<path d="M201.47 112.097L189.788 99.2517L182.328 96.2256L179.266 111.672L193.448 127.084L201.47 112.097Z" fill="#E1E7EF"/>
<path d="M188.986 116.387C188.986 116.387 192.46 118.428 193.374 118.498C194.289 118.568 197.521 124.668 196.156 124.621C194.79 124.573 191.615 122.932 191.933 123.776C192.251 124.621 194.32 127.154 194.923 126.915C195.525 126.676 195.804 128.773 193.234 128.041C190.664 127.309 187.252 126.667 187.252 126.667C187.252 126.667 185.422 125.33 185.352 124.381C185.281 123.433 183.699 118.433 183.699 118.433L188.986 116.387Z" fill="#EFB7B9"/>
<path d="M244.754 44.3223C244.754 44.3223 241.747 37.8337 239.951 35.6859C238.155 33.538 230.321 31.2325 229.536 31.8659C228.751 32.4993 233.477 36.0575 234.321 36.5135C235.166 36.9695 228.863 41.2061 228.736 41.299C228.61 41.3919 223.81 40.8711 226.273 42.4898C228.736 44.1084 236.019 45.758 236.019 45.758C236.509 45.6729 237.012 45.6886 237.496 45.8043C237.98 45.92 238.435 46.1331 238.834 46.4308C240.244 47.4555 244.754 44.3223 244.754 44.3223Z" fill="#EFB7B9"/>
<path opacity="0.1" d="M182.213 116.713C182.611 118.018 183.145 119.278 183.806 120.471C184.51 119.835 191.229 117.62 191.229 117.62L190.483 116.468L189.267 114.594C189.267 114.594 183.277 113.293 182.258 114.594C181.914 115.03 181.976 115.835 182.213 116.713Z" fill="black"/>
<path d="M181.931 116.432C182.329 117.737 182.863 118.996 183.525 120.19C184.228 119.554 190.948 117.338 190.948 117.338L190.202 116.187L188.986 114.312C188.986 114.312 182.995 113.011 181.976 114.312C181.633 114.748 181.695 115.553 181.931 116.432Z" fill="#A36468"/>
<path opacity="0.1" d="M237.885 45.7889C238.1 46.2721 238.355 46.7371 238.645 47.1796C239.728 48.8883 241.37 50.9038 241.37 50.9038C241.37 50.9038 247.771 47.9593 247.771 47.8298C247.771 47.7003 245.829 44.6404 244.249 42.2279C243.61 41.254 243.033 40.3926 242.667 39.8887C242.667 39.8887 240.277 44.8881 237.918 44.9219C237.302 44.9304 237.631 45.1781 237.885 45.7889Z" fill="black"/>
<path d="M238.166 46.0704C238.382 46.5535 238.636 47.0186 238.926 47.4611C240.01 49.1698 241.651 51.1853 241.651 51.1853C241.651 51.1853 248.052 48.2408 248.052 48.1113C248.052 47.9818 246.11 44.9219 244.531 42.5094C243.892 41.5354 243.314 40.6741 242.949 40.1702C242.949 40.1702 240.559 45.1696 238.2 45.2034C237.583 45.2119 237.912 45.4596 238.166 46.0704Z" fill="#A36468"/>
<path d="M202.066 97.7035L202.888 95.2404L191.353 94.4297L195.662 94.8885L201.152 96.0652L200.729 97.7035H202.066Z" fill="#B07473"/>
<path opacity="0.1" d="M181.931 116.432C183.204 115.832 186.599 114.585 190.202 116.187L188.986 114.312C188.986 114.312 182.995 113.011 181.976 114.312C181.633 114.748 181.695 115.553 181.931 116.432Z" fill="black"/>
<path d="M181.258 101.222C181.286 101.63 181.311 102.039 181.336 102.444C181.407 103.685 181.455 104.915 181.486 106.103C181.626 111.604 181.398 116.142 181.398 116.142C181.398 116.142 185.762 113.515 190.406 115.72L190.874 106.818V106.664L191.349 102.77L192.892 90.1958C192.892 90.1958 195.8 72.7427 196.692 72.0868C197.585 71.4309 190.077 57.308 190.077 57.308L186.229 60.4524L183.836 76.5908V84.8473C183.836 84.8473 180.74 93.8103 181.258 101.222Z" fill="#67647E"/>
<path opacity="0.1" d="M238.028 45.6736L238.929 47.4611C240.013 49.1698 241.654 51.1854 241.654 51.1854C241.654 51.1854 248.055 48.2409 248.055 48.1114C248.055 47.9819 246.113 44.922 244.534 42.5095C244.047 41.9465 243.751 41.6368 243.751 41.6368C245.629 46.2816 238.028 45.6736 238.028 45.6736Z" fill="black"/>
<path d="M232.584 44.8713L235.213 46.1887C235.213 46.1887 238.45 50.552 239.388 51.0221C240.325 51.4922 240.795 51.4443 240.795 51.4443L238.028 45.9551C238.028 45.9551 245.629 46.5631 243.751 41.9183C243.751 41.9183 252.244 51.2079 253.181 54.9631C253.181 54.9631 257.874 62.7494 256.748 66.5975C255.622 70.4457 251.07 71.1945 247.785 70.0234C244.5 68.8524 234.414 63.6896 234.414 63.6896L232.584 44.8713Z" fill="#67647E"/>
<path opacity="0.1" d="M242.015 54.0229C242.015 54.0229 249.1 61.9528 248.537 63.031C247.974 64.1091 242.389 55.6191 242.015 54.0229Z" fill="black"/>
<path opacity="0.2" d="M210.042 32.6767C210.042 32.6767 200.071 29.673 194.441 40.5109C188.811 51.3487 188.622 52.1003 188.904 52.6154C189.185 53.1306 200.116 50.2705 200.727 51.5373C201.338 52.804 194.534 58.0118 194.534 58.0118L220.899 77.9984L209.822 54.4536C209.077 52.8043 208.084 51.2787 206.878 49.9299C205.056 47.8918 202.565 44.77 203.446 43.8072C204.223 42.9627 205.467 40.7586 207.145 38.2222C208.375 36.3615 210.329 34.2643 210.042 32.6767Z" fill="black"/>
<path d="M210.323 32.3952C210.323 32.3952 200.352 29.3916 194.722 40.2294C189.092 51.0672 188.904 51.8188 189.185 52.3339C189.467 52.8491 200.397 49.989 201.008 51.2558C201.619 52.5225 194.815 57.7303 194.815 57.7303L220.899 77.9984L210.103 54.1721C209.359 52.5228 208.366 50.9972 207.159 49.6484C205.338 47.6103 202.846 44.4885 203.727 43.5257C204.504 42.6812 205.749 40.4771 207.426 37.9407C208.657 36.08 210.61 33.9828 210.323 32.3952Z" fill="#67647E"/>
<path opacity="0.1" d="M210.323 32.3952C210.323 32.3952 200.352 29.3916 194.722 40.2294C189.092 51.0672 188.904 51.8188 189.185 52.3339C189.467 52.8491 200.397 49.989 201.008 51.2558C201.619 52.5225 194.815 57.7303 194.815 57.7303L220.899 77.9984L209.585 53.0264C209.148 52.0557 208.554 51.1628 207.829 50.3831C206.047 48.4633 202.731 44.6151 203.727 43.5257C204.504 42.6812 205.749 40.4771 207.426 37.9407C208.657 36.08 210.61 33.9828 210.323 32.3952Z" fill="black"/>
<path d="M208.282 82.0774C209.422 82.0774 210.346 81.1535 210.346 80.014C210.346 78.8744 209.422 77.9506 208.282 77.9506C207.143 77.9506 206.219 78.8744 206.219 80.014C206.219 81.1535 207.143 82.0774 208.282 82.0774Z" fill="#444053"/>
<path d="M208.282 94.8856C209.422 94.8856 210.346 93.9618 210.346 92.8222C210.346 91.6826 209.422 90.7588 208.282 90.7588C207.143 90.7588 206.219 91.6826 206.219 92.8222C206.219 93.9618 207.143 94.8856 208.282 94.8856Z" fill="#444053"/>
<path d="M181.486 106.103C182.674 106.385 188.307 106.258 190.869 106.818V106.664L191.345 102.77C188.456 102.41 182.179 101.726 181.329 102.444C180.228 103.381 180.07 105.78 181.486 106.103Z" fill="#67647E"/>
<path opacity="0.1" d="M181.486 106.385C182.674 106.666 188.307 106.54 190.869 107.1V106.945L191.345 103.052C188.456 102.692 182.179 102.008 181.329 102.725C180.228 103.663 180.07 106.061 181.486 106.385Z" fill="black"/>
<path opacity="0.1" d="M181.486 106.103C182.674 106.385 188.307 106.258 190.869 106.818V106.664L191.345 102.77C188.456 102.41 182.179 101.726 181.329 102.444C180.228 103.381 180.07 105.78 181.486 106.103Z" fill="black"/>
<path d="M182.714 105.467C183.401 105.467 183.958 104.91 183.958 104.223C183.958 103.536 183.401 102.979 182.714 102.979C182.027 102.979 181.47 103.536 181.47 104.223C181.47 104.91 182.027 105.467 182.714 105.467Z" fill="#444053"/>
<path opacity="0.1" d="M206.219 109.197L200.963 127.12C200.963 127.12 199.556 127.776 199.556 126.605C199.556 125.434 206.219 109.197 206.219 109.197Z" fill="white"/>
<path opacity="0.1" d="M208.234 36.1673C208.566 36.4336 208.912 36.6808 209.272 36.9077C211.06 38.0337 212.65 39.565 214.931 39.565C216.195 39.5669 217.452 39.3605 218.649 38.9542C219.725 34.7739 220.949 31.1763 220.949 31.1763C220.949 31.1763 207.189 18.3032 208.189 28.8286C208.541 32.5388 208.76 34.3038 208.234 36.1673Z" fill="black"/>
<path d="M203.373 27.4436C203.373 29.7296 204.051 31.9643 205.321 33.8651C206.591 35.7659 208.396 37.2474 210.508 38.1222C212.62 38.997 214.944 39.2259 217.187 38.7799C219.429 38.3339 221.488 37.2331 223.105 35.6166C224.721 34.0002 225.822 31.9406 226.268 29.6985C226.714 27.4564 226.485 25.1324 225.61 23.0204C224.735 20.9083 223.254 19.1031 221.353 17.8331C219.452 16.563 217.218 15.8851 214.932 15.8851C213.412 15.8781 211.906 16.1722 210.5 16.7505C209.094 17.3289 207.817 18.18 206.743 19.2547C205.668 20.3294 204.817 21.6065 204.239 23.012C203.66 24.4175 203.366 25.9237 203.373 27.4436Z" fill="#EFB7B9"/>
<path d="M221.481 37.1188C221.587 37.3832 221.777 37.6056 222.021 37.7521L223.857 38.8781L227.288 40.9641L232.719 44.2633C232.846 44.3402 232.976 44.4106 233.107 44.4744C233.744 44.7978 234.446 44.971 235.16 44.9808C235.874 44.9905 236.58 44.8366 237.225 44.5307C237.713 44.3115 238.141 43.9798 238.475 43.5629C238.81 43.1459 239.04 42.6557 239.148 42.1323C239.293 41.4037 239.232 40.6494 238.972 39.9534C238.713 39.2575 238.265 38.6474 237.679 38.1913C237.649 38.1661 237.615 38.1478 237.577 38.1378C236.422 37.8135 235.334 37.2822 234.368 36.5698L230.951 34.2052L227.899 31.4155L226.357 30.3486C226.13 30.1919 225.864 30.1033 225.589 30.0934C225.314 30.0834 225.042 30.1524 224.806 30.2924C223.223 31.2072 220.073 33.5606 221.481 37.1188Z" fill="#E1E7EF"/>
<path d="M223.857 38.8613L227.289 40.9472C228.004 38.0646 229.822 36.0294 231.402 34.4924L227.9 31.3959C225.237 32.7161 224.178 37.1188 223.857 38.8613Z" fill="#A36468"/>
<path opacity="0.1" d="M233.1 44.4575C233.736 44.7809 234.438 44.9541 235.152 44.9639C235.866 44.9737 236.573 44.8197 237.218 44.5138C237.705 44.2946 238.134 43.9629 238.468 43.546C238.802 43.1291 239.033 42.6388 239.141 42.1155C239.285 41.3869 239.224 40.6325 238.965 39.9366C238.705 39.2406 238.257 38.6305 237.671 38.1744C236.819 38.5352 236.03 39.0304 235.335 39.6411C234.365 40.481 233.662 41.5869 233.314 42.822C233.176 43.3564 233.104 43.9057 233.1 44.4575Z" fill="black"/>
<path opacity="0.1" d="M203.373 27.4435C203.371 29.1269 203.738 30.7903 204.448 32.3163C205.146 33.0106 205.677 33.8536 206.002 34.7823C206.785 35.7338 207.092 36.2714 208.136 36.9301C208.556 36.4882 209.501 36.2208 209.673 35.6493C210.109 34.1771 209.862 32.6035 209.839 31.0693C209.839 30.388 209.935 29.583 210.534 29.2564C211.033 28.9749 211.66 29.1776 212.15 29.4535C212.64 29.7293 213.127 30.0868 213.69 30.1516C214.535 30.2473 215.306 29.6533 215.779 28.9552C216.252 28.2571 216.525 27.4407 216.972 26.7257C217.564 25.7827 218.436 25.0592 219.295 24.3555C220.277 23.5448 221.232 22.6468 222.279 21.9205C222.904 21.4842 223.652 21.2815 224.269 20.8423L224.367 20.7691C222.951 18.7664 220.933 17.2664 218.607 16.4862C216.281 15.706 213.768 15.6861 211.43 16.4294C209.092 17.1726 207.051 18.6405 205.602 20.6206C204.154 22.6007 203.373 24.9903 203.373 27.4435Z" fill="black"/>
<path d="M226.146 14.6662C225.901 13.0448 224.558 11.5218 222.92 11.4937C221.566 11.4712 220.412 12.3889 219.212 13.0166C217.984 13.6495 216.632 14.0029 215.251 14.0516C213.87 14.1003 212.496 13.843 211.226 13.2981C210.492 12.9744 209.743 12.5437 208.94 12.6113C208.138 12.6788 207.499 13.2024 206.942 13.7373C205.626 15.041 204.595 16.6034 203.913 18.3257C203.713 18.8324 203.53 19.3701 203.142 19.7529C202.843 19.9979 202.52 20.212 202.179 20.392C201.59 20.7827 201.086 21.2869 200.695 21.8752C200.304 22.4635 200.034 23.1239 199.901 23.8178C199.648 25.2133 199.791 26.652 200.315 27.97C200.632 28.8738 201.149 29.6945 201.827 30.3712C202.339 30.8525 202.953 31.2157 203.491 31.6633C204.366 32.4085 205.034 33.3678 205.428 34.4476C205.823 35.5275 205.931 36.6912 205.743 37.8253C207.24 38.1688 208.676 36.8288 209.121 35.3566C209.565 33.8843 209.309 32.3135 209.287 30.7765C209.287 30.0953 209.382 29.293 209.982 28.9665C210.48 28.685 211.108 28.8877 211.598 29.1635C212.088 29.4394 212.572 29.7941 213.138 29.8617C213.982 29.9574 214.753 29.3634 215.226 28.6653C215.699 27.9672 215.97 27.1508 216.42 26.4358C217.008 25.4928 217.884 24.7693 218.742 24.0655C219.725 23.2548 220.679 22.3568 221.723 21.6306C222.351 21.1942 223.1 20.9915 223.716 20.5524C225.569 19.2265 226.146 16.7944 226.146 14.6662Z" fill="#585268"/>
<path opacity="0.1" d="M217.197 33.9913C217.197 33.9913 217.355 34.0279 217.628 34.1039C217.497 34.0285 217.348 33.9896 217.197 33.9913Z" fill="black"/>
<g opacity="0.1">
<path opacity="0.1" d="M208.547 34.4474C208.984 32.9751 208.736 31.4015 208.714 29.8673C208.714 29.1861 208.809 28.381 209.409 28.0545C209.907 27.773 210.535 27.9756 211.025 28.2515C211.514 28.5274 211.999 28.8849 212.564 28.9496C213.409 29.0453 214.18 28.4542 214.653 27.7533C215.126 27.0523 215.396 26.2388 215.847 25.5238C216.435 24.5807 217.311 23.8573 218.169 23.1535C219.152 22.3456 220.106 21.4448 221.15 20.7185C221.778 20.2822 222.527 20.0795 223.143 19.6404C225.007 18.3061 225.584 15.8739 225.584 13.7486C225.521 13.341 225.395 12.9459 225.209 12.5775C225.706 13.1497 226.031 13.8502 226.147 14.5987C226.147 16.724 225.584 19.1562 223.706 20.4905C223.09 20.9297 222.341 21.1323 221.713 21.5687C220.669 22.2949 219.715 23.1958 218.732 24.0037C217.874 24.7074 216.998 25.4309 216.41 26.3739C215.959 27.0889 215.692 27.9053 215.216 28.6034C214.74 29.3015 213.966 29.8955 213.127 29.7998C212.564 29.735 212.086 29.3747 211.588 29.1017C211.089 28.8286 210.462 28.6344 209.972 28.9046C209.372 29.2311 209.265 30.0306 209.277 30.7175C209.299 32.2516 209.558 33.814 209.11 35.2975C208.663 36.781 207.236 38.1125 205.732 37.7634C205.78 37.4993 205.809 37.2322 205.82 36.964C207.072 36.857 208.173 35.7113 208.547 34.4474Z" fill="black"/>
<path opacity="0.1" d="M201.264 29.4592C201.777 29.9406 202.39 30.3037 202.928 30.7513C203.52 31.2501 204.017 31.8519 204.395 32.5276C204.126 32.1866 203.824 31.8744 203.491 31.5958C202.951 31.1482 202.34 30.7851 201.827 30.3037C201.418 29.9107 201.073 29.4568 200.803 28.9581C200.945 29.1351 201.1 29.3025 201.264 29.4592Z" fill="black"/>
</g>
<path opacity="0.1" d="M216.814 129.944C217.02 130.555 217.313 131.151 217.352 131.796C217.42 132.891 216.75 133.913 216.702 135.011C216.645 136.289 217.422 137.435 218.166 138.473C217.285 138.473 216.322 138.169 215.874 137.412C215.721 137.121 215.61 136.809 215.545 136.486C214.748 133.308 213.974 129.831 215.359 126.864C215.571 126.351 215.882 125.884 216.274 125.49C216.508 126.988 216.311 128.46 216.814 129.944Z" fill="black"/>
<path opacity="0.1" d="M238.834 107.514L241.173 104.358C241.736 103.595 242.319 102.801 242.522 101.875C242.741 100.859 242.485 99.8062 242.451 98.7788C242.451 98.6633 242.451 98.5451 242.451 98.4269C242.42 98.3591 242.384 98.2932 242.344 98.2298C242.046 97.74 241.717 96.7632 241.37 95.457C241.029 95.796 240.764 96.2039 240.593 96.6534C239.504 99.3108 240.512 102.43 239.611 105.155C239.352 105.937 238.93 106.686 238.834 107.514Z" fill="black"/>
<path opacity="0.1" d="M232.877 203.038C231.721 203.867 230.401 204.438 229.006 204.714C227.611 204.991 226.173 204.965 224.789 204.64" fill="black"/>
<path opacity="0.1" d="M213.495 203.503C212.903 204.057 212.204 204.484 211.44 204.758C210.677 205.031 209.865 205.145 209.056 205.092C208.247 205.04 207.457 204.821 206.736 204.451C206.014 204.081 205.376 203.567 204.861 202.94" fill="black"/>
<path opacity="0.1" d="M225.848 161.067C226.97 161.325 228.146 161.214 229.2 160.748C230.254 160.282 231.128 159.487 231.692 158.482" fill="black"/>
<path opacity="0.1" d="M212.504 168.18C210.721 168.311 208.946 167.824 207.479 166.801L212.504 168.18Z" fill="black"/>
<path opacity="0.1" d="M221.611 185.188C223.112 185.799 224.449 186.748 225.91 187.44C227.371 188.133 229.063 188.589 230.611 188.105" fill="black"/>
<path opacity="0.1" d="M163.256 97.5233C163.194 97.5233 163.135 97.5092 163.076 97.4979C163.137 97.4914 163.199 97.5001 163.256 97.5233Z" fill="black"/>
<defs>
<linearGradient id="paint0_linear" x1="217.155" y1="213.589" x2="217.155" y2="10.6098" gradientUnits="userSpaceOnUse">
<stop stop-color="#808080" stop-opacity="0.25"/>
<stop offset="0.54" stop-color="#808080" stop-opacity="0.12"/>
<stop offset="1" stop-color="#808080" stop-opacity="0.1"/>
</linearGradient>
<clipPath id="clip0">
<rect width="182.413" height="139.906" fill="white" transform="translate(62.5068 64.1823)"/>
</clipPath>
</defs>
</svg>
