<svg width="1032" height="556" viewBox="0 0 1032 556" fill="none" xmlns="http://www.w3.org/2000/svg">
<mask id="mask0" mask-type="alpha" maskUnits="userSpaceOnUse" x="0" y="0" width="1032" height="556">
<path d="M1032 357.095C1032.01 372.21 1029.93 387.255 1025.82 401.801C1021.85 415.824 1016 429.248 1008.44 441.711C1008.44 486.868 977.928 525.895 933.644 544.462C915.139 552.143 895.289 556.065 875.251 555.999H195.909C159.599 555.999 125.951 546.211 98.3561 529.536C90.4585 524.786 82.9667 519.393 75.957 513.412C45.2857 487.075 26.2695 450.68 26.2695 410.481C9.0558 383.997 -0.0716946 353.08 0.000424088 321.502C0.000424088 255.381 39.1424 198.525 95.2168 173.424C102.663 170.092 110.357 167.344 118.229 165.204C121.014 164.446 123.828 163.767 126.673 163.167C134.256 161.553 141.948 160.499 149.685 160.012C152.482 159.838 155.293 159.738 158.12 159.714H159.672C162.793 159.714 165.887 159.823 168.963 160.003L169.974 158.29C171.212 156.223 172.481 154.177 173.78 152.152C176.126 148.463 178.586 144.828 181.16 141.246C183.854 137.467 186.665 133.747 189.594 130.088L190.343 129.187C192.003 127.12 193.699 125.077 195.431 123.058C200.843 116.754 206.557 110.64 212.571 104.716C277.621 41.0102 379.531 0 494.097 0C583.242 0 664.729 24.8314 727.145 65.8597C750.79 52.49 777.502 45.4747 804.671 45.4988C892.842 45.4988 964.342 117.938 964.342 207.295C964.329 212.949 964.028 218.599 963.44 224.222C984.694 239.254 1002.02 259.173 1013.95 282.299C1025.88 305.424 1032.07 331.078 1032 357.095V357.095Z" fill="#6C63FF"/>
</mask>
<g mask="url(#mask0)">
<path opacity="0.25" d="M1032 357.095C1032.01 372.21 1029.93 387.255 1025.82 401.801C1021.85 415.824 1016 429.248 1008.44 441.711C1008.44 486.868 977.928 525.895 933.644 544.462C915.139 552.143 895.289 556.065 875.251 555.999H195.909C159.599 555.999 125.951 546.211 98.3561 529.536C90.4585 524.786 82.9667 519.393 75.957 513.412C45.2857 487.075 26.2695 450.68 26.2695 410.481C9.0558 383.997 -0.0716946 353.08 0.000424088 321.502C0.000424088 255.381 39.1424 198.525 95.2168 173.424C102.663 170.092 110.357 167.344 118.229 165.204C121.014 164.446 123.828 163.767 126.673 163.167C134.256 161.553 141.948 160.499 149.685 160.012C152.482 159.838 155.293 159.738 158.12 159.714H159.672C162.793 159.714 165.887 159.823 168.963 160.003L169.974 158.29C171.212 156.223 172.481 154.177 173.78 152.152C176.126 148.463 178.586 144.828 181.16 141.246C183.854 137.467 186.665 133.747 189.594 130.088L190.343 129.187C192.003 127.12 193.699 125.077 195.431 123.058C200.843 116.754 206.557 110.64 212.571 104.716C277.621 41.0102 379.531 0 494.097 0C583.242 0 664.729 24.8314 727.145 65.8597C750.79 52.49 777.502 45.4747 804.671 45.4988C892.842 45.4988 964.342 117.938 964.342 207.295C964.329 212.949 964.028 218.599 963.44 224.222C984.694 239.254 1002.02 259.173 1013.95 282.299C1025.88 305.424 1032.07 331.078 1032 357.095V357.095Z" fill="#6C63FF"/>
<path opacity="0.2" d="M805 564H734V524H805V564ZM737 561H802V527H737V561Z" fill="#6C63FF"/>
<path opacity="0.2" d="M289 564H218V524H289V564ZM221 561H286V527H221V561Z" fill="#6C63FF"/>
<g opacity="0.7">
<path opacity="0.7" d="M350.11 502.88C350.11 502.88 263.47 471.2 251.61 515.79L284.84 600.26L288.4 654.26H360.79V608.47C360.79 608.47 350.11 562.71 377.41 534.56L350.11 502.88Z" fill="url(#paint0_linear)"/>
<g opacity="0.1">
<path opacity="0.1" d="M364.62 251.5C360.94 250.28 356.51 249.19 353.51 251.62C351.77 253.03 351.02 255.3 349.67 257.08C345.18 262.97 336.13 261.87 328.98 263.98C318.47 267.08 311.98 277.49 308.26 287.69C291.8 332.69 310.15 384.16 295.82 429.86C291.6 443.31 284.7 458.24 291.52 470.61C293.79 474.74 297.52 478.18 298.62 482.74C300.16 488.93 297.19 497.05 302.38 500.82C304 501.99 306.05 502.36 307.99 502.82C319.67 505.9 328.52 514.99 337.42 523.07C346.32 531.15 357.02 538.97 369.09 538.44C372.991 538.118 376.842 537.353 380.57 536.16L440.47 519.48C446.47 517.81 452.99 515.79 456.47 510.67C458.6 507.54 459.27 503.67 459.81 499.95C461.877 485.735 462.856 471.384 462.74 457.02C462.74 452.28 462.52 447.43 460.74 443.02C458.74 437.93 454.74 433.86 451.83 429.21C446.21 420.21 444.7 409.4 443.31 398.93C441.1 382.26 438.89 365.26 441.95 348.72C443.26 341.62 445.52 334.72 447.02 327.67C449.45 316.184 449.836 304.36 448.16 292.74C446.76 283.09 443.76 273.3 437.16 266.04C432.84 261.202 426.971 258.02 420.56 257.04C412.46 256.04 408.43 260.7 401.21 262.44C390.53 265.11 374.89 254.89 364.62 251.5Z" fill="url(#paint1_linear)"/>
</g>
<path opacity="0.7" d="M364.62 249.11C360.94 247.89 356.51 246.8 353.51 249.23C351.77 250.64 351.02 252.91 349.67 254.69C345.18 260.58 336.13 259.48 328.98 261.59C318.47 264.69 311.98 275.1 308.26 285.3C291.8 330.3 310.15 381.77 295.82 427.47C291.6 440.92 284.7 455.85 291.52 468.22C293.79 472.35 297.52 475.79 298.62 480.35C300.16 486.54 297.19 494.66 302.38 498.43C304 499.6 306.05 499.97 307.99 500.43C319.67 503.51 328.52 512.6 337.42 520.68C346.32 528.76 357 536.67 369.09 536.11C372.991 535.788 376.842 535.023 380.57 533.83L440.47 517.15C446.47 515.48 452.99 513.46 456.47 508.34C458.6 505.21 459.27 501.34 459.81 497.62C461.877 483.405 462.856 469.054 462.74 454.69C462.74 449.95 462.52 445.1 460.74 440.69C458.74 435.6 454.74 431.53 451.83 426.88C446.21 417.88 444.7 407.07 443.31 396.6C441.1 379.93 438.89 362.93 441.95 346.39C443.26 339.29 445.52 332.39 447.02 325.34C449.45 313.854 449.836 302.03 448.16 290.41C446.76 280.76 443.76 270.97 437.16 263.71C432.84 258.872 426.971 255.69 420.56 254.71C412.46 253.71 408.43 258.37 401.21 260.11C390.53 262.71 374.89 252.55 364.62 249.11Z" fill="url(#paint2_linear)"/>
<path opacity="0.7" d="M347.74 160.3C347.74 160.3 348.93 204.88 334.69 203.71C320.45 202.54 375 277.62 375 277.62L421.28 252.98C421.28 252.98 394 209.58 413 182.59C432 155.6 347.74 160.3 347.74 160.3Z" fill="url(#paint3_linear)"/>
<g opacity="0.1">
<path opacity="0.1" d="M268.22 539.25C268.22 539.25 258.73 603.78 234.99 586.18C211.25 568.58 214.81 539.25 214.81 539.25C214.81 539.25 261.1 414.89 258.73 396.11C256.36 377.33 337.73 231.41 337.73 231.41L367.87 471.2C367.87 471.2 277.71 504.05 268.22 539.25Z" fill="url(#paint4_linear)"/>
</g>
<path opacity="0.7" d="M265.85 539.25C265.85 539.25 256.36 603.78 232.62 586.18C208.88 568.58 212.44 539.25 212.44 539.25C212.44 539.25 258.73 414.89 256.35 396.11C253.97 377.33 335.35 231.41 335.35 231.41L365.49 471.2C365.49 471.2 275.34 504.05 265.85 539.25Z" fill="url(#paint5_linear)"/>
<path opacity="0.7" d="M350.11 188.46C350.11 188.46 303.82 220.11 286 218.96L272.17 222.72C258.495 226.388 246.118 233.807 236.437 244.139C226.757 254.471 220.16 267.305 217.39 281.19L217.17 282.31C210.07 319.86 207.69 423.11 207.69 423.11C207.69 423.11 208.88 450.11 220.74 457.11L296.74 508.73C296.74 508.73 294.37 452.42 322.85 446.55C351.33 440.68 315.73 444.2 315.73 444.2L263.51 413.7C263.51 413.7 264.7 367.94 278.94 352.7C293.18 337.46 343.03 257.7 343.03 257.7L328.79 208.43L350.11 188.46Z" fill="url(#paint6_linear)"/>
<g opacity="0.1">
<path opacity="0.1" d="M401.14 218.96C401.14 218.96 430.29 226.59 450.7 230.32C453.88 230.888 456.881 232.199 459.46 234.145C462.038 236.091 464.122 238.618 465.54 241.52C471.7 254.23 481.09 277.22 479.47 296.39L497.27 365.61L548.27 426.61L502 447.74L449.8 390.25L492.52 499.36L413 502.88C413 502.88 389.26 326.88 395.2 297.57L401.14 218.96Z" fill="url(#paint7_linear)"/>
</g>
<path opacity="0.7" d="M403.51 218.96C403.51 218.96 432.66 226.59 453.07 230.32C456.25 230.888 459.251 232.199 461.83 234.145C464.408 236.091 466.491 238.618 467.91 241.52C474.07 254.23 483.46 277.22 481.84 296.39L499.64 365.61L550.64 426.61L504.36 447.73L452.14 390.24L494.9 499.36L415.38 502.88C415.38 502.88 391.64 326.88 397.58 297.57L403.51 218.96Z" fill="url(#paint8_linear)"/>
<path opacity="0.7" d="M346.21 184.72L362.57 264.13L335.87 277.62L321.24 206.09L346.21 184.72Z" fill="url(#paint9_linear)"/>
<path opacity="0.7" d="M391.05 270L403.51 218.96L419.54 248.88L411.23 273.52L391.05 270Z" fill="url(#paint10_linear)"/>
<path opacity="0.1" d="M436.15 285.25C436.15 285.25 436.15 365.03 446.83 370.89Z" fill="url(#paint11_linear)"/>
<path opacity="0.1" d="M283.05 305.19C283.05 305.19 258.42 383.76 265.39 391.99Z" fill="url(#paint12_linear)"/>
<path opacity="0.1" d="M278.31 413.11C278.31 413.11 325.79 443.8 332.31 444.29Z" fill="url(#paint13_linear)"/>
<g opacity="0.1">
<path opacity="0.1" d="M348.92 164.99C348.92 164.99 349.1 171.86 348.46 180.13C352.693 189.951 359.716 198.313 368.657 204.179C377.599 210.045 388.066 213.158 398.76 213.13C401.691 213.128 404.616 212.894 407.51 212.43C407.2 203.65 408.89 194.84 414.19 187.32C433.18 160.3 348.92 164.99 348.92 164.99Z" fill="url(#paint14_linear)"/>
</g>
<path opacity="0.7" d="M397.58 208.41C427.729 208.41 452.17 184.247 452.17 154.44C452.17 124.633 427.729 100.47 397.58 100.47C367.431 100.47 342.99 124.633 342.99 154.44C342.99 184.247 367.431 208.41 397.58 208.41Z" fill="url(#paint15_linear)"/>
<g opacity="0.1">
<path opacity="0.1" d="M432.22 131.75C438.83 132.63 447.22 130.45 448.53 123.97C450.14 115.79 439.07 110.47 437.36 102.3C436.72 99.24 437.48 96.04 437.11 92.93C436.37 86.67 431.25 81.85 426.04 78.21C409.498 66.7569 389.459 61.4764 369.42 63.29C366.94 63.52 364.33 63.92 362.42 65.49C360.24 67.26 359.42 70.14 357.91 72.49C352.79 80.67 341.29 81.63 333.04 86.73C323.39 92.73 318.61 104.4 318.18 115.64C317.75 126.88 320.99 137.91 324.18 148.71C326.91 157.89 329.77 167.32 335.76 174.84C341.75 182.36 351.69 187.61 361.1 185.35C356.79 182.28 359.92 175.15 364.59 172.65C369.26 170.15 375.06 169.72 379.05 166.27C383.04 162.82 384.24 157.17 385.54 152.03C387.18 145.55 389.54 138.97 394.34 134.24C403.75 124.98 420.7 130.22 432.22 131.75Z" fill="url(#paint16_linear)"/>
</g>
<path opacity="0.7" d="M431 130.58C437.61 131.46 446 129.28 447.31 122.8C448.92 114.62 437.85 109.3 436.14 101.13C435.5 98.07 436.26 94.87 435.89 91.76C435.15 85.5 430.03 80.68 424.82 77.04C408.29 65.5925 388.266 60.3088 368.24 62.11C365.76 62.34 363.15 62.74 361.24 64.31C359.06 66.08 358.24 68.96 356.73 71.31C351.61 79.49 340.11 80.45 331.86 85.55C322.21 91.55 317.43 103.22 317 114.46C316.57 125.7 319.81 136.73 323 147.53C325.73 156.71 328.59 166.14 334.58 173.66C340.57 181.18 350.51 186.43 359.92 184.17C355.61 181.1 358.74 173.97 363.41 171.47C368.08 168.97 373.88 168.54 377.87 165.09C381.86 161.64 383.06 155.99 384.36 150.85C386 144.37 388.36 137.79 393.16 133.06C402.56 123.81 419.51 129.04 431 130.58Z" fill="url(#paint17_linear)"/>
<g opacity="0.1">
<path opacity="0.1" d="M388.14 161.72C387.34 167.3 385.56 176.96 382.21 183.06C377.78 190.998 373.991 199.278 370.88 207.82V207.82C370.88 207.82 392.74 224.55 403.88 235.98C407.309 239.57 411.698 242.1 416.523 243.268C421.349 244.436 426.408 244.194 431.1 242.57C436.89 240.49 441.96 236.47 443.31 228.93C445.43 217.04 442.91 208.07 440.53 202.76C439.383 200.251 438.782 197.527 438.768 194.769C438.755 192.01 439.328 189.28 440.45 186.76C441.27 184.96 442.23 183.55 443.3 183.2C443.3 183.2 421.94 178.51 420.75 184.37C419.56 190.23 402.95 196.1 399.39 185.54L398.39 162.26C398.328 160.941 397.759 159.696 396.801 158.787C395.843 157.877 394.571 157.373 393.25 157.38V157.38C392.019 157.368 390.824 157.8 389.886 158.597C388.947 159.394 388.327 160.503 388.14 161.72V161.72Z" fill="url(#paint18_linear)"/>
</g>
<path opacity="0.7" d="M388.14 162.9C387.34 168.48 385.56 178.14 382.21 184.24C377.78 192.178 373.991 200.458 370.88 209V209C370.88 209 392.74 225.73 403.88 237.16C407.309 240.75 411.698 243.279 416.523 244.448C421.349 245.616 426.408 245.374 431.1 243.75C436.89 241.67 441.96 237.65 443.31 230.11C445.43 218.22 442.91 209.25 440.53 203.94C439.383 201.431 438.782 198.707 438.768 195.949C438.755 193.19 439.328 190.46 440.45 187.94C441.27 186.14 442.23 184.73 443.3 184.38C443.3 184.38 421.94 179.69 420.75 185.55C419.56 191.41 402.95 197.28 399.39 186.72L398.39 163.44C398.328 162.121 397.759 160.876 396.801 159.967C395.843 159.057 394.571 158.553 393.25 158.56V158.56C392.019 158.548 390.824 158.98 389.886 159.777C388.947 160.574 388.327 161.683 388.14 162.9V162.9Z" fill="url(#paint19_linear)"/>
</g>
<path d="M351.27 502.11C351.27 502.11 268.1 471.35 256.71 514.64L288.61 596.64L292 649.11H361.5V604.66C361.5 604.66 351.25 560.23 377.5 532.88L351.27 502.11Z" fill="#535461"/>
<path opacity="0.1" d="M365.2 258C361.67 256.82 357.41 255.76 354.54 258.12C352.87 259.49 352.15 261.69 350.85 263.42C346.54 269.14 337.85 268.07 330.99 270.12C320.9 273.12 314.68 283.24 311.1 293.12C295.3 336.81 312.91 386.81 299.16 431.18C295.16 444.24 288.49 458.74 295.03 470.75C297.21 474.75 300.76 478.1 301.85 482.53C303.33 488.53 300.48 496.43 305.46 500.09C307.01 501.23 308.98 501.58 310.84 502.09C322.05 505.09 330.55 513.91 339.09 521.76C347.63 529.61 357.91 537.2 369.49 536.69C373.229 536.377 376.92 535.635 380.49 534.48L437.99 518.28C443.76 516.65 449.99 514.69 453.36 509.72C455.36 506.72 456.05 502.94 456.57 499.31C458.553 485.504 459.493 471.568 459.38 457.62C459.38 453.02 459.17 448.31 457.48 444.03C455.48 439.09 451.72 435.14 448.92 430.61C443.53 421.89 442.07 411.37 440.74 401.2C438.62 385.01 436.5 368.5 439.43 352.44C440.69 345.55 442.86 338.85 444.3 332C446.635 320.843 447.007 309.365 445.4 298.08C444.06 288.71 441.17 279.2 434.85 272.15C430.722 267.463 425.082 264.37 418.91 263.41C411.13 262.41 407.26 266.97 400.33 268.66C390.08 271.17 375.06 261.3 365.2 258Z" fill="black"/>
<path d="M365.2 255.72C361.67 254.54 357.41 253.48 354.54 255.84C352.87 257.21 352.15 259.41 350.85 261.14C346.54 266.86 337.85 265.79 330.99 267.84C320.9 270.84 314.68 280.96 311.1 290.84C295.3 334.53 312.91 384.53 299.16 428.9C295.16 441.96 288.49 456.46 295.03 468.47C297.21 472.47 300.76 475.82 301.85 480.25C303.33 486.25 300.48 494.15 305.46 497.81C307.01 498.95 308.98 499.3 310.84 499.81C322.05 502.81 330.55 511.63 339.09 519.48C347.63 527.33 357.91 534.92 369.49 534.41C373.229 534.097 376.92 533.355 380.49 532.2L438 516.01C443.77 514.38 450 512.42 453.37 507.45C455.37 504.45 456.06 500.67 456.58 497.04C458.564 483.234 459.503 469.297 459.39 455.35C459.39 450.75 459.18 446.04 457.49 441.76C455.49 436.82 451.73 432.87 448.93 428.34C443.54 419.62 442.08 409.1 440.75 398.93C438.63 382.74 436.51 366.23 439.44 350.17C440.7 343.28 442.87 336.58 444.31 329.73C446.645 318.573 447.017 307.095 445.41 295.81C444.07 286.44 441.18 276.93 434.86 269.88C430.744 265.187 425.115 262.085 418.95 261.11C411.17 260.11 407.3 264.67 400.37 266.36C390.08 268.9 375.06 259.02 365.2 255.72Z" fill="#E0E0E0"/>
<path d="M349 169.44C349 169.44 350.14 212.73 336.47 211.59C322.8 210.45 375.21 283.37 375.21 283.37L419.64 259.44C419.64 259.44 393.44 217.29 411.64 191.08C429.84 164.87 349 169.44 349 169.44Z" fill="#FDA57D"/>
<path opacity="0.1" d="M272.66 537.44C272.66 537.44 263.55 600.1 240.76 583.01C217.97 565.92 221.39 537.44 221.39 537.44C221.39 537.44 265.82 416.67 263.54 398.44C261.26 380.21 339.42 238.49 339.42 238.49L368.35 471.35C368.35 471.35 281.77 503.26 272.66 537.44Z" fill="black"/>
<path d="M270.38 537.44C270.38 537.44 261.27 600.1 238.48 583.01C215.69 565.92 219.11 537.44 219.11 537.44C219.11 537.44 263.54 416.67 261.26 398.44C258.98 380.21 337.14 238.49 337.14 238.49L366.07 471.35C366.07 471.35 279.49 503.26 270.38 537.44Z" fill="#4D8AF0"/>
<path d="M351.27 196.78C351.27 196.78 306.84 227.54 289.75 226.4L276.47 230.05C263.284 233.674 251.373 240.911 242.081 250.943C232.789 260.976 226.485 273.405 223.88 286.83L223.67 287.92C216.83 324.38 214.56 424.64 214.56 424.64C214.56 424.64 215.7 450.84 227.09 457.64L300 507.82C300 507.82 297.72 453.13 325.07 447.44C352.42 441.75 318.23 445.16 318.23 445.16L268.1 415.53C268.1 415.53 269.24 371.1 282.91 356.29C296.58 341.48 344.43 264.01 344.43 264.01L330.76 216.11L351.27 196.78Z" fill="#4D8AF0"/>
<path opacity="0.1" d="M400.26 226.41C400.26 226.41 428.26 233.82 447.84 237.41C450.904 237.971 453.791 239.25 456.266 241.141C458.741 243.032 460.733 245.482 462.08 248.29C467.99 260.64 477 282.95 475.45 301.57L492.54 368.79L541.54 428.03L497.1 448.57L447 392.75L488 498.75L411.66 502.11C411.66 502.11 388.87 331.21 394.57 302.73L400.26 226.41Z" fill="black"/>
<path d="M402.54 226.41C402.54 226.41 430.54 233.82 450.12 237.41C453.184 237.971 456.071 239.25 458.546 241.141C461.021 243.032 463.013 245.482 464.36 248.29C470.27 260.64 479.28 282.95 477.73 301.57L494.82 368.79L543.82 428.03L499.39 448.54L449.26 392.71L490.26 498.71L413.93 502.11C413.93 502.11 391.14 331.21 396.84 302.73L402.54 226.41Z" fill="#4D8AF0"/>
<path d="M347.53 193.16L363.24 270.27L337.6 283.37L323.56 213.91L347.53 193.16Z" fill="#E0E0E0"/>
<path d="M390.58 275.97L402.54 226.41L417.92 255.46L409.95 279.39L390.58 275.97Z" fill="#E0E0E0"/>
<path opacity="0.1" d="M433.87 290.78C433.87 290.78 433.87 368.25 444.12 373.95Z" fill="black"/>
<path opacity="0.1" d="M286.9 310.11C286.9 310.11 263.25 386.41 269.9 394.4Z" fill="black"/>
<path opacity="0.1" d="M282.34 414.96C282.34 414.96 327.92 444.76 334.18 445.24Z" fill="black"/>
<path opacity="0.1" d="M350.13 174C350.13 174 350.31 180.67 349.69 188.7C354.263 199.518 362.337 208.487 372.617 214.168C382.897 219.85 394.787 221.914 406.38 220.03C406.08 211.5 407.71 202.95 412.79 195.64C431 169.44 350.13 174 350.13 174Z" fill="black"/>
<path d="M396.84 216.16C425.785 216.16 449.25 192.695 449.25 163.75C449.25 134.805 425.785 111.34 396.84 111.34C367.895 111.34 344.43 134.805 344.43 163.75C344.43 192.695 367.895 216.16 396.84 216.16Z" fill="#FDA57D"/>
<path opacity="0.1" d="M430.09 141.72C436.44 142.57 444.53 140.45 445.75 134.17C447.3 126.22 436.67 121.06 435.03 113.17C434.41 110.17 435.15 107.09 434.79 104.08C434.08 98 429.16 93.32 424.16 89.79C408.327 78.6851 389.069 73.5544 369.81 75.31C367.43 75.54 364.92 75.92 363.08 77.44C360.99 79.16 360.18 81.95 358.75 84.26C353.83 92.2 342.75 93.14 334.88 98.09C325.61 103.88 321.03 115.25 320.61 126.17C320.19 137.09 323.31 147.8 326.39 158.28C329.01 167.2 331.76 176.35 337.51 183.65C343.26 190.95 352.81 196.05 361.83 193.85C357.69 190.85 360.7 183.94 365.18 181.52C369.66 179.1 375.18 178.68 379.07 175.32C382.96 171.96 384.07 166.48 385.3 161.49C386.88 155.19 389.16 148.81 393.75 144.21C402.77 135.11 419 140.23 430.09 141.72Z" fill="black"/>
<path d="M429 140.58C435.35 141.43 443.44 139.31 444.66 133.03C446.21 125.08 435.58 119.92 433.94 112.03C433.32 109.03 434.06 105.95 433.7 102.94C432.94 96.81 428 92.11 423 88.6C407.177 77.4985 387.93 72.3646 368.68 74.11C366.3 74.34 363.79 74.72 361.95 76.24C359.86 77.96 359.05 80.75 357.62 83.06C352.7 91 341.62 91.94 333.75 96.89C324.48 102.68 319.9 114.05 319.48 124.97C319.06 135.89 322.18 146.6 325.26 157.08C327.88 166 330.63 175.15 336.38 182.45C342.13 189.75 351.68 194.85 360.7 192.65C356.56 189.65 359.57 182.74 364.05 180.32C368.53 177.9 374.05 177.48 377.94 174.12C381.83 170.76 382.94 165.28 384.17 160.29C385.75 153.99 388.03 147.61 392.62 143.01C401.63 134 417.9 139.11 429 140.58Z" fill="#72351C"/>
<path opacity="0.1" d="M387.78 170.82C387.01 176.24 385.3 185.62 382.08 191.54C377.826 199.24 374.188 207.265 371.2 215.54C371.2 215.54 392.2 231.79 402.85 242.89C406.12 246.37 410.328 248.827 414.966 249.963C419.604 251.099 424.472 250.865 428.98 249.29C434.54 247.29 439.41 243.36 440.7 236.05C442.7 224.5 440.32 215.79 438.04 210.63C436.947 208.19 436.379 205.548 436.372 202.874C436.365 200.201 436.92 197.555 438 195.11C438.79 193.36 439.71 192 440.74 191.65C440.74 191.65 420.23 187.09 419.09 192.79C417.95 198.49 402 204.18 398.58 193.93L397.64 171.32C397.589 170.045 397.045 168.839 396.124 167.955C395.204 167.072 393.976 166.579 392.7 166.58V166.58C391.506 166.571 390.348 166.995 389.443 167.775C388.538 168.555 387.947 169.637 387.78 170.82Z" fill="black"/>
<path d="M387.78 171.96C387.01 177.38 385.3 186.76 382.08 192.68C377.826 200.38 374.188 208.405 371.2 216.68C371.2 216.68 392.2 232.93 402.85 244.03C406.12 247.51 410.328 249.967 414.966 251.103C419.604 252.239 424.472 252.005 428.98 250.43C434.54 248.43 439.41 244.5 440.7 237.19C442.7 225.64 440.32 216.93 438.04 211.77C436.937 209.327 436.36 206.678 436.348 203.997C436.336 201.317 436.889 198.663 437.97 196.21C438.76 194.46 439.68 193.1 440.71 192.75C440.71 192.75 420.2 188.19 419.06 193.89C417.92 199.59 402 205.33 398.55 195.11L397.61 172.5C397.558 171.225 397.015 170.019 396.094 169.136C395.174 168.252 393.946 167.759 392.67 167.76V167.76C391.487 167.757 390.341 168.179 389.444 168.95C388.546 169.721 387.955 170.79 387.78 171.96V171.96Z" fill="#72351C"/>
<path d="M795 496.11C795 496.11 774.41 475.5 766.84 448.11H768.61L767.76 445.73H768.61L765.93 438.11C773.52 430.65 779.13 423.42 780.04 419.31C781.58 412.39 783.11 374.95 784.04 348.93L784.86 349.13C786.86 345.71 787.28 341.4 787.14 337.49C787.216 333.098 786.65 328.719 785.46 324.49L781.75 287.34C781.393 283.922 780.345 280.613 778.668 277.613C776.992 274.613 774.724 271.986 772 269.89L734.4 240.72C736.379 238.051 738.892 235.824 741.78 234.18C743.93 233.04 746.43 232.26 747.88 230.31C750.5 226.78 748.27 221.52 750.06 217.5C751.4 214.5 754.7 212.82 756.63 210.13C760.58 204.62 757.72 197.01 754.77 190.91L737.63 155.48C732.88 145.67 728.09 135.78 721.45 127.14C701.12 100.66 662 87.49 630.11 98.97C621.02 102.24 612.65 108.52 608.77 117.36C607.42 120.44 606.61 123.8 604.65 126.53C600.28 132.62 591.75 133.77 585.65 138.15C577.86 143.78 574.97 154.38 576.06 163.93C577.15 173.48 581.53 182.3 585.85 190.93C590.39 199.93 595.08 209.2 602.53 216.02C606.01 219.21 610.27 222.17 611.38 226.76C612.33 230.7 610.65 234.76 611 238.84C611.146 240.537 611.643 242.185 612.46 243.68C595.63 245.79 583.69 259.77 578.34 280.57C578.01 281.86 577.88 282.57 577.88 282.57L575.51 304.11C575.46 305.04 575.51 305.94 575.51 306.83C575.295 311.677 576.328 316.497 578.51 320.83V396.46L506.51 442.04C495.71 446.84 498.11 485.23 519.71 492.42C541.31 499.61 560.52 454.11 560.52 454.11C573.67 453.23 595.79 435.69 607.68 422.11C609.287 424.704 611.424 426.929 613.95 428.64C605.37 447.98 588.4 487.99 591.11 496.11C592.74 501.01 634.88 501.46 680.43 500.5C681.595 501.147 682.817 501.686 684.08 502.11C688.94 503.73 693.68 502.67 698.08 500.06C747.36 498.65 795 496.11 795 496.11ZM734.19 349.46C735.19 346.69 738.47 345.18 742.86 344.46V373.63L734.19 349.46ZM730 246.96L730.14 246.75L730 246.96Z" fill="url(#paint20_linear)"/>
<path d="M621.86 313C621.86 313 619.58 393.89 617.3 404.15C615.02 414.41 582 445.11 564.89 446.3C564.89 446.3 546.66 489.59 526.15 482.76C505.64 475.93 503.36 439.47 513.62 434.91L582 391.61V305.02L621.86 313Z" fill="#FDB797"/>
<path d="M620.15 412.11C620.15 412.11 590.53 475.91 593.95 486.17C597.37 496.43 787.63 486.17 787.63 486.17C787.63 486.17 752.31 450.85 759.15 412.11H620.15Z" fill="#3AD29F"/>
<path d="M642.94 222.99C642.94 222.99 647.5 267.42 639.52 277.68C631.54 287.94 671.42 293.68 674.84 293.68C678.26 293.68 714.72 281.15 721.55 277.68C728.38 274.21 734.08 249.2 734.08 249.2C734.08 249.2 699.9 256.04 689.65 216.2L642.94 222.99Z" fill="#FDB797"/>
<path d="M631 109.01C622.37 112.12 614.41 118.08 610.73 126.48C609.45 129.4 608.68 132.59 606.82 135.19C602.67 140.97 594.57 142.06 588.82 146.19C581.42 151.54 578.68 161.6 579.71 170.68C580.74 179.76 584.9 188.13 589 196.29C593.31 204.86 597.77 213.64 604.84 220.12C608.14 223.12 612.19 225.96 613.24 230.32C614.14 234.06 612.55 237.97 612.88 241.8C613.7 251.27 625.02 255.68 634.47 256.73C638.58 257.19 643.28 257.21 646.18 254.26C647.66 252.74 648.41 250.68 649.34 248.78C651.49 244.428 654.804 240.757 658.914 238.175C663.024 235.592 667.769 234.199 672.622 234.149C677.476 234.099 682.249 235.395 686.41 237.893C690.572 240.391 693.961 243.993 696.2 248.3C698.42 252.56 699.71 257.74 703.74 260.3C709.91 264.3 718.17 259.61 722.74 253.83C727.31 248.05 730.59 240.83 737.08 237.36C739.08 236.27 741.5 235.54 742.88 233.68C745.37 230.33 743.25 225.33 744.95 221.52C746.23 218.65 749.36 217.08 751.19 214.52C754.94 209.29 752.19 202.06 749.42 196.27L733.14 162.62C728.63 153.3 724.08 143.91 717.78 135.7C698.43 110.62 661.28 98.11 631 109.01Z" fill="#6C63FF"/>
<path opacity="0.1" d="M672.56 285.65C672.56 285.65 716.99 285.65 728.39 244.65L765.79 273.65C768.373 275.652 770.52 278.159 772.102 281.018C773.684 283.877 774.666 287.029 774.99 290.28L778.52 325.56C778.52 325.56 782.52 338.66 777.95 346.64C777.95 346.64 730.67 334.64 729.53 348.35L762.53 440.63C762.53 440.63 711.26 441.77 697.59 432.63C697.59 432.63 641.76 444.02 628.09 431.49C614.42 418.96 600.75 420.1 612.09 391.61C612.09 391.61 589.3 368.82 599.56 336.92C609.82 305.02 600.13 337.49 600.13 337.49C600.13 337.49 578 326.67 579.14 306.11L581.42 285.6C581.42 285.6 581.54 284.92 581.86 283.7C588.81 256.7 607.47 241.7 633.71 251.26C641.38 254.04 649.22 250.85 649.22 250.85C649.22 250.85 640.66 287.93 672.56 285.65Z" fill="black"/>
<path d="M672.56 283.37C672.56 283.37 716.99 283.37 728.39 242.37L765.79 271.37C768.373 273.372 770.52 275.879 772.102 278.738C773.684 281.597 774.666 284.749 774.99 288L778.52 323.28C778.52 323.28 782.52 336.38 777.95 344.36C777.95 344.36 730.67 332.36 729.53 346.07L762.53 438.35C762.53 438.35 711.26 439.49 697.59 430.35C697.59 430.35 641.76 441.74 628.09 429.21C614.42 416.68 600.75 417.82 612.09 389.33C612.09 389.33 589.3 366.54 599.56 334.64C609.82 302.74 600.13 335.21 600.13 335.21C600.13 335.21 578 324.39 579.14 303.88L581.42 283.37C581.42 283.37 581.54 282.69 581.86 281.47C588.81 254.47 607.47 239.47 633.71 249.03C641.38 251.81 649.22 248.62 649.22 248.62C649.22 248.62 640.66 285.65 672.56 283.37Z" fill="#252A62"/>
<path d="M777.95 322.11C777.95 322.11 775.67 403 773.39 413.26C771.11 423.52 738.07 454.26 720.98 455.41C720.98 455.41 702.75 498.7 682.24 491.87C661.73 485.04 659.45 448.58 669.71 444.02L738.07 400.73V314.11L777.95 322.11Z" fill="#FDB797"/>
<path opacity="0.1" d="M729 324.96C729 324.96 755.2 342.74 778 341.26C778 341.26 780.28 310.72 773.44 309.01C766.6 307.3 736.93 309.01 729 324.96Z" fill="black"/>
<path d="M729 323.82C729 323.82 755.2 341.6 778 340.12C778 340.12 780.28 309.58 773.44 307.87C766.6 306.16 736.93 307.87 729 323.82Z" fill="#252A62"/>
<path opacity="0.1" d="M691.93 218.43L645.22 225.27C645.22 225.27 646.27 235.55 646.48 247.36C655.561 251.19 665.538 252.383 675.266 250.801C684.994 249.22 694.079 244.929 701.48 238.42C697.54 233.61 694.17 227.11 691.93 218.43Z" fill="black"/>
<path d="M664.59 249.2C693.535 249.2 717 225.735 717 196.79C717 167.845 693.535 144.38 664.59 144.38C635.645 144.38 612.18 167.845 612.18 196.79C612.18 225.735 635.645 249.2 664.59 249.2Z" fill="#FDB797"/>
<path opacity="0.1" d="M678.4 186.71C676.167 187.549 673.778 187.891 671.4 187.71C662.133 187.65 652.87 187.317 643.61 186.71C636.61 186.24 629.11 185.41 623.7 180.92C616.42 174.92 615.27 163.55 619.03 154.87C622.79 146.19 630.46 139.79 638.56 134.87C643.135 131.984 648.089 129.75 653.28 128.23C668.28 124.15 684.92 129.16 696.85 139.16C708.78 149.16 716.39 163.6 720.42 178.64C721.81 183.84 723.6 190.04 728.75 191.64C725.32 197.34 716.95 198.25 710.95 195.39C702.09 191.18 697.55 175.06 689.6 172.52C680.73 169.67 685.89 183.27 678.4 186.71Z" fill="black"/>
<path d="M678.4 185.57C676.167 186.409 673.778 186.751 671.4 186.57C662.133 186.51 652.87 186.177 643.61 185.57C636.61 185.1 629.11 184.27 623.7 179.78C616.42 173.78 615.27 162.41 619.03 153.73C622.79 145.05 630.46 138.65 638.56 133.73C643.133 130.852 648.084 128.624 653.27 127.11C668.27 123.03 684.91 128.04 696.84 138.04C708.77 148.04 716.38 162.48 720.41 177.52C721.8 182.72 723.59 188.92 728.74 190.52C725.31 196.22 716.94 197.13 710.94 194.27C702.08 190.06 697.54 173.94 689.59 171.4C680.73 168.53 685.89 182.11 678.4 185.57Z" fill="#6C63FF"/>
<path opacity="0.1" d="M611.61 388.76C628.698 384.194 646.312 381.895 664 381.92Z" fill="black"/>
<path opacity="0.1" d="M729 327.24C729 327.24 711.91 339.77 716.47 346.61Z" fill="black"/>
<g opacity="0.7">
<path opacity="0.7" d="M846.31 451.42H286.9V500.34H319.46V509.88V654.22H814.91V509.88V500.34H846.31V451.42Z" fill="url(#paint21_linear)"/>
</g>
<path d="M809.85 479.91H324.5V654.23H809.85V479.91Z" fill="#E0E0E0"/>
<path opacity="0.1" d="M809.85 489.02H324.5V516.36H809.85V489.02Z" fill="black"/>
<path d="M840.61 460.54H292.6V507.25H840.61V460.54Z" fill="#E0E0E0"/>
<path d="M469.46 449.04H377.64C374.05 449.04 371.14 451.95 371.14 455.54V457.35C371.14 460.94 374.05 463.85 377.64 463.85H469.46C473.05 463.85 475.96 460.94 475.96 457.35V455.54C475.96 451.95 473.05 449.04 469.46 449.04Z" fill="#535461"/>
<g opacity="0.7">
<path opacity="0.7" d="M667.24 283.91H463.16C447.574 283.91 434.94 296.545 434.94 312.13V435.82C434.94 451.406 447.574 464.04 463.16 464.04H667.24C682.825 464.04 695.46 451.406 695.46 435.82V312.13C695.46 296.545 682.825 283.91 667.24 283.91Z" fill="url(#paint22_linear)"/>
</g>
<path d="M659.53 287.23H466.42C451.597 287.23 439.58 299.247 439.58 314.07V437.19C439.58 452.013 451.597 464.03 466.42 464.03H659.53C674.353 464.03 686.37 452.013 686.37 437.19V314.07C686.37 299.247 674.353 287.23 659.53 287.23Z" fill="#3E3F49"/>
<path d="M662.95 287.23H469.84C455.017 287.23 443 299.247 443 314.07V437.19C443 452.013 455.017 464.03 469.84 464.03H662.95C677.773 464.03 689.79 452.013 689.79 437.19V314.07C689.79 299.247 677.773 287.23 662.95 287.23Z" fill="#535461"/>
<path d="M577.92 382.4C582.327 382.4 585.9 378.827 585.9 374.42C585.9 370.013 582.327 366.44 577.92 366.44C573.513 366.44 569.94 370.013 569.94 374.42C569.94 378.827 573.513 382.4 577.92 382.4Z" fill="#E0E0E0"/>
<path opacity="0.1" d="M251.58 483.32C251.58 483.32 258.32 493.21 278.31 496.24Z" fill="black"/>
</g>
<defs>
<linearGradient id="paint0_linear" x1="251.6" y1="573.09" x2="377.41" y2="573.09" gradientUnits="userSpaceOnUse">
<stop stop-color="#808080" stop-opacity="0.25"/>
<stop offset="0.54" stop-color="#808080" stop-opacity="0.12"/>
<stop offset="1" stop-color="#808080" stop-opacity="0.1"/>
</linearGradient>
<linearGradient id="paint1_linear" x1="71088.9" y1="164358" x2="101404" y2="164358" gradientUnits="userSpaceOnUse">
<stop stop-color="#808080" stop-opacity="0.25"/>
<stop offset="0.54" stop-color="#808080" stop-opacity="0.12"/>
<stop offset="1" stop-color="#808080" stop-opacity="0.1"/>
</linearGradient>
<linearGradient id="paint2_linear" x1="71088.9" y1="163713" x2="101404" y2="163713" gradientUnits="userSpaceOnUse">
<stop stop-color="#808080" stop-opacity="0.25"/>
<stop offset="0.54" stop-color="#808080" stop-opacity="0.12"/>
<stop offset="1" stop-color="#808080" stop-opacity="0.1"/>
</linearGradient>
<linearGradient id="paint3_linear" x1="40392.4" y1="46471.2" x2="48310.9" y2="46471.2" gradientUnits="userSpaceOnUse">
<stop stop-color="#808080" stop-opacity="0.25"/>
<stop offset="0.54" stop-color="#808080" stop-opacity="0.12"/>
<stop offset="1" stop-color="#808080" stop-opacity="0.1"/>
</linearGradient>
<linearGradient id="paint4_linear" x1="51188.5" y1="209623" x2="74680.1" y2="209623" gradientUnits="userSpaceOnUse">
<stop stop-color="#808080" stop-opacity="0.25"/>
<stop offset="0.54" stop-color="#808080" stop-opacity="0.12"/>
<stop offset="1" stop-color="#808080" stop-opacity="0.1"/>
</linearGradient>
<linearGradient id="paint5_linear" x1="50819.6" y1="209623" x2="74309.7" y2="209623" gradientUnits="userSpaceOnUse">
<stop stop-color="#808080" stop-opacity="0.25"/>
<stop offset="0.54" stop-color="#808080" stop-opacity="0.12"/>
<stop offset="1" stop-color="#808080" stop-opacity="0.1"/>
</linearGradient>
<linearGradient id="paint6_linear" x1="46592.5" y1="167847" x2="66875.9" y2="167847" gradientUnits="userSpaceOnUse">
<stop stop-color="#808080" stop-opacity="0.25"/>
<stop offset="0.54" stop-color="#808080" stop-opacity="0.12"/>
<stop offset="1" stop-color="#808080" stop-opacity="0.1"/>
</linearGradient>
<linearGradient id="paint7_linear" x1="79293.1" y1="152346" x2="103020" y2="152346" gradientUnits="userSpaceOnUse">
<stop stop-color="#808080" stop-opacity="0.25"/>
<stop offset="0.54" stop-color="#808080" stop-opacity="0.12"/>
<stop offset="1" stop-color="#808080" stop-opacity="0.1"/>
</linearGradient>
<linearGradient id="paint8_linear" x1="79656.9" y1="152346" x2="103383" y2="152346" gradientUnits="userSpaceOnUse">
<stop stop-color="#808080" stop-opacity="0.25"/>
<stop offset="0.54" stop-color="#808080" stop-opacity="0.12"/>
<stop offset="1" stop-color="#808080" stop-opacity="0.1"/>
</linearGradient>
<linearGradient id="paint9_linear" x1="14135.4" y1="31322" x2="15843.6" y2="31322" gradientUnits="userSpaceOnUse">
<stop stop-color="#808080" stop-opacity="0.25"/>
<stop offset="0.54" stop-color="#808080" stop-opacity="0.12"/>
<stop offset="1" stop-color="#808080" stop-opacity="0.1"/>
</linearGradient>
<linearGradient id="paint10_linear" x1="11902.4" y1="19328.1" x2="12714.1" y2="19328.1" gradientUnits="userSpaceOnUse">
<stop stop-color="#808080" stop-opacity="0.25"/>
<stop offset="0.54" stop-color="#808080" stop-opacity="0.12"/>
<stop offset="1" stop-color="#808080" stop-opacity="0.1"/>
</linearGradient>
<linearGradient id="paint11_linear" x1="6354.47" y1="43358.8" x2="6468.53" y2="43358.8" gradientUnits="userSpaceOnUse">
<stop stop-color="#808080" stop-opacity="0.25"/>
<stop offset="0.54" stop-color="#808080" stop-opacity="0.12"/>
<stop offset="1" stop-color="#808080" stop-opacity="0.1"/>
</linearGradient>
<linearGradient id="paint12_linear" x1="7487.69" y1="45743.3" x2="7844.95" y2="45743.3" gradientUnits="userSpaceOnUse">
<stop stop-color="#808080" stop-opacity="0.25"/>
<stop offset="0.54" stop-color="#808080" stop-opacity="0.12"/>
<stop offset="1" stop-color="#808080" stop-opacity="0.1"/>
</linearGradient>
<linearGradient id="paint13_linear" x1="21679.1" y1="19233.7" x2="24595.1" y2="19233.7" gradientUnits="userSpaceOnUse">
<stop stop-color="#808080" stop-opacity="0.25"/>
<stop offset="0.54" stop-color="#808080" stop-opacity="0.12"/>
<stop offset="1" stop-color="#808080" stop-opacity="0.1"/>
</linearGradient>
<linearGradient id="paint14_linear" x1="32309.8" y1="17790.4" x2="37003.9" y2="17790.4" gradientUnits="userSpaceOnUse">
<stop stop-color="#808080" stop-opacity="0.25"/>
<stop offset="0.54" stop-color="#808080" stop-opacity="0.12"/>
<stop offset="1" stop-color="#808080" stop-opacity="0.1"/>
</linearGradient>
<linearGradient id="paint15_linear" x1="39210" y1="27996.5" x2="51130.3" y2="27996.5" gradientUnits="userSpaceOnUse">
<stop stop-color="#808080" stop-opacity="0.25"/>
<stop offset="0.54" stop-color="#808080" stop-opacity="0.12"/>
<stop offset="1" stop-color="#808080" stop-opacity="0.1"/>
</linearGradient>
<linearGradient id="paint16_linear" x1="57254.1" y1="36861.1" x2="74298.4" y2="36861.1" gradientUnits="userSpaceOnUse">
<stop stop-color="#808080" stop-opacity="0.25"/>
<stop offset="0.54" stop-color="#808080" stop-opacity="0.12"/>
<stop offset="1" stop-color="#808080" stop-opacity="0.1"/>
</linearGradient>
<linearGradient id="paint17_linear" x1="57080.1" y1="36713.6" x2="74119.3" y2="36713.6" gradientUnits="userSpaceOnUse">
<stop stop-color="#808080" stop-opacity="0.25"/>
<stop offset="0.54" stop-color="#808080" stop-opacity="0.12"/>
<stop offset="1" stop-color="#808080" stop-opacity="0.1"/>
</linearGradient>
<linearGradient id="paint18_linear" x1="36170" y1="32689.4" x2="41529.5" y2="32689.4" gradientUnits="userSpaceOnUse">
<stop stop-color="#808080" stop-opacity="0.25"/>
<stop offset="0.54" stop-color="#808080" stop-opacity="0.12"/>
<stop offset="1" stop-color="#808080" stop-opacity="0.1"/>
</linearGradient>
<linearGradient id="paint19_linear" x1="36170" y1="32791.9" x2="41529.5" y2="32791.9" gradientUnits="userSpaceOnUse">
<stop stop-color="#808080" stop-opacity="0.25"/>
<stop offset="0.54" stop-color="#808080" stop-opacity="0.12"/>
<stop offset="1" stop-color="#808080" stop-opacity="0.1"/>
</linearGradient>
<linearGradient id="paint20_linear" x1="226179" y1="276664" x2="226179" y2="110149" gradientUnits="userSpaceOnUse">
<stop stop-color="#808080" stop-opacity="0.25"/>
<stop offset="0.54" stop-color="#808080" stop-opacity="0.12"/>
<stop offset="1" stop-color="#808080" stop-opacity="0.1"/>
</linearGradient>
<linearGradient id="paint21_linear" x1="324521" y1="154218" x2="324521" y2="113091" gradientUnits="userSpaceOnUse">
<stop stop-color="#808080" stop-opacity="0.25"/>
<stop offset="0.54" stop-color="#808080" stop-opacity="0.12"/>
<stop offset="1" stop-color="#808080" stop-opacity="0.1"/>
</linearGradient>
<linearGradient id="paint22_linear" x1="151068" y1="102605" x2="151068" y2="70158.1" gradientUnits="userSpaceOnUse">
<stop stop-color="#808080" stop-opacity="0.25"/>
<stop offset="0.54" stop-color="#808080" stop-opacity="0.12"/>
<stop offset="1" stop-color="#808080" stop-opacity="0.1"/>
</linearGradient>
</defs>
</svg>
