<svg width="245" height="173" viewBox="0 0 245 173" fill="none" xmlns="http://www.w3.org/2000/svg">
<path opacity="0.1" d="M89.3821 170.647C108.339 170.647 123.707 168.053 123.707 164.853C123.707 161.653 108.339 159.058 89.3821 159.058C70.4248 159.058 55.0569 161.653 55.0569 164.853C55.0569 168.053 70.4248 170.647 89.3821 170.647Z" fill="black"/>
<path d="M92.0806 52.5425H86.3278V94.7299H92.0806V52.5425Z" fill="#3F3D56"/>
<path d="M159.964 52.5425H154.211V94.7299H159.964V52.5425Z" fill="#4E4B85"/>
<path d="M227.847 46.0227H18.4443V55.6108H227.847V46.0227Z" fill="#E6E6E6"/>
<path d="M227.847 76.3209H18.4443V85.909H227.847V76.3209Z" fill="#E6E6E6"/>
<path d="M227.847 58.6788H18.4443V64.4317H227.847V58.6788Z" fill="#E6E6E6"/>
<path d="M227.847 67.4999H18.4443V73.2527H227.847V67.4999Z" fill="#E6E6E6"/>
<path d="M24.389 44.2968H17.8691V94.9217H24.389V44.2968Z" fill="#4E4B85"/>
<path d="M227.847 44.105H221.328V94.7299H227.847V44.105Z" fill="#4E4B85"/>
<path d="M6.55522 108.153H0.0353394V160.696H6.55522V108.153Z" fill="#4E4B85"/>
<path d="M28.0324 106.236H21.5125V134.233H28.0324V106.236Z" fill="#4E4B85"/>
<path d="M226.313 106.236H219.793V134.233H226.313V106.236Z" fill="#4E4B85"/>
<path d="M244.722 108.153H238.203V160.696H244.722V108.153Z" fill="#4E4B85"/>
<path d="M244.722 108.153H0.0353394V115.057H244.722V108.153Z" fill="#4E4B85"/>
<path d="M17.6772 92.8124L0.0352173 108.153H244.722L227.847 92.8124H17.6772Z" fill="#E6E6E6"/>
<path d="M68.8048 31.1875C69.8905 30.4148 71.0888 29.8138 72.3575 29.4059C80.4012 26.4129 88.8294 24.5782 97.3894 23.9568C104.833 23.429 112.9 24.0559 118.713 28.7338C119.617 29.3973 120.357 30.2594 120.876 31.2538C121.607 32.8321 121.386 34.6666 121.149 36.39C121.096 37.0584 120.927 37.7126 120.651 38.3235C119.869 39.813 117.943 40.3348 116.27 40.1562C114.597 39.9776 113.027 39.2698 111.377 38.9416C110.356 38.7636 109.323 38.6584 108.287 38.6269L97.9373 38.0666C91.5018 37.7182 84.9815 37.3756 78.6688 38.6744C76.7255 39.0237 74.8477 39.6708 73.1018 40.5928C71.6599 41.4023 70.689 42.5639 69.3512 41.0687C67.0007 38.4418 65.6997 33.6138 68.8048 31.1875Z" fill="#2F2E41"/>
<path d="M84.8419 35.764C84.8419 35.764 98.7619 29.524 104.042 36.724C109.322 43.9241 101.162 41.044 101.162 41.044L92.0419 43.9241L81.9619 42.004L84.8419 35.764Z" fill="#F2F2F2"/>
<path d="M85.5619 31.2041C85.5619 31.2041 87.4819 40.3241 86.0419 42.7241C84.6019 45.1241 94.202 48.4841 94.202 48.4841L103.322 44.6441C103.322 44.6441 100.922 29.7641 103.322 26.884L85.5619 31.2041Z" fill="#FFB9B9"/>
<path opacity="0.1" d="M85.5619 31.2041C85.5619 31.2041 87.4819 40.3241 86.0419 42.7241C84.6019 45.1241 94.202 48.4841 94.202 48.4841L103.322 44.6441C103.322 44.6441 100.922 29.7641 103.322 26.884L85.5619 31.2041Z" fill="black"/>
<path d="M76.5674 140.866C77.9407 143.499 78.8308 146.352 79.7394 149.179C79.7528 149.273 79.7861 149.364 79.8369 149.444C79.8877 149.525 79.955 149.594 80.0343 149.646C80.1136 149.699 80.2032 149.735 80.2971 149.75C80.3911 149.766 80.4873 149.762 80.5795 149.738L89.1174 149.728C90.1711 149.727 91.5848 149.389 91.5738 148.335C91.5661 147.595 90.8094 147.133 90.2462 146.653C88.6833 145.319 88.2764 143.12 87.6291 141.17C86.3709 137.414 83.9463 134.157 80.7084 131.875C80.2706 131.532 79.767 131.283 79.2288 131.144C78.6876 131.065 78.1362 131.095 77.6067 131.232C76.108 131.534 70.5111 132.569 71.5684 134.749C72.0236 135.687 73.7107 136.664 74.4181 137.541C75.2424 138.576 75.9624 139.69 76.5674 140.866Z" fill="#7B7BDB"/>
<path d="M106.257 130.964C105.956 131.597 105.621 132.213 105.253 132.809C104.017 134.849 102.557 136.752 101.405 138.842C100.687 140.145 100.082 141.553 100.002 143.039C99.9229 144.525 100.446 146.107 101.632 147.006C102.871 147.947 104.57 147.99 106.111 147.771C107.651 147.552 109.183 147.111 110.734 147.227C110.211 144.267 112.707 141.662 113.332 138.721C113.507 137.895 113.533 137.039 113.768 136.228C114.021 135.486 114.345 134.771 114.735 134.091C115.978 131.67 116.856 129.079 117.342 126.401C117.401 126.076 109.753 126.023 109.035 126.178C106.796 126.662 107.124 129.108 106.257 130.964Z" fill="#7B7BDB"/>
<path d="M47.3078 84.4596C45.1244 87.8763 45.6275 92.4044 47.161 96.1581C48.6945 99.9118 51.1352 103.23 52.8056 106.925C53.8706 109.28 54.6174 111.778 55.8166 114.068C57.3016 116.904 59.4698 119.403 60.4662 122.445C61.1014 124.384 61.2472 126.51 62.2761 128.272C62.8981 129.213 63.6079 130.094 64.3961 130.902C66.6124 133.441 68.2764 136.413 69.2824 139.63C70.2228 136.828 73.0389 134.991 75.9313 134.385C78.8236 133.78 81.8206 134.191 84.7467 134.605C83.1144 132.076 81.4663 129.515 80.4934 126.667C79.5523 123.913 79.2747 120.982 78.6408 118.141C77.341 112.315 74.5641 106.942 71.8151 101.643L85.9448 100.523C88.2511 100.291 90.5698 100.205 92.8869 100.265C96.534 100.437 100.107 101.331 103.735 101.744C107.362 102.157 111.2 102.049 114.433 100.352C108.251 109.222 105.031 119.819 105.234 130.629C106.616 129.558 108.22 128.81 109.928 128.439C111.636 128.069 113.405 128.085 115.106 128.486C116.808 128.888 118.397 129.664 119.76 130.76C121.122 131.855 122.222 133.241 122.979 134.816C128.516 127.249 127.858 116.715 132.246 108.428C133.148 106.724 134.254 105.137 135.227 103.473C137.153 100.182 138.55 96.6135 139.939 93.0619C141.166 89.9226 142.402 86.4296 141.225 83.2712C140.737 82.0729 140.025 80.9783 139.128 80.0456C136.596 77.2545 133.072 75.1898 129.305 75.1038C123.522 74.9718 118.745 79.2585 113.672 82.0382C107.696 85.3123 100.725 86.6137 93.9288 86.1325C86.9605 85.6391 80.3055 83.3581 73.6666 81.3493C70.3454 80.2977 66.9697 79.4269 63.5544 78.7407C60.7074 78.2067 57.996 78.7983 55.1904 79.5263C52.1358 80.3189 49.0658 81.7084 47.3078 84.4596Z" fill="#2F2E41"/>
<path d="M107.642 22.084C107.639 25.9022 106.121 29.5631 103.421 32.263C100.721 34.9628 97.0601 36.481 93.2419 36.4841C92.3839 36.4856 91.5275 36.4085 90.6835 36.2537C87.9886 35.767 85.4883 34.522 83.476 32.6646C81.4636 30.8072 80.0227 28.4144 79.3221 25.7671C78.6216 23.1197 78.6905 20.3274 79.5208 17.7178C80.351 15.1082 81.9082 12.7894 84.0097 11.0335C86.1112 9.27762 88.6698 8.15739 91.3855 7.80422C94.1011 7.45105 96.8612 7.87958 99.3419 9.03957C101.823 10.1996 103.921 12.0429 105.391 14.3533C106.861 16.6638 107.642 19.3455 107.642 22.084V22.084Z" fill="#FFB9B9"/>
<path d="M84.8419 35.7641C84.8419 35.7641 87.4819 36.9641 88.4419 37.9241C89.4019 38.884 92.2819 44.1641 97.082 40.8041C101.882 37.444 102.362 35.524 103.802 35.524C105.242 35.524 107.162 38.4041 107.162 38.4041L120.362 78.0043C116.804 82.02 112.681 85.4964 108.122 88.3243C100.442 93.1243 91.3219 95.5243 87.0019 93.6043C82.6819 91.6843 74.5218 90.2443 73.0818 86.4043C71.6418 82.5643 69.2418 71.0442 69.2418 71.0442L75.9619 41.7641L84.8419 35.7641Z" fill="#F2F2F2"/>
<path d="M82.9886 75.8145C84.0351 73.5541 84.1873 70.9955 84.2758 68.5062C84.4168 66.0407 84.3515 63.5677 84.0804 61.1131C83.655 57.9023 82.6094 54.8089 81.9491 51.6381C81.3702 48.8571 81.0889 46.0223 81.1097 43.1818C81.1193 41.8856 81.2132 40.5211 81.9194 39.4343C82.4122 38.6761 83.1829 38.0888 83.4908 37.2386C84.0945 35.5715 82.6028 33.8259 80.9681 33.1394C79.0233 32.3227 76.8005 32.3775 74.7545 32.89C72.7084 33.4024 70.8 34.3451 68.9097 35.281C67.5442 35.9571 66.1497 36.654 65.0909 37.7497C63.6009 39.2915 62.9457 41.439 62.4167 43.5168C61.9933 45.1799 61.6169 46.9141 61.9391 48.5997C62.4622 51.3369 64.6937 53.3956 65.8832 55.9157C67.2645 58.8422 67.1715 62.2525 66.6221 65.4416C66.0726 68.6307 65.0973 71.7488 64.7966 74.9709C64.4958 78.193 64.9575 81.6565 66.9761 84.1857C67.7988 85.2164 70.0303 87.6591 71.5363 87.3827C72.7194 87.1656 74.4346 84.5612 75.3876 83.7357C78.1408 81.3508 81.4075 79.2295 82.9886 75.8145Z" fill="#2F2E41"/>
<path d="M108.137 34.1987C108.179 36.8758 106.999 39.4205 105.611 41.7101C104.224 43.9998 102.593 46.1654 101.571 48.6398C100.3 51.7373 100.04 55.1572 100.829 58.4109C101.123 59.5193 101.476 60.6107 101.888 61.6805L104.518 68.8944C104.872 70.0286 105.386 71.1067 106.043 72.0963C106.638 72.8542 107.336 73.5253 108.116 74.0901C110.114 75.7032 112.412 76.9025 114.878 77.618C117.353 78.2719 120.06 78.2309 122.398 77.189C122.652 67.4097 124.223 57.7091 127.069 48.3497C127.595 46.6219 128.17 44.803 127.764 43.0431C127.31 41.0718 125.726 39.5918 124.221 38.2402C119.618 34.1066 114.556 29.7647 108.395 29.2074C104.829 28.8849 108.107 32.2632 108.137 34.1987Z" fill="#2F2E41"/>
<path d="M76.6372 90.0059C77.0023 90.7205 77.2295 91.4988 77.5905 92.2155C78.1233 93.1766 78.7819 94.0623 79.5491 94.8491C82.7585 98.4078 86.6816 101.953 91.469 102.168C91.9446 102.212 92.4242 102.152 92.8739 101.991C93.7114 101.643 94.2062 100.745 94.3691 99.853C94.7086 97.9942 93.888 96.1393 93.0664 94.4377C91.2858 90.7496 89.2822 86.9679 85.9483 84.5893C82.6619 82.2446 78.2583 81.6752 74.4257 82.8558C72.689 83.3908 69.8094 84.325 72.1087 85.9094C73.853 87.1114 75.6259 88.0264 76.6372 90.0059Z" fill="#FFB9B9"/>
<path d="M97.332 43.0514C96.7456 41.7417 96.1325 40.394 95.0793 39.4194C94.084 38.5779 92.9056 37.9809 91.6384 37.6761C89.9964 37.207 88.2982 36.9636 86.5905 36.9526C84.5577 36.94 82.2006 37.4852 81.3373 39.3257C80.6518 40.7873 81.1832 42.518 81.8734 43.9773C82.1683 44.7332 82.6595 45.3968 83.2964 45.8996C84.1731 46.4919 85.3069 46.4731 86.3461 46.6715C87.9755 46.9826 89.4339 47.8559 90.8535 48.714L94.414 50.8662L100.53 54.563C100.369 54.4655 100.426 50.2716 100.238 49.5843C99.633 47.3701 98.2708 45.1482 97.332 43.0514Z" fill="#FFB9B9"/>
<path d="M79.517 148.092C78.0859 150.037 78.3729 152.817 77.1052 154.872C76.0065 156.653 73.9357 157.587 72.5613 159.165C72.1227 159.689 71.7318 160.252 71.3931 160.846C70.1181 162.981 69.0818 165.718 70.3375 167.865C71.3476 169.592 73.4707 170.267 75.4179 170.727C77.879 171.309 80.4361 171.774 82.9256 171.33C85.4151 170.885 87.8482 169.361 88.7358 166.993C88.9103 166.398 89.1177 165.812 89.3571 165.24C90.7064 162.584 94.9388 162.555 96.3197 159.915C97.2862 158.067 96.3978 155.834 95.5098 153.947L92.7976 148.185C91.8976 146.273 88.2489 147.373 86.3468 146.915C83.866 146.317 81.3016 145.659 79.517 148.092Z" fill="#2F2E41"/>
<path d="M100.495 143.142C99.3439 143.949 98.5999 145.215 98.0409 146.504C96.6987 149.601 96.2377 152.996 95.7901 156.341C95.6108 157.681 95.4324 159.053 95.7125 160.375C96.2909 163.107 98.7666 165.119 101.431 165.955C104.096 166.79 106.954 166.661 109.743 166.524C110.639 166.481 111.571 166.427 112.356 165.994C113.758 165.221 114.305 163.404 114.065 161.821C113.825 160.239 112.96 158.831 112.114 157.472C111.268 156.113 110.402 154.706 110.16 153.124C109.752 150.462 110.903 146.555 109.267 144.147C107.629 141.734 102.682 141.61 100.495 143.142Z" fill="#2F2E41"/>
<path d="M107.28 14.5795C107.024 13.7183 106.459 12.9817 105.694 12.5102C105.734 11.5877 105.621 10.6651 105.36 9.77945C104.488 7.20134 102.422 7.34911 100.473 6.20928C99.6269 5.71475 99.6791 5.27767 99.2389 4.46541C98.662 3.40062 97.798 2.51903 96.745 1.92088C95.4945 1.12411 94.1744 0.303561 92.695 0.202717C89.5861 -0.00918639 87.2024 2.91501 84.2309 3.85352C82.9212 4.26716 81.5138 4.28421 80.1971 4.67526C78.8805 5.06632 77.5668 6.00007 77.3706 7.35949C77.28 7.98709 77.4399 8.63092 77.348 9.25835C77.1653 10.5054 76.0712 11.3787 75.3389 12.4044C73.7192 14.6726 73.9045 17.8769 75.1997 20.3448C75.4726 20.8554 75.7849 21.3441 76.1336 21.8063C76.2417 22.9727 76.5766 24.1068 77.1197 25.1448C78.4149 27.6127 80.6436 29.4568 82.9718 30.9889C82.7811 30.1705 82.6655 29.3363 82.6265 28.4968C82.5936 28.2171 82.63 27.9335 82.7324 27.6711C82.9917 27.1291 83.6768 26.985 84.1992 26.6882C85.2811 26.0733 85.7054 24.7127 85.7367 23.4686C85.768 22.2246 85.5043 20.9785 85.6347 19.741C85.6398 19.4564 85.7044 19.176 85.8245 18.9179C85.9446 18.6598 86.1175 18.4298 86.3319 18.2426C86.7312 18.0148 87.1874 17.9061 87.6465 17.9292C89.8633 17.8388 92.1795 17.7981 94.1349 16.7497C94.8019 16.3921 95.422 15.9192 96.1544 15.7282C97.8161 15.2948 99.5145 16.4596 100.472 17.885C101.43 19.3105 101.907 21.0068 102.791 22.4794C103.675 23.9519 105.201 25.2651 106.909 25.0906C107.006 25.0909 107.101 25.0708 107.189 25.0317C107.277 24.9926 107.355 24.9354 107.42 24.8638C107.493 24.7314 107.526 24.5801 107.514 24.4291L107.609 17.8987C107.688 16.7816 107.577 15.6592 107.28 14.5795Z" fill="#2F2E41"/>
<path d="M61.7079 48.739C60.334 50.7659 58.7498 52.7148 57.9946 55.0441C57.5507 56.4132 57.4129 57.8606 57.0915 59.2635C56.0211 63.9363 52.9288 68.0868 52.618 72.8706C52.5091 73.9335 52.6652 75.0069 53.0723 75.9949C53.9594 77.9245 56.0824 78.9414 58.1075 79.5811C60.1326 80.2207 62.3074 80.6816 63.9238 82.0591C64.7376 82.8392 65.4755 83.6947 66.1277 84.6142C68.7649 87.8942 72.3127 90.3216 76.3253 91.5913C76.0084 89.4072 75.8596 86.7747 77.6055 85.4246C78.5506 84.6938 79.8135 84.5638 81.0037 84.4609L86.6278 83.9749C82.8775 80.3372 78.7437 77.117 74.2991 74.3706C72.7439 73.4099 71.0513 72.3965 70.3412 70.7121C69.8973 69.6591 69.9033 68.4796 69.8928 67.3369C69.8541 63.1542 69.5 58.9803 68.8333 54.8508C68.3703 51.9835 67.7573 49.1418 67.0561 46.3233C66.8593 45.532 65.6959 41.9828 64.2639 42.8133C63.9266 43.0089 63.611 45.2603 63.414 45.7275C62.9452 46.7847 62.3738 47.7934 61.7079 48.739Z" fill="#2F2E41"/>
<path d="M126.484 41.0792L128.781 45.8558C129.888 47.8198 130.391 50.0662 130.229 52.3147L130.366 66.6429C130.384 68.5576 130.398 70.5012 129.894 72.3485C129.751 72.9651 129.482 73.5452 129.102 74.0521C128.713 74.4891 128.254 74.8588 127.744 75.1464C123.397 77.8623 117.761 79.4059 113.168 77.13C112.116 76.5694 111.116 75.9166 110.18 75.1793C108.35 73.8239 106.492 72.442 105.123 70.622C103.69 68.7172 102.869 66.4367 101.905 64.2566C100.174 60.346 97.9386 56.6792 95.2548 53.3499C94.8648 52.8662 94.4455 52.3387 94.4314 51.7176C94.4029 50.4617 95.893 49.8434 97.0548 49.3656C99.0396 48.5493 100.911 46.974 101.244 44.8538C105.464 50.3887 110.122 56.2369 116.782 58.2595C116.887 58.3262 117.007 58.3634 117.131 58.3672C117.255 58.371 117.378 58.3412 117.486 58.281C117.594 58.2208 117.684 58.1324 117.747 58.0252C117.809 57.918 117.841 57.796 117.839 57.6721C118.217 56.0902 118.351 54.4613 118.628 52.8585C119.135 49.94 120.112 47.123 121.52 44.517C122.309 43.0558 124.863 37.7076 126.484 41.0792Z" fill="#2F2E41"/>
<path opacity="0.1" d="M69.4909 54.8922C69.5543 58.2829 68.834 61.6425 67.3861 64.7093C67.0094 65.387 66.7319 66.1153 66.5619 66.8719C66.31 68.4856 67.2284 70.0479 68.278 71.2993C70.3488 73.7602 73.0345 75.6287 76.0619 76.7145" fill="black"/>
<path opacity="0.1" d="M119.364 52.0344C119.026 52.9444 119.333 53.9509 119.594 54.8861C120.349 57.5988 120.702 60.4079 120.641 63.2232C120.652 63.2724 120.65 63.3236 120.637 63.3722C120.623 63.4207 120.597 63.465 120.562 63.5011C120.527 63.5372 120.483 63.564 120.435 63.579C120.387 63.5939 120.335 63.5967 120.286 63.5869C119.178 63.6548 117.91 63.662 117.158 62.8452" fill="black"/>
</svg>
