<svg width="312" height="203" viewBox="0 0 312 203" fill="none" xmlns="http://www.w3.org/2000/svg">
<path d="M309.358 87.642C309.301 87.974 309.245 88.306 309.182 88.638C307.166 99.939 304.353 100.352 299.457 110.355C299.296 110.687 299.133 111.019 298.966 111.351C295.825 117.658 291.967 123.586 287.468 129.017C285.03 131.947 282.371 134.73 279.209 136.739C274.778 139.553 269.597 140.697 264.505 141.634C259.214 142.608 253.855 143.411 248.507 144.3C246.612 144.609 244.728 144.932 242.856 145.269C237.69 146.2 232.563 147.275 227.557 148.701C221.368 150.479 215.363 152.769 209.712 156.014C209.26 156.27 208.813 156.534 208.371 156.805C207.928 157.071 207.479 157.344 207.048 157.623C206.616 157.901 206.182 158.177 205.754 158.458L205.094 158.903C204.876 159.045 204.662 159.199 204.448 159.341C203.812 159.774 203.184 160.23 202.557 160.669L202.533 160.686C202.119 160.983 201.709 161.279 201.299 161.575C198.982 163.285 196.715 165.075 194.458 166.87L193.033 168.005C192.298 168.586 191.562 169.166 190.827 169.745C190.395 170.085 189.958 170.423 189.524 170.761C189.209 171.007 188.896 171.253 188.575 171.496C186.966 172.731 185.336 173.94 183.674 175.096C183.278 175.372 182.877 175.647 182.484 175.917C179.156 178.185 175.616 180.128 171.914 181.719L171.867 181.739C170.043 182.514 168.166 183.158 166.251 183.668C165.154 183.965 164.056 184.199 162.944 184.382C159.981 184.893 156.956 184.945 153.977 184.536C148.121 183.71 142.634 180.981 136.792 180.068C124.741 178.204 113.038 184.216 101.698 188.937C98.9218 190.094 96.1152 191.181 93.2779 192.196C91.3982 192.872 89.5096 193.515 87.6121 194.125C76.0521 197.85 64.1403 200.389 52.0623 201.702C47.1311 202.238 41.9889 202.493 36.9685 202.108C35.0727 201.969 33.1861 201.725 31.3177 201.376C24.9619 200.191 19.0285 197.675 14.2491 193.079C10.2786 189.319 7.47696 184.403 5.34153 179.274C4.483 177.214 3.72657 175.106 3.07226 172.951C2.04381 169.573 1.27134 166.123 0.761357 162.63C0.645366 161.842 0.541271 161.051 0.463943 160.26C0.309288 158.903 0.194287 157.54 0.118942 156.171C-0.297473 148.895 0.415795 141.599 2.23355 134.54C4.25894 126.72 7.63757 119.232 9.12463 111.339C9.18709 111.007 9.2436 110.675 9.30011 110.343C9.49838 109.158 9.64907 107.951 9.75218 106.722C10.5017 97.068 7.12304 98.102 4.83295 88.638C4.75265 88.306 4.67235 87.974 4.59502 87.642C4.34718 86.594 4.11222 85.544 3.89015 84.493C1.76959 74.483 1.18963 63.7716 3.07226 53.783C3.13174 53.4511 3.20015 53.1163 3.26856 52.7874C4.53851 46.6004 6.78101 40.7157 10.2161 35.4739C13.7405 30.0929 18.3683 25.6157 23.3024 21.6807C25.7114 19.7645 28.2027 17.9718 30.7764 16.3026C32.6263 15.1055 34.5099 13.9726 36.4272 12.9039C51.9195 4.3109 69.5948 0.112196 87.0709 1.0515C87.9968 1.0989 88.9208 1.1621 89.8428 1.2411C90.8103 1.3241 91.7749 1.4229 92.7366 1.5374C103.988 2.8323 114.936 6.0414 125.818 9.5526C129.464 10.7379 133.102 11.9231 136.739 13.1084C138.357 13.6338 139.974 14.1524 141.59 14.664C149.516 17.156 157.573 19.405 165.704 21.0999C167.59 21.495 169.473 21.8555 171.355 22.1814C177.897 23.3489 184.517 24.0284 191.16 24.2141C193.737 24.2773 196.315 24.2507 198.893 24.1341C200.195 24.0749 201.499 23.9879 202.804 23.8734C216.279 22.7237 229.273 18.8687 242.321 15.2477C244.206 14.7233 246.095 14.2018 247.972 13.698C250.452 13.0343 252.936 12.3913 255.428 11.7987C270.947 8.08589 284.777 10.2193 299.204 17.876C302.476 19.6154 305.747 21.7133 307.77 24.9608C309.792 28.2084 310.283 32.2293 310.658 36.0992C311.187 41.6046 311.55 47.1871 311.666 52.7933C311.666 53.1252 311.666 53.4571 311.687 53.7889C311.948 65.1406 311.255 76.578 309.358 87.642Z" fill="#6285A3"/>
<path opacity="0.1" d="M61.2792 19.986H61.7312C61.5765 19.8968 61.4464 19.7709 61.3525 19.6194C61.2586 19.4679 61.2037 19.2956 61.1929 19.1178C61.1929 18.4304 62.0376 17.8704 63.0696 17.8704H76.2004C77.2324 17.8704 78.0771 18.4304 78.0771 19.1178C78.0771 19.8023 77.2324 20.3653 76.2004 20.3653H75.7632C75.9172 20.4551 76.0466 20.5812 76.1399 20.7327C76.2333 20.8841 76.2878 21.0561 76.2986 21.2335C76.2986 21.8261 75.6859 22.3121 74.865 22.4454H78.6452C79.6742 22.4454 80.5189 23.0054 80.5189 23.6929C80.5189 24.3803 79.6742 24.9374 78.6452 24.9374H65.4995C64.4704 24.9374 63.6258 24.3774 63.6258 23.6929C63.6258 23.1002 64.2384 22.6143 65.0593 22.481H61.2792C60.2501 22.481 59.4055 21.9209 59.4055 21.2335C59.4055 20.5461 60.2442 19.986 61.2792 19.986Z" fill="#6C63FF"/>
<path opacity="0.1" d="M203.598 31.8592H204.038C203.883 31.7695 203.753 31.643 203.659 31.491C203.565 31.339 203.51 31.1662 203.5 30.988C203.5 30.3036 204.344 29.7435 205.376 29.7435H218.507C219.539 29.7435 220.384 30.3036 220.384 30.988C220.384 31.6755 219.539 32.2355 218.507 32.2355H218.07C218.224 32.3257 218.354 32.4524 218.447 32.6044C218.54 32.7563 218.595 32.9288 218.605 33.1067C218.605 33.6993 217.993 34.1823 217.172 34.3156H220.952C221.981 34.3156 222.826 34.8786 222.826 35.5631C222.826 36.2476 221.981 36.8106 220.952 36.8106H207.824C206.795 36.8106 205.95 36.2505 205.95 35.5631C205.95 34.9705 206.563 34.4845 207.384 34.3541H203.598C202.569 34.3541 201.724 33.7911 201.724 33.1067C201.724 32.4222 202.575 31.8592 203.598 31.8592Z" fill="#6C63FF"/>
<path opacity="0.1" d="M41.1353 82.668H41.5755C41.4213 82.577 41.2918 82.451 41.1984 82.299C41.105 82.147 41.0507 81.974 41.0401 81.797C41.0401 81.112 41.8818 80.549 42.9138 80.549H56.0447C57.0767 80.549 57.9213 81.112 57.9213 81.797C57.9213 82.484 57.0767 83.044 56.0447 83.044H55.6075C55.7617 83.134 55.8912 83.261 55.9845 83.413C56.0779 83.565 56.1323 83.737 56.1428 83.915C56.1428 84.508 55.5301 84.991 54.7093 85.124H58.4894C59.5214 85.124 60.3631 85.684 60.3631 86.372C60.3631 87.059 59.5214 87.619 58.4894 87.619H45.3556C44.3266 87.619 43.4819 87.056 43.4819 86.372C43.4819 85.779 44.0975 85.293 44.9154 85.16H41.1353C40.1063 85.16 39.2616 84.6 39.2616 83.915C39.2616 83.231 40.1063 82.668 41.1353 82.668Z" fill="#6C63FF"/>
<path d="M192.998 168.017C192.262 168.598 191.527 169.178 190.791 169.756C190.36 170.097 189.923 170.435 189.488 170.773C189.173 171.019 188.861 171.265 188.54 171.508C186.931 172.743 185.301 173.952 183.638 175.108C183.243 175.383 182.841 175.659 182.449 175.929C179.121 178.197 175.581 180.139 171.878 181.73L171.831 181.751V168.017H192.998Z" fill="#65617D"/>
<path d="M207.104 111.736L205.915 113.123L201.108 118.699L194.83 119.078L184.78 119.695C184.78 119.695 171.23 103.427 173.776 99.886C174.701 98.609 174.853 96.923 174.668 95.332C174.644 95.113 174.612 94.894 174.573 94.677C174.268 92.994 173.736 91.359 172.991 89.818L173.324 89.667L173.538 89.569L185.387 84.182L188.32 82.849C188.466 83.654 188.736 84.432 189.123 85.154C189.179 85.266 189.242 85.379 189.307 85.486C193.349 92.153 206.31 87.936 206.31 87.936L207.104 111.736Z" fill="#EE8E9E"/>
<path d="M224.625 103.412C224.536 107.448 223.875 109.19 223.875 109.19L207.104 111.736L206.477 107.398L203.993 90.268L206.325 87.945C207.256 88.145 208.222 88.129 209.146 87.899C210.071 87.669 210.93 87.231 211.658 86.617C214.099 84.514 222.763 84.736 224.095 94.914C224.487 97.73 224.664 100.57 224.625 103.412Z" fill="#EE8E9E"/>
<path d="M220.654 150.683C220.654 150.683 224.429 146.146 224.542 143.16L220.764 136.851L217.433 133.295L211.211 145.26C211.211 145.26 215.322 152.342 220.654 150.683Z" fill="#DFE5EE"/>
<path opacity="0.1" d="M220.654 150.683C220.654 150.683 224.429 146.146 224.542 143.16L220.764 136.851L217.433 133.295L211.211 145.26C211.211 145.26 215.322 152.342 220.654 150.683Z" fill="black"/>
<path d="M189.488 170.773C189.173 171.019 188.861 171.265 188.54 171.508C186.931 172.743 185.301 173.952 183.638 175.108C183.243 175.383 182.841 175.659 182.449 175.929H166.207H93.2392H87.5735L59.5036 174.927L36.9298 174.738L31.279 174.441L3.08414 172.96C2.05123 169.579 1.27478 166.127 0.761342 162.63C0.645351 161.842 0.541256 161.051 0.463928 160.26L31.2671 161.961L36.918 162.278L87.5616 165.093L93.2273 165.407L166.195 169.466L171.81 169.78H171.858L189.488 170.773Z" fill="#D48A9B"/>
<path d="M227.539 148.701C221.35 150.478 215.346 152.769 209.695 156.014C209.246 156.271 208.802 156.535 208.353 156.805C207.904 157.074 207.461 157.344 207.03 157.623C206.599 157.901 206.164 158.177 205.736 158.458L205.076 158.903L204.43 159.341C203.794 159.777 203.166 160.23 202.539 160.669L202.515 160.686C202.102 160.983 201.691 161.279 201.281 161.575C198.964 163.285 196.698 165.075 194.44 166.87C193.964 167.25 193.488 167.628 193.01 168.005L190.809 169.745C190.378 170.085 189.94 170.423 189.506 170.761C189.191 171.007 188.879 171.253 188.557 171.496L171.902 170.705H171.855L166.24 170.444L93.2393 166.998L87.5735 166.728L36.9299 164.331L31.279 164.061L0.761373 162.63C0.645381 161.842 0.541286 161.051 0.463959 160.26C0.309304 158.903 0.194302 157.54 0.118958 156.171L31.276 145.207L36.9269 143.213L42.0603 141.405L51.4139 141.891L73.033 142.997L87.5824 143.758L93.2482 144.054L96.8677 144.244L97.7332 144.291L128.194 145.877L128.516 145.897L142.107 146.603H142.262H142.351L143.71 146.671L148.344 146.914L154.138 147.21L156.047 147.311L156.407 147.332L159.107 147.471L159.878 147.509L162.456 147.646L163.482 147.702H163.515H163.729L166.141 147.829L169.877 148.025H169.895L171.055 148.084H171.18L171.873 148.123L173.574 148.212L175.061 148.289H175.076L176.744 148.375H176.771L178.035 148.443L179.005 148.493L182.446 148.674L183.064 148.707H183.278L183.576 148.724L184.584 148.778L185.036 148.801L188.546 148.982H188.867L194.048 148.938H194.083L213.781 148.778H214.159H214.557H215.729L222.07 148.727H223.016L227.539 148.701Z" fill="#EFC6CD"/>
<path d="M94.5984 149.107L96.4305 158.817L146.241 158.07C146.241 158.07 149.989 159.148 149.906 156.162C149.906 156.162 157.487 149.024 195.886 157.323L181.143 145.788L140.843 147.945L94.1136 146.7L94.5984 149.107Z" fill="#6C63FF"/>
<path d="M95.5145 146.784L97.2633 157.323C97.2633 157.323 140.091 156.079 146.824 157.24L141.736 147.613C141.736 147.613 115.84 145.207 95.5145 146.784Z" fill="white"/>
<path opacity="0.1" d="M95.5145 146.784L97.2633 157.323C97.2633 157.323 140.091 156.079 146.824 157.24L141.736 147.613C141.736 147.613 115.84 145.207 95.5145 146.784Z" fill="black"/>
<path d="M96.1539 146.745L97.8789 156.547C97.8789 156.547 140.162 155.391 146.824 156.47L141.807 147.518C141.807 147.518 116.223 145.278 96.1539 146.745Z" fill="white"/>
<path opacity="0.1" d="M96.9302 147.047L98.6106 156.215C98.6106 156.215 139.966 155.133 146.494 156.144L141.587 147.767C141.587 147.767 116.562 145.663 96.9302 147.047Z" fill="black"/>
<path d="M97.2633 146.712L98.9526 155.898C98.9526 155.898 140.308 154.816 146.836 155.827L141.917 147.441C141.917 147.441 116.896 145.34 97.2633 146.712Z" fill="white"/>
<path d="M153.24 121.804C153.112 122.362 152.49 123.286 151.52 124.445C146.512 130.454 132.263 142.943 129.47 145.26C126.139 148.028 118.698 147.038 118.698 147.038L105.21 146.405C105.21 146.405 92.4682 145.26 94.5586 138.143C95.8527 129.433 106.147 135.536 106.147 135.536C106.147 135.536 110.43 136.353 111.813 136.199C113.811 135.98 118.032 133.657 118.032 133.657C118.032 133.657 120.92 131.553 123.584 129.784C126.249 128.015 136.245 116.284 138.024 112.189C139.151 109.591 142.782 105.341 145.29 102.586C146.729 101 147.797 99.919 147.797 99.919C147.797 99.919 154.016 118.373 153.24 121.804Z" fill="#EE8E9E"/>
<path opacity="0.1" d="M153.24 121.804C153.112 122.361 152.49 123.286 151.521 124.445C146.464 119.315 145.409 109.081 145.29 102.574C146.729 100.989 147.797 99.907 147.797 99.907C147.797 99.907 154.016 118.373 153.24 121.804Z" fill="black"/>
<path opacity="0.1" d="M205.912 113.123L201.108 118.699L194.83 119.078L184.78 119.695C184.78 119.695 171.23 103.427 173.776 99.886C174.701 98.609 174.853 96.923 174.668 95.332C174.644 95.113 174.612 94.894 174.573 94.677C174.268 92.994 173.736 91.359 172.991 89.818L173.324 89.667L173.538 89.569C174.067 91.037 174.432 92.558 174.627 94.105C174.659 94.316 174.689 94.535 174.719 94.76C174.823 95.56 174.918 96.449 175.016 97.427C175.79 106.382 181.443 109.751 183.995 110.823C184.816 111.168 185.618 111.555 186.398 111.982C188.853 113.331 191.684 113.841 194.458 113.434C200.757 112.61 205.894 108.05 205.894 108.05L205.92 112.539L205.912 113.123Z" fill="black"/>
<path d="M206.105 147.918C206.105 147.918 164.791 147.806 159.345 144.046C153.9 140.285 157.127 135.304 157.014 134.087C156.901 132.869 154.572 129.772 153.796 128.883C153.019 127.994 154.462 126.892 154.239 124.459C154.016 122.027 152.13 124.459 152.13 124.459C144.353 116.601 146.018 96.686 146.018 96.686C146.018 96.686 153.454 94.808 157.023 93.365C157.989 92.973 159.494 92.416 161.186 91.815L161.814 91.59C166.177 90.034 171.364 88.277 171.364 88.277C171.364 88.277 172.36 87.575 173.363 89.676C173.821 90.641 174.282 92.197 174.65 94.683C174.683 94.894 174.713 95.113 174.743 95.338C174.847 96.138 174.942 97.027 175.04 98.005C175.813 106.959 181.467 110.328 184.019 111.401C184.839 111.746 185.642 112.133 186.422 112.56C188.877 113.909 191.708 114.419 194.482 114.012C200.781 113.188 205.918 108.628 205.918 108.628L205.944 113.117L206.022 126.605L206.105 147.918Z" fill="#DFE5EE"/>
<path d="M204.326 130.436L203.66 134.641C203.66 134.641 187.222 138.733 180.783 139.951C174.344 141.168 160.458 139.619 159.459 142.274C158.459 144.929 163.679 148.582 163.679 148.582L180.334 148.36L211.765 150.796C211.765 150.796 223.759 140.282 219.872 132.978C215.985 125.674 204.326 130.436 204.326 130.436Z" fill="#EE8E9E"/>
<path opacity="0.1" d="M170.454 97.24C170.454 97.24 162.9 103.436 164.345 106.426C165.79 109.416 170.454 97.24 170.454 97.24Z" fill="black"/>
<path opacity="0.1" d="M161.124 108.414C161.124 108.414 153.46 121.582 153.906 122.578C154.352 123.573 156.46 127.114 156.347 124.459C156.234 121.804 161.124 108.414 161.124 108.414Z" fill="black"/>
<path opacity="0.1" d="M164.235 110.74C164.235 110.74 162.45 118.927 160.681 122.359C158.911 125.79 164.235 110.74 164.235 110.74Z" fill="black"/>
<path opacity="0.1" d="M192.096 94.571C189.307 95.827 186.255 96.396 183.196 96.232C180.136 96.067 177.158 95.173 174.51 93.625L174.482 93.603C170.321 91.162 167.227 87.248 165.819 82.64C170.346 84.048 176.072 85.951 176.072 85.951C176.072 85.951 177.29 85.992 176.824 88.272L192.897 91.872C192.471 92.716 192.199 93.63 192.096 94.571Z" fill="black"/>
<path d="M202.362 81.243C200.687 84.124 198.283 86.513 195.39 88.173C194.01 88.964 192.536 89.581 191.002 90.011C186.715 91.222 182.134 90.898 178.051 89.095L178.018 89.075C177.365 88.788 176.729 88.464 176.113 88.104C172.035 85.725 168.973 81.933 167.511 77.453C166.049 72.9722 166.289 68.1166 168.185 63.8122C168.475 63.1512 168.803 62.5077 169.168 61.885C171.727 57.5004 175.929 54.3156 180.851 53.0313C185.772 51.747 191.009 52.4683 195.41 55.0367C199.811 57.605 203.015 61.81 204.318 66.7265C205.621 71.643 204.915 76.868 202.356 81.253L202.362 81.243Z" fill="#EE8E9E"/>
<path opacity="0.1" d="M204.106 111.884L205.891 109.217C205.891 109.217 215.664 97.599 225.223 105.013L224.89 115.194C224.89 115.194 224.443 118.29 223.777 119.935C223.586 120.423 223.516 120.95 223.574 121.47C223.632 121.991 223.816 122.49 224.11 122.925C224.11 122.925 224.666 125.591 223.89 125.591C223.114 125.591 221.779 129.574 221.779 129.574C221.779 129.574 219.89 133.669 221.002 135.55C222.115 137.432 224.556 143.737 224.556 143.737C224.556 143.737 220.669 141.414 219.557 137.542C219.557 137.542 210.117 130.237 202.786 134.875L204.106 111.884Z" fill="black"/>
<path opacity="0.1" d="M224.625 103.412C224.536 107.448 223.875 109.191 223.875 109.191L207.104 111.736L206.477 107.398C208.672 105.116 216.654 97.862 224.625 103.412Z" fill="black"/>
<path d="M204.106 111.291L205.891 108.625C205.891 108.625 215.664 97.006 225.223 104.42L224.89 114.601C224.89 114.601 224.443 117.698 223.777 119.342C223.586 119.83 223.516 120.357 223.574 120.878C223.632 121.399 223.816 121.898 224.11 122.332C224.11 122.332 224.666 124.999 223.89 124.999C223.114 124.999 221.779 128.981 221.779 128.981C221.779 128.981 219.89 133.076 221.002 134.958C222.115 136.839 224.556 143.145 224.556 143.145C224.556 143.145 220.669 140.822 219.557 136.949C219.557 136.949 210.117 129.645 202.786 134.282L204.106 111.291Z" fill="#DFE5EE"/>
<path opacity="0.1" d="M219.875 103.768C219.875 103.768 203.773 113.617 204.549 122.255C204.549 122.255 213.546 106.423 219.875 103.768Z" fill="black"/>
<path d="M180.237 71.4771C182.251 71.6024 184.309 70.601 186.247 71.2104C187.258 71.5258 188.084 72.2451 188.88 72.9463L188.971 73.027C191.475 75.236 193.083 78.282 193.491 81.589C193.899 84.895 193.078 88.232 191.184 90.968L190.394 92.109C189.925 92.782 189.435 93.57 189.637 94.367C189.814 95.085 190.487 95.549 191.039 96.043C193.819 98.571 193.806 103.061 192.321 106.503C190.835 109.946 188.197 112.732 186.163 115.875C184.129 119.018 182.644 122.93 183.857 126.482C185.768 132.057 192.73 133.582 198.007 136.253C195.752 134.937 195.414 131.631 196.6 129.318C197.785 127.004 200.032 125.454 202.17 123.992C204.308 122.529 206.538 120.914 207.63 118.553C209.13 115.311 208.135 111.434 208.93 107.935C209.853 103.863 213.054 100.78 215.631 97.491C220.46 91.335 223.423 82.96 220.746 75.597C219.624 72.5161 217.61 69.8484 216.1 66.9362C213.392 61.7226 212.328 55.7739 209.531 50.6075C206.733 45.4411 201.216 40.9107 195.461 42.0807C193.233 42.5339 191.229 43.7968 188.988 44.18C184.605 44.9332 179.903 42.2509 175.777 43.9049C172.226 45.3284 170.614 49.3523 169.375 52.969C167.721 57.7915 165.272 60.8669 169.455 64.3375C172.301 66.6603 176.355 71.2188 180.237 71.4771Z" fill="#603556"/>
<path opacity="0.1" d="M195.918 132.268C191.942 130.555 188.127 128.641 186.787 124.73C185.575 121.178 187.05 117.264 189.093 114.123C191.136 110.982 193.771 108.19 195.252 104.749C196.734 101.308 196.75 96.819 193.969 94.291C193.42 93.792 192.747 93.334 192.567 92.615C192.37 91.814 192.857 91.028 193.325 90.354L194.115 89.213C196.009 86.478 196.83 83.141 196.422 79.835C196.014 76.529 194.405 73.483 191.901 71.2749L191.811 71.1945C191.015 70.4932 190.188 69.774 189.177 69.4585C187.248 68.8577 185.182 69.8719 183.167 69.7252C179.286 69.4669 175.234 64.9099 172.382 62.5562C168.199 59.1029 170.646 56.0194 172.301 51.1877C173.226 48.4885 174.359 45.5612 176.352 43.657C176.152 43.7156 175.961 43.772 175.757 43.8622C172.206 45.2857 170.594 49.3097 169.355 52.9263C167.701 57.7489 165.252 60.8243 169.435 64.2948C172.286 66.6445 176.339 71.2056 180.221 71.4639C182.234 71.5892 184.293 70.5878 186.23 71.1972C187.241 71.5127 188.068 72.2319 188.864 72.9332L188.955 73.014C191.459 75.223 193.067 78.269 193.475 81.575C193.882 84.882 193.062 88.219 191.167 90.954L190.377 92.096C189.909 92.769 189.418 93.556 189.621 94.354C189.798 95.071 190.47 95.536 191.022 96.03C193.803 98.558 193.79 103.048 192.304 106.49C190.819 109.932 188.183 112.72 186.146 115.862C184.11 119.003 182.628 122.917 183.841 126.469C185.752 132.044 192.714 133.568 197.991 136.24C196.602 135.439 195.949 133.885 195.918 132.268Z" fill="black"/>
<path d="M99.8737 147.588L99.3817 128.033C99.3699 127.571 99.5417 127.122 99.8592 126.786C100.177 126.45 100.614 126.253 101.075 126.24C101.536 126.227 101.983 126.398 102.317 126.716C102.652 127.034 102.846 127.472 102.859 127.934L103.351 147.489L101.704 151.081L99.8737 147.588Z" fill="#5C5C8E"/>
<path opacity="0.1" d="M100.368 126.582C100.83 126.57 101.277 126.742 101.611 127.06C101.945 127.378 102.14 127.817 102.151 128.279L102.662 147.853L101.423 150.548L101.711 151.096L103.358 147.504L102.866 127.949C102.854 127.487 102.659 127.049 102.324 126.731C101.99 126.414 101.543 126.242 101.082 126.255C100.698 126.266 100.328 126.404 100.029 126.648C100.14 126.617 100.254 126.595 100.368 126.582Z" fill="white"/>
<path d="M99.8747 147.585L103.351 147.489L101.998 150.434L101.702 151.077L101.051 149.835L99.8747 147.585Z" fill="#EFC8C4"/>
<path d="M89.3699 134.7C89.4452 134.756 89.5097 134.825 89.5602 134.904C89.5904 134.952 89.6064 135.007 89.6064 135.063C89.6064 135.119 89.5904 135.174 89.5602 135.221C89.5095 135.274 89.4502 135.317 89.3848 135.349C89.3111 135.398 89.2494 135.463 89.2041 135.539C89.1588 135.614 89.1311 135.699 89.123 135.787L88.4152 135.719L89.3699 134.7Z" fill="#727A9C"/>
<path d="M148.686 153.664C148.686 153.664 164.568 150.342 191.216 154.553L180.777 146.92L161.784 143.047L148.347 146.603L148.686 153.664Z" fill="white"/>
<path opacity="0.1" d="M148.686 153.664C148.686 153.664 164.568 150.342 191.216 154.553L180.777 146.92L161.784 143.047L148.347 146.603L148.686 153.664Z" fill="black"/>
<path d="M146.824 157.255C146.824 157.255 154.822 135.701 195.898 157.323L181.155 147.871C181.155 147.871 145.837 138.149 141.756 149.353L146.824 157.255Z" fill="white"/>
<path opacity="0.1" d="M146.824 157.24C146.824 157.24 154.822 134.196 195.898 157.655L181.155 147.403C181.155 147.403 145.825 135.776 141.736 147.945L146.824 157.24Z" fill="black"/>
<path d="M146.824 157.249C146.824 157.249 154.822 133.864 195.898 157.323L181.155 147.071C181.155 147.071 145.837 135.775 141.756 147.96L146.824 157.249Z" fill="white"/>
<path opacity="0.1" d="M146.824 157.255C146.824 157.255 154.822 131.266 195.898 157.655L181.143 146.12C181.143 146.12 145.825 134.267 141.745 147.945L146.824 157.255Z" fill="black"/>
<path d="M146.824 157.24C146.824 157.24 154.822 130.934 195.898 157.323L181.143 145.788C181.143 145.788 145.825 133.935 141.745 147.613L146.824 157.24Z" fill="white"/>
<path d="M111.024 62.7691C127.484 62.7691 140.827 49.4257 140.827 32.9657C140.827 16.5057 127.484 3.16229 111.024 3.16229C94.564 3.16229 81.2206 16.5057 81.2206 32.9657C81.2206 49.4257 94.564 62.7691 111.024 62.7691Z" fill="white"/>
<path d="M157.218 61.7946L132.431 31.8894L122.513 55.8365L157.218 61.7946Z" fill="white"/>
<path d="M109.594 36.24C109.594 35.616 109.706 35.088 109.93 34.656C110.17 34.208 110.522 33.704 110.986 33.144C111.482 32.552 111.85 32.024 112.09 31.56C112.346 31.08 112.474 30.488 112.474 29.784C112.474 29.352 112.354 28.92 112.114 28.488C111.874 28.04 111.434 27.816 110.794 27.816C110.09 27.816 109.602 28.08 109.33 28.608C109.074 29.12 108.946 29.696 108.946 30.336C108.946 30.512 108.946 30.656 108.946 30.768C108.962 30.88 108.97 30.952 108.97 30.984H105.946C105.93 30.92 105.914 30.808 105.898 30.648C105.882 30.488 105.874 30.32 105.874 30.144C105.874 29.232 106.066 28.408 106.45 27.672C106.834 26.92 107.41 26.328 108.178 25.896C108.946 25.464 109.882 25.248 110.986 25.248C112.394 25.248 113.514 25.64 114.346 26.424C115.194 27.208 115.618 28.24 115.618 29.52C115.618 30.56 115.466 31.384 115.162 31.992C114.874 32.6 114.45 33.224 113.89 33.864C113.458 34.36 113.138 34.8 112.93 35.184C112.722 35.568 112.618 36.04 112.618 36.6V37.272H109.594V36.24ZM109.474 38.712H112.786V42H109.474V38.712Z" fill="black"/>
<path d="M99.0275 143.073C99.0275 143.073 106.948 141.967 101.166 137.686C95.3828 133.405 99.0275 143.073 99.0275 143.073Z" fill="#EE8E9E"/>
</svg>
