<svg width="315" height="234" viewBox="0 0 315 234" fill="none" xmlns="http://www.w3.org/2000/svg">
<g clip-path="url(#clip0)">
<path d="M309.358 114.642C309.301 114.974 309.245 115.306 309.182 115.638C307.166 126.939 304.353 127.352 299.457 137.355C299.296 137.687 299.133 138.019 298.966 138.351C295.825 144.658 291.967 150.586 287.468 156.017C285.03 158.947 282.371 161.73 279.209 163.739C274.778 166.553 269.597 167.697 264.505 168.634C259.214 169.608 253.855 170.411 248.507 171.3C246.612 171.609 244.728 171.932 242.856 172.269C237.69 173.2 232.563 174.275 227.557 175.701C221.368 177.479 215.363 179.769 209.712 183.014C209.26 183.27 208.813 183.534 208.371 183.805C207.928 184.071 207.479 184.344 207.048 184.623C206.616 184.901 206.182 185.177 205.754 185.458L205.094 185.903C204.876 186.045 204.662 186.199 204.448 186.341C203.812 186.774 203.184 187.23 202.557 187.669L202.533 187.686C202.119 187.983 201.709 188.279 201.299 188.575C198.982 190.285 196.715 192.075 194.458 193.87L193.033 195.005C192.298 195.586 191.562 196.166 190.827 196.745C190.395 197.085 189.958 197.423 189.524 197.761C189.209 198.007 188.896 198.253 188.575 198.496C186.966 199.731 185.336 200.94 183.674 202.096C183.278 202.372 182.877 202.647 182.484 202.917C179.156 205.185 175.616 207.128 171.914 208.719L171.867 208.739C170.043 209.514 168.166 210.158 166.251 210.668C165.154 210.965 164.056 211.199 162.944 211.382C159.981 211.893 156.956 211.945 153.977 211.536C148.121 210.71 142.634 207.981 136.792 207.068C124.741 205.204 113.038 211.216 101.698 215.937C98.9218 217.094 96.1152 218.181 93.2779 219.196C91.3982 219.872 89.5096 220.515 87.6121 221.125C76.0521 224.85 64.1403 227.389 52.0623 228.702C47.1311 229.238 41.9889 229.493 36.9685 229.108C35.0727 228.969 33.1861 228.725 31.3177 228.376C24.9619 227.191 19.0285 224.675 14.2491 220.079C10.2786 216.319 7.47696 211.403 5.34153 206.274C4.483 204.214 3.72657 202.106 3.07226 199.951C2.04381 196.573 1.27134 193.123 0.761357 189.63C0.645366 188.842 0.541271 188.051 0.463943 187.26C0.309288 185.903 0.194287 184.54 0.118942 183.171C-0.297473 175.895 0.415795 168.599 2.23355 161.54C4.25894 153.72 7.63757 146.232 9.12463 138.339C9.18709 138.007 9.2436 137.675 9.30011 137.343C9.49838 136.158 9.64907 134.951 9.75218 133.722C10.5017 124.068 7.12304 125.102 4.83295 115.638C4.75265 115.306 4.67235 114.974 4.59502 114.642C4.34718 113.594 4.11222 112.544 3.89015 111.493C1.76959 101.483 1.18963 90.7716 3.07226 80.783C3.13174 80.4511 3.20015 80.1163 3.26856 79.7874C4.53851 73.6004 6.78101 67.7157 10.2161 62.4739C13.7405 57.0929 18.3683 52.6157 23.3024 48.6807C25.7114 46.7645 28.2027 44.9718 30.7764 43.3026C32.6263 42.1055 34.5099 40.9726 36.4272 39.9039C51.9195 31.3109 69.5948 27.1122 87.0709 28.0515C87.9968 28.0989 88.9208 28.1621 89.8428 28.2411C90.8103 28.3241 91.7749 28.4229 92.7366 28.5374C103.988 29.8323 114.936 33.0414 125.818 36.5526C129.464 37.7379 133.102 38.9231 136.739 40.1084C138.357 40.6338 139.974 41.1524 141.59 41.664C149.516 44.156 157.573 46.405 165.704 48.0999C167.59 48.495 169.473 48.8555 171.355 49.1814C177.897 50.3489 184.517 51.0284 191.16 51.2141C193.737 51.2773 196.315 51.2507 198.893 51.1341C200.195 51.0749 201.499 50.9879 202.804 50.8734C216.279 49.7237 229.273 45.8687 242.321 42.2477C244.206 41.7233 246.095 41.2018 247.972 40.698C250.452 40.0343 252.936 39.3913 255.428 38.7987C270.947 35.0859 284.777 37.2193 299.204 44.876C302.476 46.6154 305.747 48.7133 307.77 51.9608C309.792 55.2084 310.283 59.2293 310.658 63.0992C311.187 68.6046 311.55 74.1871 311.666 79.7933C311.666 80.1252 311.666 80.4571 311.687 80.7889C311.948 92.1406 311.255 103.578 309.358 114.642Z" fill="#6285A3"/>
<path opacity="0.1" d="M61.2792 46.986H61.7312C61.5765 46.8968 61.4464 46.7709 61.3525 46.6194C61.2586 46.4679 61.2037 46.2956 61.1929 46.1178C61.1929 45.4304 62.0376 44.8704 63.0696 44.8704H76.2004C77.2324 44.8704 78.0771 45.4304 78.0771 46.1178C78.0771 46.8023 77.2324 47.3653 76.2004 47.3653H75.7632C75.9172 47.4551 76.0466 47.5812 76.1399 47.7327C76.2333 47.8841 76.2878 48.0561 76.2986 48.2335C76.2986 48.8261 75.6859 49.3121 74.865 49.4454H78.6452C79.6742 49.4454 80.5189 50.0054 80.5189 50.6929C80.5189 51.3803 79.6742 51.9374 78.6452 51.9374H65.4995C64.4704 51.9374 63.6258 51.3774 63.6258 50.6929C63.6258 50.1002 64.2384 49.6143 65.0593 49.481H61.2792C60.2501 49.481 59.4055 48.9209 59.4055 48.2335C59.4055 47.5461 60.2442 46.986 61.2792 46.986Z" fill="#6C63FF"/>
<path opacity="0.1" d="M203.598 58.8592H204.038C203.883 58.7695 203.753 58.643 203.659 58.491C203.565 58.339 203.51 58.1662 203.5 57.988C203.5 57.3036 204.344 56.7435 205.376 56.7435H218.507C219.539 56.7435 220.384 57.3036 220.384 57.988C220.384 58.6755 219.539 59.2355 218.507 59.2355H218.07C218.224 59.3257 218.354 59.4524 218.447 59.6044C218.54 59.7563 218.595 59.9288 218.605 60.1067C218.605 60.6993 217.993 61.1823 217.172 61.3156H220.952C221.981 61.3156 222.826 61.8786 222.826 62.5631C222.826 63.2476 221.981 63.8106 220.952 63.8106H207.824C206.795 63.8106 205.95 63.2505 205.95 62.5631C205.95 61.9705 206.563 61.4845 207.384 61.3541H203.598C202.569 61.3541 201.724 60.7911 201.724 60.1067C201.724 59.4222 202.575 58.8592 203.598 58.8592Z" fill="#6C63FF"/>
<path opacity="0.1" d="M41.1353 109.668H41.5755C41.4213 109.577 41.2918 109.451 41.1984 109.299C41.105 109.147 41.0507 108.974 41.0401 108.797C41.0401 108.112 41.8818 107.549 42.9138 107.549H56.0447C57.0767 107.549 57.9213 108.112 57.9213 108.797C57.9213 109.484 57.0767 110.044 56.0447 110.044H55.6075C55.7617 110.134 55.8912 110.261 55.9845 110.413C56.0779 110.565 56.1323 110.737 56.1428 110.915C56.1428 111.508 55.5301 111.991 54.7093 112.124H58.4894C59.5214 112.124 60.3631 112.684 60.3631 113.372C60.3631 114.059 59.5214 114.619 58.4894 114.619H45.3556C44.3266 114.619 43.4819 114.056 43.4819 113.372C43.4819 112.779 44.0975 112.293 44.9154 112.16H41.1353C40.1063 112.16 39.2616 111.6 39.2616 110.915C39.2616 110.231 40.1063 109.668 41.1353 109.668Z" fill="#6C63FF"/>
<path d="M192.998 195.017C192.262 195.598 191.527 196.178 190.791 196.756C190.36 197.097 189.923 197.435 189.488 197.773C189.173 198.019 188.861 198.265 188.54 198.508C186.931 199.743 185.301 200.952 183.638 202.108C183.243 202.383 182.841 202.659 182.449 202.929C179.121 205.197 175.581 207.139 171.878 208.73L171.831 208.751V195.017H192.998Z" fill="#65617D"/>
<path d="M207.104 138.736L205.915 140.123L201.108 145.699L194.83 146.078L184.78 146.695C184.78 146.695 171.23 130.427 173.776 126.886C174.701 125.609 174.853 123.923 174.668 122.332C174.644 122.113 174.612 121.894 174.573 121.677C174.268 119.994 173.736 118.359 172.991 116.818L173.324 116.667L173.538 116.569L185.387 111.182L188.32 109.849C188.466 110.654 188.736 111.432 189.123 112.154C189.179 112.266 189.242 112.379 189.307 112.486C193.349 119.153 206.31 114.936 206.31 114.936L207.104 138.736Z" fill="#EE8E9E"/>
<path d="M224.625 130.412C224.536 134.448 223.875 136.19 223.875 136.19L207.104 138.736L206.477 134.398L203.993 117.268L206.325 114.945C207.256 115.145 208.222 115.129 209.146 114.899C210.071 114.669 210.93 114.231 211.658 113.617C214.099 111.514 222.763 111.736 224.095 121.914C224.487 124.73 224.664 127.57 224.625 130.412Z" fill="#EE8E9E"/>
<path d="M220.654 177.683C220.654 177.683 224.429 173.146 224.542 170.16L220.764 163.851L217.433 160.295L211.211 172.26C211.211 172.26 215.322 179.342 220.654 177.683Z" fill="#DFE5EE"/>
<path opacity="0.1" d="M220.654 177.683C220.654 177.683 224.429 173.146 224.542 170.16L220.764 163.851L217.433 160.295L211.211 172.26C211.211 172.26 215.322 179.342 220.654 177.683Z" fill="black"/>
<path d="M189.488 197.773C189.173 198.019 188.861 198.265 188.54 198.508C186.931 199.743 185.301 200.952 183.638 202.108C183.243 202.383 182.841 202.659 182.449 202.929H166.207H93.2392H87.5735L59.5036 201.927L36.9298 201.738L31.279 201.441L3.08414 199.96C2.05123 196.579 1.27478 193.127 0.761342 189.63C0.645351 188.842 0.541256 188.051 0.463928 187.26L31.2671 188.961L36.918 189.278L87.5616 192.093L93.2273 192.407L166.195 196.466L171.81 196.78H171.858L189.488 197.773Z" fill="#D48A9B"/>
<path d="M227.539 175.701C221.35 177.478 215.346 179.769 209.695 183.014C209.246 183.271 208.802 183.535 208.353 183.805C207.904 184.074 207.461 184.344 207.03 184.623C206.599 184.901 206.164 185.177 205.736 185.458L205.076 185.903L204.43 186.341C203.794 186.777 203.166 187.23 202.539 187.669L202.515 187.686C202.102 187.983 201.691 188.279 201.281 188.575C198.964 190.285 196.698 192.075 194.44 193.87C193.964 194.25 193.488 194.628 193.01 195.005L190.809 196.745C190.378 197.085 189.94 197.423 189.506 197.761C189.191 198.007 188.879 198.253 188.557 198.496L171.902 197.705H171.855L166.24 197.444L93.2393 193.998L87.5735 193.728L36.9299 191.331L31.279 191.061L0.761373 189.63C0.645381 188.842 0.541286 188.051 0.463959 187.26C0.309304 185.903 0.194302 184.54 0.118958 183.171L31.276 172.207L36.9269 170.213L42.0603 168.405L51.4139 168.891L73.033 169.997L87.5824 170.758L93.2482 171.054L96.8677 171.244L97.7332 171.291L128.194 172.877L128.516 172.897L142.107 173.603H142.262H142.351L143.71 173.671L148.344 173.914L154.138 174.21L156.047 174.311L156.407 174.332L159.107 174.471L159.878 174.509L162.456 174.646L163.482 174.702H163.515H163.729L166.141 174.829L169.877 175.025H169.895L171.055 175.084H171.18L171.873 175.123L173.574 175.212L175.061 175.289H175.076L176.744 175.375H176.771L178.035 175.443L179.005 175.493L182.446 175.674L183.064 175.707H183.278L183.576 175.724L184.584 175.778L185.036 175.801L188.546 175.982H188.867L194.048 175.938H194.083L213.781 175.778H214.159H214.557H215.729L222.07 175.727H223.016L227.539 175.701Z" fill="#EFC6CD"/>
<path d="M94.5984 176.107L96.4305 185.817L146.241 185.07C146.241 185.07 149.989 186.148 149.906 183.162C149.906 183.162 157.487 176.024 195.886 184.323L181.143 172.788L140.843 174.945L94.1136 173.7L94.5984 176.107Z" fill="#6C63FF"/>
<path d="M95.5145 173.784L97.2633 184.323C97.2633 184.323 140.091 183.079 146.824 184.24L141.736 174.613C141.736 174.613 115.84 172.207 95.5145 173.784Z" fill="white"/>
<path opacity="0.1" d="M95.5145 173.784L97.2633 184.323C97.2633 184.323 140.091 183.079 146.824 184.24L141.736 174.613C141.736 174.613 115.84 172.207 95.5145 173.784Z" fill="black"/>
<path d="M96.1539 173.745L97.8789 183.547C97.8789 183.547 140.162 182.391 146.824 183.47L141.807 174.518C141.807 174.518 116.223 172.278 96.1539 173.745Z" fill="white"/>
<path opacity="0.1" d="M96.9302 174.047L98.6106 183.215C98.6106 183.215 139.966 182.133 146.494 183.144L141.587 174.767C141.587 174.767 116.562 172.663 96.9302 174.047Z" fill="black"/>
<path d="M97.2633 173.712L98.9526 182.898C98.9526 182.898 140.308 181.816 146.836 182.827L141.917 174.441C141.917 174.441 116.896 172.34 97.2633 173.712Z" fill="white"/>
<path d="M153.24 148.804C153.112 149.362 152.49 150.286 151.52 151.445C146.512 157.454 132.263 169.943 129.47 172.26C126.139 175.028 118.698 174.038 118.698 174.038L105.21 173.405C105.21 173.405 92.4682 172.26 94.5586 165.143C95.8527 156.433 106.147 162.536 106.147 162.536C106.147 162.536 110.43 163.353 111.813 163.199C113.811 162.98 118.032 160.657 118.032 160.657C118.032 160.657 120.92 158.553 123.584 156.784C126.249 155.015 136.245 143.284 138.024 139.189C139.151 136.591 142.782 132.341 145.29 129.586C146.729 128 147.797 126.919 147.797 126.919C147.797 126.919 154.016 145.373 153.24 148.804Z" fill="#EE8E9E"/>
<path opacity="0.1" d="M153.24 148.804C153.112 149.361 152.49 150.286 151.521 151.445C146.464 146.315 145.409 136.081 145.29 129.574C146.729 127.989 147.797 126.907 147.797 126.907C147.797 126.907 154.016 145.373 153.24 148.804Z" fill="black"/>
<path opacity="0.1" d="M205.912 140.123L201.108 145.699L194.83 146.078L184.78 146.695C184.78 146.695 171.23 130.427 173.776 126.886C174.701 125.609 174.853 123.923 174.668 122.332C174.644 122.113 174.612 121.894 174.573 121.677C174.268 119.994 173.736 118.359 172.991 116.818L173.324 116.667L173.538 116.569C174.067 118.037 174.432 119.558 174.627 121.105C174.659 121.316 174.689 121.535 174.719 121.76C174.823 122.56 174.918 123.449 175.016 124.427C175.79 133.382 181.443 136.751 183.995 137.823C184.816 138.168 185.618 138.555 186.398 138.982C188.853 140.331 191.684 140.841 194.458 140.434C200.757 139.61 205.894 135.05 205.894 135.05L205.92 139.539L205.912 140.123Z" fill="black"/>
<path d="M206.105 174.918C206.105 174.918 164.791 174.806 159.345 171.046C153.9 167.285 157.127 162.304 157.014 161.087C156.901 159.869 154.572 156.772 153.796 155.883C153.019 154.994 154.462 153.892 154.239 151.459C154.016 149.027 152.13 151.459 152.13 151.459C144.353 143.601 146.018 123.686 146.018 123.686C146.018 123.686 153.454 121.808 157.023 120.365C157.989 119.973 159.494 119.416 161.186 118.815L161.814 118.59C166.177 117.034 171.364 115.277 171.364 115.277C171.364 115.277 172.36 114.575 173.363 116.676C173.821 117.641 174.282 119.197 174.65 121.683C174.683 121.894 174.713 122.113 174.743 122.338C174.847 123.138 174.942 124.027 175.04 125.005C175.813 133.959 181.467 137.328 184.019 138.401C184.839 138.746 185.642 139.133 186.422 139.56C188.877 140.909 191.708 141.419 194.482 141.012C200.781 140.188 205.918 135.628 205.918 135.628L205.944 140.117L206.022 153.605L206.105 174.918Z" fill="#DFE5EE"/>
<path d="M204.326 157.436L203.66 161.641C203.66 161.641 187.222 165.733 180.783 166.951C174.344 168.168 160.458 166.619 159.459 169.274C158.459 171.929 163.679 175.582 163.679 175.582L180.334 175.36L211.765 177.796C211.765 177.796 223.759 167.282 219.872 159.978C215.985 152.674 204.326 157.436 204.326 157.436Z" fill="#EE8E9E"/>
<path opacity="0.1" d="M170.454 124.24C170.454 124.24 162.9 130.436 164.345 133.426C165.79 136.416 170.454 124.24 170.454 124.24Z" fill="black"/>
<path opacity="0.1" d="M161.124 135.414C161.124 135.414 153.46 148.582 153.906 149.578C154.352 150.573 156.46 154.114 156.347 151.459C156.234 148.804 161.124 135.414 161.124 135.414Z" fill="black"/>
<path opacity="0.1" d="M164.235 137.74C164.235 137.74 162.45 145.927 160.681 149.359C158.911 152.79 164.235 137.74 164.235 137.74Z" fill="black"/>
<path opacity="0.1" d="M192.096 121.571C189.307 122.827 186.255 123.396 183.196 123.232C180.136 123.067 177.158 122.173 174.51 120.625L174.482 120.603C170.321 118.162 167.227 114.248 165.819 109.64C170.346 111.048 176.072 112.951 176.072 112.951C176.072 112.951 177.29 112.992 176.824 115.272L192.897 118.872C192.471 119.716 192.199 120.63 192.096 121.571Z" fill="black"/>
<path d="M202.362 108.243C200.687 111.124 198.283 113.513 195.39 115.173C194.01 115.964 192.536 116.581 191.002 117.011C186.715 118.222 182.134 117.898 178.051 116.095L178.018 116.075C177.365 115.788 176.729 115.464 176.113 115.104C172.035 112.725 168.973 108.933 167.511 104.453C166.049 99.9722 166.289 95.1166 168.185 90.8122C168.475 90.1512 168.803 89.5077 169.168 88.885C171.727 84.5004 175.929 81.3156 180.851 80.0313C185.772 78.747 191.009 79.4683 195.41 82.0367C199.811 84.605 203.015 88.81 204.318 93.7265C205.621 98.643 204.915 103.868 202.356 108.253L202.362 108.243Z" fill="#EE8E9E"/>
<path opacity="0.1" d="M204.106 138.884L205.891 136.217C205.891 136.217 215.664 124.599 225.223 132.013L224.89 142.194C224.89 142.194 224.443 145.29 223.777 146.935C223.586 147.423 223.516 147.95 223.574 148.47C223.632 148.991 223.816 149.49 224.11 149.925C224.11 149.925 224.666 152.591 223.89 152.591C223.114 152.591 221.779 156.574 221.779 156.574C221.779 156.574 219.89 160.669 221.002 162.55C222.115 164.432 224.556 170.737 224.556 170.737C224.556 170.737 220.669 168.414 219.557 164.542C219.557 164.542 210.117 157.237 202.786 161.875L204.106 138.884Z" fill="black"/>
<path opacity="0.1" d="M224.625 130.412C224.536 134.448 223.875 136.191 223.875 136.191L207.104 138.736L206.477 134.398C208.672 132.116 216.654 124.862 224.625 130.412Z" fill="black"/>
<path d="M204.106 138.291L205.891 135.625C205.891 135.625 215.664 124.006 225.223 131.42L224.89 141.601C224.89 141.601 224.443 144.698 223.777 146.342C223.586 146.83 223.516 147.357 223.574 147.878C223.632 148.399 223.816 148.898 224.11 149.332C224.11 149.332 224.666 151.999 223.89 151.999C223.114 151.999 221.779 155.981 221.779 155.981C221.779 155.981 219.89 160.076 221.002 161.958C222.115 163.839 224.556 170.145 224.556 170.145C224.556 170.145 220.669 167.822 219.557 163.949C219.557 163.949 210.117 156.645 202.786 161.282L204.106 138.291Z" fill="#DFE5EE"/>
<path opacity="0.1" d="M219.875 130.768C219.875 130.768 203.773 140.617 204.549 149.255C204.549 149.255 213.546 133.423 219.875 130.768Z" fill="black"/>
<path d="M180.237 98.4771C182.251 98.6024 184.309 97.601 186.247 98.2104C187.258 98.5258 188.084 99.2451 188.88 99.9463L188.971 100.027C191.475 102.236 193.083 105.282 193.491 108.589C193.899 111.895 193.078 115.232 191.184 117.968L190.394 119.109C189.925 119.782 189.435 120.57 189.637 121.367C189.814 122.085 190.487 122.549 191.039 123.043C193.819 125.571 193.806 130.061 192.321 133.503C190.835 136.946 188.197 139.732 186.163 142.875C184.129 146.018 182.644 149.93 183.857 153.482C185.768 159.057 192.73 160.582 198.007 163.253C195.752 161.937 195.414 158.631 196.6 156.318C197.785 154.004 200.032 152.454 202.17 150.992C204.308 149.529 206.538 147.914 207.63 145.553C209.13 142.311 208.135 138.434 208.93 134.935C209.853 130.863 213.054 127.78 215.631 124.491C220.46 118.335 223.423 109.96 220.746 102.597C219.624 99.5161 217.61 96.8484 216.1 93.9362C213.392 88.7226 212.328 82.7739 209.531 77.6075C206.733 72.4411 201.216 67.9107 195.461 69.0807C193.233 69.5339 191.229 70.7968 188.988 71.18C184.605 71.9332 179.903 69.2509 175.777 70.9049C172.226 72.3284 170.614 76.3523 169.375 79.969C167.721 84.7915 165.272 87.8669 169.455 91.3375C172.301 93.6603 176.355 98.2188 180.237 98.4771Z" fill="#603556"/>
<path opacity="0.1" d="M195.918 159.268C191.942 157.555 188.127 155.641 186.787 151.73C185.575 148.178 187.05 144.264 189.093 141.123C191.136 137.982 193.771 135.19 195.252 131.749C196.734 128.308 196.75 123.819 193.969 121.291C193.42 120.792 192.747 120.334 192.567 119.615C192.37 118.814 192.857 118.028 193.325 117.354L194.115 116.213C196.009 113.478 196.83 110.141 196.422 106.835C196.014 103.529 194.405 100.483 191.901 98.2749L191.811 98.1945C191.015 97.4932 190.188 96.774 189.177 96.4585C187.248 95.8577 185.182 96.8719 183.167 96.7252C179.286 96.4669 175.234 91.9099 172.382 89.5562C168.199 86.1029 170.646 83.0194 172.301 78.1877C173.226 75.4885 174.359 72.5612 176.352 70.657C176.152 70.7156 175.961 70.772 175.757 70.8622C172.206 72.2857 170.594 76.3097 169.355 79.9263C167.701 84.7489 165.252 87.8243 169.435 91.2948C172.286 93.6445 176.339 98.2056 180.221 98.4639C182.234 98.5892 184.293 97.5878 186.23 98.1972C187.241 98.5127 188.068 99.2319 188.864 99.9332L188.955 100.014C191.459 102.223 193.067 105.269 193.475 108.575C193.882 111.882 193.062 115.219 191.167 117.954L190.377 119.096C189.909 119.769 189.418 120.556 189.621 121.354C189.798 122.071 190.47 122.536 191.022 123.03C193.803 125.558 193.79 130.048 192.304 133.49C190.819 136.932 188.183 139.72 186.146 142.862C184.11 146.003 182.628 149.917 183.841 153.469C185.752 159.044 192.714 160.568 197.991 163.24C196.602 162.439 195.949 160.885 195.918 159.268Z" fill="black"/>
<path d="M99.8737 174.588L99.3817 155.033C99.3699 154.571 99.5417 154.122 99.8592 153.786C100.177 153.45 100.614 153.253 101.075 153.24C101.536 153.227 101.983 153.398 102.317 153.716C102.652 154.034 102.846 154.472 102.859 154.934L103.351 174.489L101.704 178.081L99.8737 174.588Z" fill="#5C5C8E"/>
<path opacity="0.1" d="M100.368 153.582C100.83 153.57 101.277 153.742 101.611 154.06C101.945 154.378 102.14 154.817 102.151 155.279L102.662 174.853L101.423 177.548L101.711 178.096L103.358 174.504L102.866 154.949C102.854 154.487 102.659 154.049 102.324 153.731C101.99 153.414 101.543 153.242 101.082 153.255C100.698 153.266 100.328 153.404 100.029 153.648C100.14 153.617 100.254 153.595 100.368 153.582Z" fill="white"/>
<path d="M99.8747 174.585L103.351 174.489L101.998 177.434L101.702 178.077L101.051 176.835L99.8747 174.585Z" fill="#EFC8C4"/>
<path d="M89.3699 161.7C89.4452 161.756 89.5097 161.825 89.5602 161.904C89.5904 161.952 89.6064 162.007 89.6064 162.063C89.6064 162.119 89.5904 162.174 89.5602 162.221C89.5095 162.274 89.4502 162.317 89.3848 162.349C89.3111 162.398 89.2494 162.463 89.2041 162.539C89.1588 162.614 89.1311 162.699 89.123 162.787L88.4152 162.719L89.3699 161.7Z" fill="#727A9C"/>
<path d="M148.686 180.664C148.686 180.664 164.568 177.342 191.216 181.553L180.777 173.92L161.784 170.047L148.347 173.603L148.686 180.664Z" fill="white"/>
<path opacity="0.1" d="M148.686 180.664C148.686 180.664 164.568 177.342 191.216 181.553L180.777 173.92L161.784 170.047L148.347 173.603L148.686 180.664Z" fill="black"/>
<path d="M146.824 184.255C146.824 184.255 154.822 162.701 195.898 184.323L181.155 174.871C181.155 174.871 145.837 165.149 141.756 176.353L146.824 184.255Z" fill="white"/>
<path opacity="0.1" d="M146.824 184.24C146.824 184.24 154.822 161.196 195.898 184.655L181.155 174.403C181.155 174.403 145.825 162.776 141.736 174.945L146.824 184.24Z" fill="black"/>
<path d="M146.824 184.249C146.824 184.249 154.822 160.864 195.898 184.323L181.155 174.071C181.155 174.071 145.837 162.775 141.756 174.96L146.824 184.249Z" fill="white"/>
<path opacity="0.1" d="M146.824 184.255C146.824 184.255 154.822 158.266 195.898 184.655L181.143 173.12C181.143 173.12 145.825 161.267 141.745 174.945L146.824 184.255Z" fill="black"/>
<path d="M146.824 184.24C146.824 184.24 154.822 157.934 195.898 184.323L181.143 172.788C181.143 172.788 145.825 160.935 141.745 174.613L146.824 184.24Z" fill="white"/>
<path opacity="0.1" d="M270.055 181.763C270.055 181.763 260.196 192.285 269.07 197.397C269.07 197.397 270.23 198.789 271.887 198.06C271.887 198.06 271.328 197.565 272.449 196.611C272.845 196.269 273.2 195.881 273.505 195.456C273.918 194.881 274.133 194.189 274.117 193.482C274.117 193.482 275.408 189.307 271.307 183.888C271.307 183.888 270.935 182.074 270.62 181.876L269.87 184.403C269.87 184.403 271.753 184.88 272.461 186.309C272.461 186.309 269.98 184.368 269.74 184.774C269.692 184.857 269.403 186.134 269.403 186.134C269.403 186.134 272.675 186.975 273.698 189.215C273.698 189.215 271.054 186.51 269.29 186.617L268.969 188.566C268.969 188.566 272.47 189.289 273.728 191.796C273.728 191.796 270.867 189.061 268.922 188.999L268.865 190.958C268.865 190.958 272.265 191.728 273.303 193.82C273.303 193.82 269.677 190.996 268.883 191.408C268.883 191.408 268.939 193.213 269.18 193.684C269.18 193.684 271.607 194.276 272.101 195.562C272.101 195.562 269.478 193.93 269.252 194.179C269.252 194.179 269.957 196.508 270.938 197.5C270.938 197.5 269.38 196.14 268.892 194.306C268.892 194.306 268.232 195.453 268.398 196.579C268.398 196.579 267.426 195.506 268.728 193.74C268.728 193.74 268.252 191.903 268.371 191.613C268.371 191.613 266.84 193.174 266.447 194.576C266.447 194.576 266.15 192.821 268.368 191.106V189.132C268.368 189.132 266.233 191.091 265.793 192.303C265.793 192.303 265.763 190.466 268.413 188.638L268.71 186.72C268.71 186.72 266.742 188.267 265.959 189.512C265.959 189.512 266.298 187.799 268.815 186.175L269.163 184.919C269.163 184.919 267.747 186.074 267.378 186.442C267.009 186.809 266.869 186.738 266.869 186.738C267.449 185.745 268.293 184.93 269.308 184.386C269.308 184.386 270.218 181.831 270.055 181.763Z" fill="#6C63FF"/>
<path opacity="0.1" d="M314.129 10.5547C314.129 10.5547 300.956 16.4809 307.166 24.5969C307.166 24.5969 307.698 26.3303 309.507 26.2947C309.507 26.2947 309.183 25.6221 310.586 25.1717C311.085 25.0093 311.563 24.7874 312.008 24.5109C312.612 24.1401 313.079 23.5837 313.337 22.9257C313.337 22.9257 316.145 19.5714 314.459 12.9963C314.459 12.9963 314.819 11.1799 314.604 10.8747L312.933 12.9192C312.933 12.9192 314.485 14.0808 314.587 15.672C314.587 15.672 313.052 12.9281 312.671 13.2126C312.594 13.2689 311.836 14.3356 311.836 14.3356C311.836 14.3356 314.512 16.3683 314.604 18.8307C314.604 18.8307 313.213 15.3164 311.541 14.7356L310.491 16.4128C310.491 16.4128 313.442 18.4247 313.638 21.2219C313.638 21.2219 312.056 17.601 310.286 16.795L309.474 18.5729C309.474 18.5729 312.314 20.5907 312.448 22.9197C312.448 22.9197 310.197 18.9195 309.305 18.9966C309.305 18.9966 308.659 20.6796 308.71 21.21C308.71 21.21 310.714 22.6916 310.679 24.0665C310.679 24.0665 308.894 21.5538 308.597 21.696C308.597 21.696 308.344 24.1139 308.867 25.4088C308.867 25.4088 307.954 23.5539 308.216 21.6752C308.216 21.6752 307.16 22.4812 306.881 23.5835C306.881 23.5835 306.399 22.2175 308.284 21.0885C308.284 21.0885 308.555 19.2129 308.778 18.9907C308.778 18.9907 306.759 19.8411 305.86 20.973C305.86 20.973 306.262 19.2396 308.977 18.5106L309.751 16.6972C309.751 16.6972 307.023 17.681 306.146 18.6292C306.146 18.6292 306.83 16.9224 309.983 16.2587L310.997 14.6053C310.997 14.6053 308.582 15.2779 307.377 16.1224C307.377 16.1224 308.356 14.6764 311.306 14.143L312.112 13.1178C312.112 13.1178 310.357 13.6393 309.867 13.8349C309.376 14.0304 309.272 13.9149 309.272 13.9149C310.196 13.218 311.297 12.7912 312.451 12.6822C312.451 12.6822 314.236 10.6732 314.129 10.5547Z" fill="#6C63FF"/>
<path opacity="0.1" d="M189.105 14.223C189.105 14.223 169.315 19.8529 178.936 28.2326C178.936 28.2326 179.79 30.0105 182.529 30.0105C182.529 30.0105 182.017 29.323 184.135 28.9052C184.864 28.7591 185.579 28.5489 186.27 28.2771C187.086 27.9922 187.78 27.4395 188.239 26.7096C188.239 26.7096 192.403 23.3909 189.67 16.7002C189.67 16.7002 190.166 14.8749 189.833 14.5608L187.359 16.5817C187.359 16.5817 189.738 17.7995 189.937 19.4085C189.937 19.4085 187.537 16.5965 186.963 16.872C186.847 16.9283 185.726 17.9832 185.726 17.9832C185.726 17.9832 189.854 20.1107 190.042 22.6027C190.042 22.6027 187.841 19.0144 185.283 18.3832L183.736 20.0485C183.736 20.0485 188.257 22.1612 188.629 24.9939C188.629 24.9939 186.137 21.293 183.436 20.4307L182.246 22.2086C182.246 22.2086 186.6 24.3243 186.886 26.6829C186.886 26.6829 183.368 22.579 182.017 22.6294C182.017 22.6294 181.086 24.3183 181.17 24.8547C181.17 24.8547 184.245 26.4192 184.23 27.7941C184.23 27.7941 181.452 25.2043 180.994 25.3406C180.994 25.3406 180.679 27.7793 181.506 29.1008C181.506 29.1008 180.072 27.2014 180.417 25.311C180.417 25.311 178.844 26.0962 178.448 27.2014C178.448 27.2014 177.681 25.8117 180.506 24.7213C180.506 24.7213 180.866 22.8309 181.196 22.6116C181.196 22.6116 178.163 23.4176 176.833 24.5376C176.833 24.5376 177.393 22.7953 181.485 22.1316L182.609 20.3181C182.609 20.3181 178.505 21.2426 177.202 22.176C177.202 22.176 178.193 20.4693 182.951 19.8766L184.438 18.2321C184.438 18.2321 180.798 18.8455 178.996 19.6692C178.996 19.6692 180.438 18.2321 184.89 17.7728L186.08 16.7594C186.08 16.7594 183.436 17.2395 182.698 17.4232C181.961 17.6069 181.806 17.4884 181.806 17.4884C183.292 16.7714 184.914 16.3755 186.565 16.3268C186.565 16.3268 189.277 14.3475 189.105 14.223Z" fill="#6C63FF"/>
<path opacity="0.1" d="M247.49 233.914C247.49 233.914 257.453 223.487 248.629 218.289C248.629 218.289 247.481 216.885 245.819 217.596C245.819 217.596 246.375 218.097 245.245 219.042C244.845 219.38 244.487 219.764 244.177 220.186C243.757 220.755 243.535 221.446 243.546 222.153C243.546 222.153 242.211 226.316 246.262 231.775C246.262 231.775 246.616 233.591 246.928 233.795L247.704 231.274C247.704 231.274 245.824 230.779 245.132 229.345C245.132 229.345 247.591 231.306 247.835 230.903C247.886 230.82 248.186 229.549 248.186 229.549C248.186 229.549 244.914 228.66 243.921 226.426C243.921 226.426 246.538 229.158 248.305 229.066L248.644 227.119C248.644 227.119 245.152 226.364 243.912 223.86C243.912 223.86 246.746 226.622 248.692 226.705L248.766 224.743C248.766 224.743 245.372 223.925 244.343 221.821C244.343 221.821 247.942 224.684 248.739 224.278C248.739 224.278 248.7 222.476 248.442 222.002C248.442 222.002 246.021 221.368 245.539 220.094C245.539 220.094 248.147 221.753 248.373 221.504C248.373 221.504 247.692 219.169 246.72 218.168C246.72 218.168 248.266 219.543 248.736 221.38C248.736 221.38 249.408 220.239 249.251 219.113C249.251 219.113 250.214 220.198 248.894 221.949C248.894 221.949 249.352 223.792 249.23 224.079C249.23 224.079 250.776 222.533 251.181 221.149C251.181 221.149 251.478 222.906 249.227 224.598L249.197 226.571C249.197 226.571 251.35 224.633 251.803 223.424C251.803 223.424 251.803 225.265 249.147 227.066L248.849 228.98C248.849 228.98 250.833 227.451 251.627 226.216C251.627 226.216 251.27 227.922 248.739 229.523L248.379 230.776C248.379 230.776 249.807 229.635 250.188 229.271C250.568 228.906 250.699 228.974 250.699 228.974C250.111 229.963 249.258 230.769 248.237 231.303C248.237 231.303 247.341 233.843 247.49 233.914Z" fill="#6C63FF"/>
<path opacity="0.1" d="M150.316 0.367463C150.316 0.367463 152.014 14.6615 161.662 11.2124C161.662 11.2124 163.48 11.2273 163.991 9.49681C163.991 9.49681 163.248 9.60348 163.242 8.13377C163.235 7.61095 163.166 7.09078 163.036 6.58407C162.865 5.89853 162.473 5.28766 161.921 4.84472C161.921 4.84472 159.554 1.16454 152.74 0.80304C152.74 0.80304 151.11 -0.0858925 150.753 0.0267057L152.208 2.2283C152.208 2.2283 153.787 1.10231 155.339 1.48752C155.339 1.48752 152.252 2.12162 152.41 2.56609C152.44 2.65795 153.231 3.698 153.231 3.698C153.231 3.698 156.011 1.74235 158.391 2.40905C158.391 2.40905 154.611 2.6698 153.552 4.0832L154.822 5.58846C154.822 5.58846 157.635 3.38984 160.375 4.04468C160.375 4.04468 156.431 4.45952 155.125 5.89663L156.606 7.20632C156.606 7.20632 159.39 5.11437 161.662 5.67736C161.662 5.67736 157.154 6.6137 156.957 7.48189C156.957 7.48189 158.376 8.60195 158.899 8.72047C158.899 8.72047 160.934 7.26558 162.224 7.71005C162.224 7.71005 159.28 8.65232 159.325 8.98419C159.325 8.98419 161.564 9.95016 162.959 9.84349C162.959 9.84349 160.91 10.1398 159.191 9.33976C159.191 9.33976 159.643 10.5813 160.615 11.1828C160.615 11.1828 159.164 11.2273 158.65 9.10864C158.65 9.10864 156.936 8.28489 156.791 8.00933C156.791 8.00933 156.999 10.1813 157.811 11.3754C157.811 11.3754 156.27 10.4865 156.389 7.67449L154.902 6.39147C154.902 6.39147 155.024 9.2805 155.666 10.4006C155.666 10.4006 154.239 9.23605 154.548 6.03886L153.272 4.57804C153.272 4.57804 153.186 7.07298 153.632 8.47157C153.632 8.47157 152.541 7.10854 152.921 4.14543L152.181 3.06982C152.181 3.06982 152.154 4.89213 152.181 5.41957C152.208 5.947 152.08 5.99737 152.08 5.99737C151.689 4.91167 151.608 3.73908 151.848 2.61054C151.848 2.61054 150.465 0.296348 150.316 0.367463Z" fill="#6C63FF"/>
<path opacity="0.1" d="M222.427 201.495C222.427 201.495 208.502 197.643 208.056 207.847C208.056 207.847 207.354 209.519 208.767 210.645C208.767 210.645 208.948 209.922 210.316 210.47C210.804 210.662 211.313 210.797 211.833 210.87C212.536 210.971 213.252 210.84 213.873 210.496C213.873 210.496 218.186 209.708 221.112 203.581C221.112 203.581 222.555 202.416 222.6 202.043L220.003 202.549C220.003 202.549 220.449 204.434 219.503 205.72C219.503 205.72 220.098 202.632 219.613 202.609C219.515 202.609 218.248 202.938 218.248 202.938C218.248 202.938 219.01 206.215 217.49 208.156C217.49 208.156 218.68 204.57 217.767 203.059L215.881 203.678C215.881 203.678 216.856 207.104 215.209 209.379C215.209 209.379 216.321 205.59 215.476 203.841L213.71 204.698C213.71 204.698 214.602 208.058 213.213 209.942C213.213 209.942 214.052 205.433 213.317 204.92C213.317 204.92 211.741 205.809 211.435 206.241C211.435 206.241 212.029 208.668 211.113 209.691C211.113 209.691 211.351 206.618 211.027 206.535C211.027 206.535 209.278 208.233 208.85 209.56C208.85 209.56 209.341 207.554 210.747 206.277C210.747 206.277 209.421 206.224 208.496 206.89C208.496 206.89 209.002 205.536 211.173 205.871C211.173 205.871 212.589 204.6 212.901 204.573C212.901 204.573 210.819 203.939 209.385 204.235C209.385 204.235 210.807 203.157 213.362 204.33L215.122 203.441C215.122 203.441 212.392 202.461 211.11 202.629C211.11 202.629 212.731 201.741 215.572 203.249L217.41 202.624C217.41 202.624 215.125 201.601 213.656 201.483C213.656 201.483 215.337 200.994 217.945 202.466L219.224 202.191C219.224 202.191 217.54 201.474 217.038 201.302C216.535 201.13 216.538 201.006 216.538 201.006C217.69 201.058 218.805 201.427 219.759 202.072C219.759 202.072 222.436 201.658 222.427 201.495Z" fill="#6C63FF"/>
<circle cx="111.024" cy="59.9657" r="29.8034" fill="white"/>
<path d="M157.218 88.7946L132.431 58.8894L122.513 82.8365L157.218 88.7946Z" fill="white"/>
<path d="M109.594 63.24C109.594 62.616 109.706 62.088 109.93 61.656C110.17 61.208 110.522 60.704 110.986 60.144C111.482 59.552 111.85 59.024 112.09 58.56C112.346 58.08 112.474 57.488 112.474 56.784C112.474 56.352 112.354 55.92 112.114 55.488C111.874 55.04 111.434 54.816 110.794 54.816C110.09 54.816 109.602 55.08 109.33 55.608C109.074 56.12 108.946 56.696 108.946 57.336C108.946 57.512 108.946 57.656 108.946 57.768C108.962 57.88 108.97 57.952 108.97 57.984H105.946C105.93 57.92 105.914 57.808 105.898 57.648C105.882 57.488 105.874 57.32 105.874 57.144C105.874 56.232 106.066 55.408 106.45 54.672C106.834 53.92 107.41 53.328 108.178 52.896C108.946 52.464 109.882 52.248 110.986 52.248C112.394 52.248 113.514 52.64 114.346 53.424C115.194 54.208 115.618 55.24 115.618 56.52C115.618 57.56 115.466 58.384 115.162 58.992C114.874 59.6 114.45 60.224 113.89 60.864C113.458 61.36 113.138 61.8 112.93 62.184C112.722 62.568 112.618 63.04 112.618 63.6V64.272H109.594V63.24ZM109.474 65.712H112.786V69H109.474V65.712Z" fill="black"/>
<path d="M99.0275 170.073C99.0275 170.073 106.948 168.967 101.166 164.686C95.3828 160.405 99.0275 170.073 99.0275 170.073Z" fill="#EE8E9E"/>
</g>
<defs>
<clipPath id="clip0">
<rect width="315" height="233.911" fill="white"/>
</clipPath>
</defs>
</svg>
