<svg width="375" height="247" viewBox="0 0 375 247" fill="none" xmlns="http://www.w3.org/2000/svg">
<g clip-path="url(#clip0)">
<path d="M421.209 228.737C419.455 233.055 417.295 237.197 414.759 241.109C413.569 242.975 412.265 244.765 410.852 246.469H-25.941C-25.548 246.163 -23.2408 244.301 -19.6523 241.109C-17.0779 238.824 -13.8471 235.852 -10.2193 232.277L35.8179 222.79C36.4127 222.667 37.0185 222.605 37.6259 222.605L86.7052 222.535H86.7563L111.066 222.503H111.121L131.638 222.48H145.068H158.825L215.195 222.401H215.285H219.652H227.324H236.903H239.45L249.13 222.292H252.33L280.487 222.252H289.48H293.804L326.328 222.209H336.013L366.819 222.166L392.823 222.135C393.547 222.135 394.269 222.221 394.973 222.39L421.209 228.737Z" fill="#5C506C"/>
<g opacity="0.1">
<path opacity="0.1" d="M165.326 100.901C165.341 99.7955 165.341 98.6795 165.326 97.553C165.208 87.4267 165.082 77.2062 162.779 67.3426C162.264 65.4231 161.863 63.4753 161.576 61.509C161.495 62.1841 161.46 62.8639 161.47 63.5437C161.517 66.0292 162.213 68.4481 162.779 70.8709C165.07 80.6758 165.212 90.8335 165.326 100.901Z" fill="black"/>
<path opacity="0.1" d="M247.511 74.3248C248.027 72.0341 248.199 69.6797 248.022 67.3386C247.945 68.503 247.774 69.6593 247.511 70.7964C246.513 75.1088 244.166 78.9939 243.294 83.3181C242.918 85.2254 242.812 87.1758 242.979 89.1124C243.042 88.3519 243.147 87.5954 243.294 86.8464C244.166 82.5223 246.513 78.6215 247.511 74.3248Z" fill="black"/>
<path opacity="0.1" d="M234.336 64.81C234.528 64.2531 234.632 63.6698 234.643 63.0811C234.643 61.5874 233.951 60.1878 233.263 58.8628C229.058 50.7397 223.83 42.0522 215.073 39.3001C212.676 38.5473 210.023 38.2415 208.069 36.6616C207.567 36.2298 207.155 35.7022 206.86 35.1098C206.564 34.5174 206.39 33.8721 206.348 33.2117C202.087 41.0133 194.769 46.9801 186.837 51.171C183.693 52.8371 180.285 54.37 178.139 57.2084C176.123 59.8742 175.537 63.3437 175.887 66.6996C176.085 64.5458 176.863 62.4856 178.139 60.7367C180.285 57.8983 183.689 56.3655 186.837 54.6993C194.769 50.5084 202.087 44.5416 206.348 36.74C206.39 37.4004 206.564 38.0458 206.86 38.6382C207.155 39.2306 207.567 39.7582 208.069 40.19C210.034 41.7581 212.676 42.0757 215.073 42.8284C223.815 45.5727 229.058 54.2681 233.263 62.3911C233.69 63.1653 234.049 63.9746 234.336 64.81Z" fill="black"/>
<path opacity="0.1" d="M236.651 106.158C232.878 102.63 230.799 97.6902 229.219 92.7819C228.271 90.0247 227.638 87.1696 227.332 84.2708C226.967 88.297 227.969 92.4173 229.219 96.3103C230.791 101.219 232.878 106.166 236.651 109.687C240.424 113.207 246.277 114.956 250.919 112.682C250.361 111.729 249.806 110.761 249.256 109.785C244.945 110.996 239.992 109.271 236.651 106.158Z" fill="black"/>
<path opacity="0.1" d="M188.181 105.558C187.423 111.608 183.712 118.927 177.671 121.318C173.477 122.977 167.507 121.071 162.952 120.017C162.56 121.117 162.111 122.197 161.607 123.251C166.277 124.176 173.049 126.674 177.671 124.847C183.712 122.455 187.423 115.136 188.181 109.087C188.337 107.573 188.366 106.05 188.268 104.531C188.244 104.872 188.209 105.217 188.181 105.558Z" fill="black"/>
</g>
<path d="M238.969 119.186L238.096 119.354L198.65 126.913C187.193 129.108 175.571 131.315 163.933 130.472C155.502 129.861 147.626 127.367 139.525 125.18C134.946 123.941 130.092 123.447 128.539 118.335C126.397 111.278 129.884 100.83 130.705 93.6796C131.491 86.6621 131.955 79.4682 130.556 72.5331C130.245 70.9746 129.835 69.4373 129.329 67.9305C127.926 63.7789 125.721 59.4625 126.912 55.2481C127.852 51.904 130.717 49.5165 133.397 47.3054C138.648 42.993 144.01 38.1592 146.093 31.6945C147.115 28.5582 147.307 25.1827 148.408 22.0699C150.495 16.1501 155.738 11.724 161.571 9.37965C167.403 7.03526 173.818 6.53737 180.111 6.53737C185.667 6.53768 191.217 6.90569 196.725 7.639C202.73 8.42307 208.791 9.71288 214.07 12.6845C219.348 15.6562 223.797 20.5253 225.028 26.4607C226.769 34.8543 221.934 43.7928 224.528 51.9432C225.833 56.0636 228.852 59.392 230.947 63.1634C232.655 66.3181 233.709 69.7835 234.047 73.3531C234.385 76.9227 233.999 80.5236 232.912 83.9414C230.404 91.692 224.265 99.5327 227.409 107.048C229.41 111.827 234.52 114.379 238.081 118.166C238.398 118.506 238.694 118.846 238.969 119.186Z" fill="#454B69"/>
<path opacity="0.1" d="M238.096 118.198V119.354L198.65 126.913C187.193 129.108 175.571 131.315 163.933 130.472C155.502 129.861 147.625 127.367 139.525 125.18C134.946 123.941 130.092 123.447 128.539 118.335C126.397 111.278 129.883 100.83 130.705 93.6796C131.491 86.6621 143.593 61.0425 142.194 54.1073L214.514 57.2436C215.001 61.0738 234.115 80.2994 232.924 83.9728C230.416 91.7234 224.277 99.5641 227.421 107.079C229.426 111.858 234.535 114.411 238.096 118.198Z" fill="black"/>
<path d="M164.204 98.7996C164.633 101.226 164.861 103.896 163.618 106.013C161.964 108.851 158.356 109.757 155.129 110.4L143.927 112.635C143.164 112.788 142.355 112.96 141.785 113.481C141.113 114.081 140.885 115.03 140.787 115.924C140.335 119.97 141.769 123.957 143.078 127.81C145.723 135.616 147.944 143.586 151.289 151.117C154.634 158.648 159.224 165.838 165.776 170.872C172.328 175.906 180.999 178.587 189.021 176.619C196.009 174.906 201.74 169.986 206.68 164.768C210.756 160.455 214.569 155.751 216.546 150.157C217.91 146.315 218.354 142.222 218.782 138.168C219.445 131.953 220.108 125.738 220.771 119.523C221.081 116.606 221.286 113.325 219.387 111.086C218.554 110.102 217.422 109.447 216.267 108.84C211.967 106.562 207.439 104.68 203.438 101.936C199.437 99.1917 195.887 95.4124 194.673 90.7236C193.946 87.9088 194.075 84.8431 192.837 82.2203C191.454 79.28 188.514 77.2885 185.369 76.4142C182.225 75.54 178.908 75.6576 175.669 76.0222C172.431 76.3868 159.947 77.3199 158.607 80.9619C157.888 82.9221 160.871 87.1287 161.579 89.0575C162.743 92.2203 163.622 95.4807 164.204 98.7996Z" fill="#EFB7B9"/>
<path opacity="0.1" d="M164.204 98.7996C164.633 101.226 164.861 103.896 163.618 106.013C161.964 108.851 158.356 109.757 155.129 110.4L143.927 112.635C143.164 112.788 142.355 112.96 141.785 113.481C141.113 114.081 140.885 115.03 140.787 115.924C140.335 119.97 141.769 123.957 143.078 127.81C145.723 135.616 147.944 143.586 151.289 151.117C154.634 158.648 159.224 165.838 165.776 170.872C172.328 175.906 180.999 178.587 189.021 176.619C196.009 174.906 201.74 169.986 206.68 164.768C210.756 160.455 214.569 155.751 216.546 150.157C217.91 146.315 218.354 142.222 218.782 138.168C219.445 131.953 220.108 125.738 220.771 119.523C221.081 116.606 221.286 113.325 219.387 111.086C218.554 110.102 217.422 109.447 216.267 108.84C211.967 106.562 207.439 104.68 203.438 101.936C199.437 99.1917 195.887 95.4124 194.673 90.7236C193.946 87.9088 194.075 84.8431 192.837 82.2203C191.454 79.28 188.514 77.2885 185.369 76.4142C182.225 75.54 178.908 75.6576 175.669 76.0222C172.431 76.3868 159.947 77.3199 158.607 80.9619C157.888 82.9221 160.871 87.1287 161.579 89.0575C162.743 92.2203 163.622 95.4807 164.204 98.7996Z" fill="black"/>
<path d="M191.163 141.43L197.731 127.56C200.808 121.06 203.953 114.23 203.626 107.052C203.563 105.625 203.548 103.841 204.805 103.194C205.351 102.972 205.946 102.896 206.531 102.975C213.445 103.327 220.269 104.704 226.777 107.06C228.038 107.515 229.331 108.04 230.216 109.044C231.1 110.047 231.458 111.396 231.76 112.69C232.791 117.064 233.544 121.499 234.013 125.968C235.192 137.031 234.606 148.193 234.013 159.291L232.267 193.175C232.277 193.656 232.179 194.132 231.981 194.571C231.548 195.355 230.573 195.617 229.697 195.766C226.321 196.343 222.87 196.225 219.45 196.096C195.396 195.186 171.216 193.79 147.319 196.699C147.426 193.174 147.37 189.645 147.15 186.114C146.203 170.868 142.241 155.994 138.35 141.222C136.082 132.597 133.885 123.188 137.536 115.061C138.073 113.778 138.845 112.605 139.812 111.604C141.364 110.086 143.483 109.287 145.582 108.714C149.202 107.732 152.952 107.309 156.701 107.46L181.482 161.275C182.614 163.737 183.546 166.328 184.674 168.759C185.688 164.56 184.469 159.64 185.688 155.088C187.001 150.364 189.068 145.844 191.163 141.43Z" fill="white"/>
<path d="M188.573 178.458C193.006 178.736 197.314 176.47 200.364 173.267C203.414 170.064 205.426 166.003 207.128 161.898C209.575 156.047 211.52 150 212.941 143.821C214.121 138.568 214.958 133.13 214.144 127.807C213.02 120.456 208.85 113.775 208.138 106.374C208.017 105.08 208.095 103.567 209.137 102.787C209.781 102.304 210.63 102.238 211.432 102.191C218.845 101.752 226.989 101.834 232.731 106.527C234.48 107.954 235.899 109.737 237.609 111.208C241.681 114.736 247.435 116.532 250.049 121.216C250.961 122.847 251.397 124.694 252.034 126.45C253.535 130.606 256.133 134.259 258.715 137.854C256.212 148.392 253.335 158.938 250.831 169.476C249.365 175.659 247.887 181.865 245.584 187.784C244.074 191.666 242.176 195.625 242.64 199.781C242.825 201.416 243.371 202.98 243.846 204.556C245.514 210.087 246.295 215.847 246.161 221.621L134.01 221.896C139.383 214.212 140.959 204.787 140.413 195.437C140.15 190.956 139.136 186.448 136.876 182.57C133.315 176.494 127.05 172.534 120.875 169.143C116.551 166.791 111.91 180.026 107.236 178.509C107.991 173.185 108.337 152.634 108.022 147.275C107.92 145.519 107.763 143.715 108.305 142.038C108.675 140.889 109.355 139.862 109.815 138.744C111.658 134.271 109.901 128.551 112.88 124.745C114.94 122.098 118.552 121.346 121.488 119.715C124.503 118.037 126.833 115.402 129.459 113.152C134.611 108.789 140.906 105.985 147.602 105.072C149.555 108.145 150.743 111.641 151.065 115.265C151.265 117.543 151.12 119.852 151.438 122.118C151.874 125.188 153.148 128.069 154.409 130.908C159.664 142.743 164.939 154.614 171.597 165.728C173.48 168.865 175.528 172.001 178.255 174.443C180.983 176.886 184.91 178.63 188.573 178.458Z" fill="#6C63FF"/>
<path opacity="0.1" d="M188.573 178.458C193.006 178.736 197.314 176.47 200.364 173.267C203.414 170.064 205.426 166.003 207.128 161.898C209.575 156.047 211.52 150 212.941 143.821C214.121 138.568 214.958 133.13 214.144 127.807C213.02 120.456 208.85 113.775 208.138 106.374C208.017 105.08 208.095 103.567 209.137 102.787C209.781 102.304 210.63 102.238 211.432 102.191C218.845 101.752 226.989 101.834 232.731 106.527C234.48 107.954 235.899 109.737 237.609 111.208C241.681 114.736 247.435 116.532 250.049 121.216C250.961 122.847 251.397 124.694 252.034 126.45C253.535 130.606 256.133 134.259 258.715 137.854C256.212 148.392 253.335 158.938 250.831 169.476C249.365 175.659 247.887 181.865 245.584 187.784C244.074 191.666 242.176 195.625 242.64 199.781C242.825 201.416 243.371 202.98 243.846 204.556C245.514 210.087 246.295 215.847 246.161 221.621L134.01 221.896C139.383 214.212 140.959 204.787 140.413 195.437C140.15 190.956 139.136 186.448 136.876 182.57C133.315 176.494 127.05 172.534 120.875 169.143C116.551 166.791 111.91 180.026 107.236 178.509C107.991 173.185 108.337 152.634 108.022 147.275C107.92 145.519 107.763 143.715 108.305 142.038C108.675 140.889 109.355 139.862 109.815 138.744C111.658 134.271 109.901 128.551 112.88 124.745C114.94 122.098 118.552 121.346 121.488 119.715C124.503 118.037 126.833 115.402 129.459 113.152C134.611 108.789 140.906 105.985 147.602 105.072C149.555 108.145 150.743 111.641 151.065 115.265C151.265 117.543 151.12 119.852 151.438 122.118C151.874 125.188 153.148 128.069 154.409 130.908C159.664 142.743 164.939 154.614 171.597 165.728C173.48 168.865 175.528 172.001 178.255 174.443C180.983 176.886 184.91 178.63 188.573 178.458Z" fill="black"/>
<path d="M182.642 97.9097C201.249 97.9097 216.333 82.864 216.333 64.3042C216.333 45.7444 201.249 30.6987 182.642 30.6987C164.034 30.6987 148.95 45.7444 148.95 64.3042C148.95 82.864 164.034 97.9097 182.642 97.9097Z" fill="#EFB7B9"/>
<path d="M164.963 109.087C165.886 100.391 162.263 91.8841 158.159 84.1571C156.194 80.4641 154.087 76.7828 153.101 72.7252C152.114 68.6676 152.397 64.0729 154.921 60.7367C157.067 57.8983 160.47 56.3655 163.619 54.6993C172.505 49.9949 180.629 43.0793 184.536 33.8311C182.327 35.0308 182.901 38.6101 184.851 40.19C186.8 41.7699 189.457 42.0757 191.855 42.8284C200.596 45.5727 205.839 54.2681 210.045 62.3911C210.733 63.7162 211.432 65.1158 211.424 66.6094C211.417 68.1031 210.733 69.4282 210.017 70.6984C207.942 74.3835 205.403 77.9237 204.46 82.044C203.379 86.7484 204.519 91.6959 206 96.3102C207.573 101.219 209.66 106.166 213.433 109.687C217.206 113.207 223.059 114.956 227.7 112.682C223.066 104.735 218.267 95.8555 220.075 86.8464C220.948 82.534 223.294 78.6136 224.293 74.3247C226.195 66.1429 223.027 57.7258 219.918 49.9164L210.627 26.6098C209.208 23.0461 207.592 19.2434 204.338 17.2244C202.137 15.864 199.472 15.5112 196.894 15.2642C188.593 14.5272 179.993 14.7702 172.266 17.8516C158.187 23.4617 149.359 37.2928 142.355 50.7084C140.256 54.7267 138.185 58.996 138.271 63.528C138.318 66.0135 139.014 68.4324 139.58 70.8552C141.883 80.7189 142.009 90.9393 142.127 101.066C142.217 108.836 141.812 116.159 138.405 123.235C143.074 124.161 149.846 126.658 154.468 124.831C160.494 122.455 164.204 115.136 164.963 109.087Z" fill="#454B69"/>
<path d="M212.588 202.76C206.515 201.8 200.352 199.945 194.331 201.192C190.841 201.914 187.649 203.646 184.749 205.74C186.344 207.014 188.207 208.151 189.221 209.923C189.851 211.149 190.324 212.449 190.628 213.792C191.265 216.144 191.906 218.544 192.004 220.99C192.102 223.436 191.611 225.985 190.149 227.957C197.805 228.709 205.226 226.828 212.694 224.989C213.548 224.839 214.361 224.512 215.08 224.028C216.259 223.103 216.605 221.457 216.613 219.955C216.613 217.274 215.858 214.659 215.091 212.087C214.18 209.002 213.504 205.826 212.588 202.76Z" fill="white"/>
<path d="M253.59 136.635C256.605 137.027 258.943 139.454 260.665 141.947C265.495 148.886 267.578 157.3 269.897 165.427C272.78 175.533 276.169 185.481 280.065 195.268C280.904 197.529 281.924 199.718 283.115 201.816C284.086 203.435 285.265 204.991 285.694 206.83C286.731 211.275 283.057 215.455 279.224 217.932C277.182 219.306 274.951 220.378 272.602 221.116C270.314 221.798 267.928 222.056 265.558 222.315L243.74 224.667C233.698 225.757 223.565 226.847 213.519 225.796C212.886 223.601 214.128 222.049 214.038 219.763C213.975 218.128 213.252 216.607 212.607 215.102C211.419 212.42 210.633 209.579 210.277 206.669C210.163 205.599 210.123 204.501 209.715 203.505C209.306 202.509 208.429 201.616 207.356 201.545C213.252 200.961 217.729 199.851 223.624 199.263C225.814 199.044 228.089 198.797 229.956 197.636C232.271 196.198 233.568 193.602 234.598 191.085C237.149 184.852 238.792 177.984 237.452 171.382C236.351 165.968 233.281 160.926 233.297 155.402C233.297 152.113 234.421 148.926 235.75 145.915C237.157 142.731 238.992 139.478 242.082 137.862C245.171 136.247 250.104 136.165 253.59 136.635Z" fill="#6C63FF"/>
<path opacity="0.08" d="M253.59 136.635C256.605 137.027 258.943 139.454 260.665 141.947C265.495 148.886 267.578 157.3 269.897 165.427C272.78 175.533 276.169 185.481 280.065 195.268C280.904 197.529 281.924 199.718 283.115 201.816C284.086 203.435 285.265 204.991 285.694 206.83C286.731 211.275 283.057 215.455 279.224 217.932C277.182 219.306 274.951 220.378 272.602 221.116C270.314 221.798 267.928 222.056 265.558 222.315L243.74 224.667C233.698 225.757 223.565 226.847 213.519 225.796C212.886 223.601 214.128 222.049 214.038 219.763C213.975 218.128 213.252 216.607 212.607 215.102C211.419 212.42 210.633 209.579 210.277 206.669C210.163 205.599 210.123 204.501 209.715 203.505C209.306 202.509 208.429 201.616 207.356 201.545C213.252 200.961 217.729 199.851 223.624 199.263C225.814 199.044 228.089 198.797 229.956 197.636C232.271 196.198 233.568 193.602 234.598 191.085C237.149 184.852 238.792 177.984 237.452 171.382C236.351 165.968 233.281 160.926 233.297 155.402C233.297 152.113 234.421 148.926 235.75 145.915C237.157 142.731 238.992 139.478 242.082 137.862C245.171 136.247 250.104 136.165 253.59 136.635Z" fill="black"/>
<path d="M116.964 131.543C118.391 128.163 119.841 124.674 119.881 121.009C119.924 117.045 118.308 113.282 117.074 109.518C115.548 104.913 114.532 100.156 114.044 95.3301C113.943 94.8679 114.012 94.3847 114.24 93.9697C114.567 93.5111 115.196 93.417 115.75 93.2954C118.47 92.676 120.525 90.4845 122.223 88.2773C124.857 84.8686 127.081 81.1633 128.85 77.2376C130.151 74.3482 131.912 70.8238 135.088 70.7964C133.809 76.7865 132.224 82.7074 130.34 88.5361C133.661 87.6893 136.817 86.4583 140.138 85.6115C140.788 85.4067 141.469 85.3165 142.15 85.3449C144.139 85.5527 145.358 88.2381 144.202 89.8651C145.825 91.7626 148.526 92.2722 150.648 93.5738C152.771 94.8754 154.296 98.0979 152.409 99.7327C152.039 100.05 151.572 100.274 151.304 100.681C150.393 102.085 152.625 103.696 152.44 105.358C152.291 106.719 150.542 107.354 149.217 106.993C147.893 106.633 146.859 105.645 145.68 104.919C144.501 104.194 142.96 103.743 141.816 104.496C141.51 108.185 141.18 111.945 139.58 115.304C138.994 116.532 138.244 117.68 137.772 118.954C137.321 120.344 137.041 121.783 136.939 123.239L135.512 136.251C128.704 137.611 122.601 135.577 116.964 131.543Z" fill="#EFB7B9"/>
<path d="M115.302 143.206L114.048 134.742C113.928 134.053 113.861 133.355 113.847 132.656C113.847 130.696 114.712 128.826 115.549 127.042C122.487 130.272 129.986 131.421 137.638 131.425C138.648 131.425 139.8 131.331 140.429 130.543C141.73 132.037 141.769 134.44 141.215 136.337C140.661 138.235 139.596 139.944 138.888 141.794C138.531 142.731 138.24 143.755 137.556 144.476C136.495 145.617 134.773 145.813 133.209 145.805C131.563 145.795 129.922 145.639 128.304 145.338C124.114 144.562 119.492 142.457 115.302 143.206Z" fill="white"/>
<path d="M141.176 142.861C135.791 142.249 130.442 141.387 125.128 140.273C122.522 139.728 119.892 139.121 117.235 139.227C115.506 139.297 113.647 139.642 112.126 138.788C113.608 143.817 113.698 149.118 111.925 154.053C110.876 156.994 109.276 159.734 108.506 162.761C106.902 169.092 109.103 175.996 107.099 182.214C106.887 183.026 106.47 183.771 105.888 184.378C105.275 184.938 104.438 185.228 103.872 185.836C103.039 186.73 102.988 188.075 102.984 189.294L102.948 200.094C102.925 206.971 103.015 214.263 106.655 220.088C110.805 226.753 119.543 230.207 127.148 228.18C129.17 227.664 131.065 226.74 132.714 225.463C135.355 223.37 137.037 220.343 138.684 217.395C140.649 213.867 142.614 210.26 143.247 206.289C143.695 203.478 143.444 200.608 143.121 197.781C141.345 182.1 137.489 166.552 138.318 150.811C138.442 147.934 139.439 145.162 141.176 142.861Z" fill="#6C63FF"/>
<path d="M163.681 207.939C160.95 208.096 158.198 208.253 155.479 207.939C153.513 207.704 151.595 207.222 149.646 206.892C144.322 206.035 138.875 206.336 133.678 207.776C128.482 209.216 123.66 211.761 119.543 215.235C118.033 216.521 116.508 218.493 117.342 220.292C118.238 222.229 120.977 222.174 123.088 221.813C120.81 222.899 118.797 224.468 117.192 226.412C116.603 227.129 116.044 227.98 116.158 228.909C116.398 230.85 119.039 231.203 120.993 231.034C120.356 231.716 120.785 232.924 121.594 233.386C122.404 233.849 123.41 233.755 124.326 233.586C126.351 233.216 128.307 232.541 130.127 231.583C129.758 232.543 130.398 233.669 131.306 234.147C132.214 234.625 133.319 234.59 134.337 234.425C139.14 233.641 143.149 230.309 147.834 228.999C155.325 226.91 163.163 230.242 170.949 230.477C173.386 230.552 175.885 230.305 178.106 229.301C180.83 228.066 183.027 225.749 185.904 224.926C189.099 224.017 192.767 225.063 195.691 223.491C197.817 222.35 195.899 213.557 195.357 211.863C194.362 208.766 193.364 206.712 190.051 206.398C181.667 205.579 172.128 207.453 163.681 207.939Z" fill="#EFB7B9"/>
<path d="M184.595 205.54C184.595 205.54 197.287 216.254 189.964 227.945L204.114 223.072V212.844C204.114 212.357 198.741 205.054 198.741 205.054L192.393 204.078L184.595 205.54Z" fill="white"/>
<path d="M74.9296 204.877H79.6893C82.2954 204.877 84.7947 205.91 86.6374 207.748C88.4802 209.586 89.5154 212.079 89.5154 214.678V229.227H65.1035V214.678C65.1035 213.391 65.3577 212.117 65.8515 210.928C66.3453 209.739 67.0691 208.658 67.9815 207.748C68.8939 206.838 69.9772 206.116 71.1693 205.623C72.3615 205.131 73.6392 204.877 74.9296 204.877Z" fill="#3F3D56"/>
<path d="M76.3328 202.929C77.4116 202.929 78.2862 202.057 78.2862 200.98C78.2862 199.904 77.4116 199.032 76.3328 199.032C75.254 199.032 74.3794 199.904 74.3794 200.98C74.3794 202.057 75.254 202.929 76.3328 202.929Z" fill="#3F3D56"/>
<path d="M76.3328 200.494C77.4116 200.494 78.2862 199.622 78.2862 198.546C78.2862 197.47 77.4116 196.597 76.3328 196.597C75.254 196.597 74.3794 197.47 74.3794 198.546C74.3794 199.622 75.254 200.494 76.3328 200.494Z" fill="#3F3D56"/>
<path d="M76.3328 198.06C77.4116 198.06 78.2862 197.187 78.2862 196.111C78.2862 195.035 77.4116 194.163 76.3328 194.163C75.254 194.163 74.3794 195.035 74.3794 196.111C74.3794 197.187 75.254 198.06 76.3328 198.06Z" fill="#3F3D56"/>
<path d="M76.3328 195.621C77.4116 195.621 78.2862 194.749 78.2862 193.673C78.2862 192.597 77.4116 191.724 76.3328 191.724C75.254 191.724 74.3794 192.597 74.3794 193.673C74.3794 194.749 75.254 195.621 76.3328 195.621Z" fill="#3F3D56"/>
<path d="M79.2649 196.597C80.3438 196.597 81.2184 195.725 81.2184 194.649C81.2184 193.573 80.3438 192.701 79.2649 192.701C78.1861 192.701 77.3115 193.573 77.3115 194.649C77.3115 195.725 78.1861 196.597 79.2649 196.597Z" fill="#3F3D56"/>
<path d="M81.2183 195.621C82.2972 195.621 83.1717 194.749 83.1717 193.673C83.1717 192.597 82.2972 191.724 81.2183 191.724C80.1395 191.724 79.2649 192.597 79.2649 193.673C79.2649 194.749 80.1395 195.621 81.2183 195.621Z" fill="#3F3D56"/>
<path d="M83.1717 194.649C84.2505 194.649 85.1251 193.777 85.1251 192.701C85.1251 191.625 84.2505 190.752 83.1717 190.752C82.0928 190.752 81.2183 191.625 81.2183 192.701C81.2183 193.777 82.0928 194.649 83.1717 194.649Z" fill="#3F3D56"/>
<path d="M76.3328 193.187C77.4116 193.187 78.2862 192.314 78.2862 191.238C78.2862 190.162 77.4116 189.29 76.3328 189.29C75.254 189.29 74.3794 190.162 74.3794 191.238C74.3794 192.314 75.254 193.187 76.3328 193.187Z" fill="#3F3D56"/>
<path d="M76.3328 190.752C77.4116 190.752 78.2862 189.88 78.2862 188.804C78.2862 187.728 77.4116 186.855 76.3328 186.855C75.254 186.855 74.3794 187.728 74.3794 188.804C74.3794 189.88 75.254 190.752 76.3328 190.752Z" fill="#3F3D56"/>
<path d="M76.3328 188.318C77.4116 188.318 78.2862 187.445 78.2862 186.369C78.2862 185.293 77.4116 184.421 76.3328 184.421C75.254 184.421 74.3794 185.293 74.3794 186.369C74.3794 187.445 75.254 188.318 76.3328 188.318Z" fill="#3F3D56"/>
<path d="M76.3328 185.883C77.4116 185.883 78.2862 185.011 78.2862 183.935C78.2862 182.859 77.4116 181.986 76.3328 181.986C75.254 181.986 74.3794 182.859 74.3794 183.935C74.3794 185.011 75.254 185.883 76.3328 185.883Z" fill="#3F3D56"/>
<path d="M84.4452 177.65C83.9578 177.721 83.4705 177.772 82.9831 177.803C83.4362 177.409 83.8568 176.979 84.2408 176.517C83.9702 175.699 83.5723 174.927 83.0617 174.232C82.5775 174.503 82.0422 174.671 81.4895 174.726C81.0061 174.796 80.5187 174.847 80.0313 174.882C80.672 174.361 81.2694 173.577 81.8983 172.922C80.4893 171.648 78.6842 170.896 76.7855 170.792C74.8867 170.688 73.0097 171.237 71.4688 172.349C69.928 173.46 68.8169 175.066 68.3217 176.897C67.8266 178.729 67.9774 180.674 68.749 182.408C69.5206 184.141 70.8661 185.558 72.56 186.42C74.2539 187.282 76.1933 187.537 78.0534 187.143C79.9134 186.748 81.5811 185.728 82.7769 184.253C83.9728 182.779 84.6242 180.939 84.6221 179.042C84.6222 178.565 84.5801 178.089 84.4963 177.619L84.4452 177.65Z" fill="#6C63FF"/>
<path d="M90.9579 187.33C90.4598 187.635 89.8975 187.822 89.315 187.875C88.8316 187.945 88.3442 188 87.8568 188.031C88.3748 187.568 88.8582 187.067 89.3032 186.534C88.1255 186.228 86.8755 186.37 85.7978 186.935C84.72 187.499 83.8919 188.443 83.4754 189.584C83.0589 190.725 83.0839 191.979 83.5455 193.103C84.0071 194.226 84.8722 195.137 85.9716 195.658C87.071 196.179 88.3256 196.272 89.4902 195.92C90.6548 195.567 91.6457 194.794 92.2691 193.751C92.8925 192.708 93.1036 191.471 92.8611 190.281C92.6186 189.092 91.94 188.035 90.9579 187.318V187.33Z" fill="#6C63FF"/>
<path d="M73.4047 196.597C74.4836 196.597 75.3581 195.725 75.3581 194.649C75.3581 193.573 74.4836 192.701 73.4047 192.701C72.3259 192.701 71.4513 193.573 71.4513 194.649C71.4513 195.725 72.3259 196.597 73.4047 196.597Z" fill="#3F3D56"/>
<path d="M71.4512 195.621C72.5301 195.621 73.4046 194.749 73.4046 193.673C73.4046 192.597 72.5301 191.724 71.4512 191.724C70.3724 191.724 69.4978 192.597 69.4978 193.673C69.4978 194.749 70.3724 195.621 71.4512 195.621Z" fill="#3F3D56"/>
<path d="M69.4977 194.649C70.5766 194.649 71.4512 193.777 71.4512 192.701C71.4512 191.625 70.5766 190.752 69.4977 190.752C68.4189 190.752 67.5443 191.625 67.5443 192.701C67.5443 193.777 68.4189 194.649 69.4977 194.649Z" fill="#3F3D56"/>
<path d="M61.7115 187.33C62.2097 187.635 62.772 187.822 63.3544 187.875C63.8379 187.945 64.3253 188 64.8126 188.031C64.2936 187.569 63.8102 187.068 63.3662 186.534C64.544 186.228 65.7939 186.37 66.8717 186.935C67.9494 187.499 68.7775 188.443 69.194 189.584C69.6106 190.725 69.5856 191.979 69.1239 193.103C68.6623 194.226 67.7973 195.137 66.6979 195.658C65.5985 196.179 64.3438 196.272 63.1792 195.92C62.0146 195.567 61.0237 194.794 60.4004 193.751C59.777 192.708 59.5659 191.471 59.8084 190.281C60.0508 189.092 60.7294 188.035 61.7115 187.318V187.33Z" fill="#6C63FF"/>
<path d="M74.9297 206.32H79.6894C82.2955 206.32 84.7948 207.353 86.6375 209.191C88.4803 211.029 89.5155 213.522 89.5155 216.121V229.007C89.5155 229.448 89.3399 229.871 89.0274 230.183C88.7149 230.494 88.291 230.67 87.849 230.67H66.7583C66.3163 230.67 65.8924 230.494 65.5799 230.183C65.2674 229.871 65.0918 229.448 65.0918 229.007V216.121C65.0918 214.833 65.3463 213.557 65.8409 212.368C66.3354 211.178 67.0603 210.097 67.974 209.186C68.8876 208.276 69.9723 207.555 71.1658 207.063C72.3593 206.571 73.6383 206.318 74.9297 206.32Z" fill="#3F3D56"/>
<path opacity="0.1" d="M74.9296 204.877H79.6893C82.2954 204.877 84.7947 205.91 86.6374 207.748C88.4802 209.586 89.5154 212.079 89.5154 214.678V229.227H65.1035V214.678C65.1035 213.391 65.3577 212.117 65.8515 210.928C66.3453 209.739 67.0691 208.658 67.9815 207.748C68.8939 206.838 69.9772 206.116 71.1693 205.623C72.3615 205.131 73.6392 204.877 74.9296 204.877Z" fill="black"/>
<path d="M76.3328 210.233C77.4116 210.233 78.2862 209.36 78.2862 208.284C78.2862 207.208 77.4116 206.336 76.3328 206.336C75.254 206.336 74.3794 207.208 74.3794 208.284C74.3794 209.36 75.254 210.233 76.3328 210.233Z" fill="#3F3D56"/>
<path d="M76.3328 207.798C77.4116 207.798 78.2862 206.926 78.2862 205.85C78.2862 204.773 77.4116 203.901 76.3328 203.901C75.254 203.901 74.3794 204.773 74.3794 205.85C74.3794 206.926 75.254 207.798 76.3328 207.798Z" fill="#3F3D56"/>
<path d="M76.3328 205.363C77.4116 205.363 78.2862 204.491 78.2862 203.415C78.2862 202.339 77.4116 201.467 76.3328 201.467C75.254 201.467 74.3794 202.339 74.3794 203.415C74.3794 204.491 75.254 205.363 76.3328 205.363Z" fill="#3F3D56"/>
<g opacity="0.1">
<path opacity="0.1" d="M84.5788 178.183C84.3811 178.394 84.1711 178.593 83.95 178.779C84.174 178.779 84.3941 178.744 84.6181 178.721C84.6103 178.54 84.5985 178.36 84.5788 178.183Z" fill="black"/>
<path opacity="0.1" d="M81.0178 175.855C81.5091 175.823 81.9926 175.772 82.4799 175.702C82.9172 175.647 83.3445 175.53 83.7495 175.357C83.5507 174.965 83.322 174.589 83.0656 174.232C82.8211 174.38 82.5563 174.492 82.2795 174.565C81.8941 175.028 81.4722 175.459 81.0178 175.855Z" fill="black"/>
<path opacity="0.1" d="M69.0104 180.038C69.0074 178.551 69.4064 177.092 70.1654 175.813C70.9243 174.534 72.015 173.482 73.3226 172.77C74.6302 172.057 76.1064 171.709 77.5955 171.763C79.0847 171.817 80.5318 172.27 81.7843 173.075L81.9101 172.942C81.0926 172.216 80.1393 171.659 79.1051 171.303C78.0709 170.947 76.9762 170.798 75.8842 170.866C74.7921 170.933 73.7242 171.216 72.7421 171.697C71.7599 172.178 70.8829 172.848 70.1615 173.668C69.4402 174.489 68.8888 175.444 68.5391 176.478C68.1894 177.512 68.0483 178.605 68.124 179.694C68.1996 180.783 68.4906 181.846 68.98 182.822C69.4694 183.798 70.1476 184.668 70.9756 185.381C69.7044 183.89 69.0077 181.995 69.0104 180.038Z" fill="black"/>
</g>
<g opacity="0.1">
<path opacity="0.1" d="M87.8568 189.004C88.3442 188.972 88.8316 188.921 89.315 188.851C89.8978 188.797 90.4601 188.609 90.9579 188.302C91.5098 188.707 91.9699 189.224 92.3085 189.818C92.6471 190.413 92.8565 191.072 92.9231 191.752C92.9422 191.581 92.9514 191.41 92.9507 191.238C92.9544 190.477 92.7784 189.725 92.437 189.044C92.0956 188.363 91.5984 187.772 90.9854 187.318C90.4873 187.624 89.925 187.81 89.3425 187.863L88.9495 187.914C88.6141 188.305 88.2487 188.669 87.8568 189.004Z" fill="black"/>
<path opacity="0.1" d="M88.0533 187.341C88.2164 187.343 88.3791 187.355 88.5407 187.377C88.7962 187.106 89.0477 186.816 89.3032 186.534C88.5806 186.341 87.8233 186.317 87.0899 186.464C86.3565 186.61 85.6667 186.922 85.0739 187.377C84.4811 187.832 84.0012 188.417 83.6713 189.087C83.3415 189.756 83.1706 190.492 83.1718 191.238C83.1718 191.403 83.1718 191.564 83.1953 191.724C83.3162 190.523 83.8802 189.409 84.7779 188.6C85.6756 187.79 86.8429 187.341 88.0533 187.341Z" fill="black"/>
</g>
<g opacity="0.1">
<path opacity="0.1" d="M64.8126 189.004C64.3253 188.972 63.8379 188.921 63.3545 188.851C62.7717 188.797 62.2094 188.609 61.7115 188.302C61.1597 188.707 60.6995 189.224 60.3609 189.818C60.0224 190.413 59.813 191.072 59.7463 191.752C59.7273 191.581 59.7181 191.41 59.7188 191.238C59.7151 190.477 59.8911 189.725 60.2325 189.044C60.5739 188.363 61.0711 187.772 61.684 187.318C62.1822 187.624 62.7445 187.81 63.3269 187.863L63.72 187.914C64.0533 188.307 64.4188 188.671 64.8126 189.004Z" fill="black"/>
<path opacity="0.1" d="M64.6161 187.341C64.4518 187.343 64.2877 187.355 64.1248 187.377C63.8732 187.106 63.6217 186.816 63.3662 186.534C64.0888 186.341 64.8461 186.317 65.5795 186.464C66.3129 186.61 67.0027 186.922 67.5955 187.377C68.1883 187.832 68.6683 188.417 68.9981 189.087C69.328 189.756 69.4989 190.492 69.4977 191.238C69.4977 191.403 69.4977 191.564 69.4741 191.724C69.3533 190.523 68.7893 189.409 67.8916 188.6C66.9939 187.79 65.8265 187.341 64.6161 187.341Z" fill="black"/>
</g>
<path d="M336.319 230.944L279.666 238.42L276.832 238.793L249.134 224.036V220.582L335.69 211.166L336.319 230.944Z" fill="#9C9CA1"/>
<path d="M265.186 225.604L326.56 218.387L325.931 229.689L278.125 233.186L265.186 225.604Z" fill="#939498"/>
<path opacity="0.4" d="M279.666 234.707V238.416L276.832 238.808L249.13 224.036V220.582L275.57 234.696C275.57 234.696 279.037 235.021 279.666 234.707Z" fill="black"/>
<path d="M290.541 175.843L277.823 234.668C277.694 235.257 277.71 235.868 277.868 236.45C278.027 237.031 278.323 237.566 278.733 238.01C279.142 238.453 279.652 238.792 280.22 238.997C280.788 239.202 281.398 239.268 281.997 239.189L362.465 228.564C363.165 228.472 363.826 228.185 364.371 227.736C364.916 227.286 365.323 226.693 365.546 226.024L382.907 173.804C383.099 173.225 383.146 172.608 383.046 172.006C382.945 171.404 382.699 170.835 382.33 170.349C381.96 169.863 381.477 169.474 380.923 169.215C380.369 168.957 379.76 168.836 379.149 168.865L294.047 172.895C293.22 172.934 292.428 173.244 291.794 173.777C291.16 174.31 290.72 175.036 290.541 175.843Z" fill="#3F3D56"/>
<path d="M334.757 197.545C334.954 195.671 334.136 194.05 332.929 193.924C331.723 193.797 330.584 195.213 330.387 197.087C330.189 198.96 331.008 200.581 332.214 200.708C333.421 200.834 334.56 199.418 334.757 197.545Z" fill="white"/>
</g>
<defs>
<clipPath id="clip0">
<rect width="452" height="246" fill="white" transform="translate(-26 0.5)"/>
</clipPath>
</defs>
</svg>
