<svg width="185" height="209" viewBox="0 0 185 209" fill="none" xmlns="http://www.w3.org/2000/svg">
<path d="M184.779 203.994H0.220795V208.704H184.779V203.994Z" fill="#6C63FF"/>
<path d="M84.382 98.1539V116.472L86.848 127.745C86.848 127.745 86.495 134.79 86.848 136.904C87.2 139.017 86.495 142.54 84.382 142.54C82.268 142.54 81.211 147.824 81.211 147.824C81.211 147.824 80.507 149.938 78.746 150.29C76.984 150.642 76.984 150.29 76.984 150.29L75.575 153.812L46.3368 173.187L51.9731 187.278C51.9731 187.278 60.7798 184.108 61.4844 183.051C62.1889 181.994 68.1775 184.46 68.1775 181.994C68.1775 179.528 69.2343 173.187 71.348 172.835C73.462 172.483 91.075 164.381 91.075 164.381C91.075 164.381 100.234 154.165 100.938 150.29C101.643 146.415 104.813 135.494 104.813 135.494L113.62 150.29V179.88L112.211 195.733L127.711 193.619C127.711 193.619 126.302 183.755 127.711 182.346C129.12 180.937 131.234 164.028 129.825 161.915C128.415 159.801 130.529 150.29 129.825 148.881C129.12 147.472 129.472 137.256 127.711 134.438C125.95 131.619 115.382 102.733 115.382 102.733L84.382 98.1539Z" fill="black"/>
<path d="M114.325 195.028C114.325 195.028 109.041 203.835 112.563 204.891C116.086 205.948 122.779 204.891 123.484 204.891C124.188 204.891 136.87 205.244 136.87 205.244C136.87 205.244 145.324 203.482 145.324 201.016C145.324 198.551 140.04 198.551 138.279 198.198C136.518 197.846 125.597 193.619 125.597 193.619L114.325 195.028Z" fill="black"/>
<path d="M47.9545 173.585C47.9545 173.585 37.773 172.236 38.2035 175.889C38.6339 179.541 42.2639 185.263 42.544 185.91C42.7336 186.347 44.9586 191.891 46.375 195.423C47.3988 198.012 48.9369 200.367 50.8965 202.346C52.2814 203.73 53.7908 204.84 54.7807 204.411C57.0435 203.431 54.9432 198.582 54.5664 196.826C54.1895 195.069 53.728 183.369 53.728 183.369L47.9545 173.585Z" fill="black"/>
<path d="M118.728 39.8534L130.001 13.7854C130.001 13.7854 128.944 11.3196 126.478 11.6718C126.478 11.6718 123.131 3.04124 116.79 3.04124C116.79 3.04124 107.279 -2.2428 104.461 3.04124C104.461 3.04124 98.472 8.32528 98.825 13.257C99.177 18.1888 99.529 21.7115 99.529 21.7115C99.529 21.7115 93.893 22.416 94.95 25.2342C96.007 28.0523 96.359 28.0523 94.95 29.1092L93.541 30.166C93.541 30.166 64.3024 56.5861 80.507 95.3358L81.916 101.324V106.961C81.916 106.961 117.495 107.313 117.495 106.961C117.495 106.608 116.79 104.495 118.2 103.086C119.609 101.677 119.609 99.563 119.609 99.563C119.609 99.563 118.2 92.5176 118.904 90.404C119.609 88.2904 119.961 79.1314 118.552 77.0178C117.143 74.9041 117.847 57.9952 117.847 57.9952L121.018 52.0067L119.961 48.484L118.904 44.9613L118.728 39.8534Z" fill="#8985A8"/>
<path opacity="0.1" d="M115.734 110.483C115.734 110.483 111.507 98.8585 111.859 96.7448C112.211 94.6312 111.154 90.404 111.154 90.404L109.745 61.8702C109.745 61.8702 115.734 36.5068 102.348 32.2795C102.348 32.2795 98.96 33.7575 96.185 38.5136C93.441 39.7361 90.11 42.8297 89.314 50.5975C87.904 64.3361 94.245 99.563 97.416 105.552C100.586 111.54 102.7 115.767 102.7 115.767L106.013 114.295C106.15 114.566 106.222 114.711 106.222 114.711L115.734 110.483Z" fill="black"/>
<path d="M117.671 36.6829C118.255 36.6829 118.728 36.2098 118.728 35.6261C118.728 35.0425 118.255 34.5693 117.671 34.5693C117.088 34.5693 116.615 35.0425 116.615 35.6261C116.615 36.2098 117.088 36.6829 117.671 36.6829Z" fill="#F2F2F2"/>
<path d="M118.024 35.6261H117.319V52.1828H118.024V35.6261Z" fill="#3F3D56"/>
<path d="M104.99 111.716L107.808 117.705C107.808 117.705 114.149 115.591 114.149 114.534C114.149 113.478 111.33 108.898 111.33 108.898L104.99 111.716Z" fill="#FFB8B8"/>
<path d="M100.938 32.2795C100.938 32.2795 92.836 35.8022 91.427 49.5407C90.018 63.2792 96.359 98.5061 99.529 104.495C102.7 110.483 104.813 114.711 104.813 114.711L114.325 110.483C114.325 110.483 110.097 98.8584 110.45 96.7448C110.802 94.6312 109.745 90.404 109.745 90.404L108.336 61.8702C108.336 61.8702 114.325 36.5068 100.938 32.2795Z" fill="#8985A8"/>
</svg>
