<svg width="245" height="216" viewBox="0 0 245 216" fill="none" xmlns="http://www.w3.org/2000/svg">
<path d="M214.779 203.994H30.2208V208.704H214.779V203.994Z" fill="#6C63FF"/>
<path d="M114.382 98.1539V116.472L116.848 127.745C116.848 127.745 116.495 134.79 116.848 136.904C117.2 139.017 116.495 142.54 114.382 142.54C112.268 142.54 111.211 147.824 111.211 147.824C111.211 147.824 110.507 149.938 108.746 150.29C106.984 150.642 106.984 150.29 106.984 150.29L105.575 153.812L76.3368 173.187L81.9731 187.278C81.9731 187.278 90.7798 184.108 91.4844 183.051C92.1889 181.994 98.1775 184.46 98.1775 181.994C98.1775 179.528 99.2343 173.187 101.348 172.835C103.462 172.483 121.075 164.381 121.075 164.381C121.075 164.381 130.234 154.165 130.938 150.29C131.643 146.415 134.813 135.494 134.813 135.494L143.62 150.29V179.88L142.211 195.733L157.711 193.619C157.711 193.619 156.302 183.755 157.711 182.346C159.12 180.937 161.234 164.028 159.825 161.915C158.415 159.801 160.529 150.29 159.825 148.881C159.12 147.472 159.472 137.256 157.711 134.438C155.95 131.619 145.382 102.733 145.382 102.733L114.382 98.1539Z" fill="black"/>
<path d="M144.325 195.028C144.325 195.028 139.041 203.835 142.563 204.891C146.086 205.948 152.779 204.891 153.484 204.891C154.188 204.891 166.87 205.244 166.87 205.244C166.87 205.244 175.324 203.482 175.324 201.016C175.324 198.551 170.04 198.551 168.279 198.198C166.518 197.846 155.597 193.619 155.597 193.619L144.325 195.028Z" fill="black"/>
<path d="M77.9545 173.585C77.9545 173.585 67.773 172.236 68.2035 175.889C68.6339 179.541 72.2639 185.263 72.544 185.91C72.7336 186.347 74.9586 191.891 76.375 195.423C77.3988 198.012 78.9369 200.367 80.8965 202.346C82.2814 203.73 83.7908 204.84 84.7807 204.411C87.0435 203.431 84.9432 198.582 84.5664 196.826C84.1895 195.069 83.728 183.369 83.728 183.369L77.9545 173.585Z" fill="black"/>
<path d="M148.728 39.8534L160.001 13.7854C160.001 13.7854 158.944 11.3196 156.478 11.6718C156.478 11.6718 153.131 3.04124 146.79 3.04124C146.79 3.04124 137.279 -2.2428 134.461 3.04124C134.461 3.04124 128.472 8.32528 128.825 13.257C129.177 18.1888 129.529 21.7115 129.529 21.7115C129.529 21.7115 123.893 22.416 124.95 25.2342C126.007 28.0523 126.359 28.0523 124.95 29.1092L123.541 30.166C123.541 30.166 94.3024 56.5861 110.507 95.3358L111.916 101.324V106.961C111.916 106.961 147.495 107.313 147.495 106.961C147.495 106.608 146.79 104.495 148.2 103.086C149.609 101.677 149.609 99.563 149.609 99.563C149.609 99.563 148.2 92.5176 148.904 90.404C149.609 88.2904 149.961 79.1314 148.552 77.0178C147.143 74.9041 147.847 57.9952 147.847 57.9952L151.018 52.0067L149.961 48.484L148.904 44.9613L148.728 39.8534Z" fill="#8985A8"/>
<path opacity="0.1" d="M145.734 110.483C145.734 110.483 141.507 98.8585 141.859 96.7448C142.211 94.6312 141.154 90.404 141.154 90.404L139.745 61.8702C139.745 61.8702 145.734 36.5068 132.348 32.2795C132.348 32.2795 128.96 33.7575 126.185 38.5136C123.441 39.7361 120.11 42.8297 119.314 50.5975C117.904 64.3361 124.245 99.563 127.416 105.552C130.586 111.54 132.7 115.767 132.7 115.767L136.013 114.295C136.15 114.566 136.222 114.711 136.222 114.711L145.734 110.483Z" fill="black"/>
<path d="M147.671 36.6829C148.255 36.6829 148.728 36.2098 148.728 35.6261C148.728 35.0425 148.255 34.5693 147.671 34.5693C147.088 34.5693 146.615 35.0425 146.615 35.6261C146.615 36.2098 147.088 36.6829 147.671 36.6829Z" fill="#F2F2F2"/>
<path d="M148.024 35.6261H147.319V52.1828H148.024V35.6261Z" fill="#3F3D56"/>
<path d="M134.99 111.716L137.808 117.705C137.808 117.705 144.149 115.591 144.149 114.534C144.149 113.478 141.33 108.898 141.33 108.898L134.99 111.716Z" fill="#FFB8B8"/>
<path d="M130.938 32.2795C130.938 32.2795 122.836 35.8022 121.427 49.5407C120.018 63.2792 126.359 98.5061 129.529 104.495C132.7 110.483 134.813 114.711 134.813 114.711L144.325 110.483C144.325 110.483 140.097 98.8584 140.45 96.7448C140.802 94.6312 139.745 90.404 139.745 90.404L138.336 61.8702C138.336 61.8702 144.325 36.5068 130.938 32.2795Z" fill="#8985A8"/>
</svg>
