<svg width="245" height="210" viewBox="0 0 245 210" fill="none" xmlns="http://www.w3.org/2000/svg">
<g opacity="0.5">
<path opacity="0.5" d="M135.185 0.00679016L112.319 151.555L222.003 168.104L244.868 16.5557L135.185 0.00679016Z" fill="url(#paint0_linear)"/>
</g>
<path d="M136.413 1.3342L114.053 149.532L220.946 165.66L243.306 17.462L136.413 1.3342Z" fill="#F5F5F5"/>
<path d="M218.099 79.3912L140.95 67.7511L140.245 72.4274L217.394 84.0675L218.099 79.3912Z" fill="#E0E0E0"/>
<path d="M216.336 91.0793L139.187 79.4392L138.481 84.1155L215.63 95.7556L216.336 91.0793Z" fill="#E0E0E0"/>
<path d="M223.742 41.9847L183.997 35.9882L183.292 40.6644L223.036 46.661L223.742 41.9847Z" fill="#E0E0E0"/>
<path d="M218.473 53.1467L185.742 48.2083L185.036 52.8845L217.767 57.823L218.473 53.1467Z" fill="#6C63FF"/>
<path d="M205.221 101.358L137.422 91.129L136.716 95.8053L204.515 106.035L205.221 101.358Z" fill="#E0E0E0"/>
<path d="M194.103 111.637L135.656 102.819L134.951 107.495L193.397 116.313L194.103 111.637Z" fill="#E0E0E0"/>
<path d="M185.326 122.268L133.893 114.508L133.188 119.184L184.621 126.944L185.326 122.268Z" fill="#E0E0E0"/>
<path d="M197.589 136.074L132.13 126.198L131.424 130.874L196.884 140.75L197.589 136.074Z" fill="#E0E0E0"/>
<path d="M156.084 141.766L130.368 137.886L129.663 142.562L155.378 146.442L156.084 141.766Z" fill="#6C63FF"/>
<g opacity="0.5">
<path opacity="0.5" d="M176.464 42.4199C176.87 39.726 176.572 36.9729 175.598 34.4284C174.625 31.884 173.009 29.6349 170.908 27.9002C168.808 26.1654 166.294 25.004 163.611 24.529C160.928 24.0541 158.169 24.2817 155.6 25.1897C153.031 26.0977 150.742 27.6553 148.954 29.7107C147.165 31.7662 145.94 34.2496 145.396 36.9191C144.853 39.5887 145.009 42.3535 145.851 44.9445C146.693 47.5356 148.191 49.8645 150.2 51.7047C150.2 51.7271 150.2 51.7523 150.2 51.7747C150.635 52.3427 151.179 52.8186 151.799 53.1747L151.83 53.1075C152.466 53.8439 155.392 55.3111 158.928 55.8347H159.006C161.246 56.1763 163.736 56.1455 166.046 55.3111C166.046 55.3111 166.071 55.2719 166.113 55.1991C166.693 55.026 167.241 54.7603 167.737 54.4123L167.787 54.2387C170.083 53.1191 172.072 51.4584 173.583 49.3996C175.095 47.3408 176.084 44.9455 176.464 42.4199Z" fill="url(#paint1_linear)"/>
</g>
<path d="M175.926 41.7748C177.187 33.4153 171.433 25.6161 163.074 24.3548C154.714 23.0935 146.915 28.8478 145.654 37.2073C144.392 45.5669 150.147 53.3661 158.506 54.6274C166.866 55.8886 174.665 50.1344 175.926 41.7748Z" fill="#F5F5F5"/>
<path d="M153.812 44.534C153.812 44.534 150.172 44.2848 150.125 50.9992C150.547 51.5482 151.075 52.0078 151.676 52.3516L154.739 45.7912L153.812 44.534Z" fill="#FDA57D"/>
<path d="M165.516 46.3008C165.516 46.3008 169.078 47.1408 167.135 53.5668C166.569 53.9686 165.93 54.2541 165.253 54.4068L164.259 47.236L165.516 46.3008Z" fill="#FDA57D"/>
<path d="M155.593 33.7932C155.593 33.7932 153.124 38.528 152.258 37.9176C152.258 37.9176 160.115 47.082 169.268 40.4824C168.556 38.6987 167.633 37.0066 166.519 35.4424L155.593 33.7932Z" fill="#333333"/>
<path d="M168.177 35.2165C168.736 31.5115 166.185 28.0549 162.48 27.4958C158.775 26.9368 155.319 29.4872 154.76 33.1921C154.201 36.8971 156.751 40.3538 160.456 40.9128C164.161 41.4718 167.618 38.9215 168.177 35.2165Z" fill="#333333"/>
<path opacity="0.1" d="M165.446 46.2896L153.742 44.5256L151.945 49.042C151.945 49.042 150.976 51.1112 151.631 52.1864C152.286 53.2616 159.412 56.5516 165.351 54.4264C166.017 53.2502 166.279 51.8878 166.096 50.5484C165.802 48.2692 165.964 50.3692 165.964 50.3692L165.446 46.2896Z" fill="black"/>
<path opacity="0.1" d="M165.603 46.3148L153.899 44.5508L152.104 49.0644C152.104 49.0644 151.136 51.1336 151.791 52.2088C152.446 53.284 159.572 56.574 165.511 54.4488C166.177 53.2725 166.439 51.9101 166.256 50.5708C165.962 48.2916 166.124 50.3916 166.124 50.3916L165.603 46.3148Z" fill="black"/>
<path d="M165.516 46.3007L153.812 44.5367L152.015 49.0531C152.015 49.0531 151.046 51.1223 151.701 52.1975C152.356 53.2727 159.482 56.5627 165.421 54.4375C166.087 53.2613 166.349 51.8989 166.166 50.5595C165.872 48.2803 166.034 50.3803 166.034 50.3803L165.516 46.3007Z" fill="#FDD835"/>
<path opacity="0.1" d="M157.985 41.206L162.666 41.9124L162.029 46.1374C161.954 46.6315 161.687 47.0758 161.284 47.3726C160.882 47.6693 160.379 47.7941 159.885 47.7195L158.927 47.575C158.432 47.5004 157.988 47.2326 157.691 46.8304C157.395 46.4283 157.27 45.9247 157.344 45.4305L157.982 41.2056L157.985 41.206Z" fill="black"/>
<path d="M158.008 41.0326L162.689 41.739L162.052 45.964C161.977 46.4581 161.71 46.9025 161.307 47.1992C160.905 47.4959 160.402 47.6207 159.907 47.5461L158.952 47.402C158.458 47.3275 158.014 47.0596 157.717 46.6575C157.42 46.2553 157.296 45.7518 157.37 45.2576L158.008 41.0326Z" fill="#FDA57D"/>
<path opacity="0.1" d="M157.92 41.6948C159.343 42.4862 161.003 42.7415 162.599 42.4144L162.686 41.8404L158.004 41.1348L157.92 41.6948Z" fill="black"/>
<path d="M167.957 36.6717C168.516 32.9667 165.966 29.5101 162.261 28.951C158.556 28.392 155.099 30.9424 154.54 34.6474C153.981 38.3524 156.531 41.809 160.236 42.368C163.941 42.927 167.398 40.3767 167.957 36.6717Z" fill="#FDA57D"/>
<path d="M155.204 32.1384L168 34.0676C168 34.0676 167.686 28.7476 162.8 28.336C157.914 27.9244 155.204 32.1384 155.204 32.1384Z" fill="#333333"/>
<path d="M155.343 34.4736C155.44 33.8268 155.241 33.2604 154.897 33.2085C154.552 33.1566 154.194 33.6388 154.097 34.2856C153.999 34.9325 154.199 35.4989 154.543 35.5508C154.887 35.6027 155.245 35.1204 155.343 34.4736Z" fill="#FDA57D"/>
<path d="M168.451 36.4524C168.549 35.8056 168.349 35.2391 168.005 35.1872C167.661 35.1353 167.303 35.6176 167.205 36.2644C167.107 36.9112 167.307 37.4776 167.651 37.5295C167.995 37.5814 168.353 37.0992 168.451 36.4524Z" fill="#FDA57D"/>
<path opacity="0.1" d="M155.184 32.312L167.98 34.2412C167.98 34.2412 167.667 28.9212 162.781 28.5096C157.895 28.098 155.184 32.312 155.184 32.312Z" fill="black"/>
<g opacity="0.5">
<path opacity="0.5" d="M109.907 21.7813L0.0919189 39.5293L24.6141 191.26L134.43 173.512L109.907 21.7813Z" fill="url(#paint2_linear)"/>
</g>
<path d="M108.256 22.6673L1.57788 40.1556L25.8242 188.057L132.503 170.569L108.256 22.6673Z" fill="#F5F5F5"/>
<path d="M103.311 89.332L26.3169 101.954L27.082 106.621L104.076 93.9989L103.311 89.332Z" fill="#E0E0E0"/>
<path d="M105.224 100.999L28.2292 113.621L28.9943 118.288L105.989 105.666L105.224 100.999Z" fill="#E0E0E0"/>
<path d="M97.1941 52.0017L57.5295 58.5042L58.2946 63.1711L97.9591 56.6686L97.1941 52.0017Z" fill="#E0E0E0"/>
<path d="M95.6055 64.2421L62.9399 69.5972L63.705 74.2641L96.3706 68.909L95.6055 64.2421Z" fill="#6C63FF"/>
<path d="M97.8048 114.194L30.1416 125.287L30.9067 129.954L98.5699 118.861L97.8048 114.194Z" fill="#E0E0E0"/>
<path d="M90.383 127.388L32.0536 136.95L32.8187 141.617L91.148 132.055L90.383 127.388Z" fill="#E0E0E0"/>
<path d="M85.2966 140.203L33.9662 148.618L34.7313 153.285L86.0617 144.87L85.2966 140.203Z" fill="#E0E0E0"/>
<path d="M101.207 149.572L35.8788 160.282L36.6439 164.949L101.972 154.239L101.207 149.572Z" fill="#E0E0E0"/>
<path d="M63.4569 167.742L37.7931 171.949L38.5582 176.616L64.222 172.409L63.4569 167.742Z" fill="#6C63FF"/>
<g opacity="0.5">
<path opacity="0.5" d="M53.7712 65.9289C53.3177 63.1651 52.1565 60.5659 50.4005 58.384C48.6445 56.2022 46.3536 54.5121 43.7508 53.4782C41.1479 52.4444 38.3217 52.1019 35.5472 52.4843C32.7728 52.8667 30.1445 53.9608 27.9183 55.6601C25.6921 57.3595 23.9437 59.6062 22.8434 62.1817C21.743 64.7572 21.3282 67.5737 21.6391 70.357C21.9501 73.1404 22.9764 75.7958 24.618 78.065C26.2597 80.3341 28.4608 82.1395 31.0072 83.3057L31.0296 83.3757C31.6346 83.7909 32.316 84.0822 33.0344 84.2325V84.1569C33.8884 84.6777 37.2148 85.1901 40.8408 84.5853H40.9192C43.218 84.2129 45.6428 83.3953 47.6392 81.8497C47.6392 81.8497 47.6392 81.8049 47.6672 81.7209C48.1804 81.3684 48.6333 80.9354 49.0084 80.4385C49.0084 80.375 49.0084 80.3134 49.0084 80.2537C50.905 78.4316 52.3297 76.1754 53.1595 73.6797C53.9893 71.184 54.1992 68.5238 53.7712 65.9289Z" fill="url(#paint3_linear)"/>
</g>
<path d="M40.3112 84.0765C48.8875 82.6706 54.7001 74.5784 53.2942 66.0021C51.8882 57.4258 43.796 51.6132 35.2198 53.0191C26.6435 54.4251 20.8308 62.5173 22.2367 71.0935C23.6427 79.6698 31.7349 85.4825 40.3112 84.0765Z" fill="#F5F5F5"/>
<path d="M32.0377 75.7261C32.0377 75.7261 28.3977 76.6361 30.4697 83.2161C31.0563 83.6222 31.7178 83.9077 32.4157 84.0561L33.3425 76.6697L32.0377 75.7261Z" fill="#4D8AF0"/>
<path d="M44.044 73.7576C44.044 73.7576 47.7932 73.4524 47.9192 80.3572C47.491 80.9232 46.9553 81.3989 46.3428 81.7572L43.106 75.054L44.044 73.7576Z" fill="#4D8AF0"/>
<path d="M37.3813 70.0788C41.1827 69.4556 43.7591 65.8688 43.1359 62.0675C42.5127 58.2662 38.926 55.6898 35.1246 56.3129C31.3233 56.9361 28.7469 60.5229 29.3701 64.3242C29.9932 68.1255 33.58 70.7019 37.3813 70.0788Z" fill="#333333"/>
<path d="M43.974 73.7688L31.9676 75.7288L31.6344 80.7156C31.6344 80.7156 31.3544 83.048 32.3204 83.8908C33.2864 84.7336 41.314 85.7052 46.4352 81.7404C46.7155 80.3793 46.5414 78.9638 45.9396 77.7112C44.9316 75.5748 45.752 77.5768 45.752 77.5768L43.974 73.7688Z" fill="#4D8AF0"/>
<path d="M44.1337 73.7435L32.1273 75.7035L31.7941 80.6903C31.7941 80.6903 31.5141 83.0227 32.4801 83.8655C33.4461 84.7083 41.4737 85.6799 46.5949 81.7151C46.8752 80.354 46.7011 78.9385 46.0993 77.6859C45.0913 75.5495 45.9117 77.5515 45.9117 77.5515L44.1337 73.7435Z" fill="#4D8AF0"/>
<path d="M44.0441 73.7577L32.0377 75.7177L31.7045 80.7129C31.7045 80.7129 31.4245 83.0453 32.3905 83.8881C33.3565 84.7309 41.3841 85.7025 46.5053 81.7377C46.7856 80.3766 46.6115 78.9611 46.0097 77.7085C45.0017 75.5721 45.8221 77.5741 45.8221 77.5741L44.0441 73.7577Z" fill="#4D8AF0"/>
<path opacity="0.1" d="M35.071 71.1347L39.8733 70.3474L40.5922 74.7325C40.673 75.2257 40.5546 75.7308 40.2631 76.1367C39.9715 76.5426 39.5306 76.8161 39.0374 76.8969L37.9515 77.0749C37.4583 77.1558 36.9532 77.0374 36.5473 76.7458C36.1414 76.4543 35.868 76.0134 35.7871 75.5202L35.0682 71.1351L35.071 71.1347Z" fill="black"/>
<path d="M35.0423 70.9568L39.8446 70.1696L40.5635 74.5546C40.6443 75.0478 40.526 75.5529 40.2344 75.9588C39.9428 76.3648 39.5019 76.6382 39.0088 76.7191L37.9229 76.8971C37.4297 76.9779 36.9246 76.8596 36.5186 76.568C36.1127 76.2764 35.8393 75.8355 35.7584 75.3423L35.0396 70.9573L35.0423 70.9568Z" fill="#FDA57D"/>
<path opacity="0.1" d="M35.1597 71.6493C36.8021 71.9746 38.5068 71.7004 39.9644 70.8764L39.8664 70.2856L35.0645 71.0752L35.1597 71.6493Z" fill="black"/>
<path d="M37.6284 71.5731C41.4297 70.95 44.0061 67.3632 43.383 63.5619C42.7598 59.7605 39.173 57.1841 35.3717 57.8073C31.5704 58.4305 28.994 62.0172 29.6171 65.8186C30.2403 69.6199 33.8271 72.1963 37.6284 71.5731Z" fill="#FDA57D"/>
<path opacity="0.1" d="M29.5148 63.3332L42.644 61.1828C42.644 61.1828 40.6532 56.0644 35.7476 57.218C30.842 58.3716 29.5148 63.3332 29.5148 63.3332Z" fill="black"/>
<path d="M29.484 63.1568L42.6244 61.0036C42.6244 61.0036 40.6336 55.8852 35.728 57.0388C30.8224 58.1924 29.484 63.1568 29.484 63.1568Z" fill="#333333"/>
<path d="M29.9887 67.1157C30.3438 67.0583 30.5445 66.4719 30.4369 65.8059C30.3293 65.14 29.9541 64.6466 29.5989 64.704C29.2437 64.7615 29.0431 65.3479 29.1507 66.0138C29.2583 66.6798 29.6335 67.1731 29.9887 67.1157Z" fill="#FDA57D"/>
<path d="M43.353 64.4974C43.707 64.4394 43.9058 63.8542 43.797 63.1904C43.6882 62.5266 43.313 62.0355 42.9589 62.0935C42.6049 62.1516 42.4061 62.7367 42.5149 63.4006C42.6237 64.0644 42.999 64.5555 43.353 64.4974Z" fill="#FDA57D"/>
<g opacity="0.5">
<path opacity="0.5" d="M190.061 46.3317H79.1364V199.595H190.061V46.3317Z" fill="url(#paint4_linear)"/>
</g>
<path d="M188.65 47.46H80.5476V197.336H188.65V47.46Z" fill="white"/>
<g opacity="0.5">
<path opacity="0.5" d="M94.9844 81.7516C94.9847 78.888 95.7263 76.0732 97.1372 73.5813C98.548 71.0893 100.58 69.005 103.035 67.5313C105.49 66.0576 108.285 65.2446 111.148 65.1715C114.011 65.0984 116.844 65.7677 119.371 67.1142C121.898 68.4607 124.034 70.4385 125.57 72.8552C127.106 75.2719 127.991 78.0452 128.137 80.905C128.284 83.7649 127.687 86.614 126.406 89.1749C125.125 91.7359 123.202 93.9216 120.826 95.5192V95.592C120.284 96.1119 119.644 96.5193 118.944 96.7904L118.922 96.7176C118.146 97.384 114.876 98.4508 111.118 98.4396H111.037C108.657 98.4396 106.075 98.0196 103.802 96.7904C103.802 96.7904 103.782 96.7456 103.751 96.6644C103.175 96.3936 102.647 96.0314 102.186 95.592L102.161 95.4044C99.9473 93.8811 98.1374 91.8423 96.8872 89.4639C95.637 87.0854 94.984 84.4386 94.9844 81.7516Z" fill="url(#paint5_linear)"/>
</g>
<path d="M111.569 97.8405C120.454 97.8405 127.658 90.6373 127.658 81.7516C127.658 72.866 120.454 65.6628 111.569 65.6628C102.683 65.6628 95.48 72.866 95.48 81.7516C95.48 90.6373 102.683 97.8405 111.569 97.8405Z" fill="#F5F5F5"/>
<path d="M105.258 87.8807C105.258 87.8807 101.424 88.1915 102.438 95.1915C102.964 95.6958 103.584 96.0907 104.264 96.3535L106.42 89.0539L105.258 87.8807Z" fill="#BE7C5E"/>
<path d="M117.698 87.8807C117.698 87.8807 121.531 88.1915 120.518 95.1915C119.992 95.6958 119.371 96.0907 118.692 96.3535L116.544 89.0315L117.698 87.8807Z" fill="#BE7C5E"/>
<path d="M105.423 76.4316C105.423 76.4316 105.129 77.2912 104.709 78.2852C103.796 80.458 104.838 88.8077 107.022 89.6981C109.472 90.6977 112.694 91.3361 116.04 90.1152C118.95 89.054 119.846 79.5508 117.79 77.2352C117.55 76.9552 117.298 76.6948 117.034 76.4316H105.423Z" fill="#333333"/>
<path d="M111.58 83.0676C115.519 83.0676 118.712 79.8747 118.712 75.936C118.712 71.9974 115.519 68.8044 111.58 68.8044C107.641 68.8044 104.448 71.9974 104.448 75.936C104.448 79.8747 107.641 83.0676 111.58 83.0676Z" fill="#333333"/>
<path opacity="0.1" d="M117.625 87.8807H105.185L104.023 92.8563C104.023 92.8563 103.34 95.1607 104.188 96.1743C105.036 97.1879 112.96 99.4923 118.784 96.3395C119.292 95.0126 119.35 93.5558 118.95 92.1927C118.286 89.8715 118.784 92.0275 118.784 92.0275L117.625 87.8807Z" fill="black"/>
<path opacity="0.1" d="M117.79 87.8807H105.344L104.182 92.8563C104.182 92.8563 103.499 95.1607 104.348 96.1743C105.196 97.1879 113.12 99.4923 118.944 96.3395C119.451 95.0126 119.509 93.5558 119.109 92.1927C118.446 89.8715 118.944 92.0275 118.944 92.0275L117.79 87.8807Z" fill="black"/>
<path d="M117.698 87.8807H105.258L104.096 92.8563C104.096 92.8563 103.412 95.1607 104.261 96.1743C105.109 97.1879 113.033 99.4923 118.857 96.3395C119.365 95.0126 119.423 93.5558 119.022 92.1927C118.359 89.8715 118.857 92.0275 118.857 92.0275L117.698 87.8807Z" fill="#3AD29F"/>
<path opacity="0.1" d="M109.074 83.7509H114.05V88.3373C114.05 88.837 113.851 89.3163 113.498 89.6697C113.144 90.0231 112.665 90.2217 112.165 90.2217H110.956C110.456 90.2217 109.976 90.0231 109.623 89.6697C109.27 89.3163 109.071 88.837 109.071 88.3373V83.7509H109.074Z" fill="black"/>
<path d="M109.074 83.566H114.05V88.1524C114.05 88.6522 113.851 89.1315 113.498 89.4849C113.144 89.8383 112.665 90.0368 112.165 90.0368H110.956C110.456 90.0368 109.976 89.8383 109.623 89.4849C109.27 89.1315 109.071 88.6522 109.071 88.1524V83.566H109.074Z" fill="#BE7C5E"/>
<path opacity="0.1" d="M109.082 84.2715C110.688 84.8661 112.453 84.8661 114.058 84.2715V83.6611H109.082V84.2715Z" fill="black"/>
<path d="M111.58 84.616C115.519 84.616 118.712 81.4231 118.712 77.4844C118.712 73.5457 115.519 70.3528 111.58 70.3528C107.641 70.3528 104.448 73.5457 104.448 77.4844C104.448 81.4231 107.641 84.616 111.58 84.616Z" fill="#BE7C5E"/>
<path d="M104.759 74.7768H118.362C118.362 74.7768 117.2 69.2832 112.059 69.636C106.918 69.9888 104.759 74.7768 104.759 74.7768Z" fill="#333333"/>
<path d="M104.597 78.4252C104.963 78.4252 105.26 77.8686 105.26 77.182C105.26 76.4954 104.963 75.9388 104.597 75.9388C104.23 75.9388 103.933 76.4954 103.933 77.182C103.933 77.8686 104.23 78.4252 104.597 78.4252Z" fill="#BE7C5E"/>
<path d="M118.53 78.4252C118.896 78.4252 119.193 77.8686 119.193 77.182C119.193 76.4954 118.896 75.9388 118.53 75.9388C118.163 75.9388 117.866 76.4954 117.866 77.182C117.866 77.8686 118.163 78.4252 118.53 78.4252Z" fill="#BE7C5E"/>
<path opacity="0.1" d="M104.759 74.9588H118.362C118.362 74.9588 117.2 69.4653 112.059 69.8181C106.918 70.1709 104.759 74.9588 104.759 74.9588Z" fill="black"/>
<path d="M172.984 112.448H94.962V117.177H172.984V112.448Z" fill="#E0E0E0"/>
<path d="M172.984 124.27H94.962V128.999H172.984V124.27Z" fill="#E0E0E0"/>
<path d="M172.987 74.62H132.793V79.3492H172.987V74.62Z" fill="#E0E0E0"/>
<path d="M169.439 86.4417H136.338V91.1708H169.439V86.4417Z" fill="#6C63FF"/>
<path d="M163.528 136.091H94.962V140.82H163.528V136.091Z" fill="#E0E0E0"/>
<path d="M154.07 147.913H94.962V152.642H154.07V147.913Z" fill="#E0E0E0"/>
<path d="M146.978 159.737H94.962V164.466H146.978V159.737Z" fill="#E0E0E0"/>
<path d="M161.162 171.559H94.962V176.288H161.162V171.559Z" fill="#E0E0E0"/>
<path d="M120.968 183.38H94.962V188.11H120.968V183.38Z" fill="#6C63FF"/>
<g opacity="0.5">
<path opacity="0.5" d="M182.58 209.426C195.63 209.426 206.209 198.847 206.209 185.797C206.209 172.747 195.63 162.168 182.58 162.168C169.53 162.168 158.95 172.747 158.95 185.797C158.95 198.847 169.53 209.426 182.58 209.426Z" fill="url(#paint6_linear)"/>
</g>
<path d="M172.928 182.829L181.266 190.473L193.08 173.102L197.252 176.576L181.266 197.422L169.453 184.22L172.928 182.829Z" fill="white"/>
<path d="M186.528 208.027C199.231 208.027 209.528 197.73 209.528 185.027C209.528 172.324 199.231 162.027 186.528 162.027C173.825 162.027 163.528 172.324 163.528 185.027C163.528 197.73 173.825 208.027 186.528 208.027Z" fill="#D36B6B"/>
<g opacity="0.5">
<path opacity="0.5" d="M202.066 173.36L198.195 169.489L170.99 196.694L174.861 200.564L202.066 173.36Z" fill="#5A1919"/>
<path opacity="0.5" d="M198.2 200.561L202.063 196.698L174.858 169.493L170.995 173.357L198.2 200.561Z" fill="#5A1919"/>
</g>
<defs>
<linearGradient id="paint0_linear" x1="167.161" y1="159.83" x2="190.026" y2="8.28125" gradientUnits="userSpaceOnUse">
<stop stop-color="#808080" stop-opacity="0.25"/>
<stop offset="0.54" stop-color="#808080" stop-opacity="0.12"/>
<stop offset="1" stop-color="#808080" stop-opacity="0.1"/>
</linearGradient>
<linearGradient id="paint1_linear" x1="18494.3" y1="23214.8" x2="19029.9" y2="19665.1" gradientUnits="userSpaceOnUse">
<stop stop-color="#808080" stop-opacity="0.25"/>
<stop offset="0.54" stop-color="#808080" stop-opacity="0.12"/>
<stop offset="1" stop-color="#808080" stop-opacity="0.1"/>
</linearGradient>
<linearGradient id="paint2_linear" x1="61610.3" y1="50035.1" x2="48187.6" y2="-33017.9" gradientUnits="userSpaceOnUse">
<stop stop-color="#808080" stop-opacity="0.25"/>
<stop offset="0.54" stop-color="#808080" stop-opacity="0.12"/>
<stop offset="1" stop-color="#808080" stop-opacity="0.1"/>
</linearGradient>
<linearGradient id="paint3_linear" x1="12710.7" y1="-1251.89" x2="12099" y2="-4982.98" gradientUnits="userSpaceOnUse">
<stop stop-color="#808080" stop-opacity="0.25"/>
<stop offset="0.54" stop-color="#808080" stop-opacity="0.12"/>
<stop offset="1" stop-color="#808080" stop-opacity="0.1"/>
</linearGradient>
<linearGradient id="paint4_linear" x1="53401.8" y1="109299" x2="53401.8" y2="25406.9" gradientUnits="userSpaceOnUse">
<stop stop-color="#808080" stop-opacity="0.25"/>
<stop offset="0.54" stop-color="#808080" stop-opacity="0.12"/>
<stop offset="1" stop-color="#808080" stop-opacity="0.1"/>
</linearGradient>
<linearGradient id="paint5_linear" x1="16853.1" y1="14292.9" x2="16853.1" y2="10338.4" gradientUnits="userSpaceOnUse">
<stop stop-color="#808080" stop-opacity="0.25"/>
<stop offset="0.54" stop-color="#808080" stop-opacity="0.12"/>
<stop offset="1" stop-color="#808080" stop-opacity="0.1"/>
</linearGradient>
<linearGradient id="paint6_linear" x1="30974.7" y1="35508.6" x2="30974.7" y2="27532.8" gradientUnits="userSpaceOnUse">
<stop stop-color="#808080" stop-opacity="0.25"/>
<stop offset="0.54" stop-color="#808080" stop-opacity="0.12"/>
<stop offset="1" stop-color="#808080" stop-opacity="0.1"/>
</linearGradient>
</defs>
</svg>
