<svg width="289" height="204" viewBox="0 0 289 204" fill="none" xmlns="http://www.w3.org/2000/svg">
<path d="M128.934 203.377C150.989 203.377 168.868 200.509 168.868 196.97C168.868 193.431 150.989 190.563 128.934 190.563C106.879 190.563 89 193.431 89 196.97C89 200.509 106.879 203.377 128.934 203.377Z" fill="#F2F2F2"/>
<path d="M132.063 199.652C154.118 199.652 171.997 196.784 171.997 193.245C171.997 189.706 154.118 186.838 132.063 186.838C110.008 186.838 92.1292 189.706 92.1292 193.245C92.1292 196.784 110.008 199.652 132.063 199.652Z" stroke="#3F3D56" stroke-miterlimit="10"/>
<path d="M123.581 9.19531H17.0948C13.3355 9.19531 10.2881 12.2428 10.2881 16.002V73.9118C10.2881 77.671 13.3355 80.7185 17.0948 80.7185H123.581C127.34 80.7185 130.387 77.671 130.387 73.9118V16.002C130.387 12.2428 127.34 9.19531 123.581 9.19531Z" fill="#6C63FF"/>
<path d="M281.23 66.4138H174.744C170.985 66.4138 167.937 69.4613 167.937 73.2205V131.13C167.937 134.89 170.985 137.937 174.744 137.937H281.23C284.989 137.937 288.036 134.89 288.036 131.13V73.2205C288.036 69.4613 284.989 66.4138 281.23 66.4138Z" fill="#F2F2F2"/>
<path d="M114.342 1.14893H7.85637C4.09714 1.14893 1.04968 4.19638 1.04968 7.95561V65.8654C1.04968 69.6246 4.09714 72.6721 7.85637 72.6721H114.342C118.102 72.6721 121.149 69.6246 121.149 65.8654V7.95561C121.149 4.19638 118.102 1.14893 114.342 1.14893Z" stroke="#3F3D56" stroke-miterlimit="10"/>
<path d="M271.991 58.3677H165.505C161.746 58.3677 158.699 61.4151 158.699 65.1744V123.084C158.699 126.843 161.746 129.891 165.505 129.891H271.991C275.751 129.891 278.798 126.843 278.798 123.084V65.1744C278.798 61.4151 275.751 58.3677 271.991 58.3677Z" stroke="#3F3D56" stroke-miterlimit="10"/>
<path d="M155.308 82.0859C155.308 82.0859 155.904 86.5561 154.414 88.3441C152.924 90.1322 150.54 102.053 150.54 102.053V109.205C150.54 109.205 159.778 95.7945 161.566 90.4302C163.354 85.066 161.566 80.8938 161.566 80.8938L155.308 82.0859Z" fill="#FFC1C7"/>
<path d="M154.414 60.033L154.54 60.1746C156.079 61.9053 157.287 63.9041 158.103 66.0714C160.059 71.2666 164.265 84.0728 162.758 85.3641C160.672 87.1522 154.712 88.3442 154.414 88.0462C154.116 87.7482 148.156 69.2714 148.156 69.2714L154.414 60.033Z" fill="#3F3D56"/>
<path d="M144.729 186.688C144.729 186.688 151.881 188.179 152.179 186.688C152.369 185.762 152.67 184.862 153.073 184.006C153.073 184.006 159.556 184.276 157.863 189.96C157.693 190.52 157.323 190.998 156.823 191.301C155.279 192.246 151.642 194.474 149.795 195.629C148.406 196.497 146.411 195.848 144.987 195.155C144.477 194.905 144.064 194.493 143.812 193.983C143.561 193.473 143.486 192.895 143.599 192.338L144.729 186.688Z" fill="#3F3D56"/>
<path d="M124.166 187.583C124.166 187.583 117.013 189.073 116.715 187.583C116.525 186.656 116.225 185.756 115.821 184.9C115.821 184.9 109.351 185.17 111.026 190.837C111.198 191.408 111.576 191.895 112.086 192.204C113.638 193.154 117.258 195.372 119.099 196.523C120.62 197.473 122.868 196.605 124.297 195.852C124.694 195.645 125.013 195.314 125.207 194.911C125.4 194.507 125.458 194.051 125.372 193.612L124.166 187.583Z" fill="#3F3D56"/>
<path d="M115.225 85.9601C115.225 85.9601 114.629 90.4303 116.119 92.2184C117.609 94.0065 119.993 100.861 119.993 100.861V108.013C119.993 108.013 110.755 99.6687 108.967 94.3045C107.179 88.9402 108.967 84.7681 108.967 84.7681L115.225 85.9601Z" fill="#FFC1C7"/>
<path d="M136.086 49.3045C140.201 49.3045 143.537 45.9688 143.537 41.8541C143.537 37.7394 140.201 34.4038 136.086 34.4038C131.971 34.4038 128.636 37.7394 128.636 41.8541C128.636 45.9688 131.971 49.3045 136.086 49.3045Z" fill="#FFC1C7"/>
<path d="M142.046 44.8341C142.046 44.8341 139.96 54.3706 142.046 55.5626C144.132 56.7547 129.53 55.5626 129.53 55.5626C129.53 55.5626 132.808 47.5163 131.318 44.8341C129.828 42.152 142.046 44.8341 142.046 44.8341Z" fill="#FFC1C7"/>
<path d="M149.199 108.311C149.199 108.311 151.881 112.185 150.987 124.106C150.093 136.026 149.199 148.543 149.199 148.543C149.199 148.543 155.755 186.093 153.669 186.987C151.583 187.881 144.728 188.775 143.834 187.881C142.94 186.987 138.768 152.119 138.768 152.119L134.894 123.51L128.934 156.291C128.934 156.291 125.656 188.179 123.272 189.669C121.567 190.734 118.188 189.972 116.399 189.45C116.063 189.354 115.77 189.147 115.566 188.864C115.362 188.581 115.259 188.238 115.274 187.889C115.492 182.874 116.473 163.084 118.801 150.927C121.483 136.92 116.119 108.907 120.887 108.311C125.656 107.715 149.199 108.311 149.199 108.311Z" fill="#2F2E41"/>
<path d="M128.338 54.3706C128.338 54.3706 129.53 49.0064 134 49.6024C138.47 50.1984 141.45 49.9004 142.344 52.8805C143.238 55.8607 152.775 58.2448 152.775 58.2448C152.775 58.2448 155.159 58.5428 154.861 62.4169C154.563 66.2911 148.603 80.5957 148.603 80.5957C148.603 80.5957 148.901 92.5163 150.391 97.8805C151.881 103.245 151.881 109.801 148.603 111.291C145.325 112.781 124.762 118.145 119.993 111.589C119.993 111.589 117.311 102.053 119.099 98.1785C120.888 94.3043 118.801 79.1057 118.801 79.1057L113.139 66.5891C113.139 66.5891 114.927 60.6289 119.993 58.8408C122.992 57.7965 125.807 56.2881 128.338 54.3706Z" fill="#3F3D56"/>
<path d="M115.523 63.907L113.139 66.5891C113.139 66.5891 105.987 84.1719 108.073 85.96C110.159 87.748 116.119 88.9401 116.417 88.6421C116.715 88.3441 121.781 73.1454 121.781 73.1454L115.523 63.907Z" fill="#3F3D56"/>
<path d="M144.729 37.3838C144.729 37.3838 143.536 38.2778 143.238 40.3639C142.94 42.45 141.11 39.1753 140.684 43.4948C140.258 47.8142 133.106 50.7944 130.424 48.7083C127.742 46.6222 123.272 33.5096 129.53 31.4235C135.788 29.3374 142.046 29.6354 143.238 31.7215C144.431 33.8076 144.729 37.3838 144.729 37.3838Z" fill="#2F2E41"/>
<path opacity="0.1" d="M138.896 43.4949C139.322 39.1755 141.152 42.4502 141.45 40.3641C141.748 38.278 142.94 37.384 142.94 37.384C142.94 37.384 142.642 33.8078 141.45 31.7217C140.88 30.7236 139.148 30.1361 136.813 30.022C140.035 29.8744 142.53 30.4826 143.238 31.7217C144.431 33.8078 144.729 37.384 144.729 37.384C144.729 37.384 143.537 38.278 143.238 40.3641C142.94 42.4502 141.11 39.1755 140.684 43.4949C140.323 47.1569 135.129 49.8548 131.921 49.3206C134.978 48.9008 138.597 46.5299 138.896 43.4949Z" fill="black"/>
</svg>
