<svg width="375" height="242" viewBox="0 0 375 242" fill="none" xmlns="http://www.w3.org/2000/svg">
<g clip-path="url(#clip0)">
<rect x="-11.8607" y="211.322" width="397.383" height="44.9691" transform="rotate(-1.61686 -11.8607 211.322)" fill="#5C506C"/>
<path d="M191.373 208.566V213.035L148.912 222.72L144.763 221.762L144.07 221.602L113.528 205.214L191.373 208.566Z" fill="#9493B6"/>
<path opacity="0.1" d="M191.373 208.566V213.035L148.912 222.72L144.763 221.762L144.07 217.133L191.373 208.566Z" fill="black"/>
<path d="M142.58 215.643C143.325 215.27 158.969 212.291 158.969 212.291L130.661 209.683L142.58 215.643Z" fill="#47465A"/>
<path d="M291.828 50.2903C292.95 54.7104 292.096 59.4639 290.196 63.6096C288.296 67.7553 285.409 71.3688 282.355 74.7551C280.818 76.4589 279.155 78.27 278.829 80.5412C278.394 83.5694 280.436 86.3099 281.808 89.0446C283.007 91.4396 283.734 94.0429 283.95 96.7126C284.135 99.0052 283.848 101.532 282.242 103.178C280.694 104.766 278.316 105.15 276.108 105.355C270.027 105.92 263.901 105.772 257.855 104.914C259.549 102.661 258.912 101.263 258.753 98.4476C258.441 92.9253 254.422 87.9257 253.641 82.4499C253.021 78.0965 255.903 74.1 258.627 70.6479L271.117 54.8187C273.186 52.1957 275.247 49.4941 276.733 46.4869C277.795 44.3379 277.995 40.3033 280.666 39.5868C285.701 38.2367 290.849 46.435 291.828 50.2903Z" fill="#47465A"/>
<path d="M230.536 63.3374C230.536 63.3374 221.92 88.7546 217.612 90.4778C213.304 92.201 243.46 123.219 243.46 123.219L265.431 112.449L266.292 91.7702L257.676 91.3394C257.676 91.3394 256.384 82.7234 260.692 78.4154C265 74.1074 230.536 63.3374 230.536 63.3374Z" fill="#FBBEBE"/>
<path opacity="0.1" d="M230.536 63.3374C230.536 63.3374 221.92 88.7546 217.612 90.4778C213.304 92.201 243.46 123.219 243.46 123.219L265.431 112.449L266.292 91.7702L257.676 91.3394C257.676 91.3394 256.384 82.7234 260.692 78.4154C265 74.1074 230.536 63.3374 230.536 63.3374Z" fill="black"/>
<path d="M240.444 106.417C240.444 106.417 221.92 93.9242 221.058 83.585C221.058 83.585 207.273 92.6318 202.965 92.201C198.657 91.7702 187.025 94.355 187.025 96.0782C187.025 97.8014 197.795 146.482 197.795 146.482C197.795 146.482 190.041 167.16 193.918 173.622C197.795 180.084 199.949 210.24 199.949 210.24H289.555C289.555 210.24 277.493 189.131 283.955 174.053C290.417 158.975 293.002 95.6474 293.002 95.6474C293.002 95.6474 288.263 92.201 283.524 93.0626C278.785 93.9242 273.185 90.4778 269.738 90.047C266.292 89.6162 258.482 91.3797 258.482 91.3797L240.444 106.417Z" fill="#6C63FF"/>
<path d="M330.912 210.24L280.448 203.692L190.714 206.966L223.212 217.133L330.912 210.24Z" fill="#F2F2F2"/>
<path d="M253.799 85.3082C269.264 85.3082 281.801 72.7713 281.801 57.3063C281.801 41.8412 269.264 29.3044 253.799 29.3044C238.334 29.3044 225.797 41.8412 225.797 57.3063C225.797 72.7713 238.334 85.3082 253.799 85.3082Z" fill="#FBBEBE"/>
<path d="M172.378 183.961C172.378 183.961 147.392 194.731 141.36 191.715C135.329 188.7 117.236 180.946 111.635 196.885C107.119 209.739 133.484 210.546 143.859 210.377C145.114 210.357 146.349 210.064 147.48 209.52C148.61 208.976 149.609 208.192 150.407 207.224L186.379 194.946C186.379 194.946 178.409 181.376 172.378 183.961Z" fill="#FBBEBE"/>
<path d="M243.029 164.144L246.045 166.729L218.043 206.363C218.043 206.363 213.735 206.793 215.027 204.639L243.029 164.144Z" fill="#47465A"/>
<path d="M244.752 166.729L247.768 162.852L246.476 161.99L243.46 165.437L244.752 166.729Z" fill="#47465A"/>
<path d="M193.702 93.278C193.702 93.278 179.055 95.8628 179.486 107.064C179.917 118.264 176.255 130.973 172.809 137.004C169.362 143.035 171.947 147.774 172.809 155.959C173.67 164.144 168.501 172.76 171.086 177.068C173.67 181.376 143.084 184.392 143.084 188.7C143.084 193.008 162.47 201.193 159.023 206.793C156.544 210.823 174.021 204.037 184.023 199.913C186.627 198.863 188.94 197.199 190.765 195.065C192.589 192.93 193.872 190.386 194.504 187.65C194.806 186.277 194.887 185.038 194.564 184.177C193.272 180.73 208.565 176.207 208.996 167.591C209.427 158.975 206.842 150.359 204.688 141.743C202.534 133.127 193.702 93.278 193.702 93.278Z" fill="#6C63FF"/>
<path d="M278.355 183.961C278.355 183.961 253.368 194.731 247.337 191.716C241.306 188.7 223.212 180.946 217.612 196.885C213.095 209.739 239.46 210.546 249.836 210.377C251.091 210.357 252.326 210.064 253.456 209.52C254.587 208.976 255.586 208.192 256.384 207.224L293.002 203.347C293.002 203.347 284.386 181.376 278.355 183.961Z" fill="#FBBEBE"/>
<path opacity="0.1" d="M293.217 102.325C293.217 102.325 299.464 93.9242 302.479 101.679C305.495 109.433 305.064 139.589 305.064 139.589C305.064 139.589 310.234 154.667 308.51 164.575C306.787 174.484 310.234 175.776 310.234 175.776C310.234 175.776 311.095 180.084 308.51 182.238C305.926 184.392 304.202 193.87 305.064 195.162C305.926 196.454 303.772 204.639 302.048 204.639C300.325 204.639 296.663 203.993 296.663 203.993C296.663 203.993 287.832 187.838 269.308 186.546C269.308 186.546 272.323 182.238 270.6 173.622C268.877 165.006 293.217 102.325 293.217 102.325Z" fill="black"/>
<path d="M292.14 96.0782C292.14 96.0782 299.248 93.278 302.264 101.032C305.279 108.787 308.08 139.589 308.08 139.589C308.08 139.589 313.249 154.667 311.526 164.575C309.803 174.484 313.249 175.776 313.249 175.776C313.249 175.776 314.111 180.084 311.526 182.238C308.941 184.392 307.218 193.87 308.08 195.162C308.941 196.454 306.787 204.64 305.064 204.64C303.341 204.64 287.401 207.224 287.401 207.224C287.401 207.224 290.848 187.838 272.323 186.546C272.323 186.546 275.339 182.238 273.616 173.622C271.892 165.006 292.14 96.0782 292.14 96.0782Z" fill="#6C63FF"/>
<path d="M263.179 17.79C258.883 15.103 254.022 13.4507 248.979 12.9634C243.935 12.4761 238.848 13.1671 234.117 14.982C229.045 16.9768 224.565 20.2248 220.376 23.7101C217.015 26.5059 213.737 29.5561 211.672 33.4096C208.541 39.2523 208.55 46.2072 208.635 52.8354C208.709 58.606 208.784 64.3943 209.571 70.1115C210.649 77.9531 213.066 85.7168 212.511 93.6128C211.956 101.509 207.315 109.933 199.558 111.508C206.774 112.054 214.028 111.845 221.201 110.885C225.722 110.279 230.467 109.244 233.772 106.1C236.186 103.805 237.551 100.64 238.738 97.5274C239.931 94.3992 241.023 91.1484 240.981 87.8007C240.894 80.8349 236.057 74.9917 232.9 68.7817C232.014 67.0386 231.236 65.1646 231.267 63.2095C231.298 61.2545 232.319 59.202 234.136 58.48C236.378 57.5892 238.974 58.9181 241.305 58.2954C245.051 57.2951 246.023 52.0939 249.461 50.304C252.005 48.9796 255.253 49.9727 257.392 51.8833C258.348 52.7378 259.168 53.7706 260.278 54.4141C261.782 55.2867 263.609 55.3291 265.348 55.3483C268.595 55.3842 279.676 50.2951 282.016 48.0441C284.299 59.7846 301.272 49.5669 291.531 32.2454C288.14 26.2144 283.641 20.6128 277.657 17.1392C271.673 13.6656 264.037 12.5882 257.755 15.4884" fill="#47465A"/>
<path d="M234.197 70.8765C236.339 70.8765 238.075 67.7905 238.075 63.9837C238.075 60.1769 236.339 57.0909 234.197 57.0909C232.056 57.0909 230.32 60.1769 230.32 63.9837C230.32 67.7905 232.056 70.8765 234.197 70.8765Z" fill="#FBBEBE"/>
<path d="M272.323 90.7012C272.323 90.7012 296.233 94.1396 297.525 95.8628C298.817 97.586 296.233 107.925 296.233 107.925L279.001 110.941L265.741 108.081L272.323 90.7012Z" fill="#6C63FF"/>
<path opacity="0.1" d="M199.036 107.57C195.435 106.95 191.923 110.209 190.059 114.505C188.194 118.802 187.688 123.951 187.505 128.953C187.323 133.924 187.43 139.001 188.562 143.727C190.887 153.433 197.128 160.295 200.74 169.219C203.514 176.3 204.636 183.92 204.02 191.5" fill="black"/>
<path d="M201.621 107.57C198.02 106.95 194.508 110.209 192.644 114.505C190.779 118.802 190.273 123.951 190.089 128.953C189.907 133.924 190.015 139.001 191.147 143.727C193.472 153.433 199.713 160.295 203.324 169.219C206.098 176.3 207.22 183.92 206.604 191.5" fill="#6C63FF"/>
<path d="M315.145 205.63L351.176 220.043L373.696 215.99L371.732 199.87L371.444 197.523L333.611 185.813L330.908 188.515L315.145 205.63Z" fill="#6C63FF"/>
<path opacity="0.1" d="M335.863 188.682V204.279L373.696 215.99L371.732 199.87L335.863 188.682Z" fill="black"/>
<path d="M301.035 208.999L303.586 209.943L333.996 221.205L336.359 222.08C336.434 222.108 336.513 222.118 336.592 222.109C336.671 222.099 336.747 222.071 336.813 222.027L339.598 220.16L368.567 200.724L371.304 198.889C371.383 198.836 371.445 198.761 371.484 198.674C371.522 198.587 371.535 198.491 371.521 198.397C371.507 198.303 371.467 198.215 371.405 198.142C371.343 198.07 371.262 198.017 371.171 197.99L366.807 196.653L336.13 187.255L333.451 186.434C333.38 186.412 333.304 186.406 333.229 186.417C333.155 186.428 333.084 186.456 333.022 186.498L330.912 187.92L303.58 206.326L300.931 208.11C300.855 208.162 300.794 208.233 300.755 208.317C300.716 208.401 300.701 208.494 300.712 208.586C300.723 208.678 300.759 208.765 300.816 208.838C300.873 208.911 300.949 208.966 301.035 208.999Z" fill="#7A799C"/>
<path d="M363.781 200.565L336.636 219.026C336.505 219.115 336.354 219.172 336.197 219.192C336.04 219.211 335.88 219.193 335.731 219.139L306.913 208.618C306.738 208.553 306.584 208.441 306.469 208.295C306.353 208.148 306.281 207.972 306.26 207.786C306.239 207.6 306.27 207.413 306.349 207.243C306.428 207.074 306.553 206.931 306.709 206.828L332.983 189.683C333.106 189.602 333.246 189.55 333.391 189.53C333.537 189.509 333.685 189.521 333.825 189.565L363.514 198.77C363.695 198.827 363.856 198.933 363.979 199.077C364.102 199.221 364.182 199.396 364.21 199.584C364.238 199.771 364.212 199.963 364.136 200.136C364.061 200.309 363.937 200.458 363.781 200.565Z" fill="#F2F2F2"/>
<path d="M366.807 196.653V200.724H368.567L371.304 198.889C371.383 198.836 371.446 198.761 371.484 198.674C371.522 198.587 371.535 198.491 371.521 198.397C371.508 198.303 371.467 198.215 371.405 198.142C371.343 198.07 371.262 198.017 371.171 197.99L366.807 196.653Z" fill="#6C63FF"/>
<path d="M333.996 219.93V221.205L336.359 222.08C336.434 222.108 336.514 222.118 336.592 222.109C336.671 222.099 336.747 222.071 336.813 222.027L339.598 220.16V219.93H333.996Z" fill="#6C63FF"/>
<path d="M301.035 208.999L303.586 209.943V206.326H303.58L300.931 208.11C300.855 208.162 300.794 208.233 300.755 208.317C300.716 208.401 300.701 208.494 300.712 208.586C300.723 208.678 300.759 208.765 300.816 208.838C300.873 208.911 300.949 208.966 301.035 208.999Z" fill="#6C63FF"/>
<path d="M330.912 187.92H336.13V187.255L333.452 186.434C333.38 186.412 333.304 186.406 333.23 186.417C333.155 186.428 333.084 186.456 333.022 186.498L330.912 187.92Z" fill="#6C63FF"/>
<path d="M319.502 197.019C319.708 197.019 319.875 196.853 319.875 196.647C319.875 196.441 319.708 196.274 319.502 196.274C319.297 196.274 319.13 196.441 319.13 196.647C319.13 196.853 319.297 197.019 319.502 197.019Z" fill="#F2F2F2"/>
<path d="M4.01391 149.031L113.236 150.065C113.991 150.072 114.729 150.294 115.362 150.705C115.995 151.117 116.498 151.7 116.811 152.387L146.247 216.88C146.528 217.495 146.647 218.172 146.592 218.847C146.538 219.521 146.312 220.171 145.937 220.734C145.561 221.296 145.048 221.754 144.446 222.063C143.844 222.371 143.173 222.521 142.496 222.498L32.8909 218.706C32.161 218.681 31.4523 218.455 30.8425 218.053C30.2328 217.651 29.7457 217.089 29.4347 216.428L0.382892 154.693C0.0966992 154.085 -0.0304631 153.414 0.0133176 152.743C0.0570982 152.073 0.270389 151.424 0.633212 150.858C0.996036 150.293 1.49652 149.828 2.0878 149.508C2.67908 149.189 3.3418 149.025 4.01391 149.031Z" fill="#7A799C"/>
</g>
<defs>
<clipPath id="clip0">
<rect width="393" height="242" fill="white" transform="translate(-7)"/>
</clipPath>
</defs>
</svg>
