<svg width="265" height="200" viewBox="0 0 265 200" fill="none" xmlns="http://www.w3.org/2000/svg">
<rect x="0.567749" y="124" width="263.864" height="5" fill="#6C63FF"/>
<path d="M94.9277 178.768L84.8978 179.766L84.6185 176.409L84.424 174.1L84.1497 170.723L93.626 171.222L94.3791 175.556L94.5387 176.499H94.5437L94.9277 178.768Z" fill="#8E6F7F"/>
<path d="M167.97 171.227L167.696 174.598L167.506 176.908L167.222 180.264L157.187 179.267L157.586 176.997L157.741 176.06L158.494 171.726L167.97 171.227Z" fill="#8E6F7F"/>
<path d="M157.342 122.653L127.516 124.055C126.16 124.121 124.803 124.121 123.446 124.055L94.9526 122.658V100.085H157.342V122.653Z" fill="#5F5570"/>
<path opacity="0.1" d="M157.342 122.653L127.516 124.055C126.16 124.121 124.803 124.121 123.446 124.055L94.9526 122.658V100.085H157.342V122.653Z" fill="black"/>
<path d="M119.147 39.2668C119.147 39.2668 109.212 42.6035 105.471 45.3466C104.693 45.9152 103.975 46.384 103.347 46.7681C101.036 48.1925 99.2685 50.3482 98.3242 52.8928C98.2992 52.9626 98.2743 53.0224 98.2493 53.0773C97.7506 54.1995 95.3815 61.8055 95.3815 61.8055C95.3815 61.8055 93.6359 66.0449 93.3865 68.788C93.1371 71.5311 107.601 78.8878 107.601 78.8878C107.601 78.8878 100.618 94.0997 103.736 97.9651C106.853 101.83 152.364 103.701 151.367 97.9651C150.369 92.2294 148.623 82.7531 149.496 80.1346L164.958 68.9127C164.958 68.9127 164.334 53.202 159.471 49.0873C154.608 44.9726 148.499 43.4763 148.499 43.4763L138.818 40.9825C138.818 40.9825 135.406 49.4613 131.666 50.5835C127.925 51.7057 119.731 46.5237 119.147 39.2668Z" fill="#EAEAF2"/>
<path opacity="0.1" d="M133.102 53.5461C133.102 53.5461 128.883 57.0673 126.668 53.5461C126.668 53.5461 124.673 59.5013 126.668 61.4963L126.594 61.9003L126.239 63.6758L121.621 102.08L125.421 108.638L132.339 99.9601L131.781 64.0499L131.531 61.99L131.471 61.4913H132.653C132.653 61.4913 135.791 56.0698 133.102 53.5461Z" fill="black"/>
<path opacity="0.1" d="M134.1 53.5461C134.1 53.5461 129.88 57.0673 127.666 53.5461C127.666 53.5461 125.671 59.5013 127.666 61.4963L127.591 61.9003L127.237 63.6758L122.618 102.08L126.419 108.638L133.337 99.9601L132.778 64.0499L132.529 61.99L132.469 61.4913H133.651C133.651 61.4913 136.788 56.0698 134.1 53.5461Z" fill="black"/>
<path d="M132.838 99.4663L125.92 108.13L122.11 101.606L126.733 63.182L127.087 61.4065L127.167 60.9975L127.791 59.3815L131.97 60.9975L132.03 61.4962L132.279 63.5561L132.838 99.4663Z" fill="#B42332"/>
<path opacity="0.1" d="M94.3791 175.551C92.2269 175.537 90.0808 175.319 87.9701 174.898C86.9277 174.638 85.621 174.349 84.429 174.095L84.1497 170.718L93.626 171.217L94.3791 175.551Z" fill="black"/>
<path d="M125.995 124.1C125.167 126.429 100.439 126.02 100.439 126.02C100.439 126.02 99.1123 160.933 97.1172 165.257C95.1222 169.581 94.9526 175.062 94.9526 175.062C94.9526 175.062 90.6334 175.062 87.9701 174.399C85.3068 173.736 80.9875 172.903 80.9875 172.903L82.1546 113.676C82.1546 113.676 82.6534 113.052 83.8155 109.307C84.5636 106.898 88.9526 103.776 91.99 101.825C93.6858 100.758 94.9526 100.06 94.9526 100.06L109.706 100.658L118.813 101.027C118.813 101.027 126.828 121.771 125.995 124.1Z" fill="black"/>
<path opacity="0.1" d="M94.9327 178.763L84.8978 179.761L84.6135 176.404C84.9894 176.414 85.36 176.496 85.7058 176.643C87.5362 177.96 92.7681 176.913 94.5387 176.494L94.9327 178.763Z" fill="black"/>
<path d="M96.8279 188.464C96.8398 188.937 96.7366 189.407 96.5272 189.831C96.3179 190.256 96.0086 190.624 95.626 190.903C94.9946 191.398 94.2483 191.726 93.4564 191.855C93.2278 191.875 93.006 191.943 92.8057 192.055C92.6054 192.167 92.4311 192.32 92.2943 192.504C91.1857 194.067 89.6669 195.295 87.9052 196.05C84.4489 197.407 79.586 198.738 77.3067 196.658C77.1186 196.491 76.9511 196.302 76.808 196.095C73.6309 191.546 78.8678 186.678 78.8678 186.678C78.8678 186.678 81.2319 181.132 82.2943 178.579C82.409 178.247 82.5923 177.944 82.8322 177.688C83.0721 177.433 83.3633 177.23 83.6866 177.095C84.0099 176.959 84.3582 176.893 84.7087 176.902C85.0592 176.91 85.404 176.992 85.7207 177.142C87.7157 178.579 93.7656 177.202 94.9476 176.898C96.1297 176.594 96.5087 181.441 96.5087 181.441L96.8279 188.389C96.8255 188.414 96.8255 188.439 96.8279 188.464Z" fill="#575A89"/>
<path opacity="0.1" d="M167.975 171.222L167.696 174.593C166.504 174.848 165.202 175.137 164.15 175.396C162.041 175.818 159.896 176.039 157.746 176.055L158.499 171.721L167.975 171.222Z" fill="black"/>
<path d="M171.142 173.402C171.142 173.402 166.823 174.234 164.16 174.898C161.496 175.561 157.177 175.561 157.177 175.561C157.177 175.561 157.013 170.075 155.017 165.756C153.022 161.436 151.691 126.519 151.691 126.519C151.691 126.519 128.359 126.384 127.526 124.055C126.693 121.726 137.696 101.611 137.696 101.611L144.404 101.262L157.177 100.584C157.177 100.584 159.671 101.94 162.284 103.771C164.898 105.601 167.736 107.925 168.319 109.806C169.481 113.551 169.98 114.175 169.98 114.175L171.142 173.402Z" fill="black"/>
<path opacity="0.1" d="M167.506 176.903L167.227 180.259L157.187 179.262L157.586 176.992C159.357 177.416 164.569 178.459 166.414 177.142C166.76 176.994 167.13 176.913 167.506 176.903Z" fill="black"/>
<path d="M166.414 177.641C166.731 177.49 167.076 177.407 167.427 177.398C167.778 177.39 168.127 177.455 168.451 177.591C168.775 177.727 169.067 177.929 169.307 178.185C169.547 178.441 169.731 178.745 169.845 179.077C170.903 181.631 173.272 187.182 173.272 187.182C173.272 187.182 178.509 192.045 175.332 196.594C173.337 199.446 167.97 198.015 164.239 196.549C162.476 195.796 160.956 194.568 159.85 193.003C159.713 192.818 159.538 192.665 159.336 192.553C159.135 192.441 158.913 192.373 158.683 192.354C157.873 192.213 157.111 191.87 156.469 191.357C156.091 191.077 155.789 190.709 155.588 190.284C155.387 189.86 155.294 189.392 155.317 188.923L155.631 181.94C155.631 181.94 156.005 177.087 157.187 177.392C158.369 177.696 164.419 179.077 166.414 177.641Z" fill="#575A89"/>
<path d="M140.633 43.4763L130.564 54.1496L130.284 54.4489L129.92 54.2344C127.815 52.9875 117.287 46.6334 118.19 44.7232C118.688 43.6359 118.983 41.3716 119.137 39.4214C119.137 39.187 119.167 38.9576 119.187 38.7332C119.287 37.192 119.312 35.995 119.312 35.995C119.312 35.995 138.264 32.7531 137.516 35.995C137.212 37.3067 137.666 38.7831 138.309 40.0748C138.499 40.4489 138.708 40.803 138.913 41.1372C139.416 41.966 139.992 42.7488 140.633 43.4763Z" fill="#BE7C5E"/>
<path opacity="0.1" d="M138.309 40.0748C135.482 42.1585 132.005 43.1677 128.501 42.9219C124.998 42.6761 121.696 41.1912 119.187 38.7332C119.287 37.192 119.312 35.995 119.312 35.995C119.312 35.995 138.264 32.7531 137.516 35.995C137.227 37.3167 137.666 38.7831 138.309 40.0748Z" fill="black"/>
<path d="M144.329 27.6609C144.384 31.4998 142.944 35.2097 140.315 38.0072C137.685 40.8046 134.071 42.4705 130.236 42.6531C126.401 42.8356 122.645 41.5206 119.762 38.9856C116.879 36.4506 115.093 32.8941 114.783 29.0673C114.743 28.6018 114.723 28.133 114.723 27.6609C114.687 25.695 115.043 23.7417 115.77 21.915C116.498 20.0883 117.582 18.4249 118.959 17.0219C120.337 15.6189 121.98 14.5045 123.793 13.7437C125.606 12.983 127.553 12.5912 129.519 12.5912C131.485 12.5912 133.431 12.983 135.244 13.7437C137.057 14.5045 138.701 15.6189 140.078 17.0219C141.456 18.4249 142.54 20.0883 143.267 21.915C143.994 23.7417 144.35 25.695 144.314 27.6609H144.329Z" fill="#BE7C5E"/>
<path opacity="0.1" d="M144.145 25.2968C143.759 25.6105 143.313 25.8396 142.833 25.9694C142.354 26.0991 141.852 26.1266 141.362 26.0499C139.077 25.5511 138.294 22.0599 135.96 21.8205C133.626 21.5811 132.075 24.813 129.711 24.7481C128.713 24.7232 127.815 24.0698 126.898 23.616C125.292 22.823 122.648 22.3392 120.913 22.9377C118.304 23.8304 117.421 26.2444 115.756 28.1646C115.471 28.4915 115.159 28.7936 114.823 29.0673C114.783 28.6018 114.763 28.133 114.763 27.6609C114.729 23.9183 116.115 20.3019 118.64 17.54C121.166 14.7781 124.645 13.0759 128.375 12.7761C132.106 12.4764 135.812 13.6015 138.746 15.9247C141.68 18.248 143.626 21.5968 144.189 25.2968H144.145Z" fill="black"/>
<path d="M126.898 23.1222C127.815 23.5711 128.693 24.2294 129.711 24.2544C132.07 24.3142 133.611 21.0673 135.955 21.3217C138.299 21.5761 139.072 25.0374 141.367 25.5511C142.908 25.9003 144.359 24.7481 145.511 23.6758C146.256 23.0829 146.863 22.336 147.292 21.4863C147.791 20.2494 147.531 18.8229 147.067 17.5661C146.603 16.3092 145.95 15.1022 145.721 13.7806C145.441 12.1945 145.766 10.4589 145.012 9.03243C144.701 8.49351 144.273 8.03051 143.761 7.67688C143.249 7.32325 142.664 7.0878 142.05 6.98753C140.816 6.79621 139.554 6.93916 138.394 7.40149C137.829 7.67566 137.219 7.84467 136.593 7.90025C136.137 7.87237 135.689 7.76256 135.272 7.57606C133.829 7.00755 132.46 6.26918 131.192 5.37656C130.283 4.65108 129.31 4.01002 128.284 3.46135C127.769 3.19081 127.2 3.03837 126.619 3.01507C126.037 2.99178 125.458 3.09823 124.923 3.32669C123.127 4.24439 122.783 6.81795 121.112 7.93017C119.96 8.70822 118.459 8.62843 117.072 8.68329C115.686 8.73815 114.08 9.07232 113.421 10.2843C112.833 11.3267 113.127 12.6085 113.202 13.8005C113.277 15.0559 113.088 16.313 112.648 17.4913C111.875 19.5561 110.304 21.591 110.863 23.7257C111.227 25.1272 112.484 26.2893 112.409 27.7157C112.35 28.0836 112.318 28.4554 112.314 28.8279C112.316 29.0155 112.382 29.1969 112.5 29.342C112.619 29.4871 112.784 29.5873 112.968 29.6259C113.168 29.6234 113.362 29.5609 113.526 29.4464C114.355 28.9825 115.099 28.3803 115.726 27.6658C117.411 25.7406 118.284 23.3317 120.893 22.4389C122.653 21.8554 125.292 22.3242 126.898 23.1222Z" fill="#2C1D1D"/>
<path d="M144.06 110.185L141.367 110.918L135.147 112.628C133.708 113.701 132.088 114.507 130.364 115.008C126.559 115.97 124.1 113.875 122.055 110.633C121.232 109.337 121.646 108.299 122.723 107.486C125.317 105.526 131.731 104.888 133.696 105.147C134.986 105.252 136.284 105.051 137.481 104.559C138.332 104.249 139.151 103.862 139.93 103.402L144.06 110.185Z" fill="#BE7C5E"/>
<path opacity="0.1" d="M144.06 110.185L141.367 110.918C140.593 108.589 139.322 105.666 137.501 104.544C138.351 104.234 139.171 103.847 139.95 103.387L144.06 110.185Z" fill="black"/>
<path opacity="0.1" d="M162.274 103.771C161.157 104.673 160.209 105.496 160.209 105.496C160.209 105.496 147.242 109.561 144.748 114.673C144.748 114.673 142.753 104.698 138.514 104.574C138.514 104.574 143.077 102.783 144.394 101.252L157.177 100.584C157.177 100.584 159.671 101.94 162.274 103.771Z" fill="black"/>
<path d="M162.08 64.6733L164.948 68.9127L165.82 82.1297C165.82 82.1297 166.07 94.8479 165.82 95.3466L166.07 94.8479C166.07 94.8479 165.571 99.8354 164.075 100.708C162.579 101.581 159.212 104.499 159.212 104.499C159.212 104.499 146.244 108.564 143.751 113.676C143.751 113.676 141.756 103.701 137.516 103.576C137.516 103.576 143.875 101.082 143.751 99.4613C143.751 99.4613 148.613 95.0972 148.988 93.9751C149.362 92.8529 151.791 92.7282 151.791 92.7282C151.791 92.7282 152.354 84.9975 151.232 83.7506C150.11 82.5037 149.486 80.1347 149.486 80.1347L162.08 64.6733Z" fill="#EAEAF2"/>
<path opacity="0.1" d="M130.364 114.993C126.559 115.955 124.1 113.86 122.055 110.618C121.232 109.322 121.646 108.284 122.723 107.471L123.112 107.626C123.112 107.626 129.97 110.599 130.364 114.993Z" fill="black"/>
<path d="M128.788 118.978C124.299 125.212 115.945 116.544 115.322 114.798C115.097 114.165 114.244 113.601 113.262 113.147C112.015 112.603 110.721 112.173 109.396 111.865L116.818 105.82L118.239 106.389L122.613 108.14C122.613 108.14 133.277 112.743 128.788 118.978Z" fill="#BE7C5E"/>
<path opacity="0.1" d="M118.239 106.389C114.15 108.334 113.277 111.132 113.252 113.147C112.005 112.603 110.711 112.173 109.386 111.865L116.808 105.82L118.239 106.389Z" fill="black"/>
<path opacity="0.1" d="M111.706 117.167C111.706 117.167 99.7357 107.691 94 103.576C93.2823 103.065 92.6143 102.487 92.005 101.85C93.7008 100.783 94.9676 100.085 94.9676 100.085L109.721 100.683C110.115 101.367 110.349 101.83 110.349 101.83L118.329 107.067C108.713 110.185 111.706 117.167 111.706 117.167Z" fill="black"/>
<path d="M95.7456 67.4164L93.3766 68.788C93.3766 68.788 90.5087 77.8903 91.2569 83.8753C91.2569 83.8753 89.0125 92.4788 89.8853 93.8504C89.8853 93.8504 88.7631 98.4638 94.4987 102.579C100.234 106.693 112.204 116.17 112.204 116.17C112.204 116.17 109.212 109.187 118.813 106.07L110.833 100.833C110.833 100.833 108.155 95.5162 105.596 94.3491C105.596 94.3491 103.601 92.3541 104.848 90.9825C106.095 89.611 107.092 88.1147 107.092 86.7431C107.092 85.3716 107.591 78.8878 107.591 78.8878L109.087 71.9052L95.7456 67.4164Z" fill="#EAEAF2"/>
<path opacity="0.1" d="M132.03 61.4913H127.167C127.138 61.4639 127.111 61.4338 127.087 61.4015L127.167 60.9925L127.791 59.3766L131.97 60.9925L132.03 61.4913Z" fill="black"/>
<path d="M133.601 53.0474C133.601 53.0474 129.382 56.5686 127.167 53.0474C127.167 53.0474 125.172 59.0025 127.167 60.9975H133.152C133.152 60.9975 136.289 55.5711 133.601 53.0474Z" fill="#B42332"/>
<path opacity="0.1" d="M139.307 41.4813L145.591 43.1022C145.591 43.1022 139.636 58.5636 138.324 58.5636L130.783 54.9476L139.307 41.4813Z" fill="black"/>
<path opacity="0.1" d="M140.633 43.4763L130.564 54.1496L130.284 54.4489L129.92 54.2344L138.723 40.808L138.938 41.1621C139.434 41.9814 140.002 42.7557 140.633 43.4763Z" fill="black"/>
<path d="M138.808 40.9825L145.092 42.6035C145.092 42.6035 139.137 58.0648 137.825 58.0648L130.284 54.4489L138.808 40.9825Z" fill="#EAEAF2"/>
<path opacity="0.1" d="M118.648 39.7656L113.202 41.4813C113.202 41.4813 118.564 57.6908 120.06 58.5636L129.786 54.9476L118.648 39.7656Z" fill="black"/>
<path opacity="0.1" d="M130.564 54.1496L130.284 54.4489C130.284 54.4489 117.192 46.8429 118.189 44.7232C118.688 43.6359 118.982 41.3715 119.137 39.4214V39.1172L130.564 54.1496Z" fill="black"/>
<path d="M119.147 39.2668L113.701 40.9825C113.701 40.9825 119.062 57.192 120.559 58.0648L130.284 54.4489L119.147 39.2668Z" fill="#EAEAF2"/>
<path opacity="0.1" d="M106.175 65.7456C106.175 65.7456 109.456 66.3292 109.397 69.7357C109.337 73.1422 110.748 65.3317 110.748 65.3317L106.175 65.7456Z" fill="black"/>
<path opacity="0.1" d="M106.923 76.2195C106.923 76.2195 106.01 81.3716 106.923 86.0299C107.835 90.6883 107.756 92.2643 108.464 92.5137C109.172 92.7631 106.923 76.2195 106.923 76.2195Z" fill="black"/>
<path opacity="0.1" d="M148.818 75.7207C148.556 75.7539 148.305 75.8441 148.081 75.985C147.858 76.1259 147.669 76.3139 147.526 76.536C147.383 76.758 147.291 77.0087 147.256 77.2703C147.221 77.5318 147.243 77.7979 147.322 78.0499C147.741 80.1347 148.818 75.7207 148.818 75.7207Z" fill="black"/>
<path opacity="0.1" d="M91.7955 93.177C91.7955 93.177 102.484 92.2643 104.264 94.1746C106.045 96.0848 91.7955 93.177 91.7955 93.177Z" fill="black"/>
<path opacity="0.1" d="M153.806 93.9003C153.806 93.9003 161.621 92.9376 163.451 94.2693L153.806 93.9003Z" fill="black"/>
<path opacity="0.1" d="M156.968 95.1721C156.968 95.1721 161.621 95.3366 162.703 95.9202L156.968 95.1721Z" fill="black"/>
<path opacity="0.1" d="M157.88 96.8429C157.88 96.8429 162.12 96.6783 162.703 97.3416L157.88 96.8429Z" fill="black"/>
<path opacity="0.1" d="M98.0947 120.284C98.0947 120.284 101.726 122.175 101.357 124.105C100.988 126.035 98.0947 120.284 98.0947 120.284Z" fill="black"/>
<path opacity="0.1" d="M94.9526 121.202C94.9526 121.202 100.494 128.389 99.7407 130.758C98.9876 133.127 94.9526 121.202 94.9526 121.202Z" fill="black"/>
<path opacity="0.1" d="M154.349 122.394C154.349 122.394 151.606 124.653 151.681 126.519L154.349 122.394Z" fill="black"/>
<path opacity="0.1" d="M91.0074 166.918C91.0074 166.918 91.0074 169.037 94.9326 172.155L91.0074 166.918Z" fill="black"/>
<path opacity="0.1" d="M160.289 161.93C160.289 161.93 159.87 166.339 156.05 168.623L160.289 161.93Z" fill="black"/>
<g opacity="0.1">
<path opacity="0.1" d="M113.202 12.2843C113.202 11.9402 113.142 11.586 113.112 11.2369C113.049 11.9985 113.072 12.7649 113.182 13.5212C113.216 13.1098 113.223 12.6966 113.202 12.2843Z" fill="black"/>
<path opacity="0.1" d="M112.409 26.2194C112.484 24.7731 111.227 23.611 110.863 22.2294C110.844 22.1624 110.831 22.094 110.823 22.0249C110.709 22.5877 110.723 23.1689 110.863 23.7257C111.157 24.8678 112.045 25.8454 112.324 26.9526C112.349 26.6933 112.399 26.4588 112.409 26.2194Z" fill="black"/>
<path opacity="0.1" d="M147.292 19.99C146.862 20.8389 146.255 21.5855 145.511 22.1796C144.349 23.2519 142.908 24.404 141.367 24.0549C139.077 23.5561 138.289 20.0648 135.955 19.8254C133.621 19.586 132.07 22.818 129.711 22.7531C128.713 22.7282 127.816 22.0748 126.898 21.621C125.292 20.8279 122.653 20.3442 120.913 20.9427C118.304 21.8354 117.421 24.2494 115.746 26.1696C115.12 26.8844 114.378 27.4881 113.551 27.9551C113.384 28.0656 113.188 28.1261 112.988 28.1297C112.862 28.1128 112.744 28.0621 112.646 27.983C112.547 27.9039 112.472 27.7994 112.429 27.6808V27.7157C112.37 28.0853 112.339 28.4587 112.334 28.8329C112.337 29.0196 112.403 29.1998 112.522 29.3439C112.641 29.488 112.805 29.5875 112.988 29.6259C113.188 29.6224 113.384 29.5619 113.551 29.4514C114.378 28.9843 115.12 28.3806 115.746 27.6658C117.431 25.7456 118.304 23.3317 120.913 22.4389C122.673 21.8404 125.312 22.3242 126.898 23.1172C127.816 23.5711 128.693 24.2244 129.711 24.2494C132.07 24.3092 133.611 21.0623 135.955 21.3217C138.299 21.5811 139.077 25.0324 141.367 25.5511C142.908 25.9003 144.359 24.7481 145.511 23.6758C146.255 23.0818 146.862 22.3352 147.292 21.4863C147.57 20.7655 147.644 19.9821 147.506 19.222C147.464 19.4853 147.392 19.7429 147.292 19.99Z" fill="black"/>
</g>
<path opacity="0.1" d="M78.8728 186.683C78.8728 186.683 82.9476 185.426 84.6384 187.81L78.8728 186.683Z" fill="black"/>
<path opacity="0.1" d="M173.272 187.182C173.272 187.182 166.524 186.788 166.788 188.613L173.272 187.182Z" fill="black"/>
</svg>
