<svg width="244" height="286" viewBox="0 0 244 286" fill="none" xmlns="http://www.w3.org/2000/svg">
<path d="M161.988 201.547H66.0375V284.142H161.988V201.547Z" fill="#615CAA"/>
<path d="M8 284.114L243.631 284.142" stroke="#3F3D56" stroke-width="2" stroke-miterlimit="10"/>
<path d="M127.299 117.835C127.299 117.835 143.264 118.269 145.9 119.229C148.537 120.188 149.716 127.051 149.716 127.051L137.321 130.948L128.05 130.423L121.072 130.916L124.968 120.709L127.299 117.835Z" fill="#2F2E41"/>
<path d="M127.988 112.594C127.988 112.594 129.038 116.653 126.707 119.526C124.376 122.4 136.728 132.64 136.728 132.64L143.245 131.519C143.245 131.519 141.809 119.049 143.738 115.891C145.667 112.734 127.988 112.594 127.988 112.594Z" fill="#9F616A"/>
<path opacity="0.1" d="M127.988 112.594C127.988 112.594 129.038 116.653 126.707 119.526C124.376 122.4 136.728 132.64 136.728 132.64L143.245 131.519C143.245 131.519 141.809 119.049 143.738 115.891C145.667 112.734 127.988 112.594 127.988 112.594Z" fill="black"/>
<path d="M171.326 231.254L156.948 250.329L166.76 256.06L180.265 233.956L171.326 231.254Z" fill="#9F616A"/>
<path d="M161.241 250.651C161.241 250.651 155.946 244.496 156.182 245.868C156.418 247.241 152.415 258.88 156.139 260.006C159.864 261.132 191.803 264.118 192.243 260.51C192.682 256.902 182.714 254.377 182.714 254.377C182.714 254.377 176.793 248.683 175.48 249.262C174.167 249.841 161.241 250.651 161.241 250.651Z" fill="#2F2E41"/>
<path d="M168.1 249.471L179.585 269.045L188.256 264.021L176.675 247.997L168.1 249.471Z" fill="#9F616A"/>
<path d="M186.23 202.904L182.821 207.729C182.821 207.729 166.573 230.305 168.299 232.128C170.024 233.95 177.211 240.84 180.865 239.505C184.52 238.17 197.505 215.095 197.505 215.095L194.118 201.547L186.23 202.904Z" fill="#2F2E41"/>
<path d="M116.236 198.336C116.236 198.336 119.875 205.129 129.098 207.429C138.32 209.729 147.956 214.43 148.299 214.371C148.642 214.312 149.612 213.792 149.848 215.165C150.083 216.537 152.613 218.928 152.613 218.928C152.613 218.928 162.8 253.562 166.691 253.599C170.582 253.637 178.577 250.849 178.743 249.761C178.91 248.672 166.83 213.304 166.712 212.618L165.298 204.383C165.298 204.383 181.273 206.935 182.762 207.386C184.252 207.836 197.505 215.095 197.505 215.095C197.505 215.095 211.015 205.354 198.379 195.516C185.742 185.678 164.022 178.462 164.022 178.462L156.23 176.269L149.439 175.864L148.439 172.028L132.356 172.956L115.571 180.081L116.236 198.336Z" fill="#2F2E41"/>
<path d="M137.463 120.673C144.382 120.673 149.991 115.061 149.991 108.139C149.991 101.217 144.382 95.606 137.463 95.606C130.544 95.606 124.934 101.217 124.934 108.139C124.934 115.061 130.544 120.673 137.463 120.673Z" fill="#9F616A"/>
<path d="M126.128 118.213L127.635 117.954C127.635 117.954 130.357 128.437 138.776 130.168C138.776 130.168 142.93 125.19 142.752 124.35C142.575 123.51 146.042 119.028 147.886 121.537C149.729 124.046 147.436 168.244 148.985 169.037C150.533 169.83 153.856 170.672 151.182 173.605C148.508 176.537 137.886 180.483 135.533 179.121C133.181 177.76 128.374 166.222 126.295 162.341C124.215 158.459 120.887 145.255 120.887 145.255C120.887 145.255 116.638 130.796 119.253 127.52C121.868 124.244 126.128 118.213 126.128 118.213Z" fill="#D0CDE1"/>
<path d="M138.118 172.625C137.838 175.704 137.359 178.761 136.683 181.778C136.069 184.232 135.354 185.714 134.537 185.651C132.454 185.495 131.507 188.552 131.019 192.076C130.497 195.814 130.497 200.079 130.211 201.586C129.832 203.578 127.408 205.097 122.564 204.651C119.68 204.323 116.848 203.628 114.139 202.584C107.599 200.205 107.793 180.915 108.887 166.6C109.556 157.826 110.562 150.918 110.562 150.918C110.562 150.918 108.576 144.99 107.94 140.927C107.814 140.186 107.75 139.435 107.751 138.683C107.848 135.134 114.324 125.543 118.238 119.569C122.156 113.595 127.501 117.978 127.501 117.978L125.641 123.594C125.641 123.594 128.523 128.044 128.544 132.28C128.565 136.515 135.446 139.571 137.916 141.622C139.469 142.91 139.431 160.108 138.118 172.625Z" fill="#2F2E41"/>
<path d="M143.558 119.985C143.558 119.985 144.01 120.519 146.077 120.258C148.556 119.946 151.965 120.804 152.757 123.172C154.21 127.515 158.304 145.18 158.304 145.18C158.304 145.18 160.008 165.375 160.774 169.836C161.541 174.296 161.16 178.248 161.916 180.59C162.672 182.933 154.456 176.221 151.428 177.095C148.4 177.969 146.455 166.646 146.836 162.695C147.216 158.744 147.538 154.449 146.487 150.391C145.437 146.332 147.299 135.591 147.229 133.13C147.16 130.67 140.553 124.468 143.558 119.985Z" fill="#2F2E41"/>
<path d="M152.423 182.753C152.423 182.753 165.688 189.992 166.957 200.297C168.227 210.601 149.215 190.319 149.215 190.319L152.423 182.753Z" fill="#9F616A"/>
<path d="M159.995 175.445C159.995 175.445 164.06 195.942 170.392 194.853C176.724 193.764 166.855 174.266 166.855 174.266L159.995 175.445Z" fill="#9F616A"/>
<path d="M181.68 264.799C181.68 264.799 178.438 268.535 177.634 267.967C176.83 267.399 174.981 275.135 176.648 276.615C178.315 278.094 184.735 280.523 184.804 282.984C184.874 285.445 202.093 284.957 202.709 282.378C203.325 279.799 200.549 273.918 198.598 272.84C196.648 271.763 189.435 261.845 189.435 261.845C189.435 261.845 183.786 262.67 181.68 264.799Z" fill="#2F2E41"/>
<path opacity="0.1" d="M150.31 195.288C147.234 193.115 138.645 192.577 131.019 192.076C127.673 191.861 124.513 191.65 122.085 191.309C119.745 190.985 117.641 188.846 115.772 185.659C112.94 180.83 110.651 173.589 108.887 166.6C109.556 157.826 110.562 150.918 110.562 150.918C110.562 150.918 108.576 144.99 107.94 140.927C108.388 140.303 108.965 139.784 109.632 139.403C117.721 135.93 125.443 170.111 126.423 175.475C126.44 175.564 126.453 175.648 126.466 175.719C126.941 178.481 132.08 180.843 136.683 181.778C139.52 182.354 142.159 182.392 143.375 181.643C146.569 179.681 156.391 187.533 157.136 187.756C157.881 187.983 154.729 198.416 150.31 195.288Z" fill="black"/>
<path d="M109.633 137.299C109.633 137.299 103.755 140.076 106.338 153.055C108.921 166.035 114.124 188.102 122.082 189.206C130.041 190.31 145.887 190.058 150.308 193.184C154.73 196.309 157.881 185.877 157.136 185.651C156.391 185.426 146.568 177.577 143.374 179.54C140.18 181.502 127.232 178.076 126.466 173.616C125.7 169.155 117.854 133.766 109.633 137.299Z" fill="#2F2E41"/>
<path d="M151.996 131.074L158.457 146.073C158.457 146.073 159.108 145.748 159.863 148.091C160.619 150.434 160.973 152.492 162.296 154.031C163.62 155.57 169.51 177.518 169.687 178.548C169.863 179.577 161.552 183.126 159.695 180.266C157.838 177.406 151.996 131.074 151.996 131.074Z" fill="#2F2E41"/>
<path d="M130.335 107.965C130.815 107.837 130.886 107.199 130.902 106.702C130.988 104.041 132.589 101.31 135.136 100.536C136.113 100.268 137.136 100.212 138.136 100.371C139.564 100.561 140.943 101.021 142.199 101.727C142.862 102.1 143.513 102.549 144.265 102.663C144.762 102.738 146.913 103.364 147.407 103.452C148.495 103.645 149.506 104.619 150.549 104.257C151.548 103.91 151.769 102.617 151.793 101.56C151.848 99.1519 150.021 95.8192 148.411 94.0279C147.19 92.6685 145.351 92.041 143.553 91.7147C141.453 91.3771 139.325 91.2476 137.2 91.328C134.323 91.3794 131.366 91.6015 128.772 92.8468C126.178 94.0921 123.999 96.5706 123.874 99.4465C123.849 100.046 123.91 100.647 123.86 101.245C123.737 102.702 122.963 104.019 122.601 105.436C122.341 106.476 122.302 107.558 122.487 108.614C122.671 109.669 123.075 110.675 123.671 111.565C124.634 112.982 126.147 114.264 126.091 115.977L128.179 113.813C128.491 113.575 128.712 113.237 128.804 112.856C128.897 112.474 128.856 112.073 128.689 111.718L127.95 108.835C127.76 108.32 127.738 107.758 127.886 107.23C128.678 105.272 129.534 108.179 130.335 107.965Z" fill="#2F2E41"/>
<circle cx="97" cy="83" r="10" fill="#D36B6B"/>
<g opacity="0.5">
<rect x="102.073" y="76.2444" width="2.38" height="16.7275" transform="rotate(45 102.073 76.2444)" fill="#5A1919"/>
<rect x="103.754" y="88.0742" width="2.37544" height="16.7275" transform="rotate(135 103.754 88.0742)" fill="#5A1919"/>
</g>
<circle cx="51.9398" cy="92.2939" r="14.0976" fill="#51B485"/>
<path d="M43.416 93.3688L48.382 98.3347L60.4637 86.2529" stroke="white" stroke-opacity="0.5" stroke-width="4"/>
<circle cx="83.4931" cy="19.3605" r="14.0976" fill="#51B485"/>
<path d="M74.9692 20.4354L79.9352 25.4014L92.017 13.3196" stroke="white" stroke-opacity="0.5" stroke-width="4"/>
<circle cx="171.343" cy="78.1963" r="10.5" fill="#51B485"/>
<path d="M164.994 78.9968L168.693 82.6955L177.691 73.6969" stroke="white" stroke-opacity="0.5" stroke-width="4"/>
<circle cx="120.5" cy="32.5" r="7.5" fill="#51B485"/>
<path d="M115.965 33.0718L118.607 35.7137L125.035 29.2861" stroke="white" stroke-opacity="0.5" stroke-width="2"/>
<circle cx="230.844" cy="36.7861" r="7.5" fill="#51B485"/>
<path d="M226.309 37.3579L228.951 39.9999L235.378 33.5723" stroke="white" stroke-opacity="0.5" stroke-width="2"/>
<circle cx="7.93433" cy="75.5" r="7.5" fill="#51B485"/>
<path d="M3.39954 76.0718L6.04145 78.7137L12.469 72.2861" stroke="white" stroke-opacity="0.5" stroke-width="2"/>
<circle cx="152" cy="11" r="11" fill="#51B485"/>
<path d="M145.349 11.8388L149.224 15.7136L158.651 6.28644" stroke="white" stroke-opacity="0.5" stroke-width="3"/>
<circle cx="192.257" cy="45.876" r="14.0976" fill="#51B485"/>
<path d="M183.733 46.9509L188.699 51.9169L200.781 39.8351" stroke="white" stroke-opacity="0.5" stroke-width="4"/>
<circle cx="57" cy="49.8351" r="10" fill="#D36B6B"/>
<g opacity="0.5">
<rect x="62.0726" y="43.0795" width="2.38" height="16.7275" transform="rotate(45 62.0726 43.0795)" fill="#5A1919"/>
<rect x="63.754" y="54.9093" width="2.37544" height="16.7275" transform="rotate(135 63.754 54.9093)" fill="#5A1919"/>
</g>
<ellipse cx="124.934" cy="59.9735" rx="13.5" ry="14" fill="#D36B6B"/>
<g opacity="0.5">
<rect width="3.27304" height="23.0042" transform="matrix(0.694136 0.719844 -0.694136 0.719844 131.782 50.5156)" fill="#5A1919"/>
<rect width="3.26677" height="23.0042" transform="matrix(-0.694136 0.719844 -0.694136 -0.719844 134.052 67.0774)" fill="#5A1919"/>
</g>
<circle cx="212.308" cy="81.3347" r="17" fill="#D36B6B"/>
<g opacity="0.5">
<rect x="220.932" y="69.8502" width="4.046" height="28.4368" transform="rotate(45 220.932 69.8502)" fill="#5A1919"/>
<rect x="223.79" y="89.9609" width="4.03825" height="28.4368" transform="rotate(135 223.79 89.9609)" fill="#5A1919"/>
</g>
</svg>
