<svg width="244" height="286" viewBox="0 0 244 286" fill="none" xmlns="http://www.w3.org/2000/svg">
<path d="M161.988 201.547H66.0375V284.142H161.988V201.547Z" fill="#615CAA"/>
<path d="M8 284.114L243.631 284.142" stroke="#3F3D56" stroke-width="2" stroke-miterlimit="10"/>
<path d="M127.299 117.835C127.299 117.835 143.264 118.269 145.9 119.229C148.537 120.188 149.716 127.051 149.716 127.051L137.321 130.948L128.05 130.423L121.072 130.916L124.968 120.709L127.299 117.835Z" fill="#2F2E41"/>
<path d="M127.988 112.594C127.988 112.594 129.038 116.653 126.707 119.526C124.376 122.4 136.728 132.64 136.728 132.64L143.245 131.519C143.245 131.519 141.809 119.049 143.738 115.891C145.667 112.734 127.988 112.594 127.988 112.594Z" fill="#9F616A"/>
<path opacity="0.1" d="M127.988 112.594C127.988 112.594 129.038 116.653 126.707 119.526C124.376 122.4 136.728 132.64 136.728 132.64L143.245 131.519C143.245 131.519 141.809 119.049 143.738 115.891C145.667 112.734 127.988 112.594 127.988 112.594Z" fill="black"/>
<path d="M171.326 231.254L156.948 250.329L166.76 256.06L180.265 233.956L171.326 231.254Z" fill="#9F616A"/>
<path d="M161.241 250.651C161.241 250.651 155.946 244.496 156.182 245.868C156.418 247.241 152.415 258.88 156.139 260.006C159.864 261.132 191.803 264.118 192.243 260.51C192.682 256.902 182.714 254.377 182.714 254.377C182.714 254.377 176.793 248.683 175.48 249.262C174.167 249.841 161.241 250.651 161.241 250.651Z" fill="#2F2E41"/>
<path d="M168.1 249.471L179.585 269.045L188.256 264.021L176.675 247.997L168.1 249.471Z" fill="#9F616A"/>
<path d="M186.23 202.904L182.821 207.729C182.821 207.729 166.573 230.305 168.299 232.128C170.024 233.95 177.211 240.84 180.865 239.505C184.52 238.17 197.505 215.095 197.505 215.095L194.118 201.547L186.23 202.904Z" fill="#2F2E41"/>
<path d="M116.236 198.336C116.236 198.336 119.875 205.129 129.098 207.429C138.32 209.729 147.956 214.43 148.299 214.371C148.642 214.312 149.612 213.792 149.848 215.165C150.083 216.537 152.613 218.928 152.613 218.928C152.613 218.928 162.8 253.562 166.691 253.599C170.582 253.637 178.577 250.849 178.743 249.761C178.91 248.672 166.83 213.304 166.712 212.618L165.298 204.383C165.298 204.383 181.273 206.935 182.762 207.386C184.252 207.836 197.505 215.095 197.505 215.095C197.505 215.095 211.015 205.354 198.379 195.516C185.742 185.678 164.022 178.462 164.022 178.462L156.23 176.269L149.439 175.864L148.439 172.028L132.356 172.956L115.571 180.081L116.236 198.336Z" fill="#2F2E41"/>
<path d="M137.463 120.673C144.382 120.673 149.991 115.061 149.991 108.139C149.991 101.217 144.382 95.606 137.463 95.606C130.544 95.606 124.934 101.217 124.934 108.139C124.934 115.061 130.544 120.673 137.463 120.673Z" fill="#9F616A"/>
<path d="M126.128 118.213L127.635 117.954C127.635 117.954 130.357 128.437 138.776 130.168C138.776 130.168 142.93 125.19 142.752 124.35C142.575 123.51 146.042 119.028 147.886 121.537C149.729 124.046 147.436 168.244 148.985 169.037C150.533 169.83 153.856 170.672 151.182 173.605C148.508 176.537 137.886 180.483 135.533 179.121C133.181 177.76 128.374 166.222 126.295 162.341C124.215 158.459 120.887 145.255 120.887 145.255C120.887 145.255 116.638 130.796 119.253 127.52C121.868 124.244 126.128 118.213 126.128 118.213Z" fill="#D0CDE1"/>
<path d="M138.118 172.625C137.838 175.704 137.359 178.761 136.683 181.778C136.069 184.232 135.354 185.714 134.537 185.651C132.454 185.495 131.507 188.552 131.019 192.076C130.497 195.814 130.497 200.079 130.211 201.586C129.832 203.578 127.408 205.097 122.564 204.651C119.68 204.323 116.848 203.628 114.139 202.584C107.599 200.205 107.793 180.915 108.887 166.6C109.556 157.826 110.562 150.918 110.562 150.918C110.562 150.918 108.576 144.99 107.94 140.927C107.814 140.186 107.75 139.435 107.751 138.683C107.848 135.134 114.324 125.543 118.238 119.569C122.156 113.595 127.501 117.978 127.501 117.978L125.641 123.594C125.641 123.594 128.523 128.044 128.544 132.28C128.565 136.515 135.446 139.571 137.916 141.622C139.469 142.91 139.431 160.108 138.118 172.625Z" fill="#2F2E41"/>
<path d="M143.558 119.985C143.558 119.985 144.01 120.519 146.077 120.258C148.556 119.946 151.965 120.804 152.757 123.172C154.21 127.515 158.304 145.18 158.304 145.18C158.304 145.18 160.008 165.375 160.774 169.836C161.541 174.296 161.16 178.248 161.916 180.59C162.672 182.933 154.456 176.221 151.428 177.095C148.4 177.969 146.455 166.646 146.836 162.695C147.216 158.744 147.538 154.449 146.487 150.391C145.437 146.332 147.299 135.591 147.229 133.13C147.16 130.67 140.553 124.468 143.558 119.985Z" fill="#2F2E41"/>
<path d="M152.423 182.753C152.423 182.753 165.688 189.992 166.957 200.297C168.227 210.601 149.215 190.319 149.215 190.319L152.423 182.753Z" fill="#9F616A"/>
<path d="M159.995 175.445C159.995 175.445 164.06 195.942 170.392 194.853C176.724 193.764 166.855 174.266 166.855 174.266L159.995 175.445Z" fill="#9F616A"/>
<path d="M181.68 264.799C181.68 264.799 178.438 268.535 177.634 267.967C176.83 267.399 174.981 275.135 176.648 276.615C178.315 278.094 184.735 280.523 184.804 282.984C184.874 285.445 202.093 284.957 202.709 282.378C203.325 279.799 200.549 273.918 198.598 272.84C196.648 271.763 189.435 261.845 189.435 261.845C189.435 261.845 183.786 262.67 181.68 264.799Z" fill="#2F2E41"/>
<path opacity="0.1" d="M150.31 195.288C147.234 193.115 138.645 192.577 131.019 192.076C127.673 191.861 124.513 191.65 122.085 191.309C119.745 190.985 117.641 188.846 115.772 185.659C112.94 180.83 110.651 173.589 108.887 166.6C109.556 157.826 110.562 150.918 110.562 150.918C110.562 150.918 108.576 144.99 107.94 140.927C108.388 140.303 108.965 139.784 109.632 139.403C117.721 135.93 125.443 170.111 126.423 175.475C126.44 175.564 126.453 175.648 126.466 175.719C126.941 178.481 132.08 180.843 136.683 181.778C139.52 182.354 142.159 182.392 143.375 181.643C146.569 179.681 156.391 187.533 157.136 187.756C157.881 187.983 154.729 198.416 150.31 195.288Z" fill="black"/>
<path d="M109.633 137.299C109.633 137.299 103.755 140.076 106.338 153.055C108.921 166.035 114.124 188.102 122.082 189.206C130.041 190.31 145.887 190.058 150.308 193.184C154.73 196.309 157.881 185.877 157.136 185.651C156.391 185.426 146.568 177.577 143.374 179.54C140.18 181.502 127.232 178.076 126.466 173.616C125.7 169.155 117.854 133.766 109.633 137.299Z" fill="#2F2E41"/>
<path d="M151.996 131.074L158.457 146.073C158.457 146.073 159.108 145.748 159.863 148.091C160.619 150.434 160.973 152.492 162.296 154.031C163.62 155.57 169.51 177.518 169.687 178.548C169.863 179.577 161.552 183.126 159.695 180.266C157.838 177.406 151.996 131.074 151.996 131.074Z" fill="#2F2E41"/>
<path d="M130.335 107.965C130.815 107.837 130.886 107.199 130.902 106.702C130.988 104.041 132.589 101.31 135.136 100.536C136.113 100.268 137.136 100.212 138.136 100.371C139.564 100.561 140.943 101.021 142.199 101.727C142.862 102.1 143.513 102.549 144.265 102.663C144.762 102.738 146.913 103.364 147.407 103.452C148.495 103.645 149.506 104.619 150.549 104.257C151.548 103.91 151.769 102.617 151.793 101.56C151.848 99.1519 150.021 95.8192 148.411 94.0279C147.19 92.6685 145.351 92.041 143.553 91.7147C141.453 91.3771 139.325 91.2476 137.2 91.328C134.323 91.3794 131.366 91.6015 128.772 92.8468C126.178 94.0921 123.999 96.5706 123.874 99.4465C123.849 100.046 123.91 100.647 123.86 101.245C123.737 102.702 122.963 104.019 122.601 105.436C122.341 106.476 122.302 107.558 122.487 108.614C122.671 109.669 123.075 110.675 123.671 111.565C124.634 112.982 126.147 114.264 126.091 115.977L128.179 113.813C128.491 113.575 128.712 113.237 128.804 112.856C128.897 112.474 128.856 112.073 128.689 111.718L127.95 108.835C127.76 108.32 127.738 107.758 127.886 107.23C128.678 105.272 129.534 108.179 130.335 107.965Z" fill="#2F2E41"/>
<path d="M97 93C102.523 93 107 88.5228 107 83C107 77.4772 102.523 73 97 73C91.4772 73 87 77.4772 87 83C87 88.5228 91.4772 93 97 93Z" fill="#D36B6B"/>
<g opacity="0.5">
<path opacity="0.5" d="M103.756 77.9273L102.073 76.2444L90.2449 88.0725L91.9278 89.7554L103.756 77.9273Z" fill="#5A1919"/>
<path opacity="0.5" d="M102.074 89.7539L103.754 88.0742L91.9259 76.2461L90.2462 77.9258L102.074 89.7539Z" fill="#5A1919"/>
</g>
<path d="M51.9398 106.391C59.7257 106.391 66.0374 100.08 66.0374 92.2939C66.0374 84.508 59.7257 78.1963 51.9398 78.1963C44.1539 78.1963 37.8422 84.508 37.8422 92.2939C37.8422 100.08 44.1539 106.391 51.9398 106.391Z" fill="#51B485"/>
<path d="M43.416 93.3688L48.382 98.3347L60.4637 86.2529" stroke="white" stroke-opacity="0.5" stroke-width="4"/>
<path d="M83.4931 33.4581C91.279 33.4581 97.5907 27.1464 97.5907 19.3605C97.5907 11.5746 91.279 5.26288 83.4931 5.26288C75.7072 5.26288 69.3955 11.5746 69.3955 19.3605C69.3955 27.1464 75.7072 33.4581 83.4931 33.4581Z" fill="#51B485"/>
<path d="M74.9692 20.4354L79.9352 25.4014L92.017 13.3196" stroke="white" stroke-opacity="0.5" stroke-width="4"/>
<path d="M171.343 88.6963C177.142 88.6963 181.843 83.9953 181.843 78.1963C181.843 72.3973 177.142 67.6963 171.343 67.6963C165.544 67.6963 160.843 72.3973 160.843 78.1963C160.843 83.9953 165.544 88.6963 171.343 88.6963Z" fill="#51B485"/>
<path d="M164.994 78.9968L168.693 82.6955L177.691 73.6969" stroke="white" stroke-opacity="0.5" stroke-width="4"/>
<path d="M120.5 40C124.642 40 128 36.6421 128 32.5C128 28.3579 124.642 25 120.5 25C116.358 25 113 28.3579 113 32.5C113 36.6421 116.358 40 120.5 40Z" fill="#51B485"/>
<path d="M115.965 33.0718L118.607 35.7137L125.035 29.2861" stroke="white" stroke-opacity="0.5" stroke-width="2"/>
<path d="M230.844 44.2861C234.986 44.2861 238.344 40.9282 238.344 36.7861C238.344 32.6439 234.986 29.2861 230.844 29.2861C226.702 29.2861 223.344 32.6439 223.344 36.7861C223.344 40.9282 226.702 44.2861 230.844 44.2861Z" fill="#51B485"/>
<path d="M226.309 37.3579L228.951 39.9999L235.378 33.5723" stroke="white" stroke-opacity="0.5" stroke-width="2"/>
<path d="M7.93433 83C12.0765 83 15.4343 79.6421 15.4343 75.5C15.4343 71.3579 12.0765 68 7.93433 68C3.79219 68 0.434326 71.3579 0.434326 75.5C0.434326 79.6421 3.79219 83 7.93433 83Z" fill="#51B485"/>
<path d="M3.39954 76.0718L6.04145 78.7137L12.469 72.2861" stroke="white" stroke-opacity="0.5" stroke-width="2"/>
<path d="M152 22C158.075 22 163 17.0751 163 11C163 4.92487 158.075 0 152 0C145.925 0 141 4.92487 141 11C141 17.0751 145.925 22 152 22Z" fill="#51B485"/>
<path d="M145.349 11.8388L149.224 15.7136L158.651 6.28644" stroke="white" stroke-opacity="0.5" stroke-width="3"/>
<path d="M192.257 59.9736C200.043 59.9736 206.355 53.6619 206.355 45.876C206.355 38.0901 200.043 31.7784 192.257 31.7784C184.471 31.7784 178.159 38.0901 178.159 45.876C178.159 53.6619 184.471 59.9736 192.257 59.9736Z" fill="#51B485"/>
<path d="M183.733 46.9509L188.699 51.9169L200.781 39.8351" stroke="white" stroke-opacity="0.5" stroke-width="4"/>
<path d="M57 59.8351C62.5228 59.8351 67 55.3579 67 49.8351C67 44.3122 62.5228 39.8351 57 39.8351C51.4772 39.8351 47 44.3122 47 49.8351C47 55.3579 51.4772 59.8351 57 59.8351Z" fill="#D36B6B"/>
<g opacity="0.5">
<path opacity="0.5" d="M63.7555 44.7624L62.0726 43.0795L50.2445 54.9076L51.9274 56.5905L63.7555 44.7624Z" fill="#5A1919"/>
<path opacity="0.5" d="M62.0743 56.589L63.754 54.9093L51.9259 43.0812L50.2462 44.7609L62.0743 56.589Z" fill="#5A1919"/>
</g>
<path d="M124.934 73.9735C132.39 73.9735 138.434 67.7055 138.434 59.9735C138.434 52.2415 132.39 45.9735 124.934 45.9735C117.478 45.9735 111.434 52.2415 111.434 59.9735C111.434 67.7055 117.478 73.9735 124.934 73.9735Z" fill="#D36B6B"/>
<g opacity="0.5">
<path opacity="0.5" d="M134.054 52.8717L131.782 50.5156L115.814 67.0751L118.086 69.4311L134.054 52.8717Z" fill="#5A1919"/>
<path opacity="0.5" d="M131.784 69.429L134.052 67.0774L118.084 50.518L115.816 52.8695L131.784 69.429Z" fill="#5A1919"/>
</g>
<path d="M212.308 98.3347C221.697 98.3347 229.308 90.7236 229.308 81.3347C229.308 71.9459 221.697 64.3347 212.308 64.3347C202.919 64.3347 195.308 71.9459 195.308 81.3347C195.308 90.7236 202.919 98.3347 212.308 98.3347Z" fill="#D36B6B"/>
<g opacity="0.5">
<path opacity="0.5" d="M223.793 72.7112L220.932 69.8502L200.824 89.9581L203.685 92.819L223.793 72.7112Z" fill="#5A1919"/>
<path opacity="0.5" d="M220.935 92.8164L223.79 89.9609L203.682 69.8531L200.827 72.7086L220.935 92.8164Z" fill="#5A1919"/>
</g>
</svg>
