<svg width="165" height="254" viewBox="0 0 165 254" fill="none" xmlns="http://www.w3.org/2000/svg">
<path d="M82.4629 244.766C127.496 244.766 164.002 242.626 164.002 239.985C164.002 237.344 127.496 235.203 82.4629 235.203C37.4298 235.203 0.92334 237.344 0.92334 239.985C0.92334 242.626 37.4298 244.766 82.4629 244.766Z" fill="#6C63FF"/>
<path d="M42.4023 226.261L25.1994 241.695C17.4861 238.313 12.3647 232.557 9.76514 224.493L26.968 209.058C27.0764 219.2 32.3278 224.841 42.4023 226.261Z" fill="#F2F2F2"/>
<path d="M25.0669 216.008L13.4467 225.933L13.6645 226.188L25.2847 216.263L25.0669 216.008Z" fill="#3F3D56"/>
<path d="M26.232 218.086L15.0348 228.189L15.2594 228.438L26.4566 218.335L26.232 218.086Z" fill="#3F3D56"/>
<path d="M50.8714 170.22L27.8879 172.652C23.6178 165.392 22.8386 157.727 25.4559 149.668L48.4394 147.236C42.5866 155.519 43.5384 163.167 50.8714 170.22Z" fill="#F2F2F2"/>
<path d="M42.8274 151.755L27.5959 152.992L27.6231 153.326L42.8545 152.09L42.8274 151.755Z" fill="#3F3D56"/>
<path d="M42.5544 154.122L27.5614 155.751L27.5976 156.084L42.5906 154.455L42.5544 154.122Z" fill="#3F3D56"/>
<path d="M29.8521 121.505L14.4874 104.24C17.9009 96.5401 23.6773 91.4421 31.7525 88.8751L47.1172 106.14C36.9754 106.208 31.3132 111.436 29.8521 121.505Z" fill="#F2F2F2"/>
<path d="M30.2974 92.5509L30.0415 92.7676L39.9188 104.428L40.1747 104.211L30.2974 92.5509Z" fill="#3F3D56"/>
<path d="M28.0347 94.1298L27.7849 94.3534L37.8424 105.591L38.0922 105.368L28.0347 94.1298Z" fill="#3F3D56"/>
<path d="M47.1065 39.7128L31.4142 48.7728L53.7285 87.4223L69.4208 78.3624L47.1065 39.7128Z" fill="#E0E0E0"/>
<path d="M49.8773 49.0684L37.3898 56.5496L37.5621 56.8373L50.0497 49.3561L49.8773 49.0684Z" fill="#6C63FF"/>
<path d="M51.8641 51.8424L39.3766 59.3235L39.549 59.6112L52.0365 52.1301L51.8641 51.8424Z" fill="#6C63FF"/>
<path d="M53.2063 54.1912L40.7188 61.6723L40.8911 61.96L53.3786 54.4789L53.2063 54.1912Z" fill="#6C63FF"/>
<path d="M55.2196 57.2112L42.7321 64.6924L42.9044 64.9801L55.3919 57.4989L55.2196 57.2112Z" fill="#6C63FF"/>
<path d="M58.2397 61.5735L45.7521 69.0547L45.9244 69.3424L58.412 61.8612L58.2397 61.5735Z" fill="#6C63FF"/>
<path d="M104.021 88.6809C104.021 88.6809 112.659 84.5266 118.805 86.0751L104.021 46.203V42.1087L124.947 91.8978C130.179 101.76 136.793 124.237 125.516 126.041C112.721 128.088 89.6912 135.765 89.6912 135.765L84.5734 91.2398L104.021 88.6809Z" fill="#191926"/>
<path d="M53.6105 75.3746C53.6105 75.3746 39.7924 57.974 36.2099 64.1154C32.6275 70.2568 52.2988 80.5871 52.2988 80.5871L53.6105 75.3746Z" fill="#FFB9B9"/>
<path d="M58.2166 75.8864L52.587 72.8157C52.587 72.8157 49.0045 82.0278 49.0045 83.5631C49.0045 85.0984 54.6341 85.6102 54.6341 85.6102L58.2166 75.8864Z" fill="#D0CDE1"/>
<path d="M79.7115 36.991C87.0604 36.991 93.0179 31.0335 93.0179 23.6847C93.0179 16.3358 87.0604 10.3783 79.7115 10.3783C72.3626 10.3783 66.4052 16.3358 66.4052 23.6847C66.4052 31.0335 72.3626 36.991 79.7115 36.991Z" fill="#FFB9B9"/>
<path d="M89.9471 22.1493C89.9471 22.1493 95.5767 39.0381 99.671 40.0617C103.765 41.0853 83.8057 48.762 83.8057 48.762C83.8057 48.762 77.6643 34.4321 74.5936 30.8496C71.5229 27.2671 89.9471 22.1493 89.9471 22.1493Z" fill="#FFB9B9"/>
<path opacity="0.1" d="M121.933 120.923C132.965 119.158 126.876 97.6115 121.708 87.4419C122.177 87.7989 122.596 88.2155 122.957 88.6811C128.075 95.3342 138.31 123.994 125.516 126.041C112.721 128.088 89.6912 135.765 89.6912 135.765L88.9949 129.707C95.5756 127.595 111.901 122.529 121.933 120.923Z" fill="black"/>
<path d="M139.59 208.95C139.59 208.95 152.385 219.185 151.361 220.209C150.337 221.233 139.59 237.61 130.378 239.145C121.166 240.68 117.072 240.68 117.072 239.145C117.072 237.61 119.63 234.027 124.236 232.492C128.843 230.956 129.354 220.721 128.843 218.674C128.331 216.627 139.59 208.95 139.59 208.95Z" fill="#19191E"/>
<path d="M101.206 132.694L109.395 171.078C109.395 171.078 143.172 208.95 142.149 209.462C141.125 209.973 130.89 220.209 128.843 220.209C126.795 220.209 91.4824 180.29 91.4824 180.29L78.6879 147.024L101.206 132.694Z" fill="black"/>
<path d="M109.395 120.411C109.395 120.411 105.301 137.812 94.0414 149.583C82.7822 161.354 77.6644 185.408 77.6644 185.408L66.4052 233.515C66.4052 233.515 46.4457 230.956 47.4692 225.839L58.2166 183.361C58.2166 183.361 70.4994 124.506 77.1526 120.411C83.8058 116.317 109.395 120.411 109.395 120.411Z" fill="#101013"/>
<path d="M65.3815 229.421C65.3815 229.421 68.4522 239.145 66.4051 240.168C64.358 241.192 28.0214 243.239 25.9743 236.074C25.9743 236.074 24.9507 232.492 33.1392 232.492C41.3278 232.492 50.0281 224.815 50.0281 224.815L65.3815 229.421Z" fill="#19191E"/>
<path d="M80.7351 46.7148C80.7351 46.7148 94.0414 33.4085 97.6239 34.432C101.206 35.4556 101.206 40.5734 101.206 40.5734C101.206 40.5734 112.466 42.1088 111.442 78.9571C110.418 115.805 120.654 119.9 117.072 121.947C113.489 123.994 72.5466 133.206 71.0112 123.994C69.4758 114.782 69.9876 79.4689 74.0819 68.2097C78.1761 56.9505 83.294 49.7855 80.7351 46.7148Z" fill="#575A89"/>
<path d="M97.6239 49.7856C97.6239 49.7856 112.977 56.9505 104.277 70.7687C95.5768 84.5868 88.9236 99.4285 79.7115 98.9167C70.4994 98.4049 56.1695 89.7046 52.0753 89.7046C47.981 89.7046 53.6106 74.8629 56.6813 74.3512C59.752 73.8394 74.0819 82.5397 74.0819 82.5397C74.0819 82.5397 79.1997 47.7385 97.6239 49.7856Z" fill="#575A89"/>
<path d="M87.3878 25.155C86.2527 25.0873 85.1444 25.4709 84.0171 25.6206C79.9842 26.156 75.7887 23.2295 74.8982 19.2598C74.8268 18.7312 74.6693 18.2178 74.4318 17.7402C73.8111 16.7268 72.3975 16.5336 71.2322 16.7666C70.0669 16.9996 68.9623 17.545 67.7756 17.6073C65.9433 17.7034 64.1841 16.5754 63.2076 15.0219C62.2311 13.4685 61.9546 11.557 62.0865 9.72692L62.9649 10.6489C63.3218 9.89373 63.4596 9.05357 63.3626 8.22399C63.8281 8.10002 64.3176 8.09762 64.7843 8.21703C65.251 8.33645 65.6792 8.57367 66.0279 8.90598C66.8025 8.98841 66.2179 7.46932 66.7933 6.94434C67.0343 6.72451 67.4037 6.76598 67.7298 6.76912C69.3776 6.78501 70.7106 5.52469 72.009 4.51012C74.2588 2.75613 76.8897 1.55607 79.6891 1.00694C81.5497 0.644026 83.5283 0.585705 85.2929 1.27856C86.742 1.84757 87.955 2.88392 89.0772 3.96299C91.8398 6.61942 94.2861 9.74062 95.4354 13.3968C96.3697 16.3915 96.3962 19.5959 95.5114 22.6056C95.0483 24.1686 93.6527 29.5216 91.6094 29.6463C89.042 29.803 90.5835 25.3457 87.3878 25.155Z" fill="black"/>
</svg>
