<svg width="254" height="205" viewBox="0 0 254 205" fill="none" xmlns="http://www.w3.org/2000/svg">
<g opacity="0.1">
<path opacity="0.1" d="M70.4134 147.966C70.4995 148.213 70.5883 148.452 70.6909 148.685C72.5207 147.251 74.2931 145.771 76.0082 144.245C77.0335 143.788 77.8814 143.008 78.4226 142.025C78.9165 141.559 79.4078 141.081 79.8934 140.607C79.6833 140.371 79.4581 140.15 79.219 139.943C77.5761 138.503 75.5447 137.898 73.6881 138.512C71.8315 139.125 70.5633 140.82 70.0998 142.952C69.7553 144.621 69.8635 146.353 70.4134 147.966Z" fill="#3F3D56"/>
<path opacity="0.1" d="M67.3661 138.747C67.8855 140.366 68.8271 141.818 70.0941 142.952C71.737 144.387 73.7656 144.994 75.625 144.378C75.7526 144.334 75.8747 144.287 76.0024 144.237C77.0277 143.78 77.8756 143 78.4168 142.017C78.7891 141.368 79.0578 140.666 79.2133 139.935C79.5343 138.266 79.4222 136.542 78.8878 134.928C78.3534 133.314 77.4145 131.864 76.1606 130.716C74.5149 129.276 72.4863 128.671 70.6297 129.284C68.7731 129.897 67.5048 131.593 67.0414 133.724C66.6988 135.398 66.8109 137.132 67.3661 138.747Z" fill="#3F3D56"/>
<path opacity="0.1" d="M72.5662 135.176C75.7489 134.124 77.2127 129.894 75.8356 125.728C74.4585 121.561 70.762 119.036 67.5793 120.088C64.3967 121.14 62.9331 125.371 64.3102 129.537C65.6873 133.703 69.3836 136.228 72.5662 135.176Z" fill="#3F3D56"/>
<path opacity="0.1" d="M69.52 125.958C72.7026 124.906 74.1663 120.676 72.7892 116.509C71.4121 112.343 67.7157 109.818 64.5331 110.87C61.3504 111.922 59.8867 116.152 61.2638 120.319C62.6409 124.485 66.3373 127.01 69.52 125.958Z" fill="#3F3D56"/>
<path opacity="0.1" d="M66.4725 116.74C69.6551 115.688 71.1188 111.458 69.7417 107.291C68.3646 103.125 64.6682 100.6 61.4856 101.652C58.3029 102.704 56.8393 106.934 58.2164 111.101C59.5934 115.267 63.2898 117.792 66.4725 116.74Z" fill="#3F3D56"/>
<path opacity="0.1" d="M64.6992 38.9662C65.157 37.7034 65.5279 36.4109 65.8093 35.0976L49.8465 37.6174L66.2616 32.3252C66.7011 28.3881 66.3332 24.4028 65.1804 20.6127C64.0276 16.8227 62.1141 13.3075 59.5568 10.282L41.3572 28.9422L56.6928 7.3514C53.7104 4.70056 50.2141 2.6921 46.4218 1.45109C42.6294 0.210081 38.6222 -0.236901 34.6496 0.137978C30.677 0.512857 26.8242 1.70157 23.3309 3.63009C19.8377 5.55861 16.7789 8.18565 14.3449 11.3476C11.911 14.5096 10.1541 18.1388 9.18371 22.0092C8.21321 25.8796 8.04991 29.9084 8.70401 33.8447C9.35811 37.7809 10.8156 41.5404 12.9857 44.8889C15.1558 48.2374 17.992 51.1034 21.3177 53.3082C20.6056 55.2738 20.1078 57.3106 19.833 59.3831L42.8669 63.0963L19.586 62.9908C19.5524 67.8267 20.7252 72.5947 22.9983 76.8632C25.2714 81.1317 28.573 84.7661 32.6043 87.4373C30.7486 92.5668 30.3737 98.1149 31.5224 103.447C32.6712 108.78 35.2972 113.682 39.1004 117.592C42.9035 121.502 47.7303 124.264 53.0288 125.56C58.3273 126.857 63.8837 126.636 69.0628 124.924C74.2418 123.211 78.8345 120.076 82.3158 115.877C85.797 111.677 88.026 106.583 88.749 101.176C89.471 95.7691 88.658 90.2681 86.401 85.3019C84.145 80.3357 80.5363 76.1046 75.9886 73.0924C78.2092 66.962 78.3041 60.2629 76.2581 54.0719C74.212 47.881 70.1439 42.5578 64.7075 38.9578L64.6992 38.9662Z" fill="#6C63FF"/>
<path opacity="0.1" d="M21.0403 72.3376C23.078 78.5312 27.1468 83.8555 32.5877 87.4484C30.7358 92.5778 30.3642 98.1248 31.5154 103.455C32.6667 108.786 35.2943 113.685 39.098 117.593C42.9018 121.501 47.7282 124.26 53.0257 125.555C58.3233 126.85 63.8782 126.629 69.0558 124.916C74.2334 123.203 78.8248 120.069 82.3053 115.87C85.786 111.672 88.015 106.579 88.738 101.173C89.461 95.7681 88.649 90.2684 86.395 85.3027C84.14 80.337 80.534 76.1058 75.9886 73.0924C78.1283 67.173 20.0246 69.2266 21.0403 72.3376Z" fill="black"/>
</g>
<path d="M92.4021 69.4349C91.7111 68.0251 91.4531 66.4349 91.2031 64.8752C89.7381 55.6672 88.3671 45.7266 92.3461 37.3816C92.9741 36.069 93.7341 34.7924 94.8441 33.896C96.0321 32.9386 97.5051 32.4835 98.8821 31.8618C102.878 30.0635 106.097 26.836 109.611 24.1579C113.124 21.4799 117.365 19.2459 121.669 19.9286C123.889 20.281 125.943 21.3911 128.096 22.0877C134.179 24.058 141.201 22.7731 146.665 26.1894C148.638 27.4243 150.248 29.1865 151.829 30.9294L158.887 38.6998C160.799 40.8034 162.747 42.9597 163.904 45.5961C165.061 48.2325 165.306 51.4823 163.832 53.9411C163.091 55.1816 161.92 56.2556 161.792 57.7125C161.654 59.2944 162.802 60.6542 163.222 62.1805C164.332 66.2129 160.26 69.6735 156.547 71.2665C145.327 76.0675 132.983 75.5152 121.106 75.3182C112.261 75.1656 97.5031 79.8084 92.4021 69.4349Z" fill="#3F3D56"/>
<path d="M111.655 89.391C110.875 91.2531 109.199 92.5686 107.542 93.7258C105.885 94.883 104.118 95.9848 102.122 96.0791C105.638 100.6 110.448 103.925 115.149 107.18C117.339 108.692 119.559 110.202 122.056 111.057C124.349 111.839 126.788 112.034 129.186 112.361C132.238 112.78 135.277 113.427 138.344 113.299C143.808 113.072 149.034 110.316 152.658 106.22C156.283 102.123 158.358 96.784 158.919 91.3364C156.976 91.3058 155.184 90.2263 153.616 89.0496C151.698 87.6149 149.9 85.9553 148.662 83.9045C147.322 81.6843 146.719 79.109 146.109 76.5863C139.64 76.3921 133.171 76.2006 126.699 76.3255C124.343 76.3699 121.981 76.4615 119.684 77.047C117.494 77.6021 112.921 79.034 111.586 81.0072C110.817 82.145 111.586 83.3161 111.863 84.5428C112.218 86.1551 112.307 87.8397 111.655 89.391Z" fill="#BE6F72"/>
<path opacity="0.1" d="M111.655 89.391C110.875 91.2531 109.199 92.5686 107.542 93.7258C105.885 94.883 104.118 95.9848 102.122 96.0791C105.638 100.6 110.448 103.925 115.149 107.18C117.339 108.692 119.559 110.202 122.056 111.057C124.349 111.839 126.788 112.034 129.186 112.361C132.238 112.78 135.277 113.427 138.344 113.299C143.808 113.072 149.034 110.316 152.658 106.22C156.283 102.123 158.358 96.784 158.919 91.3364C156.976 91.3058 155.184 90.2263 153.616 89.0496C151.698 87.6149 149.9 85.9553 148.662 83.9045C147.322 81.6843 146.719 79.109 146.109 76.5863C139.64 76.3921 133.171 76.2006 126.699 76.3255C124.343 76.3699 121.981 76.4615 119.684 77.047C117.494 77.6021 112.921 79.034 111.586 81.0072C110.817 82.145 111.586 83.3161 111.863 84.5428C112.218 86.1551 112.307 87.8397 111.655 89.391Z" fill="black"/>
<path d="M118.973 97.0589C120.824 99.3595 125.267 103.217 125.267 103.217H130.208C130.208 103.217 130.24 103.014 131.217 102.104C136.095 97.5643 140.727 92.7675 145.093 87.7343C146.461 86.1552 147.868 84.5095 149.742 83.5909C151.434 98.865 151.876 114.252 151.063 129.598C151.071 129.887 151.004 130.174 150.868 130.43C150.577 130.872 149.966 130.935 149.436 130.955C133.77 131.543 117.477 132.015 103.13 125.682C104.126 122.726 103.962 119.529 104.059 116.41C104.218 111.295 105.106 106.231 106.332 101.272C106.935 98.8377 107.62 96.4261 108.347 94.0284C108.952 92.0191 109.413 88.478 110.764 86.96C113.872 89.7352 116.362 93.8119 118.973 97.0589Z" fill="#E3E8F4"/>
<path d="M125.911 117.651C124.105 115.015 122.86 112.035 122.253 108.898C122.059 107.893 121.929 106.869 121.573 105.909C121.046 104.485 120.053 103.292 119.156 102.063C115.832 97.5028 113.692 92.1897 112.926 86.5993C112.582 84.0628 112.352 81.1572 110.303 79.6225C109.016 78.6595 107.301 78.5124 105.691 78.5402C99.466 78.6958 93.504 81.082 88.89 85.2644C88.123 86.0252 87.312 86.7406 86.462 87.4068C85.59 88.0028 84.661 88.5086 83.6868 88.9165C81.228 90.0266 78.6582 90.948 75.9802 91.2283C75.2919 91.2569 74.6097 91.3697 73.9488 91.564C73.1495 91.8416 72.4918 92.4271 71.8174 92.9516C69.6633 94.6108 67.1884 95.8052 64.5493 96.4594C60.8247 105.108 57.9437 114.096 55.9462 123.298C55.4439 125.588 54.9943 127.894 54.3089 130.136C53.3625 133.244 51.9694 136.208 51.0397 139.322C47.3432 151.713 51.2257 165.212 48.7363 177.897L182.239 178.08C180.141 174.825 180.895 170.69 180.715 166.821C180.546 163.258 179.641 159.775 179.014 156.262C177.965 150.387 177.696 144.398 177.587 138.431C177.543 135.911 177.54 133.308 178.514 130.985C180.343 126.626 185.089 124.325 189.582 122.846C191.73 122.141 193.989 121.497 195.687 119.99C197.427 118.433 198.332 116.147 198.887 113.885C195.859 107.918 191.924 102.229 186.954 97.7527C185.086 96.0876 183.091 94.5251 181.514 92.577C180.554 91.3864 179.758 90.0599 178.698 88.9693C176.044 86.2135 172.037 85.1756 168.219 85.023C167.039 84.9758 165.843 84.998 164.7 84.7038C161.419 83.8713 159.33 80.6659 156.374 79.0064C154.318 77.8588 151.917 77.4903 149.611 77.9685C147.946 78.3154 146.242 79.3033 145.867 80.9462C145.659 81.8704 145.914 82.825 146.012 83.7658C146.311 86.6603 145.11 89.4965 143.655 92.0164C138.43 101.011 129.885 108.029 125.911 117.651Z" fill="#6C63FF"/>
<path d="M159.188 62.1749C159.187 68.3952 157.117 74.4385 153.303 79.3528C149.49 84.2671 144.15 87.7733 138.125 89.3192C132.099 90.865 125.731 90.3627 120.023 87.8913C114.314 85.4199 109.59 81.1198 106.595 75.6683C103.599 70.2169 102.502 63.9238 103.476 57.7801C104.45 51.6365 107.44 45.9914 111.975 41.7339C116.51 37.4765 122.332 34.8486 128.525 34.2641C134.718 33.6796 140.929 35.1717 146.181 38.5054C150.167 41.0359 153.45 44.5323 155.723 48.6702C157.997 52.8081 159.189 57.4533 159.188 62.1749Z" fill="#BE6F72"/>
<path d="M132.3 159.722C128.534 159.422 124.618 158.484 121.071 159.783C119.862 160.266 118.715 160.892 117.655 161.648C113.824 164.22 110.296 167.216 107.137 170.579C106.224 171.547 105.33 172.568 104.77 173.778C103.979 175.485 103.91 177.431 103.382 179.237C103.08 180.272 102.619 181.321 102.802 182.384C102.985 183.447 104.212 184.399 105.131 183.833C105.085 184.129 105.105 184.432 105.189 184.72C105.274 185.007 105.421 185.273 105.62 185.497C105.819 185.721 106.065 185.899 106.341 186.017C106.617 186.135 106.915 186.191 107.215 186.181C108.619 186.132 109.975 185.655 111.1 184.812C111.136 185.149 111.3 185.459 111.558 185.678C111.817 185.896 112.15 186.007 112.488 185.986C114.894 185.828 117.186 184.599 119.245 183.256C121.662 181.69 124.063 179.909 126.894 179.37C125.152 180.164 123.618 181.351 122.412 182.837C121.948 183.405 121.515 184.072 122.026 184.951C122.331 185.445 122.801 185.816 123.352 185.998C126.522 187.108 129.966 185.27 132.08 182.723C132.932 181.693 133.684 180.503 134.855 179.878C136.74 178.865 139.063 179.576 141.183 179.282C143.536 178.96 145.515 177.425 147.677 176.434C150.555 175.119 153.763 174.769 156.835 173.987C157.204 173.933 157.544 173.757 157.801 173.487C157.993 173.167 158.075 172.793 158.037 172.421C158.023 168.62 157.736 164.825 157.179 161.065C157.133 160.46 156.948 159.873 156.638 159.35C156.033 158.49 154.884 158.24 153.849 158.068C152.184 157.791 150.316 157.169 148.64 157.175C147.03 157.175 145.479 158.085 143.944 158.532C140.166 159.629 136.221 160.032 132.3 159.722Z" fill="#BE6F72"/>
<path d="M253.179 173.264H0.552002V204.735H253.179V173.264Z" fill="#7B7897"/>
<path d="M149.855 154.719C145.695 155.155 141.782 156.905 138.682 159.714C142.143 158.84 145.867 157.977 149.203 159.242C150.828 159.859 152.233 160.944 153.24 162.36C154.247 163.776 154.812 165.46 154.861 167.197C154.91 168.934 154.443 170.647 153.517 172.118C152.592 173.589 151.251 174.752 149.664 175.46C150.338 176.218 151.329 176.59 152.314 176.875C159.432 178.951 167.053 177.708 174.332 176.293C175.664 176.035 177.107 175.693 177.921 174.597C178.645 173.606 178.623 172.271 178.559 171.042C178.373 167.493 178.065 163.827 176.455 160.666C174.274 156.375 170.486 154.777 165.924 155.274C160.556 155.845 155.228 154.175 149.855 154.719Z" fill="#E3E8F4"/>
<path d="M195.146 109.247C197.447 111.437 199.106 114.201 200.63 116.987C205.792 126.421 209.747 136.466 212.402 146.887C212.663 147.911 212.921 148.963 213.532 149.826C214.42 151.077 215.927 151.768 216.895 152.951C218.058 154.388 218.283 156.414 217.9 158.224C217.517 160.033 216.604 161.684 215.68 163.285C213.151 167.665 210.168 172.185 205.525 174.186C203.583 175.019 201.46 175.363 199.359 175.638C191.468 176.676 183.494 176.933 175.553 176.406C176.941 174.797 177.074 172.421 176.583 170.354C176.092 168.286 175.068 166.391 174.363 164.39C173.808 162.828 173.416 161.162 172.442 159.819C171.724 158.897 170.84 158.119 169.834 157.524C167.548 156.073 164.978 155.131 162.296 154.76C164.286 153.206 166.864 152.69 169.29 151.985C171.715 151.28 174.252 150.198 175.523 148.016C176.286 146.709 176.497 145.158 176.6 143.648C176.909 139.106 176.379 134.545 175.034 130.194C174.141 127.3 172.875 124.275 173.647 121.35C174.041 119.873 174.926 118.575 175.795 117.331C177.488 114.889 179.242 112.389 181.711 110.74C183.843 109.317 186.377 108.648 188.913 108.47C190.814 108.345 193.703 107.885 195.146 109.247Z" fill="#6C63FF"/>
<path d="M95.2819 194.306C95.2589 197.204 87.3809 200.412 78.2641 200.412C69.1477 200.412 61.5382 197.212 61.416 194.306C60.9914 184.23 69.1449 189.902 78.2641 189.902C87.3829 189.902 95.3649 182.706 95.2819 194.306Z" fill="#3F3D56"/>
<path opacity="0.2" d="M95.2819 194.306C95.2589 197.204 87.3809 200.412 78.2641 200.412C69.1477 200.412 61.5382 197.212 61.416 194.306C60.9914 184.23 69.1449 189.902 78.2641 189.902C87.3829 189.902 95.3649 182.706 95.2819 194.306Z" fill="black"/>
<path d="M94.7741 189.902C94.7741 192.802 87.3811 196.008 78.2644 196.008C69.1479 196.008 61.7549 192.811 61.7549 189.902C61.7549 186.994 69.1451 185.501 78.2644 185.501C87.3831 185.501 94.7741 187.005 94.7741 189.902Z" fill="#3F3D56"/>
<path opacity="0.1" d="M94.7741 189.902C94.7741 192.802 87.3811 196.008 78.2644 196.008C69.1479 196.008 61.7549 192.811 61.7549 189.902C61.7549 186.994 69.1451 185.501 78.2644 185.501C87.3831 185.501 94.7741 187.005 94.7741 189.902Z" fill="white"/>
<path d="M91.5551 188.759C91.5381 191.02 85.3941 193.513 78.281 193.513C71.1682 193.513 65.2377 191.015 65.1378 188.759C64.8075 180.899 71.1682 185.323 78.281 185.323C85.3941 185.323 91.6211 179.712 91.5551 188.759Z" fill="#3F3D56"/>
<path opacity="0.2" d="M91.5551 188.759C91.5381 191.02 85.3941 193.513 78.281 193.513C71.1682 193.513 65.2377 191.015 65.1378 188.759C64.8075 180.899 71.1682 185.323 78.281 185.323C85.3941 185.323 91.6211 179.712 91.5551 188.759Z" fill="black"/>
<path d="M91.1579 184.765C91.1579 187.294 85.3939 190.08 78.2807 190.08C71.168 190.08 65.4011 187.305 65.4011 184.765C65.4011 182.226 71.168 180.93 78.2807 180.93C85.3939 180.93 91.1579 182.234 91.1579 184.765Z" fill="#3F3D56"/>
<path opacity="0.1" d="M91.1579 184.765C91.1579 187.294 85.3939 190.08 78.2807 190.08C71.168 190.08 65.4011 187.305 65.4011 184.765C65.4011 182.226 71.168 180.93 78.2807 180.93C85.3939 180.93 91.1579 182.234 91.1579 184.765Z" fill="white"/>
<path d="M47.4181 201.527C47.4181 201.527 49.8547 198.841 50.2738 195.822C50.6928 192.802 38.3683 188.165 38.3683 188.165C38.3683 188.165 34.0945 190.663 33.9502 193.002C33.9502 193.002 42.1314 201.794 47.4181 201.527Z" fill="#3F3D56"/>
<path opacity="0.2" d="M47.4181 201.527C47.4181 201.527 49.8547 198.841 50.2738 195.822C50.6928 192.802 38.3683 188.165 38.3683 188.165C38.3683 188.165 34.0945 190.663 33.9502 193.002C33.9502 193.002 42.1314 201.794 47.4181 201.527Z" fill="black"/>
<path d="M47.3067 201.65C48.0686 200.38 45.6202 197.511 41.838 195.241C38.0557 192.971 34.372 192.16 33.6101 193.43C32.8482 194.699 35.2967 197.568 39.0789 199.838C42.8611 202.108 46.5448 202.919 47.3067 201.65Z" fill="#3F3D56"/>
<path opacity="0.1" d="M47.3067 201.65C48.0686 200.38 45.6202 197.511 41.838 195.241C38.0557 192.971 34.372 192.16 33.6101 193.43C32.8482 194.699 35.2967 197.568 39.0789 199.838C42.8611 202.108 46.5448 202.919 47.3067 201.65Z" fill="white"/>
<path d="M50.446 194.897L57.4561 183.211L50.3267 177.156L44.768 176.115L43.0335 179.243L38.1548 188.295L50.446 194.897Z" fill="#3F3D56"/>
<path opacity="0.1" d="M50.446 194.897L57.4561 183.211L50.3267 177.156L44.768 176.115L43.0335 179.243L38.1548 188.295L50.446 194.897Z" fill="white"/>
<path d="M57.5502 184.363C57.5502 184.363 62.2846 179.332 61.0691 176.612C59.8536 173.892 53.4346 168.442 49.3468 169.272C45.259 170.101 44.604 176.129 44.604 176.129L57.5502 184.363Z" fill="#3F3D56"/>
<path opacity="0.2" d="M57.5502 184.363C57.5502 184.363 62.2846 179.332 61.0691 176.612C59.8536 173.892 53.4346 168.442 49.3468 169.272C45.259 170.101 44.604 176.129 44.604 176.129L57.5502 184.363Z" fill="black"/>
<path d="M3.69812 162.253L39.9613 184.31C39.9613 184.31 43.408 183.863 43.0334 179.248L7.11712 156.952C6.38602 156.498 5.51992 156.312 4.66672 156.425C3.68422 156.558 2.52142 156.916 2.14402 157.852C2.04762 158.09 1.98052 158.338 1.94422 158.593C1.84282 159.308 1.95522 160.037 2.26732 160.688C2.57942 161.34 3.07722 161.884 3.69812 162.253Z" fill="#3F3D56"/>
<path opacity="0.2" d="M3.69812 162.253L39.9613 184.31C39.9613 184.31 43.408 183.863 43.0334 179.248L7.11712 156.952C6.38602 156.498 5.51992 156.312 4.66672 156.425C3.68422 156.558 2.52142 156.916 2.14402 157.852C2.04762 158.09 1.98052 158.338 1.94422 158.593C1.84282 159.308 1.95522 160.037 2.26732 160.688C2.57942 161.34 3.07722 161.884 3.69812 162.253Z" fill="black"/>
<path d="M50.4403 196.543C50.6297 196.532 50.8107 196.461 50.957 196.341C51.1032 196.22 51.2071 196.055 51.2535 195.871C51.4311 195.247 51.1064 194.648 50.765 194.148C50.1555 193.257 49.3947 192.479 48.5171 191.85C47.0408 190.782 45.6088 189.577 43.9381 188.798C42.9709 188.367 41.958 188.048 40.9187 187.846C40.1397 187.667 39.3425 187.579 38.5432 187.585C38.4013 187.589 38.264 187.636 38.1495 187.719C38.035 187.803 37.9486 187.92 37.902 188.054C37.8553 188.188 37.8505 188.333 37.8882 188.47C37.9259 188.607 38.0043 188.729 38.113 188.82C38.4825 189.065 38.8949 189.238 39.3285 189.33C41.4904 189.966 43.4913 191.068 45.3645 192.319C46.3735 192.968 47.3185 193.712 48.1869 194.539C48.7641 195.111 49.5023 196.565 50.4403 196.543Z" fill="#3F3D56"/>
<path opacity="0.2" d="M50.4403 196.543C50.6297 196.532 50.8107 196.461 50.957 196.341C51.1032 196.22 51.2071 196.055 51.2535 195.871C51.4311 195.247 51.1064 194.648 50.765 194.148C50.1555 193.257 49.3947 192.479 48.5171 191.85C47.0408 190.782 45.6088 189.577 43.9381 188.798C42.9709 188.367 41.958 188.048 40.9187 187.846C40.1397 187.667 39.3425 187.579 38.5432 187.585C38.4013 187.589 38.264 187.636 38.1495 187.719C38.035 187.803 37.9486 187.92 37.902 188.054C37.8553 188.188 37.8505 188.333 37.8882 188.47C37.9259 188.607 38.0043 188.729 38.113 188.82C38.4825 189.065 38.8949 189.238 39.3285 189.33C41.4904 189.966 43.4913 191.068 45.3645 192.319C46.3735 192.968 47.3185 193.712 48.1869 194.539C48.7641 195.111 49.5023 196.565 50.4403 196.543Z" fill="black"/>
<path d="M56.2294 185.257C56.2294 185.257 59.7872 185.343 56.8427 181.765C53.8983 178.188 48.631 174.639 44.8817 175.441C44.8817 175.441 43.3276 176.728 44.6708 176.95C45.9446 177.161 51.8863 178.338 54.617 181.649C54.9159 182.008 55.2497 182.337 55.6133 182.631C56.2544 183.153 57.1175 184.141 56.2294 185.257Z" fill="#3F3D56"/>
<path opacity="0.2" d="M56.2294 185.257C56.2294 185.257 59.7872 185.343 56.8427 181.765C53.8983 178.188 48.631 174.639 44.8817 175.441C44.8817 175.441 43.3276 176.728 44.6708 176.95C45.9446 177.161 51.8863 178.338 54.617 181.649C54.9159 182.008 55.2497 182.337 55.6133 182.631C56.2544 183.153 57.1175 184.141 56.2294 185.257Z" fill="black"/>
<path d="M62.0291 177.374C62.791 176.105 60.3426 173.236 56.5603 170.966C52.7781 168.696 49.0944 167.885 48.3325 169.154C47.5706 170.424 50.0191 173.293 53.8013 175.563C57.5835 177.833 61.2672 178.644 62.0291 177.374Z" fill="#3F3D56"/>
<path opacity="0.1" d="M62.0291 177.374C62.791 176.105 60.3426 173.236 56.5603 170.966C52.7781 168.696 49.0944 167.885 48.3325 169.154C47.5706 170.424 50.0191 173.293 53.8013 175.563C57.5835 177.833 61.2672 178.644 62.0291 177.374Z" fill="white"/>
<path d="M38.5432 176.456C38.4951 177.103 38.2893 177.728 37.9439 178.276C37.5985 178.825 37.1239 179.281 36.5617 179.604C34.6996 180.597 32.0854 179.712 31.2084 177.791C30.7533 176.792 30.745 175.671 30.6534 174.569C30.6236 174.21 30.5754 173.853 30.5091 173.498C30.2316 172.069 29.0493 170.551 27.6201 170.834C26.4407 171.064 25.8191 172.388 25.6775 173.581C25.641 173.909 25.6224 174.239 25.622 174.569C25.622 174.914 25.6359 175.258 25.6553 175.602C25.6942 176.307 25.7552 177.014 25.7524 177.719C25.7524 179.107 25.4527 180.58 24.4509 181.532C23.2354 182.69 21.3705 182.742 19.6887 182.723C15.5842 182.681 11.0163 182.445 7.92749 179.92C7.54729 179.613 7.19449 179.275 6.87299 178.907C6.26929 178.212 5.77949 177.426 5.42149 176.579C5.14639 175.931 4.93539 175.258 4.79159 174.569C4.33089 172.419 4.43359 170.074 4.81099 167.892C5.05519 166.466 5.52699 164.903 6.57049 163.993C6.81899 163.776 7.09989 163.599 7.40299 163.469C7.90249 163.258 8.46869 163.191 8.90439 162.861C9.34009 162.531 9.62319 161.931 10.0838 161.57C11.008 160.846 12.4122 161.157 13.4945 160.913H13.5417L13.6 160.896C14.7683 160.619 15.8479 159.98 16.9496 159.509C17.4242 159.306 17.8987 159.112 18.376 158.94C19.5645 158.465 20.8475 158.275 22.1225 158.385C26.2853 158.859 31.2806 161.385 34.1307 164.415C34.8329 165.112 35.3795 165.95 35.7347 166.874C35.9676 167.648 36.0964 168.45 36.1177 169.258C36.1926 170.398 36.2537 171.536 36.8198 172.51C37.1639 173.099 37.669 173.579 38.027 174.175C38.1095 174.309 38.1819 174.449 38.2435 174.594C38.4979 175.18 38.6009 175.82 38.5432 176.456Z" fill="#BE6F72"/>
<path d="M29.3878 162.758C31.0835 163.635 32.7514 164.626 34.0834 165.991C35.4155 167.357 36.3979 169.147 36.4756 171.056C37.6399 169.647 38.639 168.11 39.4534 166.474C40.0972 165.184 40.6273 163.657 40.0556 162.331C39.7824 161.769 39.3982 161.269 38.9261 160.86C36.4285 158.496 33.0705 157.188 29.6737 156.653C26.0021 156.073 18.6674 154.807 18.104 160.152C22.2168 159.958 25.7135 160.866 29.3878 162.758Z" fill="#E3E8F4"/>
<path d="M74.8786 94.4169C72.1617 95.5908 68.9813 94.761 66.109 95.4714C63.9888 95.9959 62.1655 97.3253 60.4449 98.6712C57.0148 101.352 53.6346 104.349 51.8003 108.298C51.2008 109.592 50.7734 110.965 50.0547 112.184C48.8919 114.171 47.0353 115.65 45.101 116.901C40.1584 120.087 34.4194 122.08 30.0207 125.982C28.1391 127.647 26.5545 129.623 25.0809 131.657C23.3492 134.044 21.6924 136.708 21.6591 139.655C21.6591 140.809 21.8867 141.981 21.6591 143.116C21.1707 145.655 18.6064 147.231 17.4492 149.546C16.3391 151.752 16.6028 154.477 15.3678 156.608C14.5575 157.996 13.0894 159.384 13.5529 160.916C16.9552 158.36 21.0458 157.308 25.2086 158.14C27.2927 158.554 29.2381 159.484 31.103 160.502C33.2649 161.684 35.3962 163.027 36.9586 164.942C38.5211 166.857 39.4563 169.405 38.9013 171.805C41.1519 170.695 42.484 168.325 43.4081 165.994C44.3323 163.663 45.0372 161.174 46.5718 159.2C47.3628 158.182 48.3452 157.336 49.2804 156.45C54.4727 151.53 58.2165 145.313 61.8908 139.178C65.6798 132.854 69.467 126.527 73.2523 120.195C74.3013 118.439 75.3559 116.671 76.1135 114.773C78.6584 108.39 77.0099 100.936 74.8786 94.4169Z" fill="#6C63FF"/>
<path d="M119.039 49.9365C120.981 50.6858 122.877 51.7626 124.961 51.9041C127.606 52.0817 130.103 50.733 132.731 50.3611C137.546 49.6812 142.117 52.3037 146.64 54.0854C151.164 55.867 156.992 56.6052 160.308 53.0502C163.125 50.0281 162.736 45.0022 160.472 41.561C158.207 38.1198 154.508 35.8941 150.85 33.9765C146.815 31.8618 142.608 29.9386 138.115 29.1921C128.58 27.613 118.891 31.5565 110.979 37.1097C108.354 38.9524 105.759 41.1031 104.505 44.0476C103.795 45.7127 103.573 47.844 104.191 49.5785C105.207 52.4314 105.873 52.0928 107.98 51.3491C112.004 49.9337 114.382 48.1548 119.039 49.9365Z" fill="#3F3D56"/>
<path d="M125.448 53.1259C126.009 51.7235 123.578 43.8933 122.292 40.1535C119.768 31.0614 108.385 34.2615 103.009 36.998C99.6201 41.4391 92.8411 44.256 92.8411 54.879C92.8411 67.1502 96.4101 76.3235 106.866 79.772C111.774 81.391 103.009 75.7636 106.866 73.6599C109.951 71.977 103.447 52.1878 111.282 57.8441L116.496 60.1035C118.06 54.879 124.887 54.5283 125.448 53.1259Z" fill="#3F3D56"/>
<path d="M109.3 71.3664C112.321 71.3664 114.77 67.8304 114.77 63.4685C114.77 59.1066 112.321 55.5706 109.3 55.5706C106.279 55.5706 103.83 59.1066 103.83 63.4685C103.83 67.8304 106.279 71.3664 109.3 71.3664Z" fill="#BE6F72"/>
<path d="M126.107 103.538L134.93 101.186L150.379 142.347L132.3 146.187L126.107 103.538Z" fill="#E2E2E2"/>
<mask id="mask0" mask-type="alpha" maskUnits="userSpaceOnUse" x="126" y="101" width="25" height="46">
<path d="M126.107 103.538L134.93 101.186L150.379 142.347L132.3 146.187L126.107 103.538Z" fill="#E2E2E2"/>
</mask>
<g mask="url(#mask0)">
<path opacity="0.1" d="M131.695 102.283L120.939 101.237L104.668 142.08L122.666 146.282L131.695 102.283Z" fill="black"/>
<path d="M130.81 102.481L120.035 101.65L104.586 142.811L122.665 146.652L130.81 102.481Z" fill="#EFEDED"/>
</g>
<mask id="mask1" mask-type="alpha" maskUnits="userSpaceOnUse" x="104" y="101" width="27" height="46">
<path d="M130.81 102.481L120.035 101.65L104.586 142.811L122.665 146.652L130.81 102.481Z" fill="#EFEDED"/>
</mask>
<g mask="url(#mask1)">
<path opacity="0.1" d="M127.767 101.869C115.337 92.2114 112.528 83.9314 111.71 80.6603C112.757 92.4987 115.862 101.683 117.552 105.006L127.767 101.869Z" fill="black"/>
<path d="M125.908 102.02C115.856 93.8197 113.151 86.4318 112.49 83.6544C113.336 93.7062 116.281 101.862 117.648 104.684L125.908 102.02Z" fill="white"/>
<path d="M130.559 102.524C139.206 94.1029 143.703 89.4738 146.083 86.0352C144.056 95.9167 139.973 102.134 138.283 104.774L130.559 102.524Z" fill="white"/>
</g>
</svg>
