<svg width="275" height="222" viewBox="0 0 275 222" fill="none" xmlns="http://www.w3.org/2000/svg">
<g opacity="0.1">
<path opacity="0.1" d="M86.4133 147.966C86.4994 148.213 86.5882 148.452 86.6908 148.685C88.5206 147.251 90.293 145.771 92.0081 144.245C93.0334 143.788 93.8813 143.008 94.4225 142.025C94.9164 141.559 95.4077 141.081 95.8933 140.607C95.6832 140.371 95.458 140.15 95.2189 139.943C93.576 138.503 91.5446 137.898 89.688 138.512C87.8314 139.125 86.5632 140.82 86.0997 142.952C85.7552 144.621 85.8634 146.353 86.4133 147.966Z" fill="#3F3D56"/>
<path opacity="0.1" d="M83.3662 138.747C83.8856 140.366 84.8272 141.818 86.0942 142.952C87.7371 144.387 89.7657 144.994 91.6251 144.378C91.7527 144.334 91.8748 144.287 92.0025 144.237C93.0278 143.78 93.8757 143 94.4169 142.017C94.7892 141.368 95.0579 140.666 95.2134 139.935C95.5344 138.266 95.4223 136.542 94.8879 134.928C94.3535 133.314 93.4146 131.864 92.1607 130.716C90.515 129.276 88.4864 128.671 86.6298 129.284C84.7732 129.897 83.5049 131.593 83.0415 133.724C82.6989 135.398 82.811 137.132 83.3662 138.747Z" fill="#3F3D56"/>
<path opacity="0.1" d="M88.5663 135.176C91.749 134.124 93.2127 129.894 91.8356 125.728C90.4585 121.561 86.7621 119.036 83.5794 120.088C80.3968 121.14 78.9331 125.371 80.3102 129.537C81.6873 133.703 85.3837 136.228 88.5663 135.176Z" fill="#3F3D56"/>
<path opacity="0.1" d="M85.5199 125.958C88.7025 124.906 90.1662 120.676 88.7891 116.509C87.412 112.343 83.7156 109.818 80.533 110.87C77.3503 111.922 75.8866 116.152 77.2637 120.319C78.6408 124.485 82.3372 127.01 85.5199 125.958Z" fill="#3F3D56"/>
<path opacity="0.1" d="M82.4725 116.74C85.6551 115.688 87.1188 111.458 85.7417 107.291C84.3646 103.125 80.6682 100.6 77.4856 101.652C74.3029 102.704 72.8393 106.934 74.2164 111.101C75.5934 115.267 79.2898 117.792 82.4725 116.74Z" fill="#3F3D56"/>
<path opacity="0.1" d="M80.6992 38.9662C81.157 37.7034 81.5279 36.4109 81.8093 35.0976L65.8465 37.6174L82.2616 32.3252C82.7011 28.3881 82.3332 24.4028 81.1804 20.6127C80.0276 16.8227 78.1141 13.3075 75.5568 10.282L57.3572 28.9422L72.6928 7.3514C69.7104 4.70056 66.2141 2.6921 62.4218 1.45109C58.6294 0.210081 54.6222 -0.236901 50.6496 0.137978C46.677 0.512857 42.8242 1.70157 39.3309 3.63009C35.8377 5.55861 32.7789 8.18565 30.3449 11.3476C27.911 14.5096 26.1541 18.1388 25.1837 22.0092C24.2132 25.8796 24.0499 29.9084 24.704 33.8447C25.3581 37.7809 26.8156 41.5404 28.9857 44.8889C31.1558 48.2374 33.992 51.1034 37.3177 53.3082C36.6056 55.2738 36.1078 57.3106 35.833 59.3831L58.8669 63.0963L35.586 62.9908C35.5524 67.8267 36.7252 72.5947 38.9983 76.8632C41.2714 81.1317 44.573 84.7661 48.6043 87.4373C46.7486 92.5668 46.3737 98.1149 47.5224 103.447C48.6712 108.78 51.2972 113.682 55.1004 117.592C58.9035 121.502 63.7303 124.264 69.0288 125.56C74.3273 126.857 79.8837 126.636 85.0628 124.924C90.2418 123.211 94.8345 120.076 98.3158 115.877C101.797 111.677 104.026 106.583 104.749 101.176C105.471 95.7691 104.658 90.2681 102.401 85.3019C100.145 80.3357 96.5363 76.1046 91.9886 73.0924C94.2092 66.962 94.3041 60.2629 92.2581 54.0719C90.212 47.881 86.1439 42.5578 80.7075 38.9578L80.6992 38.9662Z" fill="#6C63FF"/>
<path opacity="0.1" d="M37.0403 72.3376C39.078 78.5312 43.1468 83.8555 48.5877 87.4484C46.7358 92.5778 46.3642 98.1248 47.5154 103.455C48.6667 108.786 51.2943 113.685 55.098 117.593C58.9018 121.501 63.7282 124.26 69.0257 125.555C74.3233 126.85 79.8782 126.629 85.0558 124.916C90.2334 123.203 94.8248 120.069 98.3053 115.87C101.786 111.672 104.015 106.579 104.738 101.173C105.461 95.7681 104.649 90.2684 102.395 85.3027C100.14 80.337 96.534 76.1058 91.9886 73.0924C94.1283 67.173 36.0246 69.2266 37.0403 72.3376Z" fill="black"/>
</g>
<path d="M108.402 69.4349C107.711 68.0251 107.453 66.4349 107.203 64.8752C105.738 55.6672 104.367 45.7266 108.346 37.3816C108.974 36.069 109.734 34.7924 110.844 33.896C112.032 32.9386 113.505 32.4835 114.882 31.8618C118.878 30.0635 122.097 26.836 125.611 24.1579C129.124 21.4799 133.365 19.2459 137.669 19.9286C139.889 20.281 141.943 21.3911 144.096 22.0877C150.179 24.058 157.201 22.7731 162.665 26.1894C164.638 27.4243 166.248 29.1865 167.829 30.9294L174.887 38.6998C176.799 40.8034 178.747 42.9597 179.904 45.5961C181.061 48.2325 181.306 51.4823 179.832 53.9411C179.091 55.1816 177.92 56.2556 177.792 57.7125C177.654 59.2944 178.802 60.6542 179.222 62.1805C180.332 66.2129 176.26 69.6735 172.547 71.2665C161.327 76.0675 148.983 75.5152 137.106 75.3182C128.261 75.1656 113.503 79.8084 108.402 69.4349Z" fill="#3F3D56"/>
<path d="M127.655 89.391C126.875 91.2531 125.199 92.5686 123.542 93.7258C121.885 94.883 120.118 95.9848 118.122 96.0791C121.638 100.6 126.448 103.925 131.149 107.18C133.339 108.692 135.559 110.202 138.056 111.057C140.349 111.839 142.788 112.034 145.186 112.361C148.238 112.78 151.277 113.427 154.344 113.299C159.808 113.072 165.034 110.316 168.658 106.22C172.283 102.123 174.358 96.784 174.919 91.3364C172.976 91.3058 171.184 90.2263 169.616 89.0496C167.698 87.6149 165.9 85.9553 164.662 83.9045C163.322 81.6843 162.719 79.109 162.109 76.5863C155.64 76.3921 149.171 76.2006 142.699 76.3255C140.343 76.3699 137.981 76.4615 135.684 77.047C133.494 77.6021 128.921 79.034 127.586 81.0072C126.817 82.145 127.586 83.3161 127.863 84.5428C128.218 86.1551 128.307 87.8397 127.655 89.391Z" fill="#BE6F72"/>
<path opacity="0.1" d="M127.655 89.391C126.875 91.2531 125.199 92.5686 123.542 93.7258C121.885 94.883 120.118 95.9848 118.122 96.0791C121.638 100.6 126.448 103.925 131.149 107.18C133.339 108.692 135.559 110.202 138.056 111.057C140.349 111.839 142.788 112.034 145.186 112.361C148.238 112.78 151.277 113.427 154.344 113.299C159.808 113.072 165.034 110.316 168.658 106.22C172.283 102.123 174.358 96.784 174.919 91.3364C172.976 91.3058 171.184 90.2263 169.616 89.0496C167.698 87.6149 165.9 85.9553 164.662 83.9045C163.322 81.6843 162.719 79.109 162.109 76.5863C155.64 76.3921 149.171 76.2006 142.699 76.3255C140.343 76.3699 137.981 76.4615 135.684 77.047C133.494 77.6021 128.921 79.034 127.586 81.0072C126.817 82.145 127.586 83.3161 127.863 84.5428C128.218 86.1551 128.307 87.8397 127.655 89.391Z" fill="black"/>
<path d="M134.973 97.0589C136.824 99.3595 141.267 103.217 141.267 103.217H146.208C146.208 103.217 146.24 103.014 147.217 102.104C152.095 97.5643 156.727 92.7675 161.093 87.7343C162.461 86.1552 163.868 84.5095 165.742 83.5909C167.434 98.865 167.876 114.252 167.063 129.598C167.071 129.887 167.004 130.174 166.868 130.43C166.577 130.872 165.966 130.935 165.436 130.955C149.77 131.543 133.477 132.015 119.13 125.682C120.126 122.726 119.962 119.529 120.059 116.41C120.218 111.295 121.106 106.231 122.332 101.272C122.935 98.8377 123.62 96.4261 124.347 94.0284C124.952 92.0191 125.413 88.478 126.764 86.96C129.872 89.7352 132.362 93.8119 134.973 97.0589Z" fill="#E3E8F4"/>
<path d="M141.911 117.651C140.105 115.015 138.86 112.035 138.253 108.898C138.059 107.893 137.929 106.869 137.573 105.909C137.046 104.485 136.053 103.292 135.156 102.063C131.832 97.5028 129.692 92.1897 128.926 86.5993C128.582 84.0628 128.352 81.1572 126.303 79.6225C125.016 78.6595 123.301 78.5124 121.691 78.5402C115.466 78.6958 109.504 81.082 104.89 85.2644C104.123 86.0252 103.312 86.7406 102.462 87.4068C101.59 88.0028 100.661 88.5086 99.6868 88.9165C97.228 90.0266 94.6582 90.948 91.9802 91.2283C91.2919 91.2569 90.6097 91.3697 89.9488 91.564C89.1495 91.8416 88.4918 92.4271 87.8174 92.9516C85.6633 94.6108 83.1884 95.8052 80.5493 96.4594C76.8247 105.108 73.9437 114.096 71.9462 123.298C71.4439 125.588 70.9943 127.894 70.3089 130.136C69.3625 133.244 67.9694 136.208 67.0397 139.322C63.3432 151.713 67.2257 165.212 64.7363 177.897L198.239 178.08C196.141 174.825 196.895 170.69 196.715 166.821C196.546 163.258 195.641 159.775 195.014 156.262C193.965 150.387 193.696 144.398 193.587 138.431C193.543 135.911 193.54 133.308 194.514 130.985C196.343 126.626 201.089 124.325 205.582 122.846C207.73 122.141 209.989 121.497 211.687 119.99C213.427 118.433 214.332 116.147 214.887 113.885C211.859 107.918 207.924 102.229 202.954 97.7527C201.086 96.0876 199.091 94.5251 197.514 92.577C196.554 91.3864 195.758 90.0599 194.698 88.9693C192.044 86.2135 188.037 85.1756 184.219 85.023C183.039 84.9758 181.843 84.998 180.7 84.7038C177.419 83.8713 175.33 80.6659 172.374 79.0064C170.318 77.8588 167.917 77.4903 165.611 77.9685C163.946 78.3154 162.242 79.3033 161.867 80.9462C161.659 81.8704 161.914 82.825 162.012 83.7658C162.311 86.6603 161.11 89.4965 159.655 92.0164C154.43 101.011 145.885 108.029 141.911 117.651Z" fill="#6C63FF"/>
<path d="M175.188 62.1749C175.187 68.3952 173.117 74.4385 169.303 79.3528C165.49 84.2671 160.15 87.7733 154.125 89.3192C148.099 90.865 141.731 90.3627 136.023 87.8913C130.314 85.4199 125.59 81.1198 122.595 75.6683C119.599 70.2169 118.502 63.9238 119.476 57.7801C120.45 51.6365 123.44 45.9914 127.975 41.7339C132.51 37.4765 138.332 34.8486 144.525 34.2641C150.718 33.6796 156.929 35.1717 162.181 38.5054C166.167 41.0359 169.45 44.5323 171.723 48.6702C173.997 52.8081 175.189 57.4533 175.188 62.1749Z" fill="#BE6F72"/>
<path d="M148.3 159.722C144.534 159.422 140.618 158.484 137.071 159.783C135.862 160.266 134.715 160.892 133.655 161.648C129.824 164.22 126.296 167.216 123.137 170.579C122.224 171.547 121.33 172.568 120.77 173.778C119.979 175.485 119.91 177.431 119.382 179.237C119.08 180.272 118.619 181.321 118.802 182.384C118.985 183.447 120.212 184.399 121.131 183.833C121.085 184.129 121.105 184.432 121.189 184.72C121.274 185.007 121.421 185.273 121.62 185.497C121.819 185.721 122.065 185.899 122.341 186.017C122.617 186.135 122.915 186.191 123.215 186.181C124.619 186.132 125.975 185.655 127.1 184.812C127.136 185.149 127.3 185.459 127.558 185.678C127.817 185.896 128.15 186.007 128.488 185.986C130.894 185.828 133.186 184.599 135.245 183.256C137.662 181.69 140.063 179.909 142.894 179.37C141.152 180.164 139.618 181.351 138.412 182.837C137.948 183.405 137.515 184.072 138.026 184.951C138.331 185.445 138.801 185.816 139.352 185.998C142.522 187.108 145.966 185.27 148.08 182.723C148.932 181.693 149.684 180.503 150.855 179.878C152.74 178.865 155.063 179.576 157.183 179.282C159.536 178.96 161.515 177.425 163.677 176.434C166.555 175.119 169.763 174.769 172.835 173.987C173.204 173.933 173.544 173.757 173.801 173.487C173.993 173.167 174.075 172.793 174.037 172.421C174.023 168.62 173.736 164.825 173.179 161.065C173.133 160.46 172.948 159.873 172.638 159.35C172.033 158.49 170.884 158.24 169.849 158.068C168.184 157.791 166.316 157.169 164.64 157.175C163.03 157.175 161.479 158.085 159.944 158.532C156.166 159.629 152.221 160.032 148.3 159.722Z" fill="#BE6F72"/>
<rect x="16.5521" y="173.264" width="252.627" height="31.4707" fill="#7B7897"/>
<path d="M165.855 154.719C161.695 155.155 157.782 156.905 154.682 159.714C158.143 158.84 161.867 157.977 165.203 159.242C166.828 159.859 168.233 160.944 169.24 162.36C170.247 163.776 170.812 165.46 170.861 167.197C170.91 168.934 170.443 170.647 169.517 172.118C168.592 173.589 167.251 174.752 165.664 175.46C166.338 176.218 167.329 176.59 168.314 176.875C175.432 178.951 183.053 177.708 190.332 176.293C191.664 176.035 193.107 175.693 193.921 174.597C194.645 173.606 194.623 172.271 194.559 171.042C194.373 167.493 194.065 163.827 192.455 160.666C190.274 156.375 186.486 154.777 181.924 155.274C176.556 155.845 171.228 154.175 165.855 154.719Z" fill="#E3E8F4"/>
<path d="M211.146 109.247C213.447 111.437 215.106 114.201 216.63 116.987C221.792 126.421 225.747 136.466 228.402 146.887C228.663 147.911 228.921 148.963 229.532 149.826C230.42 151.077 231.927 151.768 232.895 152.951C234.058 154.388 234.283 156.414 233.9 158.224C233.517 160.033 232.604 161.684 231.68 163.285C229.151 167.665 226.168 172.185 221.525 174.186C219.583 175.019 217.46 175.363 215.359 175.638C207.468 176.676 199.494 176.933 191.553 176.406C192.941 174.797 193.074 172.421 192.583 170.354C192.092 168.286 191.068 166.391 190.363 164.39C189.808 162.828 189.416 161.162 188.442 159.819C187.724 158.897 186.84 158.119 185.834 157.524C183.548 156.073 180.978 155.131 178.296 154.76C180.286 153.206 182.864 152.69 185.29 151.985C187.715 151.28 190.252 150.198 191.523 148.016C192.286 146.709 192.497 145.158 192.6 143.648C192.909 139.106 192.379 134.545 191.034 130.194C190.141 127.3 188.875 124.275 189.647 121.35C190.041 119.873 190.926 118.575 191.795 117.331C193.488 114.889 195.242 112.389 197.711 110.74C199.843 109.317 202.377 108.648 204.913 108.47C206.814 108.345 209.703 107.885 211.146 109.247Z" fill="#6C63FF"/>
<path d="M111.282 194.306C111.259 197.204 103.381 200.412 94.2642 200.412C85.1478 200.412 77.5383 197.212 77.4161 194.306C76.9915 184.23 85.145 189.902 94.2642 189.902C103.383 189.902 111.365 182.706 111.282 194.306Z" fill="#3F3D56"/>
<path opacity="0.2" d="M111.282 194.306C111.259 197.204 103.381 200.412 94.2642 200.412C85.1478 200.412 77.5383 197.212 77.4161 194.306C76.9915 184.23 85.145 189.902 94.2642 189.902C103.383 189.902 111.365 182.706 111.282 194.306Z" fill="black"/>
<path d="M110.774 189.902C110.774 192.802 103.381 196.008 94.2643 196.008C85.1478 196.008 77.7548 192.811 77.7548 189.902C77.7548 186.994 85.145 185.501 94.2643 185.501C103.383 185.501 110.774 187.005 110.774 189.902Z" fill="#3F3D56"/>
<path opacity="0.1" d="M110.774 189.902C110.774 192.802 103.381 196.008 94.2643 196.008C85.1478 196.008 77.7548 192.811 77.7548 189.902C77.7548 186.994 85.145 185.501 94.2643 185.501C103.383 185.501 110.774 187.005 110.774 189.902Z" fill="white"/>
<path d="M107.555 188.759C107.538 191.02 101.394 193.513 94.2809 193.513C87.1681 193.513 81.2376 191.015 81.1377 188.759C80.8074 180.899 87.1681 185.323 94.2809 185.323C101.394 185.323 107.621 179.712 107.555 188.759Z" fill="#3F3D56"/>
<path opacity="0.2" d="M107.555 188.759C107.538 191.02 101.394 193.513 94.2809 193.513C87.1681 193.513 81.2376 191.015 81.1377 188.759C80.8074 180.899 87.1681 185.323 94.2809 185.323C101.394 185.323 107.621 179.712 107.555 188.759Z" fill="black"/>
<path d="M107.158 184.765C107.158 187.294 101.394 190.08 94.2808 190.08C87.1681 190.08 81.4012 187.305 81.4012 184.765C81.4012 182.226 87.1681 180.93 94.2808 180.93C101.394 180.93 107.158 182.234 107.158 184.765Z" fill="#3F3D56"/>
<path opacity="0.1" d="M107.158 184.765C107.158 187.294 101.394 190.08 94.2808 190.08C87.1681 190.08 81.4012 187.305 81.4012 184.765C81.4012 182.226 87.1681 180.93 94.2808 180.93C101.394 180.93 107.158 182.234 107.158 184.765Z" fill="white"/>
<path d="M63.4182 201.527C63.4182 201.527 65.8548 198.841 66.2739 195.822C66.6929 192.802 54.3684 188.165 54.3684 188.165C54.3684 188.165 50.0946 190.663 49.9503 193.002C49.9503 193.002 58.1315 201.794 63.4182 201.527Z" fill="#3F3D56"/>
<path opacity="0.2" d="M63.4182 201.527C63.4182 201.527 65.8548 198.841 66.2739 195.822C66.6929 192.802 54.3684 188.165 54.3684 188.165C54.3684 188.165 50.0946 190.663 49.9503 193.002C49.9503 193.002 58.1315 201.794 63.4182 201.527Z" fill="black"/>
<path d="M63.3068 201.65C64.0687 200.38 61.6203 197.511 57.8381 195.241C54.0558 192.971 50.3721 192.16 49.6102 193.43C48.8483 194.699 51.2968 197.568 55.079 199.838C58.8612 202.108 62.5449 202.919 63.3068 201.65Z" fill="#3F3D56"/>
<path opacity="0.1" d="M63.3068 201.65C64.0687 200.38 61.6203 197.511 57.8381 195.241C54.0558 192.971 50.3721 192.16 49.6102 193.43C48.8483 194.699 51.2968 197.568 55.079 199.838C58.8612 202.108 62.5449 202.919 63.3068 201.65Z" fill="white"/>
<path d="M66.4459 194.897L73.456 183.211L66.3266 177.156L60.7679 176.115L59.0334 179.243L54.1547 188.295L66.4459 194.897Z" fill="#3F3D56"/>
<path opacity="0.1" d="M66.4459 194.897L73.456 183.211L66.3266 177.156L60.7679 176.115L59.0334 179.243L54.1547 188.295L66.4459 194.897Z" fill="white"/>
<path d="M73.5503 184.363C73.5503 184.363 78.2847 179.332 77.0692 176.612C75.8537 173.892 69.4347 168.442 65.3469 169.272C61.2591 170.101 60.6041 176.129 60.6041 176.129L73.5503 184.363Z" fill="#3F3D56"/>
<path opacity="0.2" d="M73.5503 184.363C73.5503 184.363 78.2847 179.332 77.0692 176.612C75.8537 173.892 69.4347 168.442 65.3469 169.272C61.2591 170.101 60.6041 176.129 60.6041 176.129L73.5503 184.363Z" fill="black"/>
<path d="M19.6981 162.253L55.9613 184.31C55.9613 184.31 59.408 183.863 59.0334 179.248L23.1171 156.952C22.386 156.498 21.5199 156.312 20.6667 156.425C19.6842 156.558 18.5214 156.916 18.144 157.852C18.0476 158.09 17.9805 158.338 17.9442 158.593C17.8428 159.308 17.9552 160.037 18.2673 160.688C18.5794 161.34 19.0772 161.884 19.6981 162.253Z" fill="#3F3D56"/>
<path opacity="0.2" d="M19.6981 162.253L55.9613 184.31C55.9613 184.31 59.408 183.863 59.0334 179.248L23.1171 156.952C22.386 156.498 21.5199 156.312 20.6667 156.425C19.6842 156.558 18.5214 156.916 18.144 157.852C18.0476 158.09 17.9805 158.338 17.9442 158.593C17.8428 159.308 17.9552 160.037 18.2673 160.688C18.5794 161.34 19.0772 161.884 19.6981 162.253Z" fill="black"/>
<path d="M66.4403 196.543C66.6297 196.532 66.8107 196.461 66.957 196.341C67.1032 196.22 67.2071 196.055 67.2535 195.871C67.4311 195.247 67.1064 194.648 66.765 194.148C66.1555 193.257 65.3947 192.479 64.5171 191.85C63.0408 190.782 61.6088 189.577 59.9381 188.798C58.9709 188.367 57.958 188.048 56.9187 187.846C56.1397 187.667 55.3425 187.579 54.5432 187.585C54.4013 187.589 54.264 187.636 54.1495 187.719C54.035 187.803 53.9486 187.92 53.902 188.054C53.8553 188.188 53.8505 188.333 53.8882 188.47C53.9259 188.607 54.0043 188.729 54.113 188.82C54.4825 189.065 54.8949 189.238 55.3285 189.33C57.4904 189.966 59.4913 191.068 61.3645 192.319C62.3735 192.968 63.3185 193.712 64.1869 194.539C64.7641 195.111 65.5023 196.565 66.4403 196.543Z" fill="#3F3D56"/>
<path opacity="0.2" d="M66.4403 196.543C66.6297 196.532 66.8107 196.461 66.957 196.341C67.1032 196.22 67.2071 196.055 67.2535 195.871C67.4311 195.247 67.1064 194.648 66.765 194.148C66.1555 193.257 65.3947 192.479 64.5171 191.85C63.0408 190.782 61.6088 189.577 59.9381 188.798C58.9709 188.367 57.958 188.048 56.9187 187.846C56.1397 187.667 55.3425 187.579 54.5432 187.585C54.4013 187.589 54.264 187.636 54.1495 187.719C54.035 187.803 53.9486 187.92 53.902 188.054C53.8553 188.188 53.8505 188.333 53.8882 188.47C53.9259 188.607 54.0043 188.729 54.113 188.82C54.4825 189.065 54.8949 189.238 55.3285 189.33C57.4904 189.966 59.4913 191.068 61.3645 192.319C62.3735 192.968 63.3185 193.712 64.1869 194.539C64.7641 195.111 65.5023 196.565 66.4403 196.543Z" fill="black"/>
<path d="M72.2294 185.257C72.2294 185.257 75.7872 185.343 72.8427 181.765C69.8983 178.188 64.631 174.639 60.8817 175.441C60.8817 175.441 59.3276 176.728 60.6708 176.95C61.9446 177.161 67.8863 178.338 70.617 181.649C70.9159 182.008 71.2497 182.337 71.6133 182.631C72.2544 183.153 73.1175 184.141 72.2294 185.257Z" fill="#3F3D56"/>
<path opacity="0.2" d="M72.2294 185.257C72.2294 185.257 75.7872 185.343 72.8427 181.765C69.8983 178.188 64.631 174.639 60.8817 175.441C60.8817 175.441 59.3276 176.728 60.6708 176.95C61.9446 177.161 67.8863 178.338 70.617 181.649C70.9159 182.008 71.2497 182.337 71.6133 182.631C72.2544 183.153 73.1175 184.141 72.2294 185.257Z" fill="black"/>
<path d="M78.0291 177.374C78.791 176.105 76.3426 173.236 72.5603 170.966C68.7781 168.696 65.0944 167.885 64.3325 169.154C63.5706 170.424 66.0191 173.293 69.8013 175.563C73.5835 177.833 77.2672 178.644 78.0291 177.374Z" fill="#3F3D56"/>
<path opacity="0.1" d="M78.0291 177.374C78.791 176.105 76.3426 173.236 72.5603 170.966C68.7781 168.696 65.0944 167.885 64.3325 169.154C63.5706 170.424 66.0191 173.293 69.8013 175.563C73.5835 177.833 77.2672 178.644 78.0291 177.374Z" fill="white"/>
<path d="M54.5432 176.456C54.4951 177.103 54.2893 177.728 53.9439 178.276C53.5985 178.825 53.1239 179.281 52.5617 179.604C50.6996 180.597 48.0854 179.712 47.2084 177.791C46.7533 176.792 46.745 175.671 46.6534 174.569C46.6236 174.21 46.5754 173.853 46.5091 173.498C46.2316 172.069 45.0493 170.551 43.6201 170.834C42.4407 171.064 41.8191 172.388 41.6775 173.581C41.641 173.909 41.6224 174.239 41.622 174.569C41.622 174.914 41.6359 175.258 41.6553 175.602C41.6942 176.307 41.7552 177.014 41.7524 177.719C41.7524 179.107 41.4527 180.58 40.4509 181.532C39.2354 182.69 37.3705 182.742 35.6887 182.723C31.5842 182.681 27.0163 182.445 23.9275 179.92C23.5473 179.613 23.1945 179.275 22.873 178.907C22.2693 178.212 21.7795 177.426 21.4215 176.579C21.1464 175.931 20.9354 175.258 20.7916 174.569C20.3309 172.419 20.4336 170.074 20.811 167.892C21.0552 166.466 21.527 164.903 22.5705 163.993C22.819 163.776 23.0999 163.599 23.403 163.469C23.9025 163.258 24.4687 163.191 24.9044 162.861C25.3401 162.531 25.6232 161.931 26.0838 161.57C27.008 160.846 28.4122 161.157 29.4945 160.913H29.5417L29.6 160.896C30.7683 160.619 31.8479 159.98 32.9496 159.509C33.4242 159.306 33.8987 159.112 34.376 158.94C35.5645 158.465 36.8475 158.275 38.1225 158.385C42.2853 158.859 47.2806 161.385 50.1307 164.415C50.8329 165.112 51.3795 165.95 51.7347 166.874C51.9676 167.648 52.0964 168.45 52.1177 169.258C52.1926 170.398 52.2537 171.536 52.8198 172.51C53.1639 173.099 53.669 173.579 54.027 174.175C54.1095 174.309 54.1819 174.449 54.2435 174.594C54.4979 175.18 54.6009 175.82 54.5432 176.456Z" fill="#BE6F72"/>
<path d="M45.3878 162.758C47.0835 163.635 48.7514 164.626 50.0834 165.991C51.4155 167.357 52.3979 169.147 52.4756 171.056C53.6399 169.647 54.639 168.11 55.4534 166.474C56.0972 165.184 56.6273 163.657 56.0556 162.331C55.7824 161.769 55.3982 161.269 54.9261 160.86C52.4285 158.496 49.0705 157.188 45.6737 156.653C42.0021 156.073 34.6674 154.807 34.104 160.152C38.2168 159.958 41.7135 160.866 45.3878 162.758Z" fill="#E3E8F4"/>
<path d="M90.8785 94.4169C88.1616 95.5908 84.9812 94.761 82.1089 95.4714C79.9887 95.9959 78.1654 97.3253 76.4448 98.6712C73.0147 101.352 69.6345 104.349 67.8002 108.298C67.2007 109.592 66.7733 110.965 66.0546 112.184C64.8918 114.171 63.0352 115.65 61.1009 116.901C56.1583 120.087 50.4193 122.08 46.0206 125.982C44.139 127.647 42.5544 129.623 41.0808 131.657C39.3491 134.044 37.6923 136.708 37.659 139.655C37.659 140.809 37.8866 141.981 37.659 143.116C37.1706 145.655 34.6063 147.231 33.4491 149.546C32.339 151.752 32.6027 154.477 31.3677 156.608C30.5574 157.996 29.0893 159.384 29.5528 160.916C32.9551 158.36 37.0457 157.308 41.2085 158.14C43.2926 158.554 45.238 159.484 47.1029 160.502C49.2648 161.684 51.3961 163.027 52.9585 164.942C54.521 166.857 55.4562 169.405 54.9012 171.805C57.1518 170.695 58.4839 168.325 59.408 165.994C60.3322 163.663 61.0371 161.174 62.5717 159.2C63.3627 158.182 64.3451 157.336 65.2803 156.45C70.4726 151.53 74.2164 145.313 77.8907 139.178C81.6797 132.854 85.4669 126.527 89.2522 120.195C90.3012 118.439 91.3558 116.671 92.1134 114.773C94.6583 108.39 93.0098 100.936 90.8785 94.4169Z" fill="#6C63FF"/>
<path d="M135.039 49.9365C136.981 50.6858 138.877 51.7626 140.961 51.9041C143.606 52.0817 146.103 50.733 148.731 50.3611C153.546 49.6812 158.117 52.3037 162.64 54.0854C167.164 55.867 172.992 56.6052 176.308 53.0502C179.125 50.0281 178.736 45.0022 176.472 41.561C174.207 38.1198 170.508 35.8941 166.85 33.9765C162.815 31.8618 158.608 29.9386 154.115 29.1921C144.58 27.613 134.891 31.5565 126.979 37.1097C124.354 38.9524 121.759 41.1031 120.505 44.0476C119.795 45.7127 119.573 47.844 120.191 49.5785C121.207 52.4314 121.873 52.0928 123.98 51.3491C128.004 49.9337 130.382 48.1548 135.039 49.9365Z" fill="#3F3D56"/>
<path d="M141.448 53.1259C142.009 51.7235 139.578 43.8933 138.292 40.1535C135.768 31.0614 124.385 34.2615 119.009 36.998C115.62 41.4391 108.841 44.256 108.841 54.879C108.841 67.1502 112.41 76.3235 122.866 79.772C127.774 81.391 119.009 75.7636 122.866 73.6599C125.951 71.977 119.447 52.1878 127.282 57.8441L132.496 60.1035C134.06 54.879 140.887 54.5283 141.448 53.1259Z" fill="#3F3D56"/>
<ellipse cx="125.3" cy="63.4685" rx="5.46995" ry="7.89786" fill="#BE6F72"/>
<path d="M142.107 103.538L150.93 101.186L166.379 142.347L148.3 146.187L142.107 103.538Z" fill="#E2E2E2"/>
<mask id="mask0" mask-type="alpha" maskUnits="userSpaceOnUse" x="142" y="101" width="25" height="46">
<path d="M142.107 103.538L150.93 101.186L166.379 142.347L148.3 146.187L142.107 103.538Z" fill="#E2E2E2"/>
</mask>
<g mask="url(#mask0)">
<path opacity="0.1" d="M147.695 102.283L136.939 101.237L120.668 142.08L138.666 146.282L147.695 102.283Z" fill="black"/>
</g>
<path d="M146.81 102.481L136.035 101.65L120.586 142.811L138.665 146.652L146.81 102.481Z" fill="#EFEDED"/>
<mask id="mask1" mask-type="alpha" maskUnits="userSpaceOnUse" x="120" y="101" width="27" height="46">
<path d="M146.81 102.481L136.035 101.65L120.586 142.811L138.665 146.652L146.81 102.481Z" fill="#EFEDED"/>
</mask>
<g mask="url(#mask1)">
<path opacity="0.1" d="M143.767 101.869C131.337 92.2114 128.528 83.9314 127.71 80.6603C128.757 92.4987 131.862 101.683 133.552 105.006L143.767 101.869Z" fill="black"/>
</g>
<path d="M141.908 102.02C131.856 93.8197 129.151 86.4318 128.49 83.6544C129.336 93.7062 132.281 101.862 133.648 104.684L141.908 102.02Z" fill="white"/>
<path d="M146.559 102.524C155.206 94.1029 159.703 89.4738 162.083 86.0352C160.056 95.9167 155.973 102.134 154.283 104.774L146.559 102.524Z" fill="white"/>
</svg>
