<svg width="177" height="230" viewBox="0 0 177 230" fill="none" xmlns="http://www.w3.org/2000/svg">
<path d="M174.373 217.232H7.44556L7.52076 199.534C7.71126 154.751 43.4562 117.85 88.233 117.088C88.717 117.08 89.201 117.076 89.687 117.076C99.763 117.068 109.758 118.864 119.201 122.378C150.884 134.177 172.15 164.156 173.565 197.935L174.373 217.232Z" fill="#6C63FF"/>
<path d="M88.082 138.073L95.437 143.423L102.793 206.278H120.178L114.16 134.73L90.088 125.368L88.082 138.073Z" fill="black"/>
<path d="M57.3235 118.013C57.3235 118.013 55.3175 140.748 63.341 141.416C71.366 142.085 102.124 134.73 102.124 134.73L116.835 186.886L138.901 175.519C138.901 175.519 125.528 116.676 117.504 113.332C109.48 109.989 82.733 103.302 82.733 103.302L63.341 106.646L57.3235 118.013Z" fill="black"/>
<path d="M105.467 204.94C105.467 204.94 101.455 220.319 104.13 221.657C105.739 222.461 107.302 223.354 108.811 224.331V221.657C108.811 221.657 112.154 225 112.154 227.675C112.154 230.349 130.208 231.018 130.208 227.675C130.208 224.331 129.54 220.319 126.196 218.313C122.853 216.307 118.841 204.94 118.841 204.94H105.467Z" fill="black"/>
<path d="M124.859 177.525L126.196 190.23L130.877 198.253L142.244 185.549L133.552 171.507L124.859 177.525Z" fill="#2F2E41"/>
<path d="M135.558 190.229C135.558 190.229 138.02 181.811 140.467 182.677C142.913 183.543 152.275 192.235 152.275 192.235L158.961 196.247C158.961 196.247 172.335 197.585 168.323 201.597C164.311 205.609 149.6 210.958 142.913 208.283C136.226 205.609 134.889 204.94 134.889 204.94L132.883 206.277L124.859 204.271L126.196 190.229C126.196 190.229 128.202 196.247 135.558 190.229Z" fill="black"/>
<path d="M80.058 34.4295C88.552 34.4295 95.437 27.5439 95.437 19.0501C95.437 10.5563 88.552 3.67075 80.058 3.67075C71.564 3.67075 64.679 10.5563 64.679 19.0501C64.679 27.5439 71.564 34.4295 80.058 34.4295Z" fill="#FBBEBE"/>
<path d="M70.3629 28.0771C70.3629 28.0771 71.6999 42.1192 67.6879 42.1192C63.6759 42.1192 68.3569 59.5046 79.0549 59.5046C89.7539 59.5046 93.7659 38.7758 93.7659 38.7758C93.7659 38.7758 86.4109 36.1011 87.7479 27.4085C89.0849 18.7158 70.3629 28.0771 70.3629 28.0771Z" fill="#FBBEBE"/>
<path d="M69.297 41.048L63.676 43.4565L48.4201 49.9109C47.805 50.1711 47.2905 50.6232 46.9533 51.1996C46.6161 51.7761 46.4743 52.4461 46.549 53.1098L52.3085 104.305C52.3085 104.305 46.2905 117.01 55.6518 117.679L56.9891 122.359L67.688 109.655L107.808 108.317L108.477 43.4565L90.12 36.2025C90.12 36.2025 87.623 50.0069 69.297 41.048Z" fill="#D9D7F5"/>
<path d="M50.6368 51.8149L48.1658 51.1089C47.8887 51.0298 47.598 51.0103 47.3129 51.0518C47.0277 51.0932 46.7546 51.1947 46.5116 51.3496C46.2686 51.5044 46.0611 51.709 45.903 51.9499C45.7449 52.1908 45.6397 52.4625 45.5943 52.747L39.0371 93.8791C38.5256 96.9251 39.0153 100.055 40.4326 102.799C42.4587 106.635 46.6666 110.114 55.3175 105.977L61.336 62.5136L50.6368 51.8149Z" fill="#D9D7F5"/>
<path d="M100.787 42.4535L108.811 43.7909L130.877 74.5496L132.883 79.899L145.588 75.8869C145.588 75.8869 144.919 81.905 151.606 81.2363C151.606 81.2363 143.582 103.302 126.865 96.6157C110.148 89.929 104.799 69.8689 104.799 69.8689L100.787 42.4535Z" fill="#D9D7F5"/>
<path d="M110.149 55.827L80.0579 43.7907L78.7209 47.8028L92.7629 59.8388L110.149 55.827Z" fill="#CCCCCC"/>
<path d="M70.7989 20.0306C71.3669 19.8789 71.4499 19.1248 71.4689 18.5372C71.5709 15.3905 73.4659 12.1617 76.4779 11.2456C77.6339 10.9287 78.8439 10.8621 80.0279 11.0503C81.7169 11.2753 83.3479 11.8196 84.8349 12.654C85.6189 13.0951 86.3889 13.6263 87.2779 13.761C87.8659 13.85 90.4109 14.5898 90.9959 14.6939C92.2819 14.9228 93.4779 16.0739 94.7129 15.6456C95.8939 15.2358 96.1549 13.7065 96.1839 12.4566C96.2489 9.6091 94.0869 5.66807 92.1829 3.54975C90.7379 1.94225 88.5629 1.2002 86.4359 0.814348C83.9519 0.415171 81.4339 0.262016 78.9199 0.357107C75.5169 0.417807 72.0189 0.680502 68.9499 2.15314C65.8809 3.62577 63.3029 6.55666 63.1559 9.95748C63.1249 10.6659 63.1979 11.3773 63.1389 12.0839C62.9929 13.8075 62.0779 15.3644 61.6489 17.0401C61.3419 18.2696 61.2959 19.5498 61.5139 20.7981C61.7319 22.0464 62.2099 23.2351 62.9149 24.2877C64.0539 25.9638 68.6089 27.4855 68.5429 29.511C69.3659 28.6581 67.4249 27.7995 68.2479 26.9467C68.6169 26.665 68.8779 26.2654 68.9879 25.8144C69.0979 25.3635 69.0489 24.8886 68.8509 24.4689L67.9769 21.0592C67.8169 20.4348 67.6599 19.759 67.9009 19.1616C68.8389 16.8459 69.8519 20.2834 70.7989 20.0306Z" fill="black"/>
<path d="M78.7211 47.8028L66.0161 97.2842L115.498 114.67L144.251 90.5975L162.305 36.4356L132.883 57.8329L78.7211 47.8028Z" fill="#F2F2F2"/>
<path d="M81.1461 53.1634L80.9761 53.8098L129.12 66.5145L129.291 65.8681L81.1461 53.1634Z" fill="#E6E6E6"/>
<path d="M79.8089 56.5067L79.6389 57.1531L127.783 69.8578L127.953 69.2114L79.8089 56.5067Z" fill="#E6E6E6"/>
<path d="M79.141 59.85L78.97 60.4965L127.114 73.2012L127.285 72.5547L79.141 59.85Z" fill="#E6E6E6"/>
<path d="M78.472 63.1934L78.301 63.8398L126.445 76.5445L126.616 75.8981L78.472 63.1934Z" fill="#E6E6E6"/>
<path d="M77.8031 66.5367L77.6331 67.1832L125.777 79.8879L125.948 79.2415L77.8031 66.5367Z" fill="#E6E6E6"/>
<path d="M77.1341 69.8801L76.9641 70.5265L125.108 83.2312L125.279 82.5848L77.1341 69.8801Z" fill="#E6E6E6"/>
<path d="M76.4659 73.2234L76.2949 73.8699L124.44 86.5746L124.61 85.9281L76.4659 73.2234Z" fill="#E6E6E6"/>
<path d="M75.797 76.5667L75.627 77.2132L123.771 89.9179L123.941 89.2714L75.797 76.5667Z" fill="#E6E6E6"/>
<path d="M75.129 79.9101L74.958 80.5565L123.102 93.2613L123.273 92.6148L75.129 79.9101Z" fill="#E6E6E6"/>
<path d="M58.333 84.201C58.333 84.201 73.372 75.2183 80.058 81.2363C86.745 87.2543 60.667 95.947 60.667 95.947L58.333 84.201Z" fill="#FBBEBE"/>
<path d="M41.9441 88.5917L61.336 81.2363C61.336 81.2363 57.9922 93.941 64.679 94.6097L55.3175 105.977C55.3175 105.977 36.5948 105.977 41.9441 88.5917Z" fill="#D9D7F5"/>
<path d="M92.9721 88.3173L118.703 96.9896L112.614 110.263L86.8831 101.591L92.9721 88.3173Z" fill="#E6E6E6"/>
<path d="M138.567 60.1734L157.958 45.4624L152.609 63.5167L132.549 78.2273L138.567 60.1734Z" fill="#CCCCCC"/>
<path d="M148.395 69.9371L129.003 84.6473L129.407 85.1802L148.799 70.47L148.395 69.9371Z" fill="#E6E6E6"/>
<path d="M147.058 77.2925L127.666 92.0027L128.07 92.5355L147.462 77.8253L147.058 77.2925Z" fill="#E6E6E6"/>
<path d="M149.6 81.905C149.6 81.905 166.316 71.8749 155.618 67.8629C144.919 63.8509 144.919 79.2303 144.919 79.2303C144.919 79.2303 144.25 82.5737 149.6 81.905Z" fill="#FBBEBE"/>
<path opacity="0.1" d="M51.6399 59.5046L50.9712 85.5828L61.335 82.6249L52.9771 82.9078L51.6399 59.5046Z" fill="black"/>
<path d="M176.782 130.843H166.457V141.168H176.782V130.843Z" fill="#F2F2F2"/>
<path d="M135.48 13.8215H125.155V24.1469H135.48V13.8215Z" fill="#F2F2F2"/>
<path d="M5.72447 118.452C8.57577 118.452 10.8872 116.141 10.8872 113.29C10.8872 110.438 8.57577 108.127 5.72447 108.127C2.87317 108.127 0.561768 110.438 0.561768 113.29C0.561768 116.141 2.87317 118.452 5.72447 118.452Z" fill="#F2F2F2"/>
</svg>
