<svg width="268" height="230" viewBox="0 0 268 230" fill="none" xmlns="http://www.w3.org/2000/svg">
<path d="M216.373 217.232H49.4456L49.5208 199.534C49.7113 154.751 85.4562 117.85 130.233 117.088C130.717 117.08 131.201 117.076 131.687 117.076H131.687C141.763 117.068 151.758 118.864 161.201 122.378C192.884 134.177 214.15 164.156 215.565 197.935L216.373 217.232Z" fill="#6C63FF"/>
<path d="M130.082 138.073L137.437 143.423L144.793 206.278H162.178L156.16 134.73L132.088 125.368L130.082 138.073Z" fill="black"/>
<path d="M99.3235 118.013C99.3235 118.013 97.3175 140.748 105.341 141.416C113.366 142.085 144.124 134.73 144.124 134.73L158.835 186.886L180.901 175.519C180.901 175.519 167.528 116.676 159.504 113.332C151.48 109.989 124.733 103.302 124.733 103.302L105.341 106.646L99.3235 118.013Z" fill="black"/>
<path d="M147.467 204.94C147.467 204.94 143.455 220.319 146.13 221.657C147.739 222.461 149.302 223.354 150.811 224.331V221.657C150.811 221.657 154.154 225 154.154 227.675C154.154 230.349 172.208 231.018 172.208 227.675C172.208 224.331 171.54 220.319 168.196 218.313C164.853 216.307 160.841 204.94 160.841 204.94H147.467Z" fill="black"/>
<path d="M166.859 177.525L168.196 190.23L172.877 198.253L184.244 185.549L175.552 171.507L166.859 177.525Z" fill="#2F2E41"/>
<path d="M177.558 190.229C177.558 190.229 180.02 181.811 182.467 182.677C184.913 183.543 194.275 192.235 194.275 192.235L200.961 196.247C200.961 196.247 214.335 197.585 210.323 201.597C206.311 205.609 191.6 210.958 184.913 208.283C178.226 205.609 176.889 204.94 176.889 204.94L174.883 206.277L166.859 204.271L168.196 190.229C168.196 190.229 170.202 196.247 177.558 190.229Z" fill="black"/>
<path d="M122.058 34.4295C130.552 34.4295 137.437 27.5439 137.437 19.0501C137.437 10.5563 130.552 3.67075 122.058 3.67075C113.564 3.67075 106.679 10.5563 106.679 19.0501C106.679 27.5439 113.564 34.4295 122.058 34.4295Z" fill="#FBBEBE"/>
<path d="M112.363 28.0771C112.363 28.0771 113.7 42.1192 109.688 42.1192C105.676 42.1192 110.357 59.5046 121.055 59.5046C131.754 59.5046 135.766 38.7758 135.766 38.7758C135.766 38.7758 128.411 36.1011 129.748 27.4085C131.085 18.7158 112.363 28.0771 112.363 28.0771Z" fill="#FBBEBE"/>
<path d="M111.297 41.048L105.676 43.4565L90.4201 49.9109C89.805 50.1711 89.2905 50.6232 88.9533 51.1996C88.6161 51.7761 88.4743 52.4461 88.549 53.1098L94.3085 104.305C94.3085 104.305 88.2905 117.01 97.6518 117.679L98.9891 122.359L109.688 109.655L149.808 108.317L150.477 43.4565L132.12 36.2025C132.12 36.2025 129.623 50.0069 111.297 41.048Z" fill="#D9D7F5"/>
<path d="M92.6368 51.8149L90.1658 51.1089C89.8887 51.0298 89.598 51.0103 89.3129 51.0518C89.0277 51.0932 88.7546 51.1947 88.5116 51.3496C88.2686 51.5044 88.0611 51.709 87.903 51.9499C87.7449 52.1908 87.6397 52.4625 87.5943 52.747L81.0371 93.8791C80.5256 96.9251 81.0153 100.055 82.4326 102.799C84.4587 106.635 88.6666 110.114 97.3175 105.977L103.336 62.5136L92.6368 51.8149Z" fill="#D9D7F5"/>
<path d="M142.787 42.4535L150.811 43.7909L172.877 74.5496L174.883 79.899L187.588 75.8869C187.588 75.8869 186.919 81.905 193.606 81.2363C193.606 81.2363 185.582 103.302 168.865 96.6157C152.148 89.929 146.799 69.8689 146.799 69.8689L142.787 42.4535Z" fill="#D9D7F5"/>
<path d="M152.149 55.827L122.058 43.7907L120.721 47.8028L134.763 59.8388L152.149 55.827Z" fill="#CCCCCC"/>
<path d="M112.799 20.0306C113.367 19.8789 113.45 19.1248 113.469 18.5372C113.571 15.3905 115.466 12.1617 118.478 11.2456C119.634 10.9287 120.844 10.8621 122.028 11.0503C123.717 11.2753 125.348 11.8196 126.835 12.654C127.619 13.0951 128.389 13.6263 129.278 13.761C129.866 13.85 132.411 14.5898 132.996 14.6939C134.282 14.9228 135.478 16.0739 136.713 15.6456C137.894 15.2358 138.155 13.7065 138.184 12.4566C138.249 9.6091 136.087 5.66807 134.183 3.54975C132.738 1.94225 130.563 1.2002 128.436 0.814348C125.952 0.415171 123.434 0.262016 120.92 0.357107C117.517 0.417807 114.019 0.680502 110.95 2.15314C107.881 3.62577 105.303 6.55666 105.156 9.95748C105.125 10.6659 105.198 11.3773 105.139 12.0839C104.993 13.8075 104.078 15.3644 103.649 17.0401C103.342 18.2696 103.296 19.5498 103.514 20.7981C103.732 22.0464 104.21 23.2351 104.915 24.2877C106.054 25.9638 110.609 27.4855 110.543 29.511C111.366 28.6581 109.425 27.7995 110.248 26.9467C110.617 26.665 110.878 26.2654 110.988 25.8144C111.098 25.3635 111.049 24.8886 110.851 24.4689L109.977 21.0592C109.817 20.4348 109.66 19.759 109.901 19.1616C110.839 16.8459 111.852 20.2834 112.799 20.0306Z" fill="black"/>
<path d="M120.721 47.8028L108.016 97.2842L157.498 114.67L186.251 90.5975L204.305 36.4356L174.883 57.8329L120.721 47.8028Z" fill="#F2F2F2"/>
<path d="M123.146 53.1634L122.976 53.8098L171.12 66.5145L171.291 65.8681L123.146 53.1634Z" fill="#E6E6E6"/>
<path d="M121.809 56.5067L121.639 57.1531L169.783 69.8578L169.953 69.2114L121.809 56.5067Z" fill="#E6E6E6"/>
<path d="M121.141 59.85L120.97 60.4965L169.114 73.2012L169.285 72.5547L121.141 59.85Z" fill="#E6E6E6"/>
<path d="M120.472 63.1934L120.301 63.8398L168.445 76.5445L168.616 75.8981L120.472 63.1934Z" fill="#E6E6E6"/>
<path d="M119.803 66.5367L119.633 67.1832L167.777 79.8879L167.948 79.2415L119.803 66.5367Z" fill="#E6E6E6"/>
<path d="M119.134 69.8801L118.964 70.5265L167.108 83.2312L167.279 82.5848L119.134 69.8801Z" fill="#E6E6E6"/>
<path d="M118.466 73.2234L118.295 73.8699L166.44 86.5746L166.61 85.9281L118.466 73.2234Z" fill="#E6E6E6"/>
<path d="M117.797 76.5667L117.627 77.2132L165.771 89.9179L165.941 89.2714L117.797 76.5667Z" fill="#E6E6E6"/>
<path d="M117.129 79.9101L116.958 80.5565L165.102 93.2613L165.273 92.6148L117.129 79.9101Z" fill="#E6E6E6"/>
<path d="M100.333 84.201C100.333 84.201 115.372 75.2183 122.058 81.2363C128.745 87.2543 102.667 95.947 102.667 95.947L100.333 84.201Z" fill="#FBBEBE"/>
<path d="M83.9441 88.5917L103.336 81.2363C103.336 81.2363 99.9922 93.941 106.679 94.6097L97.3175 105.977C97.3175 105.977 78.5948 105.977 83.9441 88.5917Z" fill="#D9D7F5"/>
<path d="M134.972 88.3173L160.703 96.9896L154.614 110.263L128.883 101.591L134.972 88.3173Z" fill="#E6E6E6"/>
<path d="M180.567 60.1734L199.958 45.4624L194.609 63.5167L174.549 78.2273L180.567 60.1734Z" fill="#CCCCCC"/>
<path d="M190.395 69.9371L171.003 84.6473L171.407 85.1802L190.799 70.47L190.395 69.9371Z" fill="#E6E6E6"/>
<path d="M189.058 77.2925L169.666 92.0027L170.07 92.5355L189.462 77.8253L189.058 77.2925Z" fill="#E6E6E6"/>
<path d="M191.6 81.905C191.6 81.905 208.316 71.8749 197.618 67.8629C186.919 63.8509 186.919 79.2303 186.919 79.2303C186.919 79.2303 186.25 82.5737 191.6 81.905Z" fill="#FBBEBE"/>
<path opacity="0.1" d="M93.6399 59.5046L92.9712 85.5828L103.335 82.6249L94.9771 82.9078L93.6399 59.5046Z" fill="black"/>
<path d="M218.782 130.843H208.457V141.168H218.782V130.843Z" fill="#F2F2F2"/>
<path d="M177.48 13.8215H167.155V24.1469H177.48V13.8215Z" fill="#F2F2F2"/>
<path d="M47.7245 118.452C50.5758 118.452 52.8872 116.141 52.8872 113.29C52.8872 110.438 50.5758 108.127 47.7245 108.127C44.8732 108.127 42.5618 110.438 42.5618 113.29C42.5618 116.141 44.8732 118.452 47.7245 118.452Z" fill="#F2F2F2"/>
</svg>
