<svg width="375" height="259" viewBox="0 0 375 259" fill="none" xmlns="http://www.w3.org/2000/svg">
<path d="M489.378 220.526C486.475 226.125 482.389 231.026 477.404 234.891C476.696 235.458 475.973 236.005 475.239 236.541C474.25 237.235 473.236 237.917 472.199 238.586C464.135 243.702 454.691 247.2 445.472 249.75C442.959 250.444 440.438 251.096 437.908 251.707C435.773 252.224 433.637 252.706 431.499 253.154C430.687 253.331 429.875 253.497 429.063 253.674C428.251 253.851 427.319 254.023 426.46 254.195L425.226 254.429C401.373 258.827 377.208 259.665 352.866 258.561L351.71 258.504L349.862 258.411C344.92 258.154 339.973 257.826 335.02 257.427L333.146 257.276L332.318 257.208C329.542 256.976 326.765 256.721 323.989 256.443C320.331 256.096 316.668 255.713 313 255.293L312.526 255.241L312.141 255.194C299.048 253.721 285.924 251.952 272.785 250.135L270.926 249.875L267.589 249.412L264.778 249.021L263.945 248.907C259.51 248.286 255.075 247.672 250.639 247.064L249.921 246.966C241.591 245.826 233.215 244.728 224.865 243.728L223.777 243.598C220.359 243.192 216.942 242.805 213.527 242.438L210.924 242.162L207.462 241.813C197.868 240.861 188.279 240.101 178.71 239.627C174.109 239.398 169.496 239.225 164.873 239.107C161.056 239.02 157.238 238.97 153.421 238.956C148.243 238.931 143.054 238.961 137.855 239.044H136.679C129.354 239.164 122.014 239.372 114.669 239.622L113.346 239.664H112.909C97.2916 240.215 81.6742 240.949 66.0984 241.475L62.2929 241.6H61.7411C56.3271 241.773 50.9182 241.907 45.5146 242H44.083H44.0362H42.2974L39.8819 242.032C37.3727 242.056 34.8687 242.07 32.3699 242.073H29.3037C20.1311 242.047 10.9949 241.844 1.91593 241.371L0.906012 241.313C-16.7365 240.361 -34.1812 238.394 -51.3135 234.818C-53.0869 234.447 -54.8569 234.058 -56.6234 233.652C-68.4619 230.999 -80.0858 227.465 -91.3982 223.082C-96.729 221 -102.091 218.595 -106.146 214.525C-116.433 204.116 -112.57 183.73 -99.1861 177.802C-88.7172 173.164 -76.4523 176.938 -65.1922 174.845C-64.5003 174.714 -63.8171 174.54 -63.1463 174.325C-61.7148 173.864 -60.3222 173.289 -58.9816 172.607C-58.5235 172.378 -58.0654 172.134 -57.6021 171.879C-56.5609 171.311 -55.5198 170.682 -54.5203 169.995C-52.8863 168.908 -51.3215 167.721 -49.835 166.44C-49.1756 165.878 -48.5336 165.295 -47.9089 164.691C-45.747 162.661 -43.8382 160.377 -42.2241 157.889C-41.6364 156.948 -41.1146 155.967 -40.6624 154.953C-40.4177 154.433 -40.1991 153.871 -40.0169 153.33C-39.7448 152.546 -39.5376 151.742 -39.3974 150.925C-38.7415 147.063 -39.8034 143.295 -43.4996 140.11C-43.8306 139.827 -44.1783 139.565 -44.5407 139.324C-45.2568 138.827 -46.0124 138.391 -46.8 138.018C-47.1176 137.867 -47.4456 137.721 -47.7787 137.58C-52.5368 135.577 -58.6745 134.806 -63.8491 133.417C-65.426 133.017 -66.9657 132.483 -68.451 131.819C-69.3933 131.382 -70.3303 130.924 -71.2517 130.445L-71.4964 130.31C-79.3645 126.254 -86.284 120.578 -91.7991 113.655C-93.1701 111.905 -94.4323 110.073 -95.5785 108.169C-95.9273 107.597 -96.2657 107.009 -96.5884 106.421C-105.735 89.9219 -106.677 68.7808 -97.1611 52.5581C-96.005 50.5899 -94.718 48.7016 -93.3088 46.9059C-92.8507 46.3126 -92.3769 45.7297 -91.8876 45.1572C-82.8295 34.4721 -69.8149 27.2325 -56.6755 21.8718C-39.0382 14.679 -20.5732 10.1354 -1.75416 7.14275C2.06344 6.53555 5.88103 5.9908 9.69863 5.50851C25.6805 3.4683 41.8497 2.38574 57.9044 1.56342C72.9215 0.803545 88.0044 0.312577 103.153 0.0905139C108.286 0.0211192 113.424 -0.00837258 118.568 0.00203663C130.156 0.00203663 141.744 0.225831 153.332 0.673427C157.15 0.819156 160.967 0.992642 164.785 1.19389C174.575 1.70047 184.347 2.39441 194.099 3.27573C198.784 3.69904 203.459 4.16572 208.123 4.67577C243.648 8.5584 278.657 15.1422 312.458 25.3797C316.293 26.5386 320.111 27.753 323.911 29.0229C338.125 33.7018 352.093 39.099 365.761 45.1936C367.052 45.773 368.339 46.356 369.623 46.9423C378.157 50.8562 386.57 55.0737 394.861 59.5947C405.803 65.4818 416.342 72.0888 426.408 79.3722C430.337 82.2521 434.154 85.2569 437.861 88.3866C444.413 93.9116 450.524 99.9395 456.139 106.415C456.638 106.995 457.133 107.578 457.622 108.164C460.163 111.214 462.575 114.373 464.858 117.642C475.999 133.651 483.474 151.961 488.992 170.666C493.86 186.988 497.098 205.313 489.378 220.526Z" fill="#B5B1FF"/>
<path d="M100.724 241.904C100.724 241.94 100.698 241.977 100.688 242.013C100.688 241.977 100.711 241.94 100.728 241.904H100.724Z" fill="#EAECF0"/>
<path d="M102.467 240.307H101.549H101.519H100.404L98.8559 240.327L98.6857 238.569L98.5289 236.902L97.8014 229.295L97.778 229.062V228.958L97.5745 226.817L100.691 225.65L101.072 228.755L101.098 228.985V229.012L101.869 235.314L102.106 237.249L102.243 238.372L102.36 239.336V239.369L102.467 240.307Z" fill="#EAECF0"/>
<path d="M113.656 241.901L113.693 242.011H113.446L113.409 241.901H113.656Z" fill="#3A3768"/>
<path d="M161.991 197.965C161.991 198.032 161.991 198.068 161.991 198.068V198.109C161.991 198.109 159.081 206.055 158.134 212.838C158.069 213.283 158.016 213.727 157.973 214.172C157.927 214.642 157.89 215.102 157.87 215.549C157.843 216.073 157.837 216.58 157.85 217.063C157.85 217.173 157.85 217.287 157.85 217.397C157.85 217.62 157.873 217.85 157.887 218.087C157.9 218.324 157.92 218.561 157.94 218.807C157.96 219.054 157.98 219.271 158.003 219.508C158.721 226.844 161.447 237.585 161.447 237.585C161.447 237.585 161.538 237.876 161.654 238.369H160.9C156.205 238.446 151.499 238.579 146.791 238.739L145.943 238.766H145.663C135.651 239.119 125.64 239.59 115.655 239.926L113.216 240.006H112.862C109.391 240.118 105.924 240.203 102.46 240.263H101.542C101.778 239.931 102.048 239.626 102.35 239.353C102.603 239.118 102.877 238.906 103.167 238.719C104.753 237.731 106.481 236.99 108.29 236.522C108.671 236.417 109.066 236.369 109.461 236.378L111.797 236.425H112.158L115.742 236.495L146.484 237.105H146.56L146.777 237.062C147.134 236.973 147.482 236.85 147.815 236.695C148.393 236.452 148.897 236.063 149.281 235.568C149.664 235.073 149.914 234.487 150.004 233.867C150.004 233.764 150.031 233.654 150.038 233.534C150.048 233.372 150.048 233.209 150.038 233.047C150.038 232.933 150.038 232.813 150.011 232.69C149.984 232.567 149.978 232.443 149.954 232.317C149.213 228.178 147.952 215.439 147.952 215.439V215.479C147.952 215.479 147.952 214.936 147.982 214.022C147.982 213.952 147.982 213.875 147.982 213.799V213.602C147.982 213.398 148.005 213.178 148.019 212.935C148.019 212.791 148.039 212.645 148.049 212.491C148.065 212.268 148.085 212.038 148.105 211.798C148.104 211.783 148.104 211.769 148.105 211.754C148.119 211.603 148.132 211.45 148.146 211.294C148.146 211.294 148.146 211.261 148.146 211.244C148.643 206.325 150.208 198.539 155.154 195.654C157.473 194.297 159.008 194.023 160.019 194.29C161.494 194.677 161.865 196.211 161.945 197.208C161.945 197.275 161.945 197.338 161.945 197.402C161.971 197.588 161.987 197.777 161.991 197.965V197.965Z" fill="#3A3768"/>
<path opacity="0.1" d="M100.724 241.904C100.724 241.94 100.698 241.977 100.688 242.013C100.688 241.977 100.711 241.94 100.728 241.904H100.724Z" fill="black"/>
<path opacity="0.1" d="M113.656 241.901L113.693 242.011H113.446L113.409 241.901H113.656Z" fill="black"/>
<path opacity="0.1" d="M161.991 197.965C161.991 198.032 161.991 198.069 161.991 198.069C161.991 198.069 159.592 204.621 158.447 210.904C158.367 211.349 158.294 211.779 158.227 212.195C158.194 212.408 158.164 212.621 158.134 212.835C158.069 213.28 158.016 213.724 157.973 214.169C157.927 214.639 157.89 215.099 157.87 215.546C157.843 216.07 157.837 216.577 157.85 217.06C157.85 217.17 157.85 217.283 157.85 217.394C157.85 217.617 157.873 217.847 157.887 218.084C157.9 218.321 157.92 218.561 157.94 218.804C157.96 219.048 157.98 219.268 158.003 219.504C158.027 219.741 158.05 219.968 158.077 220.201C158.184 221.145 158.317 222.136 158.471 223.143C159.515 229.936 161.447 237.546 161.447 237.546C161.447 237.546 161.544 237.852 161.661 238.366H160.907C156.211 238.443 151.506 238.576 146.797 238.736L145.95 238.763H145.669C135.658 239.116 125.646 239.586 115.662 239.923L113.222 240.003H112.868C109.398 240.114 105.931 240.2 102.467 240.26H101.549H101.519C101.761 239.916 102.041 239.599 102.353 239.316C102.606 239.077 102.881 238.863 103.174 238.676C104.761 237.69 106.488 236.95 108.297 236.478C108.678 236.377 109.073 236.33 109.468 236.338L111.804 236.385H112.164L115.758 236.455L146.524 237.062H146.577C146.577 237.062 146.667 237.062 146.817 237.012C147.177 236.923 147.528 236.796 147.862 236.635C148.426 236.393 148.921 236.012 149.298 235.527C149.676 235.043 149.924 234.47 150.021 233.864C150.021 233.761 150.048 233.651 150.054 233.53C150.064 233.368 150.064 233.206 150.054 233.044C150.054 232.93 150.054 232.81 150.028 232.687C150.001 232.563 149.994 232.417 149.971 232.277C149.23 228.138 147.969 215.399 147.969 215.399C147.969 215.399 147.969 214.856 147.999 213.942C147.999 213.872 147.999 213.795 147.999 213.719V213.522C147.999 213.318 148.022 213.098 148.035 212.855C148.035 212.712 148.055 212.565 148.065 212.411C148.082 212.188 148.102 211.958 148.122 211.718C148.12 211.703 148.12 211.689 148.122 211.674C148.135 211.523 148.149 211.37 148.162 211.214C148.162 211.214 148.162 211.181 148.162 211.164C148.222 210.551 148.302 209.89 148.402 209.2C149.097 204.371 150.832 198.065 155.157 195.527C157.416 194.194 158.928 193.913 159.942 194.144C161.504 194.5 161.874 196.108 161.945 197.121C161.945 197.188 161.945 197.252 161.945 197.315C161.975 197.53 161.99 197.748 161.991 197.965V197.965Z" fill="black"/>
<path d="M100.724 241.904C100.724 241.94 100.698 241.977 100.688 242.013C100.688 241.977 100.711 241.94 100.728 241.904H100.724Z" fill="#3A3768"/>
<path d="M113.656 241.901L113.693 242.011H113.446L113.409 241.901H113.656Z" fill="#3A3768"/>
<path d="M161.137 197.682C161.137 197.682 156.782 209.573 156.992 216.69C157.203 223.806 160.603 237.179 160.603 237.179C160.603 237.179 160.75 237.649 160.907 238.399C156.211 238.476 151.506 238.609 146.797 238.769L145.95 238.796H145.669C135.658 239.149 125.646 239.62 115.662 239.956L113.222 240.037H112.869C109.398 240.148 105.931 240.233 102.467 240.293H101.549H101.519H100.404C100.864 239.523 101.49 238.866 102.236 238.369L102.326 238.306C103.915 237.337 105.641 236.611 107.446 236.155C107.828 236.053 108.222 236.006 108.617 236.015L111.701 236.075H112.061L115.775 236.148L145.726 236.745C146.155 236.665 146.571 236.529 146.964 236.342C147.095 236.282 147.222 236.214 147.345 236.138V236.138C147.72 235.922 148.059 235.646 148.346 235.321C148.977 234.604 149.397 233.537 149.117 231.986C148.372 227.848 147.114 215.109 147.114 215.109C147.114 215.109 146.901 199.609 154.336 195.257C157.339 193.5 159.028 193.56 159.972 194.257C160.001 194.275 160.027 194.295 160.053 194.317C161.354 195.364 161.137 197.682 161.137 197.682Z" fill="#3A3768"/>
<path d="M41.2999 226.861L41.1797 228.105L40.4522 235.738C39.3154 235.5 38.1807 235.251 37.0483 234.991L37.8993 228.051L38.1863 225.694L41.2999 226.861Z" fill="#EAECF0"/>
<path d="M19.9424 224.393L38.1165 185.74L111.324 191.446L118.071 224.393H19.9424Z" fill="#EFC6CD"/>
<path d="M19.9424 227.765V224.393H118.071V229.322L19.9424 227.765Z" fill="#D48A9B"/>
<path d="M47.6139 218.747L91.5174 219.641C91.6147 219.643 91.711 219.622 91.7984 219.579C91.8857 219.537 91.9616 219.474 92.0194 219.395C92.0773 219.317 92.1156 219.227 92.131 219.131C92.1465 219.035 92.1386 218.936 92.1081 218.844L85.2636 200.396L55.6931 199.833L46.9464 217.727C46.8975 217.838 46.8771 217.959 46.8869 218.08C46.8968 218.2 46.9367 218.317 47.0031 218.418C47.0694 218.519 47.16 218.603 47.2666 218.66C47.3733 218.718 47.4927 218.748 47.6139 218.747Z" fill="#DFE6F5"/>
<path opacity="0.15" d="M47.6139 218.747L91.5174 219.641C91.6147 219.643 91.711 219.622 91.7984 219.579C91.8857 219.537 91.9616 219.474 92.0194 219.395C92.0773 219.317 92.1156 219.227 92.131 219.131C92.1465 219.035 92.1386 218.936 92.1081 218.844L85.2636 200.396L55.6931 199.833L46.9464 217.727C46.8975 217.838 46.8771 217.959 46.8869 218.08C46.8968 218.2 46.9367 218.317 47.0031 218.418C47.0694 218.519 47.16 218.603 47.2666 218.66C47.3733 218.718 47.4927 218.748 47.6139 218.747Z" fill="black"/>
<path d="M47.2603 217.977L91.6177 218.911L85.5874 200.66C85.4901 200.364 85.3033 200.106 85.0529 199.92C84.8024 199.735 84.5006 199.632 84.1892 199.626L55.6832 199.086L47.2603 217.977Z" fill="#DFE6F5"/>
<path d="M50.9244 213.845L56.2404 202.157C56.3535 201.91 56.5349 201.701 56.7632 201.555C56.9915 201.408 57.2572 201.33 57.5286 201.33H70.7403C71.1147 201.33 71.4738 201.478 71.7385 201.743C72.0032 202.008 72.1519 202.366 72.1519 202.74V215.369C72.1517 215.56 72.1127 215.749 72.0372 215.925C71.9618 216.101 71.8515 216.259 71.713 216.391C71.5745 216.523 71.4107 216.625 71.2315 216.692C71.0522 216.759 70.8613 216.789 70.6703 216.78L52.1391 215.836C51.9093 215.824 51.6859 215.757 51.4883 215.639C51.2906 215.522 51.1247 215.358 51.0049 215.162C50.8852 214.965 50.8153 214.743 50.8012 214.513C50.7872 214.284 50.8294 214.055 50.9244 213.845V213.845Z" fill="#4C4C56"/>
<path d="M76.9808 212.365L77.2077 205.695C77.2138 205.428 77.3239 205.174 77.5147 204.987C77.7055 204.8 77.9617 204.695 78.2289 204.695H82.1333C82.3732 204.696 82.605 204.781 82.788 204.936C82.9711 205.091 83.0937 205.305 83.1345 205.542L84.2825 212.174C84.3076 212.321 84.3007 212.471 84.2621 212.614C84.2235 212.757 84.1542 212.891 84.0589 213.004C83.9637 213.118 83.8448 213.21 83.7106 213.273C83.5763 213.337 83.4298 213.37 83.2813 213.372L77.9986 213.418C77.8619 213.418 77.7267 213.39 77.601 213.337C77.4753 213.283 77.3616 213.205 77.2666 213.107C77.1717 213.008 77.0975 212.892 77.0484 212.765C76.9993 212.637 76.9763 212.501 76.9808 212.365Z" fill="#D1D9EC"/>
<path d="M25.2551 168.986L39.9753 167.759C40.1903 167.73 40.4088 167.773 40.5978 167.879C40.7868 167.986 40.936 168.151 41.0231 168.349L54.9424 199.833L47.1735 217.26C47.4171 216.713 47.5973 220.968 45.8386 217.28L23.7167 171.164C23.4197 170.547 24.5643 169.073 25.2551 168.986Z" fill="#4C4C56"/>
<path opacity="0.15" d="M25.2551 168.986L39.9753 167.759C40.1903 167.73 40.4088 167.773 40.5978 167.879C40.7868 167.986 40.936 168.151 41.0231 168.349L54.9424 199.833L47.1735 217.26C47.4171 216.713 47.5973 220.968 45.8386 217.28L23.7167 171.164C23.4197 170.547 24.5643 169.073 25.2551 168.986Z" fill="black"/>
<path d="M25.2549 168.986L40.7226 167.012C40.9376 166.983 41.1561 167.026 41.3451 167.132C41.5341 167.239 41.6833 167.403 41.7704 167.602L55.693 199.086L47.2701 217.977L24.464 170.417C24.3941 170.272 24.3598 170.114 24.3641 169.954C24.3684 169.793 24.4111 169.637 24.4886 169.497C24.5661 169.356 24.6761 169.237 24.8095 169.148C24.9428 169.059 25.0956 169.004 25.2549 168.986Z" fill="#4C4C56"/>
<path d="M29.1161 171.2L40.2989 169.46C40.5225 169.424 40.7514 169.466 40.9484 169.577C41.1454 169.689 41.2987 169.863 41.3835 170.073L53.0969 198.705C53.1449 198.822 53.1679 198.948 53.1644 199.074C53.161 199.201 53.1312 199.325 53.0769 199.439L47.7141 210.637C47.6412 210.793 47.5255 210.925 47.3803 211.017C47.2352 211.109 47.0668 211.158 46.8948 211.158C46.7228 211.158 46.5544 211.109 46.4092 211.017C46.2641 210.925 46.1484 210.793 46.0755 210.637L28.3586 172.621C28.2911 172.48 28.2578 172.324 28.2612 172.168C28.2647 172.011 28.3049 171.858 28.3786 171.72C28.4523 171.581 28.5574 171.462 28.6855 171.372C28.8136 171.282 28.9611 171.223 29.1161 171.2V171.2Z" fill="#6C63FF"/>
<path d="M148.436 235.715C148.436 235.715 148.206 236.095 147.869 236.715L147.839 236.772C147.538 237.305 147.171 238.006 146.797 238.773L145.95 238.799H145.669C135.658 239.153 125.647 239.623 115.662 239.96L113.222 240.04H112.869C109.398 240.151 105.931 240.237 102.467 240.297H101.549H101.519H100.404L98.8559 240.317C97.2474 240.332 95.6422 240.341 94.0404 240.343H92.1315C86.2515 240.327 80.3948 240.197 74.5748 239.893L73.9274 239.856C75.072 237.369 77.1177 233.29 78.7796 231.986C80.0644 230.986 89.2916 229.875 97.778 229.062L98.6723 228.975H98.6924L101.062 228.755C104.309 228.458 107.255 228.218 109.358 228.055L109.551 228.038L108.457 224.37L106.872 219.034L107.322 214.552L107.359 214.192H107.309C106.857 214.24 106.4 214.183 105.974 214.025L90.1259 213.478H89.8389L83.7519 213.262C80.4882 213.145 78.1689 213.058 78.0788 213.042C77.983 213.025 77.8891 213 77.7985 212.965C77.6564 212.911 77.5253 212.832 77.4113 212.731C77.2783 212.618 77.1654 212.482 77.0776 212.331H77.0109H76.8641L76.0031 212.388L75.5659 212.418C75.5492 212.371 75.5359 212.325 75.5192 212.281C75.4791 212.151 75.4391 212.028 75.4024 211.901H75.1721L72.1687 211.838H72.1153C72.1153 211.838 64.3664 212.428 60.3185 210.954C58.8334 210.414 57.8456 209.597 57.9224 208.373C57.9392 208.094 57.9977 207.82 58.0959 207.559C56.7944 205.128 63.1517 200.693 67.9972 201.917C69.3065 202.291 70.6861 202.348 72.0219 202.083C72.7468 201.927 73.4296 201.616 74.0241 201.173C74.0842 201.13 74.1376 201.086 74.1877 201.043C74.1076 200.993 74.0241 200.95 73.9474 200.91C73.6152 200.735 73.2586 200.611 72.8895 200.543L74.2043 200.159H74.2244C74.2244 200.159 78.8964 199.732 81.9365 199.562H81.9566C82.8609 199.516 83.6251 199.486 84.079 199.499C86.0813 199.556 89.9824 198.125 90.1493 197.685C90.3161 197.245 92.0981 197.685 92.0981 197.685L93.6566 197.078C95.215 196.474 96.1061 195.651 96.1061 195.044C96.1061 194.437 97.4977 193.78 97.4977 193.78C98.125 192.726 99.3565 191.596 100.648 190.595C101.766 189.732 102.927 188.961 103.788 188.424C104.122 186.264 104.567 184.122 105.123 182.008C105.714 180.037 107.546 178.577 108.203 178.103L108.444 177.943C108.259 177.113 108.014 176.297 107.709 175.502C107.687 175.435 107.66 175.369 107.629 175.302C107.563 175.145 107.492 174.992 107.422 174.848L107.319 174.648C107.149 174.682 106.985 174.712 106.805 174.735C106.252 174.816 105.695 174.857 105.136 174.858C102.634 174.868 100.198 174.058 98.1998 172.552C96.202 171.046 94.7527 168.928 94.0737 166.522C94.0737 166.522 94.0737 166.522 94.0737 166.502C93.806 165.524 93.6713 164.514 93.6733 163.5C93.6718 162.527 93.7997 161.558 94.0537 160.619C94.0537 160.619 94.0537 160.619 94.0537 160.619C94.1038 160.419 94.1638 160.222 94.2272 160.025C94.2335 160.003 94.2413 159.98 94.2506 159.959C94.2806 159.869 94.3107 159.775 94.3441 159.685C93.8501 159.76 93.3518 159.804 92.8523 159.815H92.5186C91.5658 159.851 90.6156 159.693 89.7254 159.352V159.352C89.5098 159.26 89.3031 159.148 89.1081 159.018C89.0979 159.014 89.0888 159.007 89.0814 158.998C88.8278 158.85 88.5964 158.667 88.3939 158.455C88.7653 158.171 89.0765 157.815 89.3097 157.41C89.5428 157.005 89.6932 156.557 89.7521 156.094C89.8422 155.373 89.7221 154.57 90.1526 153.983C90.373 153.718 90.6371 153.492 90.9335 153.316C92.7088 152.105 94.1171 150.445 95.7223 149.014C97.3275 147.583 99.2697 146.346 101.429 146.28C104.325 146.189 106.875 148.204 109.745 148.584C110.626 148.701 111.53 148.661 112.391 148.881C113.356 149.182 114.264 149.642 115.078 150.241C115.813 150.659 116.463 151.211 116.993 151.869C117.362 152.439 117.626 153.07 117.774 153.733C118.146 155.129 118.37 156.561 118.442 158.005C118.518 159.515 118.442 161.036 118.602 162.537C118.715 163.84 119.156 165.094 119.883 166.181H119.927C120.053 166.359 120.192 166.529 120.34 166.688C120.057 166.778 119.773 166.858 119.483 166.928C119 167.052 118.511 167.149 118.018 167.219C117.792 167.256 117.563 167.275 117.334 167.275C117.175 167.279 117.016 167.265 116.86 167.232L117.153 167.429L117.968 167.976L118.275 168.179L118.892 168.589C119.032 168.179 119.226 168.069 119.449 168.096C119.903 167.669 120.581 168.592 120.581 168.592C120.978 169.353 122.046 170.11 122.99 170.67C123.545 170.997 124.117 171.295 124.702 171.564C137.173 178.99 136.382 190.102 137.116 190.982C137.85 191.862 137.897 195.05 137.897 195.05C137.897 195.05 139.736 205.885 140.567 206.822C141.398 207.759 140.62 208.086 141.344 209.133C142.069 210.18 141.902 212.982 141.902 212.982C141.902 212.982 142.402 219.581 144.184 221.012C145.783 222.296 147.919 233.097 148.342 235.304L148.436 235.715Z" fill="url(#paint0_linear)"/>
<path d="M75.3423 200.953C75.3423 200.953 73.6103 203.678 68.7047 202.424C63.7991 201.17 57.3083 205.912 59.1604 208.253C61.0125 210.594 72.9562 207.586 72.9562 207.586L77.5381 206.659L77.2378 202.847L75.3423 200.953Z" fill="#D38884"/>
<path opacity="0.1" d="M75.3423 200.953C75.3423 200.953 73.6103 203.678 68.7047 202.424C63.7991 201.17 57.3083 205.912 59.1604 208.253C61.0125 210.594 72.9562 207.586 72.9562 207.586L77.5381 206.659L77.2378 202.847L75.3423 200.953Z" fill="black"/>
<path d="M76.9373 200.806L74.8116 200.696L73.5034 201.076C73.5034 201.076 77.6481 201.677 76.5068 207.289L80.9753 207.019L76.9373 200.806Z" fill="#A36468"/>
<path opacity="0.1" d="M76.9373 200.806L74.8116 200.696L73.5034 201.076C73.5034 201.076 77.6481 201.677 76.5068 207.289L80.9753 207.019L76.9373 200.806Z" fill="black"/>
<path d="M105.076 188.254C105.076 188.254 99.2428 191.589 97.6042 194.36C97.6042 194.36 96.2427 195.027 96.2427 195.614C96.2427 196.201 95.3684 197.028 93.8433 197.615L92.3149 198.215C92.3149 198.215 90.5695 197.778 90.406 198.215C90.2425 198.652 86.4281 200.066 84.4626 200.013C82.497 199.959 74.8115 200.68 74.8115 200.68C76.219 201.318 77.3682 202.415 78.0714 203.79C78.7745 205.166 78.99 206.739 78.6826 208.253L96.8434 207.493L103.711 205.965L107.749 201.933L105.076 188.254Z" fill="#444053"/>
<path opacity="0.1" d="M105.076 188.254C105.076 188.254 99.2428 191.589 97.6042 194.36C97.6042 194.36 96.2427 195.027 96.2427 195.614C96.2427 196.201 95.3684 197.028 93.8433 197.615L92.3149 198.215C92.3149 198.215 90.5695 197.778 90.406 198.215C90.2425 198.652 86.4281 200.066 84.4626 200.013C82.497 199.959 74.8115 200.68 74.8115 200.68C76.219 201.318 77.3682 202.415 78.0714 203.79C78.7745 205.166 78.99 206.739 78.6826 208.253L96.8434 207.493L103.711 205.965L107.749 201.933L105.076 188.254Z" fill="black"/>
<path d="M78.3157 212.365L75.7461 212.315L72.7427 212.251C72.7427 212.251 58.5598 213.342 58.8368 208.81C59.1138 204.278 70.0229 202.687 71.5413 203.988C72.6926 204.971 75.3557 205.765 76.5704 206.089C76.9575 206.192 77.1944 206.249 77.1944 206.249L78.3157 212.365Z" fill="#D38884"/>
<path opacity="0.1" d="M78.3156 212.365L75.746 212.315C74.7215 208.796 75.9095 206.859 76.5836 206.099C76.9707 206.202 77.2076 206.259 77.2076 206.259L78.3156 212.365Z" fill="black"/>
<path d="M80.0476 212.558L77.3779 212.745L76.1098 212.832C74.3644 207.709 77.1843 205.692 77.1843 205.692H78.0186L79.3835 205.855L80.0476 212.558Z" fill="#A36468"/>
<path d="M112.385 178.557L109.221 184.559C109.221 184.559 108.737 178.48 107.329 175.616C106.968 174.882 106.548 174.362 106.057 174.205C104.722 173.785 112.398 165.378 112.398 165.378C112.655 165.431 114.123 166.378 115.922 167.602C117.901 168.936 120.284 170.563 121.885 171.604C124.926 173.541 112.385 178.557 112.385 178.557Z" fill="#D38884"/>
<path d="M108.327 178.67C108.327 178.67 105.784 180.301 105.076 182.699C104.369 185.096 103.711 189.401 103.711 189.401C103.711 189.401 104.859 199.699 105.457 200.189C106.054 200.68 108.327 210.977 108.327 210.977L110.529 209.507L107.639 196.538C107.639 196.538 109.561 179.874 108.327 178.67Z" fill="#444053"/>
<path opacity="0.1" d="M108.327 178.67C108.327 178.67 105.784 180.301 105.076 182.699C104.369 185.096 103.711 189.401 103.711 189.401C103.711 189.401 104.859 199.699 105.457 200.189C106.054 200.68 108.327 210.977 108.327 210.977L110.529 209.507L107.639 196.538C107.639 196.538 109.561 179.874 108.327 178.67Z" fill="black"/>
<path d="M119.393 201.643H106.681L108.74 181.605H119.393V201.643Z" fill="#A36468"/>
<path d="M89.9423 241.904H90.0958L89.8088 242.014L89.9423 241.904Z" fill="#67647E"/>
<path d="M113.856 232.777L111.37 233.73L111.036 233.854L102.086 237.292L98.6723 238.603L94.027 240.387H92.1315C86.2514 240.37 80.3947 240.24 74.5747 239.936C75.7027 237.465 77.6749 233.51 79.2834 232.233C80.5382 231.233 89.5151 230.152 97.8013 229.339C98.8358 229.238 99.857 229.142 100.851 229.052L101.088 229.028C104.379 228.728 107.356 228.485 109.431 228.318L109.765 228.291L112.375 228.091L112.648 227.818L112.982 229.245L113.259 230.386L113.856 232.777Z" fill="#67647E"/>
<path opacity="0.1" d="M89.9423 241.904H90.0958L89.8088 242.014L89.9423 241.904Z" fill="black"/>
<path opacity="0.1" d="M113.856 232.777L111.37 233.73L111.036 233.854L102.086 237.292L98.6723 238.603L94.027 240.387H92.1315C86.2514 240.37 80.3947 240.24 74.5747 239.936C75.7027 237.465 77.6749 233.51 79.2834 232.233C80.5382 231.233 89.5151 230.152 97.8013 229.339C98.8358 229.238 99.857 229.142 100.851 229.052L101.088 229.028C104.379 228.728 107.356 228.485 109.431 228.318L109.765 228.291L112.375 228.091L112.648 227.818L112.982 229.245L113.259 230.386L113.856 232.777Z" fill="black"/>
<path d="M89.9423 241.904H90.0958L89.8088 242.014L89.9423 241.904Z" fill="#67647E"/>
<path d="M100.724 241.904C100.724 241.94 100.698 241.977 100.688 242.013C100.688 241.977 100.711 241.94 100.728 241.904H100.724Z" fill="#67647E"/>
<path d="M113.693 242.011H113.446L113.409 241.901H113.656L113.693 242.011Z" fill="#67647E"/>
<path d="M115.982 229.292L115.775 236.155V236.525V236.562L115.672 239.96L113.232 240.04H112.879C109.408 240.151 105.941 240.237 102.477 240.297H101.559H101.529H100.414L98.866 240.317C97.2575 240.332 95.6523 240.341 94.0505 240.343H92.1316C93.8669 239.27 96.1128 238.086 98.5289 236.902C99.6135 236.368 100.738 235.838 101.866 235.314C104.87 233.921 107.91 232.603 110.389 231.553L110.706 231.419C111.667 231.013 112.538 230.649 113.282 230.342C114.891 229.675 115.912 229.275 115.982 229.249V229.292Z" fill="#67647E"/>
<path opacity="0.1" d="M93.6933 201.086C94.3173 202.387 94.9614 203.714 95.9926 204.728C96.1561 204.888 96.4398 205.035 96.5866 204.858C96.6328 204.784 96.6549 204.698 96.65 204.611C96.6181 203.998 96.4095 203.408 96.0493 202.911C95.7156 202.397 95.3218 201.93 95.0248 201.397C94.7278 200.863 94.3874 199.836 93.72 199.696C92.8623 199.516 93.5031 200.693 93.6933 201.086Z" fill="black"/>
<path opacity="0.1" d="M115.909 167.592C115.862 167.759 115.812 167.926 115.758 168.086C115.143 169.971 114.038 171.66 112.558 172.981C111.077 174.302 109.273 175.207 107.329 175.606C106.968 174.872 106.548 174.352 106.057 174.195C104.722 173.775 112.398 165.368 112.398 165.368C112.641 165.421 114.11 166.385 115.909 167.592Z" fill="black"/>
<path d="M116.309 164.387C116.309 166.607 115.65 168.778 114.416 170.623C113.182 172.469 111.428 173.908 109.375 174.758C107.322 175.607 105.064 175.83 102.885 175.396C100.706 174.963 98.7045 173.894 97.1335 172.324C95.5626 170.755 94.4928 168.755 94.0593 166.577C93.6259 164.4 93.8484 162.143 94.6986 160.092C95.5488 158.041 96.9885 156.288 98.8357 155.054C100.683 153.821 102.855 153.162 105.076 153.162C106.552 153.159 108.014 153.448 109.379 154.011C110.743 154.574 111.982 155.4 113.026 156.443C114.07 157.486 114.897 158.725 115.46 160.088C116.024 161.451 116.312 162.912 116.309 164.387V164.387Z" fill="#D38884"/>
<path d="M109.385 181.061C109.385 181.061 107.049 183.896 107.422 185.75H110.256L112.328 183.416L109.385 181.061Z" fill="#67647E"/>
<path opacity="0.1" d="M117.694 169.093L108.784 181.335C108.784 181.335 111.073 184.606 112.164 184.769C113.256 184.933 119.479 170.29 119.479 170.29L117.694 169.093Z" fill="black"/>
<path d="M117.808 168.873L108.894 181.131C108.894 181.131 111.183 184.399 112.275 184.563C113.366 184.726 119.59 170.087 119.59 170.087L117.808 168.873Z" fill="#A36468"/>
<path d="M107.749 184.553C107.749 184.553 107.312 191.416 106.875 192.78C106.438 194.144 106.875 206.672 106.875 206.672L110.966 204.985L110.256 185.75L107.749 184.553Z" fill="#67647E"/>
<path opacity="0.1" d="M113.656 241.901L113.693 242.011H113.446L113.409 241.901H113.656Z" fill="black"/>
<path opacity="0.1" d="M147.174 235.991C147.174 235.991 147.098 236.118 146.971 236.325C146.844 236.532 146.707 236.788 146.53 237.115C146.521 237.128 146.513 237.141 146.507 237.155C146.26 237.612 145.966 238.172 145.669 238.783C135.658 239.136 125.646 239.606 115.662 239.943L113.222 240.023H112.868L111.821 236.488V236.452L111.71 236.078L111.043 233.857L110.376 231.6L109.685 229.192L109.431 228.318L109.364 228.098L108.277 224.396L106.802 219.371L107.279 214.576L107.312 214.212L107.743 209.917L107.803 208.643L107.836 207.976V207.786L107.909 206.239L108.13 201.637L108.243 199.282L108.263 198.925L108.49 194.2L109.134 192.269L109.468 191.309L110.209 189.078L110.369 188.528C110.603 187.691 111.073 186.037 111.514 184.446L111.554 184.309L111.584 184.206L111.897 183.075L112.288 181.625C112.435 181.068 112.531 180.671 112.555 180.534C112.591 180.297 113.222 179.25 114.05 177.866C115.718 175.109 118.228 171.05 118.515 169.69C118.516 169.679 118.516 169.667 118.515 169.656C118.532 169.573 118.555 169.492 118.585 169.413C118.722 169.006 118.919 168.896 119.126 168.923C119.22 168.938 119.31 168.973 119.389 169.026C119.59 169.161 119.767 169.331 119.91 169.526C120.3 170.277 121.345 171.027 122.269 171.584L122.449 171.687L122.556 171.75C123.324 172.187 123.944 172.467 123.944 172.467C136.158 179.824 135.398 190.832 136.105 191.702C136.813 192.573 136.869 195.737 136.869 195.737C136.869 195.737 138.668 206.472 139.486 207.409C140.303 208.346 139.542 208.663 140.25 209.7C140.957 210.737 140.794 213.478 140.794 213.478C140.794 213.478 141.284 220.015 143.03 221.432C144.775 222.849 147.174 235.991 147.174 235.991Z" fill="black"/>
<path d="M147.502 235.885L147.355 236.138C147.238 236.345 147.051 236.672 146.828 237.082L146.804 237.128C146.551 237.599 146.25 238.169 145.953 238.796H145.673C135.661 239.149 125.65 239.62 115.665 239.956L113.226 240.036L112.181 236.488V236.452L112.071 236.078L111.38 233.744L110.713 231.476L110.045 229.212L109.782 228.305L108.64 224.41L107.132 219.277L107.549 215.106L107.606 214.549L108.066 209.81L108.243 206.115L108.46 201.65L108.517 200.479L108.58 199.126L108.607 198.555L108.824 194.093L109.468 192.166L109.745 191.335L110.392 189.385L110.529 188.971C110.529 188.971 111.153 186.78 111.757 184.609C111.781 184.529 111.804 184.449 111.824 184.369C111.878 184.182 111.928 183.996 111.981 183.812C112.034 183.626 112.084 183.442 112.131 183.259C112.301 182.652 112.465 182.085 112.578 181.618C112.742 181.008 112.852 180.564 112.875 180.421C112.912 180.184 113.543 179.107 114.4 177.706C115.979 175.099 118.282 171.37 118.769 169.823C118.795 169.743 118.817 169.662 118.835 169.579V169.579C118.865 169.334 118.966 169.102 119.126 168.913C119.573 168.482 120.237 169.406 120.237 169.406C120.628 170.156 121.672 170.91 122.596 171.464C123.136 171.788 123.693 172.083 124.265 172.347C136.479 179.704 135.718 190.712 136.426 191.586C137.133 192.459 137.19 195.617 137.19 195.617C137.19 195.617 138.989 206.352 139.806 207.289C140.624 208.226 139.863 208.543 140.57 209.577C141.278 210.61 141.114 213.392 141.114 213.392C141.114 213.392 141.605 219.931 143.35 221.348C145.096 222.766 147.502 235.885 147.502 235.885Z" fill="#444053"/>
<path opacity="0.1" d="M122.596 171.677C121.398 173.418 119.446 176.479 118.925 178.68C118.925 178.68 117.017 180.644 116.306 180.534C115.595 180.424 116.973 182.005 116.973 182.005L109.475 192.389L110.539 189.198C110.539 189.198 112.775 181.351 112.875 180.644C112.975 179.937 118.405 171.837 118.835 169.8C119.169 168.169 120.237 169.636 120.237 169.636C120.624 170.37 121.669 171.127 122.596 171.677Z" fill="black"/>
<path d="M122.596 171.46C121.398 173.198 119.446 176.262 118.925 178.447C118.925 178.447 117.017 180.408 116.306 180.301C115.595 180.194 116.973 181.771 116.973 181.771L109.475 192.156L110.539 188.965C110.539 188.965 112.775 181.118 112.875 180.408C112.975 179.697 118.405 171.604 118.835 169.566C119.169 167.932 120.237 169.403 120.237 169.403C120.624 170.153 121.669 170.903 122.596 171.46Z" fill="#444053"/>
<path opacity="0.1" d="M132.668 192.976C132.725 195.357 129.234 198.609 129.07 198.799C128.907 198.989 118.218 207.803 118.218 207.803L110.542 213.685C109.677 214.398 108.643 214.876 107.539 215.072L108.063 209.81L108.58 199.139C109.778 197.805 110.94 196.404 110.966 195.958C111.02 195.034 112.969 194.05 112.969 194.05C112.969 194.05 114.333 192.906 114.113 192.253C113.893 191.599 114.837 188.468 114.837 188.468C115.328 179.584 124.488 178.714 124.488 178.714C124.488 178.714 128.907 180.458 132.014 182.308C135.121 184.159 132.614 190.599 132.668 192.976Z" fill="black"/>
<path opacity="0.1" d="M80.0477 212.558L77.378 212.745C76.25 210.827 77.8018 205.692 77.8018 205.692H78.0187L79.3836 205.855L80.0477 212.558Z" fill="black"/>
<path d="M124.488 178.173C124.488 178.173 115.328 179.047 114.837 187.928C114.837 187.928 113.91 191.036 114.127 191.689C114.344 192.343 112.982 193.487 112.982 193.487C112.982 193.487 111.02 194.467 110.98 195.394C110.94 196.321 105.974 201.377 105.974 201.377C105.974 201.377 103.905 203.731 99.1061 203.978C94.3073 204.225 92.0714 205.692 92.0714 205.692C92.0714 205.692 89.7354 204.058 88.0335 204.548C86.3315 205.038 78.0554 205.692 78.0554 205.692C78.0554 205.692 75.8562 212.975 78.5993 213.432C78.9331 213.485 105.931 214.412 105.931 214.412C105.931 214.412 107.776 215.283 110.556 213.158C113.336 211.034 118.231 207.272 118.231 207.272C118.231 207.272 128.91 198.445 129.084 198.269C129.257 198.092 132.755 194.824 132.681 192.446C132.608 190.068 135.137 183.636 132.014 181.775C128.89 179.914 124.488 178.173 124.488 178.173Z" fill="#444053"/>
<path opacity="0.1" d="M116.309 164.387C116.31 165.569 116.124 166.742 115.758 167.866C115.606 167.686 115.468 167.495 115.345 167.295C114.824 166.495 114.302 165.695 113.779 164.894C113.373 164.174 112.833 163.538 112.188 163.02C111.52 162.547 110.572 162.353 109.852 162.773C109.218 163.147 108.907 163.91 108.85 164.644C108.831 165.381 108.85 166.117 108.907 166.852C108.934 167.133 108.862 167.415 108.704 167.649C108.467 167.861 108.161 167.979 107.843 167.982L106.842 168.119C106.751 168.151 106.655 168.164 106.56 168.158C106.464 168.152 106.37 168.127 106.284 168.085C106.199 168.042 106.122 167.983 106.06 167.91C105.997 167.838 105.95 167.753 105.92 167.662C105.09 166.158 104.516 164.291 102.957 163.567C101.996 163.12 100.728 163.15 100.11 162.29C99.69 161.703 99.7467 160.906 99.8702 160.192C100.006 159.387 100.201 158.594 100.454 157.818C100.631 157.271 101.025 156.181 100.151 156.07C99.5565 155.994 98.7356 156.624 98.4352 157.071C98.1349 157.518 98.0615 158.115 97.8479 158.625C97.4386 159.503 96.7021 160.186 95.7956 160.529C95.3418 160.715 94.8664 160.844 94.3806 160.913C95.2014 158.365 96.9057 156.195 99.1863 154.793C101.467 153.391 104.174 152.849 106.819 153.265C109.464 153.681 111.874 155.027 113.613 157.062C115.353 159.096 116.308 161.685 116.306 164.361L116.309 164.387Z" fill="black"/>
<path d="M98.4387 156.787C98.135 157.251 98.0649 157.828 97.8513 158.338C97.4425 159.215 96.7074 159.898 95.8023 160.242C94.9029 160.579 93.9495 160.748 92.9891 160.742C91.434 160.789 89.6987 160.552 88.6975 159.362C89.0625 159.079 89.3683 158.728 89.5974 158.327C89.8264 157.927 89.9742 157.485 90.0324 157.028C90.1191 156.314 90.0023 155.517 90.4262 154.933C90.6421 154.678 90.8993 154.46 91.187 154.29C92.929 153.089 94.3039 151.442 95.8791 150.028C97.4542 148.614 99.353 147.383 101.469 147.317C104.302 147.23 106.808 149.224 109.611 149.601C110.472 149.718 111.36 149.678 112.201 149.894C113.147 150.188 114.038 150.639 114.834 151.228C115.555 151.646 116.192 152.193 116.713 152.842C117.073 153.409 117.331 154.035 117.477 154.69C117.846 156.074 118.07 157.492 118.145 158.922C118.221 160.416 118.145 161.923 118.305 163.41C118.465 164.898 118.939 166.412 119.957 167.512C119.214 167.746 118.454 167.922 117.684 168.036C117.202 168.15 116.697 168.11 116.239 167.922C115.868 167.687 115.565 167.359 115.358 166.972L113.793 164.571C113.387 163.85 112.846 163.214 112.201 162.697C111.534 162.223 110.586 162.03 109.865 162.45C109.231 162.823 108.924 163.587 108.864 164.321C108.845 165.057 108.863 165.794 108.921 166.528C108.947 166.81 108.875 167.091 108.717 167.325C108.479 167.538 108.172 167.656 107.853 167.659L106.852 167.795C106.761 167.827 106.665 167.841 106.57 167.835C106.474 167.829 106.38 167.804 106.295 167.761C106.209 167.719 106.132 167.659 106.07 167.587C106.007 167.514 105.96 167.43 105.931 167.339C105.1 165.831 104.526 163.967 102.967 163.244C102.006 162.797 100.738 162.827 100.121 161.966C99.7001 161.379 99.7568 160.582 99.8803 159.869C100.016 159.064 100.211 158.27 100.464 157.494C100.641 156.948 101.035 155.857 100.161 155.744C99.5599 155.68 98.739 156.311 98.4387 156.787Z" fill="#444053"/>
<path opacity="0.1" d="M123.848 183.155C124.692 183.039 125.58 182.962 126.371 183.285C124.312 182.442 120.961 182.765 119.086 183.926C119.256 184.316 123.194 183.245 123.848 183.155Z" fill="black"/>
<path opacity="0.1" d="M124.832 185.89C126.885 186.027 129.004 186.313 130.949 185.646C129.321 185.086 127.529 185.44 125.813 185.27C124.445 185.133 123.054 184.659 121.719 185.006C121.161 185.15 119.109 186.093 119.249 186.784C121.002 186.009 122.925 185.701 124.832 185.89V185.89Z" fill="black"/>
<path opacity="0.1" d="M119.396 190.372C119.826 190.327 120.26 190.372 120.671 190.505C122.21 190.867 123.788 191.041 125.369 191.022C126.578 191.022 127.879 190.839 128.76 190.022L119.396 190.372Z" fill="black"/>
<path opacity="0.1" d="M112.785 200.806C114.22 201.465 115.798 201.752 117.374 201.64C118.943 201.525 120.493 201.227 121.992 200.753C122.66 200.556 123.387 200.31 123.778 199.729L112.785 200.806Z" fill="black"/>
<path opacity="0.1" d="M127.559 202.274C130.681 204.058 134.159 205.134 137.744 205.425C135.935 204.7 134.113 204.014 132.278 203.367C130.4 202.71 128.476 202.195 126.521 201.827C126.893 201.907 127.245 202.059 127.559 202.274Z" fill="black"/>
<path opacity="0.1" d="M132.601 200.363C133.228 200.467 133.865 200.502 134.5 200.466C134.833 200.466 135.231 200.419 135.427 200.133C133.996 200.193 132.584 199.826 131.186 199.509C130.789 199.416 130.075 199.196 129.741 199.432C130.375 199.886 131.8 200.203 132.601 200.363Z" fill="black"/>
<path opacity="0.1" d="M141.208 230.152C141.958 231.439 142.719 232.74 143.757 233.82C144.357 234.41 144.996 234.958 145.669 235.461C144.431 232.306 143.173 229.125 141.191 226.367C140.69 225.674 139.943 224.68 139.032 224.553C138.771 225.323 139.429 226.687 139.746 227.411C140.181 228.352 140.669 229.267 141.208 230.152V230.152Z" fill="black"/>
<path opacity="0.1" d="M104.723 206.562C104.666 207.096 104.623 207.686 104.933 208.123C105.086 208.338 105.311 208.493 105.567 208.56C105.407 208.52 105.233 206.952 105.193 206.739C105.12 206.302 105.193 205.485 104.883 205.161C104.803 205.622 104.773 206.095 104.723 206.562Z" fill="black"/>
<path opacity="0.1" d="M106.458 205.948C106.568 206.418 106.773 206.861 107.06 207.249C107.347 207.637 107.71 207.963 108.126 208.206C107.542 207.486 107.352 206.539 106.845 205.748C106.681 205.495 106.491 205.131 106.177 205.081C106.256 205.375 106.35 205.664 106.458 205.948V205.948Z" fill="black"/>
<path opacity="0.1" d="M104.99 196.344C104.497 196.637 103.95 196.825 103.381 196.897C102.813 196.969 102.236 196.922 101.686 196.761C101.435 196.688 100.851 196.428 100.992 196.061C101.132 195.694 101.809 195.948 102.086 195.981L103.538 196.164C103.805 196.198 104.773 196.471 104.99 196.344Z" fill="black"/>
<path opacity="0.1" d="M100.077 198.719C100.761 198.632 101.375 199.106 102.016 199.362C102.725 199.598 103.472 199.698 104.219 199.656C104.592 199.656 105.016 199.626 105.246 199.322C103.508 198.925 101.883 198.489 100.077 198.719Z" fill="black"/>
<path d="M108.327 178.667H108.437L109.254 181.605L108.327 182.592V178.667Z" fill="#A36468"/>
<g opacity="0.1">
<path opacity="0.1" d="M90.2459 155.374C90.1446 155.85 90.0942 156.337 90.0957 156.824C90.1373 156.671 90.1674 156.515 90.1858 156.357C90.2259 156.037 90.2226 155.7 90.2459 155.374Z" fill="black"/>
<path opacity="0.1" d="M100.201 155.754C100.281 155.758 100.361 155.78 100.433 155.817C100.505 155.853 100.569 155.905 100.62 155.967C100.672 156.03 100.71 156.103 100.732 156.181C100.754 156.259 100.759 156.34 100.748 156.421C100.905 155.867 100.991 155.187 100.311 155.087C99.7167 155.013 98.8957 155.644 98.5954 156.104C98.295 156.564 98.2216 157.148 98.0081 157.658C97.6002 158.536 96.8647 159.219 95.959 159.562C95.0596 159.898 94.1062 160.068 93.1458 160.062C91.7309 160.105 90.1658 159.909 89.1413 158.975C89.0186 159.105 88.8858 159.226 88.7441 159.335C89.7453 160.526 91.4806 160.762 93.039 160.716C93.9983 160.721 94.9506 160.552 95.8489 160.216C96.7549 159.872 97.4911 159.189 97.9013 158.311C98.1148 157.801 98.1816 157.224 98.4853 156.761C98.789 156.297 99.6065 155.68 100.201 155.754Z" fill="black"/>
<path opacity="0.1" d="M117.827 167.379C117.346 167.493 116.84 167.453 116.382 167.265C116.012 167.029 115.709 166.702 115.501 166.315C114.981 165.515 114.459 164.714 113.936 163.914C113.532 163.193 112.993 162.557 112.348 162.04C111.68 161.563 110.729 161.373 110.012 161.793C109.374 162.166 109.067 162.93 108.994 163.664C108.994 163.694 108.994 163.724 108.994 163.754C109.115 163.216 109.442 162.746 109.905 162.447C110.616 162.026 111.574 162.22 112.241 162.693C112.885 163.212 113.425 163.848 113.833 164.567C114.353 165.368 114.875 166.168 115.398 166.969C115.604 167.357 115.907 167.684 116.279 167.919C116.736 168.107 117.24 168.146 117.721 168.032C118.492 167.918 119.253 167.743 119.996 167.509C119.85 167.35 119.714 167.182 119.589 167.005C119.01 167.167 118.422 167.291 117.827 167.379Z" fill="black"/>
<path opacity="0.1" d="M108.854 166.668C108.616 166.878 108.31 166.996 107.993 167.002L106.992 167.138C106.901 167.17 106.805 167.184 106.71 167.178C106.614 167.172 106.521 167.147 106.435 167.104C106.349 167.062 106.272 167.002 106.21 166.93C106.147 166.857 106.1 166.773 106.071 166.682C105.24 165.174 104.666 163.31 103.107 162.587C102.146 162.14 100.881 162.17 100.264 161.309C99.9507 160.784 99.8448 160.161 99.967 159.562C99.9503 159.665 99.927 159.765 99.9103 159.865C99.7901 160.579 99.7301 161.376 100.154 161.963C100.771 162.823 102.039 162.793 102.997 163.24C104.559 163.964 105.133 165.828 105.964 167.335C106.04 167.525 106.174 167.685 106.348 167.792C106.521 167.85 106.707 167.858 106.885 167.815L107.886 167.679C108.204 167.676 108.51 167.557 108.747 167.345C108.907 167.112 108.979 166.83 108.951 166.548V166.548C108.922 166.591 108.889 166.631 108.854 166.668Z" fill="black"/>
</g>
<path d="M246.975 245.302L244.836 245.005V213.448L245.273 213.582L246.608 213.992V215.042V215.833V217.03L246.625 218.401L246.655 221.222V221.505V221.882V222.682V223.166V224.336V225.07L246.815 239.279V239.66L246.872 244.662V244.738L246.975 245.302Z" fill="#EAECF0"/>
<path d="M248.177 245.469L246.985 245.302V244.732V244.655L246.929 239.653V239.273L246.768 225.063V224.33V223.159V222.676V221.875V221.499V221.215L246.738 218.394L246.722 217.023V215.826V215.036V213.985H248.006V215.146V215.94V216.853V218.064L248.033 221.112V221.779V222.476V222.963V223.559V224.336L248.157 239.25V239.633L248.197 244.592V244.672L248.177 245.469Z" fill="#D3DAE1"/>
<path d="M348.391 247.743C347.57 247.91 346.746 248.077 345.922 248.22L345.892 223.573V222.506L348.271 221.505V223.766L348.391 247.743Z" fill="#EAECF0"/>
<path d="M349.96 220.725V247.403C349.439 247.516 348.919 247.623 348.398 247.736L348.288 223.769V221.509L348.445 221.435L349.96 220.725Z" fill="#D3DAE1"/>
<path d="M208.515 240.36L206.295 240.137L206.012 212.345V211.551V211.021H208.191V211.738V212.531L208.515 240.36Z" fill="#EAECF0"/>
<path d="M210.167 240.537L208.498 240.36L208.164 212.531V211.738V211.021H209.85V211.884V212.678L210.167 240.537Z" fill="#D3DAE1"/>
<path opacity="0.1" d="M348.428 221.439L349.953 220.722V224.086L348.468 224.583L348.428 221.439Z" fill="black"/>
<path d="M379.377 199.239V213.495L348.468 223.79L348.268 208.543L379.377 199.239Z" fill="#D48A9B"/>
<path d="M205.601 198.249L246.221 190.525L379.377 199.239L348.268 208.543L205.601 198.249Z" fill="#EFC6CD"/>
<path opacity="0.1" d="M209.863 211.021L209.876 212.675L208.194 212.528L206.009 212.341L205.999 211.021H209.863Z" fill="black"/>
<path opacity="0.1" d="M247.923 215.943L246.638 215.829L244.836 215.676V213.448L246.618 213.989H247.906L247.923 215.943Z" fill="black"/>
<path d="M205.601 198.249V211.514L348.468 223.79L348.268 208.543L205.601 198.249Z" fill="#D48A9B"/>
<path d="M318.877 214.022H300.216V207.256L318.877 208.57V214.022Z" fill="#D48A9B"/>
<path opacity="0.1" d="M318.877 214.022H300.216V207.256L318.877 208.57V214.022Z" fill="black"/>
<path opacity="0.1" d="M275.151 205.772V216.463L346.783 221.909V210.524L318.844 208.94L316.068 211.414L304.675 210.624L300.613 207.653L275.151 205.772Z" fill="black"/>
<path d="M274.754 205.375V216.07L346.386 221.512V210.127L318.447 208.543L315.674 211.021L304.278 210.227L300.216 207.256L274.754 205.375Z" fill="white"/>
<path d="M230.567 202.504L247.509 203.694L247.312 209.073H236.25L228.851 206.169L230.567 202.504Z" fill="#D48A9B"/>
<path opacity="0.1" d="M230.567 202.504L247.509 203.694L247.312 209.073H236.25L228.851 206.169L230.567 202.504Z" fill="black"/>
<path opacity="0.1" d="M207.981 201.02V210.624L272.972 215.773V205.575L247.906 204.088L245.23 206.069L235.125 205.475L230.964 202.901L207.981 201.02Z" fill="black"/>
<path d="M207.583 200.623V210.227L272.575 215.376V205.178L247.509 203.694L244.836 205.672L234.728 205.078L230.566 202.504L207.583 200.623Z" fill="white"/>
<path opacity="0.1" d="M346.789 200.66L355.9 201.257L340.806 205.772L333.117 205.218L346.789 200.66Z" fill="black"/>
<path d="M346.789 200.266L355.9 200.86L340.806 205.375L333.117 204.821L346.789 200.266Z" fill="white"/>
<path d="M345.701 201.29C346.062 201.133 346.446 201.423 346.829 201.497C347.046 201.54 347.273 201.497 347.497 201.54C347.944 201.6 348.385 201.897 348.812 201.747L345.701 201.29Z" fill="#D3DAE1"/>
<path d="M345.231 201.56C345.588 201.407 345.972 201.697 346.356 201.77C346.576 201.81 346.803 201.77 347.023 201.81C347.467 201.87 347.911 202.17 348.338 202.02L345.231 201.56Z" fill="#D3DAE1"/>
<path d="M344.15 202.107C344.507 201.953 344.891 202.24 345.275 202.314C345.495 202.357 345.718 202.314 345.942 202.357C346.389 202.417 346.833 202.717 347.257 202.564L344.15 202.107Z" fill="#D3DAE1"/>
<path opacity="0.1" d="M285.322 195.664L305.636 196.995L301.307 203.207L278.975 200.823L285.322 195.664Z" fill="black"/>
<path d="M284.925 195.267L305.239 196.594L300.91 202.81L278.575 200.426L284.925 195.267Z" fill="#3A3768"/>
<path d="M285.82 195.724L303.537 196.808L299.762 201.87L280.283 199.926L285.82 195.724Z" fill="#D5E1F4"/>
<path d="M273.94 246.493C273.94 246.586 273.94 246.683 273.923 246.776C273.906 246.869 273.923 246.943 273.896 247.026C273.825 247.614 273.662 248.187 273.412 248.724V248.724C265.019 247.78 256.606 246.646 248.183 245.482L246.992 245.315L244.853 245.019L243.051 244.768C241.078 244.719 239.112 244.535 237.164 244.218C235.937 244.037 234.722 243.781 233.527 243.451C228.187 242.721 222.818 242.017 217.465 241.377L216.767 241.294C216.894 240.727 217.001 240.383 217.001 240.383C217.001 240.383 218.149 235.875 219.103 230.836C219.314 229.742 219.514 228.628 219.687 227.524C219.828 226.641 219.954 225.767 220.061 224.927C220.121 224.463 220.171 224.01 220.215 223.566C220.238 223.346 220.258 223.126 220.275 222.899C220.291 222.672 220.312 222.426 220.328 222.195C220.345 221.965 220.352 221.762 220.362 221.552V221.238C220.362 220.788 220.362 220.318 220.345 219.834C220.176 217.426 219.796 215.037 219.21 212.695C219.117 212.295 219.02 211.894 218.92 211.504C218.89 211.377 218.857 211.254 218.823 211.131C217.745 206.959 216.487 203.551 216.487 203.551C216.486 203.532 216.486 203.513 216.487 203.494C216.489 203.481 216.489 203.467 216.487 203.454C216.489 203.426 216.489 203.398 216.487 203.371C216.487 203.264 216.487 203.101 216.487 202.904C216.487 202.864 216.487 202.82 216.487 202.777C216.512 202.427 216.572 202.081 216.667 201.743C216.704 201.623 216.746 201.506 216.794 201.39C216.913 201.054 217.112 200.753 217.374 200.511C217.635 200.27 217.952 200.095 218.296 200.003V200.003C219.24 199.759 220.669 200.003 222.824 201.28C223.175 201.482 223.51 201.712 223.826 201.967C223.986 202.094 224.159 202.227 224.293 202.37C226.762 204.668 228.077 208.46 228.778 211.921C228.805 212.044 228.828 212.168 228.851 212.291C228.935 212.718 229.005 213.135 229.068 213.545C229.182 214.265 229.272 214.959 229.339 215.603C229.339 215.776 229.375 215.936 229.392 216.113C229.409 216.29 229.425 216.446 229.435 216.606C229.479 217.127 229.509 217.607 229.529 218.014C229.585 219.094 229.575 219.758 229.575 219.758V219.791C229.575 219.791 229.575 219.841 229.559 219.934C229.557 219.943 229.557 219.952 229.559 219.961C229.559 220.001 229.559 220.051 229.559 220.108C229.559 220.165 229.559 220.205 229.559 220.261C229.545 220.401 229.529 220.565 229.509 220.752C229.479 221.038 229.445 221.375 229.405 221.752C229.379 222.032 229.345 222.336 229.312 222.656C229.238 223.323 229.158 224.096 229.072 224.91C229.052 225.063 229.035 225.217 229.018 225.37C228.941 226.067 228.861 226.794 228.778 227.528C228.688 228.361 228.588 229.195 228.491 230.019C228.468 230.199 228.444 230.379 228.424 230.556C228.177 232.557 227.93 234.374 227.73 235.505C227.699 235.672 227.676 235.841 227.663 236.011C227.66 236.069 227.66 236.127 227.663 236.185C227.653 236.336 227.653 236.487 227.663 236.638C227.827 239.486 230.907 239.973 230.907 239.973L244.893 239.696L246.969 239.656L248.177 239.633L259.079 239.416L260.08 239.396L265.503 239.289C265.871 239.281 266.239 239.325 266.594 239.42C268.269 239.869 269.866 240.567 271.333 241.49C271.791 241.784 272.204 242.144 272.558 242.558C272.575 242.574 272.591 242.592 272.605 242.611C273.344 243.497 273.801 244.584 273.916 245.732C273.916 245.809 273.916 245.886 273.916 245.962C273.943 246.122 273.943 246.302 273.94 246.493Z" fill="#3A3768"/>
<path opacity="0.1" d="M273.939 246.493C273.939 246.586 273.939 246.683 273.923 246.776C273.906 246.869 273.923 246.943 273.896 247.026C273.816 247.614 273.647 248.186 273.395 248.723C265.002 247.78 256.589 246.646 248.166 245.482L246.975 245.315L244.836 245.019L243.034 244.768C241.061 244.719 239.095 244.535 237.147 244.218C235.92 244.037 234.705 243.781 233.51 243.451C228.17 242.721 222.801 242.017 217.448 241.377L216.75 241.294C216.877 240.707 216.991 240.35 216.991 240.35C216.991 240.35 217.928 236.682 218.82 232.236C218.883 231.93 218.943 231.623 219.003 231.313L219.093 230.842C219.3 229.752 219.5 228.632 219.677 227.531C219.817 226.647 219.944 225.774 220.051 224.933C220.111 224.47 220.161 224.016 220.204 223.573C220.228 223.353 220.248 223.133 220.264 222.906C220.281 222.679 220.301 222.432 220.318 222.202C220.335 221.972 220.341 221.769 220.351 221.559V221.245C220.351 220.795 220.351 220.325 220.335 219.841C220.171 217.433 219.794 215.044 219.21 212.701C219.117 212.297 219.02 211.9 218.92 211.511C218.886 211.384 218.856 211.261 218.823 211.137C217.742 206.952 216.487 203.524 216.487 203.524C216.488 203.516 216.488 203.509 216.487 203.501C216.488 203.487 216.488 203.474 216.487 203.461C216.488 203.433 216.488 203.405 216.487 203.377C216.487 203.271 216.487 203.107 216.487 202.911C216.487 202.87 216.487 202.827 216.487 202.784C216.508 202.434 216.565 202.088 216.657 201.75C216.694 201.633 216.734 201.513 216.78 201.397C216.901 201.043 217.109 200.725 217.386 200.474C217.662 200.222 217.998 200.045 218.362 199.959C219.307 199.739 220.718 200.013 222.827 201.246C223.193 201.461 223.541 201.704 223.869 201.973V201.973C224.025 202.103 224.176 202.234 224.322 202.374C226.772 204.685 228.077 208.47 228.771 211.921C228.798 212.044 228.821 212.171 228.844 212.295C228.928 212.718 228.998 213.138 229.061 213.545C229.175 214.265 229.261 214.956 229.328 215.596C229.345 215.773 229.365 215.946 229.378 216.113C229.392 216.28 229.412 216.446 229.422 216.606C229.465 217.127 229.495 217.607 229.515 218.014C229.572 219.094 229.562 219.758 229.562 219.758V219.871C229.562 219.891 229.562 219.911 229.562 219.934C229.56 219.943 229.56 219.952 229.562 219.961C229.562 220.001 229.562 220.051 229.562 220.108C229.562 220.165 229.562 220.205 229.562 220.261C229.548 220.401 229.532 220.565 229.512 220.751C229.482 221.038 229.448 221.375 229.408 221.752C229.375 222.029 229.345 222.332 229.311 222.656C229.238 223.323 229.158 224.096 229.071 224.91C229.051 225.063 229.035 225.217 229.018 225.37C228.941 226.067 228.858 226.801 228.778 227.534C228.681 228.368 228.584 229.202 228.484 230.022C228.461 230.202 228.44 230.382 228.417 230.559C228.174 232.56 227.93 234.351 227.73 235.474C227.697 235.654 227.674 235.836 227.663 236.018C227.66 236.076 227.66 236.134 227.663 236.191C227.653 236.342 227.653 236.494 227.663 236.645C227.853 239.46 230.907 239.93 230.907 239.93L244.893 239.656L246.965 239.613L248.176 239.59L259.099 239.376L260.12 239.356L265.523 239.249C265.891 239.238 266.259 239.281 266.614 239.379C268.301 239.816 269.911 240.508 271.39 241.43C271.856 241.728 272.274 242.095 272.631 242.518C272.648 242.534 272.664 242.552 272.678 242.571C273.417 243.461 273.868 244.554 273.973 245.706C273.973 245.782 273.973 245.859 273.973 245.936C273.943 246.122 273.943 246.302 273.939 246.493Z" fill="black"/>
<path d="M273.963 248.773L273.412 248.71C265.019 247.766 256.606 246.633 248.183 245.469L246.992 245.302L244.853 245.005L243.051 244.755C241.078 244.706 239.112 244.522 237.164 244.205C235.937 244.023 234.722 243.767 233.527 243.438C228.187 242.708 222.818 242.004 217.465 241.364C217.552 240.896 217.663 240.433 217.799 239.976C217.799 239.976 220.969 227.501 221.166 220.868C221.236 218.497 220.765 215.563 220.128 212.765C220.035 212.361 219.941 211.961 219.841 211.568L219.751 211.194C218.62 206.809 217.275 203.141 217.275 203.141C217.243 202.687 217.269 202.231 217.351 201.783C217.372 201.663 217.399 201.544 217.432 201.426C217.56 200.868 217.861 200.363 218.293 199.986C218.312 199.968 218.333 199.953 218.356 199.939C219.234 199.272 220.809 199.226 223.612 200.866C224.18 201.201 224.705 201.603 225.177 202.063C225.311 202.19 225.444 202.324 225.571 202.46C227.823 204.898 229.018 208.633 229.646 211.974L229.716 212.345C229.789 212.761 229.852 213.172 229.913 213.568C229.913 213.568 229.913 213.592 229.913 213.602C229.989 214.129 230.053 214.632 230.106 215.112C230.262 216.527 230.343 217.948 230.346 219.371C230.346 219.371 230.216 220.688 230.013 222.586C229.936 223.329 229.846 224.163 229.749 225.043C229.749 225.087 229.749 225.13 229.749 225.177L229.699 225.644C229.529 227.181 229.342 228.822 229.152 230.342C229.132 230.529 229.108 230.712 229.085 230.892C228.871 232.603 228.658 234.124 228.481 235.114C227.787 238.976 231.651 239.57 231.651 239.57L244.846 239.309L246.915 239.269L248.127 239.243H248.634H248.797L259.263 239.036H260.264L266.271 238.916C266.639 238.907 267.007 238.952 267.362 239.049C269.05 239.486 270.661 240.176 272.141 241.097C272.556 241.365 272.934 241.685 273.265 242.051C273.286 242.071 273.305 242.094 273.322 242.117C274.107 243.023 274.59 244.151 274.705 245.343C274.819 246.536 274.56 247.735 273.963 248.773Z" fill="#3A3768"/>
<path d="M321.137 188.494L325.218 197.231H324.534L319.749 188.598L321.137 188.494Z" fill="#4C4C56"/>
<path opacity="0.1" d="M321.137 188.494L325.218 197.231H324.534L319.749 188.598L321.137 188.494Z" fill="black"/>
<path d="M321.137 197.231H325.218V198.145L321.137 198.249V197.231Z" fill="#4C4C56"/>
<path opacity="0.1" d="M321.137 197.231H325.218V198.145L321.137 198.249V197.231Z" fill="black"/>
<path d="M289.39 156.344V186.854C289.39 187.454 289.629 188.03 290.054 188.455C290.479 188.879 291.055 189.118 291.656 189.118H342.548C342.847 189.118 343.144 189.058 343.42 188.943C343.696 188.827 343.946 188.657 344.156 188.443C344.366 188.23 344.531 187.976 344.642 187.698C344.752 187.42 344.806 187.123 344.8 186.824L344.223 156.287C344.212 155.698 343.969 155.136 343.548 154.723C343.127 154.311 342.561 154.079 341.971 154.08H291.656C291.359 154.08 291.064 154.138 290.789 154.252C290.514 154.366 290.264 154.533 290.054 154.743C289.844 154.953 289.677 155.203 289.563 155.477C289.449 155.752 289.39 156.047 289.39 156.344V156.344Z" fill="#4C4C56"/>
<path opacity="0.1" d="M289.39 156.344V186.854C289.39 187.454 289.629 188.03 290.054 188.455C290.479 188.879 291.055 189.118 291.656 189.118H342.548C342.847 189.118 343.144 189.058 343.42 188.943C343.696 188.827 343.946 188.657 344.156 188.443C344.366 188.23 344.531 187.976 344.642 187.698C344.752 187.42 344.806 187.123 344.8 186.824L344.223 156.287C344.212 155.698 343.969 155.136 343.548 154.723C343.127 154.311 342.561 154.079 341.971 154.08H291.656C291.359 154.08 291.064 154.138 290.789 154.252C290.514 154.366 290.264 154.533 290.054 154.743C289.844 154.953 289.677 155.203 289.563 155.477C289.449 155.752 289.39 156.047 289.39 156.344V156.344Z" fill="black"/>
<path d="M287.555 156.344V186.854C287.555 187.454 287.794 188.03 288.219 188.455C288.644 188.879 289.22 189.118 289.821 189.118H340.712C341.012 189.118 341.308 189.058 341.584 188.943C341.86 188.827 342.11 188.657 342.32 188.443C342.529 188.23 342.694 187.976 342.804 187.698C342.914 187.42 342.968 187.123 342.962 186.824L342.384 156.287C342.373 155.698 342.131 155.137 341.71 154.725C341.29 154.312 340.724 154.08 340.135 154.08H289.834C289.536 154.078 289.239 154.135 288.963 154.248C288.687 154.361 288.435 154.528 288.223 154.738C288.011 154.949 287.843 155.199 287.729 155.474C287.614 155.75 287.555 156.045 287.555 156.344V156.344Z" fill="#4C4C56"/>
<path d="M289.557 158.251V185.113C289.557 185.713 289.796 186.289 290.221 186.714C290.646 187.139 291.222 187.377 291.823 187.377H338.947C339.544 187.377 340.117 187.14 340.54 186.718C340.962 186.296 341.2 185.723 341.2 185.126V158.235C341.199 157.638 340.961 157.067 340.539 156.645C340.116 156.224 339.544 155.987 338.947 155.987H291.823C291.222 155.987 290.646 156.226 290.221 156.65C289.796 157.075 289.557 157.651 289.557 158.251V158.251Z" fill="#6C63FF"/>
<path d="M309.947 188.618L314.422 197.231H324.534L319.478 187.377L309.947 188.618Z" fill="#4C4C56"/>
<path d="M306.383 197.231L305.636 198.145H321.137V197.231H306.383Z" fill="#4C4C56"/>
<path d="M239.973 161.24C240.246 162.717 240.52 164.196 241.021 165.605C241.024 165.614 241.028 165.624 241.032 165.634C241.037 165.648 241.042 165.663 241.048 165.685C240.985 165.662 240.927 165.627 240.878 165.581C240.78 165.476 240.707 165.349 240.668 165.211C240.158 163.791 239.88 162.305 239.603 160.823C239.264 159.014 238.927 157.211 238.172 155.54C237.953 155.108 237.762 154.663 237.601 154.206C237.57 154.11 237.545 154.012 237.524 153.913L237.601 153.866L237.684 153.833L237.768 153.809L237.851 153.789C237.869 154.084 237.921 154.376 238.005 154.66C238.165 155.116 238.353 155.561 238.569 155.994C239.308 157.653 239.64 159.445 239.973 161.24Z" fill="url(#paint1_linear)"/>
<path d="M252.181 167.359C251.656 167.95 251.224 168.618 250.9 169.339C250.85 169.45 250.8 169.556 250.753 169.673C249.278 173.008 248.777 177.726 248.777 177.726C248.777 177.726 247.863 177.316 246.568 176.676C244.155 175.482 240.431 173.495 238.926 171.911C238.259 171.194 238.018 170.56 238.572 170.116C238.692 170.02 238.816 169.91 238.939 169.783C239.366 169.357 239.756 168.895 240.104 168.402C240.585 167.735 241.058 166.992 241.506 166.228C241.769 165.781 242.02 165.331 242.253 164.894L242.347 164.721C243.348 162.823 244.079 161.203 244.079 161.203C244.079 161.203 244.412 161.309 244.953 161.499C247.446 162.39 254.31 165.094 252.181 167.359Z" fill="#EFB7B9"/>
<path d="M297.86 244.622C297.86 244.622 298.267 247.643 298.784 250.831L297.6 250.771C294.432 250.607 291.26 250.396 288.086 250.141C286.284 245.969 284.415 241.017 284.415 240.94C284.415 240.863 284.358 239.233 284.295 237.412C284.275 236.772 284.251 236.111 284.231 235.491C284.198 234.551 284.168 233.704 284.151 233.177C284.151 232.817 284.131 232.603 284.131 232.603C284.131 232.603 282.416 232.903 280.874 233.113L280.19 233.204C279.836 233.247 279.522 233.28 279.239 233.3C278.994 233.337 278.746 233.337 278.501 233.3C277.974 233.097 279.069 227.965 279.069 227.965L281.792 221.378L282.553 219.544L282.886 219.461C283.05 219.421 283.27 219.374 283.534 219.324C286.133 218.847 293.078 218.24 294.256 225.09C295.714 233.55 295.925 235.451 295.925 235.451L297.86 244.622Z" fill="#EFB7B9"/>
<path opacity="0.05" d="M297.86 244.622C297.86 244.622 298.267 247.643 298.784 250.831L297.6 250.771C294.432 250.607 291.26 250.396 288.086 250.141C286.284 245.969 284.415 241.017 284.415 240.94C284.415 240.863 284.358 239.233 284.295 237.412C284.275 236.772 284.251 236.111 284.231 235.491C284.198 234.551 284.168 233.704 284.151 233.177C284.151 232.817 284.131 232.603 284.131 232.603C284.131 232.603 282.416 232.903 280.874 233.113L280.19 233.204C279.836 233.247 279.522 233.28 279.239 233.3C278.994 233.337 278.746 233.337 278.501 233.3C277.974 233.097 279.069 227.965 279.069 227.965L281.792 221.378L282.553 219.544L282.886 219.461C283.05 219.421 283.27 219.374 283.534 219.324C286.133 218.847 293.078 218.24 294.256 225.09C295.714 233.55 295.925 235.451 295.925 235.451L297.86 244.622Z" fill="black"/>
<path d="M297.6 250.771C294.432 250.606 291.26 250.396 288.085 250.141L286.884 250.044L286.353 250.001C284.858 246.396 283.53 242.871 283.53 242.808C283.53 242.744 283.473 241.1 283.41 239.279C283.333 237.005 283.247 234.471 283.247 234.471L283.023 234.507L282.93 234.524H282.889H282.809L282.272 234.614L281.978 234.661C281.448 234.748 280.807 234.844 280.18 234.934L280.04 234.954L279.672 235.001L279.339 235.041C279.082 235.074 278.838 235.101 278.618 235.121L278.348 235.144C278.103 235.183 277.854 235.183 277.61 235.144C277.083 234.941 278.177 229.809 278.177 229.809L281.661 221.388L281.782 221.355C281.965 221.308 282.352 221.218 282.876 221.128C283.073 221.095 283.29 221.062 283.524 221.032C286.547 220.645 292.3 220.755 293.365 226.934C294.823 235.394 295.033 237.295 295.033 237.295L296.979 246.493C296.979 246.493 297.233 248.393 297.6 250.771Z" fill="#EFB7B9"/>
<path opacity="0.1" d="M283.41 239.279C283.333 237.005 283.247 234.467 283.247 234.467C283.247 234.467 279.91 235.051 278.354 235.164L278.668 234.104C278.668 234.104 284.381 232.527 284.501 233.417C284.588 234.041 283.854 237.355 283.41 239.279Z" fill="black"/>
<path opacity="0.1" d="M283.531 219.308V221.719C283.531 221.719 283.247 226.054 281.018 232.687C280.971 232.83 280.921 232.97 280.868 233.11C280.634 233.748 280.357 234.37 280.04 234.971C279.412 235.058 278.805 235.131 278.355 235.164C278.11 235.202 277.861 235.202 277.617 235.164C277.09 234.961 278.181 229.829 278.181 229.829L281.665 221.412L281.789 221.379L282.546 219.541C282.546 219.541 282.92 219.421 283.531 219.308Z" fill="black"/>
<path d="M282.883 218.927V221.719C282.883 221.719 282.599 226.054 280.37 232.69C280.314 232.863 280.25 233.024 280.187 233.2C280.123 233.377 280.04 233.587 279.956 233.774C279.773 234.217 279.566 234.648 279.349 235.061C277.604 238.366 274.944 240.73 273.255 242.031C273.009 242.221 272.778 242.388 272.588 242.528H272.571C272.238 242.754 271.997 242.918 271.844 243.014C271.69 243.111 271.677 243.118 271.677 243.118C270.095 242.147 265.6 241.984 265.6 241.984L255.108 243.888C252.815 244.283 250.5 244.546 248.177 244.675L246.985 244.732C246.298 244.759 245.584 244.775 244.853 244.779C244.262 244.779 243.662 244.779 243.051 244.755C241.078 244.706 239.112 244.522 237.164 244.205C236.093 244.029 235.032 243.794 233.987 243.501C233.242 243.295 232.508 243.05 231.788 242.768C224.446 239.886 226.358 233.054 227.597 230.096C227.663 229.939 227.727 229.795 227.787 229.662C228.06 229.058 228.264 228.705 228.264 228.705L228.751 227.528L229.549 225.597L229.726 225.173L229.776 225.05L230.366 223.619L238.709 222.539L244.84 221.745L246.705 221.505L247.97 221.342L250.383 221.028L251.29 220.912C251.85 220.825 252.416 220.78 252.982 220.778C253.288 220.764 253.594 220.809 253.883 220.912C254.551 221.215 259.637 220.385 259.637 220.385C259.637 220.385 263.604 219.171 267.088 219.574C268.811 219.693 270.54 219.704 272.264 219.608V219.608L272.691 219.588L273.245 219.564H273.366C277.877 219.354 282.883 218.927 282.883 218.927Z" fill="#444053"/>
<path opacity="0.1" d="M252.865 227.304C252.865 227.304 248.861 236.412 248.694 236.572C248.527 236.732 248.534 239.573 248.694 239.406C248.854 239.24 254.407 226.941 254.407 226.941L252.865 227.304Z" fill="black"/>
<path opacity="0.1" d="M272.268 219.601C272.268 219.601 270.242 220.908 269.635 221.962C269.027 223.016 263.478 233.497 262.103 235.034C260.961 236.41 259.931 237.874 259.023 239.413C258.862 239.69 258.862 241.43 259.833 239.77C260.805 238.109 260.564 237.829 262.466 235.768C264.369 233.707 266.471 229.048 267.285 228.118C268.1 227.188 269.231 224.393 270.649 222.732L273.366 219.561L272.268 219.601Z" fill="black"/>
<path opacity="0.1" d="M272.755 237.585C272.755 237.585 271.337 236.615 270.002 238.272C268.667 239.93 272.755 237.585 272.755 237.585Z" fill="black"/>
<path opacity="0.1" d="M274.497 238.086C274.497 238.086 273.322 240.133 272.755 240.297C272.187 240.46 274.497 238.086 274.497 238.086Z" fill="black"/>
<path opacity="0.1" d="M272.755 238.596C272.755 238.596 271.824 240.217 271.013 240.053L272.755 238.596Z" fill="black"/>
<path d="M266.197 194.84C266.197 194.84 274.784 194.477 275.635 194.193C276.486 193.91 284.018 192.94 284.018 192.94C284.018 192.94 306.336 194.517 299.979 196.421C293.622 198.325 284.992 197.512 284.992 197.512C284.992 197.512 276.566 199.699 275.271 200.846C273.976 201.993 264.415 202.02 264.415 202.02L266.197 194.84Z" fill="#EFB7B9"/>
<path opacity="0.05" d="M266.197 194.84C266.197 194.84 274.784 194.477 275.635 194.193C276.486 193.91 284.018 192.94 284.018 192.94C284.018 192.94 306.336 194.517 299.979 196.421C293.622 198.325 284.992 197.512 284.992 197.512C284.992 197.512 276.566 199.699 275.271 200.846C273.976 201.993 264.415 202.02 264.415 202.02L266.197 194.84Z" fill="black"/>
<path d="M235.652 175.292C235.652 175.292 227.793 177.96 231.601 184.763C235.409 191.566 240.311 194.767 240.311 194.767L252.949 203.511C252.949 203.511 258.255 206.545 260.684 205.291L264.652 204.958L265.32 194.554C265.32 194.554 261.982 197.145 258.352 193.553C254.721 189.962 250.249 187.521 249.885 185.58C249.521 183.639 240.228 173.631 235.652 175.292Z" fill="#A36468"/>
<path d="M260.481 197.311C260.481 197.311 264.572 198.769 264.412 198.849C264.252 198.929 260.481 200.346 260.481 200.346L260.764 205.892L266.314 205.588C266.314 205.588 268.34 195.491 266.598 194.477L260.481 194.193V197.311Z" fill="#67647E"/>
<path opacity="0.1" d="M260.481 197.311C260.481 197.311 264.572 198.769 264.412 198.849C264.252 198.929 260.481 200.346 260.481 200.346L260.764 205.892L266.314 205.588C266.314 205.588 268.34 195.491 266.598 194.477L260.481 194.193V197.311Z" fill="black"/>
<path opacity="0.1" d="M252.181 167.359C251.656 167.95 251.224 168.618 250.9 169.339C250.85 169.449 250.8 169.556 250.753 169.673C247.773 169.673 245.63 167.359 243.802 165.288C243.468 164.904 242.624 165.484 242.347 165.054C242.317 165.004 242.287 164.954 242.253 164.904L242.347 164.731C243.348 162.833 244.079 161.213 244.079 161.213C244.079 161.213 244.412 161.319 244.953 161.509C247.446 162.39 254.31 165.094 252.181 167.359Z" fill="black"/>
<path d="M260.858 159.305C260.857 161.951 259.811 164.489 257.948 166.368C256.084 168.247 253.554 169.315 250.906 169.339H250.81C249.384 169.34 247.974 169.037 246.675 168.451C245.375 167.864 244.216 167.008 243.274 165.938C242.937 165.556 242.63 165.149 242.353 164.721C241.51 163.408 240.984 161.916 240.818 160.364C240.652 158.813 240.851 157.244 241.397 155.782C241.944 154.321 242.824 153.006 243.968 151.944C245.111 150.881 246.487 150.1 247.985 149.661C249.484 149.223 251.064 149.139 252.601 149.417C254.137 149.695 255.588 150.327 256.837 151.264C258.087 152.2 259.1 153.414 259.798 154.81C260.496 156.205 260.859 157.745 260.858 159.305Z" fill="#EFB7B9"/>
<path opacity="0.1" d="M250.639 221.555C250.639 221.555 249.875 222.489 249.031 223.359C248.393 224.026 247.713 224.637 247.275 224.793C246.274 225.16 241.686 228.638 241.686 228.638C241.686 228.638 238.042 231.109 237.111 231.836C236.18 232.563 232.816 232.12 232.816 232.12C232.816 232.12 229.579 231.413 227.573 230.119C227.768 229.644 227.991 229.18 228.24 228.732L230.346 223.629L238.689 222.552L250.639 221.555Z" fill="black"/>
<path d="M250.476 220.908C250.476 220.908 249.715 221.842 248.871 222.712C248.233 223.379 247.536 223.99 247.115 224.146C246.114 224.51 241.526 227.991 241.526 227.991C241.526 227.991 237.878 230.462 236.947 231.189C236.016 231.916 232.655 231.473 232.655 231.473C232.655 231.473 228.037 230.472 226.415 228.638C225.28 227.361 226.455 224.993 227.256 223.69C227.59 223.133 227.873 222.769 227.873 222.769L250.476 220.908Z" fill="#67647E"/>
<path d="M256.473 189.538C253.716 189.295 244.643 178.2 244.643 178.2L244.85 177.917L246.752 175.285H251.2L251.691 177.713C255.075 182.455 257.067 185.753 257.607 187.641C257.998 189.015 257.627 189.642 256.473 189.538Z" fill="#67647E"/>
<path opacity="0.1" d="M256.473 189.538C253.716 189.295 244.643 178.2 244.643 178.2L244.85 177.917C246.476 179.408 248.004 181.003 249.425 182.692C256.066 190.502 257.381 188.321 257.607 187.641C257.998 189.015 257.627 189.642 256.473 189.538Z" fill="black"/>
<path opacity="0.1" d="M250.476 220.908C250.476 220.908 249.715 221.842 248.871 222.712C248.425 222.885 247.956 222.986 247.479 223.013C246.424 222.973 243.995 224.633 243.995 224.633C243.995 224.633 239.703 224.39 238.892 224.833C238.082 225.277 234.961 225.36 234.961 225.36C229.251 226.988 227.673 224.517 227.256 223.693C227.59 223.136 227.873 222.772 227.873 222.772L250.476 220.908Z" fill="black"/>
<path d="M260.394 196.805C260.394 196.961 260.364 197.118 260.344 197.268C260.324 197.418 260.304 197.572 260.28 197.715C260.173 198.539 259.925 199.338 259.55 200.079C258.822 201.293 256.593 206.029 256.593 206.029L256.443 206.902L256.366 207.359L256.286 207.809L255.742 211.001L255.498 214.686C255.498 214.686 254.163 216.546 253.596 217.353C253.029 218.16 253.109 219.338 253.312 220.188C253.516 221.038 251.45 221.158 251.45 221.158C251.45 221.158 248.534 222.576 247.479 222.536C246.425 222.496 243.995 224.15 243.995 224.15C243.995 224.15 239.704 223.906 238.893 224.353C238.082 224.8 234.961 224.88 234.961 224.88C228.848 226.617 227.47 223.663 227.186 223.056C226.902 222.449 228.401 219.981 228.401 219.981C228.401 219.981 228.734 216.863 229.372 216.62C230.009 216.376 230.79 212.251 230.79 212.251C230.79 212.251 230.546 210.994 231.074 210.307C231.601 209.62 231.561 207.676 232.248 206.746C232.936 205.815 231.521 202.697 231.764 201.887C232.008 201.076 230.994 197.798 231.074 196.948C231.154 196.098 230.873 195.411 230.223 193.71C229.669 192.259 229.826 185.813 229.889 183.966C229.889 183.652 229.906 183.472 229.906 183.472C229.906 183.472 230.473 181.648 231.971 178.007C233.106 175.249 235.659 174.205 236.83 173.865C237.031 173.804 237.235 173.754 237.441 173.715C237.735 173.757 238.023 173.83 238.302 173.931C239.483 174.328 241.846 175.452 245.217 178.6C246.708 179.996 248.115 181.48 249.431 183.042C257.03 191.966 257.651 187.801 257.651 187.801C257.651 187.801 257.984 188.561 259.55 191.596C260.387 193.21 260.541 195.137 260.394 196.805Z" fill="#A36468"/>
<path opacity="0.1" d="M247.883 174.795L240.261 168.719C240.261 168.719 237.515 169.053 236.38 173.661L244.226 180.528L247.883 174.795Z" fill="black"/>
<path d="M247.883 174.795L246.548 176.659L245.193 178.57L244.172 180.067L237.908 174.795L236.83 173.861L236.226 173.348C236.837 170.857 237.922 169.613 238.786 169.013C239.178 168.713 239.635 168.508 240.121 168.416L247.883 174.795Z" fill="#67647E"/>
<path d="M300.299 198.849C293.939 200.75 285.312 199.943 285.312 199.943C285.312 199.943 276.886 202.127 275.591 203.277C274.757 204.008 270.495 204.278 267.582 204.388C265.964 204.448 264.752 204.451 264.752 204.451L266.531 197.271L267.559 197.225C269.865 197.118 275.301 196.845 275.968 196.621C276.819 196.338 284.351 195.367 284.351 195.367C284.351 195.367 306.657 196.945 300.299 198.849Z" fill="#EFB7B9"/>
<path opacity="0.1" d="M260.28 197.698C260.173 198.522 259.925 199.322 259.55 200.063C258.822 201.277 256.593 206.012 256.593 206.012L256.286 207.809C255.251 207.425 254.247 206.964 253.282 206.429L240.635 197.675C240.635 197.675 235.732 194.477 231.925 187.671C228.117 180.864 235.976 178.2 235.976 178.2C240.551 176.533 249.829 186.537 250.192 188.481C250.556 190.425 255.014 192.853 258.659 196.455C259.139 196.942 259.685 197.361 260.28 197.698V197.698Z" fill="black"/>
<path opacity="0.1" d="M260.394 196.805C260.364 197.121 260.327 197.425 260.28 197.715C260.173 198.539 259.925 199.338 259.55 200.079C258.822 201.293 256.593 206.028 256.593 206.028L256.443 206.902C255.349 206.508 254.289 206.026 253.272 205.462L240.635 196.704C240.635 196.704 235.732 193.506 231.925 186.7C228.117 179.894 235.976 177.226 235.976 177.226C240.551 175.559 249.829 185.563 250.192 187.507C250.556 189.451 255.014 191.879 258.659 195.484C259.168 196.008 259.753 196.454 260.394 196.805Z" fill="black"/>
<path d="M265.627 196.988L264.979 207.389L261.008 207.723C260.921 207.768 260.831 207.807 260.738 207.839C258.208 208.766 253.272 205.942 253.272 205.942L240.635 197.188C240.635 197.188 235.732 193.99 231.925 187.184C228.117 180.378 235.976 177.713 235.976 177.713C240.551 176.046 249.829 186.05 250.192 187.994C250.556 189.938 255.014 192.366 258.659 195.968C259.193 196.504 259.808 196.954 260.481 197.301C261.285 197.724 262.19 197.918 263.097 197.863C264.005 197.807 264.879 197.505 265.627 196.988V196.988Z" fill="#A36468"/>
<path opacity="0.1" d="M265.627 196.988L264.979 207.389L261.008 207.723C260.921 207.768 260.831 207.807 260.738 207.839L260.481 202.784C260.481 202.784 264.248 201.366 264.412 201.286C264.575 201.206 260.481 199.749 260.481 199.749V197.331C261.288 197.749 262.194 197.938 263.102 197.878C264.009 197.817 264.882 197.51 265.627 196.988Z" fill="black"/>
<path opacity="0.1" d="M267.565 204.371C265.947 204.431 264.736 204.435 264.736 204.435L266.531 197.272L267.559 197.225C268.22 198.362 267.936 201.703 267.565 204.371Z" fill="black"/>
<path d="M260.804 199.739C260.804 199.739 264.896 201.196 264.736 201.277C264.575 201.357 260.804 202.774 260.804 202.774L261.088 208.32L266.638 208.016C266.638 208.016 268.663 197.918 266.921 196.905L260.804 196.621V199.739Z" fill="#67647E"/>
<path opacity="0.1" d="M236.543 206.379C236.543 206.379 235.165 207.673 234.031 208.016L236.543 206.379Z" fill="black"/>
<path opacity="0.1" d="M233.263 210.224C233.263 210.224 236.623 210.1 237.027 209.413C237.431 208.726 233.263 210.224 233.263 210.224Z" fill="black"/>
<path opacity="0.1" d="M231.601 215.039C231.804 215.039 235.852 214.472 236.016 213.945L231.601 215.039Z" fill="black"/>
<path opacity="0.1" d="M230.346 218.117C231.805 218.074 234.274 216.496 234.274 216.496L230.346 218.117Z" fill="black"/>
<path opacity="0.1" d="M239.784 218.924C239.784 218.924 248.574 218.924 248.978 217.307C249.381 215.689 239.784 218.924 239.784 218.924Z" fill="black"/>
<path opacity="0.1" d="M246.385 196.298C246.548 196.298 253.312 196.298 253.96 195.367C254.607 194.437 246.385 196.298 246.385 196.298Z" fill="black"/>
<path opacity="0.1" d="M238.936 169.793C238.991 170.124 239.02 170.458 239.023 170.793C239.023 171.166 238.989 171.538 238.923 171.904C238.789 172.6 238.578 173.279 238.295 173.928L238.225 174.092C238.125 174.325 238.018 174.552 237.908 174.779C237.412 175.789 236.827 176.753 236.159 177.66C234.636 179.681 232.875 181.512 230.914 183.112C230.573 183.399 230.229 183.682 229.882 183.962C229.882 183.649 229.899 183.469 229.899 183.469C229.899 183.469 230.466 181.645 231.965 178.003C233.099 175.245 235.652 174.202 236.824 173.861L236.22 173.348C236.83 170.857 237.915 169.613 238.779 169.013C238.832 169.259 238.896 169.52 238.936 169.793Z" fill="black"/>
<path opacity="0.1" d="M259.389 154.093C259.287 154.118 259.188 154.158 259.096 154.21C258.462 154.56 258.278 155.39 257.761 155.914C257.163 156.531 256.229 156.624 255.378 156.731C254.527 156.837 253.576 157.048 253.126 157.778C252.792 158.321 252.822 159.005 252.702 159.632C252.689 159.745 252.644 159.851 252.572 159.939C252.457 160.032 252.312 160.079 252.164 160.072C250.496 160.189 249.281 159.615 247.719 159.212C246.985 159.025 246.131 159.048 245.57 159.545C245.063 160.002 244.923 160.749 244.936 161.433V161.493C245.008 162.157 245.028 162.826 244.996 163.494C244.919 164.01 244.721 164.501 244.418 164.926C244.114 165.351 243.714 165.697 243.251 165.938C242.861 166.147 242.431 166.27 241.989 166.298C241.819 166.316 241.647 166.291 241.489 166.225C241.786 165.718 242.07 165.224 242.33 164.721C241.606 163.602 241.112 162.351 240.876 161.039C240.641 159.728 240.669 158.383 240.96 157.083C241.25 155.782 241.796 154.553 242.566 153.465C243.337 152.378 244.316 151.455 245.447 150.749C246.578 150.044 247.838 149.571 249.154 149.357C250.47 149.143 251.815 149.193 253.112 149.504C254.408 149.815 255.63 150.38 256.705 151.168C257.781 151.955 258.689 152.948 259.376 154.09L259.389 154.093Z" fill="black"/>
<path d="M262.139 152.812C262.017 153.085 261.825 153.321 261.582 153.496C260.821 153.989 259.73 153.446 258.936 153.886C258.298 154.236 258.118 155.067 257.601 155.59C257.007 156.207 256.072 156.3 255.218 156.407C254.364 156.514 253.419 156.724 252.965 157.454C252.632 157.998 252.665 158.678 252.542 159.308C252.53 159.421 252.485 159.528 252.412 159.615C252.296 159.707 252.152 159.755 252.004 159.749C250.336 159.865 249.121 159.288 247.559 158.888C246.829 158.701 245.974 158.725 245.414 159.222C244.853 159.719 244.766 160.429 244.776 161.113C244.846 161.795 244.867 162.481 244.84 163.167C244.724 163.902 244.366 164.578 243.821 165.086C243.277 165.594 242.578 165.906 241.836 165.971C241.728 165.988 241.618 165.982 241.512 165.955C241.406 165.928 241.306 165.88 241.219 165.815C241.122 165.71 241.053 165.585 241.015 165.448C239.904 162.326 239.914 158.862 238.566 155.834C238.348 155.402 238.16 154.956 238.002 154.5C237.975 154.406 237.948 154.31 237.928 154.213C237.889 154.02 237.862 153.825 237.848 153.629C237.71 153.649 237.58 153.703 237.468 153.786C237.428 153.82 237.392 153.858 237.361 153.899C237.17 154.218 237.073 154.585 237.081 154.957C236.831 159.126 237.237 163.308 238.282 167.352C238.601 168.362 238.795 169.406 238.859 170.463C238.822 171.606 238.55 172.729 238.059 173.761C235.966 178.583 231.761 182.115 227.58 185.306C228.01 184.846 228.341 184.303 228.555 183.711C228.768 183.119 228.859 182.49 228.821 181.861C228.749 182.101 228.612 182.317 228.426 182.484C228.239 182.651 228.01 182.763 227.763 182.808C227.269 182.892 226.763 182.885 226.272 182.785C226.912 182.575 227.163 181.821 227.323 181.168C227.65 179.834 227.954 178.488 228.234 177.129C228.533 175.833 228.729 174.515 228.821 173.188C228.871 172.061 228.785 170.93 228.738 169.8C228.639 166.7 228.75 163.597 229.072 160.512C229.319 157.844 229.766 154.96 231.725 153.139C232.57 152.425 233.514 151.837 234.528 151.392C234.528 151.058 236.974 150.391 237.298 150.345C237.432 150.318 237.568 150.303 237.705 150.298C237.88 150.273 238.058 150.303 238.214 150.385C238.371 150.467 238.497 150.597 238.576 150.755C238.696 150.538 238.829 150.325 238.97 150.121C239.162 149.841 239.374 149.575 239.604 149.324C240.875 147.924 242.524 146.936 243.995 145.749C244.535 145.265 245.121 144.834 245.744 144.462C246.559 144.053 247.452 143.825 248.364 143.795C249.87 143.71 251.377 143.947 252.785 144.489C254.814 145.269 256.586 146.67 258.685 147.237C259.204 147.349 259.715 147.49 260.217 147.66C260.699 147.85 261.135 148.139 261.498 148.509C261.861 148.878 262.143 149.318 262.325 149.803C262.507 150.287 262.586 150.804 262.556 151.321C262.527 151.837 262.389 152.342 262.153 152.802L262.139 152.812Z" fill="#444053"/>
<g opacity="0.1">
<path opacity="0.1" d="M228.344 182.682C228.587 182.056 228.691 181.384 228.648 180.714C228.575 180.954 228.437 181.17 228.25 181.337C228.063 181.504 227.833 181.616 227.586 181.661C227.459 181.692 227.33 181.711 227.199 181.718C227.033 182.252 226.769 182.765 226.258 182.932C226.75 183.032 227.255 183.041 227.75 182.959C227.964 182.907 228.166 182.812 228.344 182.682Z" fill="black"/>
<path opacity="0.1" d="M262.38 150.155C262.355 150.682 262.218 151.198 261.979 151.669C261.853 151.935 261.66 152.165 261.418 152.335C260.661 152.829 259.566 152.289 258.772 152.726C258.138 153.076 257.954 153.909 257.437 154.43C256.84 155.047 255.905 155.143 255.054 155.247C254.203 155.35 253.252 155.58 252.802 156.294C252.468 156.837 252.498 157.521 252.378 158.148C252.376 158.214 252.359 158.278 252.33 158.337C252.301 158.396 252.259 158.448 252.209 158.49C252.158 158.532 252.099 158.562 252.036 158.58C251.972 158.597 251.906 158.601 251.841 158.591C250.172 158.708 248.957 158.131 247.396 157.728C246.662 157.541 245.807 157.564 245.247 158.061C244.739 158.521 244.599 159.265 244.613 159.952C244.682 160.633 244.703 161.319 244.673 162.003C244.561 162.74 244.204 163.419 243.659 163.928C243.114 164.438 242.413 164.749 241.669 164.811C241.561 164.827 241.451 164.821 241.345 164.794C241.239 164.767 241.139 164.719 241.052 164.654C240.955 164.549 240.886 164.422 240.848 164.284C239.737 161.163 239.744 157.698 238.395 154.673C238.181 154.241 237.994 153.795 237.835 153.339C237.75 153.056 237.697 152.764 237.678 152.469C237.486 152.491 237.311 152.588 237.191 152.739C237.003 153.059 236.906 153.425 236.91 153.796C236.755 156.468 236.867 159.149 237.244 161.8C237.003 159.569 236.948 157.323 237.081 155.083C237.073 154.712 237.17 154.345 237.361 154.026C237.419 153.95 237.493 153.887 237.576 153.841C237.66 153.794 237.753 153.765 237.848 153.756C237.866 154.051 237.918 154.343 238.002 154.626C238.161 155.083 238.35 155.528 238.566 155.96C239.9 158.988 239.9 162.45 241.015 165.571C241.054 165.709 241.125 165.836 241.222 165.941C241.306 166.012 241.404 166.065 241.51 166.096C241.616 166.128 241.727 166.138 241.836 166.125C242.578 166.059 243.277 165.748 243.821 165.239C244.365 164.731 244.724 164.056 244.839 163.32C244.867 162.635 244.845 161.948 244.776 161.266C244.776 160.579 244.906 159.835 245.413 159.375C245.974 158.868 246.828 158.848 247.559 159.042C249.121 159.442 250.329 160.019 252.004 159.902C252.152 159.908 252.296 159.861 252.411 159.769C252.485 159.68 252.53 159.573 252.542 159.459C252.665 158.832 252.628 158.148 252.965 157.608C253.419 156.877 254.367 156.664 255.218 156.557C256.069 156.451 257.007 156.361 257.604 155.744C258.108 155.22 258.288 154.39 258.939 154.036C259.73 153.599 260.824 154.143 261.585 153.649C261.828 153.475 262.02 153.239 262.143 152.966C262.581 152.094 262.666 151.087 262.38 150.155V150.155Z" fill="black"/>
<path opacity="0.1" d="M238.699 169.326C238.662 170.468 238.391 171.591 237.901 172.624C236.029 176.936 232.465 180.217 228.744 183.142C228.587 184.015 228.184 184.824 227.583 185.476C231.761 182.288 235.973 178.757 238.062 173.935C238.553 172.902 238.825 171.779 238.863 170.637C238.854 170.149 238.797 169.663 238.692 169.186C238.696 169.219 238.699 169.273 238.699 169.326Z" fill="black"/>
</g>
<path opacity="0.1" d="M239.116 150.118C238.816 151.499 238.402 153.293 238.092 154.216C238.054 154.024 238.027 153.829 238.012 153.633C237.875 153.653 237.745 153.706 237.635 153.79C237.635 152.819 237.751 151.375 237.851 150.295C238.027 150.269 238.206 150.299 238.363 150.382C238.52 150.464 238.647 150.593 238.726 150.752C238.833 150.538 238.976 150.325 239.116 150.118Z" fill="black"/>
<path d="M238.956 150.118C238.656 151.499 238.242 153.293 237.931 154.216C237.892 154.024 237.865 153.829 237.851 153.633C237.713 153.652 237.583 153.706 237.471 153.79C237.471 152.819 237.588 151.375 237.691 150.295C237.866 150.269 238.044 150.3 238.201 150.382C238.357 150.464 238.484 150.593 238.562 150.752C238.682 150.538 238.832 150.325 238.956 150.118Z" fill="#67647E"/>
<rect x="-4" y="31" width="397" height="85" fill="#B5B1FF"/>
<defs>
<linearGradient id="paint0_linear" x1="16968.4" y1="50342.1" x2="41525.9" y2="50342.1" gradientUnits="userSpaceOnUse">
<stop stop-color="#808080" stop-opacity="0.25"/>
<stop offset="0.54" stop-color="#808080" stop-opacity="0.12"/>
<stop offset="1" stop-color="#808080" stop-opacity="0.1"/>
</linearGradient>
<linearGradient id="paint1_linear" x1="-75897.6" y1="32053.6" x2="-75897.6" y2="17478.7" gradientUnits="userSpaceOnUse">
<stop stop-color="#808080" stop-opacity="0.25"/>
<stop offset="0.54" stop-color="#808080" stop-opacity="0.12"/>
<stop offset="1" stop-color="#808080" stop-opacity="0.1"/>
</linearGradient>
</defs>
</svg>
