<svg width="215" height="231" viewBox="0 0 215 231" fill="none" xmlns="http://www.w3.org/2000/svg">
<path opacity="0.1" d="M124.846 36.0297C111.084 35.5526 97.9772 31.1118 85.4681 26.257C72.9591 21.4023 60.5477 16.0158 47.1159 13.4289C38.4757 11.7733 28.5966 11.5376 21.635 16.1681C14.9378 20.6262 12.7706 28.3208 11.6093 35.4606C10.747 40.8328 10.2181 46.4866 12.6182 51.5138C14.2825 55.0061 17.2401 57.9408 19.2838 61.2865C26.4006 72.9218 21.3706 87.2705 13.6587 98.6327C10.0428 103.962 5.84628 109.046 3.05531 114.729C0.264332 120.411 -1.02911 126.902 1.41407 132.691C3.83425 138.439 9.60304 142.734 15.8518 145.766C28.5449 151.92 43.5 153.682 58.0844 154.676C90.3689 156.884 122.823 155.93 155.194 154.964C167.171 154.607 179.203 154.248 190.988 152.397C197.533 151.368 204.29 149.735 209.041 145.786C215.077 140.782 216.566 132.311 212.525 126.037C205.745 115.514 187.004 112.898 182.264 101.605C179.657 95.3876 182.336 88.4633 186.124 82.7003C194.256 70.3406 207.883 59.4814 208.602 45.334C209.096 35.6273 202.543 25.9035 192.413 21.3074C181.796 16.4929 167.07 17.0994 159.238 25.0699C151.172 33.2963 136.996 36.4523 124.846 36.0297Z" fill="#6C63FF"/>
<path opacity="0.1" d="M97.5117 230.36C145.765 230.36 184.883 225.069 184.883 218.541C184.883 212.014 145.765 206.722 97.5117 206.722C49.258 206.722 10.1406 212.014 10.1406 218.541C10.1406 225.069 49.258 230.36 97.5117 230.36Z" fill="#6C63FF"/>
<path d="M139.075 60.246C139.075 60.246 136.37 54.9083 136.735 53.3217C137.1 51.7351 134.833 48.3462 134.833 48.3462L134.979 42.724C134.979 42.724 134.666 43.2989 133.033 43.8019C132.895 43.6208 132.746 43.4426 132.591 43.273C131.999 42.6573 131.342 42.1088 130.63 41.6375L127.756 35.4347L124.976 31.1778C124.976 31.1778 120.593 22.2674 116.066 20.3014L115.353 18.9073C115.377 18.8935 115.394 18.8713 115.402 18.8453C115.41 18.8192 115.408 18.7911 115.396 18.7665L114.672 17.3494C114.659 17.3249 114.638 17.3061 114.612 17.2965C114.585 17.287 114.557 17.2874 114.531 17.2977L113.838 15.941C113.574 14.1828 112.883 12.5161 111.826 11.0863C111.755 10.9857 111.677 10.8937 111.602 10.7988L112.729 10.7586C113.718 10.7212 114.821 10.635 115.485 9.89629C115.723 9.62096 115.899 9.29737 116 8.94776C116.085 8.67379 116.141 8.39145 116.167 8.10559C116.167 8.06247 116.167 8.01935 116.167 7.97911C116.167 7.88139 116.167 7.78558 116.167 7.69168C116.167 7.61407 116.167 7.53934 116.167 7.46173C116.167 7.38413 116.167 7.33814 116.167 7.27778C116.167 7.21742 116.135 7.07945 116.118 6.99034C116.118 6.95298 116.118 6.91561 116.095 6.87824C116.071 6.76565 116.041 6.65436 116.006 6.54482C115.997 6.52334 115.991 6.50124 115.986 6.47871C115.945 6.36374 115.902 6.24877 115.853 6.13667C115.845 6.12189 115.839 6.10651 115.833 6.09068C115.781 5.97858 115.724 5.86936 115.664 5.763L115.646 5.72851C115.625 5.6839 115.601 5.6407 115.575 5.59917C114.796 4.3747 113.427 3.65899 112.125 3.01227C110.91 2.37345 109.663 1.79782 108.389 1.28767C103.65 -0.489362 98.4161 -0.415468 93.7296 1.49462C93.2668 1.66989 92.8282 1.90365 92.4247 2.19021C91.8622 2.66634 91.3815 3.23145 91.0019 3.86307L88.7743 7.15418C88.463 7.55453 88.2193 8.0031 88.0528 8.48212C87.636 10.0458 88.9439 11.6123 88.7973 13.2248C88.7225 14.0267 88.2914 14.7625 88.208 15.5645C88.1017 16.5992 88.5817 17.5966 89.0502 18.5308L92.2378 24.8543C92.0683 25.685 91.8814 26.5358 91.6773 27.3579C90.2086 28.8755 89.7142 29.7033 89.5791 30.1517L89.536 30.1747C89.2451 30.3626 88.9948 30.6069 88.8001 30.8933L85.7706 33.8366C85.7706 33.8366 80.5048 35.2048 79.4097 36.938C79.4097 36.938 71.146 36.5758 71.2178 48.1163C71.2178 48.1163 70.8528 52.445 70.643 53.0228C70.4332 53.6005 70.643 59.4411 70.643 59.4411L70.5453 71.2719C70.5453 71.2719 70.2291 77.5466 70.5453 79.7828C70.8614 82.019 71.2265 90.5299 71.2265 90.5299C71.2265 90.5299 73.2011 98.8252 72.4711 101.783C71.7697 104.614 72.4711 110.805 73.6208 110.831C73.8392 111.283 74.0893 111.504 74.3624 111.377C74.4812 111.326 74.6031 111.282 74.7274 111.245V118.313C74.7274 118.313 73.3046 128.215 74.8999 130.098C73.8421 131.604 72.6004 134.174 72.2842 134.849L61.1031 134.249L59.6803 134.648L58.3753 135.013L57.5849 153.199L57.9011 153.222L57.8781 153.777L58.6254 153.831L57.5849 172.147L73.0632 173.42C72.382 174.946 71.5915 176.582 71.284 176.74C70.7091 177.027 69.4559 176.165 69.1627 176.521C68.8695 176.878 67.9928 177.315 66.9696 177.096C65.9463 176.878 65.2881 178.033 65.2881 178.033C65.2881 178.033 65.4376 178.165 65.6618 178.41C64.0004 178.209 61.8993 179.1 60.7582 179.674C60.2465 179.933 59.9275 180.126 59.9275 180.126H56.9094L58.5679 190.706L59.7378 191.505L60.0252 199.841C60.0252 199.841 64.7046 214.267 66.8489 214.172C66.9881 214.167 67.1246 214.132 67.2491 214.07C67.3736 214.007 67.4832 213.919 67.5703 213.81C68.7201 212.482 67.9239 207.92 67.9239 207.92V200.326C67.9239 200.326 69.6772 199.556 69.4818 198.978C69.2863 198.401 72.3101 192.08 72.5803 191.505C72.588 191.5 72.5943 191.494 72.5983 191.485C72.6024 191.477 72.6041 191.468 72.6033 191.459C72.6033 190.81 73.9197 190.088 73.845 189.801C73.7703 189.513 77.0642 187.708 77.2942 186.122C77.5241 184.535 79.7057 185.4 79.7057 185.4L82.4824 182.21C82.5657 186.099 82.7238 188.821 82.9969 189.51C84.3133 192.83 84.8249 198.024 84.8249 198.024C84.8249 198.024 84.0201 201.991 84.8249 203.29C85.3193 204.083 86.469 204.934 87.2681 205.638C86.4374 208.156 86.5553 213.508 86.5553 213.508V216.584L92.6977 218.308C92.6977 218.308 92.8903 216.771 93.1835 216.771C93.4767 216.771 97.3771 219.751 97.3771 219.751C97.3771 219.751 112.393 219.944 116.193 219.751C117.63 219.679 118.021 219.061 117.799 218.314C117.434 217.069 115.385 215.457 113.563 215.333C110.636 215.141 106.931 212.065 106.931 212.065C106.931 212.065 107.219 211.39 105.664 210.43C104.589 209.769 101.614 207.093 99.7743 205.526C99.8606 205.408 99.9497 205.29 100.033 205.164C100.033 205.164 97.5467 201.715 98.0612 200.186C98.5757 198.657 97.8399 196.449 97.8399 196.449C97.8399 196.449 96.4516 192.192 96.4516 190.028C96.4516 188.657 96.2447 180.859 96.0952 175.328L97.3771 175.435L97.403 174.883L97.9779 174.935L103.413 175.435L103.247 169.626C105.865 168.476 108.044 167.41 108.946 166.728C112.016 164.429 114.649 164.277 114.649 164.277C114.649 164.277 120.863 160.96 121.815 159.589C122.766 158.218 122.677 148.264 122.677 148.264L122.165 126.93V126.913C122.165 126.913 121.728 116.6 120.849 114.364C120.527 113.536 119.731 110.777 118.86 107.626C119.36 107.575 119.866 107.596 120.36 107.69C120.392 108.46 120.412 108.989 120.412 109.17C120.412 110.394 122.165 111.435 122.165 111.435L120.924 83.8413V65.0691C124.752 66.2878 134.011 66.6672 134.011 66.6672C140.682 66.3165 139.075 60.246 139.075 60.246ZM102.962 36.5385H102.942C103.078 35.815 103.255 35.1001 103.474 34.3971L102.962 36.5385ZM77.8346 131.182C80.1024 131.555 82.7209 131.446 82.9193 131.006C82.9394 130.963 82.9652 130.886 82.9997 130.785C83.0716 130.911 83.1406 131.041 83.2124 131.173L82.9911 135.335V135.43L75.5179 135.027C76.041 132.8 77.0298 131.713 77.8346 131.182ZM102.746 152.181L102.554 145.441C102.887 144.199 103.186 143.073 103.442 142.107C103.557 142.909 103.655 143.648 103.729 144.329C104.437 150.724 103.393 151.972 102.746 152.181ZM124.016 51.1257C123.588 51.2895 121.958 50.2634 120.412 49.1999C120.412 49.0044 120.426 48.8119 120.435 48.625C120.653 44.2244 113.488 41.4852 111.295 40.9793C110.762 40.842 110.246 40.6493 109.754 40.4044C108.586 39.8257 107.449 39.1838 106.351 38.4815L106.38 38.3982C106.38 38.3982 103.551 36.6075 103.491 34.3741C104.135 32.3427 104.949 30.3688 105.923 28.4731C105.977 28.361 106.038 28.2431 106.095 28.1311C107.432 27.7153 108.679 27.0545 109.774 26.1823C110.214 31.9309 118.532 36.8776 118.532 36.8776L119.42 38.3148L119.63 38.654C119.182 38.9184 118.966 39.1311 119.119 39.2547C119.751 39.7606 121.28 42.6234 121.912 43.8335C122.085 44.1612 122.2 44.3653 122.2 44.3653C122.2 44.3653 123.559 48.0645 124.338 51.1602C124.235 51.117 124.121 51.105 124.011 51.1257H124.016Z" fill="url(#paint0_linear)"/>
<path d="M127.23 36.2166L127.132 36.346L126.799 36.7915L120.403 41.3099L119.047 39.0795L118.184 37.6423C118.184 37.6423 105.437 29.9966 110.918 22.6268C116.399 15.257 124.499 31.9684 124.499 31.9684L127.23 36.2166Z" fill="#FFC5D3"/>
<path d="M114.367 18.2124C114.34 18.1586 114.274 18.1369 114.221 18.164C114.167 18.1911 114.145 18.2568 114.172 18.3107L114.883 19.7226C114.91 19.7765 114.976 19.7982 115.03 19.7711C115.084 19.7439 115.105 19.6783 115.078 19.6244L114.367 18.2124Z" fill="#3A3768"/>
<path d="M107.069 20.1865L107.067 20.1878C107.037 20.2028 107.025 20.2391 107.04 20.2689L107.252 20.6899C107.267 20.7197 107.303 20.7317 107.333 20.7167L107.335 20.7154C107.365 20.7004 107.377 20.6641 107.362 20.6343L107.15 20.2133C107.135 20.1835 107.099 20.1715 107.069 20.1865Z" fill="#3A3768"/>
<path d="M107.65 21.1834C107.632 21.1494 107.591 21.1357 107.557 21.1528C107.523 21.1699 107.509 21.2114 107.526 21.2454L107.928 22.0438C107.946 22.0779 107.987 22.0916 108.021 22.0744C108.055 22.0573 108.069 22.0158 108.052 21.9818L107.65 21.1834Z" fill="#3A3768"/>
<path d="M108.27 22.4262C108.253 22.3936 108.213 22.3805 108.181 22.3969C108.148 22.4133 108.135 22.4531 108.152 22.4857L108.56 23.2969C108.577 23.3295 108.616 23.3426 108.649 23.3262C108.682 23.3098 108.695 23.27 108.678 23.2374L108.27 22.4262Z" fill="#3A3768"/>
<path d="M112.137 15.44L106.766 18.1446C106.449 18.3045 106.321 18.6917 106.481 19.0092L112.575 31.1109C112.735 31.4285 113.123 31.5563 113.44 31.3963L118.811 28.6917C119.128 28.5318 119.256 28.1447 119.096 27.8271L113.002 15.7254C112.842 15.4079 112.455 15.2801 112.137 15.44Z" fill="#3A3768"/>
<path d="M111.45 16.2084C111.419 16.2236 111.392 16.2448 111.369 16.2708C111.347 16.2968 111.33 16.327 111.319 16.3596C111.308 16.3922 111.304 16.4267 111.307 16.4609C111.31 16.4952 111.319 16.5285 111.335 16.559L111.358 16.6079C111.374 16.6386 111.383 16.6722 111.386 16.7067C111.389 16.7411 111.385 16.7758 111.374 16.8087C111.363 16.8415 111.346 16.872 111.324 16.8982C111.301 16.9244 111.274 16.9459 111.243 16.9615L108.478 18.3526C108.447 18.3684 108.414 18.378 108.38 18.3807C108.345 18.3835 108.311 18.3794 108.278 18.3687C108.246 18.358 108.216 18.3409 108.19 18.3184C108.164 18.2959 108.142 18.2684 108.127 18.2377L108.101 18.1888C108.086 18.158 108.065 18.1306 108.039 18.108C108.013 18.0854 107.983 18.0682 107.95 18.0572C107.918 18.0463 107.883 18.0419 107.849 18.0442C107.815 18.0466 107.781 18.0557 107.751 18.0709L107.213 18.344C107.154 18.373 107.102 18.4134 107.059 18.463C107.015 18.5125 106.983 18.5701 106.962 18.6325C106.941 18.6948 106.933 18.7606 106.939 18.8261C106.944 18.8915 106.962 18.9553 106.992 19.0137L112.867 30.6749C112.927 30.793 113.032 30.8825 113.158 30.9239C113.284 30.9654 113.421 30.9554 113.539 30.8962L118.363 28.4674C118.481 28.4071 118.57 28.3026 118.612 28.1766C118.653 28.0507 118.643 27.9135 118.584 27.7948L112.706 16.1279C112.676 16.0692 112.635 16.0168 112.586 15.9739C112.536 15.931 112.478 15.8983 112.416 15.8777C112.353 15.8572 112.287 15.8491 112.222 15.8541C112.156 15.859 112.092 15.8769 112.033 15.9066L111.45 16.2084Z" fill="#6C63FF"/>
<path d="M109.843 17.0915L109.116 17.4574C109.065 17.4831 109.045 17.5453 109.07 17.5963C109.096 17.6474 109.158 17.6679 109.209 17.6422L109.936 17.2763C109.987 17.2506 110.008 17.1884 109.982 17.1374C109.956 17.0863 109.894 17.0658 109.843 17.0915Z" fill="#E6E8EC"/>
<path d="M110.219 17.1252C110.284 17.1252 110.337 17.0725 110.337 17.0074C110.337 16.9423 110.284 16.8895 110.219 16.8895C110.154 16.8895 110.102 16.9423 110.102 17.0074C110.102 17.0725 110.154 17.1252 110.219 17.1252Z" fill="#E6E8EC"/>
<path d="M115.589 60.9358L113.792 109.144C113.792 109.144 119.828 107.132 120.762 108.641C121.697 110.15 119.756 84.4967 119.756 84.4967L115.589 60.9358Z" fill="#5F5570"/>
<path opacity="0.15" d="M115.589 60.9358L113.792 109.144C113.792 109.144 119.828 107.132 120.762 108.641C121.697 110.15 119.756 84.4967 119.756 84.4967L115.589 60.9358Z" fill="black"/>
<path d="M115.876 219.837C112.14 220.03 97.3858 219.837 97.3858 219.837C97.3858 219.837 93.5514 216.868 93.264 216.868C92.9765 216.868 92.7868 218.4 92.7868 218.4L86.7508 216.676V213.612C86.7508 213.612 86.5582 204.888 88.3776 204.509C90.1971 204.129 98.2481 204.509 98.2481 204.509C98.5355 204.414 103.997 209.588 105.529 210.545C107.061 211.502 106.773 212.175 106.773 212.175C106.773 212.175 110.415 215.239 113.289 215.431C115.08 215.552 117.095 217.156 117.454 218.4C117.673 219.151 117.285 219.766 115.876 219.837Z" fill="#BC8487"/>
<path opacity="0.1" d="M115.876 219.837C112.14 220.03 97.3858 219.837 97.3858 219.837C97.3858 219.837 93.5514 216.868 93.264 216.868C92.9765 216.868 92.7868 218.4 92.7868 218.4L86.7507 216.676V213.672L92.4017 215.719L96.9058 218.4H117.454C117.673 219.15 117.285 219.766 115.876 219.837Z" fill="black"/>
<g opacity="0.1">
<path d="M99.0986 215.336C99.0986 215.336 103.698 210.93 106.773 212.174L99.0986 215.336Z" fill="black"/>
<path d="M99.0986 215.336C99.0986 215.336 103.698 210.93 106.773 212.174" stroke="black" stroke-miterlimit="10"/>
</g>
<path d="M69.9817 199.142C70.1743 199.717 68.4497 200.485 68.4497 200.485V208.053C68.4497 208.053 69.2315 212.597 68.1019 213.922C68.0171 214.03 67.9099 214.117 67.7878 214.18C67.6657 214.242 67.5316 214.276 67.3948 214.281C65.2879 214.376 60.689 200.005 60.689 200.005L60.4015 191.701L59.2518 190.905L57.6221 180.364H60.5941C60.5941 180.364 60.9074 180.172 61.4104 179.913C62.8476 179.18 65.857 177.901 67.4925 179.12L73.0486 191.637C73.0486 191.637 69.792 198.567 69.9817 199.142Z" fill="#BC8487"/>
<path opacity="0.1" d="M68.1019 213.922C68.0171 214.03 67.9099 214.117 67.7878 214.179C67.6657 214.241 67.5316 214.276 67.3948 214.281C65.2879 214.376 60.689 200.005 60.689 200.005L60.4015 191.701L59.2518 190.904L57.6221 180.364H60.5941C60.5941 180.364 60.9074 180.172 61.4104 179.913L62.1261 190.712L62.5084 200.005C62.5084 200.005 66.1186 210.122 68.1019 213.922Z" fill="black"/>
<path d="M121.409 159.885C120.475 161.25 114.367 164.555 114.367 164.555C114.367 164.555 111.78 164.699 108.762 166.999C107.201 168.189 101.778 170.548 96.9056 172.552C92.3555 174.423 88.2826 175.981 88.2826 175.981L83.5917 181.442L80.0189 185.601C80.0189 185.601 77.8631 184.739 77.6476 186.32C77.432 187.901 74.1984 189.697 74.2702 189.985C74.3421 190.272 73.0486 190.991 73.0486 191.637C73.0486 192.284 68.2341 186.967 68.306 183.733C68.3778 180.499 65.8628 178.272 65.8628 178.272C65.8628 178.272 66.5095 177.122 67.5155 177.338C68.5216 177.553 69.3838 177.122 69.6713 176.763C69.9587 176.403 71.1803 177.266 71.7552 176.978C72.33 176.691 74.6295 171.014 74.6295 171.014L83.5888 165.004L101.41 153.058L102.232 152.506C102.232 152.506 104.603 153.593 103.64 144.691C103.453 142.966 103.14 140.871 102.663 138.319C99.7167 122.582 110.28 120.785 110.28 120.785L119.55 123.875L121.777 127.324V127.342L122.28 148.594C122.28 148.594 122.343 158.519 121.409 159.885Z" fill="#433A59"/>
<path opacity="0.1" d="M96.8338 169.945C96.8338 169.945 96.8625 170.965 96.9056 172.552C92.3556 174.423 88.2826 175.981 88.2826 175.981L83.5917 181.442C83.5141 176.915 83.5314 171.034 83.5917 165.007L101.413 153.061C99.208 161.233 96.8338 169.945 96.8338 169.945Z" fill="black"/>
<path opacity="0.1" d="M121.769 127.333V127.35L107.828 127.62C107.828 127.62 105.385 137.178 105.026 139.19C104.937 139.684 104.396 141.797 103.632 144.7C103.445 142.975 103.131 140.88 102.654 138.327C99.7081 122.59 110.271 120.794 110.271 120.794L119.541 123.884L121.769 127.333Z" fill="black"/>
<path d="M85.0491 101.248L83.2526 135.74C83.2526 135.74 81.9592 186.4 83.2526 189.706C84.5461 193.011 85.0491 198.185 85.0491 198.185C85.0491 198.185 84.2586 202.137 85.0491 203.431C85.8395 204.724 88.3545 206.161 88.2827 206.88C88.2108 207.599 95.9715 211.479 99.9956 205.299C99.9956 205.299 97.5524 201.85 98.0554 200.341C98.5584 198.832 97.8398 196.604 97.8398 196.604C97.8398 196.604 96.4745 192.365 96.4745 190.2C96.4745 188.036 95.9715 169.936 95.9715 169.936C95.9715 169.936 103.804 141.193 104.163 139.181C104.523 137.169 106.966 127.612 106.966 127.612L121.769 127.324C121.769 127.324 121.338 117.049 120.475 114.821C119.613 112.593 115.373 96.2815 115.373 96.2815L85.0491 101.248Z" fill="#433A59"/>
<path d="M60.3441 135.062L59.0593 135.43L59.0076 136.7L97.5294 137.198V136.698L60.3441 135.062Z" fill="#7B728F"/>
<path d="M105.781 29.2809C100.177 40.6488 103.657 43.0259 104.212 43.3191C103.025 42.7672 87.5956 35.5182 89.6248 33.6786C90.9442 32.48 92.0738 27.2659 92.7377 23.5293C93.1315 21.2988 93.3615 19.5944 93.3615 19.5944L109.553 22.5635C107.983 25.093 106.736 27.3206 105.781 29.2809Z" fill="#FFC5D3"/>
<path opacity="0.1" d="M127.144 36.346L126.81 36.7915L120.403 41.31L119.047 39.0795C121.021 37.9298 126.942 35.9177 126.942 35.9177L127.144 36.346Z" fill="black"/>
<path d="M133.05 46.7078C132.475 48.7199 122.775 46.7078 122.775 46.7078L121.769 45.127C121.769 45.127 121.668 44.9258 121.498 44.5981C120.878 43.3937 119.374 40.5424 118.753 40.0365C117.963 39.3898 127.233 36.228 127.233 36.228L130.073 42.4078C130.773 42.8785 131.418 43.425 131.998 44.0376C132.717 44.8165 133.312 45.7909 133.05 46.7078Z" fill="#E5E8EF"/>
<path d="M116.954 47.6334C116.954 47.6334 122.703 52.1691 123.565 51.8414C124.427 51.5138 138.368 60.9272 138.368 60.9272C138.368 60.9272 139.949 66.9633 133.41 67.3226C133.41 67.3226 119.541 66.7477 118.966 64.7357C118.391 62.7237 116.954 47.6334 116.954 47.6334Z" fill="#5F5570"/>
<path opacity="0.1" d="M101.289 38.5161L95.0374 44.9833L103.804 100.745L107.253 98.7333C107.253 98.7333 116.164 102.686 116.882 99.0207C117.601 95.356 117.403 80.9125 117.403 80.9125L116.236 54.8193C116.236 54.8193 112.14 45.6933 112.14 45.4058C112.14 45.1184 106.233 40.6632 106.233 40.6632L103.445 38.5074L101.289 38.5161Z" fill="black"/>
<path d="M101.289 37.6538L95.0374 44.121L103.804 99.883L107.253 97.871C107.253 97.871 116.164 101.823 116.882 98.1584C117.601 94.4937 117.403 80.0502 117.403 80.0502L116.236 53.957C116.236 53.957 112.14 44.831 112.14 44.5435C112.14 44.2561 106.233 39.8009 106.233 39.8009L103.445 37.6451L101.289 37.6538Z" fill="#E5E8EF"/>
<path opacity="0.1" d="M101.648 38.5879L99.9236 42.1089L101.648 43.9284C101.648 43.9284 107.828 56.4087 106.606 63.8101L107.9 88.1701L112.068 92.266L115.373 88.4489L113.792 66.3165C113.792 66.3165 109.553 48.0645 105.097 42.3877L103.804 37.3577L101.648 38.5879Z" fill="black"/>
<path d="M101.648 38.0131L99.9236 41.5341L101.648 43.3536C101.648 43.3536 107.828 55.8339 106.606 63.2353L107.9 87.5953L112.068 91.6912L115.373 87.8741L113.792 65.7417C113.792 65.7417 109.553 47.4897 105.097 41.8129L103.804 36.7828L101.648 38.0131Z" fill="#BC8487"/>
<path opacity="0.1" d="M109.553 22.5635C107.983 25.0929 106.747 27.3205 105.782 29.2808C104.764 29.5808 103.709 29.7328 102.648 29.7321C99.0958 29.7321 97.0493 27.2745 95.0373 24.6646C94.5774 24.0725 93.0655 24.2105 92.7378 23.5149C93.1316 21.2844 93.3615 19.58 93.3615 19.58L109.553 22.5635Z" fill="black"/>
<path d="M113.666 18.4244C113.666 21.0483 112.729 23.586 111.025 25.5808C109.32 27.5756 106.96 28.8967 104.368 29.3061C101.776 29.7156 99.1235 29.1867 96.8871 27.8145C94.6506 26.4423 92.9773 24.317 92.1682 21.821C91.3591 19.325 91.4674 16.6222 92.4736 14.1989C93.4798 11.7756 95.3179 9.79101 97.657 8.6022C99.9961 7.41338 102.683 7.09842 105.233 7.71398C107.784 8.32954 110.031 9.83521 111.571 11.96C112.933 13.8402 113.666 16.1027 113.666 18.4244Z" fill="#FFC5D3"/>
<path opacity="0.1" d="M99.1332 42.9712L90.0791 32.0487C90.0791 32.0487 89.2426 31.7124 92.0681 28.7548C92.0681 28.7548 102.444 36.8431 103.088 38.2171C103.732 39.591 99.1332 42.9712 99.1332 42.9712Z" fill="black"/>
<path d="M98.8458 42.3964L89.7917 31.4739C89.7917 31.4739 88.9553 31.1376 91.7807 28.1799C91.7807 28.1799 102.157 36.2683 102.801 37.6422C103.445 39.0162 98.8458 42.3964 98.8458 42.3964Z" fill="#E5E8EF"/>
<path d="M121.769 111.912C121.769 111.912 120.044 110.877 120.044 109.656C120.044 108.434 119.182 91.1882 119.182 91.1882C119.182 91.1882 117.917 80.8952 116.595 72.7149C115.819 67.8946 115.023 63.8045 114.459 62.9939L114.436 62.9594C112.927 61.0192 113.215 51.5339 103.801 37.6653C103.928 37.7515 107.173 40.028 109.55 41.172C110.034 41.4151 110.541 41.6078 111.065 41.7468C113.22 42.2498 120.263 44.9805 120.047 49.3638C119.831 53.7472 120.55 63.8073 120.55 63.8073V84.4249L121.769 111.912Z" fill="#5F5570"/>
<path d="M121.769 45.127C121.769 45.127 124.787 53.4625 124.355 55.5464C123.924 57.6303 131.326 65.8222 131.326 65.8222L138.368 60.9358C138.368 60.9358 135.709 55.6183 136.068 54.0374C136.428 52.4565 134.2 49.0792 134.2 49.0792L134.344 43.48C134.344 43.48 133.05 45.9088 121.769 45.127Z" fill="#5F5570"/>
<path opacity="0.1" d="M111.571 11.9601L106.109 12.1671C105.576 12.1636 105.044 12.2303 104.528 12.3654C102.577 12.9661 101.677 15.0414 101.605 16.9068C101.533 18.7723 100.455 20.8619 98.3659 21.0258C98.1579 21.0611 97.9443 21.0136 97.7709 20.8935C97.6383 20.7525 97.5503 20.5756 97.5179 20.3848C97.2182 19.2978 96.7549 18.2627 96.144 17.315C95.2817 17.4702 94.6436 18.2894 94.4194 19.1459C94.1952 20.0025 94.2556 20.905 94.2584 21.7932C94.261 22.9212 94.1522 24.0467 93.9336 25.1533C93.0426 23.9966 92.3903 22.6743 92.0148 21.2632C91.6393 19.8522 91.5481 18.3806 91.7463 16.934C91.9446 15.4874 92.4284 14.0946 93.1697 12.8366C93.911 11.5787 94.8949 10.4806 96.0643 9.60624C97.2337 8.7319 98.5653 8.09872 99.9816 7.74354C101.398 7.38835 102.871 7.31823 104.314 7.53725C105.758 7.75627 107.144 8.26007 108.391 9.01935C109.638 9.77864 110.722 10.7783 111.579 11.9601H111.571Z" fill="black"/>
<path d="M104.244 12.0779C104.76 11.9427 105.291 11.8761 105.825 11.8795L112.456 11.6324C113.427 11.595 114.511 11.5088 115.163 10.7873C115.398 10.5118 115.57 10.1894 115.669 9.84165C115.84 9.28608 115.89 8.70046 115.816 8.12396C115.742 7.54746 115.546 6.99338 115.241 6.4988C114.474 5.27721 113.128 4.56725 111.846 3.9119C110.653 3.27448 109.428 2.69885 108.176 2.1873C103.524 0.420841 98.3743 0.494855 93.7755 2.39426C93.3211 2.56866 92.8904 2.79946 92.4936 3.08122C91.9393 3.55618 91.4673 4.11947 91.0967 4.74833L88.915 8.03657C88.614 8.43808 88.3819 8.88685 88.2281 9.36451C87.817 10.9253 89.0904 12.486 88.9581 14.0928C88.8834 14.8918 88.4609 15.6248 88.3833 16.4239C88.2798 17.4558 88.7512 18.4359 89.214 19.3758L93.0483 27.1106C93.6675 25.307 93.9813 23.4126 93.9767 21.5057C93.9767 20.6175 93.902 19.715 94.1377 18.8584C94.3734 18.0019 95 17.1827 95.8623 17.0275C96.4747 17.9747 96.939 19.0099 97.2391 20.0973C97.2708 20.2883 97.3589 20.4654 97.492 20.606C97.6654 20.7264 97.879 20.7739 98.087 20.7382C100.188 20.5744 101.249 18.5049 101.326 16.6193C101.404 14.7338 102.292 12.6786 104.244 12.0779Z" fill="#8F7080"/>
<path d="M59.0593 135.43L61.744 134.662L102.223 136.867L97.768 137.442L59.0593 135.43Z" fill="#7B728F"/>
<path opacity="0.1" d="M59.0593 135.43L61.744 134.662L102.223 136.867L97.768 137.442L59.0593 135.43Z" fill="black"/>
<path d="M103.324 175.671L97.9834 175.173L96.1094 175.001V145.297L96.6038 138.402L96.713 136.867H102.223L103.324 175.671Z" fill="#7B728F"/>
<path opacity="0.1" d="M101.864 174.616L97.604 174.144L96.1094 173.98V145.818L96.5032 139.282L96.5894 137.824H100.984L101.864 174.616Z" fill="black"/>
<path d="M72.6521 135.43C72.6521 135.43 75.3109 129.598 76.4261 129.417C77.5413 129.236 79.5879 129.417 79.5879 129.417L79.4068 131.107C79.4068 131.107 76.6762 131.322 75.8139 135.884L72.6521 135.43Z" fill="#7B728F"/>
<path opacity="0.1" d="M72.6521 135.43C72.6521 135.43 75.3109 129.598 76.4261 129.417C77.5413 129.236 79.5879 129.417 79.5879 129.417L79.4068 131.107C79.4068 131.107 76.6762 131.322 75.8139 135.884L72.6521 135.43Z" fill="black"/>
<path d="M82.9651 128.807C82.9651 128.807 90.1136 132.363 89.1794 136.531L85.2991 136.315C85.2991 136.315 83.4307 130.101 81.9591 129.776C80.4874 129.451 82.9651 128.807 82.9651 128.807Z" fill="#7B728F"/>
<path d="M109.553 72.5051V72.7149L109.409 96.6495C109.409 96.6495 105.744 116.77 104.738 117.56C103.732 118.351 81.6716 116.195 81.6716 116.195L71.6833 48.8637C71.6115 37.3664 79.7315 37.7257 79.7315 37.7257C80.8093 36.0011 85.9831 34.6357 85.9831 34.6357L88.8575 31.8333L88.9494 31.7039C89.1404 31.4192 89.3868 31.1758 89.6738 30.9882C90.2659 30.6462 90.6424 31.0974 90.858 31.543C90.955 31.7521 91.0302 31.9708 91.0822 32.1954C102.726 40.7351 109.553 72.5051 109.553 72.5051Z" fill="#5F5570"/>
<path opacity="0.1" d="M109.265 72.7924V73.0022C105.652 66.3912 91.7317 41.3443 87.9232 40.0968L89.3891 39.0908C89.3891 39.0908 90.3663 38.516 88.5699 37.9411C88.5699 37.9411 85.7674 38.3004 85.6956 34.923L88.6619 31.9912L89.3862 31.2755L90.5704 31.8303C90.6675 32.0394 90.7426 32.2581 90.7946 32.4827C102.439 41.0224 109.265 72.7924 109.265 72.7924Z" fill="black"/>
<path d="M109.553 72.505V72.7148C105.94 66.1039 92.0193 41.0569 88.2108 39.8095L89.6767 38.8035C89.6767 38.8035 90.6539 38.2286 88.8575 37.6537C88.8575 37.6537 86.055 38.013 85.9832 34.6357L88.9495 31.7039L89.6738 30.9882L90.858 31.5429C90.9551 31.7521 91.0302 31.9707 91.0822 32.1954C102.726 40.735 109.553 72.505 109.553 72.505Z" fill="#433A59"/>
<path opacity="0.1" d="M114.75 63.2698L114.727 63.2353C113.218 61.2951 113.505 51.8098 104.092 37.9412C104.218 38.0274 107.463 40.3039 109.84 41.4478L109.176 43.6381L110.613 44.4055L114.75 63.2698Z" fill="black"/>
<path d="M114.462 62.9823L114.439 62.9478C112.93 61.0076 113.217 51.5223 103.804 37.6537C103.93 37.7399 107.176 40.0164 109.553 41.1604L108.889 43.3506L110.326 44.1181L114.462 62.9823Z" fill="#433A59"/>
<path opacity="0.1" d="M103.39 35.4406L102.801 37.9297C102.801 37.9297 103.232 40.4218 105.816 40.6373L106.233 39.4502C106.233 39.4502 103.445 37.6624 103.39 35.4406Z" fill="black"/>
<path d="M103.39 35.1531L102.801 37.6422C102.801 37.6422 103.232 40.1343 105.816 40.3499L106.233 39.1628C106.233 39.1628 103.445 37.3749 103.39 35.1531Z" fill="#E5E8EF"/>
<path opacity="0.1" d="M99.6736 137.269L97.9834 175.173L96.1094 175.001V145.297L96.6038 138.402L99.6736 137.269Z" fill="black"/>
<path d="M59.4444 151.908L58.2947 172.411L97.3856 175.671L99.0987 137.269L59.4444 151.908Z" fill="#7B728F"/>
<path opacity="0.1" d="M58.582 154.113L59.3466 136.005L99.386 137.844L97.4804 156.987L58.582 154.113Z" fill="black"/>
<path d="M58.2947 153.538L59.0593 135.43L99.0987 137.269L97.193 156.412L58.2947 153.538Z" fill="#7B728F"/>
<path d="M79.9471 153.561H75.1326V159.166H79.9471V153.561Z" fill="#C3BBC8"/>
<path d="M75.8511 116.842L75.1326 118.782C75.1326 118.782 73.6235 129.417 75.4919 130.71C77.3602 132.004 82.8933 132.075 83.1807 131.429C83.4681 130.782 85.4802 123.453 85.4802 123.453C85.4802 123.453 87.2766 128.842 88.2108 128.411C89.1449 127.98 86.055 117.735 86.055 117.735L75.8511 116.842Z" fill="#FFC5D3"/>
<path opacity="0.1" d="M75.1326 108.793V119.069C75.1326 119.069 82.7495 120.506 86.055 118.023C86.055 118.023 82.9651 108.075 84.1149 105.56C85.2646 103.045 75.1326 108.793 75.1326 108.793Z" fill="black"/>
<path d="M75.1326 108.506V118.782C75.1326 118.782 82.7495 120.219 86.055 117.735C86.055 117.735 82.9651 107.787 84.1149 105.272C85.2646 102.757 75.1326 108.506 75.1326 108.506Z" fill="#E5E8EF"/>
<path opacity="0.1" d="M74.2703 48.3606L72.2583 49.4385C72.2583 49.4385 71.899 53.75 71.6834 54.3248C71.4679 54.8997 71.6834 60.7202 71.6834 60.7202L71.5857 72.505C71.5857 72.505 71.2753 78.7566 71.5857 80.9842C71.8961 83.2119 72.2439 91.6911 72.2439 91.6911C72.2439 91.6911 74.187 99.9548 73.4684 102.901C72.7498 105.847 73.5403 112.458 74.7619 111.883C75.9835 111.308 87.2652 109.081 87.8401 108.65C88.4149 108.219 88.1275 104.194 87.8401 103.691C87.5526 103.188 85.828 96.3619 85.9718 94.781C86.1155 93.2002 85.4687 79.3315 85.4687 79.3315C85.4687 79.3315 86.5466 64.5287 86.9778 61.0795C87.4089 57.6303 86.1155 47.4983 84.9657 47.3546C83.816 47.2109 80.4502 39.3783 74.2703 48.3606Z" fill="black"/>
<path d="M73.6954 47.7858L71.6834 48.8636C71.6834 48.8636 71.3241 53.1751 71.1085 53.75C70.8929 54.3249 71.1085 60.1454 71.1085 60.1454L71.0108 71.9301C71.0108 71.9301 70.7003 78.1818 71.0108 80.4094C71.3212 82.637 71.669 91.1163 71.669 91.1163C71.669 91.1163 73.612 99.38 72.8935 102.326C72.1749 105.272 72.9653 111.883 74.1869 111.308C75.4085 110.734 86.6903 108.506 87.2651 108.075C87.84 107.644 87.5525 103.62 87.2651 103.117C86.9777 102.614 85.2531 95.7871 85.3968 94.2062C85.5405 92.6253 84.8938 78.7567 84.8938 78.7567C84.8938 78.7567 85.9717 63.9539 86.4028 60.5047C86.834 57.0555 85.5405 46.9235 84.3908 46.7797C83.2411 46.636 79.8752 38.8035 73.6954 47.7858Z" fill="#5F5570"/>
<g opacity="0.1">
<path opacity="0.1" d="M95.4281 15.9496C94.5658 16.1048 93.9277 16.924 93.7035 17.7805C93.4793 18.6371 93.5397 19.5396 93.5426 20.4278C93.5481 22.3346 93.2353 24.2289 92.617 26.0327L88.7798 18.2979C88.7051 18.1456 88.6275 17.9875 88.5527 17.8294C88.7303 18.3617 88.9504 18.8788 89.211 19.3758L93.0482 27.1106C93.6664 25.3068 93.9793 23.4125 93.9737 21.5057C93.9737 20.6175 93.9019 19.715 94.1347 18.8584C94.3675 18.0019 94.997 17.1827 95.8593 17.0275C96.1376 17.4634 96.3864 17.9177 96.6037 18.387C96.3117 17.53 95.917 16.7116 95.4281 15.9496Z" fill="black"/>
<path opacity="0.1" d="M115.31 6.62244C115.478 7.32958 115.455 8.06899 115.241 8.76381C115.141 9.11171 114.967 9.43414 114.732 9.70947C114.08 10.4309 113.007 10.5172 112.024 10.5545L105.396 10.8017C104.862 10.7982 104.329 10.8649 103.812 11C101.864 11.6008 100.961 13.676 100.889 15.5415C100.817 17.4069 99.7396 19.4966 97.6499 19.6604C97.4419 19.6957 97.2284 19.6483 97.0549 19.5282C97.121 19.715 97.1843 19.9047 97.2389 20.1031C97.2684 20.2942 97.3557 20.4717 97.4889 20.6118C97.6624 20.7319 97.876 20.7793 98.0839 20.744C100.188 20.5802 101.246 18.5107 101.323 16.6251C101.401 14.7396 102.298 12.6844 104.247 12.0837C104.763 11.9485 105.296 11.8818 105.83 11.8853L112.458 11.6381C113.43 11.6008 114.514 11.5145 115.166 10.7931C115.401 10.5178 115.575 10.1953 115.675 9.84744C115.838 9.31349 115.889 8.7518 115.827 8.19709C115.764 7.64238 115.588 7.10645 115.31 6.62244Z" fill="black"/>
</g>
<path opacity="0.1" d="M104.517 124.513C104.517 124.513 107.006 123.22 107.966 123.292C108.926 123.363 117.546 134.326 117.546 134.326L104.517 124.513Z" fill="black"/>
<path opacity="0.1" d="M78.9842 50.3209C78.9842 50.3209 74.4341 52.264 74.5549 53.6063C74.6756 54.9486 78.9842 50.3209 78.9842 50.3209Z" fill="black"/>
<path opacity="0.1" d="M76.7681 56.6732C76.7681 56.6732 71.9938 62.7783 73.0487 62.9824C74.1036 63.1864 76.7681 56.6732 76.7681 56.6732Z" fill="black"/>
<path opacity="0.1" d="M92.7378 65.8221C92.7378 65.8221 93.1748 79.4752 89.6738 81.1998L92.7378 65.8221Z" fill="black"/>
<path opacity="0.1" d="M74.5432 102.277C74.5432 102.277 77.9119 100.363 78.6851 100.745C79.4583 101.128 74.5432 102.277 74.5432 102.277Z" fill="black"/>
<path opacity="0.1" d="M75.1326 104.925C75.1326 104.925 77.2596 105.077 78.2685 104.637C79.2774 104.197 75.1326 104.925 75.1326 104.925Z" fill="black"/>
<path opacity="0.1" d="M125.908 54.6497C125.908 54.6497 128.546 62.2293 130.067 62.2293L125.908 54.6497Z" fill="black"/>
<path opacity="0.1" d="M88.3862 199.815C88.3862 199.815 93.3358 198.473 94.0659 199.815C94.796 201.157 88.3862 199.815 88.3862 199.815Z" fill="black"/>
<path opacity="0.1" d="M72.6521 179.913C72.6521 179.913 71.419 181.801 73.0488 182.376C74.6785 182.951 72.6521 179.913 72.6521 179.913Z" fill="black"/>
<path opacity="0.1" d="M105.529 153.561C105.529 153.561 109.265 156.89 111.03 156.987C112.795 157.085 105.529 153.561 105.529 153.561Z" fill="black"/>
<path d="M45.2049 165.82C45.2049 166.547 45.1245 167.137 45.0238 167.137C44.9232 167.137 44.8428 166.562 44.8428 165.82C44.8428 165.079 44.9434 165.435 45.044 165.435C45.1446 165.435 45.2049 165.093 45.2049 165.82Z" fill="#FFD037"/>
<path d="M46.2138 166.688C45.5757 167.036 45.0181 167.246 44.9721 167.16C44.9261 167.073 45.4003 166.717 46.0384 166.369C46.6765 166.021 46.4265 166.274 46.4725 166.369C46.5185 166.464 46.8519 166.343 46.2138 166.688Z" fill="#FFD037"/>
<path d="M30.9944 165.82C30.9944 166.547 31.0777 167.137 31.1783 167.137C31.2789 167.137 31.3594 166.562 31.3594 165.82C31.3594 165.079 31.2588 165.435 31.1582 165.435C31.0576 165.435 30.9944 165.093 30.9944 165.82Z" fill="#FFD037"/>
<path d="M29.9912 166.688C30.6293 167.036 31.184 167.246 31.2329 167.16C31.2818 167.073 30.8017 166.717 30.1636 166.369C29.5255 166.021 29.7785 166.274 29.7296 166.369C29.6807 166.464 29.3502 166.343 29.9912 166.688Z" fill="#FFD037"/>
<defs>
<linearGradient id="paint0_linear" x1="98.0785" y1="219.837" x2="98.0785" y2="-2.9528e-05" gradientUnits="userSpaceOnUse">
<stop stop-color="#808080" stop-opacity="0.25"/>
<stop offset="0.54" stop-color="#808080" stop-opacity="0.12"/>
<stop offset="1" stop-color="#808080" stop-opacity="0.1"/>
</linearGradient>
</defs>
</svg>
