<svg width="375" height="184" viewBox="0 0 375 184" fill="none" xmlns="http://www.w3.org/2000/svg">
<g clip-path="url(#clip0)">
<path d="M134.35 94.4481L110.713 105.23L121.495 128.867L145.132 118.085L134.35 94.4481Z" fill="url(#paint0_linear)"/>
<path d="M133.878 95.7075L111.972 105.7L121.964 127.606L143.871 117.614L133.878 95.7075Z" fill="#69F0AE"/>
<path d="M202.571 128.608L172.545 142.304L173.5 144.4L203.527 130.703L202.571 128.608Z" fill="#E0E0E0"/>
<path d="M223.558 122.829L173.979 145.445L174.935 147.54L224.514 124.925L223.558 122.829Z" fill="#E0E0E0"/>
<path d="M221.498 127.567L175.411 148.589L176.367 150.685L222.454 129.662L221.498 127.567Z" fill="#E0E0E0"/>
<path d="M122.354 112.618L127.995 114.45L129.851 103.593L132.597 104.344L129.509 117.766L121.001 114.037L122.354 112.618Z" fill="url(#paint1_linear)"/>
<path d="M123.074 112.475L127.978 114.066L129.592 104.626L131.977 105.279L129.293 116.95L121.895 113.709L123.074 112.475Z" fill="white"/>
<path d="M239.659 132.301L218.033 151.522L201.214 120.285L239.659 110.675V132.301Z" fill="#BE7C5E"/>
<path d="M136.338 81.8406C136.338 81.8406 143.279 91.4512 184.393 89.0485L208.422 125.091L224.524 143.207C227.053 146.054 227.197 150.371 224.714 153.257C223.205 155.009 221.036 155.929 218.033 153.925C218.033 153.925 218.033 165.938 206.02 161.133C206.02 161.133 201.214 170.744 191.604 165.938C191.604 165.938 191.604 170.744 184.396 168.341C177.188 165.938 138.74 134.704 138.74 134.704L121.922 122.691L136.338 81.8406Z" fill="#FFEBC5"/>
<path d="M222.838 93.8564C222.838 93.8564 212.455 93.8564 202.189 89.1944C192.853 84.96 181.981 85.4993 173.366 91.0577C166.346 95.5885 160.262 103.09 160.377 115.48C160.377 115.48 169.72 125.091 179.598 105.87H186.806C186.806 105.87 193.747 129.899 213.237 127.491C232.728 125.084 237.266 122.686 237.266 122.686L222.838 93.8564Z" fill="#BE7C5E"/>
<path d="M159.757 141.301L158.977 140.521C156.87 138.414 153.453 138.414 151.346 140.521L145.762 146.106C143.655 148.213 143.655 151.629 145.762 153.736L146.542 154.516C148.649 156.623 152.065 156.623 154.172 154.516L159.757 148.932C161.864 146.824 161.864 143.408 159.757 141.301Z" fill="#BE7C5E"/>
<path d="M152.012 132.224L151.233 131.444C149.125 129.337 145.709 129.337 143.602 131.444L138.017 137.029C135.91 139.136 135.91 142.552 138.017 144.659L138.797 145.439C140.904 147.546 144.321 147.546 146.428 145.439L152.012 139.855C154.12 137.748 154.12 134.331 152.012 132.224Z" fill="#BE7C5E"/>
<path d="M170.568 147.306L169.788 146.526C167.681 144.419 164.264 144.419 162.157 146.526L155.372 153.312C153.265 155.419 153.265 158.835 155.372 160.942L156.152 161.722C158.259 163.829 161.675 163.829 163.782 161.722L170.568 154.937C172.675 152.83 172.675 149.413 170.568 147.306Z" fill="#BE7C5E"/>
<path d="M176.258 155.666L175.713 155.122C174.242 153.65 171.856 153.65 170.385 155.122L166.102 159.404C164.631 160.876 164.631 163.261 166.102 164.733L166.647 165.277C168.118 166.749 170.504 166.749 171.975 165.277L176.258 160.995C177.729 159.523 177.729 157.138 176.258 155.666Z" fill="#BE7C5E"/>
<path d="M263.686 137.106L242.062 146.717L220.436 93.8562L239.659 86.6482L263.686 137.106Z" fill="#EBEBEB"/>
<path d="M100.298 125.093L121.922 134.704L143.548 81.843L124.325 74.6326L100.298 125.093Z" fill="#EAEAEA"/>
<rect x="238.805" y="86.873" width="208.816" height="80.6777" transform="rotate(-24.7314 238.805 86.873)" fill="#6C63FF"/>
<rect x="-66.7141" y="-10.2573" width="208.816" height="80.6777" transform="rotate(23.8374 -66.7141 -10.2573)" fill="#333333"/>
</g>
<defs>
<linearGradient id="paint0_linear" x1="14071.3" y1="3177.39" x2="12918.4" y2="649.905" gradientUnits="userSpaceOnUse">
<stop stop-color="#808080" stop-opacity="0.25"/>
<stop offset="0.54" stop-color="#808080" stop-opacity="0.12"/>
<stop offset="1" stop-color="#808080" stop-opacity="0.1"/>
</linearGradient>
<linearGradient id="paint1_linear" x1="6498.19" y1="1916.77" x2="6189.45" y2="1239.92" gradientUnits="userSpaceOnUse">
<stop stop-color="#808080" stop-opacity="0.25"/>
<stop offset="0.54" stop-color="#808080" stop-opacity="0.12"/>
<stop offset="1" stop-color="#808080" stop-opacity="0.1"/>
</linearGradient>
<clipPath id="clip0">
<rect width="411" height="184" fill="white" transform="translate(-24)"/>
</clipPath>
</defs>
</svg>
