<svg width="309" height="171" viewBox="0 0 309 171" fill="none" xmlns="http://www.w3.org/2000/svg">
<g clip-path="url(#clip0)">
<path opacity="0.1" d="M309 111.757C309.017 120.641 306.576 129.359 301.945 136.958C301.945 146.252 297.585 154.676 290.514 160.815C288.744 162.35 286.838 163.722 284.82 164.917C284.739 164.968 284.656 165.016 284.572 165.065C284.421 165.153 284.269 165.242 284.115 165.333L283.972 165.416C283.327 165.779 282.668 166.128 281.995 166.455C275.797 169.484 268.978 171.046 262.072 171.019H58.6588C57.0381 171.019 55.4319 170.954 53.8401 170.825C48.1832 170.383 42.6244 169.103 37.3475 167.03C36.3175 166.625 35.3073 166.19 34.3169 165.725C33.8451 165.505 33.3779 165.278 32.9151 165.046C32.6261 164.901 32.3371 164.751 32.0507 164.6C30.3135 163.682 28.6307 162.666 27.0106 161.556C25.53 160.549 24.1053 159.463 22.7429 158.302C13.5513 150.464 7.86556 139.616 7.86556 127.646C2.71346 119.761 -0.0193924 110.557 0.000103588 101.156C0.000103588 74.542 21.4032 52.967 47.8087 52.967C48.619 52.967 49.4293 52.9911 50.2396 53.0341C50.3558 53.0341 50.4692 53.0341 50.5853 53.0502C55.0367 45.5096 60.9871 38.581 68.1422 32.4819C87.6545 15.8651 116.172 5.39032 147.939 5.39032C174.631 5.39032 199.03 12.786 217.718 25.0057C224.8 21.027 232.799 18.9413 240.934 18.9522C267.334 18.9522 288.742 40.5272 288.742 67.1409C288.738 68.8249 288.648 70.5075 288.472 72.1824C294.836 76.6595 300.023 82.5921 303.596 89.4796C307.168 96.3672 309.022 104.008 309 111.757Z" fill="#6C63FF"/>
<path opacity="0.1" d="M245.982 73.5462V70.6658C248.249 69.751 250.125 68.0816 251.29 65.9432C252.454 63.8048 252.835 61.3305 252.366 58.944C251.897 56.5575 250.608 54.4072 248.72 52.8613C246.831 51.3155 244.461 50.4702 242.014 50.4702C239.567 50.4702 237.197 51.3155 235.308 52.8613C233.42 54.4072 232.131 56.5575 231.662 58.944C231.193 61.3305 231.573 63.8048 232.738 65.9432C233.903 68.0816 235.779 69.751 238.046 70.6658V73.5462C235.403 74.2763 233.016 75.7192 231.148 77.7152C229.169 74.7649 226.19 72.6194 222.753 71.6698V68.7866C225.02 67.8719 226.896 66.2024 228.061 64.0641C229.225 61.9257 229.606 59.4514 229.137 57.0649C228.668 54.6784 227.379 52.5281 225.491 50.9822C223.602 49.4364 221.232 48.591 218.785 48.591C216.338 48.591 213.968 49.4364 212.079 50.9822C210.191 52.5281 208.902 54.6784 208.433 57.0649C207.964 59.4514 208.344 61.9257 209.509 64.0641C210.674 66.2024 212.55 67.8719 214.817 68.7866V71.6671C212.467 72.3154 210.314 73.5287 208.548 75.1998C206.577 72.5704 203.783 70.6666 200.604 69.788V66.9075C202.871 65.9928 204.747 64.3233 205.912 62.1849C207.077 60.0465 207.457 57.5723 206.988 55.1858C206.52 52.7993 205.23 50.649 203.342 49.1031C201.453 47.5572 199.083 46.7119 196.636 46.7119C194.19 46.7119 191.819 47.5572 189.931 49.1031C188.042 50.649 186.753 52.7993 186.284 55.1858C185.815 57.5723 186.196 60.0465 187.361 62.1849C188.525 64.3233 190.402 65.9928 192.668 66.9075V69.788C189.965 70.5368 187.53 72.0316 185.646 74.0992C184.806 71.9591 183.476 70.0429 181.761 68.5024C180.047 66.9619 177.995 65.8396 175.768 65.2244V62.3439C178.035 61.4292 179.911 59.7597 181.076 57.6214C182.241 55.483 182.621 53.0087 182.152 50.6222C181.683 48.2357 180.394 46.0854 178.506 44.5395C176.617 42.9937 174.247 42.1483 171.8 42.1483C169.354 42.1483 166.983 42.9937 165.095 44.5395C163.206 46.0854 161.917 48.2357 161.448 50.6222C160.979 53.0087 161.36 55.483 162.524 57.6214C163.689 59.7597 165.565 61.4292 167.832 62.3439V65.2244C164.938 66.0253 162.356 67.6797 160.427 69.9691C158.498 72.2585 157.313 75.0754 157.028 78.048C155.665 77.1075 154.152 76.4024 152.553 75.9622V73.0818C154.819 72.1671 156.696 70.4976 157.861 68.3592C159.025 66.2208 159.406 63.7465 158.937 61.36C158.468 58.9735 157.179 56.8232 155.29 55.2774C153.402 53.7315 151.031 52.8862 148.585 52.8862C146.138 52.8862 143.768 53.7315 141.879 55.2774C139.991 56.8232 138.701 58.9735 138.233 61.36C137.764 63.7465 138.144 66.2208 139.309 68.3592C140.474 70.4976 142.35 72.1671 144.617 73.0818V75.9622C142.599 76.5206 140.723 77.4953 139.11 78.8228C137.497 80.1503 136.183 81.8008 135.255 83.6666C134.004 82.8673 132.638 82.2609 131.203 81.868V78.9876C133.47 78.0729 135.347 76.4034 136.511 74.265C137.676 72.1266 138.057 69.6523 137.588 67.2658C137.119 64.8793 135.83 62.729 133.941 61.1832C132.053 59.6373 129.682 58.792 127.236 58.792C124.789 58.792 122.418 59.6373 120.53 61.1832C118.641 62.729 117.352 64.8793 116.883 67.2658C116.415 69.6523 116.795 72.1266 117.96 74.265C119.124 76.4034 121.001 78.0729 123.268 78.9876V81.868C121.915 82.2391 120.622 82.8014 119.43 83.5377C118.495 81.7025 117.186 80.081 115.586 78.7767C113.985 77.4724 112.129 76.5138 110.135 75.9622V73.0818C112.402 72.1671 114.279 70.4976 115.443 68.3592C116.608 66.2208 116.988 63.7465 116.519 61.36C116.051 58.9735 114.762 56.8232 112.873 55.2774C110.985 53.7315 108.614 52.8862 106.167 52.8862C103.721 52.8862 101.35 53.7315 99.4618 55.2774C97.5732 56.8232 96.2842 58.9735 95.8153 61.36C95.3464 63.7465 95.7269 66.2208 96.8916 68.3592C98.0562 70.4976 99.9327 72.1671 102.2 73.0818V75.9622C100.054 76.5555 98.0692 77.6198 96.3923 79.0768C94.7155 80.5338 93.3891 82.3463 92.5109 84.3807C91.0004 83.2283 89.281 82.3752 87.4464 81.868V78.9876C89.7133 78.0729 91.5897 76.4034 92.7544 74.265C93.9191 72.1266 94.2995 69.6523 93.8307 67.2658C93.3618 64.8793 92.0727 62.729 90.1842 61.1832C88.2957 59.6373 85.9252 58.792 83.4786 58.792C81.032 58.792 78.6615 59.6373 76.7729 61.1832C74.8844 62.729 73.5954 64.8793 73.1265 67.2658C72.6576 69.6523 73.0381 72.1266 74.2028 74.265C75.3674 76.4034 77.2438 78.0729 79.5107 78.9876V81.868C76.3804 82.7303 73.6207 84.5885 71.6542 87.1582C69.6877 89.7278 68.6229 92.8672 68.6228 96.0956V162.67H98.3181V156.764H112.364V162.67H142.075V156.764H163.413V146.027H181.781V150.59H203.929V152.469H227.158V154.348H256.87V87.7738C256.87 84.5454 255.805 81.406 253.838 78.8364C251.872 76.2667 249.112 74.4085 245.982 73.5462Z" fill="#6C63FF"/>
<path d="M132.562 45.3673H157.258C163.298 45.367 169.279 46.5491 174.86 48.8461C180.44 51.1431 185.511 54.5101 189.782 58.7548C194.053 62.9995 197.441 68.0388 199.753 73.5849C202.064 79.1309 203.254 85.0752 203.254 91.0783V153.014H86.5686V91.0783C86.5686 78.955 91.4143 67.3282 100.04 58.7558C108.665 50.1833 120.364 45.3673 132.562 45.3673Z" fill="#2F2E41"/>
<path opacity="0.2" d="M135.263 47.8585H154.557C160.597 47.8582 166.578 49.0403 172.159 51.3373C177.739 53.6343 182.81 57.0013 187.081 61.246C191.352 65.4907 194.74 70.5299 197.052 76.076C199.363 81.6221 200.553 87.5664 200.553 93.5695V150.52H89.2698V93.5695C89.2698 81.4462 94.1155 69.8194 102.741 61.247C111.366 52.6745 123.065 47.8585 135.263 47.8585Z" fill="black"/>
<path d="M281.99 161.763V166.45C275.792 169.479 268.973 171.041 262.067 171.013H58.6587C57.0381 171.013 55.4318 170.949 53.84 170.82C48.1831 170.377 42.6243 169.098 37.3474 167.024C36.3174 166.62 35.3072 166.185 34.3168 165.72C33.8451 165.5 33.3778 165.273 32.915 165.041C32.626 164.896 32.337 164.745 32.0507 164.595C30.3136 163.679 28.6307 162.664 27.0105 161.556V148.826C27.0105 146.769 27.8329 144.796 29.2968 143.341C30.7607 141.886 32.7462 141.068 34.8165 141.068H259.336C261.224 141.072 263.048 141.756 264.468 142.993L279.324 155.932C280.16 156.659 280.831 157.555 281.291 158.561C281.751 159.567 281.989 160.658 281.99 161.763Z" fill="#2F2E41"/>
<path d="M130.371 60.6177C124.481 61.0043 118.614 61.6306 112.769 62.4968C111.108 62.7438 109.422 63.0176 107.907 63.7478C106.729 64.3606 105.644 65.1341 104.682 66.0457C100.343 69.909 96.8493 74.6174 94.4178 79.8787C92.9133 83.1403 91.8329 86.5898 90.4148 89.8783C85.3666 101.623 76.21 111.228 70.8809 122.849C69.7275 125.364 68.7551 127.99 68.3689 130.725C67.9691 133.554 68.4229 136.856 70.762 138.51C71.8424 139.27 73.1551 139.584 74.4408 139.852C90.6259 143.414 106.999 146.072 123.484 147.812C121.698 146.099 121.101 143.444 121.336 140.99C121.571 138.537 122.541 136.217 123.497 133.944C114.168 131.898 104.862 129.751 95.5792 127.501C94.1936 127.165 92.5298 126.535 92.3596 125.128C92.2732 124.411 92.6297 123.721 92.9808 123.09C96.9398 115.966 101.687 109.303 107.134 103.225C107.134 110.758 106.759 119.265 106.759 126.8H194.3C193.247 122.501 192.628 118.108 192.452 113.687C192.044 99.2551 196.933 84.9335 195.664 70.5314C195.545 69.2026 195.361 67.8335 194.662 66.6953C193.454 64.7303 191.045 63.9169 188.83 63.2458C180.338 60.6795 171.668 58.0836 162.792 58.2849C160.153 58.3467 157.525 58.6527 154.902 58.9614C146.91 59.8983 138.402 60.0889 130.371 60.6177Z" fill="#6C63FF"/>
<path d="M89.3723 147.194L95.7467 167.47C95.7875 167.598 95.8684 167.711 95.9777 167.79C96.087 167.87 96.219 167.913 96.3545 167.913H123.708L117.225 144.29L89.9287 146.375C89.8336 146.383 89.7415 146.412 89.6592 146.46C89.5768 146.508 89.5064 146.574 89.453 146.652C89.3995 146.731 89.3646 146.82 89.3506 146.914C89.3367 147.008 89.344 147.104 89.3723 147.194Z" fill="#656478"/>
<path d="M136.133 69.3368C134.944 70.016 133.559 70.2603 132.208 70.4938L123.492 71.9971C121.796 72.2897 120.01 72.6226 118.703 73.7367C116.029 76.0104 116.607 80.1955 117.417 83.5994L119.038 90.4286C120.259 95.5613 121.507 100.756 124.01 105.405C128.383 113.52 136.406 119.364 145.227 122.18C148.379 123.187 151.71 123.842 155 123.482C161.444 122.779 166.957 118.213 170.355 112.723C173.753 107.233 175.371 100.866 176.854 94.5895C178.277 88.5817 179.63 82.488 179.539 76.3137C179.512 74.3917 179.317 72.3837 178.285 70.7542C176.025 67.1758 170.901 66.9074 166.7 67.5678C166.047 67.6725 165.369 67.7852 164.74 67.5892C162.849 67.004 162.806 64.4243 161.995 62.6337C160.464 59.2567 155.921 58.6581 152.207 58.9641C148.493 59.2701 142.71 59.6647 139.474 61.7559C136.362 63.7558 139.782 67.2456 136.133 69.3368Z" fill="#FBBEBE"/>
<path opacity="0.1" d="M136.133 69.3368C134.944 70.016 133.559 70.2603 132.208 70.4938L123.492 71.9971C121.796 72.2897 120.01 72.6226 118.703 73.7367C116.029 76.0104 116.607 80.1955 117.417 83.5994L119.038 90.4286C120.259 95.5613 121.507 100.756 124.01 105.405C128.383 113.52 136.406 119.364 145.227 122.18C148.379 123.187 151.71 123.842 155 123.482C161.444 122.779 166.957 118.213 170.355 112.723C173.753 107.233 175.371 100.866 176.854 94.5895C178.277 88.5817 179.63 82.488 179.539 76.3137C179.512 74.3917 179.317 72.3837 178.285 70.7542C176.025 67.1758 170.901 66.9074 166.7 67.5678C166.047 67.6725 165.369 67.7852 164.74 67.5892C162.849 67.004 162.806 64.4243 161.995 62.6337C160.464 59.2567 155.921 58.6581 152.207 58.9641C148.493 59.2701 142.71 59.6647 139.474 61.7559C136.362 63.7558 139.782 67.2456 136.133 69.3368Z" fill="black"/>
<path d="M128.919 77.0305C130.237 79.7794 131.225 82.6947 132.819 85.2959C134.086 87.363 135.709 89.1857 137.324 90.9977C141.508 95.7009 145.746 100.442 150.924 104.023C153.068 93.0746 158.248 82.9399 165.88 74.7621C168.111 72.381 170.904 70.0348 174.177 70.1234C176.209 70.1797 178.083 71.181 179.774 72.2951C181.665 73.538 183.453 74.9796 184.811 76.7701C186.959 79.621 187.885 83.2316 188.053 86.7885C188.22 90.3454 187.664 93.8943 187.113 97.4109L184.277 115.587C184.112 116.64 183.882 117.802 183.018 118.433C182.527 118.742 181.974 118.94 181.397 119.013C171.087 121.007 160.461 119.713 149.957 119.611C138.343 119.501 126.407 120.817 115.405 117.144C114.83 116.951 114.233 116.728 113.844 116.269C113.589 115.923 113.405 115.53 113.304 115.112C110.74 106.866 112.796 98.0042 114.317 89.5078C115.521 82.7748 116.378 75.985 116.885 69.165C116.931 68.5503 123.727 69.9086 124.486 70.3435C126.552 71.5596 127.925 74.9581 128.919 77.0305Z" fill="#6C63FF"/>
<g opacity="0.2">
<path opacity="0.2" d="M45.0723 144.099C45.0723 144.223 45.0588 144.343 45.0453 144.461C44.0153 144.057 43.0051 143.622 42.0147 143.157C41.4856 143.088 40.9936 142.849 40.6129 142.478C40.3239 142.333 40.0348 142.182 39.7485 142.032C39.8134 141.897 39.8864 141.766 39.9673 141.64C40.5237 140.765 41.3692 140.217 42.301 140.247C43.2329 140.276 44.0405 140.875 44.5402 141.78C44.9224 142.492 45.1061 143.293 45.0723 144.099Z" fill="#3F3D56"/>
<path opacity="0.2" d="M45.2183 139.503C45.1998 140.308 44.9658 141.094 44.5403 141.78C43.9839 142.652 43.1385 143.2 42.2066 143.17L42.0148 143.157C41.4857 143.088 40.9937 142.849 40.613 142.478C40.3548 142.234 40.1369 141.951 39.9674 141.64C39.5947 140.925 39.4124 140.128 39.4379 139.323C39.4634 138.519 39.696 137.734 40.1133 137.044C40.6697 136.169 41.5151 135.621 42.447 135.651C43.3788 135.681 44.1865 136.279 44.6862 137.184C45.0683 137.896 45.252 138.697 45.2183 139.503Z" fill="#3F3D56"/>
<path opacity="0.2" d="M45.3639 134.914C45.4299 132.838 44.1901 131.115 42.5948 131.065C40.9994 131.015 39.6526 132.657 39.5866 134.733C39.5206 136.809 40.7603 138.533 42.3557 138.583C43.9511 138.633 45.2979 136.99 45.3639 134.914Z" fill="#3F3D56"/>
<path opacity="0.2" d="M45.5114 130.319C45.5774 128.242 44.3376 126.519 42.7422 126.469C41.1469 126.419 39.8 128.061 39.734 130.137C39.668 132.213 40.9078 133.937 42.5032 133.987C44.0986 134.037 45.4454 132.395 45.5114 130.319Z" fill="#3F3D56"/>
<path opacity="0.2" d="M45.6559 125.723C45.7219 123.647 44.4821 121.923 42.8867 121.873C41.2914 121.823 39.9446 123.465 39.8786 125.541C39.8125 127.617 41.0523 129.341 42.6477 129.391C44.2431 129.441 45.5899 127.799 45.6559 125.723Z" fill="#3F3D56"/>
<path opacity="0.2" d="M32.9529 93.8352C32.5725 93.3234 32.2295 92.7851 31.9265 92.2246L39.5596 91.2233L31.3322 91.03C30.599 89.3014 30.2282 87.4424 30.2426 85.5666C30.257 83.6908 30.6563 81.8376 31.416 80.1203L42.2526 86.1443L32.3262 78.4023C33.3276 76.7927 34.6521 75.4055 36.2171 74.3275C37.7821 73.2494 39.554 72.5037 41.422 72.1368C43.2901 71.7699 45.2141 71.7898 47.0741 72.1952C48.9341 72.6005 50.6899 73.3827 52.2321 74.4928C53.7742 75.6029 55.0695 77.0171 56.037 78.647C57.0045 80.277 57.6235 82.0877 57.8553 83.9661C58.087 85.8445 57.9266 87.7502 57.384 89.5642C56.8414 91.3782 55.9283 93.0615 54.7017 94.509C55.2928 95.3056 55.7954 96.1633 56.2008 97.0673L46.188 101.856L56.8112 98.6807C57.4805 100.874 57.5889 103.198 57.1267 105.443C56.6645 107.688 55.6463 109.784 54.1642 111.539C55.707 113.619 56.6296 116.089 56.8263 118.666C57.0231 121.242 56.4861 123.822 55.2768 126.11C54.0676 128.397 52.2348 130.301 49.9882 131.602C47.7417 132.903 45.172 133.549 42.5732 133.466C39.9745 133.384 37.4515 132.576 35.293 131.135C33.1344 129.695 31.4275 127.679 30.3675 125.32C29.3074 122.96 28.937 120.352 29.2987 117.793C29.6604 115.234 30.7395 112.827 32.4126 110.849C30.57 108.364 29.6215 105.335 29.7194 102.249C29.8174 99.1637 30.9562 96.2003 32.9529 93.8352Z" fill="#6C63FF"/>
<path opacity="0.1" d="M57.3972 103.115C57.302 106.203 56.1599 109.169 54.156 111.531C55.7009 113.61 56.6256 116.08 56.8243 118.657C57.023 121.234 56.4876 123.815 55.2795 126.104C54.0713 128.393 52.2392 130.297 49.9928 131.599C47.7464 132.902 45.1764 133.549 42.577 133.468C39.9776 133.386 37.4538 132.579 35.2945 131.139C33.1351 129.698 31.4275 127.682 30.3669 125.322C29.3063 122.962 28.9357 120.353 29.2975 117.794C29.6593 115.234 30.7388 112.828 32.4125 110.849C30.6218 108.449 57.4459 101.572 57.3972 103.115Z" fill="black"/>
</g>
<path opacity="0.1" d="M18.3726 43.7056C21.5993 43.7056 24.215 41.106 24.215 37.8992C24.215 34.6923 21.5993 32.0927 18.3726 32.0927C15.146 32.0927 12.5303 34.6923 12.5303 37.8992C12.5303 41.106 15.146 43.7056 18.3726 43.7056Z" fill="#6C63FF"/>
<path opacity="0.1" d="M42.7225 11.613C45.9491 11.613 48.5649 9.01332 48.5649 5.80648C48.5649 2.59965 45.9491 0 42.7225 0C39.4958 0 36.8801 2.59965 36.8801 5.80648C36.8801 9.01332 39.4958 11.613 42.7225 11.613Z" fill="#6C63FF"/>
<path opacity="0.1" d="M40.7427 37.5851C46.1503 37.5851 50.534 33.2283 50.534 27.8539C50.534 22.4796 46.1503 18.1228 40.7427 18.1228C35.3351 18.1228 30.9514 22.4796 30.9514 27.8539C30.9514 33.2283 35.3351 37.5851 40.7427 37.5851Z" fill="#6C63FF"/>
<path d="M146.667 72.3461C159.198 72.3461 169.356 62.2504 169.356 49.7967C169.356 37.343 159.198 27.2473 146.667 27.2473C134.136 27.2473 123.978 37.343 123.978 49.7967C123.978 62.2504 134.136 72.3461 146.667 72.3461Z" fill="#FBBEBE"/>
<path d="M137.451 5.54878C131.398 6.31117 124.864 7.31784 120.586 11.6398C118.192 14.0558 116.791 17.2772 115.637 20.4663C113.849 25.4326 112.518 30.6673 112.936 35.9368C113.309 40.6508 115.065 45.472 113.644 49.9873C112.99 52.0651 111.707 53.8798 110.711 55.8153C108.863 59.4098 107.993 63.4391 107.675 67.4631C107.453 70.2308 107.496 73.079 108.412 75.7017C109.387 78.4936 111.289 80.8693 112.493 83.5699C114.276 87.559 114.454 92.0474 114.592 96.4097C114.73 100.772 114.846 105.105 114.948 109.451C115.013 112.184 115.019 115.11 113.498 117.389C119.113 115.153 124.807 112.871 129.612 109.22C134.418 105.569 138.307 100.305 138.928 94.3238C139.431 89.4757 137.783 84.6974 136.362 80.0318C132.851 68.4886 130.582 56.183 133.137 44.3956C134.058 40.1515 136.298 35.4134 140.595 34.6322C143.218 34.1571 145.835 35.3463 148.198 36.5758C153.784 39.4803 159.543 43.2386 161.623 49.1524C163.513 54.4999 161.922 60.4567 159.462 65.5625C157.001 70.6684 153.652 75.3635 151.739 80.7002C148.803 88.8878 149.63 98.474 154.508 105.687C159.386 112.9 168.4 117.338 177.067 116.173C176.389 113.263 174.264 110.911 173.124 108.146C171.052 103.123 172.448 97.3465 174.677 92.391C176.905 87.4355 179.947 82.8155 181.34 77.554C182.323 73.8495 182.442 69.9785 182.437 66.1477C182.437 60.1185 182.137 54.0865 181.554 48.084C180.97 42.0816 180.079 36.004 178.156 30.2297C176.611 25.599 174.361 21.1213 170.995 17.5698C167.414 13.7874 162.752 11.2237 158.173 8.71107C155.434 7.21314 152.636 5.69643 149.562 5.13537C147.131 4.69244 144.576 4.06159 142.097 4.02132C140.411 3.99716 138.639 4.35956 137.451 5.54878Z" fill="#434175"/>
<path d="M176.919 53.9575C176.206 52.7039 175.444 51.4073 174.242 50.6047C173.551 50.1835 172.809 49.8524 172.033 49.6195C169.415 48.7094 166.755 47.7913 163.986 47.6464C163.535 47.6249 163.019 47.6464 162.725 47.99C162.12 48.696 163.079 49.657 163.908 50.0839L170.504 53.4797L164.424 52.8408C163.541 52.7468 162.282 52.9858 162.347 53.8663C162.39 54.4434 163.027 54.7575 163.578 54.9401C167.481 56.2823 171.992 57.3346 174.129 60.8459C171.282 60.5774 168.373 60.309 165.583 60.9318C164.818 61.1036 164.027 61.3693 163.527 61.968C163.027 62.5666 162.971 63.5786 163.6 64.0538C163.989 64.341 164.513 64.3491 164.999 64.3222C166.979 64.2283 169.01 63.8364 170.912 64.3974C172.813 64.9585 174.501 66.9396 173.845 68.7972C175.53 68.9476 177.524 68.7972 179.082 68.0751C180.8 67.2698 180.76 65.7557 180.654 63.9303C180.43 60.3546 178.645 57.0178 176.919 53.9575Z" fill="#FBBEBE"/>
<path opacity="0.1" d="M175.214 112.476C173.703 101.912 171.629 91.4353 169.002 81.0894C167.651 75.7205 166.117 70.2603 166.503 64.7357C172.084 65.4417 177.084 65.9652 182.226 63.6995C182.31 66.6014 184.428 69.0684 185.198 71.8737C185.713 73.7528 185.519 75.742 185.722 77.6775C185.924 79.613 186.532 81.4894 187.053 83.3712C189.64 92.6963 190.249 102.454 188.844 112.025C184.071 112.589 179.976 113.209 175.214 112.476Z" fill="black"/>
<path d="M174.404 112.476C172.892 101.912 170.819 91.4353 168.192 81.0894C166.841 75.7205 165.307 70.2603 165.693 64.7357C171.274 65.4417 176.273 65.9652 181.416 63.6995C181.5 66.6014 183.617 69.0684 184.387 71.8737C184.903 73.7528 184.709 75.742 184.911 77.6775C185.114 79.613 185.721 81.4894 186.243 83.3712C188.829 92.6963 189.439 102.454 188.034 112.025C183.261 112.589 179.166 113.209 174.404 112.476Z" fill="#6C63FF"/>
<path d="M96.3274 164.764L98.9717 99.5666C99.0138 98.5303 99.4604 97.5509 100.217 96.8363C100.973 96.1217 101.98 95.728 103.023 95.7386L207.424 96.7318C207.977 96.7375 208.524 96.8567 209.028 97.0821C209.533 97.3075 209.985 97.6341 210.357 98.0414C210.728 98.4488 211.011 98.9281 211.187 99.4493C211.364 99.9704 211.43 100.522 211.381 101.07L205.866 163.529C205.779 164.511 205.33 165.427 204.604 166.099C203.878 166.771 202.928 167.153 201.936 167.169L100.409 168.914C99.8621 168.923 99.3194 168.822 98.8138 168.615C98.3082 168.409 97.8504 168.102 97.4683 167.713C97.0862 167.325 96.7879 166.863 96.5918 166.356C96.3956 165.848 96.3056 165.307 96.3274 164.764Z" fill="#3F3D56"/>
<path d="M154.635 130.733C157.171 130.733 159.227 128.329 159.227 125.364C159.227 122.399 157.171 119.995 154.635 119.995C152.099 119.995 150.043 122.399 150.043 125.364C150.043 128.329 152.099 130.733 154.635 130.733Z" fill="#6C63FF"/>
<path d="M252.818 121.676L252.602 123.517L249.091 153.277C239.937 159.621 232.817 153.524 232.755 153.277L228.331 123.378L228.079 121.676H252.818Z" fill="#3F3D56"/>
<path opacity="0.1" d="M252.818 121.676L252.602 123.517C242.29 129.477 231.288 124.838 228.331 123.378L228.079 121.676H252.818Z" fill="black"/>
<path d="M227.563 120.06V122.744C227.563 122.744 241.204 130.626 253.493 122.744V120.06H227.563Z" fill="#6C63FF"/>
<path d="M229.149 116.514C229.149 116.514 228.752 118.326 227.563 118.484V120.768H253.493V118.72C253.493 118.72 251.908 118.326 252.143 116.514H229.149Z" fill="#6C63FF"/>
<path d="M240.45 120.06C246.91 120.06 252.146 118.56 252.146 116.71C252.146 114.859 246.91 113.359 240.45 113.359C233.991 113.359 228.755 114.859 228.755 116.71C228.755 118.56 233.991 120.06 240.45 120.06Z" fill="#6C63FF"/>
<path opacity="0.1" d="M240.45 120.06C246.91 120.06 252.146 118.56 252.146 116.71C252.146 114.859 246.91 113.359 240.45 113.359C233.991 113.359 228.755 114.859 228.755 116.71C228.755 118.56 233.991 120.06 240.45 120.06Z" fill="black"/>
<path opacity="0.1" d="M250.717 116.513C250.717 117.856 246.282 118.956 240.807 118.956H240.515C236.839 118.93 233.662 118.419 232.042 117.657C231.31 117.313 230.894 116.924 230.894 116.513C230.894 115.832 232.028 115.214 233.865 114.771C236.147 114.275 238.479 114.04 240.815 114.071C246.282 114.071 250.717 115.163 250.717 116.513Z" fill="black"/>
<path opacity="0.1" d="M240.515 118.956C236.839 118.93 233.662 118.42 232.042 117.657L233.857 114.761L240.515 118.956Z" fill="black"/>
<path opacity="0.1" d="M230.157 116.702C230.016 116.672 229.83 116.72 229.803 116.86C229.799 116.931 229.818 117.001 229.857 117.061C230.166 117.548 230.616 117.93 231.148 118.159C231.239 118.21 231.339 118.242 231.442 118.253C231.496 118.26 231.551 118.25 231.599 118.225C231.647 118.2 231.687 118.161 231.712 118.114C231.727 118.073 231.733 118.03 231.73 117.987C231.727 117.944 231.714 117.902 231.693 117.864C231.611 117.719 231.496 117.594 231.359 117.499C230.997 117.217 230.627 116.779 230.157 116.702Z" fill="black"/>
<path d="M240.844 145.396C244.698 145.396 247.821 142.291 247.821 138.462C247.821 134.632 244.698 131.528 240.844 131.528C236.991 131.528 233.868 134.632 233.868 138.462C233.868 142.291 236.991 145.396 240.844 145.396Z" fill="#4D8AF0"/>
<path d="M50.8688 138.478H54.1398C55.9307 138.478 57.6483 139.185 58.9146 140.443C60.181 141.702 60.8924 143.409 60.8924 145.189V155.162H44.1162V145.189C44.1162 143.409 44.8276 141.702 46.094 140.443C47.3604 139.185 49.0779 138.478 50.8688 138.478Z" fill="#3F3D56"/>
<path opacity="0.1" d="M50.8688 138.478H54.1398C55.9307 138.478 57.6483 139.185 58.9146 140.443C60.181 141.702 60.8924 143.409 60.8924 145.189V155.162H44.1162V145.189C44.1162 143.409 44.8276 141.702 46.094 140.443C47.3604 139.185 49.0779 138.478 50.8688 138.478Z" fill="black"/>
<path d="M51.8331 142.147C52.5745 142.147 53.1756 141.55 53.1756 140.813C53.1756 140.076 52.5745 139.479 51.8331 139.479C51.0917 139.479 50.4907 140.076 50.4907 140.813C50.4907 141.55 51.0917 142.147 51.8331 142.147Z" fill="#3F3D56"/>
<path d="M51.8331 140.48C52.5745 140.48 53.1756 139.883 53.1756 139.146C53.1756 138.409 52.5745 137.812 51.8331 137.812C51.0917 137.812 50.4907 138.409 50.4907 139.146C50.4907 139.883 51.0917 140.48 51.8331 140.48Z" fill="#3F3D56"/>
<path d="M51.8331 138.811C52.5745 138.811 53.1756 138.213 53.1756 137.477C53.1756 136.74 52.5745 136.142 51.8331 136.142C51.0917 136.142 50.4907 136.74 50.4907 137.477C50.4907 138.213 51.0917 138.811 51.8331 138.811Z" fill="#3F3D56"/>
<path d="M51.8331 137.144C52.5745 137.144 53.1756 136.546 53.1756 135.809C53.1756 135.073 52.5745 134.475 51.8331 134.475C51.0917 134.475 50.4907 135.073 50.4907 135.809C50.4907 136.546 51.0917 137.144 51.8331 137.144Z" fill="#3F3D56"/>
<path d="M51.8331 135.477C52.5745 135.477 53.1756 134.879 53.1756 134.142C53.1756 133.406 52.5745 132.808 51.8331 132.808C51.0917 132.808 50.4907 133.406 50.4907 134.142C50.4907 134.879 51.0917 135.477 51.8331 135.477Z" fill="#3F3D56"/>
<path d="M51.8331 133.81C52.5745 133.81 53.1756 133.212 53.1756 132.475C53.1756 131.738 52.5745 131.141 51.8331 131.141C51.0917 131.141 50.4907 131.738 50.4907 132.475C50.4907 133.212 51.0917 133.81 51.8331 133.81Z" fill="#3F3D56"/>
<path d="M51.8331 132.142C52.5745 132.142 53.1756 131.545 53.1756 130.808C53.1756 130.071 52.5745 129.474 51.8331 129.474C51.0917 129.474 50.4907 130.071 50.4907 130.808C50.4907 131.545 51.0917 132.142 51.8331 132.142Z" fill="#3F3D56"/>
<path d="M53.8483 132.808C54.5897 132.808 55.1907 132.211 55.1907 131.474C55.1907 130.737 54.5897 130.14 53.8483 130.14C53.1069 130.14 52.5059 130.737 52.5059 131.474C52.5059 132.211 53.1069 132.808 53.8483 132.808Z" fill="#3F3D56"/>
<path d="M55.1906 132.142C55.932 132.142 56.533 131.545 56.533 130.808C56.533 130.071 55.932 129.474 55.1906 129.474C54.4492 129.474 53.8481 130.071 53.8481 130.808C53.8481 131.545 54.4492 132.142 55.1906 132.142Z" fill="#3F3D56"/>
<path d="M56.5329 131.474C57.2742 131.474 57.8753 130.877 57.8753 130.14C57.8753 129.403 57.2742 128.806 56.5329 128.806C55.7915 128.806 55.1904 129.403 55.1904 130.14C55.1904 130.877 55.7915 131.474 56.5329 131.474Z" fill="#3F3D56"/>
<path d="M51.8331 130.475C52.5745 130.475 53.1756 129.878 53.1756 129.141C53.1756 128.404 52.5745 127.807 51.8331 127.807C51.0917 127.807 50.4907 128.404 50.4907 129.141C50.4907 129.878 51.0917 130.475 51.8331 130.475Z" fill="#3F3D56"/>
<path d="M51.8331 128.808C52.5745 128.808 53.1756 128.211 53.1756 127.474C53.1756 126.737 52.5745 126.14 51.8331 126.14C51.0917 126.14 50.4907 126.737 50.4907 127.474C50.4907 128.211 51.0917 128.808 51.8331 128.808Z" fill="#3F3D56"/>
<path d="M51.8331 127.139C52.5745 127.139 53.1756 126.541 53.1756 125.805C53.1756 125.068 52.5745 124.47 51.8331 124.47C51.0917 124.47 50.4907 125.068 50.4907 125.805C50.4907 126.541 51.0917 127.139 51.8331 127.139Z" fill="#3F3D56"/>
<path d="M51.8331 125.472C52.5745 125.472 53.1756 124.874 53.1756 124.137C53.1756 123.401 52.5745 122.803 51.8331 122.803C51.0917 122.803 50.4907 123.401 50.4907 124.137C50.4907 124.874 51.0917 125.472 51.8331 125.472Z" fill="#3F3D56"/>
<path d="M57.3974 119.837C57.0652 119.885 56.7303 119.92 56.3953 119.942C56.7079 119.67 56.9978 119.374 57.2624 119.056C57.0755 118.495 56.8021 117.967 56.4521 117.491C56.1193 117.676 55.7514 117.792 55.3717 117.829C55.0394 117.877 54.7045 117.912 54.3696 117.936C54.8098 117.579 55.2204 117.042 55.6526 116.594C54.6538 115.694 53.3662 115.175 52.0188 115.13C50.6713 115.085 49.3514 115.516 48.2937 116.347C47.236 117.178 46.5091 118.354 46.2423 119.668C45.9755 120.981 46.1861 122.346 46.8365 123.52C47.487 124.693 48.5353 125.6 49.7948 126.078C51.0544 126.555 52.4437 126.574 53.7156 126.129C54.9875 125.685 56.0595 124.806 56.7411 123.65C57.4227 122.494 57.6696 121.135 57.438 119.815L57.3974 119.837Z" fill="#6C63FF"/>
<path d="M61.8838 126.465C61.5413 126.674 61.1549 126.802 60.7547 126.838C60.4225 126.886 60.0876 126.924 59.7527 126.945C60.1086 126.628 60.4408 126.285 60.7466 125.92C59.9373 125.71 59.0783 125.808 58.3377 126.194C57.597 126.581 57.0279 127.228 56.7417 128.009C56.4555 128.79 56.4726 129.649 56.7899 130.418C57.1071 131.187 57.7016 131.811 58.4571 132.168C59.2126 132.525 60.0748 132.588 60.8752 132.347C61.6755 132.105 62.3564 131.576 62.7848 130.862C63.2132 130.148 63.3583 129.301 63.1917 128.486C63.025 127.672 62.5587 126.948 61.8838 126.457V126.465Z" fill="#6C63FF"/>
<path d="M49.8209 132.808C50.5623 132.808 51.1634 132.211 51.1634 131.474C51.1634 130.737 50.5623 130.14 49.8209 130.14C49.0795 130.14 48.4785 130.737 48.4785 131.474C48.4785 132.211 49.0795 132.808 49.8209 132.808Z" fill="#3F3D56"/>
<path d="M48.4784 132.142C49.2198 132.142 49.8208 131.545 49.8208 130.808C49.8208 130.071 49.2198 129.474 48.4784 129.474C47.737 129.474 47.136 130.071 47.136 130.808C47.136 131.545 47.737 132.142 48.4784 132.142Z" fill="#3F3D56"/>
<path d="M47.1359 131.474C47.8773 131.474 48.4783 130.877 48.4783 130.14C48.4783 129.403 47.8773 128.806 47.1359 128.806C46.3945 128.806 45.7935 129.403 45.7935 130.14C45.7935 130.877 46.3945 131.474 47.1359 131.474Z" fill="#3F3D56"/>
<path d="M41.7852 126.465C42.1275 126.674 42.5139 126.802 42.9142 126.838C43.2464 126.886 43.5814 126.924 43.9163 126.945C43.5596 126.629 43.2274 126.286 42.9223 125.92C43.7317 125.71 44.5906 125.808 45.3313 126.194C46.0719 126.581 46.641 127.228 46.9273 128.009C47.2135 128.79 47.1963 129.649 46.8791 130.418C46.5618 131.187 45.9674 131.811 45.2119 132.168C44.4563 132.525 43.5941 132.588 42.7938 132.347C41.9934 132.105 41.3125 131.576 40.8841 130.862C40.4557 130.148 40.3106 129.301 40.4773 128.486C40.6439 127.672 41.1103 126.948 41.7852 126.457V126.465Z" fill="#6C63FF"/>
<path d="M50.8688 139.479H54.1398C55.9307 139.479 57.6483 140.186 58.9146 141.445C60.181 142.703 60.8924 144.41 60.8924 146.19V155.014C60.8924 155.316 60.7718 155.605 60.557 155.819C60.3422 156.032 60.0509 156.152 59.7472 156.152H45.2615C44.9577 156.152 44.6664 156.032 44.4516 155.819C44.2369 155.605 44.1162 155.316 44.1162 155.014V146.19C44.1162 144.41 44.8276 142.703 46.094 141.445C47.3604 140.186 49.0779 139.479 50.8688 139.479Z" fill="#3F3D56"/>
<g opacity="0.1">
<path opacity="0.1" d="M57.5 120.202C57.3641 120.346 57.2198 120.483 57.0679 120.61C57.2218 120.61 57.3731 120.586 57.5271 120.57C57.5325 120.446 57.5135 120.323 57.5 120.202Z" fill="black"/>
<path opacity="0.1" d="M55.0527 118.607C55.3904 118.586 55.7226 118.551 56.0575 118.503C56.358 118.465 56.6517 118.385 56.93 118.267C56.794 117.998 56.6368 117.74 56.46 117.496C56.292 117.598 56.11 117.675 55.9198 117.724C55.6549 118.041 55.365 118.337 55.0527 118.607Z" fill="black"/>
<path opacity="0.1" d="M46.801 121.472C46.799 120.454 47.0732 119.455 47.5947 118.579C48.1163 117.703 48.8658 116.983 49.7644 116.495C50.6631 116.007 51.6775 115.769 52.7008 115.806C53.7242 115.842 54.7187 116.153 55.5794 116.704L55.6658 116.613C55.1041 116.116 54.449 115.735 53.7383 115.491C53.0275 115.247 52.2753 115.145 51.5248 115.191C50.7743 115.237 50.0404 115.431 49.3655 115.76C48.6905 116.09 48.0878 116.548 47.5921 117.11C47.0964 117.672 46.7175 118.326 46.4771 119.034C46.2368 119.742 46.1399 120.491 46.1919 121.236C46.2439 121.982 46.4438 122.71 46.7801 123.378C47.1165 124.046 47.5825 124.642 48.1515 125.131C47.278 124.109 46.7992 122.812 46.801 121.472Z" fill="black"/>
</g>
<g opacity="0.1">
<path opacity="0.1" d="M59.7527 127.611C60.0876 127.59 60.4225 127.555 60.7548 127.507C61.1552 127.469 61.5415 127.34 61.8838 127.131C62.263 127.408 62.5793 127.762 62.812 128.169C63.0446 128.576 63.1885 129.027 63.2343 129.493C63.2474 129.376 63.2537 129.259 63.2532 129.141C63.2558 128.62 63.1349 128.105 62.9003 127.639C62.6656 127.173 62.3239 126.768 61.9027 126.457C61.5602 126.666 61.1739 126.794 60.7737 126.83L60.5036 126.865C60.2731 127.133 60.022 127.382 59.7527 127.611Z" fill="black"/>
<path opacity="0.1" d="M59.8877 126.473C59.9997 126.474 60.1115 126.482 60.2226 126.497C60.3982 126.312 60.571 126.113 60.7466 125.92C60.25 125.788 59.7296 125.772 59.2256 125.872C58.7216 125.972 58.2475 126.186 57.8402 126.497C57.4328 126.809 57.103 127.209 56.8763 127.668C56.6496 128.126 56.5321 128.63 56.533 129.141C56.533 129.254 56.533 129.364 56.5492 129.474C56.6322 128.652 57.0198 127.889 57.6367 127.334C58.2536 126.78 59.0558 126.473 59.8877 126.473Z" fill="black"/>
</g>
<g opacity="0.1">
<path opacity="0.1" d="M43.9163 127.611C43.5814 127.59 43.2465 127.555 42.9143 127.507C42.5138 127.47 42.1274 127.341 41.7852 127.131C41.406 127.408 41.0898 127.762 40.8571 128.169C40.6244 128.576 40.4805 129.027 40.4347 129.493C40.4216 129.376 40.4153 129.259 40.4158 129.141C40.4133 128.62 40.5342 128.105 40.7688 127.639C41.0034 127.173 41.3451 126.768 41.7663 126.457C42.1087 126.666 42.4951 126.794 42.8954 126.83L43.1655 126.865C43.3945 127.134 43.6457 127.384 43.9163 127.611Z" fill="black"/>
<path opacity="0.1" d="M43.7813 126.473C43.6684 126.474 43.5556 126.482 43.4437 126.497C43.2708 126.312 43.0979 126.113 42.9224 125.92C43.4189 125.788 43.9394 125.772 44.4434 125.872C44.9474 125.972 45.4214 126.186 45.8288 126.497C46.2362 126.809 46.566 127.209 46.7927 127.668C47.0194 128.126 47.1368 128.63 47.136 129.141C47.136 129.254 47.136 129.364 47.1198 129.474C47.0367 128.652 46.6492 127.889 46.0322 127.334C45.4153 126.78 44.6131 126.473 43.7813 126.473Z" fill="black"/>
</g>
</g>
<defs>
<clipPath id="clip0">
<rect width="309" height="171" fill="white"/>
</clipPath>
</defs>
</svg>
